<?xml version="1.0" encoding="UTF-8" standalone="no" ?>
<!DOCTYPE svg PUBLIC "-//W3C//DTD SVG 1.1//EN" "http://www.w3.org/Graphics/SVG/1.1/DTD/svg11.dtd">
<svg xmlns="http://www.w3.org/2000/svg" xmlns:xlink="http://www.w3.org/1999/xlink" version="1.1" width="1280" height="1024" viewBox="0 0 1280 1024" xml:space="preserve">
<desc>Created with Fabric.js 5.3.0</desc>
<defs>
</defs>
<g transform="matrix(1 0 0 1 640 512)" id="background-logo"  >
<rect style="stroke: none; stroke-width: 0; stroke-dasharray: none; stroke-linecap: butt; stroke-dashoffset: 0; stroke-linejoin: miter; stroke-miterlimit: 4; fill: rgb(255,255,255); fill-opacity: 0; fill-rule: nonzero; opacity: 1;"  paint-order="stroke"  x="-640" y="-512" rx="0" ry="0" width="1280" height="1024" />
</g>
<g transform="matrix(1.9211538461538462 0 0 1.9211538461538462 640 378.94943124300266)" id="logo-logo"  >
<g style=""  paint-order="stroke"   >
		<g transform="matrix(0.858686399900827 0 0 0.858686399900827 -10.388276265030868 11.533750526990815)"  >
<path style="stroke: none; stroke-width: 1; stroke-dasharray: none; stroke-linecap: butt; stroke-dashoffset: 0; stroke-linejoin: miter; stroke-miterlimit: 4; fill: rgb(96,84,77); fill-rule: nonzero; opacity: 1;"  paint-order="stroke"  transform=" translate(-512.9871979500001, -527.054718)" d="M 508.1489563 550.0213013 C 511.33523560000003 561.8725586 500.4481506 582.5361939000001 436.63552860000004 621.2238159 L 527.9952393000001 621.2238159 C 557.2501831000001 588.2248535 560.1014405000001 569.3599853 555.4680787000001 557.8510742 C 547.0989991000001 537.0630493 511.8151551000001 534.006897 512.4042359000001 519.0425415 C 513.1488038000001 500.12969969999995 570.0778199000001 490.57305909999997 568.5744630000002 474.8723144 C 567.7770997000001 466.5450439 551.3220216000002 464.6282348 550.9131471000002 456.5576782 C 550.4443971000002 447.3048095 571.5103151000002 438.7006225 589.3388673000002 432.8868408 C 589.3384401000002 432.88647460000004 589.3379518000002 432.8859863 589.3375245000002 432.88562010000004 C 566.5902711000002 439.48364260000005 540.1963502000002 448.89825440000004 540.8723145000002 458.0212402 C 541.3708497000002 464.7501831 556.2026368000003 466.0103149 556.8297730000003 472.5744629 C 558.3088379000003 488.0557251 475.54171760000025 500.4837036 475.38302620000024 520.5744629000001 C 475.2893982 532.4221191 503.9794006 534.5128174 508.1489563 550.0213013 z" stroke-linecap="round" />
</g>
		<g transform="matrix(0.858686399900827 0 0 0.858686399900827 0 1.2420659201059436)"  >
<path style="stroke: none; stroke-width: 1; stroke-dasharray: none; stroke-linecap: butt; stroke-dashoffset: 0; stroke-linejoin: miter; stroke-miterlimit: 4; fill: rgb(45,35,30); fill-rule: nonzero; opacity: 1;"  paint-order="stroke"  transform=" translate(-525.08506775, -515.0693358999999)" d="M 636.7678223 520.3317261 L 636.7678223 621.2238159 L 581.1725464 621.2238159 C 583.5966187 617.0036620999999 585.9516602 612.4555054 588.1489258 607.5532226 C 595.9821778 590.0765991000001 600.487793 580.133789 597.6808472 569.085083 C 590.7813721 541.9274902000001 548.3295899 538.7595215 548.914856 523.8936157 C 549.6082154 506.28253170000005 605.3509521999999 498.13256830000006 604.5744629 483.0425415000001 C 603.9528809 470.9631348000001 567.5224608999999 467.9171753000001 566.7872315 455.9786987000001 C 566.3305054 448.5630493000001 579.8635865 441.2062378000001 596.7973023 434.8430786000001 C 621.2261353 455.2811279 636.7678223 485.989502 636.7678223 520.3317261 z M 435.2978821 519.0425415 C 435.69668579999995 513.953186 441.7610779 509.04290769999994 450.5125427 504.49096679999997 L 450.5125427 504.49096679999997 L 498.61703489999996 439.38299559999996 L 552.7073974 426.65582269999993 C 549.9760742 421.7056273999999 547.621643 416.66455069999995 546.7834472 410.9830931999999 C 539.8469237999999 409.63110349999994 532.6831053999999 408.9148558999999 525.3509521 408.9148558999999 L 525.350769 408.9148558999999 C 463.52334590000004 408.9148558999999 413.4023132 459.0359496999999 413.4023132 520.8633421999999 L 413.4023132 586.3663328999999 C 455.0965271 568.8577879999999 465.5314636 556.7815550999999 464.5744934 548.3191526999999 C 463.0907288 535.1982422 434.3777771 530.7850952 435.2978821 519.0425415 z" stroke-linecap="round" />
</g>
		<g transform="matrix(0.858686399900827 0 0 0.858686399900827 1.4065811322511195 -32.55015791122395)"  >
<linearGradient id="SVGID_2_257632" gradientUnits="userSpaceOnUse" gradientTransform="matrix(1 0 0 1 0 0)"  x1="526.7231445" y1="545.4099731" x2="526.7231445" y2="406.0219116">
<stop offset="27.220329999999997%" style="stop-color:rgb(220,69,1);stop-opacity: 1"/>
<stop offset="67.76227%" style="stop-color:rgb(252,138,3);stop-opacity: 1"/>
</linearGradient>
<path style="stroke: none; stroke-width: 1; stroke-dasharray: none; stroke-linecap: butt; stroke-dashoffset: 0; stroke-linejoin: miter; stroke-miterlimit: 4; fill: url(#SVGID_2_257632); fill-rule: nonzero; opacity: 1;"  paint-order="stroke"  transform=" translate(-526.7231292499999, -475.71594235)" d="M 450.5125427 504.4909668 C 448.8805847 498.17767330000004 448.0104065 491.5579834 448.0104065 484.7346802 C 448.0104065 441.2628174 483.2513123 406.0219116 526.7231445 406.0219116 C 549.3225708 406.0219116 569.6797485 415.5623779 584.0342406999999 430.8168945 C 539.8720702999999 442.1020507 527.9832153 450.6948852 528.2340088 457.085083 C 528.4014281999999 461.3504028 533.9482422 463.8450317 533.3403930999999 469 C 532.3323364999999 477.5488892 515.8209838999999 481.6605835 501.9361877999999 485.85107419999997 C 486.2460022 490.5864258 464.7972717 497.0609741 450.5125427 504.4909668 z M 592.3345947 441.2584839 C 589.3739013 442.7086182 579.4829712000001 447.97247319999997 577.2929687000001 457.5061035 C 576.6353759000001 460.3687744 577.0001831000001 462.1882324 577.1276245 462.74468989999997 C 577.4649048 464.21740719999997 578.1272583 465.50842279999995 578.9865112 466.63995359999996 C 589.8834228 471.49206539999994 604.1869507 475.5120239 604.5744629 483.04254149999997 C 604.6834107 485.1600342 603.6788941 487.1408691 601.8703002999999 489.0303955 C 601.8703612999999 489.0303955 601.8704223999999 489.0303955 601.8704833999999 489.0303955 C 601.8701171999999 489.0307007 601.8698729999999 489.0309448 601.8695068 489.03125 C 601.0297850999999 489.9083862 600.0140379999999 490.765564 598.8583983999999 491.6078491 C 591.7760619999999 497.6284179 585.9296264 502.3106689 581.8510130999999 505.5106201 C 571.9066771999999 513.3127441 565.493164 517.7824707 562.7872313999999 526.3616943 C 561.2891844999999 531.1112671 561.9386595999999 533.9143065999999 562.2765501999999 535.0425415 C 562.6631468999999 536.3334351 563.2698973999999 537.4662476 563.9956663999999 538.4832153 C 568.0436399999999 540.6149902 572.5005491999999 542.8422851 576.8334959999999 545.4099731 C 594.2993162999999 530.9782104 605.4358519999998 509.1631469 605.4358519999998 484.7346801 C 605.4358521 468.6594238 600.6066284 453.71698 592.3345947 441.2584839 z" stroke-linecap="round" />
</g>
		<g transform="matrix(0.858686399900827 0 0 0.858686399900827 3.3918741354526674 -32.55015782535537)"  >
<linearGradient id="SVGID_3_257633" gradientUnits="userSpaceOnUse" gradientTransform="matrix(1 0 0 1 0 0)"  x1="529.0351562" y1="545.4099731" x2="529.0351562" y2="406.0219116">
<stop offset="27.220329999999997%" style="stop-color:rgb(220,69,1);stop-opacity: 1"/>
<stop offset="100%" style="stop-color:rgb(252,138,3);stop-opacity: 1"/>
</linearGradient>
<path style="stroke: none; stroke-width: 1; stroke-dasharray: none; stroke-linecap: butt; stroke-dashoffset: 0; stroke-linejoin: miter; stroke-miterlimit: 4; fill: url(#SVGID_3_257633); fill-rule: nonzero; opacity: 1;"  paint-order="stroke"  transform=" translate(-529.0351409499999, -475.71594244999994)" d="M 452.6344299 458.1204224 C 463.5469055 427.7478028 492.59371949999996 406.0219117 526.7231445 406.0219117 C 549.3225708 406.0219117 569.6797485 415.56237799999997 584.0342406999999 430.81689459999996 C 553.5183105 438.6149293 538.4174803999999 445.12670909999997 532.0782469999999 450.51525889999994 C 521.9825438999999 445.92883309999996 510.7793883999999 443.35369879999996 498.9682310999999 443.35369879999996 C 481.6996155 443.3536987 465.7201843 448.8323364 452.6344299 458.1204224 z M 592.3345947 441.2584839 C 589.3739013 442.7086182 579.4829712000001 447.97247319999997 577.2929687000001 457.5061035 C 576.6353759000001 460.3687744 577.0001831000001 462.1882324 577.1276245 462.74468989999997 C 577.4649048 464.21740719999997 578.1272583 465.50842279999995 578.9865112 466.63995359999996 C 589.8834228 471.49206539999994 604.1869507 475.5120239 604.5744629 483.04254149999997 C 604.6834107 485.1600342 603.6788941 487.1408691 601.8703002999999 489.0303955 C 601.8703612999999 489.0303955 601.8704223999999 489.0303955 601.8704833999999 489.0303955 C 601.8701171999999 489.0307007 601.8698729999999 489.0309448 601.8695068 489.03125 C 601.0297850999999 489.9083862 600.0140379999999 490.765564 598.8583983999999 491.6078491 C 591.7760619999999 497.6284179 585.9296264 502.3106689 581.8510130999999 505.5106201 C 580.4050292 506.6450805 579.0428466 507.70343019999996 577.7467039999999 508.71990969999996 C 578.6427610999999 513.5184936999999 579.1329954999999 518.460022 579.1329954999999 523.5185547 C 579.1329954999999 530.9772949 578.0925901999999 538.1890258999999 576.1868284999999 545.0404053 C 576.4019163999999 545.1658936 576.6188963999999 545.2828369 576.833496 545.4099732 C 594.2993163 530.9782104999999 605.435852 509.163147 605.435852 484.73468019999996 C 605.4358521 468.6594238 600.6066284 453.71698 592.3345947 441.2584839 z" stroke-linecap="round" />
</g>
		<g transform="matrix(0.858686399900827 0 0 0.858686399900827 -10.388289445867258 11.53375056992516)"  >
<path style="stroke: none; stroke-width: 1; stroke-dasharray: none; stroke-linecap: butt; stroke-dashoffset: 0; stroke-linejoin: miter; stroke-miterlimit: 4; fill: rgb(112,100,94); fill-rule: nonzero; opacity: 1;"  paint-order="stroke"  transform=" translate(-512.9871825999999, -527.05471805)" d="M 508.1489258 550.0213013 C 503.9793701 534.5128174 475.28936769999996 532.4221192 475.38299559999996 520.5744629 C 475.54168699999997 500.48370359999996 558.3088379 488.05572509999996 556.8297729 472.57446289999996 C 556.2026367 466.01031499999993 541.3708495999999 464.75018309999996 540.8723143999999 458.02124019999997 C 540.1963499999999 448.8982544 566.5902709 439.4836425 589.3375243999999 432.8856201 C 589.3379515999999 432.88598629999996 589.3384398999999 432.8864746 589.3388671999999 432.88684079999996 C 553.4331664999999 443.79351799999995 545.0987548999999 451.6370239 545.4255370999998 457.08508299999994 C 545.8636474999998 464.38909909999995 561.8265990999998 466.68072509999996 561.8760375999998 474.4738158999999 C 561.9174193999997 480.9956054999999 550.6958617999998 486.3103026999999 529.5957641999998 496.0638427999999 C 511.03393559999984 504.6440429999999 496.69604499999986 509.1718139999999 495.48883059999986 519.206604 C 495.38586429999987 520.0626831 495.4094848999999 520.6992187 495.4255370999999 521.0850829999999 C 496.0829467999999 536.8956298999999 526.9365844999999 541.2201537999999 533.3404540999999 553.2553101 C 538.3375853999999 562.6466674999999 531.0617064999999 581.6655883999999 489.9039306999999 621.2238159999999 L 436.635498 621.2238159999999 C 500.4481201 582.5361938 511.3352051 561.8725586 508.1489258 550.0213013 z" stroke-linecap="round" />
</g>
</g>
</g>
<g transform="matrix(1.9211538461538462 0 0 1.9211538461538462 640.34340625 673.9019941211102)" id="text-logo"  >
<g style=""  paint-order="stroke"   >
		<g transform="matrix(1 0 0 1 0 0)" id="text-logo-path-0"  >
<path style="stroke: none; stroke-width: 0; stroke-dasharray: none; stroke-linecap: butt; stroke-dashoffset: 0; stroke-linejoin: miter; stroke-miterlimit: 4; fill: rgb(45,35,30); fill-rule: nonzero; opacity: 1;"  paint-order="stroke"  transform=" translate(-239.62499999999997, 22.75)" d="M 2.6 0 L 13.65 0 L 13.65 -15.93 L 15.6 -15.93 C 16.71 -15.93 17.55 -15.41 17.55 -14.37 L 17.55 0 L 28.6 0 L 28.6 -11.44 C 28.6 -18 24.44 -20.87 18.91 -21.58 L 18.91 -21.91 C 24.57 -22.36 28.6 -24.25 28.6 -30.29 L 28.6 -37.25 C 28.6 -44.4 22.82 -45.5 15.67 -45.5 L 2.6 -45.5 Z M 15.6 -24.38 L 13.65 -24.38 L 13.65 -35.75 L 15.6 -35.75 C 16.71 -35.75 17.55 -35.23 17.55 -34.19 L 17.55 -25.94 C 17.55 -24.89 16.71 -24.38 15.6 -24.38 Z M 53.23 -45.5 L 43.81 0 L 54.86 0 L 55.7 -6.17 L 61.81 -6.17 L 62.66 0 L 73.71 0 L 64.28 -45.5 Z M 56.88 -14.63 L 58.76 -28.73 L 60.64 -14.63 Z M 89.5 -45.5 L 89.5 0 L 109.72 0 L 109.72 -9.75 L 100.56 -9.75 L 100.56 -45.5 Z M 125.13 -45.5 L 125.13 0 L 145.34 0 L 145.34 -9.75 L 136.18 -9.75 L 136.18 -45.5 Z M 167.12 0 L 178.17 0 L 178.17 -17.55 L 187.59 -45.5 L 176.54 -45.5 L 172.64 -27.82 L 168.74 -45.5 L 157.69 -45.5 L 167.12 -17.55 Z M 251.23 0 L 243.43 0 L 238.23 -24.05 L 237.9 -24.05 L 239.85 0 L 228.8 0 L 228.8 -45.5 L 239.85 -45.5 L 247.33 -11.31 L 254.8 -45.5 L 265.85 -45.5 L 265.85 0 L 254.8 0 L 256.75 -24.05 L 256.43 -24.05 Z M 291.01 -45.5 L 281.58 0 L 292.63 0 L 293.48 -6.17 L 299.59 -6.17 L 300.43 0 L 311.48 0 L 302.06 -45.5 Z M 294.65 -14.63 L 296.53 -28.73 L 298.42 -14.63 Z M 338.33 -20.41 L 338.78 -20.41 C 338.78 -15.28 342.16 -13 345.93 -13 C 350.94 -13 353.28 -16.19 353.28 -23.34 L 353.28 -35.16 C 353.28 -42.32 347.49 -45.5 340.34 -45.5 L 327.28 -45.5 L 327.28 0 L 338.33 0 Z M 340.67 -22.75 C 339.56 -22.75 338.33 -23.66 338.33 -25.16 L 338.33 -35.75 L 340.28 -35.75 C 341.38 -35.75 342.23 -35.23 342.23 -34.19 L 342.23 -24.31 C 342.23 -23.27 341.64 -22.75 340.67 -22.75 Z M 381.16 -20.41 L 381.62 -20.41 C 381.62 -15.28 385 -13 388.77 -13 C 393.77 -13 396.11 -16.19 396.11 -23.34 L 396.11 -35.16 C 396.11 -42.32 390.33 -45.5 383.18 -45.5 L 370.11 -45.5 L 370.11 0 L 381.16 0 Z M 383.5 -22.75 C 382.4 -22.75 381.16 -23.66 381.16 -25.16 L 381.16 -35.75 L 383.11 -35.75 C 384.22 -35.75 385.06 -35.23 385.06 -34.19 L 385.06 -24.31 C 385.06 -23.27 384.48 -22.75 383.5 -22.75 Z M 412.95 0 L 433.16 0 L 433.16 -9.75 L 424 -9.75 L 424 -19.18 L 432.51 -19.18 L 432.51 -27.63 L 424 -27.63 L 424 -35.75 L 433.16 -35.75 L 433.16 -45.5 L 412.95 -45.5 Z M 450.65 0 L 461.69 0 L 461.69 -15.93 L 463.65 -15.93 C 464.75 -15.93 465.6 -15.41 465.6 -14.37 L 465.6 0 L 476.65 0 L 476.65 -11.44 C 476.65 -18 472.49 -20.87 466.96 -21.58 L 466.96 -21.91 C 472.62 -22.36 476.65 -24.25 476.65 -30.29 L 476.65 -37.25 C 476.65 -44.4 470.86 -45.5 463.71 -45.5 L 450.65 -45.5 Z M 463.65 -24.38 L 461.69 -24.38 L 461.69 -35.75 L 463.65 -35.75 C 464.75 -35.75 465.6 -35.23 465.6 -34.19 L 465.6 -25.94 C 465.6 -24.89 464.75 -24.38 463.65 -24.38 Z" stroke-linecap="round" />
</g>
</g>
</g>
<g transform="matrix(1.9211538461538462 0 0 1.9211538461538462 639.6734038461539 783.9780244483707)" id="tagline-8fffddb9-9cc5-4770-85b5-330b044c3e79-logo"  >
<g style=""  paint-order="stroke"   >
		<g transform="matrix(1 0 0 1 0 0)" id="tagline-8fffddb9-9cc5-4770-85b5-330b044c3e79-logo-path-0"  >
<path style="stroke: none; stroke-width: 0; stroke-dasharray: none; stroke-linecap: butt; stroke-dashoffset: 0; stroke-linejoin: miter; stroke-miterlimit: 4; fill: rgb(220,69,1); fill-rule: nonzero; opacity: 1;"  paint-order="stroke"  transform=" translate(-311.695, 11.9)" d="M 0.95 -23.8 L 0.95 -6.32 C 0.95 -2.45 3.6 0.34 7.65 0.34 C 11.53 0.34 14.31 -2.31 14.31 -6.32 L 14.31 -23.8 L 10.57 -23.8 L 10.57 -6.32 C 10.57 -4.18 9.76 -3.4 7.65 -3.4 C 5.47 -3.4 4.69 -4.22 4.69 -6.32 L 4.69 -23.8 Z M 32.3 -23.8 L 32.3 0 L 43.52 0 L 43.52 -3.74 L 36.04 -3.74 L 36.04 -23.8 Z M 69.56 -23.8 L 56.3 -23.8 L 56.3 -20.06 L 61.06 -20.06 L 61.06 0 L 64.8 0 L 64.8 -20.06 L 69.56 -20.06 Z M 86.53 -23.8 L 86.53 0 L 90.27 0 L 90.27 -23.8 Z M 108.56 -23.8 L 108.56 0 L 112.3 0 L 112.3 -14.08 L 116.72 0 L 118.76 0 L 123.18 -15.47 L 123.18 0 L 126.92 0 L 126.92 -23.8 L 121.82 -23.8 L 117.61 -9.04 L 112.98 -23.8 Z M 148 -23.8 L 143.92 0 L 147.66 0 L 148.07 -2.38 L 153.14 -2.38 L 153.54 0 L 157.28 0 L 153.2 -23.8 Z M 148.72 -6.12 L 150.62 -17.17 L 152.49 -6.12 Z M 185.03 -23.8 L 171.77 -23.8 L 171.77 -20.06 L 176.53 -20.06 L 176.53 0 L 180.27 0 L 180.27 -20.06 L 185.03 -20.06 Z M 201.99 -23.8 L 201.99 0 L 213.21 0 L 213.21 -3.74 L 205.73 -3.74 L 205.73 -10.37 L 212.53 -10.37 L 212.53 -14.11 L 205.73 -14.11 L 205.73 -20.06 L 213.21 -20.06 L 213.21 -23.8 Z M 260.3 -23.8 L 253.64 -23.8 L 253.64 0 L 257.38 0 L 257.38 -10.4 L 260.3 -10.4 C 262.45 -10.4 263.26 -9.62 263.26 -7.45 L 263.26 0 L 267 0 L 267 -7.45 C 267 -9.45 266.32 -11.12 265.13 -12.27 C 266.32 -13.46 267 -15.16 267 -17.1 C 267 -21.15 264.21 -23.8 260.3 -23.8 Z M 260.3 -14.14 L 257.38 -14.14 L 257.38 -20.06 L 260.3 -20.06 C 262.45 -20.06 263.26 -19.28 263.26 -17.1 C 263.26 -14.99 262.45 -14.14 260.3 -14.14 Z M 284.27 -17.48 L 284.27 -6.32 C 284.27 -2.45 286.93 0.34 290.97 0.34 C 294.85 0.34 297.64 -2.31 297.64 -6.32 L 297.64 -17.48 C 297.64 -21.35 294.98 -24.14 290.97 -24.14 C 287.1 -24.14 284.27 -21.56 284.27 -17.48 Z M 288.01 -6.32 L 288.01 -17.48 C 288.01 -19.65 288.83 -20.4 290.97 -20.4 C 293.11 -20.4 293.9 -19.58 293.9 -17.48 L 293.9 -6.32 C 293.9 -4.18 293.08 -3.4 290.97 -3.4 C 288.8 -3.4 288.01 -4.22 288.01 -6.32 Z M 315.32 -23.8 L 315.32 -6.32 C 315.32 -2.45 317.97 0.34 322.01 0.34 C 325.89 0.34 328.68 -2.31 328.68 -6.32 L 328.68 -23.8 L 324.94 -23.8 L 324.94 -6.32 C 324.94 -4.18 324.12 -3.4 322.01 -3.4 C 319.84 -3.4 319.06 -4.22 319.06 -6.32 L 319.06 -23.8 Z M 358.6 -23.8 L 345.34 -23.8 L 345.34 -20.06 L 350.1 -20.06 L 350.1 0 L 353.84 0 L 353.84 -20.06 L 358.6 -20.06 Z M 375.56 -23.8 L 375.56 0 L 386.78 0 L 386.78 -3.74 L 379.3 -3.74 L 379.3 -10.37 L 386.1 -10.37 L 386.1 -14.11 L 379.3 -14.11 L 379.3 -20.06 L 386.78 -20.06 L 386.78 -23.8 Z M 433.16 -23.8 L 427.21 -23.8 L 427.21 0 L 430.95 0 L 430.95 -8.98 L 433.16 -8.98 C 437.72 -8.98 440.57 -12.04 440.57 -16.39 C 440.57 -20.94 437.51 -23.8 433.16 -23.8 Z M 433.16 -12.72 L 430.95 -12.72 L 430.95 -20.06 L 433.16 -20.06 C 435.74 -20.06 436.83 -19.04 436.83 -16.39 C 436.83 -13.8 435.81 -12.72 433.16 -12.72 Z M 457.91 -23.8 L 457.91 0 L 469.13 0 L 469.13 -3.74 L 461.65 -3.74 L 461.65 -23.8 Z M 489.57 -23.8 L 485.49 0 L 489.23 0 L 489.63 -2.38 L 494.7 -2.38 L 495.11 0 L 498.85 0 L 494.77 -23.8 Z M 490.28 -6.12 L 492.18 -17.17 L 494.05 -6.12 Z M 516.29 -23.8 L 516.29 0 L 520.03 0 L 520.03 -14.08 L 525.91 0 L 529.65 0 L 529.65 -23.8 L 525.91 -23.8 L 525.91 -8.94 L 519.69 -23.8 Z M 547.91 -23.8 L 547.91 0 L 551.65 0 L 551.65 -14.08 L 557.53 0 L 561.27 0 L 561.27 -23.8 L 557.53 -23.8 L 557.53 -8.94 L 551.31 -23.8 Z M 579.53 -23.8 L 579.53 0 L 590.75 0 L 590.75 -3.74 L 583.27 -3.74 L 583.27 -10.37 L 590.07 -10.37 L 590.07 -14.11 L 583.27 -14.11 L 583.27 -20.06 L 590.75 -20.06 L 590.75 -23.8 Z M 615.74 -23.8 L 609.08 -23.8 L 609.08 0 L 612.82 0 L 612.82 -10.4 L 615.74 -10.4 C 617.88 -10.4 618.7 -9.62 618.7 -7.45 L 618.7 0 L 622.44 0 L 622.44 -7.45 C 622.44 -9.45 621.76 -11.12 620.57 -12.27 C 621.76 -13.46 622.44 -15.16 622.44 -17.1 C 622.44 -21.15 619.65 -23.8 615.74 -23.8 Z M 615.74 -14.14 L 612.82 -14.14 L 612.82 -20.06 L 615.74 -20.06 C 617.88 -20.06 618.7 -19.28 618.7 -17.1 C 618.7 -14.99 617.88 -14.14 615.74 -14.14 Z" stroke-linecap="round" />
</g>
</g>
</g>
</svg>