<?xml version="1.0" encoding="UTF-8" standalone="no"?>
<svg
   version="1.1"
   width="1280"
   height="1024"
   viewBox="0 0 1280 1024"
   xml:space="preserve"
   id="svg54"
   sodipodi:docname="Rally Mapper logo sans text.svg"
   inkscape:version="1.1 (c4e8f9e, 2021-05-24)"
   xmlns:inkscape="http://www.inkscape.org/namespaces/inkscape"
   xmlns:sodipodi="http://sodipodi.sourceforge.net/DTD/sodipodi-0.dtd"
   xmlns="http://www.w3.org/2000/svg"
   xmlns:svg="http://www.w3.org/2000/svg"><sodipodi:namedview
   id="namedview56"
   pagecolor="#ffffff"
   bordercolor="#666666"
   borderopacity="1.0"
   inkscape:pageshadow="2"
   inkscape:pageopacity="0.0"
   inkscape:pagecheckerboard="0"
   showgrid="false"
   inkscape:zoom="0.48828125"
   inkscape:cx="637.952"
   inkscape:cy="536.576"
   inkscape:window-width="1277"
   inkscape:window-height="701"
   inkscape:window-x="0"
   inkscape:window-y="25"
   inkscape:window-maximized="0"
   inkscape:current-layer="svg54" />
<desc
   id="desc2">Created with Fabric.js 5.3.0</desc>
<defs
   id="defs4">
</defs>
<g
   transform="matrix(1 0 0 1 640 512)"
   id="background-logo">
<rect
   style="stroke: none; stroke-width: 0; stroke-dasharray: none; stroke-linecap: butt; stroke-dashoffset: 0; stroke-linejoin: miter; stroke-miterlimit: 4; fill: rgb(255,255,255); fill-rule: nonzero; opacity: 1;"
   paint-order="stroke"
   x="-640"
   y="-512"
   rx="0"
   ry="0"
   width="1280"
   height="1024"
   id="rect6" />
</g>
<g
   transform="matrix(1.9211538461538462 0 0 1.9211538461538462 640 378.94943124300266)"
   id="logo-logo">
<g
   style=""
   paint-order="stroke"
   id="g39">
		<g
   transform="matrix(0.858686399900827 0 0 0.858686399900827 -10.388276265030868 11.533750526990815)"
   id="g11">
<path
   style="stroke: none; stroke-width: 1; stroke-dasharray: none; stroke-linecap: butt; stroke-dashoffset: 0; stroke-linejoin: miter; stroke-miterlimit: 4; fill: rgb(96,84,77); fill-rule: nonzero; opacity: 1;"
   paint-order="stroke"
   transform=" translate(-512.9871979500001, -527.054718)"
   d="M 508.1489563 550.0213013 C 511.33523560000003 561.8725586 500.4481506 582.5361939000001 436.63552860000004 621.2238159 L 527.9952393000001 621.2238159 C 557.2501831000001 588.2248535 560.1014405000001 569.3599853 555.4680787000001 557.8510742 C 547.0989991000001 537.0630493 511.8151551000001 534.006897 512.4042359000001 519.0425415 C 513.1488038000001 500.12969969999995 570.0778199000001 490.57305909999997 568.5744630000002 474.8723144 C 567.7770997000001 466.5450439 551.3220216000002 464.6282348 550.9131471000002 456.5576782 C 550.4443971000002 447.3048095 571.5103151000002 438.7006225 589.3388673000002 432.8868408 C 589.3384401000002 432.88647460000004 589.3379518000002 432.8859863 589.3375245000002 432.88562010000004 C 566.5902711000002 439.48364260000005 540.1963502000002 448.89825440000004 540.8723145000002 458.0212402 C 541.3708497000002 464.7501831 556.2026368000003 466.0103149 556.8297730000003 472.5744629 C 558.3088379000003 488.0557251 475.54171760000025 500.4837036 475.38302620000024 520.5744629000001 C 475.2893982 532.4221191 503.9794006 534.5128174 508.1489563 550.0213013 z"
   stroke-linecap="round"
   id="path9" />
</g>
		<g
   transform="matrix(0.858686399900827 0 0 0.858686399900827 0 1.2420659201059436)"
   id="g15">
<path
   style="stroke: none; stroke-width: 1; stroke-dasharray: none; stroke-linecap: butt; stroke-dashoffset: 0; stroke-linejoin: miter; stroke-miterlimit: 4; fill: rgb(45,35,30); fill-rule: nonzero; opacity: 1;"
   paint-order="stroke"
   transform=" translate(-525.08506775, -515.0693358999999)"
   d="M 636.7678223 520.3317261 L 636.7678223 621.2238159 L 581.1725464 621.2238159 C 583.5966187 617.0036620999999 585.9516602 612.4555054 588.1489258 607.5532226 C 595.9821778 590.0765991000001 600.487793 580.133789 597.6808472 569.085083 C 590.7813721 541.9274902000001 548.3295899 538.7595215 548.914856 523.8936157 C 549.6082154 506.28253170000005 605.3509521999999 498.13256830000006 604.5744629 483.0425415000001 C 603.9528809 470.9631348000001 567.5224608999999 467.9171753000001 566.7872315 455.9786987000001 C 566.3305054 448.5630493000001 579.8635865 441.2062378000001 596.7973023 434.8430786000001 C 621.2261353 455.2811279 636.7678223 485.989502 636.7678223 520.3317261 z M 435.2978821 519.0425415 C 435.69668579999995 513.953186 441.7610779 509.04290769999994 450.5125427 504.49096679999997 L 450.5125427 504.49096679999997 L 498.61703489999996 439.38299559999996 L 552.7073974 426.65582269999993 C 549.9760742 421.7056273999999 547.621643 416.66455069999995 546.7834472 410.9830931999999 C 539.8469237999999 409.63110349999994 532.6831053999999 408.9148558999999 525.3509521 408.9148558999999 L 525.350769 408.9148558999999 C 463.52334590000004 408.9148558999999 413.4023132 459.0359496999999 413.4023132 520.8633421999999 L 413.4023132 586.3663328999999 C 455.0965271 568.8577879999999 465.5314636 556.7815550999999 464.5744934 548.3191526999999 C 463.0907288 535.1982422 434.3777771 530.7850952 435.2978821 519.0425415 z"
   stroke-linecap="round"
   id="path13" />
</g>
		<g
   transform="matrix(0.858686399900827 0 0 0.858686399900827 1.4065811322511195 -32.55015791122395)"
   id="g24">
<linearGradient
   id="SVGID_2_123649"
   gradientUnits="userSpaceOnUse"
   gradientTransform="matrix(1 0 0 1 0 0)"
   x1="526.7231445"
   y1="545.4099731"
   x2="526.7231445"
   y2="406.0219116">
<stop
   offset="27.220329999999997%"
   style="stop-color:rgb(220,69,1);stop-opacity: 1"
   id="stop17" />
<stop
   offset="67.76227%"
   style="stop-color:rgb(252,138,3);stop-opacity: 1"
   id="stop19" />
</linearGradient>
<path
   style="stroke: none; stroke-width: 1; stroke-dasharray: none; stroke-linecap: butt; stroke-dashoffset: 0; stroke-linejoin: miter; stroke-miterlimit: 4; fill: url(#SVGID_2_123649); fill-rule: nonzero; opacity: 1;"
   paint-order="stroke"
   transform=" translate(-526.7231292499999, -475.71594235)"
   d="M 450.5125427 504.4909668 C 448.8805847 498.17767330000004 448.0104065 491.5579834 448.0104065 484.7346802 C 448.0104065 441.2628174 483.2513123 406.0219116 526.7231445 406.0219116 C 549.3225708 406.0219116 569.6797485 415.5623779 584.0342406999999 430.8168945 C 539.8720702999999 442.1020507 527.9832153 450.6948852 528.2340088 457.085083 C 528.4014281999999 461.3504028 533.9482422 463.8450317 533.3403930999999 469 C 532.3323364999999 477.5488892 515.8209838999999 481.6605835 501.9361877999999 485.85107419999997 C 486.2460022 490.5864258 464.7972717 497.0609741 450.5125427 504.4909668 z M 592.3345947 441.2584839 C 589.3739013 442.7086182 579.4829712000001 447.97247319999997 577.2929687000001 457.5061035 C 576.6353759000001 460.3687744 577.0001831000001 462.1882324 577.1276245 462.74468989999997 C 577.4649048 464.21740719999997 578.1272583 465.50842279999995 578.9865112 466.63995359999996 C 589.8834228 471.49206539999994 604.1869507 475.5120239 604.5744629 483.04254149999997 C 604.6834107 485.1600342 603.6788941 487.1408691 601.8703002999999 489.0303955 C 601.8703612999999 489.0303955 601.8704223999999 489.0303955 601.8704833999999 489.0303955 C 601.8701171999999 489.0307007 601.8698729999999 489.0309448 601.8695068 489.03125 C 601.0297850999999 489.9083862 600.0140379999999 490.765564 598.8583983999999 491.6078491 C 591.7760619999999 497.6284179 585.9296264 502.3106689 581.8510130999999 505.5106201 C 571.9066771999999 513.3127441 565.493164 517.7824707 562.7872313999999 526.3616943 C 561.2891844999999 531.1112671 561.9386595999999 533.9143065999999 562.2765501999999 535.0425415 C 562.6631468999999 536.3334351 563.2698973999999 537.4662476 563.9956663999999 538.4832153 C 568.0436399999999 540.6149902 572.5005491999999 542.8422851 576.8334959999999 545.4099731 C 594.2993162999999 530.9782104 605.4358519999998 509.1631469 605.4358519999998 484.7346801 C 605.4358521 468.6594238 600.6066284 453.71698 592.3345947 441.2584839 z"
   stroke-linecap="round"
   id="path22" />
</g>
		<g
   transform="matrix(0.858686399900827 0 0 0.858686399900827 3.3918741354526674 -32.55015782535537)"
   id="g33">
<linearGradient
   id="SVGID_3_123650"
   gradientUnits="userSpaceOnUse"
   gradientTransform="matrix(1 0 0 1 0 0)"
   x1="529.0351562"
   y1="545.4099731"
   x2="529.0351562"
   y2="406.0219116">
<stop
   offset="27.220329999999997%"
   style="stop-color:rgb(220,69,1);stop-opacity: 1"
   id="stop26" />
<stop
   offset="100%"
   style="stop-color:rgb(252,138,3);stop-opacity: 1"
   id="stop28" />
</linearGradient>
<path
   style="stroke: none; stroke-width: 1; stroke-dasharray: none; stroke-linecap: butt; stroke-dashoffset: 0; stroke-linejoin: miter; stroke-miterlimit: 4; fill: url(#SVGID_3_123650); fill-rule: nonzero; opacity: 1;"
   paint-order="stroke"
   transform=" translate(-529.0351409499999, -475.71594244999994)"
   d="M 452.6344299 458.1204224 C 463.5469055 427.7478028 492.59371949999996 406.0219117 526.7231445 406.0219117 C 549.3225708 406.0219117 569.6797485 415.56237799999997 584.0342406999999 430.81689459999996 C 553.5183105 438.6149293 538.4174803999999 445.12670909999997 532.0782469999999 450.51525889999994 C 521.9825438999999 445.92883309999996 510.7793883999999 443.35369879999996 498.9682310999999 443.35369879999996 C 481.6996155 443.3536987 465.7201843 448.8323364 452.6344299 458.1204224 z M 592.3345947 441.2584839 C 589.3739013 442.7086182 579.4829712000001 447.97247319999997 577.2929687000001 457.5061035 C 576.6353759000001 460.3687744 577.0001831000001 462.1882324 577.1276245 462.74468989999997 C 577.4649048 464.21740719999997 578.1272583 465.50842279999995 578.9865112 466.63995359999996 C 589.8834228 471.49206539999994 604.1869507 475.5120239 604.5744629 483.04254149999997 C 604.6834107 485.1600342 603.6788941 487.1408691 601.8703002999999 489.0303955 C 601.8703612999999 489.0303955 601.8704223999999 489.0303955 601.8704833999999 489.0303955 C 601.8701171999999 489.0307007 601.8698729999999 489.0309448 601.8695068 489.03125 C 601.0297850999999 489.9083862 600.0140379999999 490.765564 598.8583983999999 491.6078491 C 591.7760619999999 497.6284179 585.9296264 502.3106689 581.8510130999999 505.5106201 C 580.4050292 506.6450805 579.0428466 507.70343019999996 577.7467039999999 508.71990969999996 C 578.6427610999999 513.5184936999999 579.1329954999999 518.460022 579.1329954999999 523.5185547 C 579.1329954999999 530.9772949 578.0925901999999 538.1890258999999 576.1868284999999 545.0404053 C 576.4019163999999 545.1658936 576.6188963999999 545.2828369 576.833496 545.4099732 C 594.2993163 530.9782104999999 605.435852 509.163147 605.435852 484.73468019999996 C 605.4358521 468.6594238 600.6066284 453.71698 592.3345947 441.2584839 z"
   stroke-linecap="round"
   id="path31" />
</g>
		<g
   transform="matrix(0.858686399900827 0 0 0.858686399900827 -10.388289445867258 11.53375056992516)"
   id="g37">
<path
   style="stroke: none; stroke-width: 1; stroke-dasharray: none; stroke-linecap: butt; stroke-dashoffset: 0; stroke-linejoin: miter; stroke-miterlimit: 4; fill: rgb(112,100,94); fill-rule: nonzero; opacity: 1;"
   paint-order="stroke"
   transform=" translate(-512.9871825999999, -527.05471805)"
   d="M 508.1489258 550.0213013 C 503.9793701 534.5128174 475.28936769999996 532.4221192 475.38299559999996 520.5744629 C 475.54168699999997 500.48370359999996 558.3088379 488.05572509999996 556.8297729 472.57446289999996 C 556.2026367 466.01031499999993 541.3708495999999 464.75018309999996 540.8723143999999 458.02124019999997 C 540.1963499999999 448.8982544 566.5902709 439.4836425 589.3375243999999 432.8856201 C 589.3379515999999 432.88598629999996 589.3384398999999 432.8864746 589.3388671999999 432.88684079999996 C 553.4331664999999 443.79351799999995 545.0987548999999 451.6370239 545.4255370999998 457.08508299999994 C 545.8636474999998 464.38909909999995 561.8265990999998 466.68072509999996 561.8760375999998 474.4738158999999 C 561.9174193999997 480.9956054999999 550.6958617999998 486.3103026999999 529.5957641999998 496.0638427999999 C 511.03393559999984 504.6440429999999 496.69604499999986 509.1718139999999 495.48883059999986 519.206604 C 495.38586429999987 520.0626831 495.4094848999999 520.6992187 495.4255370999999 521.0850829999999 C 496.0829467999999 536.8956298999999 526.9365844999999 541.2201537999999 533.3404540999999 553.2553101 C 538.3375853999999 562.6466674999999 531.0617064999999 581.6655883999999 489.9039306999999 621.2238159999999 L 436.635498 621.2238159999999 C 500.4481201 582.5361938 511.3352051 561.8725586 508.1489258 550.0213013 z"
   stroke-linecap="round"
   id="path35" />
</g>
</g>
</g>


</svg>
