<?xml version="1.0" encoding="utf-8"?>
<!-- Generator: Adobe Illustrator 16.0.0, SVG Export Plug-In . SVG Version: 6.00 Build 0)  -->
<!DOCTYPE svg PUBLIC "-//W3C//DTD SVG 1.1//EN" "http://www.w3.org/Graphics/SVG/1.1/DTD/svg11.dtd">
<svg version="1.1" id="_x35_0m" xmlns="http://www.w3.org/2000/svg" xmlns:xlink="http://www.w3.org/1999/xlink" x="0px" y="0px"
	   viewBox="0 0 144 144" enable-background="new 0 0 144 144" xml:space="preserve"     width="40" height="40">
<g>
	<circle fill="#EB2227" cx="72" cy="72" r="68.1"/>
	<path fill="#010101" d="M72,144c-9.7,0-19.2-1.9-28-5.7c-8.6-3.6-16.3-8.8-22.9-15.399C14.5,116.3,9.3,108.6,5.7,100
		C1.9,91.2,0,81.7,0,72s1.9-19.2,5.7-28c3.6-8.6,8.8-16.3,15.399-22.9C27.7,14.5,35.4,9.3,44,5.7C52.8,1.9,62.3,0,72,0
		s19.2,1.9,28,5.7c8.6,3.6,16.3,8.8,22.9,15.4c6.6,6.6,11.8,14.3,15.399,22.9c3.8,8.9,5.7,18.3,5.7,28s-1.9,19.2-5.7,28
		c-3.6,8.6-8.8,16.3-15.399,22.9C116.3,129.5,108.6,134.7,100,138.3C91.2,142.1,81.7,144,72,144z M72,10.3c-16.5,0-32,6.4-43.7,18.1
		c-11.7,11.7-18,27.1-18,43.6s6.4,32,18.101,43.7C40.1,127.4,55.6,133.8,72.1,133.8s32-6.399,43.7-18.1S133.9,88.5,133.9,72.1
		s-6.4-32-18.101-43.7C104.1,16.7,88.5,10.3,72,10.3z"/>
	<g>
		<path fill="#010101" d="M29.8,88.1C28,83.4,25.8,78.8,24.4,73.9C28.9,73.5,33.3,72.6,37.5,71c1.2-0.4,1.4-0.8,0.9-2
			c-1.7-4.1-3.301-8.3-5-12.5c4.3-1.9,8.5-4,12.5-6.4c0.3-0.2,0.8-0.2,1.199-0.3C48.7,53.9,50.4,58,52,62.1c0.4,1.1,0.8,1.3,1.8,0.6
			c3.5-2.3,7-4.4,10.601-6.6c0.899-0.5,1.1-0.9,0.699-1.9C63.3,50,61.7,45.8,60,41.5c4.2-2.9,8.7-5.3,13.6-7
			c1.7,4.2,3.301,8.3,5,12.5c0.301,0.8,0.601,1.4,1.7,0.9c3.9-1.5,7.9-2.5,12.101-2.8c1.3-0.1,1.3-0.6,0.899-1.6
			c-1.7-4.2-3.3-8.3-5-12.5c1.8-0.1,3.7-0.2,5.5-0.5c1.9-0.3,2.8,0.5,3.5,2.3c5.3,13.6,10.7,27.1,16.101,40.7
			c2.1,5.4,4.3,10.8,6.399,16.1c1,2.5,0.3,4.101-2.2,5c-2.399,0.9-4,0.301-5-2.199C110,86,107.4,79.5,104.8,73.1
			c-1.6-4.1-3.2-8.2-4.7-12.3c-0.5-1.3-1.1-1.8-2.5-1.6c-3.899,0.6-7.699,1.4-11.5,2.7c-1.399,0.5-1.3,1.1-0.8,2.2
			c1.7,4.1,3.2,8.2,4.8,12.3c-4.5,2.3-9.1,4.699-13.6,7c-1.8-4.601-3.6-9.2-5.5-13.9c-4.1,2.6-8.1,5-12,7.4
			c-0.9,0.5-0.7,1.1-0.4,1.899c1.7,4.2,3.301,8.3,5,12.5C59.5,94.4,54.9,96.6,50.1,98.4c-1.699-4.2-3.399-8.301-5-12.5
			C44.7,85,44.5,84.5,43.2,85C39,86.8,34.4,87.7,29.8,88.1z M78.7,48.9c-0.2,0.1-0.4,0.2-0.601,0.2c-4,1.7-7.899,3.7-11.6,6
			c-0.7,0.4-0.7,0.8-0.4,1.5c1.601,3.9,3.101,7.8,4.7,11.8c0.3,0.8,0.5,1.1,1.4,0.6c3.7-2.2,7.5-4.2,11.399-5.8
			c0.7-0.3,0.9-0.7,0.601-1.4c-1.601-4-3.2-8-4.8-11.9C79.2,49.4,79.2,48.9,78.7,48.9z M57.9,77.3C57.8,77.1,57.8,77,57.7,76.9
			c-1.601-4.101-3.2-8.2-4.8-12.3c-0.4-1-0.801-0.6-1.301-0.2c-3.699,2.2-7.5,4.2-11.399,5.8c-0.9,0.3-0.8,0.8-0.5,1.5
			c1.6,3.899,3.2,7.8,4.6,11.7c0.4,1,0.8,1,1.601,0.6c3.899-1.7,7.6-3.6,11.199-5.8C57.4,78,58,77.9,57.9,77.3z"/>
		<path fill="#FFFFFF" d="M29.8,88.1c4.601-0.399,9.2-1.3,13.5-3c1.2-0.5,1.5,0,1.9,0.9c1.7,4.2,3.3,8.3,5,12.5
			c-4.2,2.1-8.7,2.9-13.3,3.5c-1.301,0.2-1.801-0.5-2.2-1.6C33,96.3,31.4,92.2,29.8,88.1z"/>
		<path fill="#FFFFFF" d="M33.4,56.6c1.699,4.2,3.3,8.4,5,12.5c0.5,1.2,0.3,1.6-0.9,2c-4.3,1.5-8.6,2.5-13.1,2.9
			c-2.101-3.8-3.4-8-5-12c-0.5-1.3,0.199-2,1.6-2.2C25.3,59.2,29.4,58,33.4,56.6z"/>
		<path fill="#FFFFFF" d="M60,41.7c1.7,4.2,3.3,8.5,5.1,12.7c0.4,1,0.2,1.4-0.699,1.9C60.8,58.4,57.3,60.6,53.8,62.9
			c-1,0.7-1.399,0.5-1.8-0.6c-1.6-4.1-3.2-8.2-4.9-12.3c0.2-0.3,0.301-0.6,0.601-0.8C51.8,46.7,55.7,43.8,60,41.7z"/>
		<path fill="#FFFFFF" d="M63.7,91.4c-1.7-4.2-3.3-8.301-5-12.5C58.4,78.1,58.2,77.6,59.1,77c4-2.4,7.9-4.8,12-7.4
			c1.801,4.7,3.7,9.3,5.5,13.9C72.4,86.3,68.3,89.2,63.7,91.4z"/>
		<path fill="#FFFFFF" d="M88.3,31.2c1.7,4.2,3.3,8.4,5,12.5c0.4,1.1,0.4,1.5-0.899,1.6c-4.2,0.3-8.2,1.3-12.101,2.8
			c-1.1,0.5-1.399-0.1-1.7-0.9c-1.6-4.2-3.3-8.3-5-12.5C78.2,32.4,83.2,31.5,88.3,31.2z"/>
		<path fill="#FFFFFF" d="M90.2,76.6c-1.601-4.1-3.2-8.2-4.8-12.3c-0.4-1.1-0.601-1.7,0.8-2.2c3.7-1.3,7.6-2.2,11.5-2.7
			c1.399-0.2,2,0.3,2.5,1.6c1.5,4.1,3.1,8.2,4.7,12.3C99.8,73.6,94.9,75,90.2,76.6z"/>
		<path fill="#FFFFFF" d="M78.7,48.9c0.5,0,0.6,0.5,0.7,0.8c1.6,4,3.199,8,4.8,11.9c0.3,0.7,0.1,1.1-0.601,1.4
			c-4,1.6-7.8,3.6-11.399,5.8c-0.9,0.6-1.101,0.2-1.4-0.6c-1.5-3.9-3.1-7.9-4.7-11.8c-0.3-0.7-0.3-1,0.4-1.5c3.7-2.2,7.6-4.2,11.6-6
			C78.3,49.1,78.5,49,78.7,48.9z"/>
		<path fill="#FFFFFF" d="M57.9,77.3C58,77.9,57.4,78,57,78.2c-3.6,2.2-7.4,4.1-11.2,5.8c-0.8,0.4-1.2,0.4-1.6-0.6
			c-1.5-3.9-3-7.801-4.601-11.7c-0.3-0.7-0.3-1.2,0.5-1.5c4-1.6,7.801-3.6,11.4-5.8c0.5-0.3,1-0.8,1.3,0.2
			c1.601,4.1,3.2,8.2,4.8,12.3C57.8,77,57.8,77.1,57.9,77.3z"/>
	</g>
</g>
</svg>
