<?xml version="1.0" encoding="UTF-8" standalone="no"?>
<!-- Generator: Adobe Illustrator 16.0.0, SVG Export Plug-In . SVG Version: 6.00 Build 0)  -->

<svg
   version="1.1"
   id="_x35_0m"
   x="0px"
   y="0px"
   
   
   viewBox="0 0 144 144"
   enable-background="new 0 0 144 144"
   xml:space="preserve"
   sodipodi:docname="bumps.svg"
   inkscape:version="1.2.1 (9c6d41e410, 2022-07-14)"
   xmlns:inkscape="http://www.inkscape.org/namespaces/inkscape"
   xmlns:sodipodi="http://sodipodi.sourceforge.net/DTD/sodipodi-0.dtd"
   xmlns="http://www.w3.org/2000/svg"
   xmlns:svg="http://www.w3.org/2000/svg"     width="40" height="40"><defs
   id="defs11" /><sodipodi:namedview
   id="namedview9"
   pagecolor="#ffffff"
   bordercolor="#000000"
   borderopacity="0.25"
   inkscape:showpageshadow="2"
   inkscape:pageopacity="0.0"
   inkscape:pagecheckerboard="0"
   inkscape:deskcolor="#d1d1d1"
   showgrid="false"
   inkscape:zoom="2.7361111"
   inkscape:cx="53.725888"
   inkscape:cy="72"
   inkscape:window-width="1920"
   inkscape:window-height="986"
   inkscape:window-x="-11"
   inkscape:window-y="-11"
   inkscape:window-maximized="1"
   inkscape:current-layer="_x35_0m" />


<path
   fill="#ed2024"
   d="m 148.01772,98.021411 c -0.30599,-1.399 -1.73289,-2.399 -3.16183,-2.2 -2.14188,0.4 -3.16182,-0.3 -3.67179,-0.8 -3.97779,-3.5 -3.05984,-16.3 -2.44787,-24.8 0.40798,-5.4 0.71396,-9.8 0,-12.4 0,-6.5 -2.95784,-11.8 -8.36354,-14.9 -5.81368,-3.3 -13.66622,-3.3 -19.58292,0 -5.50667,3.1 -8.46553,8.6 -8.36251,15.3 v 0.1 c 0.30598,5.1 0.20296,12.9 0.20296,19.8 0,3.8 0,7.5 0,10.399 -0.50997,3.601 -2.24285,6.3 -4.486727,7.2 -1.63293,0.6 -3.26382,0.3 -4.793736,-0.8 -3.569802,-2.8 -4.895729,-9.3 -3.467808,-17.5 0.103014,-0.5 0,-1 -0.202969,-1.5 0,-1.2 0.101995,-2.4 0.101995,-3.8 0.305983,-9.4 0.71396,-21.1 -5.813679,-27.6 -2.956817,-3 -7.139606,-4.5 -12.239324,-4.5 v 0 c -4.997724,-0.1 -9.179493,1.4 -12.13733,4.4 -6.833622,6.8 -6.425645,19.6 -6.119662,28.9 0,1.3 0.101995,2.5 0.101995,3.6 0,0.2 0,2.5 0,5 0,3.3 0,7.2 0,7.5 0.101994,4.1 -3.059831,5.899 -5.711685,6.2 -1.733904,0.199 -3.773791,-0.2 -5.201713,-1.601 -0.917949,-1.399 -1.427921,-3.5 -1.733904,-5.899 -0.101994,-2.601 0.101995,-5.9 0.305983,-9.301 0.203989,-4.6 0.509972,-9.7 0.305983,-14.6 0.101995,-2.6 0,-4.8 -0.305983,-6.3 0,-5.3 -1.937893,-9.7 -5.507695,-12.8 -0.203989,-0.2 -0.305984,-0.4 -0.509972,-0.5 -2.957837,-3 -6.935617,-4.5 -11.729352,-4.5 v 0 c -1.835899,-0.5 -3.059831,0.1 -3.671798,0.6 -0.101994,0 -0.101994,0.1 -0.203988,0.2 -2.243876,0.4 -4.385758,1.1 -6.323651,2.2 -5.5076958,3.1 -8.4655324,8.6 -8.363538,15.3 v 0.1 c 0.3059831,5.1 0.2039887,12.9 0.2039887,19.8 0,3.801 0,7.5 0,10.4 -0.5099718,3.6 -2.2438761,6.3 -4.48775211,7.2 -0.6119662,0.2 -1.22393239,0.3 -1.83589859,0.3 v 11.199999 h 0.1019944 c 0.10199433,0 0.10199433,0 0.2039887,0 7.8535662,-0.101 14.5851939,-5.101 17.5430309,-12.999999 0.203989,-0.4 0.203989,-0.9 0.101994,-1.4 0,-1 0,-6.2 0,-11.2 0.101995,-14.899 0.101995,-20.8 -0.203988,-23.399 v 0 c 0,-2.5 1.019943,-4.3 2.855842,-5.3 2.141882,-1.2 5.201713,-1.1 7.2416,0.2 0.101994,0.1 0.305983,0.2 0.407977,0.3 2.753848,3.4 2.345871,11.6 2.141882,16.2 v 1 c 0,0.1 0,0.2 0,0.3 0,0.1 0,0.2 0,0.2 0,1.1 -0.101994,2.1 -0.101994,3.2 -0.203989,6.2 -0.509972,12.5 0,17.9 0,0.5 0,1 0.101994,1.399 0,0.2 0,0.301 0.101994,0.5 0,0.101 0.101995,0.2 0.101995,0.301 0,0.199 0,0.399 0.101994,0.6 v 0.1 c 1.223933,5.999999 9.485476,12.399999 15.197161,12.399999 0.407977,0 0.917949,0 1.325926,-0.1 0.203989,0 0.305984,-0.101 0.611967,-0.2 0.407977,0 0.71396,0 1.121938,0 8.261543,-0.101 14.891177,-5.2 16.931064,-12.899999 1.529916,-3.1 1.223933,-8.3 0.713961,-16.5 -0.611966,-8.8 -1.427921,-20.9 2.447865,-24.8 0.611966,-0.6 1.63191,-1.4 3.773791,-1.3 0.101995,0 0.203989,0 0.305983,0 1.529916,-0.1 2.651854,0.3 3.467809,1.2 4.079775,4.1 3.161825,17.2 2.549859,26.7 -0.407977,6.4 -0.816975,11.4 0.101994,14.4 0,0.1 0.101995,0.2 0.101995,0.3 3.26382,7.899999 10.403425,12.899999 18.358986,12.899999 0.103014,0 0.103014,0 0.203988,0 7.853569,-0.101 14.585199,-5.101 17.543029,-12.999999 0.20399,-0.4 0.20399,-0.9 0.102,-1.4 0,-1 0,-6.2 0,-11.2 0.10301,-14.899 0.20399,-20.8 -0.20297,-23.399 v 0 c 0,-2.5 0.91693,-4.3 2.85584,-5.3 2.14188,-1.2 5.20171,-1.1 7.34359,0.2 1.32593,0.8 2.75283,2.4 2.54986,5.5 0,0.1 0,0.3 0,0.4 0.30599,4.5 0.102,9.7 -0.10301,15.3 -0.30598,7.3 -0.61197,14.8 0.40798,20.7 v 0.1 c 1.22393,5.999999 9.48547,12.399999 15.19614,12.399999 0.40797,0 0.91795,0 1.32694,-0.1 1.32389,-0.5 5.81164,-2 4.28173,-9.599999 z m -131.368746,-5.3 c -0.101994,-0.3 -0.203989,-0.5 -0.305983,-0.8 0.203989,0.3 0.305983,0.6 0.305983,0.8 z m 97.608606,0 c -0.10199,-0.3 -0.20399,-0.5 -0.30598,-0.8 0.20399,0.3 0.30598,0.6 0.30598,0.8 z"
   id="path6"
   style="stroke-width:1.5;stroke:#000000;stroke-opacity:1;stroke-dasharray:none" />
</svg>
