<?xml version="1.0" encoding="UTF-8" standalone="no"?>
<!-- Generator: Adobe Illustrator 16.0.0, SVG Export Plug-In . SVG Version: 6.00 Build 0)  -->

<svg
   version="1.1"
   id="_x35_0m"
   x="0px"
   y="0px"
   
   
   viewBox="0 0 144 144"
   enable-background="new 0 0 144 144"
   xml:space="preserve"
   sodipodi:docname="danger_1.svg"
   inkscape:version="1.2.1 (9c6d41e410, 2022-07-14)"
   xmlns:inkscape="http://www.inkscape.org/namespaces/inkscape"
   xmlns:sodipodi="http://sodipodi.sourceforge.net/DTD/sodipodi-0.dtd"
   xmlns="http://www.w3.org/2000/svg"
   xmlns:svg="http://www.w3.org/2000/svg"     width="40" height="40"><defs
   id="defs236" /><sodipodi:namedview
   id="namedview234"
   pagecolor="#ffffff"
   bordercolor="#000000"
   borderopacity="0.25"
   inkscape:showpageshadow="2"
   inkscape:pageopacity="0.0"
   inkscape:pagecheckerboard="0"
   inkscape:deskcolor="#d1d1d1"
   showgrid="false"
   inkscape:zoom="5.4722222"
   inkscape:cx="38.923858"
   inkscape:cy="109.09645"
   inkscape:window-width="1920"
   inkscape:window-height="986"
   inkscape:window-x="-11"
   inkscape:window-y="-11"
   inkscape:window-maximized="1"
   inkscape:current-layer="_x35_0m" />
<g
   id="g231"
   transform="matrix(1.5434637,0,0,1.5434637,-39.046626,-39.03801)">
	<g
   id="g229">
		<g
   id="g227">
			<path
   fill="#ec2227"
   d="m 56.557,28.136 4.981,63.468 c 0.109,1.299 2.275,3.032 3.684,3.032 h 13.972 c 1.3,0 2.815,-1.841 3.032,-3.141 l 5.091,-63.251 c 0.217,-1.516 -0.976,-2.815 -2.491,-2.815 h -25.67 c -1.516,0 -2.707,1.19 -2.599,2.707 z"
   id="path223" />
			<path
   fill="#ec2227"
   d="M 78.218,118.571 H 65.655 c -2.274,0 -4.117,-1.842 -4.117,-4.115 v -12.563 c 0,-2.274 1.843,-4.116 4.117,-4.116 h 12.563 c 2.275,0 4.115,1.842 4.115,4.116 v 12.563 c 0,2.273 -1.84,4.115 -4.115,4.115 z"
   id="path225" />
		</g>
	</g>
</g>
</svg>
