<?xml version="1.0" encoding="utf-8"?>
<!-- Generator: Adobe Illustrator 16.0.0, SVG Export Plug-In . SVG Version: 6.00 Build 0)  -->
<!DOCTYPE svg PUBLIC "-//W3C//DTD SVG 1.1//EN" "http://www.w3.org/Graphics/SVG/1.1/DTD/svg11.dtd">
<svg version="1.1" id="_x35_0m" xmlns="http://www.w3.org/2000/svg" xmlns:xlink="http://www.w3.org/1999/xlink" x="0px" y="0px"
	   viewBox="0 0 144 144" enable-background="new 0 0 144 144" xml:space="preserve"     width="40" height="40">
<path fill="#010101" d="M139.969,50.737v5.139h-19.65v-5.139h-3.729v5.139H97.041v-5.139h-3.728v5.139H73.764v-5.139h-3.729v5.139
	h-19.65v-5.139h-3.728v5.139h-19.65v-5.139h-3.729v5.139H3.729v-5.139H0v42.525h3.729v-8.867h19.65v8.867h3.729v-8.867h19.65v8.867
	h3.729v-8.867h19.65v8.867h3.728v-8.867h19.65v8.867h3.729v-8.867h19.65v8.867h3.729v-8.867h19.65v8.867H144V50.737H139.969z
	 M139.969,59.606v8.666h-19.65v-8.666H139.969z M116.691,59.606v8.666h-19.65v-8.666H116.691z M93.313,59.606v8.666H73.764v-8.666
	H93.313z M70.035,59.606v8.666h-19.65v-8.666H70.035z M46.657,59.606v8.666h-19.65v-8.666H46.657z M23.278,59.606v8.666H3.729
	v-8.666H23.278z M3.729,80.667v-8.668h19.65v8.668H3.729z M27.006,80.667v-8.668h19.65v8.668H27.006z M50.385,80.667v-8.668h19.65
	v8.668H50.385z M73.764,80.667v-8.668h19.65v8.668H73.764z M97.041,80.667v-8.668h19.65v8.668H97.041z M120.419,80.667v-8.668h19.65
	v8.668H120.419z"/>
</svg>
