<?xml version="1.0" encoding="UTF-8" standalone="no"?>
<!-- Generator: Adobe Illustrator 16.0.0, SVG Export Plug-In . SVG Version: 6.00 Build 0)  -->

<svg
   version="1.1"
   id="_x35_0m"
   x="0px"
   y="0px"
   
   
   viewBox="0 0 144 144"
   enable-background="new 0 0 144 144"
   xml:space="preserve"
   sodipodi:docname="river.svg"
   inkscape:version="1.2.1 (9c6d41e410, 2022-07-14)"
   xmlns:inkscape="http://www.inkscape.org/namespaces/inkscape"
   xmlns:sodipodi="http://sodipodi.sourceforge.net/DTD/sodipodi-0.dtd"
   xmlns="http://www.w3.org/2000/svg"
   xmlns:svg="http://www.w3.org/2000/svg"     width="40" height="40"><defs
   id="defs15" /><sodipodi:namedview
   id="namedview13"
   pagecolor="#ffffff"
   bordercolor="#000000"
   borderopacity="0.25"
   inkscape:showpageshadow="2"
   inkscape:pageopacity="0.0"
   inkscape:pagecheckerboard="0"
   inkscape:deskcolor="#d1d1d1"
   showgrid="false"
   inkscape:zoom="5.4722222"
   inkscape:cx="54.639594"
   inkscape:cy="72"
   inkscape:window-width="1920"
   inkscape:window-height="986"
   inkscape:window-x="-11"
   inkscape:window-y="-11"
   inkscape:window-maximized="1"
   inkscape:current-layer="g10" />
<g
   id="g10"
   transform="translate(-0.36548168)">
	<path
   fill="#a9d3ef"
   d="m 144.35197,74.971183 -2.55524,-0.981 -12.38371,-3.14 -11.99221,0.882 -11.89208,1.57 -13.464072,-2.06 -11.695834,0.295 -18.378309,3.729 -14.645575,-1.276 -8.059221,-0.589 -16.216568,-3.141 H 10.489196 l -10.02471377,1.57 v 31.803997 l 16.02031777,2.258 11.694833,0.294 9.731342,-2.257 25.259036,3.239 12.777205,-1.375 11.892083,0.786 8.550845,-2.553 4.422606,1.767 c 0.10013,-0.099 0.19625,-0.195 0.29538,-0.293 l 8.25647,1.373 6.3891,-0.392 7.46847,-1.082 5.01236,-1.274 6.87972,-1.473 7.07698,0.295 2.35699,2.061 z"
   id="path305"
   style="stroke-width:1.00063" /><path
   fill="#a9d3ef"
   d="m 144.30222,37.586801 -2.55848,-1.301575 -12.39941,-4.166099 -12.00742,1.170223 -11.90716,2.083049 -13.481155,-2.733173 -11.710668,0.391401 -18.401618,4.947575 -14.66415,-1.692976 -8.069443,-0.781475 -16.237135,-4.167426 h -12.59591 l -10.03742877,2.08305 v 42.197012 l 16.04063677,2.995876 11.709665,0.390075 9.743685,-2.99455 25.291072,4.297451 12.79341,-1.824327 11.907166,1.042851 8.56169,-3.387277 4.428213,2.344426 c 0.10026,-0.131352 0.1965,-0.258723 0.29575,-0.388748 l 8.26695,1.821674 6.3972,-0.520099 7.47795,-1.43558 5.01871,-1.690322 6.88845,-1.954351 7.08595,0.391401 2.35998,2.7345 z"
   id="path2"
   style="stroke-width:1.15332" />
	<g
   id="g8">
		<path
   fill="#888888"
   d="m 3.5829575,34.830548 v 0 l 8.3757885,-1.375 h 12.020622 l 15.665454,3.239 c 0.09938,0 0.09938,0 0.197751,0 l 7.883921,0.588 14.384594,1.276 c 0.19775,0 0.296124,0 0.49287,0 l 17.736314,-3.729 11.232631,-0.295 13.104737,2.061 c 0.19674,0 0.29512,0 0.49287,0 l 11.52775,-1.57 11.52775,-0.883 11.82388,3.043 1.38023,0.49 v 0.099 h 3.25134 v -1.179 c 0,-0.687 -0.3955,-1.276 -1.08411,-1.471 l -2.46335,-0.982 c -0.0994,0 -0.0994,0 -0.19675,-0.099 l -12.21737,-3.043 c -0.19574,0 -0.39349,-0.098 -0.49186,0 l -11.92225,0.884 -11.43038,1.57 -13.006363,-1.962 c -0.09938,0 -0.19775,0 -0.29512,0 l -11.528755,0.294 c -0.09938,0 -0.19775,0 -0.296124,0 l -17.736314,3.73 -14.090477,-1.374 -7.882918,-0.589 -15.666458,-3.239 c -0.09837,0 -0.196747,0 -0.296124,0 H 11.762 c -0.09938,0 -0.197751,0 -0.296124,0 l -9.853397,1.57 c -0.78899451,0.098 -1.38023844,0.784 -1.38023844,1.571 v 1.375 z"
   id="path4"
   style="stroke-width:1.0019" />
		<path
   fill="#888888"
   d="m 144.54822,102.28989 v 0 l -2.85422,-0.098 h -1.96899 l -5.90395,-0.296 c -0.0992,0 -0.29574,0 -0.395,0 l -6.78918,1.473 -4.82321,1.276 -7.18018,1.081 -6.0032,0.393 -7.87393,-1.375 c -0.29475,0 -0.49125,0 -0.68875,0 l -3.641212,-1.472 c -0.393998,-0.097 -0.689746,-0.197 -1.082741,0 l -8.068427,2.454 -11.513147,-0.687 c -0.09925,0 -0.1975,0 -0.295749,0 l -12.301142,1.473 -24.504035,-3.24 c -0.09725,0 -0.09725,0 -0.196498,0 -0.09925,0 -0.294746,0 -0.393997,0 l -9.347665,2.258 -11.121155,-0.294 -13.8751265,-2.061 H 0.18274335 v 1.373 c 0,0.784 0.59149749,1.473 1.37848985,1.57 l 15.6466118,2.356 c 0.09925,0 0.09925,0 0.196497,0 l 11.415901,0.392 c 0.09925,0 0.295749,0 0.395,0 l 9.249416,-2.258 24.405787,3.239 c 0.09825,0 0.09825,0 0.196498,0 0.09825,0 0.09925,0 0.196497,0 l 12.301142,-1.373 11.612399,0.687 c 0.196497,0 0.395,0 0.590495,-0.098 l 7.775685,-2.455 3.83571,1.571 c 0.394996,0.196 0.887248,0.099 1.279238,0 l 7.47993,1.276 c 0.0993,0 0.29575,0 0.394,0 l 6.1997,-0.393 h 0.0992 l 7.38068,-1.081 c 0.0983,0 0.0983,0 0.1965,0 l 4.82321,-1.275 6.49444,-1.472 6.59269,0.294 2.16448,0.491 c 0.49225,0.098 0.98349,0 1.37849,-0.295 0.394,-0.293 0.5915,-0.785 0.5915,-1.276 z"
   id="path6"
   style="stroke-width:1.00127" />
	</g>
</g>
</svg>
