<?xml version="1.0" encoding="utf-8"?>
<!-- Generator: Adobe Illustrator 16.0.0, SVG Export Plug-In . SVG Version: 6.00 Build 0)  -->
<!DOCTYPE svg PUBLIC "-//W3C//DTD SVG 1.1//EN" "http://www.w3.org/Graphics/SVG/1.1/DTD/svg11.dtd">
<svg version="1.1" id="_x35_0m" xmlns="http://www.w3.org/2000/svg" xmlns:xlink="http://www.w3.org/1999/xlink" x="0px" y="0px"
	 width="144px" height="144px" viewBox="0 0 144 144" enable-background="new 0 0 144 144" xml:space="preserve">
<g>
	<path fill="#F7E09A" d="M143.805,58.159l-2.553-0.981l-12.367-3.14l-11.977,0.882l-11.877,1.57L91.582,54.43l-11.68,0.295
		l-18.355,3.729L46.92,57.178l-8.049-0.589l-16.195-3.141H10.111L0.1,55.019v31.804l16,2.258l11.68,0.294l9.719-2.257l25.227,3.239
		l12.76-1.375l11.877,0.786l8.541-2.553l4.416,1.767c0.1-0.099,0.197-0.195,0.295-0.293l8.246,1.373l6.381-0.392l7.459-1.082
		l5.006-1.274l6.871-1.473l7.068,0.295L144,88.196L143.805,58.159z"/>
	<g>
		<path fill="#888888" d="M3.338,56.394L3.338,56.394l8.344-1.375h11.975l15.607,3.239c0.098,0,0.098,0,0.197,0l7.854,0.588
			l14.33,1.276c0.197,0,0.295,0,0.49,0l17.67-3.729l11.189-0.295l13.055,2.061c0.197,0,0.295,0,0.492,0l11.484-1.57l11.484-0.883
			l11.779,3.043l1.375,0.49v0.099h3.238v-1.179c0-0.687-0.393-1.276-1.08-1.471l-2.453-0.982c-0.1,0-0.1,0-0.197-0.099L128,52.564
			c-0.195,0-0.393-0.098-0.49,0l-11.877,0.884l-11.387,1.57l-12.957-1.962c-0.1,0-0.197,0-0.295,0L79.51,53.35
			c-0.098,0-0.197,0-0.295,0l-17.668,3.73L47.51,55.706l-7.854-0.589l-15.607-3.239c-0.098,0-0.195,0-0.295,0H11.486
			c-0.1,0-0.197,0-0.295,0l-9.816,1.57C0.59,53.546,0,54.232,0,55.019v1.375H3.338z"/>
		<path fill="#888888" d="M144,84.564L144,84.564l-2.846-0.098h-1.965l-5.889-0.296c-0.098,0-0.295,0-0.393,0l-6.773,1.473
			l-4.811,1.276L114.16,88l-5.988,0.393l-7.854-1.375c-0.293,0-0.49,0-0.686,0L96,85.546c-0.393-0.097-0.688-0.197-1.08,0L86.871,88
			l-11.484-0.687c-0.098,0-0.197,0-0.295,0l-12.27,1.473l-24.441-3.24c-0.098,0-0.098,0-0.197,0c-0.098,0-0.293,0-0.393,0
			l-9.324,2.258L17.375,87.51l-13.84-2.061H0v1.373c0,0.784,0.59,1.473,1.375,1.57l15.607,2.356c0.098,0,0.098,0,0.195,0
			l11.387,0.392c0.1,0,0.295,0,0.395,0l9.225-2.258l24.344,3.239c0.098,0,0.098,0,0.197,0c0.098,0,0.098,0,0.195,0l12.27-1.373
			l11.584,0.687c0.195,0,0.393,0,0.588-0.098l7.756-2.455l3.826,1.571c0.395,0.196,0.885,0.099,1.277,0l7.461,1.276
			c0.098,0,0.295,0,0.393,0l6.184-0.393h0.098l7.363-1.081c0.098,0,0.098,0,0.195,0l4.811-1.275l6.479-1.472l6.576,0.294
			l2.158,0.491c0.492,0.098,0.982,0,1.375-0.295c0.393-0.293,0.59-0.785,0.59-1.276L144,84.564z"/>
	</g>
</g>
</svg>
