<?xml version="1.0" encoding="utf-8"?>
<!-- Generator: Adobe Illustrator 16.0.0, SVG Export Plug-In . SVG Version: 6.00 Build 0)  -->
<!DOCTYPE svg PUBLIC "-//W3C//DTD SVG 1.1//EN" "http://www.w3.org/Graphics/SVG/1.1/DTD/svg11.dtd">
<svg version="1.1" id="_x35_0m" xmlns="http://www.w3.org/2000/svg" xmlns:xlink="http://www.w3.org/1999/xlink" x="0px" y="0px"
	   viewBox="0 0 144 144" enable-background="new 0 0 144 144" xml:space="preserve"     width="40" height="40">
<g>
	
		<rect x="25.897" y="25.869" transform="matrix(-0.7071 0.7071 -0.7071 -0.7071 173.768 71.9363)" fill="#EB2227" width="92.176" height="92.176"/>
	<path fill="#010101" d="M71.999,144L-0.05,71.95L71.999,0l72.051,72.05L71.999,144z M13.636,71.95l58.363,58.364l58.367-58.364
		L71.999,13.585L13.636,71.95z"/>
	<g>
		<g>
			<path fill="#010101" d="M35.976,78.188c1.105,0,1.912-0.1,2.615-0.302c1.309-0.402,1.912-1.308,1.912-2.516
				c0-0.704-0.301-1.309-0.906-1.711c-0.604-0.402-1.609-0.703-2.918-1.006l-2.314-0.503c-2.213-0.503-3.824-1.106-4.729-1.711
				c-1.51-1.006-2.215-2.616-2.215-4.729c0-1.912,0.705-3.522,2.113-4.83c1.41-1.309,3.521-1.912,6.238-1.912
				c2.316,0,4.227,0.604,5.838,1.812c1.609,1.207,2.516,3.019,2.516,5.232H39.8c-0.102-1.309-0.605-2.214-1.711-2.817
				c-0.705-0.403-1.611-0.503-2.617-0.503c-1.207,0-2.113,0.201-2.818,0.704c-0.703,0.503-1.006,1.107-1.006,2.013
				c0,0.805,0.303,1.309,1.006,1.711c0.402,0.201,1.41,0.604,2.818,0.905l3.723,0.905c1.611,0.403,2.92,0.906,3.725,1.61
				c1.307,1.007,1.91,2.516,1.91,4.428c0,2.013-0.805,3.623-2.313,4.931c-1.51,1.309-3.623,2.014-6.441,2.014
				c-2.816,0-5.031-0.604-6.641-1.912c-1.611-1.31-2.416-3.12-2.416-5.334h4.328c0.1,1.007,0.402,1.71,0.805,2.214
				C32.956,77.786,34.163,78.188,35.976,78.188z"/>
			<path fill="#010101" d="M48.251,59.673h4.529v17.812h10.768v3.925H48.251V59.673z"/>
			<path fill="#010101" d="M76.327,82.013c-3.119,0-5.434-0.805-7.145-2.516c-2.215-2.113-3.322-5.032-3.322-8.956
				c0-4.024,1.107-6.943,3.322-8.956c1.609-1.711,4.025-2.516,7.145-2.516s5.434,0.805,7.145,2.516
				c2.213,2.013,3.32,5.031,3.32,8.956c0,3.924-1.107,6.843-3.32,8.956C81.761,81.107,79.345,82.013,76.327,82.013z M80.554,76.076
				c1.006-1.309,1.609-3.221,1.609-5.636s-0.502-4.327-1.609-5.635c-1.107-1.309-2.516-2.014-4.328-2.014
				c-1.811,0-3.219,0.705-4.326,2.014c-1.107,1.308-1.609,3.22-1.609,5.635s0.502,4.327,1.609,5.636
				c1.107,1.308,2.516,2.013,4.326,2.013C78.038,78.089,79.548,77.484,80.554,76.076z"/>
			<path fill="#010101" d="M111.347,59.673h4.629l-6.139,21.736h-4.326l-2.617-12.679l-0.805-4.227l-0.805,4.227l-2.617,12.679
				H94.44l-6.139-21.736h4.83l2.92,12.479l0.602,3.421l0.605-3.421l2.414-12.479h4.83l2.617,12.479l0.705,3.421l0.703-3.32
				L111.347,59.673z"/>
		</g>
	</g>
</g>
</svg>
