<?xml version="1.0" encoding="utf-8"?>
<!-- Generator: Adobe Illustrator 16.0.0, SVG Export Plug-In . SVG Version: 6.00 Build 0)  -->
<!DOCTYPE svg PUBLIC "-//W3C//DTD SVG 1.1//EN" "http://www.w3.org/Graphics/SVG/1.1/DTD/svg11.dtd">
<svg version="1.1" id="_x35_0m" xmlns="http://www.w3.org/2000/svg" xmlns:xlink="http://www.w3.org/1999/xlink" x="0px" y="0px"
	   viewBox="0 0 144 144" enable-background="new 0 0 144 144" xml:space="preserve"     width="40" height="40">
<g>
	<circle fill="#EB2227" cx="72" cy="72" r="68.1"/>
	<path fill="#010101" d="M72,144c-9.7,0-19.2-1.9-28-5.7c-8.601-3.6-16.3-8.8-22.899-15.399C14.5,116.3,9.3,108.6,5.7,100
		C1.899,91.2,0,81.7,0,72s1.899-19.2,5.7-28c3.6-8.601,8.8-16.3,15.4-22.899C27.7,14.5,35.399,9.3,44,5.7C52.8,1.899,62.3,0,72,0
		s19.2,1.899,28,5.7c8.6,3.6,16.3,8.8,22.9,15.4C129.5,27.7,134.7,35.399,138.3,44c3.8,8.899,5.7,18.3,5.7,28s-1.9,19.2-5.7,28
		c-3.6,8.6-8.8,16.3-15.399,22.9C116.3,129.5,108.6,134.7,100,138.3C91.2,142.1,81.7,144,72,144z M72,10.3c-16.5,0-32,6.4-43.7,18.1
		C16.601,40.101,10.3,55.5,10.3,72s6.4,32,18.1,43.7c11.701,11.7,27.201,18.1,43.701,18.1c16.499,0,31.999-6.399,43.699-18.1
		s18.101-27.2,18.101-43.6c0-16.4-6.4-32-18.101-43.701C104.1,16.7,88.5,10.3,72,10.3z"/>
	<path fill="#010101" d="M120.2,90.2c-2.101-5.4-4.3-10.8-6.4-16.101C108.4,60.5,103,47,97.7,33.399c-0.7-1.699-1.601-2.5-3.5-2.299
		c-1.8,0.199-3.7,0.299-5.5,0.5C83.6,32,78.6,32.899,74,35.2c-4.899,1.699-9.3,4.1-13.601,7c-4.299,2.199-8.199,5-12.299,7.4
		c-0.301,0.199-0.4,0.5-0.601,0.799C47.101,50.5,46.7,50.5,46.3,50.7c-4,2.4-8.199,4.5-12.5,6.4c-4,1.5-8.1,2.6-12.4,3.199
		c-1.399,0.2-2.1,0.9-1.6,2.2c1.6,4,2.9,8.2,5,12c1.4,4.9,3.6,9.5,5.4,14.2c1.6,4.1,3.199,8.2,4.8,12.3c0.399,1.1,1,1.8,2.2,1.6
		c4.6-0.6,9.1-1.399,13.3-3.5c4.8-1.699,9.399-4,13.5-7.1c4.601-2.2,8.7-5.1,12.9-7.8c4.5-2.3,9.1-4.7,13.6-7
		c4.8-1.601,9.6-3,14.7-3.3c2.6,6.399,5.2,12.899,7.8,19.3c1,2.5,2.6,3.2,5,2.2C120.5,94.3,121.2,92.7,120.2,90.2z"/>
</g>
</svg>
