<?xml version="1.0" encoding="utf-8"?>
<!-- Generator: Adobe Illustrator 16.0.0, SVG Export Plug-In . SVG Version: 6.00 Build 0)  -->
<!DOCTYPE svg PUBLIC "-//W3C//DTD SVG 1.1//EN" "http://www.w3.org/Graphics/SVG/1.1/DTD/svg11.dtd">
<svg version="1.1" id="Layer_1" xmlns="http://www.w3.org/2000/svg" xmlns:xlink="http://www.w3.org/1999/xlink" x="0px" y="0px"
	   viewBox="0 0 144 144" enable-background="new 0 0 144 144" xml:space="preserve"     width="40" height="40">
<g>
	<path fill="#010101" d="M119.307,40.957c-4.871-5.172-5.781-6.092-6.39-10.2c-0.61-4.108-0.304-8.069-1.978-9.438
		c-1.672-1.368-3.65-6.084-5.63-10.041c-1.979-3.96-7.914-6.542-12.781-6.697c-4.869-0.158-11.565-1.668-16.279-3.953
		c-4.716-2.282-13.238,2.127-17.804,5.777c-4.563,3.653-8.369,4.108-15.216,4.108s-9.586,9.438-9.586,9.438
		c-2.585,9.841-3.955,7.504-6.694,9.785c-2.738,2.282-4.415,4.729-6.087,11.117c-1.674,6.391,5.477,12.633,6.692,14.918
		c1.217,2.278,0.457,3.369,4.719,10.825c4.262,7.455,14.911,5.409,14.911,5.409s-0.15,2.362,3.502,3.28
		c3.65,0.91,13.541,0.793,13.541,0.793s0.152,12.182,0,20.85c-0.155,8.676-2.894,18.268-5.936,22.684
		c-3.042,4.414-4.108,3.652-6.39,15.363c-2.282,11.709,20.845,8.668,34.538,8.668c13.694,0,4.872-15.207,2.59-22.967
		c-2.281-7.766-3.805-16.285-3.805-16.285l-0.115-26.17l3.007,1.086c4.415,1.219,8.521-0.762,14.151-3.195
		c5.631-2.435,2.889-1.072,9.736-1.68c6.847-0.606,6.391-5.474,5.783-10.037c-0.605-4.57-0.457-6.249,3.193-10.967
		C124.635,48.716,124.176,46.128,119.307,40.957z"/>
	<g>
		<path fill="#8C8C8C" d="M85.262,121.78c-2.315-7.875-3.839-16.344-3.904-16.699l-0.06-0.334l-0.14-32.122
			c0,0,2.674-3.943,7.436-4.983c4.763-1.039,11.515-2.162,11.515-2.162l2.164-0.433c0,0,1.126-3.814-1.731-3.641
			c-2.856,0.175-9.956,4.938-14.111,4.157c-4.157-0.781-9.092-4.764-5.974-7.578c3.116-2.808,4.675-8.263,4.588-11.555h-6.667
			c0,0,1.3,9.089-3.723,12.64c-5.021,3.55-15.323,5.279-20.604,1.994c-5.28-3.292-7.966-7.274-7.966-7.274l-2.509,1.82
			c0,0,5.8,6.493,6.839,7.442c1.04,0.955,1.559,2.892,3.463,2.872c1.904-0.013,9.695-0.535,9.695-0.535s-0.172,1.039,0.694,1.472
			c0.865,0.433,3.722,0.522,3.722,0.522l0.114,4.726l0.05,3.925c0.001,0.123,0.151,12.336,0,20.967
			c-0.162,9.049-2.948,19.5-6.628,24.838c-0.658,0.955-1.22,1.678-1.715,2.311c-1.596,2.047-2.396,3.072-4.054,11.574
			c-0.236,1.207,0.079,1.588,0.215,1.756c0.798,0.969,3.749,2.596,14.522,2.596c2.79,0,5.681-0.098,8.476-0.188
			c2.654-0.084,5.162-0.168,7.472-0.168c2.005,0,3.002-0.406,3.265-0.795c1.256-1.82-1.273-8.461-2.632-12.031
			C86.375,125.06,85.718,123.337,85.262,121.78z"/>
		<path fill="#8C8C8C" d="M116.447,43.649l-0.188-0.2c-4.821-5.119-6.446-6.841-7.229-12.115c-0.195-1.323-0.304-2.607-0.4-3.743
			c-0.102-1.207-0.239-2.828-0.455-3.474c-1.854-1.694-3.371-4.851-5.114-8.481c-0.419-0.875-0.843-1.756-1.265-2.602
			c-1.145-2.288-5.536-4.405-9.396-4.528c-5.699-0.184-12.879-1.93-17.864-4.344C74.219,4.01,73.752,3.93,73.186,3.93
			c-3.479,0-8.927,2.856-12.287,5.541c-5.766,4.612-10.961,4.971-17.671,4.971c-3.566,0-5.672,6.171-5.808,6.581
			c-2.042,7.743-3.797,9.698-6.952,11.154c-0.454,0.21-0.704,0.326-1.005,0.578c-1.814,1.51-3.22,3.046-4.803,9.093
			c-0.779,2.977,2.408,6.907,4.311,9.25c0.888,1.098,1.588,1.956,2.049,2.828c0.605,1.129,0.875,2.059,1.135,2.956
			c0.398,1.368,0.944,3.247,3.527,7.765c1.741,3.047,5.445,3.687,8.245,3.687c1.47,0,2.515-0.188,2.516-0.188l4.98-0.955h-2.74
			L37.946,55.229c0,0,8.196-6.727,8.543-6.881c0.345-0.155,4.617,8.036,9.119,9.54c4.501,1.498,11.889,1.847,15.237-1.039
			c3.347-2.886,4.039-6.235,3.578-10.16c-0.462-3.925,0-4.848,0-4.848h13.478c0,0,0.605,7.358,0,10.825
			c-0.606,3.46-4.762,7.791-2.251,8.565c2.511,0.781,8.224-1.298,11.515-2.943c3.29-1.64,7.618-2.595,8.311,0.349
			s3.724,7.358,0,8.746c-3.723,1.382-5.107,1.207-11.861,3.027c-6.752,1.82-7.612,2.079-8.264,3.725l3.938,1.42
			c0.514,0.129,1.03,0.195,1.574,0.195c2.373,0,5.227-1.24,8.838-2.81l1.008-0.433c3.255-1.407,4.375-1.853,6.246-1.853
			c0.203,0,0.422,0.007,0.674,0.014c0.248,0.006,0.54,0.013,0.904,0.013c0.879,0,1.9-0.052,3.123-0.161
			c1.314-0.116,1.994-0.42,2.195-0.672c0.6-0.749,0.225-3.582,0.041-4.938c-0.742-5.603-0.271-8.391,3.984-13.884
			C120.038,48.238,120.367,47.813,116.447,43.649z"/>
		<path fill="#8C8C8C" d="M51.637,71.477c1.667,0.413,6.192,0.684,11.528,0.684v-2.885c0,0-11.774,0.755-11.743-2.085l-0.261,4.138
			C51.279,71.373,51.435,71.425,51.637,71.477z"/>
	</g>
</g>
</svg>
