<?xml version="1.0" encoding="utf-8"?>
<!-- Generator: Adobe Illustrator 16.0.0, SVG Export Plug-In . SVG Version: 6.00 Build 0)  -->
<!DOCTYPE svg PUBLIC "-//W3C//DTD SVG 1.1//EN" "http://www.w3.org/Graphics/SVG/1.1/DTD/svg11.dtd">
<svg version="1.1" id="_x35_0m" xmlns="http://www.w3.org/2000/svg" xmlns:xlink="http://www.w3.org/1999/xlink" x="0px" y="0px"
	   viewBox="0 0 144 144" enable-background="new 0 0 144 144" xml:space="preserve"   width="12" height="12">
<g>
	<g>
		<g>
			<g>
				<g>
					<path fill="#989898" d="M132.515,134.384H11.477c-4.203,0-7.923-2.07-9.971-5.526c-2.038-3.456-2.007-7.637,0.094-11.188
						l31.004-52.456l29.51-49.924c2.103-3.551,5.8-5.673,9.887-5.673s7.784,2.122,9.887,5.673l31.002,52.445l29.512,49.925
						c2.101,3.551,2.134,7.73,0.094,11.188C140.436,132.313,136.717,134.384,132.515,134.384z M28.254,113.771h87.472L71.989,39.788
						L28.254,113.771z"/>
				</g>
			</g>
		</g>
		<g>
			<g>
				<g>
					<path fill="#FFFFFF" d="M71.244,20.437c0.419-0.693,1.093-0.693,1.491,0l29.512,49.925c0.421,0.692,1.093,1.827,1.491,2.521
						l29.511,49.924c0.42,0.693,0.074,1.26-0.734,1.26H73.492c-0.82,0-2.164,0-2.984,0H11.477c-0.821,0-1.146-0.566-0.735-1.26
						l29.51-49.924c0.421-0.694,1.093-1.829,1.492-2.521L71.244,20.437z"/>
				</g>
			</g>
		</g>
		<g>
			<g>
				<g>
					<path fill="#FFFFFF" d="M132.515,133.542H11.477c-3.889,0-7.335-1.911-9.236-5.104c-1.891-3.194-1.849-7.07,0.095-10.357
						l31.003-52.457l29.521-49.925c1.935-3.287,5.358-5.252,9.141-5.252s7.196,1.965,9.142,5.252l31.001,52.456l29.513,49.926
						c1.942,3.287,1.975,7.163,0.094,10.357C139.848,131.642,136.401,133.542,132.515,133.542z M26.782,114.612h90.425
						L71.989,38.118L26.782,114.612z"/>
				</g>
			</g>
		</g>
	</g>
	<g>
		<g>
			<g>
				<path fill="#ED2224" d="M132.515,131.358H11.477c-3.08,0-5.812-1.502-7.293-4.014c-1.48-2.511-1.449-5.568,0.095-8.173
					l31.004-52.445l29.512-49.926c1.544-2.604,4.244-4.159,7.206-4.159c2.973,0,5.674,1.555,7.206,4.159l31.004,52.457
					l29.512,49.924c1.543,2.605,1.575,5.662,0.094,8.174C138.324,129.866,135.594,131.358,132.515,131.358z M22.906,116.796h98.178
					L71.989,33.748L46.702,76.527L22.906,116.796z"/>
			</g>
		</g>
	</g>
	<g>
		<g>
			<g>
				<g>
					<path fill="#010101" d="M69.143,84.9l-2.312-16.619c-0.221-3.319-0.336-5.705-0.336-7.155c0-1.965,0.525-3.498,1.576-4.602
						c1.062-1.104,2.447-1.659,4.171-1.659c2.091,0,3.487,0.703,4.191,2.122c0.703,1.407,1.05,3.444,1.05,6.104
						c0,1.564-0.083,3.151-0.252,4.769l-2.711,17.124c-0.125,2.354-0.377,4.171-0.776,5.422c-0.389,1.261-1.04,1.891-1.933,1.891
						c-0.914,0-1.556-0.609-1.913-1.828C69.542,89.239,69.289,87.391,69.143,84.9z M72.031,108.729
						c-1.481,0-2.773-0.475-3.877-1.409c-1.103-0.935-1.659-2.248-1.659-3.929c0-1.471,0.525-2.722,1.576-3.761
						c1.062-1.03,2.353-1.545,3.887-1.545s2.825,0.515,3.908,1.545c1.082,1.029,1.628,2.29,1.628,3.761
						c0,1.659-0.546,2.962-1.639,3.919C74.763,108.255,73.492,108.729,72.031,108.729z"/>
				</g>
			</g>
		</g>
	</g>
</g>
</svg>
