<?xml version="1.0" encoding="utf-8"?>
<!-- Generator: Adobe Illustrator 16.0.0, SVG Export Plug-In . SVG Version: 6.00 Build 0)  -->
<!DOCTYPE svg PUBLIC "-//W3C//DTD SVG 1.1//EN" "http://www.w3.org/Graphics/SVG/1.1/DTD/svg11.dtd">
<svg version="1.1" id="_x35_0m" xmlns="http://www.w3.org/2000/svg" xmlns:xlink="http://www.w3.org/1999/xlink" x="0px" y="0px"
	   viewBox="0 0 144 144" enable-background="new 0 0 144 144" xml:space="preserve"   width="12" height="12">
<path fill="#010101" d="M85.633,135.451c-2.903,2.901-0.2,8.205,4.004,8.205l50.158,0.501c2.402,0,4.205-1.802,4.205-4.203
	l-0.5-50.141c0-4.303-5.406-6.904-8.209-4.003l-18.622,18.615l-75.585-75.46l15.718-15.713c2.503-2.502,2.303-6.905-0.601-9.808
	l-1.001-1.001c-2.804-2.802-7.208-3.102-9.711-0.5L1.738,45.679c-2.503,2.502-2.303,6.905,0.601,9.808l1.001,1.001
	c2.903,2.903,7.208,3.103,9.812,0.601l15.718-15.712l75.586,75.56L85.633,135.451z"/>
</svg>
