<?xml version="1.0" encoding="UTF-8" standalone="no"?>
<!-- Generator: Adobe Illustrator 16.0.0, SVG Export Plug-In . SVG Version: 6.00 Build 0)  -->

<svg
   version="1.1"
   id="_x35_0m"
   x="0px"
   y="0px"
   
   
   viewBox="0 0 144 144"
   enable-background="new 0 0 144 144"
   xml:space="preserve"
   sodipodi:docname="hole.svg"
   inkscape:version="1.2.1 (9c6d41e410, 2022-07-14)"
   xmlns:inkscape="http://www.inkscape.org/namespaces/inkscape"
   xmlns:sodipodi="http://sodipodi.sourceforge.net/DTD/sodipodi-0.dtd"
   xmlns="http://www.w3.org/2000/svg"
   xmlns:svg="http://www.w3.org/2000/svg"   width="12" height="12"><defs
   id="defs15" /><sodipodi:namedview
   id="namedview13"
   pagecolor="#ffffff"
   bordercolor="#000000"
   borderopacity="0.25"
   inkscape:showpageshadow="2"
   inkscape:pageopacity="0.0"
   inkscape:pagecheckerboard="true"
   inkscape:deskcolor="#d1d1d1"
   showgrid="false"
   inkscape:zoom="5.4722222"
   inkscape:cx="51.807107"
   inkscape:cy="72"
   inkscape:window-width="1920"
   inkscape:window-height="986"
   inkscape:window-x="-11"
   inkscape:window-y="-11"
   inkscape:window-maximized="1"
   inkscape:current-layer="_x35_0m" />
<path
   fill="#ED2024"
   d="M71.5,0C32,0,0,32.5,0,72.5C0,111.9,32.4,144,72.1,144c39.8,0,71.9-32.3,71.9-72.3C144,32,111.6,0,71.5,0z"
   id="path2"
   style="fill:#000000;fill-opacity:1" />
<path
   fill="#FFFFFF"
   d="M34.2,23.6C49.1,12.3,65.8,8.2,84.1,11.8c10.2,2,19.2,6.4,26.7,12.5L71.3,63.7c-0.2-0.2-0.4-0.4-0.6-0.601  c-1-0.699-1.8-1.6-2.5-2.5c-0.4-0.399-0.9-0.899-1.3-1.3c-0.9-0.899-1.7-1.8-2.6-2.7c-3.3-3-6.4-6.1-9.3-9.399  c-1-0.7-1.8-1.601-2.5-2.5c-0.4-0.4-0.9-0.9-1.3-1.3c-2.8-2.801-5.6-5.7-8.4-8.5C39.9,32,37,29,34,26.2  C32.7,24.9,33.1,24.4,34.2,23.6z"
   id="path4" />
<path
   fill="#FFFFFF"
   d="M12.2,58c2.1-9,6.1-17.2,11.9-24.4c0.5-0.6,0.8-1.8,2-0.6c3.6,3.8,7.3,7.4,10.9,11.2c1,0.7,1.8,1.6,2.6,2.6  c3.1,3.101,6.2,6.3,9.3,9.4c0.9,0.899,1.7,1.8,2.5,2.7c0.6,0.3,1,0.8,1.3,1.3c1,0.7,1.8,1.6,2.5,2.5c0.2,0.2,0.5,0.3,0.7,0.5  c2.7,2.7,5.3,5.399,8,8l-39.5,39.5C12.8,96.5,7.7,77.3,12.2,58z"
   id="path6" />
<path
   fill="#FFFFFF"
   d="M109.8,120.4c-15.7,11.8-33.2,15.8-52.3,11.199c-9.8-2.399-18.4-6.899-25.6-13L71.5,79  c5,5.1,10.1,10.2,15.1,15.2C90.5,98.1,94.3,102.1,98.2,106.1c0.8,0.4,1.3,1.101,1.8,1.801c3.3,3.3,6.6,6.699,10,9.899  C111.2,119.1,111,119.6,109.8,120.4z"
   id="path8" />
<path
   fill="#FFFFFF"
   d="M119.9,110.5c-0.4,0.5-0.7,1.7-1.801,0.6c-4-4.1-7.899-8.1-11.899-12.199c-0.7-0.5-1.4-1-1.8-1.9  c-6.301-6.3-12.7-12.7-19-19c-2.101-2.1-4.2-4.2-6.301-6.4L118.7,32c13.2,15.4,18.6,37.2,12,58.4  C128.4,97.7,124.8,104.5,119.9,110.5z"
   id="path10" />
</svg>
