<?xml version="1.0" encoding="utf-8"?>
<!-- Generator: Adobe Illustrator 16.0.0, SVG Export Plug-In . SVG Version: 6.00 Build 0)  -->
<!DOCTYPE svg PUBLIC "-//W3C//DTD SVG 1.1//EN" "http://www.w3.org/Graphics/SVG/1.1/DTD/svg11.dtd">
<svg version="1.1" id="_x35_0m" xmlns="http://www.w3.org/2000/svg" xmlns:xlink="http://www.w3.org/1999/xlink" x="0px" y="0px"
	   viewBox="0 0 144 144" enable-background="new 0 0 144 144" xml:space="preserve"   width="12" height="12">
<g>
	<g>
		<g>
			<defs>
				<polygon id="SVGID_5_" points="-213.87,-213.87 -212.87,-213.87 -213.87,-212.87 				"/>
			</defs>
			<defs>
				<polygon id="SVGID_6_" points="-215.87,-215.87 -216.87,-215.87 -215.87,-216.87 				"/>
			</defs>
			<clipPath id="SVGID_4_">
				<use xlink:href="#SVGID_5_"  overflow="visible"/>
			</clipPath>
			<clipPath id="SVGID_7_" clip-path="url(#SVGID_4_)">
				<use xlink:href="#SVGID_6_"  overflow="visible"/>
			</clipPath>
		</g>
	</g>
</g>
<g>
	<g>
		<g>
			<defs>
				<polygon id="SVGID_31_" points="-213.87,-213.87 -212.87,-213.87 -213.87,-212.87 				"/>
			</defs>
			<defs>
				<polygon id="SVGID_32_" points="-215.87,-215.87 -216.87,-215.87 -215.87,-216.87 				"/>
			</defs>
			<clipPath id="SVGID_8_">
				<use xlink:href="#SVGID_31_"  overflow="visible"/>
			</clipPath>
			<clipPath id="SVGID_11_" clip-path="url(#SVGID_8_)">
				<use xlink:href="#SVGID_32_"  overflow="visible"/>
			</clipPath>
		</g>
	</g>
</g>
<path fill="#010101" d="M1.307,56.279c0.802-4.808,1.946-8.928,3.663-12.133s4.007-5.725,6.754-7.441s6.181-2.519,10.188-2.519
	c4.234-0.113,7.784,0.688,10.531,2.29c2.861,1.603,5.036,4.007,6.639,7.325c1.603,3.32,2.862,7.326,3.435,12.249
	c0.572,4.922,1.03,10.531,1.03,17.055c0,6.297-0.344,11.905-1.146,16.713c-0.801,4.808-1.945,8.928-3.662,12.133
	c-1.718,3.205-4.007,5.609-6.754,7.212s-6.182,2.29-10.188,2.29c-4.235,0.113-7.784-0.572-10.531-2.175s-5.036-3.893-6.639-7.098
	s-2.748-7.325-3.549-12.248c-0.802-4.922-1.03-10.53-1.03-16.94C0.162,66.695,0.506,61.087,1.307,56.279z M14.471,83.408
	c0.114,3.205,0.458,5.952,1.03,8.242c0.572,2.288,1.259,4.12,2.289,5.38c1.03,1.259,2.404,1.945,4.121,1.945
	c2.861,0,4.808-2.061,5.952-6.067c1.145-4.006,1.603-10.646,1.603-19.916c0-9.272-0.572-15.911-1.603-19.918
	c-1.145-4.006-3.091-6.067-5.952-6.067c-1.717,0-3.091,0.688-4.121,1.947c-1.03,1.258-1.831,3.09-2.289,5.379
	c-0.572,2.289-0.802,5.037-1.03,8.242c-0.114,3.205-0.229,6.64-0.229,10.417C14.242,76.769,14.356,80.203,14.471,83.408z"/>
<path fill="#010101" d="M64.836,37.52v8.699h0.229c1.488-3.662,3.434-6.296,5.838-8.013c2.403-1.717,5.151-2.519,8.241-2.519
	c4.465,0,8.013,1.603,10.417,4.923c2.403,3.319,3.663,8.7,3.663,16.025v54.829H79.031V60.528c0-3.893-0.459-6.525-1.489-8.013
	c-0.915-1.489-2.518-2.29-4.578-2.29c-5.037,0-7.555,4.121-7.555,12.248v48.991H51.215V37.52H64.836z"/>
<path fill="#010101" d="M103.069,13.367h14.766v81.844h26.213v16.254h-40.979V13.367z"/>
</svg>
