<?xml version="1.0" encoding="utf-8"?>
<!-- Generator: Adobe Illustrator 16.0.0, SVG Export Plug-In . SVG Version: 6.00 Build 0)  -->
<!DOCTYPE svg PUBLIC "-//W3C//DTD SVG 1.1//EN" "http://www.w3.org/Graphics/SVG/1.1/DTD/svg11.dtd">
<svg version="1.1" id="Layer_1" xmlns="http://www.w3.org/2000/svg" xmlns:xlink="http://www.w3.org/1999/xlink" x="0px" y="0px"
	   viewBox="0 0 144 144" enable-background="new 0 0 144 144" xml:space="preserve"   width="12" height="12">
<polygon points="129.931,68.838 129.931,57.36 124.247,57.36 124.247,68.838 116.158,68.838 116.158,57.36 110.475,57.36 
	110.475,68.838 102.386,68.838 102.386,57.36 96.702,57.36 96.702,68.838 88.614,68.838 88.614,57.36 82.93,57.36 82.93,68.838 
	74.842,68.838 74.842,57.36 69.158,57.36 69.158,68.838 61.07,68.838 61.07,57.36 55.386,57.36 55.386,68.838 47.298,68.838 
	47.298,57.36 41.614,57.36 41.614,68.838 33.525,68.838 33.525,57.36 27.842,57.36 27.842,68.838 19.753,68.838 19.753,57.36 
	14.069,57.36 14.069,68.838 0,68.838 0,75.162 14.069,75.162 14.069,86.639 19.753,86.639 19.753,75.162 27.842,75.162 
	27.842,86.639 33.525,86.639 33.525,75.162 41.614,75.162 41.614,86.639 47.298,86.639 47.298,75.162 55.386,75.162 55.386,86.639 
	61.07,86.639 61.07,75.162 69.158,75.162 69.158,86.639 74.842,86.639 74.842,75.162 82.93,75.162 82.93,86.639 88.614,86.639 
	88.614,75.162 96.702,75.162 96.702,86.639 102.386,86.639 102.386,75.162 110.475,75.162 110.475,86.639 116.158,86.639 
	116.158,75.162 124.247,75.162 124.247,86.639 129.931,86.639 129.931,75.162 144,75.162 144,68.838 "/>
</svg>
