<?xml version="1.0" encoding="utf-8"?>
<!-- Generator: Adobe Illustrator 16.0.0, SVG Export Plug-In . SVG Version: 6.00 Build 0)  -->
<!DOCTYPE svg PUBLIC "-//W3C//DTD SVG 1.1//EN" "http://www.w3.org/Graphics/SVG/1.1/DTD/svg11.dtd">
<svg version="1.1" id="Layer_1" xmlns="http://www.w3.org/2000/svg" xmlns:xlink="http://www.w3.org/1999/xlink" x="0px" y="0px"
	   viewBox="0 0 144 144" enable-background="new 0 0 144 144" xml:space="preserve"   width="12" height="12">
<g>
	<g>
		<rect x="66.63" y="0.5" fill="#FCEE1F" width="10.74" height="11.087"/>
		<path d="M76.87,1v10.087h-9.74V1H76.87 M77.87,0H66.13v12.087h11.74V0L77.87,0z"/>
	</g>
	<g>
		<rect x="66.63" y="12.586" width="10.74" height="16.18"/>
		<path d="M76.87,13.086v15.18h-9.74v-15.18H76.87 M77.87,12.086H66.13v17.18h11.74V12.086L77.87,12.086z"/>
	</g>
	<g>
		<rect x="66.63" y="29.766" fill="#FCEE1F" width="10.74" height="16.18"/>
		<path d="M76.87,30.266v15.18h-9.74v-15.18H76.87 M77.87,29.266H66.13v17.18h11.74V29.266L77.87,29.266z"/>
	</g>
	<g>
		<rect x="66.63" y="46.946" width="10.74" height="16.18"/>
		<path d="M76.87,47.446v15.18h-9.74v-15.18H76.87 M77.87,46.446H66.13v17.18h11.74V46.446L77.87,46.446z"/>
	</g>
	<g>
		<rect x="66.63" y="64.126" fill="#FCEE1F" width="10.74" height="16.18"/>
		<path d="M76.87,64.626v15.18h-9.74v-15.18H76.87 M77.87,63.626H66.13v17.18h11.74V63.626L77.87,63.626z"/>
	</g>
	<g>
		<rect x="66.63" y="81.306" width="10.74" height="16.18"/>
		<path d="M76.87,81.806v15.18h-9.74v-15.18H76.87 M77.87,80.806H66.13v17.18h11.74V80.806L77.87,80.806z"/>
	</g>
	<g>
		<rect x="66.63" y="98.486" fill="#FCEE1F" width="10.74" height="16.18"/>
		<path d="M76.87,98.986v15.18h-9.74v-15.18H76.87 M77.87,97.986H66.13v17.18h11.74V97.986L77.87,97.986z"/>
	</g>
	<g>
		<rect x="66.63" y="115.666" width="10.74" height="16.18"/>
		<path d="M76.87,116.166v15.18h-9.74v-15.18H76.87 M77.87,115.166H66.13v17.18h11.74V115.166L77.87,115.166z"/>
	</g>
	<g>
		<rect x="66.63" y="132.846" fill="#FCEE1F" width="10.74" height="10.654"/>
		<path d="M76.87,133.346V143h-9.74v-9.654H76.87 M77.87,132.346H66.13V144h11.74V132.346L77.87,132.346z"/>
	</g>
</g>
</svg>
