<?xml version="1.0" encoding="UTF-8" standalone="no"?>
<!-- Generator: Adobe Illustrator 16.0.0, SVG Export Plug-In . SVG Version: 6.00 Build 0)  -->

<svg
   version="1.1"
   id="_x35_0m"
   x="0px"
   y="0px"
   
   
   viewBox="0 0 144 144"
   enable-background="new 0 0 144 144"
   xml:space="preserve"
   sodipodi:docname="twisty.svg"
   inkscape:version="1.2.1 (9c6d41e410, 2022-07-14)"
   xmlns:inkscape="http://www.inkscape.org/namespaces/inkscape"
   xmlns:sodipodi="http://sodipodi.sourceforge.net/DTD/sodipodi-0.dtd"
   xmlns="http://www.w3.org/2000/svg"
   xmlns:svg="http://www.w3.org/2000/svg"   width="12" height="12"><defs
   id="defs7" /><sodipodi:namedview
   id="namedview5"
   pagecolor="#ffffff"
   bordercolor="#000000"
   borderopacity="0.25"
   inkscape:showpageshadow="2"
   inkscape:pageopacity="0.0"
   inkscape:pagecheckerboard="0"
   inkscape:deskcolor="#d1d1d1"
   showgrid="false"
   inkscape:zoom="10.944444"
   inkscape:cx="69.532995"
   inkscape:cy="145.09645"
   inkscape:window-width="1920"
   inkscape:window-height="986"
   inkscape:window-x="-11"
   inkscape:window-y="-11"
   inkscape:window-maximized="1"
   inkscape:current-layer="_x35_0m" />
<path
   fill="#ec2227"
   d="M 32.617262,140.57383 C 31.717178,136.71815 24.014445,128.21391 30.117026,125.34686 45.520487,117.53465 79.932753,99.240927 87.835503,94.494487 100.73873,83.81425 31.31814,71.948638 28.016827,50.194688 25.616599,34.668158 88.434561,8.2666286 104.63911,1.2453345 c 6.20158,-2.8670447 7.90273,8.7029645 9.90293,11.9664525 0.90007,2.272875 -0.10002,4.844317 -2.40023,5.735078 -20.704965,8.700987 -43.014083,19.381223 -55.616278,26.895847 -10.903036,10.876976 32.909123,16.316451 50.715818,28.577517 34.01122,23.336756 -37.411556,48.750631 -68.621517,68.231711 -2.20121,1.18538 -4.902466,0.19674 -6.002571,-2.07811 z"
   id="path2"
   style="stroke:#000000;stroke-width:1.49152;stroke-dasharray:none;stroke-opacity:1" />
</svg>
