<?xml version="1.0" encoding="utf-8"?>
<!-- Generator: Adobe Illustrator 16.0.0, SVG Export Plug-In . SVG Version: 6.00 Build 0)  -->
<!DOCTYPE svg PUBLIC "-//W3C//DTD SVG 1.1//EN" "http://www.w3.org/Graphics/SVG/1.1/DTD/svg11.dtd">
<svg version="1.1" id="_x35_0m" xmlns="http://www.w3.org/2000/svg" xmlns:xlink="http://www.w3.org/1999/xlink" x="0px" y="0px"
	   viewBox="0 0 144 144" enable-background="new 0 0 144 144" xml:space="preserve" width="40" height="40">
<path fill="#010101" d="M21.754,22.4c2.601,0,5.083,0.399,7.33,1.099c2.246,0.699,4.256,1.997,5.792,3.794
	c1.537,1.797,2.956,4.094,3.784,6.989c0.945,2.896,1.419,6.49,1.419,10.784c0,4.792-0.828,8.986-2.483,12.381
	s-4.02,5.791-7.329,7.089v0.199c3.664,0.699,6.502,2.796,8.63,6.391c2.128,3.594,3.192,8.386,3.192,14.377
	c0,3.495-0.355,6.791-0.946,9.985c-0.592,3.195-1.773,5.891-3.429,8.288c-1.536,2.396-3.665,4.293-6.266,5.69
	c-2.601,1.398-5.793,2.097-9.577,2.097H0V22.4H21.754z M16.67,59.043c3.665,0,6.266-0.898,7.921-2.696s2.483-4.792,2.483-9.086
	c0-4.293-0.71-7.188-2.247-8.986s-3.901-2.596-7.094-2.596h-4.729v23.364H16.67L16.67,59.043z M18.088,98.283
	c3.074,0,5.676-0.999,7.567-2.896c1.891-1.897,2.955-5.492,2.955-10.583c0-2.597-0.236-4.693-0.827-6.391
	c-0.592-1.698-1.183-3.095-2.128-4.093c-0.828-0.999-1.892-1.798-3.074-2.197c-1.182-0.4-2.483-0.599-4.02-0.599h-5.557v26.858
	L18.088,98.283L18.088,98.283z"/>
<path fill="#010101" d="M78.975,22.4l17.143,89.147H82.521l-2.956-18.888h-17.26l-2.956,18.888H45.754L62.896,22.4H78.975z
	 M77.201,78.067l-6.266-40.076h-0.236l-6.266,40.076H77.201z"/>
<path fill="#010101" d="M122.601,22.4c4.493,0,8.158,0.998,10.995,3.092c2.719,1.995,4.966,4.987,6.503,8.777
	c1.536,3.791,2.601,8.379,3.074,13.666c0.473,5.286,0.826,11.271,0.826,17.854c0,7.78-0.354,14.662-1.063,20.348
	c-0.71,5.785-1.893,10.574-3.547,14.264c-1.656,3.791-3.901,6.483-6.739,8.379c-2.838,1.795-6.385,2.793-10.759,2.793h-20.689V22.4
	H122.601z M120,98.207c2.246,0,4.138-0.499,5.557-1.596c1.419-1.097,2.482-2.892,3.311-5.386c0.827-2.494,1.419-5.786,1.655-9.875
	c0.236-4.089,0.354-9.177,0.354-15.161c0-5.087-0.118-9.476-0.354-13.366c-0.236-3.79-0.71-6.982-1.537-9.576
	c-0.71-2.494-1.892-4.488-3.311-5.785c-1.418-1.296-3.429-1.895-5.912-1.895h-5.556v62.641H120L120,98.207z"/>
</svg>
