<?xml version="1.0" encoding="UTF-8" standalone="no"?>
<!-- Generator: Adobe Illustrator 16.0.0, SVG Export Plug-In . SVG Version: 6.00 Build 0)  -->

<svg
   version="1.1"
   id="_x35_0m"
   x="0px"
   y="0px"
   
   
   viewBox="0 0 144 144"
   enable-background="new 0 0 144 144"
   xml:space="preserve"
   sodipodi:docname="bumpy_broken.svg"
   inkscape:version="1.2.1 (9c6d41e410, 2022-07-14)"
   xmlns:inkscape="http://www.inkscape.org/namespaces/inkscape"
   xmlns:sodipodi="http://sodipodi.sourceforge.net/DTD/sodipodi-0.dtd"
   xmlns="http://www.w3.org/2000/svg"
   xmlns:svg="http://www.w3.org/2000/svg" width="40" height="40"><defs
   id="defs7" /><sodipodi:namedview
   id="namedview5"
   pagecolor="#ffffff"
   bordercolor="#000000"
   borderopacity="0.25"
   inkscape:showpageshadow="2"
   inkscape:pageopacity="0.0"
   inkscape:pagecheckerboard="0"
   inkscape:deskcolor="#d1d1d1"
   showgrid="false"
   inkscape:zoom="10.944444"
   inkscape:cx="112.47716"
   inkscape:cy="42.761421"
   inkscape:window-width="1920"
   inkscape:window-height="986"
   inkscape:window-x="-11"
   inkscape:window-y="-11"
   inkscape:window-maximized="1"
   inkscape:current-layer="_x35_0m" />
<path
   fill="#e42827"
   d="m 137.73555,110.20769 c -3.06086,0 -5.54904,-2.5203 -5.54904,-5.61968 V 57.372202 L 98.672049,106.26221 c -1.398123,2.02625 -3.928763,2.90536 -6.248107,2.14426 -2.319342,-0.75008 -3.886306,-2.94836 -3.864584,-5.41566 L 89.066869,58.037284 56.515103,106.65826 c -1.344804,2.01625 -3.823114,2.91736 -6.120735,2.25228 -2.307494,-0.66408 -3.927776,-2.76735 -4.01269,-5.19264 L 44.634025,56.825134 11.245953,106.88329 c -1.7150698,2.57432 -5.1669314,3.2504 -7.7084336,1.51318 -2.54150221,-1.73721 -3.20896743,-5.23563 -1.4929104,-7.80795 L 44.941098,36.273609 c 1.344804,-2.017249 3.812254,-2.917359 6.120736,-2.263279 2.307494,0.665082 3.928763,2.76734 4.023551,5.190638 l 1.747653,46.947771 33.408807,-49.885132 c 1.377387,-2.060253 3.917902,-2.960364 6.248106,-2.209272 2.340078,0.740092 3.917899,2.948363 3.886299,5.427668 L 99.867756,84.799574 133.17092,36.210601 c 1.38726,-2.017249 3.89717,-2.885356 6.21552,-2.155266 2.31835,0.740092 3.8863,2.906358 3.8863,5.36166 v 65.172015 c 0.0118,3.09938 -2.47732,5.61868 -5.53719,5.61868 z"
   id="path2"
   style="stroke:#000000;stroke-width:1.49059;stroke-dasharray:none;stroke-opacity:1" />
</svg>
