<?xml version="1.0" encoding="utf-8"?>
<!-- Generator: Adobe Illustrator 16.0.0, SVG Export Plug-In . SVG Version: 6.00 Build 0)  -->
<!DOCTYPE svg PUBLIC "-//W3C//DTD SVG 1.1//EN" "http://www.w3.org/Graphics/SVG/1.1/DTD/svg11.dtd">
<svg version="1.1" id="_x35_0m" xmlns="http://www.w3.org/2000/svg" xmlns:xlink="http://www.w3.org/1999/xlink" x="0px" y="0px"
	   viewBox="0 0 144 144" enable-background="new 0 0 144 144" xml:space="preserve" width="40" height="40">
<g>
	<g id="XMLID_78_">
		<g id="XMLID_79_">
			<path id="XMLID_80_" fill="#EAB520" d="M112.213,79.682c-6.363,3.899-28.939,8.518-52.029,7.389
				c-34.583-1.643-77.068-4.926-53.26-11.904c0.103,0,0.205-0.103,0.205-0.103c2.052-0.719,29.658-10.98,44.435-19.703
				c0.308-0.206,0.718-0.308,1.026-0.41c1.129-0.309,2.257-0.205,3.284,0.41c7.696,4.208,33.659,17.753,51.516,19.806
				C114.574,75.884,115.395,77.731,112.213,79.682z"/>
		</g>
		<g id="XMLID_81_" opacity="0.6">
			<path id="XMLID_82_" fill="#BD8E2D" d="M112.213,79.682c-4.104,0.308-8.209,0.411-12.417,0.411
				c-13.648,0-27.195-0.617-40.74-2.053c-1.231-0.104-5.028-0.514-3.592-2.771c0.308-0.513,0.821-0.82,1.334-1.129
				c1.95-1.026,3.796-1.437,5.849-2.053c1.026-0.308,7.081-1.334,5.028-3.592c-0.308-0.308-0.718-0.513-1.026-0.718
				c-0.41-0.205-0.718-0.41-1.128-0.513c-0.821-0.411-1.745-0.719-2.565-1.231c-1.95-1.13-3.797-2.669-5.439-4.413
				c-1.847-1.95-3.591-4.208-4.823-6.67c1.128-0.309,2.257-0.205,3.284,0.41c7.696,4.208,33.66,17.753,51.515,19.806
				C114.574,75.884,115.395,77.731,112.213,79.682z"/>
		</g>
	</g>
	<g id="XMLID_83_">
		<g id="XMLID_84_">
			<path id="XMLID_85_" fill="#EAB520" d="M104.312,89.532c-16.521,0-62.291-1.025-43.306-10.466c0,0,22.884-10.468,35.404-19.396
				c0.411-0.308,0.821-0.41,1.333-0.513c0.513,0,1.026,0.103,1.54,0.513c4.002,2.874,15.906,10.878,28.119,15.291
				c4.002,1.437,8.004,2.463,11.801,2.771C156.956,79.066,120.936,89.532,104.312,89.532z"/>
		</g>
		<g id="XMLID_86_" opacity="0.6">
			<path id="XMLID_87_" fill="#BD8E2D" d="M127.299,74.858c-1.745,0.205-3.592,0.205-5.336,0.205
				c-6.978-0.103-13.854-0.103-20.832-0.205c-2.361,0-4.927-0.103-6.876-1.848c-0.719-0.615-1.231-1.437-1.437-2.463
				c-0.206-1.129,0.206-2.257,0.616-3.283c1.128-2.669,2.462-5.028,3.899-7.492c0.102-0.204,0.206-0.41,0.308-0.615
				c0.513,0,1.026,0.103,1.54,0.513C103.183,62.441,115.087,70.548,127.299,74.858z"/>
		</g>
	</g>
</g>
</svg>
