<?xml version="1.0" encoding="utf-8"?>
<!-- Generator: Adobe Illustrator 16.0.0, SVG Export Plug-In . SVG Version: 6.00 Build 0)  -->
<!DOCTYPE svg PUBLIC "-//W3C//DTD SVG 1.1//EN" "http://www.w3.org/Graphics/SVG/1.1/DTD/svg11.dtd">
<svg version="1.1" id="Layer_1" xmlns="http://www.w3.org/2000/svg" xmlns:xlink="http://www.w3.org/1999/xlink" x="0px" y="0px"
	   viewBox="0 0 144 144" enable-background="new 0 0 144 144" xml:space="preserve" width="40" height="40">
<g>
	<path d="M24.51,47.491C10.973,47.491,0,58.464,0,72s10.973,24.509,24.51,24.509c13.535,0,24.508-10.974,24.508-24.509
		S38.045,47.491,24.51,47.491z M24.51,89.862c-9.866,0-17.863-7.998-17.863-17.862s7.997-17.861,17.863-17.861
		c9.864,0,17.86,7.997,17.86,17.861S34.374,89.862,24.51,89.862z"/>
	<path d="M119.492,47.491c-13.536,0-24.509,10.974-24.509,24.509s10.973,24.509,24.509,24.509S144,85.535,144,72
		S133.028,47.491,119.492,47.491z M119.492,89.862c-9.865,0-17.862-7.998-17.862-17.862s7.997-17.861,17.862-17.861
		S137.354,62.135,137.354,72S129.357,89.862,119.492,89.862z"/>
</g>
</svg>
