<?xml version="1.0" encoding="utf-8"?>
<!-- Generator: Adobe Illustrator 16.0.0, SVG Export Plug-In . SVG Version: 6.00 Build 0)  -->
<!DOCTYPE svg PUBLIC "-//W3C//DTD SVG 1.1//EN" "http://www.w3.org/Graphics/SVG/1.1/DTD/svg11.dtd">
<svg version="1.1" id="_x35_0m" xmlns="http://www.w3.org/2000/svg" xmlns:xlink="http://www.w3.org/1999/xlink" x="0px" y="0px"
	   viewBox="0 0 144 144" enable-background="new 0 0 144 144" xml:space="preserve"   width="40" height="40">
<g>
	<path fill="#010101" d="M111.934,85.832c0,2,0.108,3.8,0.431,5.5c0.322,1.7,0.753,3,1.399,4.101c0.753,1.1,1.614,2,2.905,2.6
		c1.292,0.6,2.69,1,4.52,1c2.152,0,4.089-0.9,5.703-2.6c1.721-1.7,2.582-4.4,2.582-8c0-1.9-0.214-3.601-0.646-5
		c-0.431-1.4-1.076-2.7-2.045-3.801c-0.967-1.1-2.259-2.1-3.766-3.1c-1.614-0.9-3.551-1.9-5.81-2.8c-3.121-1.3-5.703-2.7-7.963-4.2
		c-2.259-1.5-4.089-3.3-5.596-5.3c-1.506-2-2.582-4.4-3.335-7.1c-0.753-2.701-1.076-5.801-1.076-9.301c0-8.5,1.937-14.8,5.703-19
		c3.766-4.199,9.039-6.199,15.603-6.199c3.121,0,5.918,0.399,8.501,1.299c2.582,0.801,4.842,2.201,6.779,4.101
		c1.937,1.899,3.335,4.3,4.412,7.2c1.076,2.9,1.614,6.4,1.614,10.5v2.4h-13.343c0-4.101-0.538-7.201-1.723-9.4
		c-1.183-2.2-3.12-3.301-5.81-3.301c-1.507,0-2.798,0.301-3.875,0.801s-1.828,1.3-2.475,2.199c-0.646,0.9-1.076,2-1.292,3.201
		c-0.215,1.199-0.323,2.399-0.323,3.699c0,2.6,0.431,4.9,1.398,6.7c0.862,1.8,2.799,3.5,5.812,5l10.761,5.8
		c2.583,1.4,4.735,2.9,6.456,4.5c1.722,1.6,3.013,3.2,3.982,5c0.967,1.8,1.721,3.8,2.043,5.9c0.431,2.2,0.538,4.6,0.538,7.2
		c0,9-2.152,15.6-6.349,19.699c-4.197,4.101-10.115,6.2-17.647,6.2c-7.855,0-13.451-2.1-16.895-6.399
		c-3.442-4.301-5.057-10.301-5.057-18.2v-3.5h13.881V85.832L111.934,85.832z"/>
	<path fill="#010101" d="M14.129,69.43h0.229l14.358-25.09h15.622L28.372,70.887l18.378,40.706H31.014L19.183,84.004l-5.054,8.017
		v19.572H0V22.372h14.243V69.43H14.129z"/>
	<path fill="#010101" d="M64.555,42.965v7.079h0.229c1.609-3.123,3.332-5.413,5.285-6.768c1.952-1.353,4.364-2.082,7.236-2.082
		c5.858,0,10.108,2.812,12.865,8.329c2.756,5.519,4.135,14.575,4.135,27.067c0,12.493-1.378,21.447-4.135,26.86
		c-2.757,5.413-7.007,8.121-12.865,8.121c-2.641,0-4.939-0.626-6.892-1.771c-1.953-1.249-3.561-3.123-5.055-5.83h-0.229v27.901H51
		V42.965H64.555z M66.507,93.145c0.919,3.748,2.987,5.518,6.087,5.518c3.102,0,5.055-1.874,5.973-5.518s1.379-9.266,1.379-16.554
		c0-7.287-0.46-12.805-1.379-16.553s-2.986-5.517-5.973-5.517c-3.216,0-5.168,1.872-6.087,5.517
		c-0.919,3.748-1.378,9.266-1.378,16.553C65.128,83.879,65.588,89.396,66.507,93.145z"/>
</g>
</svg>
