<?xml version="1.0" encoding="utf-8"?>
<!-- Generator: Adobe Illustrator 16.0.0, SVG Export Plug-In . SVG Version: 6.00 Build 0)  -->
<!DOCTYPE svg PUBLIC "-//W3C//DTD SVG 1.1//EN" "http://www.w3.org/Graphics/SVG/1.1/DTD/svg11.dtd">
<svg version="1.1" id="_x35_0m" xmlns="http://www.w3.org/2000/svg" xmlns:xlink="http://www.w3.org/1999/xlink" x="0px" y="0px"
	   viewBox="0 0 144 144" enable-background="new 0 0 144 144" xml:space="preserve" width="40" height="40">
<path fill="#010101" d="M64.537,42.965v7.079h0.229c1.608-3.123,3.331-5.413,5.283-6.768c1.951-1.353,4.363-2.082,7.234-2.082
	c5.856,0,10.105,2.812,12.862,8.329c2.755,5.519,4.133,14.575,4.133,27.067c0,12.493-1.378,21.447-4.133,26.86
	c-2.756,5.413-7.005,8.121-12.862,8.121c-2.641,0-4.938-0.626-6.89-1.771c-1.953-1.249-3.56-3.123-5.053-5.83H65.11v27.901H50.986
	V42.965H64.537z M66.488,93.145c0.919,3.748,2.986,5.518,6.086,5.518c3.101,0,5.053-1.874,5.971-5.518
	c0.918-3.644,1.378-9.266,1.378-16.554c0-7.287-0.46-12.805-1.378-16.553c-0.918-3.748-2.985-5.517-5.971-5.517
	c-3.215,0-5.167,1.872-6.086,5.517c-0.918,3.748-1.378,9.266-1.378,16.553C65.11,83.879,65.57,89.396,66.488,93.145z"/>
<g>
	<path fill="#010101" d="M14.125,69.43h0.229l14.354-25.09h15.617L28.364,70.887l18.373,40.706H31.005L19.178,84.004l-5.053,8.017
		v19.572H0V22.372h14.239V69.43H14.125z"/>
	<path fill="#010101" d="M102.891,22.372h14.813v74.438H144v14.782h-41.109V22.372z"/>
	<path fill="#010101" d="M64.537,42.965v7.079h0.229c1.608-3.123,3.331-5.413,5.283-6.768c1.951-1.353,4.363-2.082,7.234-2.082
		c5.856,0,10.105,2.812,12.862,8.329c2.755,5.519,4.133,14.575,4.133,27.067c0,12.493-1.378,21.447-4.133,26.86
		c-2.756,5.413-7.005,8.121-12.862,8.121c-2.641,0-4.938-0.626-6.89-1.771c-1.953-1.249-3.56-3.123-5.053-5.83H65.11v27.901H50.986
		V42.965H64.537z M66.488,93.145c0.919,3.748,2.986,5.518,6.086,5.518c3.101,0,5.053-1.874,5.971-5.518
		c0.918-3.644,1.378-9.266,1.378-16.554c0-7.287-0.46-12.805-1.378-16.553c-0.918-3.748-2.985-5.517-5.971-5.517
		c-3.215,0-5.167,1.872-6.086,5.517c-0.918,3.748-1.378,9.266-1.378,16.553C65.11,83.879,65.57,89.396,66.488,93.145z"/>
</g>
</svg>
