<?xml version="1.0" encoding="utf-8"?>
<!-- Generator: Adobe Illustrator 16.0.0, SVG Export Plug-In . SVG Version: 6.00 Build 0)  -->
<!DOCTYPE svg PUBLIC "-//W3C//DTD SVG 1.1//EN" "http://www.w3.org/Graphics/SVG/1.1/DTD/svg11.dtd">
<svg version="1.1" id="_x35_0m" xmlns="http://www.w3.org/2000/svg" xmlns:xlink="http://www.w3.org/1999/xlink" x="0px" y="0px"
	   viewBox="0 0 144 144" enable-background="new 0 0 144 144" xml:space="preserve"   width="40" height="40">
<g>
	<path fill="#010101" d="M122.778,22.372c5.847,0,10.395,1.875,13.643,5.726c3.248,3.854,4.873,9.579,4.873,17.283
		c0,6.038-0.975,10.931-2.816,14.68c-1.84,3.747-4.763,6.246-8.77,7.287v0.208c3.465,0.624,6.063,2.082,7.687,4.372
		c1.624,2.291,2.599,5.83,3.032,10.828c0.108,1.665,0.216,3.436,0.325,5.413c0.108,1.979,0.108,4.164,0.217,6.56
		c0.108,4.788,0.325,8.328,0.541,10.826c0.433,2.499,1.191,4.164,2.49,5.102v0.729h-15.158c-0.758-1.25-1.192-2.708-1.408-4.27
		c-0.216-1.562-0.325-3.332-0.433-5.101l-0.434-17.074c-0.108-3.54-0.866-6.246-2.057-8.225c-1.191-1.978-3.357-3.019-6.171-3.019
		h-7.471v37.688H97.01V22.372H122.778z M116.823,61.309c3.357,0,5.955-1.041,7.796-3.02c1.841-2.082,2.707-5.517,2.707-10.306
		c0-8.224-3.248-12.389-9.744-12.389h-6.604v25.714H116.823z"/>
	<path fill="#010101" d="M64.537,42.965v7.079h0.229c1.608-3.123,3.331-5.413,5.283-6.768c1.951-1.353,4.363-2.082,7.234-2.082
		c5.856,0,10.105,2.812,12.862,8.329c2.755,5.519,4.133,14.575,4.133,27.067c0,12.493-1.378,21.447-4.133,26.86
		c-2.756,5.413-7.005,8.121-12.862,8.121c-2.641,0-4.938-0.626-6.89-1.771c-1.953-1.249-3.56-3.123-5.053-5.83H65.11v27.901H50.986
		V42.965H64.537z M66.488,93.145c0.919,3.748,2.986,5.518,6.086,5.518c3.101,0,5.053-1.874,5.971-5.518
		c0.918-3.644,1.378-9.266,1.378-16.554c0-7.287-0.46-12.805-1.378-16.553c-0.918-3.748-2.985-5.517-5.971-5.517
		c-3.215,0-5.167,1.872-6.086,5.517c-0.918,3.748-1.378,9.266-1.378,16.553C65.11,83.879,65.57,89.396,66.488,93.145z"/>
	<path fill="#010101" d="M14.125,69.43h0.229l14.354-25.09h15.617L28.364,70.887l18.373,40.706H31.005L19.178,84.004l-5.053,8.017
		v19.572H0V22.372h14.239V69.43H14.125z"/>
</g>
</svg>
