<?xml version="1.0" encoding="utf-8"?>
<!-- Generator: Adobe Illustrator 16.0.0, SVG Export Plug-In . SVG Version: 6.00 Build 0)  -->
<!DOCTYPE svg PUBLIC "-//W3C//DTD SVG 1.1//EN" "http://www.w3.org/Graphics/SVG/1.1/DTD/svg11.dtd">
<svg version="1.1" id="_x35_0m" xmlns="http://www.w3.org/2000/svg" xmlns:xlink="http://www.w3.org/1999/xlink" x="0px" y="0px"
	   viewBox="0 0 144 144" enable-background="new 0 0 144 144" xml:space="preserve"   width="40" height="40">
<g>
	<path fill="#010101" d="M0,22.404h15.638V96.81H43.41v14.776H0V22.404z"/>
	<path fill="#010101" d="M86.004,22.328l-24.623,89.258H49.596l24.272-89.258H86.004z"/>
	<path fill="#010101" d="M120.078,22.404c6.535,0,11.553,1.878,15.288,5.736c3.616,3.756,5.484,9.598,5.484,17.315
		c0,6.05-1.051,10.952-3.151,14.708c-2.1,3.754-5.368,6.258-9.803,7.301v0.208c3.969,0.625,6.769,2.086,8.637,4.381
		c1.866,2.295,2.917,5.841,3.383,10.849c0.117,1.668,0.233,3.441,0.352,5.423c0.116,1.982,0.116,4.172,0.232,6.572
		c0.117,4.797,0.351,8.344,0.7,10.847c0.467,2.504,1.401,4.172,2.8,5.111v0.73h-16.92c-0.816-1.252-1.283-2.713-1.517-4.277
		c-0.234-1.668-0.351-3.338-0.467-5.11l-0.467-17.106c-0.116-3.547-0.934-6.258-2.334-8.24c-1.4-1.981-3.734-3.024-7.002-3.024
		h-8.402v37.759H91.139V22.404H120.078z M113.311,61.415c3.734,0,6.651-1.043,8.752-3.025c2.1-1.981,3.034-5.527,3.034-10.326
		c0-8.239-3.618-12.411-10.854-12.411h-7.352v25.763C106.775,61.415,113.311,61.415,113.311,61.415z"/>
</g>
</svg>
