<?xml version="1.0" encoding="utf-8"?>
<!-- Generator: Adobe Illustrator 16.0.0, SVG Export Plug-In . SVG Version: 6.00 Build 0)  -->
<!DOCTYPE svg PUBLIC "-//W3C//DTD SVG 1.1//EN" "http://www.w3.org/Graphics/SVG/1.1/DTD/svg11.dtd">
<svg version="1.1" id="_x35_0m" xmlns="http://www.w3.org/2000/svg" xmlns:xlink="http://www.w3.org/1999/xlink" x="0px" y="0px"
	   viewBox="0 0 144 144" enable-background="new 0 0 144 144" xml:space="preserve" width="40" height="40">
<g>
	<path fill="#010101" d="M1.08,59.679c0.755-4.533,1.835-8.419,3.454-11.442c1.619-3.022,3.67-5.397,6.368-7.017
		c2.591-1.619,5.829-2.375,9.607-2.375c3.994-0.107,7.34,0.648,9.931,2.159c2.699,1.512,4.75,3.778,6.262,6.908
		c1.511,3.131,2.698,6.909,3.238,11.551c0.539,4.642,1.079,9.823,1.079,15.977c0,5.937-0.324,11.226-1.079,15.759
		c-0.756,4.534-1.835,8.421-3.454,11.443c-1.62,3.022-3.779,5.289-6.369,6.8c-2.591,1.512-5.829,2.159-9.607,2.159
		c-3.994,0.108-7.34-0.54-9.931-2.051c-2.591-1.512-4.75-3.671-6.262-6.693c-1.511-3.022-2.591-6.908-3.346-11.55
		C0.216,86.665,0,81.484,0,75.439C0,69.501,0.324,64.213,1.08,59.679z M13.602,85.262c0.107,3.022,0.432,5.613,0.972,7.772
		c0.539,2.158,1.187,3.886,2.158,5.073s2.267,1.835,3.887,1.835c2.698,0,4.533-1.942,5.612-5.722
		c1.08-3.777,1.512-10.039,1.512-18.781c0-8.744-0.54-15.005-1.512-18.783c-1.079-3.778-2.914-5.722-5.612-5.722
		c-1.62,0-2.915,0.648-3.887,1.836c-0.972,1.187-1.727,2.914-2.158,5.073c-0.54,2.158-0.757,4.749-0.972,7.771
		c-0.108,3.022-0.217,6.262-0.217,9.824C13.385,79,13.493,82.239,13.602,85.262z"/>
	<path fill="#010101" d="M60.989,41.732v8.204h0.216c1.403-3.454,3.238-5.938,5.506-7.557c2.267-1.619,4.856-2.375,7.772-2.375
		c4.209,0,7.556,1.512,9.822,4.642c2.268,3.131,3.454,8.205,3.454,15.113v51.705H74.375V63.43c0-3.67-0.432-6.153-1.403-7.556
		c-0.864-1.404-2.375-2.16-4.318-2.16c-4.749,0-7.017,3.887-7.017,11.551v46.2H48.252V41.732H60.989z"/>
	<path fill="#010101" d="M122.843,19.171c5.829,0,10.362,1.942,13.602,5.937c3.237,3.887,4.856,9.932,4.856,17.92
		c0,6.26-0.971,11.333-2.806,15.22c-1.836,3.887-4.75,6.478-8.744,7.557v0.216c3.454,0.647,6.045,2.159,7.665,4.533
		c1.618,2.375,2.59,6.045,3.021,11.227c0.107,1.727,0.216,3.563,0.324,5.613c0.107,2.05,0.107,4.317,0.216,6.8
		c0.107,4.966,0.323,8.637,0.54,11.228c0.432,2.591,1.187,4.317,2.482,5.288v0.757h-15.112c-0.756-1.296-1.188-2.808-1.404-4.426
		c-0.215-1.619-0.323-3.455-0.432-5.29l-0.432-17.703c-0.107-3.671-0.863-6.477-2.051-8.527c-1.187-2.052-3.346-3.131-6.153-3.131
		h-7.447v39.077H97.044V19.171H122.843z M116.798,59.543c3.346,0,5.937-1.08,7.771-3.131c1.836-2.159,2.699-5.722,2.699-10.687
		c0-8.528-3.239-12.846-9.716-12.846h-6.584v26.663H116.798z"/>
</g>
</svg>
