<?xml version="1.0" encoding="utf-8"?>
<!-- Generator: Adobe Illustrator 16.0.0, SVG Export Plug-In . SVG Version: 6.00 Build 0)  -->
<!DOCTYPE svg PUBLIC "-//W3C//DTD SVG 1.1//EN" "http://www.w3.org/Graphics/SVG/1.1/DTD/svg11.dtd">
<svg version="1.1" id="_x35_0m" xmlns="http://www.w3.org/2000/svg" xmlns:xlink="http://www.w3.org/1999/xlink" x="0px" y="0px"
	   viewBox="0 0 144 144" enable-background="new 0 0 144 144" xml:space="preserve" width="40" height="40">
<g>
	<path fill="#010101" d="M107.957,17.995c0.505,0.91,0.91,2.022,1.617,2.832c10.518,12.034,21.138,23.969,31.555,36.003
		c1.112,1.214,2.022,3.135,2.022,4.753c0.404,14.159,1.011,28.317,0.81,42.476c-0.102,5.36-2.023,10.821-3.237,16.182
		c-0.303,1.214-1.01,2.629-2.021,3.236c-5.563,3.338-11.833,4.449-17.901,2.428c-5.563-1.922-6.573-7.282-6.776-12.44
		c-0.203-6.37,0.101-12.742-0.102-19.113c-0.202-9.507-5.461-15.777-14.057-16.99c0,17.293,0,34.486,0,52.387
		c2.326,0,4.652,0.101,6.978,0c2.832-0.102,4.146,1.011,4.146,3.943c0.102,7.484,0.203,7.484-7.382,7.484
		c-32.868,0-65.837,0-98.706-0.101c-1.617,0-4.55-0.91-4.753-1.72c-0.404-2.832,0.101-5.865,0.505-8.697
		c0.102-0.404,1.922-0.81,2.832-0.81c2.225-0.101,4.551,0,7.483,0c0-1.517,0-2.933,0-4.248c0-38.936,0-77.871,0-116.808
		c0-5.663,0.304-5.967,5.866-5.967c25.789,0,51.679,0,77.468,0c4.955,0,5.359,0.404,5.359,5.359c0,19.115,0,38.229,0,57.343
		c0,1.314,0,2.629,0,4.146c1.214,0.303,2.326,0.607,3.54,0.91c9.405,1.922,15.776,9.608,15.776,19.113c0,7.08,0,14.159,0,21.238
		c0.102,6.068,2.731,9.507,7.08,9.507c5.765,0,10.417-4.248,10.417-9.709c0.102-12.641,0-25.182-0.1-37.823
		c0-0.91-0.506-2.326-1.214-2.629c-6.876-3.035-10.618-8.9-12.034-15.676c-2.125-10.013-8.395-17.598-13.553-25.891
		c-1.213-1.921-2.326-3.944-3.135-6.068c-0.404-1.011,0.102-2.325,0.102-3.438C106.945,18.602,107.451,18.299,107.957,17.995z"/>
	<path fill="#FFFFFF" d="M55.266,8.994c-11.023,0-22.148,0-33.171,0c-4.046,0-4.855,0.81-4.855,4.854
		c0,16.282,0.102,32.464-0.101,48.645c0,3.54,1.416,4.652,4.753,4.652c21.845-0.102,43.69,0,65.635,0
		c4.551,0,5.46-1.012,5.562-5.563c0-15.877,0-31.756,0-47.634c0-4.449-0.606-5.056-4.955-5.056
		C77.11,8.994,66.188,8.994,55.266,8.994z"/>
</g>
</svg>
