<?xml version="1.0" encoding="utf-8"?>
<!-- Generator: Adobe Illustrator 16.0.0, SVG Export Plug-In . SVG Version: 6.00 Build 0)  -->
<!DOCTYPE svg PUBLIC "-//W3C//DTD SVG 1.1//EN" "http://www.w3.org/Graphics/SVG/1.1/DTD/svg11.dtd">
<svg version="1.1" id="_x35_0m" xmlns="http://www.w3.org/2000/svg" xmlns:xlink="http://www.w3.org/1999/xlink" x="0px" y="0px"
	   viewBox="0 0 144 144" enable-background="new 0 0 144 144" xml:space="preserve" width="40" height="40">
<g>
	<path fill="#010101" d="M29.698,22.384c6.739,0,11.98,1.873,15.723,5.723c3.743,3.852,5.615,9.574,5.615,17.277
		c0,6.035-1.124,10.926-3.245,14.673c-2.12,3.747-5.49,6.245-10.107,7.284v0.209c3.994,0.625,6.988,2.082,8.859,4.371
		c1.872,2.29,2.996,5.828,3.494,10.824c0.125,1.664,0.25,3.435,0.375,5.411c0.125,1.977,0.125,4.162,0.249,6.557
		c0.125,4.786,0.375,8.325,0.625,10.823c0.499,2.497,1.373,4.162,2.87,5.099v0.729h-17.47c-0.873-1.249-1.373-2.706-1.622-4.266
		c-0.25-1.666-0.375-3.331-0.5-5.101L34.066,84.93c-0.125-3.539-0.998-6.244-2.371-8.222c-1.373-1.977-3.744-3.018-7.113-3.018
		h-8.61v37.673H0V22.384H29.698z M22.835,61.306c3.868,0,6.863-1.041,8.984-3.019c2.121-2.081,3.119-5.516,3.119-10.303
		c0-8.222-3.742-12.384-11.23-12.384h-7.612v25.705H22.835z"/>
	<path fill="#010101" d="M94.087,22.384L68.755,111.46H56.526l24.957-89.076C81.608,22.384,94.087,22.384,94.087,22.384z"/>
	<path fill="#010101" d="M99.328,22.384h16.096v74.41H144v14.777H99.328V22.384z"/>
</g>
</svg>
