<?xml version="1.0" encoding="UTF-8" standalone="no"?>
<!-- Generator: Adobe Illustrator 16.0.0, SVG Export Plug-In . SVG Version: 6.00 Build 0)  -->

<svg
   version="1.1"
   id="_x35_0m"
   x="0px"
   y="0px"
   
   
   viewBox="0 0 144 144"
   enable-background="new 0 0 144 144"
   xml:space="preserve"
   sodipodi:docname="stop.svg"
   inkscape:version="1.2.1 (9c6d41e410, 2022-07-14)"
   xmlns:inkscape="http://www.inkscape.org/namespaces/inkscape"
   xmlns:sodipodi="http://sodipodi.sourceforge.net/DTD/sodipodi-0.dtd"
   xmlns="http://www.w3.org/2000/svg"
   xmlns:svg="http://www.w3.org/2000/svg" width="40" height="40"><defs
   id="defs662" /><sodipodi:namedview
   id="namedview660"
   pagecolor="#ffffff"
   bordercolor="#000000"
   borderopacity="0.25"
   inkscape:showpageshadow="2"
   inkscape:pageopacity="0.0"
   inkscape:pagecheckerboard="0"
   inkscape:deskcolor="#d1d1d1"
   showgrid="false"
   inkscape:zoom="5.4722222"
   inkscape:cx="54.639594"
   inkscape:cy="72"
   inkscape:window-width="1920"
   inkscape:window-height="986"
   inkscape:window-x="-11"
   inkscape:window-y="-11"
   inkscape:window-maximized="1"
   inkscape:current-layer="_x35_0m" />
<g
   id="g657">
	<circle
   fill="#EC2227"
   cx="71.999"
   cy="72"
   r="67.583"
   id="circle643" />
	<path
   fill="#010101"
   d="M71.999,143.454c-9.627,0-19.055-1.886-27.787-5.656c-8.535-3.573-16.178-8.734-22.727-15.283   c-6.551-6.551-11.711-14.191-15.283-22.727C2.431,91.054,0.546,81.626,0.546,72s1.885-19.054,5.656-27.788   c3.572-8.534,8.732-16.176,15.283-22.727c6.549-6.549,14.191-11.71,22.727-15.283c8.732-3.771,18.16-5.656,27.787-5.656   s19.055,1.886,27.787,5.656c8.535,3.573,16.178,8.734,22.727,15.283c6.551,6.551,11.711,14.192,15.283,22.727   c3.771,8.832,5.658,18.162,5.658,27.788s-1.887,19.054-5.658,27.788c-3.572,8.535-8.732,16.176-15.283,22.727   c-6.549,6.549-14.191,11.71-22.727,15.283C91.054,141.568,81.626,143.454,71.999,143.454z M71.999,10.768   c-16.375,0-31.758,6.353-43.369,17.964C17.019,40.342,10.767,55.625,10.767,72s6.352,31.758,17.963,43.369   c11.611,11.61,26.994,17.962,43.369,17.962s31.756-6.352,43.369-17.962c11.611-11.611,17.963-26.994,17.963-43.271   c0-16.275-6.352-31.757-17.963-43.367C103.854,17.12,88.374,10.768,71.999,10.768z"
   id="path645" />
	<g
   id="g655"
   transform="translate(0.895,2.6795)">
		<path
   fill="#010101"
   d="m 27.935,80.038 c 1.49,0 2.68,-0.198 3.674,-0.496 1.688,-0.695 2.68,-1.785 2.68,-3.572 0,-0.992 -0.398,-1.787 -1.291,-2.283 -0.893,-0.495 -2.283,-0.992 -4.168,-1.39 l -3.176,-0.694 c -3.176,-0.694 -5.359,-1.488 -6.551,-2.282 -2.084,-1.39 -3.076,-3.572 -3.076,-6.55 0,-2.779 0.992,-4.962 2.979,-6.748 1.984,-1.787 4.861,-2.68 8.732,-2.68 3.176,0 5.955,0.893 8.236,2.58 2.283,1.687 3.475,4.168 3.572,7.443 h -6.25 c -0.1,-1.786 -0.895,-3.176 -2.383,-3.871 -0.992,-0.496 -2.184,-0.793 -3.672,-0.793 -1.588,0 -2.979,0.297 -3.971,0.992 -0.992,0.693 -1.488,1.587 -1.488,2.779 0,1.091 0.496,1.885 1.488,2.48 0.596,0.396 1.986,0.794 3.971,1.29 l 5.26,1.29 c 2.283,0.596 4.068,1.29 5.16,2.184 1.787,1.389 2.779,3.474 2.779,6.252 0,2.779 -1.092,5.062 -3.176,6.947 -2.084,1.786 -5.16,2.779 -9.031,2.779 -3.971,0 -7.047,-0.894 -9.328,-2.681 -2.283,-1.786 -3.375,-4.267 -3.375,-7.443 h 6.055 c 0.197,1.39 0.596,2.382 1.092,3.077 0.992,0.794 2.679,1.39 5.258,1.39 z"
   id="path647" />
		<path
   fill="#010101"
   d="m 67.235,53.938 v 5.36 H 58.104 V 84.405 H 51.655 V 59.396 h -9.131 v -5.359 h 24.711 z"
   id="path649" />
		<path
   fill="#010101"
   d="m 83.71,85.298 c -4.367,0 -7.643,-1.19 -10.023,-3.572 -3.076,-2.879 -4.664,-7.145 -4.664,-12.604 0,-5.558 1.588,-9.726 4.664,-12.604 2.283,-2.382 5.656,-3.572 10.023,-3.572 4.365,0 7.641,1.19 10.023,3.572 3.076,2.779 4.564,6.947 4.564,12.604 0,5.459 -1.588,9.627 -4.564,12.604 -2.382,2.381 -5.658,3.572 -10.023,3.572 z m 5.955,-8.236 c 1.488,-1.887 2.182,-4.466 2.182,-7.939 0,-3.374 -0.793,-6.054 -2.182,-7.939 -1.49,-1.885 -3.475,-2.779 -6.055,-2.779 -2.58,0 -4.564,0.895 -6.055,2.779 -1.488,1.886 -2.281,4.466 -2.281,7.939 0,3.473 0.793,6.053 2.281,7.939 1.49,1.885 3.475,2.778 6.055,2.778 2.58,0 4.565,-0.894 6.055,-2.778 z"
   id="path651" />
		<path
   fill="#010101"
   d="m 116.063,73.489 h -6.451 V 84.405 H 103.26 V 53.938 h 13.299 c 3.076,0 5.457,0.794 7.344,2.382 1.785,1.589 2.777,3.971 2.777,7.245 0,3.573 -0.893,6.153 -2.777,7.642 -1.886,1.487 -4.466,2.282 -7.84,2.282 z m 2.977,-6.351 c 0.793,-0.695 1.191,-1.886 1.191,-3.475 0,-1.587 -0.398,-2.679 -1.291,-3.373 -0.793,-0.695 -1.984,-0.992 -3.473,-0.992 h -5.955 v 8.932 h 5.955 c 1.589,-0.001 2.778,-0.399 3.573,-1.092 z"
   id="path653" />
	</g>
</g>
</svg>
