<?xml version="1.0" encoding="utf-8"?>
<!-- Generator: Adobe Illustrator 16.0.0, SVG Export Plug-In . SVG Version: 6.00 Build 0)  -->
<!DOCTYPE svg PUBLIC "-//W3C//DTD SVG 1.1//EN" "http://www.w3.org/Graphics/SVG/1.1/DTD/svg11.dtd">
<svg version="1.1" id="_x35_0m" xmlns="http://www.w3.org/2000/svg" xmlns:xlink="http://www.w3.org/1999/xlink" x="0px" y="0px"
	   viewBox="0 0 144 144" enable-background="new 0 0 144 144" xml:space="preserve" width="40" height="40">
<g>
	<circle fill="#EC2227" cx="72" cy="72.157" r="68.101"/>
	<path fill="#010101" d="M72,144.158c-9.7,0-19.2-1.9-28-5.701c-8.601-3.6-16.3-8.799-22.899-15.4
		c-6.601-6.6-11.801-14.299-15.4-22.898c-3.8-8.801-5.7-18.301-5.7-28c0-9.701,1.9-19.201,5.7-28c3.6-8.6,8.8-16.301,15.4-22.9
		c6.6-6.6,14.299-11.801,22.899-15.4c8.8-3.799,18.3-5.699,28-5.699s19.2,1.9,28,5.699c8.6,3.6,16.3,8.801,22.9,15.4
		c6.6,6.6,11.8,14.301,15.399,22.9c3.801,8.898,5.7,18.299,5.7,28c0,9.699-1.899,19.199-5.7,28c-3.6,8.6-8.8,16.299-15.399,22.898
		c-6.601,6.602-14.301,11.801-22.9,15.4C91.2,142.258,81.7,144.158,72,144.158z M72,10.457c-16.5,0-32,6.4-43.7,18.102
		c-11.7,11.699-18,27.1-18,43.6s6.4,32,18.1,43.699c11.7,11.699,27.2,18.1,43.7,18.1s32-6.4,43.7-18.1s18.1-27.199,18.1-43.6
		s-6.399-32-18.1-43.699C104.1,16.857,88.5,10.457,72,10.457z"/>
	<path fill="#010101" d="M120.2,90.357c-2.101-5.4-4.3-10.801-6.4-16.1c-5.399-13.6-10.801-27.1-16.1-40.699
		c-0.7-1.701-1.601-2.502-3.501-2.301c-1.8,0.199-3.699,0.299-5.499,0.5c-5.101,0.4-10.1,1.301-14.7,3.6
		c-4.9,1.701-9.3,4.1-13.601,7c-4.299,2.199-8.199,5-12.3,7.4c-0.3,0.199-0.399,0.5-0.6,0.801c-0.4,0.1-0.8,0.1-1.2,0.299
		c-4,2.4-8.2,4.5-12.5,6.4c-4,1.5-8.1,2.6-12.4,3.199c-1.399,0.201-2.099,0.9-1.6,2.201c1.6,4,2.899,8.199,5,12
		c1.4,4.898,3.6,9.498,5.399,14.199c1.601,4.1,3.201,8.201,4.801,12.301c0.399,1.1,1,1.799,2.199,1.6
		c4.601-0.6,9.101-1.4,13.301-3.5c4.8-1.699,9.4-4,13.5-7.102c4.6-2.199,8.699-5.1,12.899-7.799c4.501-2.301,9.101-4.699,13.601-7
		c4.8-1.6,9.601-3,14.7-3.301c2.6,6.4,5.2,12.9,7.8,19.301c1,2.5,2.6,3.199,5,2.199C120.5,94.457,121.199,92.857,120.2,90.357z"/>
</g>
</svg>
