<?xml version="1.0" encoding="utf-8"?>
<!-- Generator: Adobe Illustrator 16.0.0, SVG Export Plug-In . SVG Version: 6.00 Build 0)  -->
<!DOCTYPE svg PUBLIC "-//W3C//DTD SVG 1.1//EN" "http://www.w3.org/Graphics/SVG/1.1/DTD/svg11.dtd">
<svg version="1.1" id="Layer_1" xmlns="http://www.w3.org/2000/svg" xmlns:xlink="http://www.w3.org/1999/xlink" x="0px" y="0px"
	   viewBox="0 0 144 144" enable-background="new 0 0 144 144" xml:space="preserve" width="40" height="40">
<g>
	<path d="M72,0C32.235,0,0,32.233,0,72s32.235,72,72,72c39.762,0,72-32.233,72-72S111.762,0,72,0z M14.958,72
		c0-31.909,25.727-57.779,57.564-58.06c31.838,0.281,57.564,26.151,57.564,58.06s-25.727,57.779-57.564,58.06
		C40.685,129.779,14.958,103.909,14.958,72z"/>
	<g>
		<path fill="#FFFFFF" d="M72.522,13.94C40.685,14.221,14.958,40.091,14.958,72s25.727,57.779,57.564,58.06
			c31.838-0.281,57.564-26.151,57.564-58.06S104.36,14.221,72.522,13.94z M72,120.924c-26.084,0-47.228-21.14-47.228-47.228
			S45.916,26.469,72,26.469c26.082,0,47.228,21.14,47.228,47.228S98.082,120.924,72,120.924z"/>
		<path fill="#FFFFFF" d="M72,30.542c-23.836,0-43.155,19.316-43.155,43.155S48.164,116.852,72,116.852
			c23.834,0,43.155-19.316,43.155-43.155S95.834,30.542,72,30.542z"/>
	</g>
	<g>
		<path d="M104.472,39.46l4.226-6.183l-9.947-6.808l-3.998,5.843c-4.38-2.412-9.184-4.12-14.269-5.042V17.28H63.516v9.989
			c-5.082,0.923-9.889,2.63-14.266,5.042l-3.998-5.843L35.3,33.277l4.229,6.183c-9.07,8.605-14.756,20.742-14.756,34.237
			c0,26.087,21.143,47.228,47.228,47.228c26.082,0,47.228-21.14,47.228-47.228C119.228,60.202,113.544,48.065,104.472,39.46z
			 M72,116.852c-23.836,0-43.155-19.316-43.155-43.155S48.164,30.542,72,30.542c23.834,0,43.155,19.316,43.155,43.155
			S95.834,116.852,72,116.852z"/>
		<rect x="70.473" y="33.733" width="3.054" height="12.54"/>
		<rect x="70.473" y="100.951" width="3.054" height="12.54"/>
		<rect x="32.122" y="72.085" width="12.54" height="3.054"/>
		<rect x="99.339" y="72.085" width="12.54" height="3.054"/>
		<polygon points="102.907,54.72 100.76,52.233 71.236,73.044 54.015,60.711 52.008,63.432 71.123,77.005 		"/>
	</g>
</g>
</svg>
