<?xml version="1.0" encoding="utf-8"?>
<!-- Generator: Adobe Illustrator 16.0.0, SVG Export Plug-In . SVG Version: 6.00 Build 0)  -->
<!DOCTYPE svg PUBLIC "-//W3C//DTD SVG 1.1//EN" "http://www.w3.org/Graphics/SVG/1.1/DTD/svg11.dtd">
<svg version="1.1" id="_x35_0m" xmlns="http://www.w3.org/2000/svg" xmlns:xlink="http://www.w3.org/1999/xlink" x="0px" y="0px"
	 width="144px" height="144px" viewBox="0 0 144 144" enable-background="new 0 0 144 144" xml:space="preserve">
<path fill="#010101" d="M143.382,62.771c0.399-1.895,0.618-3.828,0.618-5.795c0-20.101-21.667-37.103-51.298-42.624
	c-0.163-0.184-0.382-0.346-0.638-0.42c-0.346-0.108-0.711-0.036-1.02,0.128c-5.468-0.929-11.207-1.457-17.094-1.567v-0.126
	c0-0.749-0.601-1.367-1.367-1.367c-0.747,0-1.366,0.618-1.366,1.367v0.126c-12.812,0.091-24.82,2.261-35.207,5.978
	c-0.347-0.438-0.929-0.62-1.477-0.455c-0.564,0.183-0.947,0.692-0.947,1.274v0.092c-5.595,2.187-10.697,4.848-15.107,7.891
	c-0.255-0.054-0.528-0.054-0.783,0.036c-0.493,0.183-0.821,0.639-0.875,1.148C6.343,36.183,0,46.15,0,56.993
	c0,1.622,0.165,3.208,0.438,4.794C0.183,62.042,0,62.369,0,62.753v30.687c0,0.546,0.329,1.058,0.839,1.259
	c0.51,0.219,1.094,0.091,1.495-0.293l0.273-0.273c1.677,3.754,4.118,7.291,7.235,10.57v9.003c0,0.546,0.327,1.056,0.838,1.257
	c0.51,0.2,1.093,0.09,1.494-0.291l4.191-4.191c3.389,2.551,7.216,4.865,11.425,6.887v8.493c0,0.564,0.347,1.056,0.857,1.274
	c0.51,0.219,1.112,0.074,1.493-0.345l5.668-6.068c5.248,1.895,10.897,3.37,16.875,4.41v6.505c0,0.747,0.619,1.367,1.367,1.367
	s1.366-0.62,1.366-1.367v-31.544L91.5,99.544l1.13,32.128c0.018,0.747,0.638,1.313,1.367,1.313c0.018,0,0.036,0,0.054,0
	c0.747-0.019,1.349-0.656,1.313-1.422l-0.255-7.18c5.175-1.094,10.095-2.533,14.669-4.283l5.777,6.616
	c0.363,0.417,0.966,0.582,1.494,0.381c0.528-0.2,0.893-0.692,0.893-1.257l0.183-9.458c4.027-2.077,7.69-4.446,10.897-7.016
	l3.955,4.081c0.401,0.401,1.001,0.53,1.511,0.312c0.53-0.219,0.857-0.747,0.821-1.313l-0.328-8.673
	c3.316-3.699,5.813-7.71,7.325-11.955c0.291,0.072,0.62,0.054,0.912-0.073c0.474-0.219,0.783-0.71,0.783-1.24V63.9
	C143.982,63.427,143.745,63.025,143.382,62.771z M140.756,87.226l-1.602-1.312c0.783-1.258,1.476-2.533,2.076-3.846
	c0,0.072,0,0.129,0,0.201C141.25,83.945,141.085,85.604,140.756,87.226z M129.258,105.723l-5.048-5.211
	c2.825-1.841,5.376-3.828,7.654-5.941l0.328,8.328C131.282,103.863,130.296,104.811,129.258,105.723z M122.333,98.561l-4.191-4.336
	c-0.383-0.401-0.965-0.53-1.476-0.329c-0.511,0.2-0.857,0.692-0.875,1.238l-0.128,7.162c-4.081,2.005-8.547,3.735-13.32,5.139
	l-7.252-8.309c14.924-3.135,27.681-9.221,36.408-17.111c-0.054,0.146-0.072,0.309-0.072,0.474l0.329,8.528
	C129.076,93.73,125.922,96.264,122.333,98.561z M119.929,100c-0.512,0.293-1.003,0.584-1.532,0.856l0.036-2.387L119.929,100z
	 M115.591,105.285l-0.183,9.476c-1.549,0.747-3.151,1.476-4.812,2.15l-6.323-7.234C108.265,108.438,112.056,106.961,115.591,105.285
	z M30.506,103.336v-7.582c0-0.546-0.328-1.056-0.839-1.257c-0.51-0.219-1.093-0.092-1.494,0.292l-4.829,4.829
	c-4.137-2.461-7.763-5.23-10.788-8.256V83.6c0-0.548-0.328-1.058-0.838-1.258c-0.51-0.219-1.094-0.091-1.494,0.293l-2.661,2.659
	c-1.913-2.916-3.298-5.995-4.082-9.203c0.292-1.166,0.674-2.314,1.111-3.444C12.52,85.64,29.997,95.754,51.717,99.69l-7.854,8.4
	C39.108,106.798,34.625,105.194,30.506,103.336z M41.805,110.297l-6.798,7.271c-1.548-0.582-3.043-1.221-4.5-1.877v-9.422
	C34.042,107.8,37.832,109.148,41.805,110.297z M27.772,102.022c-0.674-0.327-1.312-0.674-1.967-1.02l1.967-1.969V102.022z
	 M9.823,88.319c-0.219-0.273-0.419-0.546-0.638-0.801l0.638-0.639V88.319z M12.557,94.989c2.606,2.351,5.576,4.555,8.838,6.542
	l-5.339,5.339c-1.239-1.02-2.424-2.077-3.499-3.171V94.989z M8.073,46.023l1.44,1.803c-0.456,0.474-0.893,0.968-1.312,1.46
	L8.073,46.023z M11.171,49.922l4.01,5.049c-2.424,1.933-4.629,3.972-6.524,6.124l-0.292-7.71
	C9.221,52.2,10.151,51.052,11.171,49.922z M19.754,32.975l3.281,4.319c-1.003,0.584-1.969,1.167-2.917,1.787L19.754,32.975z
	 M24.657,39.444l5.139,6.798c-3.208,1.439-6.214,3.025-8.984,4.756l-0.51-8.856C21.668,41.213,23.126,40.301,24.657,39.444z
	 M42.606,32.102l5.941,8.109c-4.447,0.947-8.711,2.168-12.72,3.607l0.183-9.585C38.142,33.448,40.346,32.737,42.606,32.102z
	 M36.064,31.353l0.146-7.98l4.684,6.396C39.254,30.261,37.65,30.789,36.064,31.353z M61.923,28.583l9.276,8.693v0.51
	c-5.431,0.036-10.716,0.455-15.8,1.185V29.35C57.531,29.038,59.718,28.783,61.923,28.583z M55.399,26.615v-4.137l3.882,3.646
	C57.987,26.25,56.675,26.415,55.399,26.615z M135.473,48.938c-0.311-0.363-0.657-0.729-0.986-1.092l0.986-1.148V48.938z
	 M135.473,53.222v8.073c-2.005-2.314-4.356-4.502-6.979-6.562l4.246-4.884C133.723,50.943,134.634,52.074,135.473,53.222z
	 M140.138,64.446l-1.313,1.313c-0.201-0.329-0.401-0.639-0.62-0.966v-7.162c0.967,1.877,1.714,3.808,2.224,5.795
	C140.338,63.772,140.229,64.119,140.138,64.446z M126.615,52.712v-8.438c1.496,1.166,2.898,2.369,4.193,3.609L126.615,52.712z
	 M123.883,51.472c-2.898-1.877-6.07-3.589-9.458-5.121l5.466-6.577c1.385,0.801,2.734,1.64,4.01,2.515v9.184H123.883z
	 M93.031,39.717v-9.585c2.387,0.456,4.719,1.002,6.997,1.622l-6.032,8.164C93.686,39.846,93.358,39.773,93.031,39.717z
	 M102.834,32.519c1.859,0.566,3.664,1.167,5.412,1.805v9.513c-3.589-1.293-7.363-2.423-11.317-3.316L102.834,32.519z
	 M108.247,31.481c-1.221-0.438-2.459-0.857-3.718-1.257l3.718-5.03V31.481z M110.98,44.894v-9.477c2.26,0.93,4.41,1.949,6.469,3.025
	l-5.63,6.778C111.544,45.112,111.253,45.002,110.98,44.894z M121.604,37.714l2.278-2.752v4.155
	C123.134,38.625,122.388,38.169,121.604,37.714z M119.18,36.347c-2.587-1.385-5.321-2.661-8.2-3.808V22.497
	c5.12,2.113,9.731,4.628,13.74,7.452c-0.201,0.093-0.382,0.201-0.51,0.365L119.18,36.347z M101.759,29.403
	c-2.824-0.801-5.721-1.493-8.709-2.06V17.176c5.211,1.003,10.149,2.37,14.741,4.046L101.759,29.403z M90.297,26.87
	c-1.331-0.219-2.662-0.419-4.009-0.582l4.009-6.324V26.87z M90.297,29.641v9.603c-3.7-0.6-7.527-1.02-11.426-1.257l5.795-9.129
	C86.562,29.059,88.457,29.331,90.297,29.641z M75.718,37.822c-0.602-0.019-1.202-0.019-1.804-0.036V36.62l0,0v-8.473
	c2.605,0.036,5.157,0.162,7.69,0.381L75.718,37.822z M73.932,40.52c0.036,0,0.056,0,0.092,0l-0.092,0.127V40.52z M71.198,33.522
	l-5.558-5.213c1.822-0.108,3.681-0.162,5.558-0.162V33.522z M52.666,39.408c-0.383,0.072-0.784,0.128-1.167,0.2l-6.069-8.273
	c2.352-0.582,4.757-1.093,7.235-1.53V39.408z M33.076,44.857c-0.237,0.091-0.474,0.181-0.692,0.273l-5.285-6.998
	c1.969-1.021,4.028-1.969,6.178-2.844L33.076,44.857z M18.17,52.748c-0.274,0.181-0.529,0.382-0.803,0.564l-4.263-5.376
	c1.403-1.349,2.916-2.661,4.556-3.899L18.17,52.748z M6.051,64.41c-0.328,0.456-0.637,0.93-0.948,1.403l-1.512-2.204
	c-0.018-0.056-0.018-0.11-0.036-0.164c0.51-2.006,1.275-3.955,2.24-5.831L6.051,64.41z M2.734,69.166
	c0.073,0.146,0.146,0.311,0.219,0.455c-0.072,0.165-0.164,0.348-0.237,0.512c0-0.074,0-0.146,0-0.236
	C2.716,69.659,2.734,69.423,2.734,69.166z M2.716,82.27c0-0.072,0-0.146,0-0.219c0.802,1.75,1.787,3.48,2.935,5.139l-1.987,1.986
	C3.044,86.916,2.716,84.62,2.716,82.27z M52.666,102.68v7.344c-1.95-0.347-3.881-0.73-5.758-1.184L52.666,102.68z M54.506,97.376
	c-0.127,0-0.238,0.036-0.346,0.072V97.34C33.422,94.006,16.493,85.003,8.202,73.267c0.546-0.219,0.892-0.729,0.874-1.313
	l-0.255-6.797c2.169-2.896,4.847-5.612,8-8.109l1.986,2.497c0.364,0.474,1.002,0.639,1.549,0.42c0.565-0.22,0.911-0.768,0.875-1.35
	l-0.255-4.557c3.17-2.077,6.669-3.954,10.478-5.612l1.804,2.387c0.346,0.456,0.966,0.656,1.512,0.474
	c0.548-0.181,0.929-0.692,0.948-1.274l0.054-3.354c4.52-1.677,9.403-3.043,14.542-4.063l2.625,3.571
	c0.345,0.474,0.965,0.675,1.529,0.492c0.566-0.182,0.948-0.711,0.948-1.293V41.74c5.066-0.747,10.352-1.166,15.8-1.202v4.848
	c0,0.602,0.4,1.148,0.984,1.313c0.582,0.163,1.202-0.074,1.53-0.584l3.462-5.468c4.502,0.201,8.894,0.656,13.122,1.367v3.372
	c0,0.582,0.383,1.111,0.947,1.293c0.564,0.183,1.185-0.019,1.532-0.492l2.405-3.262c4.592,0.985,8.984,2.26,13.065,3.792v3.298
	c0,0.582,0.365,1.094,0.911,1.292c0.548,0.201,1.148,0.038,1.513-0.417l1.985-2.389c4.101,1.805,7.873,3.864,11.227,6.16v1.712
	c0,0.566,0.346,1.076,0.894,1.277c0.528,0.2,1.128,0.054,1.511-0.384l0.456-0.528c3.481,2.696,6.416,5.667,8.73,8.839v4.101
	c0,0.546,0.327,1.056,0.837,1.257c0.311,0.128,0.638,0.128,0.929,0.036c-7.198,12.174-23.525,21.759-43.989,25.749v0.055
	L54.506,97.376z M94.324,102.424l5.066,5.813c-1.585,0.42-3.189,0.783-4.83,1.13L94.324,102.424z M134.25,85.423l1.295,1.074
	c-0.383,0.527-0.783,1.058-1.203,1.567L134.25,85.423z M133.65,81.358c-0.347-0.273-0.785-0.365-1.203-0.256
	c2.77-2.642,5.103-5.485,6.923-8.475c0.438,1.131,0.821,2.278,1.112,3.427c-0.693,2.807-1.841,5.522-3.427,8.109L133.65,81.358z
	 M141.25,70.133c-0.074-0.164-0.146-0.329-0.237-0.491c0.072-0.146,0.145-0.312,0.199-0.456c0,0.237,0.038,0.474,0.038,0.729
	C141.25,69.986,141.25,70.059,141.25,70.133z M141.23,57.74c-0.837-1.822-1.839-3.589-3.025-5.303v-7.727
	c1.987,3.882,3.063,8.001,3.063,12.265C141.25,57.23,141.23,57.485,141.23,57.74z M136.457,41.74
	c-0.255,0.074-0.474,0.201-0.656,0.42l-3.244,3.735c-1.805-1.73-3.772-3.37-5.942-4.92v-9.623
	C130.68,34.488,134.014,37.986,136.457,41.74z M89.239,16.519l-5.976,9.44c-3.045-0.291-6.178-0.474-9.332-0.527V15.227
	C79.199,15.335,84.338,15.754,89.239,16.519z M71.198,25.413c-2.806,0.019-5.558,0.145-8.272,0.346l-7.964-7.453
	c-0.4-0.363-0.984-0.474-1.476-0.255s-0.82,0.71-0.82,1.256v7.729c-3.062,0.527-6.069,1.166-8.948,1.931l-6.05-8.254
	c9.913-3.426,21.357-5.413,33.53-5.504V25.413z M33.313,32.393c-2.752,1.094-5.375,2.278-7.854,3.589l-5.138-6.797
	c3.9-2.623,8.31-4.956,13.175-6.925L33.313,32.393z M16.948,31.664l0.529,9.221c-2.188,1.566-4.21,3.225-6.032,4.975l-3.627-4.574
	C10.151,37.804,13.231,34.578,16.948,31.664z M5.321,45.622l0.274,7.034c-1.111,1.64-2.06,3.336-2.861,5.066
	c0-0.255-0.018-0.51-0.018-0.766C2.716,53.039,3.645,49.249,5.321,45.622z M4.648,92.055l2.643-2.642
	c0.783,1.002,1.64,1.967,2.533,2.915v8.346C7.6,97.96,5.85,95.062,4.648,92.055z M12.557,110.388v-3.044
	c0.529,0.475,1.075,0.948,1.622,1.403L12.557,110.388z M18.242,108.564l5.612-5.612c1.276,0.711,2.569,1.385,3.918,2.041v9.385
	C24.292,112.647,21.084,110.698,18.242,108.564z M30.506,122.379v-3.772c0.838,0.364,1.676,0.711,2.533,1.057L30.506,122.379z
	 M37.795,118.569l6.98-7.472c2.551,0.639,5.176,1.202,7.873,1.677v9.604C47.436,121.449,42.443,120.173,37.795,118.569z
	 M94.999,121.65l-0.328-9.513c2.296-0.474,4.537-1.004,6.725-1.604l6.487,7.435C103.836,119.444,99.519,120.685,94.999,121.65z
	 M115.262,122.288l-2.824-3.226c0.985-0.419,1.951-0.839,2.898-1.295L115.262,122.288z M118.16,113.358l0.183-9.423
	c1.203-0.618,2.369-1.274,3.499-1.949l5.321,5.504C124.465,109.604,121.458,111.571,118.16,113.358z M131.099,107.636
	c0.419-0.364,0.819-0.747,1.239-1.131l0.092,2.516L131.099,107.636z M134.505,91.946c1.13-1.223,2.17-2.479,3.117-3.773l2.387,1.969
	c-1.074,3.391-2.842,6.634-5.193,9.695L134.505,91.946z"/>
</svg>
