<?xml version="1.0" encoding="utf-8"?>
<!-- Generator: Adobe Illustrator 16.0.0, SVG Export Plug-In . SVG Version: 6.00 Build 0)  -->
<!DOCTYPE svg PUBLIC "-//W3C//DTD SVG 1.1//EN" "http://www.w3.org/Graphics/SVG/1.1/DTD/svg11.dtd">
<svg version="1.1" id="_x35_0m" xmlns="http://www.w3.org/2000/svg" xmlns:xlink="http://www.w3.org/1999/xlink" x="0px" y="0px"
	 width="144px" height="144px" viewBox="0 0 144 144" enable-background="new 0 0 144 144" xml:space="preserve">
<g>
	<circle fill="#EFDB53" cx="72" cy="72" r="68.09"/>
	<path fill="#0A0A0A" d="M72,144c-9.72,0-19.15-1.899-28.03-5.661c-8.57-3.629-16.27-8.818-22.88-15.43
		c-6.61-6.609-11.8-14.309-15.43-22.879C1.9,91.15,0,81.721,0,72c0-9.72,1.9-19.149,5.66-28.03C9.29,35.4,14.48,27.7,21.09,21.09
		c6.61-6.61,14.31-11.8,22.88-15.43C52.85,1.9,62.28,0,72,0s19.15,1.9,28.03,5.66c8.57,3.63,16.27,8.819,22.88,15.43
		c6.61,6.61,11.8,14.311,15.43,22.88C142.1,52.851,144,62.28,144,72c0,9.721-1.9,19.15-5.66,28.03
		c-3.629,8.57-8.82,16.27-15.43,22.879c-6.61,6.611-14.31,11.801-22.88,15.43C91.15,142.101,81.72,144,72,144z M72,10.271
		c-16.49,0-31.99,6.42-43.65,18.08C16.69,40.011,10.271,55.511,10.271,72c0,16.49,6.42,31.989,18.08,43.649
		c11.66,11.66,27.16,18.08,43.65,18.08c16.49,0,31.99-6.42,43.65-18.08S133.73,88.49,133.73,72c0-16.489-6.42-31.989-18.08-43.649
		S88.49,10.271,72,10.271z"/>
	<g>
		<path fill="#0A0A0A" d="M29.82,88.11c-1.84-4.71-4.05-9.28-5.42-14.171c4.5-0.399,8.88-1.329,13.13-2.859
			c1.17-0.42,1.41-0.83,0.9-2.04c-1.74-4.13-3.34-8.319-5-12.49c4.31-1.899,8.52-4,12.55-6.43c0.32-0.189,0.77-0.18,1.16-0.26
			c1.63,4.1,3.29,8.19,4.87,12.31c0.42,1.091,0.76,1.29,1.82,0.61c3.48-2.26,7.02-4.43,10.57-6.561c0.86-0.52,1.06-0.9,0.65-1.89
			c-1.75-4.2-3.39-8.44-5.06-12.67c4.24-2.88,8.71-5.319,13.58-6.97c1.661,4.17,3.32,8.34,4.96,12.52
			c0.331,0.85,0.62,1.37,1.74,0.92c3.88-1.54,7.92-2.539,12.09-2.83c1.34-0.09,1.34-0.569,0.91-1.64
			c-1.69-4.159-3.31-8.34-4.96-12.521c1.83-0.14,3.68-0.199,5.5-0.449c1.89-0.26,2.811,0.529,3.491,2.26
			c5.32,13.57,10.71,27.109,16.089,40.66c2.13,5.379,4.291,10.76,6.41,16.141c1,2.528,0.32,4.06-2.149,5.02
			c-2.44,0.95-4,0.279-5.011-2.221c-2.6-6.43-5.189-12.87-7.78-19.3c-1.58-4.109-3.22-8.189-4.72-12.33
			c-0.47-1.31-1.09-1.79-2.51-1.579c-3.91,0.579-7.73,1.42-11.46,2.739c-1.4,0.5-1.3,1.08-0.85,2.181
			c1.66,4.08,3.229,8.189,4.84,12.289c-4.521,2.33-9.05,4.65-13.57,6.98c-1.81-4.6-3.62-9.211-5.47-13.9
			c-4.13,2.551-8.06,5-12.01,7.4c-0.87,0.529-0.74,1.06-0.41,1.859c1.71,4.15,3.35,8.33,5.01,12.5c-4.14,3.05-8.69,5.33-13.52,7.07
			c-1.67-4.15-3.36-8.3-5.01-12.46c-0.37-0.93-0.62-1.44-1.87-0.94C38.99,86.851,34.44,87.659,29.82,88.11z M78.69,48.921
			C78.48,49,78.29,49.07,78.1,49.15c-4.01,1.71-7.87,3.71-11.61,5.95c-0.71,0.43-0.69,0.79-0.41,1.47
			c1.59,3.91,3.13,7.829,4.66,11.76c0.3,0.761,0.5,1.14,1.41,0.58c3.66-2.24,7.47-4.2,11.43-5.851c0.7-0.289,0.93-0.649,0.62-1.39
			c-1.62-3.97-3.2-7.949-4.791-11.931C79.25,49.38,79.2,48.94,78.69,48.921z M57.91,77.29c-0.08-0.16-0.14-0.279-0.19-0.399
			c-1.62-4.11-3.25-8.2-4.83-12.32c-0.38-0.98-0.82-0.55-1.35-0.24c-3.68,2.2-7.46,4.19-11.43,5.8c-0.87,0.35-0.83,0.76-0.53,1.51
			c1.58,3.9,3.15,7.801,4.63,11.74c0.37,0.98,0.76,0.99,1.6,0.609c3.86-1.709,7.61-3.6,11.22-5.789
			C57.38,77.989,57.97,77.899,57.91,77.29z"/>
		<path fill="#FFFFFF" d="M29.82,88.11c4.62-0.451,9.18-1.27,13.49-3.021c1.25-0.51,1.5,0.011,1.87,0.94
			c1.65,4.16,3.34,8.311,5.01,12.459c-4.2,2.061-8.73,2.881-13.31,3.491c-1.26,0.169-1.84-0.511-2.25-1.581
			C33.05,96.3,31.43,92.21,29.82,88.11z"/>
		<path fill="#FFFFFF" d="M33.43,56.56c1.66,4.171,3.26,8.361,5,12.49c0.51,1.211,0.27,1.621-0.9,2.04
			c-4.26,1.53-8.64,2.46-13.13,2.86c-2.12-3.82-3.39-7.99-4.97-12.02c-0.51-1.281,0.2-2.051,1.58-2.221
			C25.28,59.181,29.39,58.01,33.43,56.56z"/>
		<path fill="#FFFFFF" d="M59.99,41.671c1.68,4.229,3.31,8.469,5.06,12.67c0.41,0.989,0.22,1.369-0.65,1.889
			c-3.56,2.131-7.09,4.301-10.57,6.561c-1.05,0.68-1.4,0.48-1.82-0.609c-1.58-4.12-3.24-8.211-4.87-12.311
			c0.19-0.26,0.33-0.62,0.58-0.771C51.84,46.66,55.71,43.82,59.99,41.671z"/>
		<path fill="#FFFFFF" d="M63.7,91.431c-1.66-4.171-3.31-8.352-5.01-12.5c-0.331-0.801-0.46-1.331,0.41-1.861
			c3.96-2.399,7.88-4.85,12.01-7.399c1.85,4.69,3.66,9.3,5.47,13.899C72.38,86.33,68.26,89.251,63.7,91.431z"/>
		<path fill="#FFFFFF" d="M88.32,31.159c1.65,4.181,3.271,8.361,4.96,12.521c0.43,1.06,0.43,1.539-0.91,1.64
			c-4.18,0.29-8.21,1.29-12.09,2.83c-1.121,0.45-1.41-0.07-1.74-0.92c-1.64-4.181-3.3-8.351-4.96-12.521
			C78.23,32.44,83.21,31.521,88.32,31.159z"/>
		<path fill="#FFFFFF" d="M90.16,76.59c-1.61-4.1-3.18-8.21-4.84-12.29c-0.45-1.109-0.551-1.689,0.85-2.18
			c3.74-1.32,7.561-2.16,11.46-2.74c1.41-0.209,2.029,0.27,2.51,1.58c1.5,4.131,3.14,8.221,4.72,12.33
			C99.78,73.591,94.95,75.011,90.16,76.59z"/>
		<path fill="#FFFFFF" d="M78.69,48.921c0.51,0.02,0.56,0.459,0.71,0.829c1.59,3.98,3.18,7.96,4.791,11.931
			c0.299,0.739,0.08,1.1-0.62,1.39c-3.97,1.64-7.78,3.6-11.43,5.85c-0.91,0.56-1.11,0.181-1.41-0.579
			c-1.53-3.931-3.07-7.86-4.66-11.761c-0.28-0.68-0.3-1.05,0.41-1.47c3.74-2.24,7.6-4.24,11.61-5.95
			C78.28,49.06,78.47,49,78.69,48.921z"/>
		<path fill="#FFFFFF" d="M57.91,77.29c0.06,0.609-0.53,0.699-0.89,0.91c-3.61,2.18-7.37,4.08-11.22,5.789
			c-0.84,0.371-1.23,0.36-1.6-0.609c-1.49-3.93-3.05-7.84-4.63-11.74c-0.3-0.739-0.33-1.149,0.53-1.51
			c3.97-1.619,7.75-3.609,11.43-5.8c0.53-0.319,0.979-0.75,1.35,0.24c1.58,4.12,3.22,8.22,4.83,12.32
			C57.76,77.011,57.83,77.13,57.91,77.29z"/>
	</g>
</g>
</svg>
