<?xml version="1.0" encoding="utf-8"?>
<!-- Generator: Adobe Illustrator 16.0.0, SVG Export Plug-In . SVG Version: 6.00 Build 0)  -->
<!DOCTYPE svg PUBLIC "-//W3C//DTD SVG 1.1//EN" "http://www.w3.org/Graphics/SVG/1.1/DTD/svg11.dtd">
<svg version="1.1" id="_x35_0m" xmlns="http://www.w3.org/2000/svg" xmlns:xlink="http://www.w3.org/1999/xlink" x="0px" y="0px"
	 width="144px" height="144px" viewBox="0 0 144 144" enable-background="new 0 0 144 144" xml:space="preserve">
<g>
	<path fill="#010101" d="M128.781,141.944c-6.507,0-12.89,0-19.634,0c0-1.005,0-1.963,0-2.933c0-16.318,0-32.637-0.011-48.955
		c0-3.644-0.35-3.982-4.015-3.982c-22.15,0-44.288,0-66.436,0c-3.508,0-3.902,0.395-3.914,3.834
		c-0.011,16.32-0.011,32.637-0.011,48.957c0,0.98,0,1.962,0,3.066c-6.653,0-13.025,0-19.792,0c0-0.88,0-1.747,0-2.627
		c0-19.814-0.012-39.63,0.022-59.444c0-1.139,0.146-2.345,0.53-3.405c4.895-13.251,9.824-26.503,14.853-39.707
		c0.417-1.106,1.433-2.268,2.47-2.787c12.417-6.225,24.89-12.314,37.317-18.506c1.353-0.677,2.346-0.609,3.666,0.057
		c12.349,6.156,24.765,12.202,37.103,18.393c1.117,0.553,2.199,1.781,2.651,2.956c5.03,13.204,9.936,26.456,14.852,39.707
		c0.282,0.767,0.484,1.602,0.484,2.414c0.023,20.727,0.012,41.456,0,62.184C128.916,141.334,128.872,141.492,128.781,141.944z
		 M72.021,67.252c4.827,0,9.642-0.056,14.469,0.034c1.861,0.034,2.458-0.654,2.436-2.481c-0.091-5.154-0.08-10.307,0-15.461
		c0.022-1.715-0.564-2.346-2.312-2.335c-9.732,0.058-19.454,0.068-29.187-0.011c-1.883-0.012-2.458,0.655-2.424,2.47
		c0.079,5.075,0.101,10.15-0.012,15.213c-0.044,1.951,0.598,2.65,2.572,2.605C62.367,67.185,67.194,67.252,72.021,67.252z"/>
	<path fill="#010101" d="M71.954,1.978c0.812,0.35,1.567,0.654,2.313,1.016c15.371,7.567,30.753,15.111,46.08,22.758
		c1.037,0.519,2.007,1.736,2.424,2.854c5.131,13.533,10.229,27.077,15.123,40.689c0.924,2.582,2.616,4.172,4.657,5.593
		c1.692,1.174,1.985,2.313,0.439,3.791c-0.36,0.337-0.665,0.754-0.924,1.172c-1.106,1.85-2.132,1.828-3.959,0.553
		c-3.664-2.538-5.785-5.819-7.25-9.992c-4.33-12.314-9-24.518-13.646-36.709c-0.451-1.173-1.5-2.436-2.616-3
		c-13.534-6.777-27.133-13.42-40.679-20.164c-1.421-0.71-2.48-0.722-3.902-0.011C56.47,17.281,42.869,23.913,29.336,30.69
		c-1.105,0.553-2.178,1.814-2.617,2.989c-5.12,13.442-10.172,26.918-15.089,40.43c-1.331,3.654-4.748,4.939-7.297,7.194
		c-0.237,0.203-1.252-0.146-1.646-0.506c-3.666-3.418-3.564-3.981,0.203-7.174c1.195-1.015,2.289-2.436,2.842-3.891
		C10.93,56.054,15.96,42.308,21.16,28.626c0.439-1.171,1.522-2.414,2.639-2.966C38.899,18.104,54.044,10.661,69.19,3.195
		C70.059,2.768,70.973,2.406,71.954,1.978z"/>
	<path fill="#010101" d="M41.086,90.699c9.09,0,17.707,0,26.74,0c-4.478,7.229-8.786,14.196-13.353,21.584
		C49.951,104.987,45.587,97.949,41.086,90.699z"/>
	<path fill="#010101" d="M89.444,112.283c-4.544-7.353-8.863-14.311-13.341-21.551c9.011,0,17.66,0,26.694,0
		C98.321,97.962,94.012,104.92,89.444,112.283z"/>
	<path fill="#010101" d="M54.451,120.799c4.466,7.193,8.695,14.007,13.094,21.099c-8.797,0-17.278,0-26.142,0
		C45.744,134.884,49.962,128.061,54.451,120.799z"/>
	<path fill="#010101" d="M102.595,142.022c-8.965,0-17.356,0-26.288,0c4.397-7.116,8.639-13.962,13.127-21.224
		C93.877,127.948,98.118,134.806,102.595,142.022z"/>
	<path fill="#010101" d="M39.372,136.633c0-13.658,0-26.605,0-40.171c4.162,6.698,8.007,12.855,11.797,19.07
		c0.282,0.463,0.383,1.363,0.124,1.793C47.47,123.607,43.591,129.832,39.372,136.633z"/>
	<path fill="#010101" d="M104.512,136.599c-4.082-6.599-7.871-12.644-11.559-18.755c-0.373-0.621-0.462-1.827-0.113-2.413
		c3.721-6.181,7.556-12.293,11.672-18.925C104.512,110.039,104.512,123.009,104.512,136.599z"/>
	<path fill="#010101" d="M69.529,136.575c-4.094-6.598-7.883-12.643-11.56-18.742c-0.373-0.621-0.439-1.827-0.079-2.426
		c3.71-6.168,7.534-12.27,11.65-18.913C69.529,110.039,69.529,122.998,69.529,136.575z"/>
	<path fill="#010101" d="M74.413,96.563c4.071,6.564,7.894,12.666,11.604,18.845c0.362,0.599,0.294,1.805-0.078,2.426
		c-3.677,6.1-7.466,12.145-11.525,18.686C74.413,123.054,74.413,110.118,74.413,96.563z"/>
</g>
</svg>
