<?xml version="1.0" encoding="utf-8"?>
<!-- Generator: Adobe Illustrator 16.0.0, SVG Export Plug-In . SVG Version: 6.00 Build 0)  -->
<!DOCTYPE svg PUBLIC "-//W3C//DTD SVG 1.1//EN" "http://www.w3.org/Graphics/SVG/1.1/DTD/svg11.dtd">
<svg version="1.1" id="_x35_0m" xmlns="http://www.w3.org/2000/svg" xmlns:xlink="http://www.w3.org/1999/xlink" x="0px" y="0px"
	 width="144px" height="144px" viewBox="0 0 144 144" enable-background="new 0 0 144 144" xml:space="preserve">
<g>
	<path fill="#010101" d="M72.021,90.146c-2.586-0.011-6.361-3.774-6.406-6.395c-0.045-2.775,3.786-6.562,6.561-6.483
		c2.643,0.077,6.34,3.896,6.285,6.494C78.393,86.372,74.585,90.158,72.021,90.146z"/>
	<path fill="#010101" d="M142.076,62.946c2.131-2.109,2.354-3.952,1.343-6.639C132.461,27.086,103.684,7.28,72.01,7.28
		c-31.664,0-59.953,19.462-71.42,49.017c-1.043,2.687-0.766,4.507,1.354,6.616c19.174,19.006,38.236,38.136,57.365,57.198
		c0.21,0.21,0.4,0.41,0.588,0.622c-0.299,1.089-0.477,2.221-0.477,3.408c0,6.917,5.595,12.534,12.5,12.578c0.022,0,0.044,0,0.067,0
		l0,0h0.011c0.089,0,0.177-0.011,0.267-0.011c0.289-0.011,0.577-0.011,0.855-0.044c6.416-0.577,11.457-5.961,11.457-12.523
		c0-1.155-0.167-2.266-0.455-3.33c0.133-0.146,0.267-0.29,0.422-0.444C103.728,101.237,122.835,82.031,142.076,62.946z
		 M26.924,79.445c-1.688-1.622-3.342-3.177-4.94-4.775c-4.785-4.764-9.493-9.604-14.355-14.288c-1.366-1.321-1.565-2.431-0.8-4.098
		c12.068-26.133,32.408-41.121,61.096-42.976c30.443-1.976,57.687,15.521,69.089,42.599c0.855,2.032,0.644,3.264-0.933,4.786
		c-5.772,5.595-11.401,11.345-17.109,17.03c-0.577,0.578-1.231,1.054-2.198,1.888c-5.141-5.251-10.158-10.426-15.232-15.532
		c-8.016-8.072-16.076-16.099-24.125-24.147c-3.852-3.842-7.05-3.798-10.958,0.111C53.979,52.544,41.479,65.034,28.989,77.524
		C28.4,78.111,27.778,78.646,26.924,79.445z M71.999,111.552c-3.609,0-6.851,1.521-9.148,3.952
		c-8.338-8.227-16.598-16.531-24.857-24.846c-0.178-0.178-0.233-0.489-0.333-0.723c5.018-6.283,5.018-6.283,0.267-12.19
		c9.425-9.325,18.829-18.64,28.155-27.866c1.654,1.11,3.719,3.576,5.839,3.608c2.098,0.032,4.23-2.377,6.162-3.598
		c9.048,9.115,18.319,18.452,27.688,27.901c-0.999,1.509-3.486,3.63-3.563,5.827c-0.067,2.065,2.42,4.219,4.263,7.107
		c-4.419,4.273-9.138,8.804-13.812,13.398c-3.853,3.786-7.671,7.594-11.436,11.459C78.915,113.117,75.64,111.552,71.999,111.552z"/>
</g>
</svg>
