<?xml version="1.0" encoding="utf-8"?>
<!-- Generator: Adobe Illustrator 16.0.0, SVG Export Plug-In . SVG Version: 6.00 Build 0)  -->
<!DOCTYPE svg PUBLIC "-//W3C//DTD SVG 1.1//EN" "http://www.w3.org/Graphics/SVG/1.1/DTD/svg11.dtd">
<svg version="1.1" id="_x35_0m" xmlns="http://www.w3.org/2000/svg" xmlns:xlink="http://www.w3.org/1999/xlink" x="0px" y="0px"
	 width="144px" height="144px" viewBox="0 0 144 144" enable-background="new 0 0 144 144" xml:space="preserve">
<g>
	<circle fill="#0951A1" cx="72" cy="72" r="71.62"/>
	<path fill="#FFFFFF" d="M72,137.81c-36.291,0-65.81-29.52-65.81-65.809C6.19,35.72,35.709,6.19,72,6.19
		c36.289,0,65.81,29.52,65.81,65.811C137.81,108.29,108.289,137.81,72,137.81z M72,8.89C37.199,8.89,8.89,37.2,8.89,72.001
		c0,34.799,28.31,63.107,63.11,63.107c34.799,0,63.109-28.309,63.109-63.107C135.109,37.2,106.799,8.89,72,8.89z"/>
	<path fill="#FFFFFF" d="M16.29,82.424c0,11.84,9.63,21.46,21.46,21.46c11.829,0,21.459-9.63,21.459-21.46
		c0-8.28-4.71-15.47-11.59-19.05l2.93-7.04L72.81,81.233c-0.31,0.631-0.49,1.34-0.49,2.09c0,1.141,0.4,2.19,1.07,3.011l-2.17,3.97
		h-1.26c-0.99,0-1.79,0.8-1.79,1.79s0.8,1.79,1.79,1.79h2.319c0,0,0,0,0.01,0c0,0,0,0,0.011,0h2.319c0.99,0,1.791-0.8,1.791-1.79
		c0-0.771-0.48-1.42-1.161-1.67l1.301-2.37c0.18,0.02,0.359,0.029,0.54,0.029c2.04,0,3.79-1.3,4.46-3.109l1.3-0.039
		c1.24,10.668,10.33,18.969,21.32,18.969c11.84,0,21.459-9.63,21.459-21.46c0-11.84-9.629-21.46-21.459-21.46
		c-4.351,0-8.4,1.301-11.79,3.53l-5.08-6.479l3.88-11.771h5.86c0.989,0,1.79-0.8,1.79-1.79s-0.801-1.789-1.79-1.789h-7.12h-0.01
		h-7.181c-0.99,0-1.79,0.799-1.79,1.789s0.8,1.79,1.79,1.79h4.68l-3.27,9.921l-30.28-7.78l1.63-3.911
		c0.01-0.02,0.01-0.039,0.021-0.06c0.01-0.03,0.02-0.06,0.03-0.09c0.01-0.03,0.02-0.07,0.03-0.101c0-0.02,0.01-0.039,0.02-0.06
		c0-0.01,0-0.01,0-0.02c0.01-0.04,0.01-0.08,0.02-0.12c0-0.021,0.01-0.04,0.01-0.061c0-0.039,0.01-0.069,0.01-0.109
		c0-0.02,0-0.05,0-0.07c0-0.03,0-0.061,0-0.1c0-0.03,0-0.051,0-0.08c0-0.03-0.01-0.05-0.01-0.08s-0.01-0.061-0.01-0.09
		c0-0.02-0.01-0.051-0.02-0.07c-0.01-0.03-0.02-0.07-0.03-0.1c-0.01-0.021-0.02-0.041-0.02-0.07c-0.011-0.029-0.021-0.061-0.03-0.09
		c-0.011-0.021-0.021-0.05-0.03-0.07c-0.01-0.029-0.02-0.051-0.04-0.08c-0.01-0.029-0.03-0.049-0.05-0.08
		c-0.011-0.02-0.021-0.04-0.04-0.06c-0.02-0.03-0.04-0.06-0.06-0.091c-0.011-0.02-0.03-0.039-0.041-0.049
		c-0.02-0.031-0.049-0.051-0.069-0.08c-0.01-0.021-0.03-0.03-0.04-0.051c-0.021-0.02-0.05-0.05-0.07-0.07
		c-0.02-0.02-0.04-0.039-0.06-0.049c-0.021-0.021-0.04-0.041-0.07-0.051c-0.02-0.02-0.05-0.04-0.07-0.06
		c-0.02-0.011-0.039-0.03-0.06-0.04c-0.03-0.02-0.061-0.04-0.09-0.061c-0.021-0.01-0.04-0.02-0.061-0.029
		c-0.03-0.02-0.069-0.04-0.109-0.051c-0.011,0-0.011,0-0.021-0.01c-0.021-0.01-0.04-0.01-0.05-0.02
		c-0.03-0.011-0.061-0.021-0.101-0.03c-0.029-0.01-0.069-0.021-0.1-0.03c-0.021,0-0.04-0.01-0.06-0.02l-8.54-1.87
		c-0.02,0-0.05-0.01-0.07-0.01c-2.02-0.36-4.039,0.76-4.81,2.67l-0.391,0.97c-0.37,0.92,0.08,1.96,1,2.33
		c0.221,0.09,0.44,0.13,0.66,0.13c0.71,0,1.38-0.43,1.66-1.12l0.391-0.97c0.13-0.33,0.479-0.53,0.829-0.479l6.4,1.4l-7.04,16.909
		c-2.07-0.671-4.28-1.03-6.57-1.03C25.92,60.964,16.29,70.594,16.29,82.424z M89.569,66.704c-3.97,3.689-6.55,8.869-6.84,14.639
		l-1.3,0.041c-0.29-0.65-0.73-1.23-1.271-1.69l5.801-17.6L89.569,66.704z M86.319,81.224c0.311-4.58,2.341-8.7,5.46-11.689
		l7.971,10.159c-0.211,0.341-0.391,0.71-0.521,1.101L86.319,81.224z M86.439,84.804l12.92-0.43c0.771,1.899,2.641,3.24,4.811,3.24
		c2.859,0,5.189-2.331,5.189-5.19c0-2.86-2.33-5.19-5.189-5.19c-0.561,0-1.101,0.09-1.601,0.25l-7.97-10.16
		c2.77-1.76,6.05-2.779,9.57-2.779c9.859,0,17.89,8.02,17.89,17.89c0,9.859-8.021,17.891-17.89,17.891
		C95.109,100.313,87.6,93.544,86.439,84.804z M52.079,52.673l0.39-0.949l30.551,7.84l-6.26,19.011c-0.45,0.029-0.881,0.12-1.28,0.27
		L52.079,52.673z M19.869,82.424c0-9.86,8.021-17.89,17.891-17.89c1.81,0,3.55,0.27,5.189,0.77l-4.97,11.93
		c-0.069,0-0.15-0.01-0.22-0.01c-2.86,0-5.19,2.33-5.19,5.189c0,2.86,2.33,5.191,5.19,5.191c2.859,0,5.189-2.331,5.189-5.191
		c0-1.5-0.64-2.859-1.67-3.81l4.971-11.931c5.589,3.031,9.39,8.95,9.39,15.74c0,9.86-8.021,17.891-17.89,17.891
		C27.88,100.304,19.869,92.283,19.869,82.424z"/>
</g>
</svg>
