<?xml version="1.0" encoding="utf-8"?>
<!-- Generator: Adobe Illustrator 16.0.0, SVG Export Plug-In . SVG Version: 6.00 Build 0)  -->
<!DOCTYPE svg PUBLIC "-//W3C//DTD SVG 1.1//EN" "http://www.w3.org/Graphics/SVG/1.1/DTD/svg11.dtd">
<svg version="1.1" id="_x35_0m" xmlns="http://www.w3.org/2000/svg" xmlns:xlink="http://www.w3.org/1999/xlink" x="0px" y="0px"
	 width="144px" height="144px" viewBox="0 0 144 144" enable-background="new 0 0 144 144" xml:space="preserve">
<g>
	<rect x="24" fill="#0E528E" width="96" height="144"/>
	<polygon fill="#FFFFFF" points="68.75,44.87 58.979,44.87 68.75,12.431 70.68,12.431 	"/>
	<polygon fill="#FFFFFF" points="53.89,61.8 67.71,61.8 63.37,130.29 33.46,130.29 	"/>
	<polygon fill="#FFFFFF" points="75.99,44.87 85.761,44.87 75.99,12.431 74.061,12.431 	"/>
	<polygon fill="#FFFFFF" points="90.851,61.8 77.03,61.8 81.37,130.29 111.28,130.29 	"/>
	<polygon fill="#FFFFFF" points="111.28,49.22 33.46,49.22 33.46,53.341 41.1,53.341 41.1,61.8 47.49,61.8 47.49,53.341 
		97.211,53.341 97.211,61.8 103.601,61.8 103.601,53.341 111.28,53.341 	"/>
	<path fill="#FFFFFF" d="M110.21,141.1H33.8c-3.89,0-7.06-3.17-7.06-7.06v-124c0-3.89,3.17-7.06,7.06-7.06h76.421
		c3.889,0,7.059,3.17,7.059,7.06v124C117.27,137.939,114.109,141.1,110.21,141.1z M33.8,5.98c-2.24,0-4.061,1.819-4.061,4.06v124
		c0,2.24,1.82,4.061,4.061,4.061h76.421c2.239,0,4.06-1.82,4.06-4.061v-124c0-2.24-1.82-4.06-4.06-4.06H33.8L33.8,5.98z"/>
</g>
</svg>
