<?xml version="1.0" encoding="utf-8"?>
<!-- Generator: Adobe Illustrator 16.0.0, SVG Export Plug-In . SVG Version: 6.00 Build 0)  -->
<!DOCTYPE svg PUBLIC "-//W3C//DTD SVG 1.1//EN" "http://www.w3.org/Graphics/SVG/1.1/DTD/svg11.dtd">
<svg version="1.1" id="_x35_0m" xmlns="http://www.w3.org/2000/svg" xmlns:xlink="http://www.w3.org/1999/xlink" x="0px" y="0px"
	 width="144px" height="144px" viewBox="0 0 144 144" enable-background="new 0 0 144 144" xml:space="preserve">
<g>
	<g>
		<path fill="#010101" d="M43.29,73.353l4.51,1.402c-0.702,2.506-1.804,4.31-3.407,5.512c-1.604,1.203-3.607,1.805-6.013,1.805
			c-3.007,0-5.511-1.002-7.415-3.107c-1.904-2.104-2.906-4.91-2.906-8.518c0-3.808,1.002-6.714,2.906-8.818
			c2.004-2.104,4.509-3.106,7.716-3.106c2.806,0,5.011,0.802,6.814,2.505c1.002,1.002,1.804,2.405,2.305,4.209l-4.51,1.103
			c-0.301-1.202-0.802-2.104-1.703-2.806c-0.902-0.701-1.904-1.002-3.106-1.002c-1.704,0-3.107,0.602-4.108,1.804
			c-1.002,1.202-1.604,3.206-1.604,5.912c0,2.906,0.501,4.91,1.604,6.112c1.102,1.203,2.404,1.805,4.008,1.805
			c1.203,0,2.305-0.401,3.207-1.203C42.288,76.259,42.989,75.056,43.29,73.353z"/>
		<path fill="#010101" d="M72.251,81.77H67.24l-2.004-5.211h-9.119l-1.804,5.211h-4.91l8.918-22.747h4.811L72.251,81.77z
			 M63.833,72.751l-3.106-8.417l-3.106,8.417H63.833z"/>
		<path fill="#010101" d="M74.656,81.77V58.923h6.914l4.108,15.531l4.108-15.531h6.914V81.77h-4.309V63.833l-4.51,17.937h-4.408
			l-4.51-17.937V81.77H74.656z"/>
		<path fill="#010101" d="M101.312,81.77V58.923h7.415c2.807,0,4.61,0.1,5.512,0.3c1.303,0.301,2.405,1.103,3.307,2.205
			c0.902,1.103,1.303,2.605,1.303,4.409c0,1.402-0.3,2.605-0.801,3.508c-0.502,1.002-1.203,1.703-1.904,2.203
			c-0.802,0.502-1.604,0.902-2.405,1.104c-1.103,0.2-2.705,0.3-4.811,0.3h-3.006v8.818H101.312L101.312,81.77z M105.82,62.831v6.514
			h2.506c1.804,0,3.006-0.101,3.607-0.401c0.602-0.2,1.102-0.602,1.403-1.103c0.3-0.501,0.501-1.102,0.501-1.804
			c0-0.802-0.201-1.503-0.702-2.004s-1.102-0.901-1.804-1.002c-0.501-0.101-1.703-0.2-3.307-0.2
			C108.126,62.831,105.82,62.831,105.82,62.831z"/>
	</g>
	<path fill="#010101" d="M144,63.132c0-0.101,0-0.301,0-0.401c0-5.813-2.605-11.323-7.215-16.233v-6.715h-2.305v4.41
		c-3.207-2.906-7.114-5.512-11.524-7.816v-6.213h-2.305v5.109c-3.808-1.803-8.017-3.406-12.426-4.709v-5.111h-2.305v4.41
		c-4.309-1.203-8.818-2.105-13.528-2.807v-5.211h-2.305v4.811c-5.011-0.701-10.121-1.103-15.432-1.203v-5.611h-2.306v5.611
		c-0.1,0-0.2,0-0.301,0c-5.511,0-10.923,0.301-16.033,0.902v-5.712h-2.305v6.112c-6.514,0.803-12.626,2.205-18.238,3.908v-5.211
		h-2.305v5.913c-4.509,1.503-8.718,3.307-12.525,5.311v-3.507h-2.305v4.709c-4.109,2.405-7.616,5.012-10.522,7.917v-3.507H5.512
		V48.3C2.204,52.309,0.301,56.718,0,61.327l0,0v30.764h2.305v-10.02c1.103,2.204,2.605,4.308,4.41,6.313v12.727H9.02V90.688
		c2.905,2.705,6.412,5.211,10.421,7.415v13.429h2.305V99.307c4.109,2.104,8.719,3.907,13.628,5.411v14.23h2.306v-13.529
		c6.112,1.703,12.826,3.006,19.841,3.708v15.032h2.305v-14.832c3.909,0.301,8.018,0.501,12.126,0.501c3.307,0,6.613-0.1,9.82-0.401
		v14.631h2.305v-14.83c7.717-0.702,15.031-2.004,21.745-3.809v13.428h2.306v-14.129c7.415-2.205,13.929-5.111,19.439-8.518v13.528
		h2.305V94.797c5.112-3.607,9.12-7.716,11.425-12.126v9.32H144V63.132L144,63.132z M136.785,49.603
		c1.904,2.405,3.308,4.91,4.209,7.516c-1.103-1.903-2.506-3.707-4.209-5.511V49.603z M136.785,54.813
		c1.703,2.104,3.006,4.309,3.908,6.614c-1.102-1.704-2.405-3.407-3.908-5.011V54.813z M122.956,38.78
		c4.609,2.405,8.519,5.211,11.524,8.317v2.305c-3.207-2.905-7.114-5.511-11.524-7.815V38.78z M122.956,43.892
		c4.609,2.505,8.519,5.311,11.524,8.316v2.004c-3.207-2.905-7.114-5.511-11.524-7.815V43.892z M108.126,32.769
		c4.509,1.402,8.718,3.006,12.425,4.809v2.906c-3.807-1.803-7.916-3.406-12.425-4.709V32.769z M108.126,37.878
		c4.509,1.403,8.718,3.007,12.425,4.811v2.506c-3.807-1.805-7.916-3.408-12.425-4.711V37.878z M92.393,29.16
		c4.71,0.702,9.22,1.704,13.528,2.906v3.007c-4.309-1.203-8.818-2.105-13.528-2.906V29.16z M92.393,34.371
		c4.71,0.702,9.22,1.704,13.528,2.906v2.605c-4.309-1.202-8.818-2.104-13.528-2.906V34.371z M74.556,27.657
		c5.311,0.1,10.521,0.501,15.433,1.203v3.006c-5.012-0.701-10.122-1.103-15.433-1.203V27.657z M74.556,32.868
		c5.311,0.1,10.521,0.501,15.433,1.202v2.605c-5.012-0.701-10.122-1.103-15.433-1.202V32.868z M55.917,28.56
		c5.11-0.602,10.521-0.902,16.033-0.902c0.1,0,0.2,0,0.301,0v3.006c-0.101,0-0.201,0-0.301,0c-5.512,0-10.923,0.301-16.033,0.902
		V28.56z M55.917,33.771c5.21-0.602,10.521-0.902,16.033-0.902c0.1,0,0.2,0,0.301,0v2.705c-0.101,0-0.201,0-0.301,0
		c-5.512,0-10.923,0.301-16.033,0.902V33.771z M35.474,32.868c5.612-1.703,11.725-3.106,18.238-4.008v3.006
		c-6.514,0.902-12.626,2.204-18.238,3.908V32.868z M35.474,38.079c5.612-1.703,11.725-3.106,18.238-4.009v2.706
		c-6.514,0.801-12.626,2.204-18.238,3.908V38.079z M20.644,39.081c3.707-2.004,7.916-3.809,12.525-5.411v2.905
		c-4.509,1.504-8.718,3.308-12.525,5.312V39.081z M20.644,44.192c3.707-2.005,7.916-3.809,12.525-5.412v2.605
		c-4.509,1.504-8.718,3.307-12.525,5.311V44.192z M7.816,48.901c2.705-3.106,6.213-6.012,10.522-8.618v2.806
		c-4.109,2.406-7.616,5.011-10.522,7.917V48.901z M7.816,54.112c2.705-3.106,6.213-6.013,10.522-8.617v2.404
		c-4.109,2.405-7.616,5.01-10.522,7.916V54.112z M5.512,52.008v1.604c-0.902,1.103-1.804,2.305-2.506,3.507
		C3.607,55.415,4.509,53.712,5.512,52.008z M5.512,57.219v1.303c-0.802,1.002-1.503,2.005-2.205,3.007
		C3.908,60.024,4.609,58.622,5.512,57.219z M6.715,85.177c-1.504-1.904-2.606-3.908-3.408-6.012
		c0.902,1.503,2.104,3.006,3.408,4.408V85.177z M6.715,80.267c-1.705-2.205-2.907-4.51-3.709-6.814
		c1.003,1.704,2.205,3.307,3.709,4.911V80.267z M19.44,95.799c-4.108-2.405-7.716-5.011-10.421-7.917v-1.903
		c2.905,2.705,6.412,5.211,10.421,7.415V95.799z M19.44,90.89c-4.108-2.406-7.716-5.012-10.421-7.917v-2.205
		c2.905,2.706,6.412,5.211,10.421,7.416V90.89z M35.474,102.513c-5.01-1.604-9.619-3.406-13.628-5.511v-2.506
		c4.108,2.104,8.719,3.909,13.628,5.412V102.513z M35.474,97.703c-5.01-1.503-9.619-3.407-13.628-5.512v-2.806
		c4.108,2.104,8.719,3.908,13.628,5.411V97.703z M57.62,107.022c-7.115-0.701-13.729-2.004-19.842-3.809v-2.604
		c6.113,1.703,12.827,3.007,19.842,3.708V107.022z M57.62,102.112c-7.115-0.801-13.729-2.004-19.842-3.808v-3.007
		c6.113,1.704,12.827,3.007,19.842,3.707V102.112z M81.771,107.423c-3.207,0.201-6.514,0.301-9.82,0.301
		c-4.108,0-8.217-0.2-12.126-0.5v-2.706c3.909,0.3,8.018,0.501,12.126,0.501c3.307,0,6.613-0.1,9.82-0.301V107.423z M81.771,102.614
		c-3.207,0.199-6.514,0.3-9.82,0.3c-4.108,0-8.217-0.2-12.126-0.501v-3.006c3.909,0.301,8.018,0.501,12.126,0.501
		c3.307,0,6.613-0.101,9.82-0.302V102.614z M84.075,102.413v-3.006c7.717-0.702,15.031-2.004,21.745-3.809v3.006
		C99.207,100.408,91.892,101.712,84.075,102.413z M105.921,103.314c-6.714,1.904-14.029,3.206-21.745,3.909v-2.706
		c7.716-0.702,15.031-2.005,21.745-3.808V103.314z M127.565,93.896c-5.311,3.508-11.924,6.513-19.439,8.818v-2.605
		c7.415-2.205,13.929-5.111,19.439-8.519V93.896z M127.565,89.085c-5.311,3.508-11.924,6.514-19.439,8.818v-3.006
		c7.415-2.205,13.929-5.111,19.439-8.519V89.085z M129.87,92.292v-2.305c4.71-3.307,8.318-6.915,10.823-10.822
		C138.89,83.976,135.081,88.384,129.87,92.292z M129.87,87.481v-2.705c4.911-3.407,8.618-7.215,11.124-11.324
		C139.29,78.563,135.482,83.374,129.87,87.481z M129.87,82.271v-3.206h-2.305v4.81c-5.311,3.508-11.924,6.514-19.439,8.818v-4.509
		h-2.306v5.11c-6.613,1.904-14.028,3.207-21.745,3.908v-3.809h-2.305v3.908c-3.207,0.201-6.514,0.301-9.82,0.301
		c-4.108,0-8.217-0.199-12.126-0.5v-3.809H57.52v3.508c-7.114-0.803-13.729-2.005-19.841-3.809v-5.01h-2.306v4.309
		c-5.01-1.504-9.619-3.407-13.628-5.512v-6.013H19.44v5.011c-4.209-2.404-7.716-5.011-10.421-7.916v-7.516H6.715v4.81
		c-1.805-2.405-3.107-4.91-3.809-7.415c0.602-1.904,1.403-3.809,2.605-5.713v4.91h2.305v-7.916
		c2.705-3.106,6.213-6.013,10.522-8.617v7.314h2.305v-8.617c3.707-2.005,7.916-3.809,12.525-5.412v6.313h2.305V42.89
		c5.612-1.704,11.725-3.107,18.238-4.01v6.214h2.305V38.58c5.211-0.602,10.522-0.901,16.033-0.901c0.101,0,0.201,0,0.301,0v6.713
		h2.306v-6.713c5.311,0.1,10.521,0.5,15.432,1.201v7.416h2.305v-7.115c4.71,0.702,9.22,1.704,13.528,2.906v7.816h2.305v-7.215
		c4.51,1.403,8.718,3.006,12.426,4.811v7.014h2.305v-5.912c4.609,2.506,8.519,5.312,11.524,8.317v7.216h2.305v-4.61
		c2.104,2.505,3.507,5.211,4.31,8.017C139.592,73.052,135.683,77.962,129.87,82.271z"/>
</g>
</svg>
