<?xml version="1.0" encoding="utf-8"?>
<!-- Generator: Adobe Illustrator 16.0.0, SVG Export Plug-In . SVG Version: 6.00 Build 0)  -->
<!DOCTYPE svg PUBLIC "-//W3C//DTD SVG 1.1//EN" "http://www.w3.org/Graphics/SVG/1.1/DTD/svg11.dtd">
<svg version="1.1" id="_x35_0m" xmlns="http://www.w3.org/2000/svg" xmlns:xlink="http://www.w3.org/1999/xlink" x="0px" y="0px"
	 width="144px" height="144px" viewBox="0 0 144 144" enable-background="new 0 0 144 144" xml:space="preserve">
<rect y="38.012" fill="#010101" width="144" height="67.977"/>
<rect x="2.213" y="40.175" fill="#FCEE23" width="139.575" height="63.65"/>
<g>
	<g>
		<path fill="#231F20" d="M79.442,65.243c-0.356-0.604-0.804-1.129-1.34-1.586c-0.536-0.459-1.149-0.816-1.82-1.061
			c-0.682-0.258-1.385-0.381-2.133-0.381c-1.351,0-2.513,0.279-3.45,0.826c-0.949,0.547-1.721,1.285-2.301,2.211
			c-0.592,0.928-1.017,1.977-1.284,3.16c-0.269,1.186-0.402,2.402-0.402,3.664c0,1.205,0.134,2.377,0.402,3.518
			c0.268,1.139,0.692,2.166,1.284,3.082c0.592,0.914,1.352,1.641,2.301,2.188c0.948,0.547,2.1,0.826,3.45,0.826
			c1.843,0,3.283-0.59,4.321-1.764c1.039-1.184,1.664-2.736,1.899-4.668h5.829c-0.156,1.799-0.548,3.418-1.195,4.869
			s-1.485,2.68-2.534,3.707c-1.051,1.016-2.278,1.799-3.686,2.334s-2.959,0.805-4.646,0.805c-2.1,0-3.986-0.379-5.662-1.15
			c-1.676-0.76-3.094-1.82-4.244-3.16c-1.149-1.34-2.031-2.916-2.646-4.723c-0.614-1.811-0.926-3.766-0.926-5.852
			c0-2.145,0.301-4.133,0.926-5.975c0.615-1.844,1.497-3.439,2.646-4.814c1.15-1.373,2.568-2.445,4.244-3.215
			c1.676-0.781,3.563-1.162,5.662-1.162c1.508,0,2.938,0.223,4.276,0.682c1.34,0.457,2.546,1.117,3.606,1.988
			c1.062,0.869,1.943,1.953,2.637,3.238c0.692,1.283,1.128,2.758,1.306,4.422h-5.829C80.034,66.515,79.801,65.845,79.442,65.243z"/>
		<path fill="#231F20" d="M103.966,57.581l10.251,28.734h-6.254l-2.077-6.398H95.635l-2.145,6.398h-6.063L97.79,57.581H103.966z
			 M104.312,75.202l-3.45-10.541h-0.079l-3.573,10.541H104.312z"/>
		<path fill="#231F20" d="M128.958,57.581c1.72,0,3.171,0.258,4.376,0.783c1.207,0.523,2.179,1.217,2.938,2.076
			c0.748,0.859,1.307,1.844,1.653,2.938c0.346,1.094,0.513,2.244,0.513,3.416c0,1.15-0.167,2.289-0.513,3.395
			c-0.347,1.117-0.895,2.1-1.653,2.961c-0.759,0.859-1.73,1.551-2.938,2.076c-1.205,0.525-2.656,0.781-4.376,0.781h-6.332v10.297
			h-6.03V57.581H128.958z M127.305,71.104c0.692,0,1.352-0.055,1.999-0.156c0.637-0.111,1.206-0.313,1.687-0.625
			c0.479-0.313,0.87-0.748,1.172-1.307s0.446-1.295,0.446-2.211s-0.145-1.652-0.446-2.211s-0.682-0.994-1.172-1.307
			c-0.491-0.313-1.05-0.514-1.687-0.625c-0.636-0.111-1.307-0.156-1.999-0.156h-4.679v8.609h4.679V71.104z"/>
	</g>
	<polygon fill="#231F20" points="40.48,68.938 40.48,64.45 58.438,72.401 40.48,80.161 40.48,76.634 3.932,78.554 3.932,66.214 	"/>
</g>
</svg>
