<?xml version="1.0" encoding="utf-8"?>
<!-- Generator: Adobe Illustrator 16.0.0, SVG Export Plug-In . SVG Version: 6.00 Build 0)  -->
<!DOCTYPE svg PUBLIC "-//W3C//DTD SVG 1.1//EN" "http://www.w3.org/Graphics/SVG/1.1/DTD/svg11.dtd">
<svg version="1.1" id="_x35_0m" xmlns="http://www.w3.org/2000/svg" xmlns:xlink="http://www.w3.org/1999/xlink" x="0px" y="0px"
	 width="144px" height="144px" viewBox="0 0 144 144" enable-background="new 0 0 144 144" xml:space="preserve">
<rect y="38.012" fill="#010101" width="144" height="67.977"/>
<rect x="2.213" y="40.175" fill="#FCEE23" width="139.575" height="63.65"/>
<g>
	<g>
		<path fill="#010101" d="M30.073,85.729c-2.449,2.243-5.574,3.356-9.372,3.356c-4.716,0-8.416-1.507-11.111-4.532
			c-2.695-3.038-4.043-7.204-4.043-12.482c0-5.722,1.531-10.132,4.594-13.219c2.671-2.695,6.064-4.044,10.181-4.044
			c5.512,0,9.543,1.813,12.091,5.429c1.409,2.032,2.169,4.066,2.267,6.112h-6.848c-0.442-1.567-1.017-2.756-1.716-3.553
			c-1.249-1.422-3.086-2.132-5.537-2.132c-2.487,0-4.447,1.006-5.893,3.014c-1.446,2.01-2.156,4.852-2.156,8.526
			s0.759,6.433,2.278,8.256c1.519,1.827,3.442,2.744,5.795,2.744c2.4,0,4.227-0.783,5.488-2.351
			c0.699-0.846,1.274-2.107,1.728-3.797h6.774C34.005,80.584,32.499,83.488,30.073,85.729z"/>
		<path fill="#010101" d="M59.008,81.442H46.942l-2.267,6.737h-7.154l11.687-32.757h7.73L68.54,88.18h-7.423L59.008,81.442z
			 M57.098,75.794l-4.091-12.886L48.78,75.794H57.098z"/>
		<path fill="#010101" d="M86.597,76.395h-6.959v11.774h-6.786v-32.76h14.259c3.295,0,5.917,0.846,7.865,2.535
			c1.96,1.692,2.928,4.303,2.928,7.842c0,3.871-0.979,6.604-2.928,8.195C93.029,75.573,90.235,76.395,86.597,76.395z M89.807,69.572
			c0.895-0.784,1.336-2.034,1.336-3.737c0-1.702-0.453-2.916-1.348-3.639c-0.895-0.722-2.156-1.089-3.772-1.089h-6.384v9.64h6.384
			C87.638,70.747,88.9,70.355,89.807,69.572z"/>
	</g>
	<g>
		<path fill="#010101" d="M100.122,88.547h-2.608V75.107h4.079l2.438,10.562l2.426-10.562h4.031v13.427h-2.61v-9.089
			c0-0.258,0-0.625,0.011-1.104c0-0.465,0.012-0.832,0.012-1.089l-2.547,11.27h-2.732l-2.524-11.27c0,0.257,0,0.612,0.012,1.089
			c0,0.468,0.013,0.835,0.013,1.104V88.547L100.122,88.547z"/>
		<path fill="#010101" d="M119.037,88.914c-1.924,0-3.381-0.527-4.399-1.566c-1.359-1.287-2.046-3.123-2.046-5.538
			c0-2.462,0.687-4.313,2.046-5.536c1.018-1.043,2.487-1.568,4.399-1.568c1.923,0,3.38,0.525,4.398,1.568
			c1.36,1.236,2.033,3.074,2.033,5.536c0,2.415-0.673,4.263-2.033,5.538C122.417,88.387,120.96,88.914,119.037,88.914z
			 M121.684,85.313c0.649-0.821,0.979-1.983,0.979-3.504c0-1.507-0.331-2.671-0.979-3.49c-0.651-0.823-1.531-1.237-2.646-1.237
			c-1.116,0-1.997,0.403-2.658,1.225c-0.663,0.82-0.994,1.983-0.994,3.503c0,1.507,0.331,2.683,0.994,3.504
			c0.661,0.821,1.542,1.224,2.658,1.224C120.152,86.537,121.033,86.123,121.684,85.313z"/>
		<path fill="#010101" d="M138.454,75.107l-4.496,8.381v5.046h-2.806v-5.046l-4.642-8.381h3.308l2.793,5.856l2.67-5.856H138.454z"/>
	</g>
</g>
</svg>
