<?xml version="1.0" encoding="utf-8"?>
<!-- Generator: Adobe Illustrator 16.0.0, SVG Export Plug-In . SVG Version: 6.00 Build 0)  -->
<!DOCTYPE svg PUBLIC "-//W3C//DTD SVG 1.1//EN" "http://www.w3.org/Graphics/SVG/1.1/DTD/svg11.dtd">
<svg version="1.1" id="_x35_0m" xmlns="http://www.w3.org/2000/svg" xmlns:xlink="http://www.w3.org/1999/xlink" x="0px" y="0px"
	 width="144px" height="144px" viewBox="0 0 144 144" enable-background="new 0 0 144 144" xml:space="preserve">
<g>
	<rect y="0.157" fill="#1454A5" width="144" height="144"/>
	<g>
		<path fill="#FFFFFF" d="M30.57,60.138l8.329-20.671c0,0,31.11-9.279,68.23,0l7.591,20.671l5.479,5.27v20.46l-5.479,5.479
			l-0.421,15.611h-12.23l-0.209-15.191l-58-0.209l0.209,15.4H32.68l-0.42-16.03l-5.91-4.851v-20.66L30.57,60.138z"/>
		<path fill="#1454A5" d="M45.699,78.526H34.1c-2.1,0-3.8-1.699-3.8-3.8v-4.22c0-2.1,1.7-3.799,3.8-3.799h11.6
			c2.101,0,3.801,1.699,3.801,3.799v4.22C49.5,76.827,47.8,78.526,45.699,78.526z"/>
		<path fill="#1454A5" d="M112.19,78.526h-11.6c-2.101,0-3.801-1.699-3.801-3.8v-4.22c0-2.1,1.7-3.799,3.801-3.799h11.6
			c2.1,0,3.8,1.699,3.8,3.799v4.22C115.99,76.827,114.29,78.526,112.19,78.526z"/>
		<path fill="#1454A5" d="M42.88,43.107c0,0,24.729-6.64,60.9,0l5.539,16.05c0,0-52.96-2.21-71.42,0L42.88,43.107z"/>
	</g>
	<path fill="#FFFFFF" d="M128.399,136.287h-112.5c-4.67,0-8.47-3.8-8.47-8.471V15.308c0-4.67,3.8-8.471,8.47-8.471h112.5
		c4.671,0,8.471,3.801,8.471,8.471v112.499C136.88,132.487,133.07,136.287,128.399,136.287z M15.899,11.587
		c-2.05,0-3.72,1.67-3.72,3.721v112.499c0,2.051,1.67,3.721,3.72,3.721h112.5c2.051,0,3.721-1.67,3.721-3.721V15.308
		c0-2.051-1.67-3.721-3.721-3.721H15.899z"/>
</g>
</svg>
