<?xml version="1.0" encoding="UTF-8" standalone="no"?>
<!-- Generator: Adobe Illustrator 16.0.0, SVG Export Plug-In . SVG Version: 6.00 Build 0)  -->

<svg
   version="1.1"
   id="_x35_0m"
   x="0px"
   y="0px"
   width="144px"
   height="144px"
   viewBox="0 0 144 144"
   enable-background="new 0 0 144 144"
   xml:space="preserve"
   sodipodi:docname="car_1.svg"
   inkscape:version="1.2.1 (9c6d41e410, 2022-07-14)"
   xmlns:inkscape="http://www.inkscape.org/namespaces/inkscape"
   xmlns:sodipodi="http://sodipodi.sourceforge.net/DTD/sodipodi-0.dtd"
   xmlns="http://www.w3.org/2000/svg"
   xmlns:svg="http://www.w3.org/2000/svg"><defs
   id="defs13" /><sodipodi:namedview
   id="namedview11"
   pagecolor="#ffffff"
   bordercolor="#000000"
   borderopacity="0.25"
   inkscape:showpageshadow="2"
   inkscape:pageopacity="0.0"
   inkscape:pagecheckerboard="true"
   inkscape:deskcolor="#d1d1d1"
   showgrid="false"
   inkscape:zoom="5.4722222"
   inkscape:cx="51.807107"
   inkscape:cy="71.543147"
   inkscape:window-width="1920"
   inkscape:window-height="986"
   inkscape:window-x="-11"
   inkscape:window-y="-11"
   inkscape:window-maximized="1"
   inkscape:current-layer="g8" />
<g
   id="g8">
	<rect
   style="fill:#ffffff;stroke:#000000;stroke-width:0"
   id="rect303"
   width="70.72081"
   height="17.725889"
   x="10.050761"
   y="49.15736" /><rect
   style="fill:#ffffff;stroke:#000000;stroke-width:0"
   id="rect305"
   width="26.680202"
   height="10.050761"
   x="73.644669"
   y="56.467007" /><rect
   style="fill:#ffffff;stroke:#000000;stroke-width:0"
   id="rect307"
   width="9.8680201"
   height="4.93401"
   x="80.40609"
   y="51.715736" /><path
   fill="#AEAEAE"
   d="M105.034,88.516c0.34,5.735,5.277,10.108,11.014,9.756c5.736-0.341,10.108-5.277,9.767-11.014   c-0.34-5.736-5.277-10.108-11.014-9.768C109.065,77.843,104.693,82.779,105.034,88.516z M119.774,89.115l0.693-0.247   c0.847-0.294,0.34,1.117-0.07,1.833c-0.412,0.718-1.363,1.882-1.541,1l-0.153-0.718C118.551,90.185,118.998,89.386,119.774,89.115z    M118.668,84.731l0.141-0.729c0.176-0.882,1.141,0.269,1.564,0.975c0.411,0.705,0.94,2.115,0.093,1.845l-0.706-0.234   C118.974,86.329,118.504,85.542,118.668,84.731z M113.838,92.782l0.553-0.493c0.611-0.553,1.528-0.553,2.15-0.023l0.564,0.493   c0.669,0.588-0.8,0.858-1.622,0.858C114.648,93.617,113.167,93.382,113.838,92.782z M115.424,89.056   c-0.646,0-1.163-0.517-1.163-1.162c0-0.647,0.517-1.164,1.163-1.164c0.647,0,1.164,0.517,1.164,1.164   C116.588,88.527,116.071,89.056,115.424,89.056z M115.377,82.156c0.823-0.012,2.304,0.247,1.646,0.847l-0.553,0.493   c-0.611,0.541-1.528,0.553-2.151,0.023l-0.564-0.493C113.074,82.438,114.555,82.168,115.377,82.156z M110.394,88.951l0.706,0.223   c0.775,0.259,1.246,1.046,1.081,1.857l-0.141,0.729c-0.176,0.88-1.141-0.271-1.564-0.977   C110.065,90.079,109.547,88.681,110.394,88.951z M110.44,85.061c0.412-0.718,1.352-1.87,1.54-1l0.153,0.729   c0.166,0.799-0.281,1.61-1.058,1.868l-0.693,0.247C109.536,87.199,110.041,85.789,110.44,85.061z"
   id="path2" />
	<path
   fill="#AEAEAE"
   d="M18.536,88.516c0.341,5.735,5.278,10.108,11.014,9.756c5.736-0.341,10.108-5.277,9.768-11.014   c-0.353-5.736-5.277-10.108-11.013-9.768C22.556,77.843,18.195,82.779,18.536,88.516z M33.276,89.115l0.693-0.247   c0.847-0.294,0.341,1.117-0.07,1.833c-0.412,0.718-1.363,1.882-1.54,1l-0.153-0.718C32.042,90.185,32.5,89.386,33.276,89.115z    M32.159,84.731l0.141-0.729c0.176-0.882,1.14,0.269,1.563,0.975c0.411,0.705,0.94,2.115,0.094,1.845l-0.706-0.234   C32.476,86.329,32.006,85.542,32.159,84.731z M27.328,92.782l0.552-0.493c0.6-0.553,1.528-0.553,2.151-0.023l0.564,0.493   c0.67,0.588-0.799,0.858-1.622,0.858S26.658,93.382,27.328,92.782z M28.926,89.056c-0.646,0-1.164-0.517-1.164-1.162   c0-0.647,0.518-1.164,1.164-1.164c0.647,0,1.164,0.517,1.164,1.164C30.09,88.527,29.573,89.056,28.926,89.056z M28.879,82.156   c0.823-0.012,2.304,0.247,1.646,0.847l-0.552,0.493c-0.611,0.541-1.528,0.553-2.151,0.023l-0.564-0.493   C26.576,82.438,28.057,82.168,28.879,82.156z M23.896,88.951l0.705,0.223c0.776,0.259,1.246,1.046,1.093,1.857l-0.141,0.729   c-0.176,0.88-1.14-0.271-1.563-0.977C23.567,90.079,23.038,88.681,23.896,88.951z M23.943,85.061c0.411-0.718,1.352-1.87,1.54-1   l0.153,0.729c0.165,0.799-0.282,1.61-1.058,1.868l-0.694,0.247C23.026,87.199,23.531,85.789,23.943,85.061z"
   id="path4" />
	<path
   fill="#020202"
   d="M1.481,89.044l15.95,1.376v-1.834c-0.4-6.605,4.831-12.2,11.495-12.2c6.065,0,11.108,4.748,11.472,10.813   v3.455l63.531,0.694v-2.763c-0.4-6.594,4.831-12.2,11.494-12.2c6.066,0,11.108,4.748,11.473,10.813v4.384l14.728-0.775   c0.716-0.023,1.422-0.247,2.068-0.718c0.201-0.141,0.294-0.398,0.236-0.634l-0.423-1.069l0.493-8.028   c0.024-0.424-0.176-0.834-0.517-1.081l-1.141-0.811c-0.447-2.729-1.434-5.337-2.338-6.925c-0.153-0.269-0.354-0.481-0.6-0.622   c-7.476-4.326-12.083-5.442-23.132-7.288h-2.292c-13.165-6.841-21.158-11.248-28.974-13.952   c-7.734-2.668-15.292-3.654-31.089-3.654c-10.978,0-26.059,0.116-38.765,0.434c-1.904,0.048-3.761,0.095-5.548,0.152   c-0.87,0.025-1.082,0.554-0.47,1.176l1.035,1.035C6.1,54.182,3.82,58.331,2.327,63.867c-0.282,1.023-0.376,1.012-0.4,2.903v11.625   l-1.551,0.775C0.094,79.312,0,79.605,0,79.923l0.752,7.253C0.129,88.433,0.917,88.997,1.481,89.044z M132.715,87.787   c0-0.012,1.34-2.75,1.352-2.763c0.329-0.67,1.034-1.093,1.787-1.104l2.539-0.047c0.317,0,0.587,0.246,0.611,0.564   c0.059,0.917-0.023,1.646-0.188,2.574c-0.083,0.446-0.47,0.775-0.929,0.764h-5.172V87.787z M130.458,70.955   c2.879,0.012,5.254,0.224,8.028,0.869l1.54,3.833l-1.963,0.188l-1.469,1.069l-4.914-1.046c-0.858-1.34-1.41-2.539-1.787-4.208   C129.8,71.273,130.058,70.955,130.458,70.955z M72.439,70.438c0.177,0.152,0.4,0.282,0.683,0.388   c1.222,0.47,3.021,0.317,3.855-0.235c0.611,0.223,0.987,0.541,0.987,0.87s-0.364,0.635-0.94,0.858   c-1.129-0.8-3.726-0.729-4.643,0.152C70.359,71.884,70.653,70.908,72.439,70.438z M68.008,49.962   c10.167,0.834,15.728,2.633,21.063,5.63h0.012h0.012l9.768,5.078c0.2,0.8,1.023,4.221,1.292,5.336l-29.761-0.634L68.008,49.962z    M59.064,71.449c0-0.329,0.376-0.647,0.987-0.87c0.823,0.564,2.633,0.717,3.855,0.234c0.27-0.104,0.505-0.234,0.682-0.387   c1.787,0.47,2.068,1.445,0.047,2.021c-0.917-0.88-3.502-0.951-4.643-0.152C59.417,72.084,59.064,71.778,59.064,71.449z    M37.554,64.678l2.539-15.233c8.087-0.058,17.984-0.116,25.154,0.318L66.34,65.29L37.554,64.678z M10.813,62.444   c0.717-1.375,2.868-5.383,4.443-7.428c2.562-3.303,6.512-5.337,10.778-5.407c4.032-0.059,7.934-0.105,11.695-0.141l-3.444,15.162   l-20.534-0.435c-0.447-0.012-0.894-0.164-1.246-0.446L10.813,62.444z M2.374,67.758h1.317l1.927,1.493   c0.341,0.271,0.529,0.693,0.482,1.129l-0.482,4.289c-0.141,1.234-0.893,2.328-2.01,2.88l-1.222,0.612V67.758H2.374z"
   id="path6" />
</g>
</svg>
