<?xml version="1.0" encoding="utf-8"?>
<!-- Generator: Adobe Illustrator 16.0.0, SVG Export Plug-In . SVG Version: 6.00 Build 0)  -->
<!DOCTYPE svg PUBLIC "-//W3C//DTD SVG 1.1//EN" "http://www.w3.org/Graphics/SVG/1.1/DTD/svg11.dtd">
<svg version="1.1" id="_x35_0m" xmlns="http://www.w3.org/2000/svg" xmlns:xlink="http://www.w3.org/1999/xlink" x="0px" y="0px"
	 width="144px" height="144px" viewBox="0 0 144 144" enable-background="new 0 0 144 144" xml:space="preserve">
<g>
	<rect x="33.389" y="54.873" fill="#ADADAD" width="76.672" height="34.535"/>
	<g>
		<polygon fill="#010101" points="0,71.888 11.792,75.2 14.746,71.865 11.804,68.068 		"/>
		<path fill="#010101" d="M120.797,64.441v-5.391c0-0.314-0.247-0.562-0.562-0.562s-0.562,0.247-0.562,0.562v4.29l-8.625-8.435
			v-0.584H33.243v0.36c-0.034,0.022-0.079,0.022-0.112,0.056l-10.164,9.591v-5.761c0-0.314-0.247-0.562-0.562-0.562
			s-0.562,0.247-0.562,0.562v6.816l-6.424,6.054c-0.112,0.102-0.18,0.247-0.18,0.404s0.056,0.304,0.168,0.404l6.424,6.278v7.277
			c0,0.314,0.247,0.562,0.562,0.562s0.562-0.247,0.562-0.562v-6.178l10.164,9.929c0.034,0.033,0.079,0.056,0.124,0.078v0.36h77.795
			v-0.584l8.625-8.132v5.021c0,0.314,0.248,0.562,0.562,0.562c0.314,0,0.562-0.247,0.562-0.562v-6.088l7.784-7.344
			c0.111-0.102,0.179-0.248,0.179-0.405s-0.057-0.303-0.168-0.404L120.797,64.441z M16.622,71.865l5.222-4.931v10.041L16.622,71.865
			z M32.951,87.836l-9.996-9.76V65.879l9.996-9.422V87.836z M34.366,55.446h75.549v33.422H34.366V55.446z M111.049,87.869V56.49
			l8.625,8.434v14.814L111.049,87.869z M120.797,78.672V66.014l6.593,6.436L120.797,78.672z"/>
		<polygon fill="#010101" points="132.208,69.125 129.254,72.449 132.197,76.246 144,72.438 		"/>
		<path fill="#010101" d="M105.468,58.489H38.005c-0.314,0-0.562,0.247-0.562,0.562s0.247,0.562,0.562,0.562h67.463
			c0.314,0,0.562-0.247,0.562-0.562S105.771,58.489,105.468,58.489z"/>
		<path fill="#010101" d="M105.468,62.982H38.005c-0.314,0-0.562,0.246-0.562,0.562c0,0.313,0.247,0.562,0.562,0.562h67.463
			c0.314,0,0.562-0.248,0.562-0.562C106.029,63.229,105.771,62.982,105.468,62.982z"/>
		<path fill="#010101" d="M105.468,67.474H38.005c-0.314,0-0.562,0.247-0.562,0.562s0.247,0.562,0.562,0.562h67.463
			c0.314,0,0.562-0.247,0.562-0.562S105.771,67.474,105.468,67.474z"/>
		<path fill="#010101" d="M105.468,71.978H38.005c-0.314,0-0.562,0.247-0.562,0.562s0.247,0.562,0.562,0.562h67.463
			c0.314,0,0.562-0.247,0.562-0.562S105.771,71.978,105.468,71.978z"/>
		<path fill="#010101" d="M105.468,76.47H38.005c-0.314,0-0.562,0.247-0.562,0.562s0.247,0.562,0.562,0.562h67.463
			c0.314,0,0.562-0.247,0.562-0.562S105.771,76.47,105.468,76.47z"/>
		<path fill="#010101" d="M105.468,80.963H38.005c-0.314,0-0.562,0.246-0.562,0.562c0,0.314,0.247,0.562,0.562,0.562h67.463
			c0.314,0,0.562-0.247,0.562-0.562C106.029,81.209,105.771,80.963,105.468,80.963z"/>
		<path fill="#010101" d="M105.468,85.454H38.005c-0.314,0-0.562,0.248-0.562,0.562c0,0.314,0.247,0.562,0.562,0.562h67.463
			c0.314,0,0.562-0.247,0.562-0.562C106.029,85.702,105.771,85.454,105.468,85.454z"/>
	</g>
</g>
</svg>
