<?xml version="1.0" encoding="utf-8"?>
<!-- Generator: Adobe Illustrator 16.0.0, SVG Export Plug-In . SVG Version: 6.00 Build 0)  -->
<!DOCTYPE svg PUBLIC "-//W3C//DTD SVG 1.1//EN" "http://www.w3.org/Graphics/SVG/1.1/DTD/svg11.dtd">
<svg version="1.1" id="_x35_0m" xmlns="http://www.w3.org/2000/svg" xmlns:xlink="http://www.w3.org/1999/xlink" x="0px" y="0px"
	 width="144px" height="144px" viewBox="0 0 144 144" enable-background="new 0 0 144 144" xml:space="preserve">
<g>
	<g>
		<g>
			<defs>
				<polygon id="SVGID_3_" points="1,1 2,1 1,2 				"/>
			</defs>
			<clipPath id="SVGID_4_">
				<use xlink:href="#SVGID_3_"  overflow="visible"/>
			</clipPath>
		</g>
		<g>
			<defs>
				<polygon id="SVGID_5_" points="1,1 2,1 1,2 				"/>
			</defs>
			<defs>
				<polygon id="SVGID_6_" points="-1,-1 -2,-1 -1,-2 				"/>
			</defs>
			<clipPath id="SVGID_7_">
				<use xlink:href="#SVGID_5_"  overflow="visible"/>
			</clipPath>
			<clipPath id="SVGID_8_" clip-path="url(#SVGID_7_)">
				<use xlink:href="#SVGID_6_"  overflow="visible"/>
			</clipPath>
		</g>
	</g>
</g>
<g>
	<g>
		<g>
			<defs>
				<polygon id="SVGID_29_" points="1,1 2,1 1,2 				"/>
			</defs>
			<clipPath id="SVGID_11_">
				<use xlink:href="#SVGID_29_"  overflow="visible"/>
			</clipPath>
		</g>
		<g>
			<defs>
				<polygon id="SVGID_31_" points="1,1 2,1 1,2 				"/>
			</defs>
			<defs>
				<polygon id="SVGID_32_" points="-1,-1 -2,-1 -1,-2 				"/>
			</defs>
			<clipPath id="SVGID_12_">
				<use xlink:href="#SVGID_31_"  overflow="visible"/>
			</clipPath>
			<clipPath id="SVGID_16_" clip-path="url(#SVGID_12_)">
				<use xlink:href="#SVGID_32_"  overflow="visible"/>
			</clipPath>
		</g>
	</g>
</g>
<g>
	<path fill="#010101" d="M89.392,86.938V53.646c0.022-1.419,1.16-2.58,2.592-2.58h20.682c1.69,0,2.722,0.363,3.321,2.157
		l4.422,13.445c5.068,1.126,20.729,5.29,20.729,11.086v9.185h0.997c1.032,0,1.865,0.834,1.865,1.866v5.713
		c0,1.032-0.833,1.864-1.865,1.864H1.865C0.832,96.382,0,95.55,0,94.518v-5.713c0-1.032,0.832-1.866,1.865-1.866H89.392z"/>
	<path fill="#010101" d="M2.862,85.695V70.362c0.023-1.419,1.161-2.58,2.592-2.58h5.983l15.191,12l21.116,5.913H2.862L2.862,85.695z
		"/>
	<path fill="#010101" d="M78.997,85.695h7.896V75.7h-3.285C82.563,78.856,81.003,83.114,78.997,85.695z"/>
	<path fill="#FFFFFF" d="M109.076,56.016H96.207c-1.032,0-1.865,0.833-1.865,1.865V71.63c0,1.031,0.833,1.865,1.865,1.865h11.954
		c0.974,0,2.229-0.751,2.885-1.701l3.767-6.206l-2.44-7.414C111.797,56.391,110.766,56.016,109.076,56.016z"/>
	<path fill="#AEAEAE" d="M7.272,40.87l31.24-2.545l25.035,7.015l19.25,9.972c4.811,2.499-2.769,30.396-8.529,30.396H52.273
		l-25.093-7.026L1.842,58.655c-1.15-0.903-0.763-2.217-0.563-3.52c0.575-3.648,1.818-8.071,3.214-11.497
		C5.243,41.832,5.325,41.128,7.272,40.87z"/>
	<path fill="#FFFFFF" d="M17.033,81.624c6.733,0,12.178,5.455,12.178,12.189c0,6.733-5.456,12.177-12.178,12.177
		c-6.733,0-12.177-5.455-12.177-12.177C4.856,87.079,10.312,81.624,17.033,81.624z"/>
	<path fill="#AEAEAE" d="M17.033,83.303c5.795,0,10.499,4.703,10.499,10.499c0,5.807-4.704,10.499-10.499,10.499
		c-5.807,0-10.5-4.704-10.5-10.499C6.533,88.006,11.238,83.303,17.033,83.303z"/>
	<path fill="#FFFFFF" d="M17.033,88.429c2.968,0,5.373,2.404,5.373,5.373c0,2.968-2.405,5.373-5.373,5.373
		c-2.969,0-5.373-2.405-5.373-5.373C11.66,90.833,14.076,88.429,17.033,88.429z"/>
	<path fill="#FFFFFF" d="M123.857,81.624c6.733,0,12.177,5.455,12.177,12.189c0,6.733-5.455,12.177-12.177,12.177
		c-6.734,0-12.177-5.455-12.177-12.177C111.669,87.079,117.123,81.624,123.857,81.624z"/>
	<path fill="#AEAEAE" d="M123.857,83.303c5.807,0,10.5,4.703,10.5,10.499c0,5.807-4.705,10.499-10.5,10.499
		c-5.808,0-10.499-4.704-10.499-10.499C113.358,88.006,118.05,83.303,123.857,83.303z"/>
	<path fill="#FFFFFF" d="M123.857,88.429c2.968,0,5.372,2.404,5.372,5.373c0,2.968-2.404,5.373-5.372,5.373
		c-2.969,0-5.373-2.405-5.373-5.373C118.484,90.833,120.889,88.429,123.857,88.429z"/>
	<path fill="#FFFFFF" d="M45.388,81.624c6.733,0,12.188,5.455,12.188,12.189c0,6.733-5.455,12.177-12.188,12.177
		c-6.734,0-12.177-5.455-12.177-12.177C33.198,87.079,38.653,81.624,45.388,81.624z"/>
	<path fill="#AEAEAE" d="M45.388,83.303c5.807,0,10.499,4.703,10.499,10.499c0,5.807-4.704,10.499-10.499,10.499
		c-5.808,0-10.499-4.704-10.499-10.499C34.876,88.006,39.58,83.303,45.388,83.303z"/>
	<path fill="#FFFFFF" d="M45.388,88.429c2.968,0,5.372,2.404,5.372,5.373c0,2.968-2.404,5.373-5.372,5.373
		c-2.969,0-5.373-2.405-5.373-5.373C40.015,90.833,42.419,88.429,45.388,88.429z"/>
</g>
</svg>
