<?xml version="1.0" encoding="utf-8"?>
<!-- Generator: Adobe Illustrator 16.0.0, SVG Export Plug-In . SVG Version: 6.00 Build 0)  -->
<!DOCTYPE svg PUBLIC "-//W3C//DTD SVG 1.1//EN" "http://www.w3.org/Graphics/SVG/1.1/DTD/svg11.dtd">
<svg version="1.1" id="_x35_0m" xmlns="http://www.w3.org/2000/svg" xmlns:xlink="http://www.w3.org/1999/xlink" x="0px" y="0px"
	 width="144px" height="144px" viewBox="0 0 144 144" enable-background="new 0 0 144 144" xml:space="preserve">
<g>
	<g>
		<g>
			<defs>
				<polygon id="SVGID_5_" points="-213.87,1 -212.87,1 -213.87,2 				"/>
			</defs>
			<defs>
				<polygon id="SVGID_6_" points="-215.87,-1 -216.87,-1 -215.87,-2 				"/>
			</defs>
			<clipPath id="SVGID_4_">
				<use xlink:href="#SVGID_5_"  overflow="visible"/>
			</clipPath>
			<clipPath id="SVGID_7_" clip-path="url(#SVGID_4_)">
				<use xlink:href="#SVGID_6_"  overflow="visible"/>
			</clipPath>
		</g>
	</g>
</g>
<g>
	<g>
		<g>
			<defs>
				<polygon id="SVGID_31_" points="-213.87,1 -212.87,1 -213.87,2 				"/>
			</defs>
			<defs>
				<polygon id="SVGID_32_" points="-215.87,-1 -216.87,-1 -215.87,-2 				"/>
			</defs>
			<clipPath id="SVGID_8_">
				<use xlink:href="#SVGID_31_"  overflow="visible"/>
			</clipPath>
			<clipPath id="SVGID_11_" clip-path="url(#SVGID_8_)">
				<use xlink:href="#SVGID_32_"  overflow="visible"/>
			</clipPath>
		</g>
	</g>
</g>
<path fill="#0B0A0A" d="M71.999,144.157c-9.719,0-19.148-1.9-28.029-5.66c-8.57-3.63-16.27-8.82-22.879-15.43
	c-6.611-6.61-11.801-14.311-15.432-22.881c-3.748-8.879-5.658-18.309-5.658-28.029c0-9.72,1.898-19.15,5.658-28.029
	c3.631-8.57,8.82-16.271,15.432-22.881c6.609-6.61,14.309-11.8,22.879-15.43c8.881-3.76,18.311-5.66,28.029-5.66
	c9.721,0,19.15,1.9,28.031,5.66c8.57,3.63,16.27,8.819,22.881,15.43c6.609,6.609,11.799,14.311,15.43,22.881
	c3.758,8.879,5.658,18.31,5.658,28.029c0,9.721-1.9,19.15-5.658,28.029c-3.631,8.57-8.82,16.271-15.43,22.881
	c-6.611,6.609-14.311,11.8-22.881,15.43C91.149,142.257,81.72,144.157,71.999,144.157z"/>
<path fill="#FFFFFF" d="M71.999,10.427c-16.488,0-31.988,6.421-43.648,18.08c-11.66,11.66-18.08,27.16-18.08,43.65
	s6.42,31.989,18.08,43.65c11.66,11.66,27.16,18.079,43.648,18.079c16.49,0,31.99-6.419,43.652-18.079
	c11.658-11.661,18.078-27.16,18.078-43.65s-6.42-31.99-18.078-43.65C103.989,16.848,88.489,10.427,71.999,10.427z"/>
<g>
	<path fill="#010101" d="M61.681,95.196c-3.871,3.541-8.811,5.311-14.84,5.311c-7.451,0-13.311-2.39-17.58-7.17
		c-4.271-4.8-6.4-11.39-6.4-19.76c0-9.051,2.43-16.02,7.279-20.92c4.221-4.27,9.59-6.4,16.1-6.4c8.721,0,15.092,2.86,19.121,8.58
		c2.23,3.21,3.42,6.431,3.59,9.67H58.12c-0.699-2.479-1.609-4.359-2.711-5.629c-1.969-2.251-4.889-3.381-8.75-3.381
		c-3.939,0-7.039,1.59-9.32,4.76c-2.27,3.181-3.41,7.67-3.41,13.48c0,5.81,1.201,10.17,3.602,13.06c2.4,2.9,5.449,4.34,9.16,4.34
		c3.799,0,6.689-1.239,8.68-3.729c1.1-1.34,2.02-3.34,2.74-6.01h10.719C67.909,87.058,65.521,91.657,61.681,95.196z"/>
	<path fill="#010101" d="M108.011,99.058V75.927H87.759v23.131H77.04v-51.82h10.719v19.76h20.252v-19.76h10.76v51.82H108.011z"/>
</g>
</svg>
