<?xml version="1.0" encoding="utf-8"?>
<!-- Generator: Adobe Illustrator 16.0.0, SVG Export Plug-In . SVG Version: 6.00 Build 0)  -->
<!DOCTYPE svg PUBLIC "-//W3C//DTD SVG 1.1//EN" "http://www.w3.org/Graphics/SVG/1.1/DTD/svg11.dtd">
<svg version="1.1" id="_x35_0m" xmlns="http://www.w3.org/2000/svg" xmlns:xlink="http://www.w3.org/1999/xlink" x="0px" y="0px"
	 width="144px" height="144px" viewBox="0 0 144 144" enable-background="new 0 0 144 144" xml:space="preserve">
<path fill="#E32526" d="M71.999,144.157c-9.719,0-19.148-1.9-28.029-5.66c-8.57-3.63-16.27-8.82-22.879-15.43
	c-6.611-6.61-11.801-14.311-15.432-22.881c-3.748-8.879-5.658-18.309-5.658-28.029c0-9.72,1.898-19.15,5.658-28.029
	c3.631-8.57,8.82-16.271,15.432-22.881c6.609-6.61,14.309-11.8,22.879-15.43c8.881-3.76,18.311-5.66,28.029-5.66
	c9.721,0,19.15,1.9,28.031,5.66c8.57,3.63,16.27,8.819,22.881,15.43c6.609,6.609,11.799,14.311,15.43,22.881
	c3.758,8.879,5.658,18.31,5.658,28.029c0,9.721-1.9,19.15-5.658,28.029c-3.631,8.57-8.82,16.271-15.43,22.881
	c-6.611,6.609-14.311,11.8-22.881,15.43C91.149,142.257,81.72,144.157,71.999,144.157z"/>
<path fill="#FFFFFF" d="M71.999,10.427c-16.488,0-31.988,6.421-43.648,18.08c-11.66,11.66-18.08,27.16-18.08,43.65
	s6.42,31.989,18.08,43.65c11.66,11.66,27.16,18.079,43.648,18.079c16.49,0,31.99-6.419,43.652-18.079
	c11.658-11.661,18.078-27.16,18.078-43.65s-6.42-31.99-18.078-43.65C103.989,16.848,88.489,10.427,71.999,10.427z"/>
</svg>
