<?xml version="1.0" encoding="utf-8"?>
<!-- Generator: Adobe Illustrator 16.0.0, SVG Export Plug-In . SVG Version: 6.00 Build 0)  -->
<!DOCTYPE svg PUBLIC "-//W3C//DTD SVG 1.1//EN" "http://www.w3.org/Graphics/SVG/1.1/DTD/svg11.dtd">
<svg version="1.1" id="_x35_0m" xmlns="http://www.w3.org/2000/svg" xmlns:xlink="http://www.w3.org/1999/xlink" x="0px" y="0px"
	 width="144px" height="144px" viewBox="0 0 144 144" enable-background="new 0 0 144 144" xml:space="preserve">
<g>
	<g>
		<path fill="#3D93D0" d="M144,72.157c0,39.76-32.239,72-71.999,72c-39.761,0-72.001-32.24-72.001-72c0-39.77,32.23-72,72.001-72
			C111.771,0.157,144,32.397,144,72.157z"/>
		<path fill="#FFFFFF" d="M120.45,23.707C107.51,10.768,90.3,3.638,72.001,3.638c-18.301,0-35.511,7.119-48.45,20.069
			c-12.94,12.94-20.07,30.15-20.07,48.45s7.13,35.51,20.07,48.45c12.939,12.94,30.149,20.07,48.45,20.07
			c18.299,0,35.509-7.13,48.449-20.07s20.07-30.15,20.07-48.45S133.391,36.647,120.45,23.707z M72.001,136.577
			c-35.521,0-64.421-28.9-64.421-64.42s28.9-64.42,64.421-64.42c35.519,0,64.42,28.9,64.42,64.42S107.52,136.577,72.001,136.577z"/>
	</g>
	<g>
		<path fill="#FFFFFF" d="M46.62,54.077c6.57-8.58,16.92-13.37,27.71-12.82l1.57,0.08l-2.32,7.391l32.2-7.15l-22.29-24.33
			l-3.13,9.91l-5.31-0.27c-15.51-0.78-30.41,6.109-39.851,18.439l-4.37,5.71l11.41,8.75L46.62,54.077z"/>
		<path fill="#FFFFFF" d="M75.03,102.257l-7.13-0.93c-10.71-1.4-20.04-7.97-24.96-17.59l-0.72-1.4l7.56-1.68l-22.3-24.311
			l-9.91,31.461l10.141-2.251l2.42,4.741c7.079,13.818,20.5,23.279,35.899,25.289l7.13,0.931L75.03,102.257z"/>
		<path fill="#FFFFFF" d="M98.671,58.997c4.14,9.97,3.109,21.34-2.751,30.41l-0.849,1.32l-5.23-5.711l-9.91,31.471l32.2-7.15
			l-7.02-7.65L108,97.218c8.43-13.04,9.91-29.391,3.95-43.73l-2.759-6.641L95.91,52.368L98.671,58.997z"/>
	</g>
</g>
</svg>
