<?xml version="1.0" encoding="utf-8"?>
<!-- Generator: Adobe Illustrator 16.0.0, SVG Export Plug-In . SVG Version: 6.00 Build 0)  -->
<!DOCTYPE svg PUBLIC "-//W3C//DTD SVG 1.1//EN" "http://www.w3.org/Graphics/SVG/1.1/DTD/svg11.dtd">
<svg version="1.1" id="_x35_0m" xmlns="http://www.w3.org/2000/svg" xmlns:xlink="http://www.w3.org/1999/xlink" x="0px" y="0px"
	 width="144px" height="144px" viewBox="0 0 144 144" enable-background="new 0 0 144 144" xml:space="preserve">
<g>
	<g>
		<path fill="#3D93D0" d="M144,72.157c0,39.76-32.24,72-72.001,72c-39.759,0-71.999-32.24-71.999-72c0-39.77,32.229-72,71.999-72
			C111.77,0.157,144,32.397,144,72.157z"/>
		<path fill="#FFFFFF" d="M120.449,23.707C107.51,10.768,90.3,3.638,71.999,3.638c-18.3,0-35.51,7.119-48.449,20.069
			c-12.94,12.94-20.07,30.15-20.07,48.45s7.13,35.51,20.07,48.45c12.939,12.94,30.149,20.07,48.449,20.07
			c18.301,0,35.511-7.13,48.45-20.07c12.94-12.94,20.07-30.15,20.07-48.45S133.39,36.647,120.449,23.707z M71.999,136.577
			c-35.52,0-64.42-28.9-64.42-64.42s28.9-64.42,64.42-64.42c35.521,0,64.421,28.9,64.421,64.42S107.52,136.577,71.999,136.577z"/>
	</g>
	<g>
		<path fill="#FFFFFF" d="M96.52,54.077c-6.57-8.58-16.92-13.37-27.71-12.82l-1.569,0.08l2.319,7.391l-32.2-7.15l22.29-24.32
			l3.12,9.9l5.311-0.27c15.509-0.78,30.41,6.109,39.85,18.439l4.37,5.71l-11.41,8.75L96.52,54.077z"/>
		<path fill="#FFFFFF" d="M68.109,102.257l7.131-0.93c10.709-1.4,20.039-7.97,24.96-17.59l0.72-1.4l-7.561-1.68l22.3-24.311
			l9.91,31.461l-10.14-2.251l-2.42,4.741c-7.08,13.818-20.5,23.279-35.899,25.289l-7.131,0.931L68.109,102.257z"/>
		<path fill="#FFFFFF" d="M44.47,58.997c-4.14,9.97-3.11,21.34,2.75,30.41l0.85,1.32l5.229-5.711l9.91,31.471l-32.199-7.15
			l7.02-7.65l-2.89-4.469c-8.431-13.04-9.91-29.391-3.95-43.73l2.76-6.641l13.28,5.521L44.47,58.997z"/>
	</g>
</g>
</svg>
