<?xml version="1.0" encoding="utf-8"?>
<!-- Generator: Adobe Illustrator 16.0.0, SVG Export Plug-In . SVG Version: 6.00 Build 0)  -->
<!DOCTYPE svg PUBLIC "-//W3C//DTD SVG 1.1//EN" "http://www.w3.org/Graphics/SVG/1.1/DTD/svg11.dtd">
<svg version="1.1" id="_x35_0m" xmlns="http://www.w3.org/2000/svg" xmlns:xlink="http://www.w3.org/1999/xlink" x="0px" y="0px"
	 width="144px" height="144px" viewBox="0 0 144 144" enable-background="new 0 0 144 144" xml:space="preserve">
<g>
	<polygon fill="#010101" points="132.073,131.966 132.073,123.339 119.052,123.339 119.052,113.254 114.469,113.254 114.469,14.177 
		109.148,14.177 109.148,6.113 69.044,6.113 69.044,14.177 63.224,14.177 63.224,131.966 58.341,131.966 58.341,43.734 
		54.594,43.734 54.594,37.644 28.991,37.644 28.991,43.734 25.139,43.734 25.139,113.254 20.001,113.254 20.001,123.339 
		10.097,123.339 10.097,131.966 0,131.966 0,138.201 144,138.201 144,131.966 	"/>
	<g>
		<polygon fill="#9A9A9A" points="6.788,80.991 1.79,80.991 1.79,111.721 1.79,116.977 1.79,126.957 5.731,126.957 5.731,116.977 
			14.412,116.977 14.412,108.309 19.537,108.309 19.537,57.604 6.788,57.604 		"/>
		<polygon fill="#9A9A9A" points="136.826,95.173 136.826,47.623 119.052,47.623 119.052,108.309 125.53,108.309 125.53,116.977 
			137.612,116.977 137.612,128.746 142.339,128.746 142.339,116.977 142.339,113.254 142.339,95.173 		"/>
	</g>
	<rect x="28.991" y="51.821" fill="#FFFFFF" width="23.773" height="4.728"/>
	<rect x="28.991" y="61.134" fill="#FFFFFF" width="23.773" height="4.727"/>
	<rect x="28.991" y="70.432" fill="#FFFFFF" width="23.773" height="4.727"/>
	<rect x="28.991" y="79.729" fill="#FFFFFF" width="23.773" height="4.727"/>
	<rect x="28.991" y="89.041" fill="#FFFFFF" width="23.773" height="4.728"/>
	<rect x="28.991" y="98.34" fill="#FFFFFF" width="23.773" height="4.727"/>
	<rect x="28.991" y="107.64" fill="#FFFFFF" width="23.773" height="4.726"/>
	<rect x="28.991" y="116.937" fill="#FFFFFF" width="23.773" height="4.727"/>
	<rect x="66.894" y="23.076" fill="#FFFFFF" width="4.701" height="10.483"/>
	<rect x="76.591" y="23.076" fill="#FFFFFF" width="4.701" height="10.483"/>
	<rect x="86.303" y="23.076" fill="#FFFFFF" width="4.7" height="10.483"/>
	<rect x="95.704" y="23.076" fill="#FFFFFF" width="4.701" height="10.483"/>
	<rect x="105.105" y="23.076" fill="#FFFFFF" width="4.7" height="10.483"/>
	<rect x="67.202" y="41.712" fill="#FFFFFF" width="4.701" height="10.483"/>
	<rect x="76.9" y="41.712" fill="#FFFFFF" width="4.701" height="10.483"/>
	<rect x="86.612" y="41.712" fill="#FFFFFF" width="4.7" height="10.483"/>
	<rect x="96.012" y="41.712" fill="#FFFFFF" width="4.702" height="10.483"/>
	<rect x="105.413" y="41.712" fill="#FFFFFF" width="4.702" height="10.483"/>
	<rect x="67.512" y="60.36" fill="#FFFFFF" width="4.701" height="10.483"/>
	<rect x="77.209" y="60.36" fill="#FFFFFF" width="4.702" height="10.483"/>
	<rect x="86.919" y="60.36" fill="#FFFFFF" width="4.701" height="10.483"/>
	<rect x="96.321" y="60.36" fill="#FFFFFF" width="4.7" height="10.483"/>
	<rect x="105.723" y="60.36" fill="#FFFFFF" width="4.701" height="10.483"/>
	<rect x="67.808" y="79.009" fill="#FFFFFF" width="4.7" height="10.484"/>
	<rect x="77.519" y="79.009" fill="#FFFFFF" width="4.701" height="10.484"/>
	<rect x="87.229" y="79.009" fill="#FFFFFF" width="4.701" height="10.484"/>
	<rect x="96.631" y="79.009" fill="#FFFFFF" width="4.7" height="10.484"/>
	<rect x="106.032" y="79.009" fill="#FFFFFF" width="4.701" height="10.484"/>
	<rect x="68.116" y="97.646" fill="#FFFFFF" width="4.701" height="10.483"/>
	<rect x="77.828" y="97.646" fill="#FFFFFF" width="4.701" height="10.483"/>
	<rect x="87.538" y="97.646" fill="#FFFFFF" width="4.701" height="10.483"/>
	<rect x="96.94" y="97.646" fill="#FFFFFF" width="4.7" height="10.483"/>
	<rect x="106.329" y="97.646" fill="#FFFFFF" width="4.701" height="10.483"/>
	<rect x="68.426" y="116.293" fill="#FFFFFF" width="4.701" height="10.484"/>
	<rect x="78.138" y="116.293" fill="#FFFFFF" width="4.7" height="10.484"/>
	<rect x="87.847" y="116.293" fill="#FFFFFF" width="4.702" height="10.484"/>
	<rect x="97.248" y="116.293" fill="#FFFFFF" width="4.702" height="10.484"/>
	<rect x="106.639" y="116.293" fill="#FFFFFF" width="4.7" height="10.484"/>
</g>
</svg>
