<?xml version="1.0" encoding="utf-8"?>
<!-- Generator: Adobe Illustrator 16.0.0, SVG Export Plug-In . SVG Version: 6.00 Build 0)  -->
<!DOCTYPE svg PUBLIC "-//W3C//DTD SVG 1.1//EN" "http://www.w3.org/Graphics/SVG/1.1/DTD/svg11.dtd">
<svg version="1.1" id="_x35_0m" xmlns="http://www.w3.org/2000/svg" xmlns:xlink="http://www.w3.org/1999/xlink" x="0px" y="0px"
	 width="144px" height="144px" viewBox="0 0 144 144" enable-background="new 0 0 144 144" xml:space="preserve">
<g>
	<path fill="#0A0A0A" d="M138.354,43.977c-3.631-8.579-8.821-16.277-15.427-22.883c-6.606-6.607-14.315-11.806-22.884-15.428
		C91.161,1.912,81.732,0.001,72.02,0.001c-9.711,0-19.15,1.9-28.022,5.665c-8.58,3.622-16.279,8.82-22.884,15.428
		C14.487,27.699,9.297,35.397,5.665,43.977C1.913,52.858,0,62.287,0,72.001c0,9.712,1.902,19.15,5.665,28.022
		c3.622,8.579,8.822,16.277,15.429,22.883c6.605,6.607,14.314,11.806,22.883,15.428c8.883,3.754,18.312,5.667,28.023,5.667
		s19.15-1.902,28.023-5.667c8.578-3.622,16.277-8.82,22.883-15.428c6.606-6.605,11.806-14.313,15.428-22.883
		C142.087,91.142,144,81.713,144,72.001C144,62.287,142.108,52.849,138.354,43.977z"/>
	<path fill="#FFFFFF" d="M115.663,115.652c-3.409,3.411-7.162,6.364-11.158,8.843c0.051-0.394,0.091-0.799,0.091-1.214V78.99
		c0-5.361-4.391-9.741-9.742-9.741c-0.021,0-0.041,0-0.051,0l0,0H61.499c-2.975,0-5.797,0.626-8.356,1.74l31.958,34.659v17.633
		c0,0.739,0.091,1.457,0.253,2.154H55.176v-9.378h26.758L45.565,76.612c-3.105,3.654-4.988,8.378-4.988,13.547v32.475
		c0,0.91,0.092,1.8,0.254,2.661c-4.492-2.642-8.691-5.858-12.474-9.643C16.703,103.989,10.279,88.49,10.279,72.001
		c0-16.491,6.424-31.99,18.079-43.653c11.665-11.656,27.163-18.08,43.652-18.08c16.49,0,31.989,6.424,43.653,18.08
		c11.655,11.653,18.08,27.162,18.08,43.653C133.742,88.49,127.317,103.989,115.663,115.652z"/>
	<path fill="#010101" d="M71.129,62.572c9.287,0,16.804-7.487,16.804-16.806l6.08-0.01l-6.08-9.479H54.336v9.488
		C54.336,55.085,61.853,62.572,71.129,62.572z"/>
	<polygon fill="#010101" points="94.014,23.218 54.336,23.218 54.336,32.708 87.934,32.708 	"/>
</g>
</svg>
