<?xml version="1.0" encoding="utf-8"?>
<!-- Generator: Adobe Illustrator 16.0.0, SVG Export Plug-In . SVG Version: 6.00 Build 0)  -->
<!DOCTYPE svg PUBLIC "-//W3C//DTD SVG 1.1//EN" "http://www.w3.org/Graphics/SVG/1.1/DTD/svg11.dtd">
<svg version="1.1" id="_x35_0m" xmlns="http://www.w3.org/2000/svg" xmlns:xlink="http://www.w3.org/1999/xlink" x="0px" y="0px"
	 width="144px" height="144px" viewBox="0 0 144 144" enable-background="new 0 0 144 144" xml:space="preserve">
<g>
	<g>
		<g>
			<g>
				<g>
					<path fill="#FFD62C" d="M77.832,140.763c-3.208,3.208-8.466,3.208-11.674,0L3.223,77.837c-3.208-3.208-3.208-8.466,0-11.674
						L66.158,3.229c3.208-3.208,8.466-3.208,11.674,0l62.924,62.935c3.208,3.208,3.208,8.466,0,11.674L77.832,140.763z"/>
				</g>
			</g>
		</g>
		<g>
			<g>
				<g>
					<path fill="#010101" d="M71.995,144c-2.437,0-4.711-0.943-6.426-2.648L2.634,78.425c-1.695-1.715-2.639-3.988-2.639-6.424
						c0-2.427,0.944-4.711,2.648-6.416L65.58,2.649C67.284,0.944,69.568,0,72.005,0c2.427,0,4.71,0.944,6.416,2.649l62.936,62.936
						c1.705,1.705,2.648,3.989,2.648,6.416c0,2.436-0.934,4.709-2.648,6.424L78.42,141.352C76.705,143.057,74.432,144,71.995,144z
						 M71.995,1.654c-1.991,0-3.857,0.771-5.259,2.162L3.812,66.752c-1.401,1.4-2.163,3.259-2.163,5.249
						c0,1.988,0.772,3.856,2.163,5.257l62.925,62.937c1.401,1.399,3.258,2.161,5.259,2.161c1.989,0,3.857-0.771,5.247-2.161
						l62.937-62.927c1.39-1.399,2.162-3.258,2.162-5.257c0-1.99-0.772-3.858-2.162-5.249L77.242,3.827
						C75.852,2.416,73.984,1.654,71.995,1.654z"/>
				</g>
			</g>
		</g>
	</g>
	<g>
		<g>
			<g>
				<path fill="#010101" d="M50.039,64.712c-1.259,1.248-3.056,1.817-5.054,1.817h-6.904V47.405h6.904
					c1.988,0,3.786,0.578,5.054,1.838c2.152,2.141,1.939,4.779,1.939,7.662C51.968,59.769,52.191,62.56,50.039,64.712z
					 M47.43,51.911c-0.64-0.771-1.502-1.178-2.792-1.178h-2.822V63.21h2.822c1.29,0,2.152-0.406,2.792-1.188
					c0.69-0.862,0.812-2.233,0.812-5.126S48.13,52.784,47.43,51.911z"/>
			</g>
		</g>
		<g>
			<g>
				<path fill="#010101" d="M56.291,66.529V47.405h12.598v3.338h-8.872v4.478h7.552v3.34h-7.552v4.649h8.862v3.319H56.291z"/>
			</g>
		</g>
		<g>
			<g>
				<path fill="#010101" d="M84.785,66.529l-1.126-3.381h-6.791l-1.158,3.381h-3.899l6.954-19.136h2.923l6.984,19.136H84.785z
					 M80.329,53.059l-2.416,6.943h4.75L80.329,53.059z"/>
			</g>
		</g>
		<g>
			<g>
				<path fill="#010101" d="M103.969,64.712c-1.258,1.248-3.064,1.817-5.055,1.817h-6.902V47.405h6.902
					c1.991,0,3.787,0.578,5.055,1.838c2.153,2.141,1.939,4.779,1.939,7.662C105.898,59.769,106.123,62.56,103.969,64.712z
					 M101.361,51.911c-0.64-0.771-1.502-1.178-2.791-1.178h-2.822V63.21h2.822c1.289,0,2.151-0.406,2.791-1.188
					c0.701-0.862,0.812-2.233,0.812-5.126C102.163,54.003,102.062,52.784,101.361,51.911z"/>
			</g>
		</g>
		<g>
			<g>
				<path fill="#010101" d="M46.892,98.768V79.634h12.597v3.319h-8.862v4.486h7.543v3.33h-7.543v4.648h8.862v3.34H46.892V98.768z"/>
			</g>
		</g>
		<g>
			<g>
				<path fill="#010101" d="M74.959,98.768l-7.572-11.754v11.754H63.65V79.634h3.33l7.574,11.714V79.634h3.735v19.124h-3.33V98.768z
					"/>
			</g>
		</g>
		<g>
			<g>
				<path fill="#010101" d="M95.159,96.932c-1.269,1.258-3.065,1.836-5.055,1.836h-6.902V79.634h6.902
					c1.99,0,3.786,0.558,5.055,1.816c2.153,2.163,1.929,4.792,1.929,7.665C97.088,91.986,97.312,94.789,95.159,96.932z
					 M92.551,84.141c-0.649-0.781-1.503-1.188-2.792-1.188h-2.821v12.465h2.821c1.289,0,2.142-0.406,2.792-1.177
					c0.7-0.874,0.802-2.233,0.802-5.137C93.362,86.212,93.25,85.003,92.551,84.141z"/>
			</g>
		</g>
	</g>
</g>
</svg>
