<?xml version="1.0" encoding="utf-8"?>
<!-- Generator: Adobe Illustrator 16.0.0, SVG Export Plug-In . SVG Version: 6.00 Build 0)  -->
<!DOCTYPE svg PUBLIC "-//W3C//DTD SVG 1.1//EN" "http://www.w3.org/Graphics/SVG/1.1/DTD/svg11.dtd">
<svg version="1.1" id="_x35_0m" xmlns="http://www.w3.org/2000/svg" xmlns:xlink="http://www.w3.org/1999/xlink" x="0px" y="0px"
	 width="144px" height="144px" viewBox="0 0 144 144" enable-background="new 0 0 144 144" xml:space="preserve">
<g>
	<circle fill="#EC2227" cx="72" cy="72" r="72"/>
	<path fill="#FFFFFF" d="M120,81.851c0,1.359-1.11,2.459-2.47,2.459H26.46c-1.351,0-2.46-1.1-2.46-2.459V62.16
		c0-1.351,1.109-2.46,2.46-2.46h91.08c1.35,0,2.47,1.109,2.47,2.46v19.69H120z"/>
	<g>
		<path fill="#FFFFFF" d="M29.86,55.94h-8.37V36.51h8.37c1.2,0.021,2.209,0.161,3.009,0.421c1.36,0.449,2.471,1.27,3.31,2.469
			c0.681,0.971,1.14,2.011,1.38,3.141c0.24,1.131,0.37,2.2,0.37,3.221c0,2.579-0.52,4.77-1.56,6.57
			C34.96,54.729,32.79,55.94,29.86,55.94z M32.879,41.46c-0.62-1.05-1.859-1.58-3.7-1.58h-3.74v12.68h3.74
			c1.92,0,3.25-0.939,4.01-2.83c0.41-1.039,0.62-2.27,0.62-3.699C33.8,44.051,33.49,42.53,32.879,41.46z"/>
		<path fill="#FFFFFF" d="M49.58,56.479c-2.779,0-4.9-0.76-6.37-2.27c-1.97-1.85-2.95-4.529-2.95-8.02c0-3.561,0.98-6.23,2.95-8.02
			c1.47-1.511,3.59-2.271,6.37-2.271c2.78,0,4.9,0.761,6.371,2.271c1.959,1.779,2.94,4.459,2.94,8.02c0,3.49-0.98,6.16-2.94,8.02
			C54.48,55.72,52.36,56.479,49.58,56.479z M53.42,51.26c0.94-1.189,1.41-2.869,1.41-5.06c0-2.18-0.47-3.86-1.42-5.06
			c-0.951-1.19-2.221-1.79-3.831-1.79s-2.89,0.59-3.85,1.779C44.77,42.32,44.29,44,44.29,46.19c0,2.189,0.48,3.88,1.439,5.06
			c0.96,1.181,2.24,1.78,3.85,1.78S52.47,52.44,53.42,51.26z"/>
		<path fill="#FFFFFF" d="M85.2,55.94h-4.06l-7.94-13.8v13.8h-3.78V36.51h4.26l7.74,13.57V36.51h3.78V55.94z"/>
		<path fill="#FFFFFF" d="M97.58,56.479c-2.78,0-4.9-0.76-6.37-2.27c-1.97-1.85-2.95-4.529-2.95-8.02c0-3.561,0.979-6.23,2.95-8.02
			c1.47-1.511,3.59-2.271,6.37-2.271s4.899,0.761,6.37,2.271c1.959,1.779,2.939,4.459,2.939,8.02c0,3.49-0.98,6.16-2.939,8.02
			C102.479,55.72,100.36,56.479,97.58,56.479z M101.42,51.26c0.939-1.189,1.41-2.869,1.41-5.06c0-2.18-0.47-3.86-1.419-5.06
			c-0.95-1.19-2.22-1.79-3.83-1.79s-2.89,0.59-3.85,1.779C92.77,42.32,92.29,44,92.29,46.19c0,2.189,0.48,3.88,1.441,5.06
			c0.959,1.181,2.239,1.78,3.85,1.78S100.47,52.44,101.42,51.26z"/>
		<path fill="#FFFFFF" d="M124.109,36.51v3.44H118.3v15.99h-4.09V39.95h-5.84v-3.439L124.109,36.51L124.109,36.51z"/>
		<path fill="#FFFFFF" d="M41.76,99.45h-9.44v5h10.76v3.49H28.35v-19.43H42.6v3.439H32.32v4.129h9.44V99.45z"/>
		<path fill="#FFFFFF" d="M61.95,107.94h-4.06L49.95,94.14v13.801h-3.78v-19.43h4.26l7.74,13.568V88.511h3.78V107.94z"/>
		<path fill="#FFFFFF" d="M79.86,88.511v3.439H74.05v15.99h-4.09V91.95h-5.84v-3.439H79.86L79.86,88.511z"/>
		<path fill="#FFFFFF" d="M95.76,99.45h-9.441v5H97.08v3.49H82.35v-19.43H96.6v3.439h-10.28v4.129h9.441V99.45z"/>
		<path fill="#FFFFFF" d="M108.49,100.32h-4.19v7.62h-3.971v-19.43h9.53c1.36,0.029,2.41,0.189,3.141,0.5
			c0.73,0.309,1.36,0.76,1.87,1.359c0.42,0.489,0.76,1.04,1,1.629c0.239,0.591,0.369,1.281,0.369,2.041
			c0,0.92-0.229,1.83-0.699,2.721c-0.47,0.89-1.24,1.52-2.31,1.89c0.9,0.359,1.53,0.869,1.91,1.54c0.37,0.66,0.56,1.68,0.56,3.04
			v1.31c0,0.891,0.03,1.49,0.11,1.811c0.11,0.5,0.351,0.869,0.74,1.109v0.49h-4.47c-0.12-0.431-0.21-0.781-0.26-1.041
			c-0.11-0.539-0.16-1.1-0.171-1.67l-0.03-1.81c-0.02-1.24-0.24-2.069-0.68-2.479C110.5,100.52,109.69,100.32,108.49,100.32z
			 M110.96,96.79c0.81-0.37,1.21-1.101,1.21-2.189c0-1.182-0.391-1.971-1.171-2.371c-0.439-0.23-1.099-0.34-1.979-0.34h-4.72v5.22
			h4.6C109.81,97.1,110.5,97.001,110.96,96.79z"/>
	</g>
</g>
</svg>
