<?xml version="1.0" encoding="utf-8"?>
<!-- Generator: Adobe Illustrator 16.0.0, SVG Export Plug-In . SVG Version: 6.00 Build 0)  -->
<!DOCTYPE svg PUBLIC "-//W3C//DTD SVG 1.1//EN" "http://www.w3.org/Graphics/SVG/1.1/DTD/svg11.dtd">
<svg version="1.1" id="_x35_0m" xmlns="http://www.w3.org/2000/svg" xmlns:xlink="http://www.w3.org/1999/xlink" x="0px" y="0px"
	 width="144px" height="144px" viewBox="0 0 144 144" enable-background="new 0 0 144 144" xml:space="preserve">
<g>
	<g>
		<g>
			<g>
				<g>
					<g>
						<path fill="#FFFFFF" d="M4.582,100.536c-2.388,0-4.339-1.926-4.339-4.291v-48.49c0-2.365,1.951-4.291,4.339-4.291h134.837
							c2.388,0,4.338,1.926,4.338,4.291v48.49c0,2.365-1.951,4.291-4.338,4.291H4.582z"/>
					</g>
				</g>
				<g>
					<g>
						<g>
							<path fill="#878787" d="M139.419,43.709c2.266,0,4.094,1.815,4.094,4.058v48.492c0,2.242-1.828,4.058-4.094,4.058H4.582
								c-2.267,0-4.107-1.815-4.107-4.058V47.755c0-2.244,1.84-4.059,4.107-4.059h134.837V43.709z M139.419,43.222H4.582
								C2.06,43.222,0,45.257,0,47.755v48.49c0,2.498,2.06,4.534,4.582,4.534h134.837c2.522,0,4.581-2.036,4.581-4.534v-48.49
								C144,45.257,141.941,43.222,139.419,43.222L139.419,43.222z"/>
						</g>
					</g>
				</g>
			</g>
		</g>
	</g>
	<g>
		<g>
			<g>
				<path fill="#010101" d="M28.456,88.13V55.591h21.425v5.667H34.805v7.629H47.65v5.666H34.805v7.909h15.076v5.668H28.456z"/>
			</g>
		</g>
		<g>
			<g>
				<path fill="#010101" d="M68.49,88.13v-2.059c-1.596,1.595-3.107,2.289-5.85,2.289c-2.693,0-4.667-0.682-6.082-2.107
					c-1.279-1.329-1.961-3.242-1.961-5.351c0-3.79,2.608-6.897,8.129-6.897h5.617v-1.194c0-2.607-1.278-3.742-4.436-3.742
					c-2.278,0-3.338,0.55-4.57,1.964l-3.789-3.706c2.328-2.559,4.619-3.289,8.591-3.289c6.678,0,10.14,2.826,10.14,8.408v15.673
					h-5.79V88.13z M68.356,78.075h-4.705c-2.145,0-3.338,1.012-3.338,2.693c0,1.645,1.096,2.741,3.424,2.741
					c1.645,0,2.693-0.134,3.754-1.145c0.634-0.598,0.865-1.56,0.865-3.022V78.075z"/>
			</g>
		</g>
		<g>
			<g>
				<path fill="#010101" d="M89.05,88.41c-3.753,0-7.13-0.415-10.153-3.425l3.888-3.887c1.962,1.961,4.522,2.242,6.349,2.242
					c2.06,0,4.205-0.684,4.205-2.464c0-1.192-0.646-2.009-2.511-2.192l-3.741-0.365c-4.302-0.415-6.947-2.291-6.947-6.678
					c0-4.937,4.338-7.581,9.177-7.581c3.704,0,6.811,0.633,9.091,2.791l-3.656,3.705c-1.377-1.231-3.474-1.598-5.533-1.598
					c-2.375,0-3.376,1.098-3.376,2.279c0,0.865,0.367,1.877,2.462,2.06l3.741,0.366c4.705,0.451,7.081,2.974,7.081,6.995
					C99.153,85.899,94.68,88.41,89.05,88.41z"/>
			</g>
		</g>
		<g>
			<g>
				<path fill="#010101" d="M112.303,88.13c-4.838,0-6.899-3.426-6.899-6.813V69.533h-2.51v-4.522h2.51v-7.044h5.937v7.044h4.205
					v4.522h-4.205v11.418c0,1.378,0.645,2.146,2.059,2.146h2.146v5.021h-3.242V88.13z"/>
			</g>
		</g>
	</g>
</g>
</svg>
