<?xml version="1.0" encoding="utf-8"?>
<!-- Generator: Adobe Illustrator 16.0.0, SVG Export Plug-In . SVG Version: 6.00 Build 0)  -->
<!DOCTYPE svg PUBLIC "-//W3C//DTD SVG 1.1//EN" "http://www.w3.org/Graphics/SVG/1.1/DTD/svg11.dtd">
<svg version="1.1" id="_x35_0m" xmlns="http://www.w3.org/2000/svg" xmlns:xlink="http://www.w3.org/1999/xlink" x="0px" y="0px"
	 width="144px" height="144px" viewBox="0 0 144 144" enable-background="new 0 0 144 144" xml:space="preserve">
<g>
	<g>
		<g>
			<defs>
				<polygon id="SVGID_5_" points="1,-213.87 2,-213.87 1,-212.87 				"/>
			</defs>
			<defs>
				<polygon id="SVGID_6_" points="-1,-215.87 -2,-215.87 -1,-216.87 				"/>
			</defs>
			<clipPath id="SVGID_4_">
				<use xlink:href="#SVGID_5_"  overflow="visible"/>
			</clipPath>
			<clipPath id="SVGID_7_" clip-path="url(#SVGID_4_)">
				<use xlink:href="#SVGID_6_"  overflow="visible"/>
			</clipPath>
		</g>
	</g>
</g>
<g>
	<g>
		<g>
			<defs>
				<polygon id="SVGID_31_" points="1,-213.87 2,-213.87 1,-212.87 				"/>
			</defs>
			<defs>
				<polygon id="SVGID_32_" points="-1,-215.87 -2,-215.87 -1,-216.87 				"/>
			</defs>
			<clipPath id="SVGID_8_">
				<use xlink:href="#SVGID_31_"  overflow="visible"/>
			</clipPath>
			<clipPath id="SVGID_11_" clip-path="url(#SVGID_8_)">
				<use xlink:href="#SVGID_32_"  overflow="visible"/>
			</clipPath>
		</g>
	</g>
</g>
<path fill="#010101" d="M144,16.971l-1.618-1.99c-6.691,5.434-16.193-4.135-16.285-4.227l-1.207-1.231l-0.834,1.516
	c-11.43,20.663-22.898,30.873-34.11,30.282c-16.811-0.86-27.74-26.058-27.842-26.314l-0.822-1.939l-1.349,1.618
	C46.591,30.764,19.725,27.258,19.456,27.219l-0.771-0.102l-0.449,0.642C13.471,34.514,0.128,38.174,0,38.212l0.667,2.479
	c0.564-0.153,13.6-3.736,19.199-10.838c0.271,0.024,0.592,0.063,0.977,0.09L7.718,96.941l-0.604,0.437l0.412,0.563l-2.068,10.596
	l2.517,0.489l0.99-5.087l5.548,10.261l-0.514,6.769l2.556,0.192l0.461-5.973l12.099-11.892l1.566,14.397l2.555-0.283l-9.528-87.315
	c2.863,0.103,6.845,0.053,11.313-0.527c9.336-1.231,17.144-4.417,22.923-9.297l-12.74,65.149l-0.603,0.437l0.41,0.563l-2.066,10.597
	l2.517,0.488l0.988-5.086l5.548,10.262l-0.513,6.767l2.555,0.192l0.463-5.97L66.6,91.777l1.566,14.396l2.556-0.283l-9.465-86.724
	c3.557,6.948,13.139,22.834,27.111,24.555l-13.009,66.536l-0.604,0.437l0.412,0.565l-2.068,10.595l2.519,0.488l0.988-5.086
	l5.548,10.262l-0.514,6.767l2.556,0.192l0.463-5.982l12.098-11.893l1.565,14.396l2.556-0.283l-9.478-86.864
	c10.749-0.296,21.512-9.222,32.029-26.622l-12.674,64.801l-0.604,0.438l0.41,0.564l-2.067,10.595l2.517,0.488l0.988-5.084
	l5.548,10.261l-0.513,6.768l2.556,0.193l0.46-5.985l12.098-11.893l1.567,14.396l2.556-0.283l-9.593-87.853
	C130.414,17.613,137.798,22.005,144,16.971z M19.699,80.065l1.247-16.246l4.277,3.725l0.59,5.369L19.699,80.065z M26.185,76.418
	l2.235,20.458l-9.26-9.76l0.271-3.468l0.346,0.295L26.185,76.418z M21.176,60.622l1.348-17.646l2.273,20.793L21.176,60.622z
	 M18.248,65.399l-1.618-0.564l2.735-13.974L18.248,65.399z M18.042,68.046l-0.705,9.285l-2.634-2.687l1.426-7.28L18.042,68.046z
	 M18.89,90.571l9.414,9.914l-10.992,10.799L18.89,90.571z M14.1,77.715l2.966,3.018l-0.525,6.833l-0.271,0.257l0.232,0.243
	l-0.206,2.633l-5.536,4.021L14.1,77.715z M9.747,99.971l0.307-1.54l6.011-4.366l-1.181,15.41L9.747,99.971z M57.174,68.546
	L58.419,52.3l4.277,3.724l0.59,5.356L57.174,68.546z M63.659,64.911l2.235,20.459l-9.26-9.761l0.271-3.468l0.346,0.296
	L63.659,64.911z M58.664,49.116l1.348-17.646l2.272,20.806L58.664,49.116z M55.723,53.879l-1.618-0.564l2.735-13.973L55.723,53.879z
	 M55.517,56.538l-0.706,9.285l-2.634-2.684l1.426-7.281L55.517,56.538z M56.377,79.063l9.399,9.915l-10.992,10.8L56.377,79.063z
	 M51.574,66.21l2.967,3.018l-0.528,6.832l-0.269,0.256l0.231,0.243l-0.206,2.646l-5.535,4.021L51.574,66.21z M47.221,88.466
	l0.307-1.543l6.011-4.365l-1.181,15.41L47.221,88.466z M87.327,93.37l1.247-16.246l4.277,3.724l0.591,5.369L87.327,93.37z
	 M93.813,89.723l2.235,20.458l-9.26-9.761l0.271-3.467l0.346,0.294L93.813,89.723z M88.817,73.94l1.349-17.646l2.271,20.803
	L88.817,73.94z M85.876,78.703l-1.618-0.564l2.735-13.972L85.876,78.703z M85.67,81.362l-0.705,9.285l-2.634-2.684l1.425-7.281
	L85.67,81.362z M86.53,103.888l9.414,9.928l-10.992,10.8L86.53,103.888z M81.729,91.019l2.966,3.033l-0.527,6.818l-0.27,0.257
	l0.232,0.244l-0.207,2.646l-5.534,4.019L81.729,91.019z M77.374,113.276l0.309-1.542l6.011-4.366l-1.181,15.41L77.374,113.276z
	 M125.983,14.12l-0.654,0.078l-0.103-0.027c0.09-0.153,0.179-0.309,0.27-0.462C125.649,13.824,125.816,13.966,125.983,14.12z
	 M122.721,65.169l1.245-16.246l4.277,3.725l0.59,5.367L122.721,65.169z M129.206,61.521l2.235,20.458l-9.26-9.76l0.271-3.469
	l0.346,0.296L129.206,61.521z M124.211,45.738l1.348-17.646l2.272,20.805L124.211,45.738z M121.27,50.503l-1.619-0.565l2.737-13.973
	L121.27,50.503z M121.064,53.161l-0.708,9.299l-2.632-2.687l1.426-7.28L121.064,53.161z M121.925,75.686l9.412,9.916L120.344,96.4
	L121.925,75.686z M117.121,62.818l2.968,3.018l-0.528,6.833l-0.268,0.257l0.23,0.243l-0.206,2.633l-5.535,4.021L117.121,62.818z
	 M112.768,85.087l0.309-1.54l6.01-4.367l-1.183,15.41L112.768,85.087z"/>
</svg>
