<?xml version="1.0" encoding="UTF-8" standalone="no"?>
<!-- Generator: Adobe Illustrator 16.0.0, SVG Export Plug-In . SVG Version: 6.00 Build 0)  -->

<svg
   version="1.1"
   id="_x35_0m"
   x="0px"
   y="0px"
   width="144px"
   height="144px"
   viewBox="0 0 144 144"
   enable-background="new 0 0 144 144"
   xml:space="preserve"
   sodipodi:docname="family_wagon.svg"
   inkscape:version="1.2.1 (9c6d41e410, 2022-07-14)"
   xmlns:inkscape="http://www.inkscape.org/namespaces/inkscape"
   xmlns:sodipodi="http://sodipodi.sourceforge.net/DTD/sodipodi-0.dtd"
   xmlns="http://www.w3.org/2000/svg"
   xmlns:svg="http://www.w3.org/2000/svg"><defs
   id="defs15" /><sodipodi:namedview
   id="namedview13"
   pagecolor="#ffffff"
   bordercolor="#000000"
   borderopacity="0.25"
   inkscape:showpageshadow="2"
   inkscape:pageopacity="0.0"
   inkscape:pagecheckerboard="true"
   inkscape:deskcolor="#d1d1d1"
   showgrid="false"
   inkscape:zoom="5.4722222"
   inkscape:cx="51.807107"
   inkscape:cy="71.543147"
   inkscape:window-width="1920"
   inkscape:window-height="986"
   inkscape:window-x="-11"
   inkscape:window-y="-11"
   inkscape:window-maximized="1"
   inkscape:current-layer="g10" />
<g
   id="g10">
	<rect
   style="fill:#ffffff;stroke:#000000;stroke-width:0"
   id="rect251"
   width="70.903557"
   height="15.532995"
   x="10.416244"
   y="55.736042" /><rect
   style="fill:#ffffff;stroke:#000000;stroke-width:0"
   id="rect253"
   width="41.299492"
   height="9.3197966"
   x="60.852791"
   y="63.959393" /><rect
   style="fill:#ffffff;stroke:#000000;stroke-width:0"
   id="rect255"
   width="9.3197966"
   height="7.8578682"
   x="80.40609"
   y="58.477158" /><rect
   style="fill:#ffffff;stroke:#000000;stroke-width:0"
   id="rect257"
   width="4.5685277"
   height="4.5685277"
   x="88.263962"
   y="61.218273" /><path
   fill="#AEAEAE"
   d="M105.034,94.963c0.34,5.736,5.278,10.109,11.013,9.757c5.737-0.341,10.108-5.277,9.769-11.014   s-5.277-10.109-11.015-9.769C109.065,84.291,104.694,89.229,105.034,94.963z M119.775,95.563l0.691-0.247   c0.847-0.294,0.342,1.117-0.069,1.835c-0.411,0.717-1.363,1.881-1.54,0.998l-0.154-0.715   C118.552,96.632,118.997,95.833,119.775,95.563z M118.669,91.18l0.14-0.73c0.177-0.881,1.142,0.271,1.566,0.976   c0.41,0.705,0.938,2.117,0.092,1.847l-0.705-0.235C118.975,92.777,118.504,91.99,118.669,91.18z M113.839,99.23l0.553-0.494   c0.611-0.553,1.527-0.553,2.149-0.023l0.564,0.492c0.671,0.589-0.799,0.859-1.621,0.859   C114.649,100.064,113.168,99.83,113.839,99.23z M115.425,95.505c-0.647,0-1.164-0.518-1.164-1.164s0.517-1.164,1.164-1.164   s1.164,0.518,1.164,1.164C116.589,94.975,116.072,95.505,115.425,95.505z M115.377,88.604c0.824-0.012,2.305,0.247,1.646,0.847   l-0.553,0.493c-0.61,0.541-1.526,0.553-2.149,0.024l-0.564-0.495C113.074,88.886,114.555,88.617,115.377,88.604z M110.396,95.399   l0.704,0.223c0.776,0.258,1.247,1.046,1.082,1.857l-0.143,0.729c-0.175,0.882-1.139-0.271-1.563-0.977   C110.064,96.527,109.548,95.128,110.396,95.399z M110.441,91.508c0.41-0.718,1.352-1.868,1.54-1l0.151,0.729   c0.165,0.8-0.28,1.611-1.059,1.869l-0.69,0.247C109.536,93.647,110.042,92.237,110.441,91.508z"
   id="path2" />
	<path
   fill="#AEAEAE"
   d="M18.536,94.963c0.34,5.736,5.277,10.109,11.013,9.757c5.736-0.341,10.11-5.277,9.768-11.014   c-0.354-5.736-5.277-10.109-11.013-9.769C22.556,84.291,18.193,89.229,18.536,94.963z M33.274,95.563l0.693-0.247   c0.847-0.294,0.342,1.117-0.071,1.835c-0.411,0.717-1.361,1.881-1.538,0.998l-0.154-0.715   C32.042,96.632,32.498,95.833,33.274,95.563z M32.158,91.18l0.141-0.73c0.177-0.881,1.141,0.271,1.563,0.976   c0.413,0.705,0.941,2.117,0.094,1.847l-0.705-0.235C32.476,92.777,32.005,91.99,32.158,91.18z M27.328,99.23l0.551-0.494   c0.6-0.553,1.529-0.553,2.151-0.023l0.565,0.492c0.67,0.589-0.8,0.859-1.624,0.859C28.15,100.064,26.658,99.83,27.328,99.23z    M28.926,95.505c-0.646,0-1.163-0.518-1.163-1.164s0.517-1.164,1.163-1.164c0.647,0,1.164,0.518,1.164,1.164   C30.09,94.975,29.573,95.505,28.926,95.505z M28.88,88.604c0.822-0.012,2.303,0.247,1.645,0.847l-0.552,0.493   c-0.612,0.541-1.528,0.553-2.15,0.024l-0.565-0.495C26.575,88.886,28.056,88.617,28.88,88.604z M23.896,95.399l0.704,0.223   c0.774,0.258,1.245,1.046,1.093,1.857l-0.142,0.729c-0.177,0.882-1.139-0.271-1.563-0.977   C23.565,96.527,23.038,95.128,23.896,95.399z M23.942,91.508c0.411-0.718,1.352-1.868,1.54-1l0.151,0.729   c0.166,0.8-0.282,1.611-1.058,1.869l-0.693,0.247C23.026,93.647,23.531,92.237,23.942,91.508z"
   id="path4" />
	<path
   fill="#020202"
   d="M1.48,95.493l15.948,1.375v-1.834c-0.399-6.607,4.833-12.201,11.497-12.201   c6.065,0,11.107,4.749,11.473,10.814v3.455l63.532,0.693v-2.762c-0.399-6.595,4.83-12.201,11.494-12.201   c6.065,0,11.107,4.749,11.472,10.814v4.385l14.729-0.777c0.717-0.023,1.422-0.246,2.066-0.716c0.202-0.142,0.294-0.4,0.236-0.635   l-0.422-1.07l0.491-8.027c0.025-0.423-0.175-0.835-0.517-1.082l-1.139-0.81c-0.448-2.728-1.435-5.338-2.34-6.925   c-0.153-0.271-0.354-0.481-0.599-0.623c-7.476-4.324-12.085-5.442-23.132-7.286h-2.294c-13.163-6.842-21.157-11.248-28.975-13.953   c-7.734-2.667-15.292-3.655-31.089-3.655c-10.978,0-26.059,0.118-38.766,0.435c-1.903,0.046-3.761,0.095-5.547,0.152   c-0.869,0.024-1.081,0.553-0.47,1.176l1.035,1.034C6.1,60.63,3.817,64.778,2.325,70.316c-0.282,1.021-0.374,1.01-0.399,2.902   v11.625l-1.552,0.775C0.092,85.761,0,86.055,0,86.372l0.751,7.251C0.129,94.883,0.916,95.445,1.48,95.493z M132.714,94.235   c0-0.013,1.341-2.75,1.353-2.762c0.328-0.671,1.035-1.096,1.786-1.106l2.539-0.046c0.319,0,0.588,0.246,0.613,0.564   c0.057,0.916-0.025,1.645-0.188,2.573c-0.083,0.447-0.471,0.776-0.93,0.764h-5.173V94.235z M130.458,77.403   c2.881,0.011,5.255,0.223,8.03,0.868l1.538,3.833l-1.963,0.188l-1.47,1.069l-4.912-1.045c-0.859-1.34-1.41-2.539-1.786-4.21   C129.801,77.72,130.058,77.403,130.458,77.403z M72.439,76.885c0.177,0.153,0.399,0.283,0.682,0.39   c1.224,0.47,3.021,0.316,3.854-0.236c0.613,0.225,0.99,0.542,0.99,0.87c0,0.329-0.365,0.635-0.941,0.858   c-1.13-0.8-3.727-0.729-4.643,0.152C70.359,78.331,70.653,77.354,72.439,76.885z M68.009,56.411   c10.166,0.833,15.729,2.632,21.063,5.629h0.012h0.012l9.768,5.078c0.2,0.799,1.024,4.22,1.293,5.338l-29.762-0.637L68.009,56.411z    M59.063,77.896c0-0.328,0.376-0.646,0.989-0.87c0.822,0.564,2.633,0.718,3.854,0.236c0.271-0.106,0.505-0.236,0.682-0.389   c1.786,0.469,2.068,1.446,0.049,2.022c-0.919-0.883-3.504-0.953-4.645-0.153C59.416,78.531,59.063,78.225,59.063,77.896z    M37.554,71.126l2.539-15.233c8.088-0.059,17.982-0.118,25.154,0.318l1.093,15.526L37.554,71.126z M10.813,68.893   c0.717-1.375,2.868-5.384,4.442-7.429c2.564-3.303,6.514-5.336,10.778-5.406c4.034-0.058,7.935-0.106,11.697-0.142l-3.443,15.163   l-20.536-0.435c-0.445-0.012-0.893-0.164-1.246-0.445L10.813,68.893z M2.374,74.205h1.315l1.928,1.493   c0.34,0.27,0.528,0.694,0.482,1.129l-0.482,4.29c-0.142,1.234-0.893,2.327-2.011,2.88l-1.222,0.611V74.205H2.374z"
   id="path6" />
	<path
   fill="#AEAEAE"
   d="M19.041,47.653h0.271l1.021-3.139c1.024-3.139,3.949-5.253,7.253-5.253h17.725   c6.947,0,13.777,1.809,19.817,5.265l5.466,3.127h0.271c0.105,0,0.188,0.082,0.188,0.188v0.365c0,0.105-0.082,0.188-0.188,0.188   h-0.271l-2.197,2.021c-0.952,0.869-2.188,1.364-3.479,1.364h-3.749l0.153,0.834l-2.775-0.082l0.131-0.752H31.24l0.154,0.834   l-2.811,0.035l0.154-0.869h-5.267c-1.433,0-2.75-0.789-3.433-2.045l-0.728-1.341h-0.271c-0.105,0-0.188-0.082-0.188-0.188v-0.365   C18.864,47.735,18.946,47.653,19.041,47.653z"
   id="path8" />
</g>
</svg>
