<?xml version="1.0" encoding="utf-8"?>
<!-- Generator: Adobe Illustrator 16.0.0, SVG Export Plug-In . SVG Version: 6.00 Build 0)  -->
<!DOCTYPE svg PUBLIC "-//W3C//DTD SVG 1.1//EN" "http://www.w3.org/Graphics/SVG/1.1/DTD/svg11.dtd">
<svg version="1.1" id="_x35_0m" xmlns="http://www.w3.org/2000/svg" xmlns:xlink="http://www.w3.org/1999/xlink" x="0px" y="0px"
	 width="144px" height="144px" viewBox="0 0 144 144" enable-background="new 0 0 144 144" xml:space="preserve">
<g>
	<rect y="0.001" fill="#020202" width="144" height="143.999"/>
	<rect x="5.76" y="5.761" fill="#FFFFFF" width="132.479" height="132.479"/>
	<g>
		<path fill="#020202" d="M31.18,39.841c4.53,0,8.2-3.67,8.2-8.201c0-4.529-3.67-8.199-8.2-8.199s-8.2,3.67-8.2,8.199
			C22.979,36.171,26.649,39.841,31.18,39.841z"/>
		<ellipse fill="#020202" cx="117.362" cy="70.899" rx="5.57" ry="5.57"/>
		<path fill="#020202" d="M73.729,43.66c4.53,0,8.2-3.669,8.2-8.2c0-4.529-3.67-8.199-8.2-8.199c-4.529,0-8.2,3.67-8.2,8.199
			C65.52,39.991,69.2,43.66,73.729,43.66z"/>
		<path fill="#020202" d="M135.63,92.551l-8.891-13.32c-0.109-0.17-0.26-0.31-0.419-0.43c-0.201-0.291-0.44-0.46-0.701-0.46h-0.89
			h-11.18h-2.21l-10.891-4.181c-0.06-0.31-0.14-0.62-0.279-0.92l-11-24.771c-0.36-0.819-0.971-1.449-1.68-1.85
			c-0.401-0.3-0.921-0.49-1.49-0.49h-3.58H65.04h-3.49c-0.061,0-0.13,0.01-0.19,0.021c-1.439-0.021-2.859,0.851-3.51,2.31
			l-6.6,14.86l-3.17-17.89c-0.351-2-1.92-3.44-3.621-3.43c-0.01,0-0.02,0-0.039,0h-4.551H22.49H18.64c-0.66,0-1.25,0.25-1.66,0.629
			c-0.85,0.61-1.51,1.601-1.72,2.811L10.3,73.38l0.06,0.07c-0.239,0.47-0.39,0.99-0.39,1.551c0,1.869,1.52,3.389,3.39,3.389
			c0.28,0,0.561-0.049,0.82-0.109l0.07,0.08c1.36-0.37,2.52-1.641,2.81-3.32l4.39-24.76h1.041v32.11v32.829
			c0,2.541,1.81,4.621,4.009,4.621c2.211,0,4.011-2.08,4.011-4.621V82.391h1.33v32.829c0,2.541,1.81,4.621,4.01,4.621
			s4.01-2.08,4.01-4.621V82.391v-32.12h2.03l4.391,24.76c0.199,1.16,0.819,2.12,1.63,2.739c0.03,0.021,0.069,0.051,0.1,0.071
			c0.061,0.039,0.13,0.08,0.19,0.119c0.029,0.02,0.069,0.04,0.1,0.06c0.09,0.051,0.189,0.101,0.29,0.151l0,0l0,0
			c0.399,0.18,0.819,0.279,1.25,0.279c1.46,0.05,2.92-0.82,3.58-2.31l9.859-22.21h1.75v1.409L54.26,94.12h10.77v21.1
			c0,2.541,1.79,4.621,3.97,4.621c2.181,0,3.971-2.08,3.971-4.621v-21.1h1.51v21.1c0,2.541,1.79,4.621,3.971,4.621
			c2.18,0,3.97-2.08,3.97-4.621v-21.1h10.77l-10.77-38.77v-1.41h1.31l9.86,22.21c0.109,0.25,0.249,0.49,0.41,0.71
			c0.25,0.5,0.649,0.909,1.189,1.109l0.101,0.04c0.3,0.171,0.62,0.291,0.949,0.37l13.75,5.281v3.259l-4.19,19.34h4.19v9.67
			c0,2.15,1.41,3.921,3.131,3.921c1.719,0,3.13-1.761,3.13-3.921v-9.67h2.21v9.67c0,2.15,1.41,3.921,3.13,3.921
			s3.13-1.761,3.13-3.921v-9.67h4.189l-4.189-19.34v-0.88l6.37,9.539c0.69,1.031,2.27,1.191,3.52,0.361
			C135.86,95.101,136.319,93.581,135.63,92.551z"/>
	</g>
</g>
</svg>
