<?xml version="1.0" encoding="utf-8"?>
<!-- Generator: Adobe Illustrator 16.0.0, SVG Export Plug-In . SVG Version: 6.00 Build 0)  -->
<!DOCTYPE svg PUBLIC "-//W3C//DTD SVG 1.1//EN" "http://www.w3.org/Graphics/SVG/1.1/DTD/svg11.dtd">
<svg version="1.1" id="_x35_0m" xmlns="http://www.w3.org/2000/svg" xmlns:xlink="http://www.w3.org/1999/xlink" x="0px" y="0px"
	 width="144px" height="144px" viewBox="0 0 144 144" enable-background="new 0 0 144 144" xml:space="preserve">
<g>
	<path fill="#010101" d="M0.713,66.381h101.43c0.394,0,0.724,1.265,0.724,2.817c0,1.563-0.319,2.818-0.724,2.818H0.713
		C0.318,72.017,0,70.751,0,69.198S0.318,66.381,0.713,66.381z"/>
	<path fill="#010101" d="M7.38,76.515c-0.648,0-1.17-0.532-1.17-1.17v-2.53h101.888v3.71H7.38V76.515z"/>
	<path fill="#010101" d="M78.396,83.235c-0.649,0-1.171-0.531-1.171-1.181v-3.594c0-0.648,0.533-1.17,1.171-1.17h31.255V56.342
		c0.011-0.894,0.733-1.628,1.626-1.628h13.017c1.063,0,1.713,0.234,2.085,1.361l2.786,8.455c3.19,0.712,13.037,3.328,13.037,6.976
		v5.775h0.628c0.648,0,1.17,0.531,1.17,1.169v3.595c0,0.648-0.531,1.181-1.17,1.181H78.396V83.235z"/>
	<path fill="#FFFFFF" d="M122.04,57.84h-8.093c-0.648,0-1.17,0.533-1.17,1.172v8.655c0,0.649,0.531,1.17,1.17,1.17h7.528
		c0.618,0,1.404-0.469,1.819-1.074l2.371-3.902l-1.53-4.669C123.752,58.074,123.104,57.84,122.04,57.84z"/>
	<path fill="#FFFFFF" d="M89.723,73.951c4.231,0,7.667,3.436,7.667,7.669c0,4.231-3.436,7.666-7.667,7.666
		c-4.233,0-7.668-3.435-7.668-7.666C82.055,77.387,85.489,73.951,89.723,73.951z"/>
	<path fill="#AEAEAE" d="M89.723,75.005c3.646,0,6.603,2.956,6.603,6.615c0,3.646-2.957,6.604-6.603,6.604
		c-3.647,0-6.604-2.957-6.604-6.604C83.118,77.961,86.075,75.005,89.723,75.005z"/>
	<path fill="#FFFFFF" d="M89.723,78.238c1.871,0,3.382,1.509,3.382,3.382c0,1.871-1.511,3.381-3.382,3.381
		c-1.872,0-3.382-1.51-3.382-3.381C86.341,79.747,87.861,78.238,89.723,78.238z"/>
	<path fill="#010101" d="M10.804,83.235c-0.648,0-1.168-0.531-1.168-1.181v-3.594c0-0.648,0.53-1.17,1.168-1.17h43.324
		c0.649,0,1.171,0.532,1.171,1.17v3.594c0,0.649-0.532,1.181-1.171,1.181H10.804z"/>
	<path fill="#FFFFFF" d="M23.544,73.951c4.233,0,7.667,3.436,7.667,7.669c0,4.231-3.434,7.666-7.667,7.666
		c-4.232,0-7.667-3.435-7.667-7.666C15.887,77.387,19.312,73.951,23.544,73.951z"/>
	<path fill="#AEAEAE" d="M23.544,75.005c3.648,0,6.604,2.956,6.604,6.615c0,3.646-2.956,6.604-6.604,6.604
		c-3.647,0-6.604-2.957-6.604-6.604C16.94,77.961,19.896,75.005,23.544,75.005z"/>
	<path fill="#FFFFFF" d="M23.544,78.238c1.871,0,3.383,1.509,3.383,3.382c0,1.871-1.512,3.381-3.383,3.381s-3.381-1.51-3.381-3.381
		C20.163,79.747,21.685,78.238,23.544,78.238z"/>
	<path fill="#FFFFFF" d="M41.377,73.951c4.233,0,7.669,3.436,7.669,7.669c0,4.231-3.436,7.666-7.669,7.666
		c-4.231,0-7.667-3.435-7.667-7.666C33.722,77.387,37.146,73.951,41.377,73.951z"/>
	<path fill="#AEAEAE" d="M41.377,75.005c3.648,0,6.605,2.956,6.605,6.615c0,3.646-2.957,6.604-6.605,6.604
		c-3.646,0-6.603-2.957-6.603-6.604C34.774,77.961,37.73,75.005,41.377,75.005z"/>
	<path fill="#FFFFFF" d="M41.377,78.238c1.873,0,3.383,1.509,3.383,3.382c0,1.871-1.51,3.381-3.383,3.381
		c-1.87,0-3.381-1.51-3.381-3.381C37.996,79.747,39.518,78.238,41.377,78.238z"/>
	<path fill="#FFFFFF" d="M131.334,73.951c4.232,0,7.668,3.436,7.668,7.669c0,4.231-3.436,7.666-7.668,7.666
		s-7.668-3.435-7.668-7.666C123.677,77.387,127.102,73.951,131.334,73.951z"/>
	<path fill="#AEAEAE" d="M131.334,75.005c3.647,0,6.604,2.956,6.604,6.615c0,3.646-2.957,6.604-6.604,6.604
		c-3.648,0-6.604-2.957-6.604-6.604C124.729,77.961,127.686,75.005,131.334,75.005z"/>
	<path fill="#FFFFFF" d="M131.334,78.238c1.872,0,3.382,1.509,3.382,3.382c0,1.871-1.51,3.381-3.382,3.381s-3.382-1.51-3.382-3.381
		C127.963,79.747,129.474,78.238,131.334,78.238z"/>
</g>
</svg>
