<?xml version="1.0" encoding="utf-8"?>
<!-- Generator: Adobe Illustrator 16.0.0, SVG Export Plug-In . SVG Version: 6.00 Build 0)  -->
<!DOCTYPE svg PUBLIC "-//W3C//DTD SVG 1.1//EN" "http://www.w3.org/Graphics/SVG/1.1/DTD/svg11.dtd">
<svg version="1.1" id="_x35_0m" xmlns="http://www.w3.org/2000/svg" xmlns:xlink="http://www.w3.org/1999/xlink" x="0px" y="0px"
	 width="144px" height="144px" viewBox="0 0 144 144" enable-background="new 0 0 144 144" xml:space="preserve">
<g>
	<path fill="#010101" d="M82.041,79.044l14.213-15.312c0.995-1.077,3.023-1.935,4.488-1.914c0,0,16.021,4.696,31.125-10.406
		c12.518-12.52,15.896-29.432,7.561-37.767c-8.345-8.347-25.257-4.958-37.767,7.551C86.55,36.31,91.243,52.332,91.243,52.332
		c0.022,1.464-0.835,3.482-1.912,4.487L73.728,71.305L56.082,54.896c-1.693-1.559-2.165-4.478-1.046-6.486l1.16-2.081
		c1.119-2.008,0.701-4.979-0.919-6.608L21.934,6.387c-1.632-1.631-2.79-1.465-3.607-0.648c-0.805,0.815-0.982,1.978,0.647,3.598
		l21.515,21.515c1.621,1.621,1.454,2.792,0.649,3.597c-0.817,0.816-1.978,0.983-3.6-0.647L16.024,12.296
		c-1.63-1.632-2.793-1.464-3.598-0.648c-0.814,0.806-0.982,1.977,0.649,3.599l21.515,21.513c1.63,1.622,1.452,2.794,0.647,3.599
		c-0.815,0.814-1.978,0.972-3.598-0.648L10.116,18.206c-1.632-1.633-2.792-1.465-3.597-0.649c-0.817,0.806-0.984,1.977,0.647,3.598
		l21.514,21.515c1.62,1.62,1.453,2.782,0.647,3.598c-0.814,0.805-1.977,0.982-3.607-0.649L4.207,24.114
		c-1.632-1.621-2.803-1.453-3.609-0.638c-0.805,0.815-0.982,1.977,0.649,3.598l33.344,33.343c1.619,1.621,4.6,2.039,6.608,0.92
		l2.081-1.161c2.008-1.118,4.927-0.647,6.485,1.046l16.138,17.351l-50.316,46.709c-1.779,1.643-1.843,4.382-0.127,6.098l6.235,6.233
		c1.714,1.715,4.455,1.664,6.095-0.126l46.407-49.991l45.475,48.884c1.549,1.694,4.151,1.736,5.783,0.115l5.909-5.91
		c1.633-1.622,1.569-4.224-0.114-5.782L82.041,79.044z"/>
</g>
</svg>
