<?xml version="1.0" encoding="utf-8"?>
<!-- Generator: Adobe Illustrator 16.0.0, SVG Export Plug-In . SVG Version: 6.00 Build 0)  -->
<!DOCTYPE svg PUBLIC "-//W3C//DTD SVG 1.1//EN" "http://www.w3.org/Graphics/SVG/1.1/DTD/svg11.dtd">
<svg version="1.1" id="_x35_0m" xmlns="http://www.w3.org/2000/svg" xmlns:xlink="http://www.w3.org/1999/xlink" x="0px" y="0px"
	 width="144px" height="144px" viewBox="0 0 144 144" enable-background="new 0 0 144 144" xml:space="preserve">
<g>
	<path fill="#3DB54A" d="M138.34,43.971c-3.63-8.57-8.82-16.271-15.43-22.881C116.3,14.48,108.6,9.291,100.029,5.66
		C91.149,1.9,81.72,0,72,0c-9.721,0-19.15,1.9-28.03,5.66c-8.57,3.631-16.27,8.82-22.88,15.43S9.29,35.4,5.659,43.971
		C1.899,52.85,0,62.281,0,72c0,9.721,1.899,19.15,5.659,28.029c3.631,8.57,8.82,16.271,15.431,22.881s14.31,11.801,22.88,15.43
		C52.85,142.1,62.279,144,72,144c9.72,0,19.149-1.9,28.029-5.66c8.57-3.629,16.271-8.82,22.881-15.43
		c6.609-6.609,11.8-14.311,15.43-22.881C142.1,91.15,144,81.721,144,72C144,62.281,142.1,52.85,138.34,43.971z"/>
	<g>
		<path fill="#FFFFFF" d="M53.26,94.689c-2.86,1.76-6.381,2.641-10.55,2.641c-6.87,0-12.49-2.381-16.88-7.141
			c-4.57-4.779-6.86-11.32-6.86-19.619c0-8.391,2.31-15.121,6.93-20.18c4.62-5.061,10.721-7.59,18.32-7.59
			c6.59,0,11.88,1.67,15.87,5.01c4,3.34,6.29,7.51,6.87,12.5H56.319c-0.819-3.541-2.819-6.01-6.01-7.42
			c-1.78-0.77-3.76-1.16-5.939-1.16c-4.17,0-7.601,1.58-10.28,4.73c-2.68,3.148-4.03,7.889-4.03,14.219
			c0,6.381,1.45,10.891,4.36,13.541c2.909,2.65,6.209,3.969,9.909,3.969c3.631,0,6.61-1.049,8.931-3.148
			c2.32-2.102,3.75-4.852,4.29-8.24H45.56v-8.65H67.15v27.809h-7.171l-1.09-6.469C56.8,91.951,54.93,93.68,53.26,94.689z"/>
		<path fill="#FFFFFF" d="M100.409,97.4c-7.409,0-13.07-2.02-16.979-6.051c-5.25-4.939-7.88-12.07-7.88-21.379
			c0-9.49,2.619-16.621,7.88-21.381c3.909-4.029,9.57-6.049,16.979-6.049c7.41,0,13.07,2.02,16.981,6.049
			c5.229,4.76,7.839,11.881,7.839,21.381c0,9.299-2.609,16.43-7.839,21.379C113.47,95.381,107.81,97.4,100.409,97.4z M110.64,83.471
			c2.51-3.16,3.76-7.66,3.76-13.5c0-5.811-1.26-10.311-3.78-13.48c-2.519-3.18-5.919-4.76-10.21-4.76c-4.29,0-7.709,1.58-10.27,4.75
			s-3.83,7.66-3.83,13.5s1.28,10.34,3.83,13.5s5.979,4.75,10.27,4.75C104.7,88.23,108.11,86.641,110.64,83.471z"/>
	</g>
</g>
</svg>
