<?xml version="1.0" encoding="UTF-8" standalone="no"?>
<!-- Generator: Adobe Illustrator 16.0.0, SVG Export Plug-In . SVG Version: 6.00 Build 0)  -->

<svg
   version="1.1"
   id="_x35_0m"
   x="0px"
   y="0px"
   width="144px"
   height="144px"
   viewBox="0 0 144 144"
   enable-background="new 0 0 144 144"
   xml:space="preserve"
   sodipodi:docname="government_building_2.svg"
   inkscape:version="1.2.1 (9c6d41e410, 2022-07-14)"
   xmlns:inkscape="http://www.inkscape.org/namespaces/inkscape"
   xmlns:sodipodi="http://sodipodi.sourceforge.net/DTD/sodipodi-0.dtd"
   xmlns="http://www.w3.org/2000/svg"
   xmlns:svg="http://www.w3.org/2000/svg"><defs
   id="defs23" /><sodipodi:namedview
   id="namedview21"
   pagecolor="#ffffff"
   bordercolor="#000000"
   borderopacity="0.25"
   inkscape:showpageshadow="2"
   inkscape:pageopacity="0.0"
   inkscape:pagecheckerboard="0"
   inkscape:deskcolor="#d1d1d1"
   showgrid="false"
   inkscape:zoom="5.4722222"
   inkscape:cx="55.461929"
   inkscape:cy="72"
   inkscape:window-width="1920"
   inkscape:window-height="986"
   inkscape:window-x="-11"
   inkscape:window-y="-11"
   inkscape:window-maximized="1"
   inkscape:current-layer="g18" />
<g
   id="g18">
	<rect
   x="6.2878003"
   y="52.443401"
   fill="#ffffff"
   width="129.41425"
   height="75.295937"
   id="rect155"
   style="stroke-width:1.3613" /><polygon
   fill="#020202"
   points="0.708,53.057 70.946,11.475 144,53.057  "
   id="polygon2" />
	<polygon
   fill="#AEAEAE"
   points="32.486,63.435 32.486,57.63 9.122,57.63 9.122,63.435 15.743,63.435 15.743,116.661 9.122,116.661    9.122,122.453 32.486,122.453 32.486,116.661 25.864,116.661 25.864,63.435  "
   id="polygon4" />
	<polygon
   fill="#AEAEAE"
   points="57.227,63.435 57.227,57.63 33.852,57.63 33.852,63.435 40.485,63.435 40.485,116.661    33.852,116.661 33.852,122.453 57.227,122.453 57.227,116.661 50.594,116.661 50.594,63.435  "
   id="polygon6" />
	<polygon
   fill="#AEAEAE"
   points="82.469,63.435 82.469,57.63 59.105,57.63 59.105,63.435 65.727,63.435 65.727,116.661    59.105,116.661 59.105,122.453 82.469,122.453 82.469,116.661 75.848,116.661 75.848,63.435  "
   id="polygon8" />
	<polygon
   fill="#AEAEAE"
   points="107.381,63.435 107.381,57.63 84.006,57.63 84.006,63.435 90.638,63.435 90.638,116.661    84.006,116.661 84.006,122.453 107.381,122.453 107.381,116.661 100.748,116.661 100.748,63.435  "
   id="polygon10" />
	<polygon
   fill="#AEAEAE"
   points="132.453,63.435 132.453,57.63 109.088,57.63 109.088,63.435 115.709,63.435 115.709,116.661    109.088,116.661 109.088,122.453 132.453,122.453 132.453,116.661 125.83,116.661 125.83,63.435  "
   id="polygon12" />
	<rect
   y="126.381"
   fill="#020202"
   width="141.841"
   height="6.145"
   id="rect14" />
	<path
   fill="#FFFFFF"
   d="M72.348,46.241c-6.328,0-11.475-5.146-11.475-11.475c0-6.329,5.146-11.476,11.475-11.476   s11.475,5.146,11.475,11.476C83.823,41.095,78.676,46.241,72.348,46.241z M72.348,25.779c-4.95,0-8.987,4.037-8.987,8.987   s4.037,8.987,8.987,8.987c4.952,0,8.987-4.037,8.987-8.987S77.311,25.779,72.348,25.779z"
   id="path16" />
</g>
</svg>
