<?xml version="1.0" encoding="utf-8"?>
<!-- Generator: Adobe Illustrator 16.0.0, SVG Export Plug-In . SVG Version: 6.00 Build 0)  -->
<!DOCTYPE svg PUBLIC "-//W3C//DTD SVG 1.1//EN" "http://www.w3.org/Graphics/SVG/1.1/DTD/svg11.dtd">
<svg version="1.1" id="_x35_0m" xmlns="http://www.w3.org/2000/svg" xmlns:xlink="http://www.w3.org/1999/xlink" x="0px" y="0px"
	 width="144px" height="144px" viewBox="0 0 144 144" enable-background="new 0 0 144 144" xml:space="preserve">
<g>
	<g>
		<g>
			<defs>
				<polygon id="SVGID_5_" points="1,-428.74 2,-428.74 1,-427.74 				"/>
			</defs>
			<defs>
				<polygon id="SVGID_6_" points="-1,-430.74 -2,-430.74 -1,-431.74 				"/>
			</defs>
			<clipPath id="SVGID_4_">
				<use xlink:href="#SVGID_5_"  overflow="visible"/>
			</clipPath>
			<clipPath id="SVGID_7_" clip-path="url(#SVGID_4_)">
				<use xlink:href="#SVGID_6_"  overflow="visible"/>
			</clipPath>
		</g>
	</g>
</g>
<g>
	<g>
		<g>
			<defs>
				<polygon id="SVGID_31_" points="1,-428.74 2,-428.74 1,-427.74 				"/>
			</defs>
			<defs>
				<polygon id="SVGID_32_" points="-1,-430.74 -2,-430.74 -1,-431.74 				"/>
			</defs>
			<clipPath id="SVGID_8_">
				<use xlink:href="#SVGID_31_"  overflow="visible"/>
			</clipPath>
			<clipPath id="SVGID_11_" clip-path="url(#SVGID_8_)">
				<use xlink:href="#SVGID_32_"  overflow="visible"/>
			</clipPath>
		</g>
	</g>
</g>
<g>
	<path fill="#010101" d="M30.674,94.117c-2.558,1.57-5.701,2.362-9.441,2.362c-6.14,0-11.183-2.132-15.093-6.383
		C2.047,85.821,0,79.974,0,72.542c0-7.504,2.071-13.521,6.2-18.054c4.13-4.531,9.6-6.797,16.385-6.797
		c5.896,0,10.622,1.499,14.204,4.482c3.569,2.985,5.628,6.713,6.152,11.184h-9.526c-0.73-3.167-2.521-5.383-5.384-6.64
		c-1.596-0.694-3.362-1.035-5.312-1.035c-3.728,0-6.797,1.414-9.197,4.228c-2.4,2.826-3.606,7.064-3.606,12.718
		c0,5.701,1.303,9.745,3.898,12.108c2.595,2.377,5.555,3.557,8.868,3.557c3.252,0,5.909-0.938,7.992-2.813
		c2.07-1.876,3.35-4.336,3.838-7.382H23.779v-7.734h19.308v24.873h-6.42l-0.975-5.785C33.84,91.656,32.16,93.216,30.674,94.117z"/>
	<path fill="#010101" d="M78.475,78.572h-9.842V95.25h-9.624V48.886h20.197c4.653,0,8.369,1.194,11.134,3.581
		c2.764,2.389,4.153,6.091,4.153,11.11c0,5.469-1.389,9.344-4.153,11.608C87.575,77.438,83.615,78.572,78.475,78.572z
		 M83.006,68.924c1.254-1.107,1.889-2.874,1.889-5.287c0-2.41-0.635-4.129-1.902-5.152c-1.266-1.022-3.044-1.548-5.335-1.548h-9.026
		v13.657h9.026C79.949,70.582,81.727,70.032,83.006,68.924z"/>
	<path fill="#010101" d="M125.033,88.55c2.29,0,4.142-0.257,5.567-0.757c2.705-0.961,4.058-2.753,4.058-5.384
		c0-1.535-0.671-2.716-2.01-3.557c-1.34-0.816-3.448-1.547-6.322-2.168l-4.91-1.097c-4.824-1.097-8.163-2.277-10-3.557
		c-3.132-2.145-4.691-5.482-4.691-10.038c0-4.154,1.511-7.602,4.533-10.354c3.021-2.741,7.455-4.117,13.302-4.117
		c4.885,0,9.052,1.29,12.499,3.886c3.448,2.595,5.263,6.346,5.421,11.28h-9.307c-0.17-2.79-1.389-4.775-3.655-5.944
		c-1.51-0.779-3.385-1.17-5.627-1.17c-2.497,0-4.483,0.5-5.981,1.511c-1.498,1.012-2.229,2.412-2.229,4.214
		c0,1.658,0.731,2.9,2.204,3.717c0.938,0.548,2.96,1.183,6.042,1.913l7.992,1.925c3.496,0.84,6.139,1.96,7.93,3.361
		c2.766,2.181,4.154,5.336,4.154,9.465c0,4.239-1.621,7.761-4.861,10.55c-3.239,2.789-7.82,4.202-13.728,4.202
		c-6.043,0-10.793-1.376-14.253-4.142c-3.459-2.754-5.19-6.554-5.19-11.364h9.247c0.292,2.117,0.865,3.702,1.729,4.749
		C118.515,87.588,121.208,88.55,125.033,88.55z"/>
</g>
</svg>
