<?xml version="1.0" encoding="utf-8"?>
<!-- Generator: Adobe Illustrator 16.0.0, SVG Export Plug-In . SVG Version: 6.00 Build 0)  -->
<!DOCTYPE svg PUBLIC "-//W3C//DTD SVG 1.1//EN" "http://www.w3.org/Graphics/SVG/1.1/DTD/svg11.dtd">
<svg version="1.1" id="_x35_0m" xmlns="http://www.w3.org/2000/svg" xmlns:xlink="http://www.w3.org/1999/xlink" x="0px" y="0px"
	 width="144px" height="144px" viewBox="0 0 144 144" enable-background="new 0 0 144 144" xml:space="preserve">
<g>
	<path fill="#010101" d="M143.854,100.003c-47.843,0-95.674,0-143.854,0c1.126-1.702,2.096-3.178,3.089-4.645
		c3.101-4.601,6.055-9.313,9.416-13.722c0.981-1.287,3.112-1.761,4.792-2.403c2.817-1.082,5.852-1.713,8.489-3.099
		c1.849-0.981,3.226-2.876,4.748-4.434c1.568-1.601,2.954-3.394,4.611-4.894c0.903-0.81,2.132-1.398,3.315-1.724
		c3.62-0.993,7.306-1.76,10.927-2.729c0.597-0.157,1.161-0.822,1.51-1.397c0.485-0.8,0.778-1.735,1.116-2.627
		c0.621-1.624,1.659-2.628,3.395-3.191c3.146-1.016,6.213-2.266,9.279-3.484c0.541-0.214,1.015-0.677,1.432-1.117
		c1.184-1.272,2.47-2.49,3.427-3.924c1.399-2.086,3.271-2.683,5.627-2.501c1.161,0.09,2.358-0.216,3.507-0.08
		c0.653,0.08,1.466,0.521,1.815,1.048c1.68,2.582,3.427,5.154,4.77,7.916c1.668,3.416,4.578,5.006,7.813,6.426
		c2.797,1.23,5.479,2.73,8.175,4.173c0.496,0.271,0.936,0.813,1.207,1.331c2.209,4.15,4.646,8.209,6.461,12.539
		c1.026,2.447,2.751,3.325,4.883,4.049c4.724,1.587,9.482,3.1,14.184,4.734c0.981,0.339,1.917,0.947,2.718,1.612
		c3.992,3.349,7.927,6.765,11.874,10.169c0.519,0.454,0.947,1.018,1.42,1.536C143.955,99.722,143.897,99.868,143.854,100.003z
		 M80.845,69.83c0.011,0.202,0.033,0.407,0.045,0.599c0.878,0,1.748,0,2.627,0c3.709,0.022,7.408,0.056,11.118,0.079
		c1.376,0.011,2.278,0.474,2.673,1.982c0.564,2.167,1.578,4.23,2.029,6.406c0.586,2.808,2.029,4.115,4.894,4.825
		c5.423,1.354,10.734,3.225,16.045,5.008c3.112,1.049,6.686,1.433,8.411,4.927c0.146,0.292,0.564,0.451,0.981,0.777
		c-0.981-3.279-2.131-4.622-4.825-5.729c-4.557-1.86-9.102-3.755-13.689-5.548c-2.549-0.99-4.476-2.378-5.48-5.14
		c-1.375-3.776-3.168-7.421-4.735-11.131c-0.43-1.015-0.914-1.86-2.21-1.521c-4.285,1.116-8.547,2.266-12.833,3.36
		C84.228,69.175,82.537,69.469,80.845,69.83z M69.535,77.329c0.023-0.123,0.035-0.261,0.058-0.384
		c-0.914-0.159-1.837-0.294-2.74-0.474c-4.635-0.9-9.133,0.632-13.699,0.723c-3.213,0.068-4.398,1.962-5.707,4.442
		c-3.326,6.258-1.195,5.322-8.423,6.639c-2.965,0.542-5.616,1.547-7.317,4.22c-0.451,0.698-0.802,1.465-1.196,2.198
		c0.168,0.112,0.338,0.238,0.508,0.351c0.338-0.372,0.676-0.733,1.014-1.106c1.444-1.557,2.763-3.314,5.041-3.675
		c3.823-0.61,7.634-1.219,11.479-1.691c1.534-0.192,2.468-0.857,3.066-2.211c0.857-1.949,1.827-3.846,2.593-5.83
		c0.475-1.24,1.207-1.645,2.492-1.759C60.99,78.365,65.262,77.815,69.535,77.329z M57.381,65.614
		c0.101,0.134,0.203,0.269,0.304,0.395c1.375-0.712,2.73-1.434,4.115-2.12c1.15-0.575,2.278-1.273,3.496-1.612
		c1.5-0.419,2.378-1.24,2.537-2.751c0.361-3.396,1.771-6.169,4.544-8.254c0.846-0.633,1.499-1.511,2.232-2.277
		c1.004-1.051,2.006-2.11,3.045-3.193c-3.168-0.956-5.3-0.235-7.317,2.403c-0.339,0.451-0.655,0.914-1.038,1.329
		c-3.01,3.317-4.928,7.148-5.785,11.558c-0.088,0.484-0.699,0.938-1.161,1.264C60.729,63.472,59.049,64.531,57.381,65.614z
		 M109.327,94.05c-0.79-0.563-1.499-1.363-2.378-1.645c-3.305-1.073-6.62-2.143-10.003-2.898c-2.3-0.506-3.923-1.634-5.322-3.462
		c-3.958-5.143-4.003-5.12-10.384-5.017c-0.485,0.012-0.97,0.123-1.443,0.188c0.902,0.578,1.736,0.939,2.615,1.04
		c2.887,0.337,4.386,1.96,4.679,4.781c0.204,1.974,1.376,2.682,3.237,2.965C96.653,90.961,102.935,92.315,109.327,94.05z
		 M36.769,78.488c-2.684-1.441-5.435-0.934-7.96-1.519c-0.09-0.024-0.192,0.088-0.305,0.134c-2.786,1.149-5.559,2.313-8.355,3.451
		c-1.579,0.642-3.033,1.341-3.947,2.931c-1.161,2.029-2.514,3.958-3.766,5.942c-0.62,0.99-1.263,1.996-1.758,3.057
		c-0.146,0.314,0.203,0.857,0.315,1.284c0.294-0.182,0.699-0.294,0.869-0.563c1.343-2.132,2.548-4.341,3.98-6.405
		c1.161-1.68,2.299-3.686,3.958-4.644c1.96-1.128,4.465-1.377,6.776-1.851C29.846,79.651,33.139,79.134,36.769,78.488z
		 M72.839,55.206c0,0.214,0,0.438-0.011,0.654c0.452,0.135,0.891,0.361,1.354,0.406c1.917,0.157,3.111,0.957,3.799,2.931
		c0.924,2.672,2.074,3.09,4.86,2.571c0.935-0.182,1.882-0.303,2.83-0.451c1.566-0.236,3.134-0.483,4.804-0.744
		c-2.154-2.2-3.451-2.414-5.909-1.239c-1.398,0.676-2.875,1.204-4.307,1.814c-0.113-0.159-0.227-0.314-0.338-0.474
		c0.27-0.732,0.867-1.511,0.755-2.176c-0.192-1.185-0.767-2.323-1.286-3.44c-0.157-0.337-0.699-0.767-1.014-0.73
		C76.516,54.563,74.678,54.903,72.839,55.206z M18.818,98.776c2.132,0,4.127,0.044,6.1-0.047c0.328-0.011,0.892-0.609,0.915-0.968
		c0.101-1.467,0.044-2.956,0.044-4.354C22.72,93.711,20.295,95.269,18.818,98.776z M35.833,75.637
		c1.725,0.892,2.729,0.644,3.462-0.755c0.62-1.194,1.115-2.446,1.826-3.585c1.398-2.268,1.376-2.425-1.184-3.135
		c-1.95-0.541-2.017-0.44-2.063,1.624C37.795,71.915,38.403,74.296,35.833,75.637z M71.825,90.623
		c-0.056-0.18-0.125-0.349-0.181-0.53c-1.702,0.123-3.394,0.238-5.096,0.395c-0.654,0.057-1.422,0.046-1.906,0.396
		c-1.58,1.149-3.124,2.354-4.511,3.719c-0.53,0.518-0.575,1.522-0.845,2.313c0.191,0.112,0.383,0.225,0.586,0.349
		C62.297,92.225,67.945,93.037,71.825,90.623z M78.962,62.817c-1.544-0.553-9.472,4.938-9.438,6.438
		C72.649,67.125,75.794,64.972,78.962,62.817z M85.772,95.854c-0.066,0.248-0.134,0.508-0.214,0.758
		c0.824,0.225,1.657,0.448,2.481,0.673c0.069-0.235,0.125-0.46,0.191-0.698C87.419,96.341,86.595,96.092,85.772,95.854z"/>
</g>
</svg>
