<?xml version="1.0" encoding="utf-8"?>
<!-- Generator: Adobe Illustrator 16.0.0, SVG Export Plug-In . SVG Version: 6.00 Build 0)  -->
<!DOCTYPE svg PUBLIC "-//W3C//DTD SVG 1.1//EN" "http://www.w3.org/Graphics/SVG/1.1/DTD/svg11.dtd">
<svg version="1.1" id="_x35_0m" xmlns="http://www.w3.org/2000/svg" xmlns:xlink="http://www.w3.org/1999/xlink" x="0px" y="0px"
	 width="144px" height="144px" viewBox="0 0 144 144" enable-background="new 0 0 144 144" xml:space="preserve">
<g>
	<path fill="#010101" d="M23.12,88.549c0.482-0.175,0.965-0.372,1.445-0.513c9.295-2.617,17.691-7.041,24.972-13.302
		c5.396-4.642,10.289-9.887,15.544-14.701c1.927-1.765,4.106-3.372,6.437-4.533c4.216-2.112,8.298-0.964,11.736,1.839
		c3.711,3.011,7.159,6.351,10.619,9.666c6.262,6,13.016,11.33,20.723,15.337c4.553,2.365,9.228,4.499,14.253,5.736
		c0.448,0.109,0.854,0.362,1.28,0.548c-0.011,0.186-0.011,0.372-0.021,0.558c-0.864,0.109-1.729,0.316-2.595,0.316
		c-7.728-0.053-15.457-0.207-23.186-0.207c-21.665,0.011-43.34,0.077-65.004,0.133c-4.642,0.011-9.284,0.054-13.914,0.043
		c-0.767,0-1.522-0.231-2.289-0.361C23.12,88.921,23.12,88.735,23.12,88.549z"/>
	<path fill="#010101" d="M47.72,75.019c-2.005,1.38-3.755,2.682-5.595,3.854c-5.134,3.284-10.694,5.67-16.398,7.806
		c-7.422,2.78-15.074,3.054-22.836,2.833c-0.547-0.011-1.116,0.154-1.642,0.034C0.8,89.447,0.417,89.054,0,88.791
		c0.352-0.285,0.668-0.67,1.073-0.821c2.912-1.129,5.923-2.036,8.758-3.318c5.54-2.495,9.973-6.513,14.231-10.762
		c2.146-2.134,4.27-4.389,6.743-6.096c3.273-2.255,6.732-1.817,9.786,0.776C42.936,70.563,45.169,72.699,47.72,75.019z"/>
	<path fill="#010101" d="M143.923,89.426c-1.851,0-3.767,0.284-5.551-0.056c-7.422-1.39-14.614-3.579-21.314-7.095
		c-3.918-2.057-7.641-4.466-11.472-6.688c-0.843-0.492-1.105-1.215-0.438-1.807c1.357-1.215,2.759-2.474,4.356-3.316
		c3.296-1.74,5.955-0.032,8.375,2.08c3.107,2.725,6.075,5.626,9.261,8.264c4.445,3.656,9.535,6.133,15.151,7.478
		c0.58,0.144,1.139,0.383,1.708,0.581C143.977,89.054,143.944,89.237,143.923,89.426z"/>
</g>
</svg>
