<?xml version="1.0" encoding="utf-8"?>
<!-- Generator: Adobe Illustrator 16.0.0, SVG Export Plug-In . SVG Version: 6.00 Build 0)  -->
<!DOCTYPE svg PUBLIC "-//W3C//DTD SVG 1.1//EN" "http://www.w3.org/Graphics/SVG/1.1/DTD/svg11.dtd">
<svg version="1.1" id="_x35_0m" xmlns="http://www.w3.org/2000/svg" xmlns:xlink="http://www.w3.org/1999/xlink" x="0px" y="0px"
	 width="144px" height="144px" viewBox="0 0 144 144" enable-background="new 0 0 144 144" xml:space="preserve">
<g>
	<path fill="#010101" d="M121.407,91.357c-40.448,0-80.906,0-121.354,0C0.032,91.231,0.021,91.104,0,90.976
		c1.391-0.499,2.762-1.062,4.174-1.497c11.557-3.505,21.712-9.454,30.527-17.665c4.748-4.419,9.241-9.114,13.957-13.554
		c2.294-2.155,4.727-4.238,7.881-5.108c4.971-1.381,9.252,0.148,12.927,3.42c5.047,4.504,9.91,9.209,14.902,13.777
		c5.788,5.3,12.258,9.611,19.173,13.33c5.46,2.931,11.28,4.854,17.069,6.937c0.298,0.105,0.584,0.254,0.87,0.392
		C121.46,91.114,121.439,91.231,121.407,91.357z M80.322,69.222c-0.213-0.275-0.383-0.584-0.638-0.817
		c-1.944-1.795-3.919-3.57-5.875-5.364c-2.41-2.209-4.683-4.6-7.275-6.553c-1.519-1.148-3.494-1.966-5.374-2.294
		c-3.038-0.543-5.842,0.498-8.083,2.654c-3.738,3.602-7.393,7.297-11.068,10.962c-0.074,0.074-0.032,0.286-0.063,0.755
		c1.094-0.574,1.964-1.137,2.91-1.508c0.626-0.245,1.359-0.214,2.039-0.31c0.021,0.647,0.032,1.307,0.064,1.954
		c0.011,0.245,0.041,0.49,0.073,0.998c1.924-1.39,3.654-2.643,5.821-4.216c-0.138,1.466-0.223,2.369-0.308,3.282
		c0.105,0.105,0.202,0.223,0.308,0.33c1.2-1.552,2.21-3.824,4.407-1.286c0.563-1.381,1.031-2.538,1.498-3.697
		c0.202,0.021,0.414,0.044,0.616,0.075c0.309,1.146,0.574,2.306,0.936,3.431c0.181,0.573,0.542,1.083,0.828,1.625
		c0.287-0.51,0.563-1.03,0.871-1.54c0.233-0.393,0.52-0.765,0.775-1.146c0.372,0.266,0.808,0.478,1.104,0.817
		c0.351,0.393,0.573,0.903,0.86,1.348c0.148-0.052,0.298-0.115,0.457-0.169c0-0.828,0-1.646,0-2.475
		c0.148-0.073,0.308-0.148,0.456-0.223c1.2,1.434,2.412,2.856,3.569,4.238c0.595-1.223,0.999-2.062,1.402-2.911
		c0.722,0.521,1.434,1.042,2.155,1.551c0.043,0.032,0.074,0.085,0.128,0.107c0.415,0.223,0.839,0.435,1.265,0.646
		c0.181-0.468,0.36-0.935,0.572-1.455c0.681,0.488,1.467,1.052,2.338,1.667C77.963,67.438,79.036,68.946,80.322,69.222z"/>
	<path fill="#010101" d="M143.946,89.19c-1.01,0.096-2.019,0.266-3.017,0.266c-5.832-0.011-11.662-0.201-17.483-0.042
		c-3.207,0.085-5.971-1.189-8.794-2.22c-3.888-1.424-7.776-2.995-11.367-5.014c-4.566-2.57-8.858-5.64-13.213-8.582
		c-0.275-0.181-0.296-1.401,0-1.667c2.592-2.401,5.066-5.015,7.999-6.926c3.388-2.211,7.17-1.52,10.281,1.242
		c4.1,3.645,8.052,7.488,12.226,11.036c3.855,3.271,8.126,6.001,12.896,7.765c3.112,1.146,6.287,2.113,9.421,3.176
		c0.383,0.127,0.733,0.372,1.105,0.563C143.978,88.903,143.956,89.053,143.946,89.19z"/>
</g>
</svg>
