<?xml version="1.0" encoding="utf-8"?>
<!-- Generator: Adobe Illustrator 16.0.0, SVG Export Plug-In . SVG Version: 6.00 Build 0)  -->
<!DOCTYPE svg PUBLIC "-//W3C//DTD SVG 1.1//EN" "http://www.w3.org/Graphics/SVG/1.1/DTD/svg11.dtd">
<svg version="1.1" id="_x35_0m" xmlns="http://www.w3.org/2000/svg" xmlns:xlink="http://www.w3.org/1999/xlink" x="0px" y="0px"
	 width="144px" height="144px" viewBox="0 0 144 144" enable-background="new 0 0 144 144" xml:space="preserve">
<g>
	<path fill="#010101" d="M128.227,93.409c-0.938,0.131-1.877,0.366-2.813,0.356c-4.013-0.032-8.012-0.215-12.023-0.226
		c-18.071-0.044-36.132-0.087-54.203-0.076c-10.709,0.011-21.416,0.12-32.123,0.184c-2.36,0.011-4.731,0.086-7.095,0.021
		c-1.045-0.021-2.091-0.301-3.169-0.809c0.279-0.149,0.549-0.366,0.853-0.432c6.2-1.358,11.827-4.096,17.305-7.179
		c8.788-4.938,15.904-11.905,22.892-19.032c2.393-2.437,5.067-4.637,7.797-6.707c3.438-2.609,8.744-2.427,12.334-0.063
		c5.306,3.481,9.393,8.291,13.984,12.528c7.872,7.268,16.531,13.348,26.493,17.404c2.899,1.173,5.898,2.08,8.854,3.114
		c0.322,0.107,0.625,0.27,0.938,0.4C128.249,93.087,128.236,93.249,128.227,93.409z M85.355,71.823
		c0.592,0.604,1.099,1.295,1.758,1.779c1.131,0.83,2.316,1.586,3.558,2.222c0.29,0.149,1.013-0.151,1.293-0.463
		c0.173-0.184-0.032-0.863-0.247-1.209c-0.259-0.421-0.701-0.743-1.067-1.1c-1.683-1.575-3.376-3.159-5.067-4.734
		c-2.632-2.437-5.134-5.056-7.969-7.233c-1.455-1.123-3.483-1.737-5.336-2.07c-2.979-0.528-5.436,1.023-7.475,2.952
		c-3.504,3.311-6.847,6.783-10.199,10.246c-0.638,0.657-1.931,1.282-1.112,2.533c0.788,1.196,2.018,0.626,3.097,0.463
		c0.29-0.044,0.581-0.217,0.84-0.377c1.295-0.831,2.588-1.661,3.86-2.522c1.175-0.798,2.329-1.617,3.483-2.437
		c0.118,0.107,0.237,0.226,0.355,0.333c-0.141,0.798-0.388,1.596-0.366,2.395c0.021,0.656,0.173,1.563,0.604,1.887
		c0.419,0.301,1.422,0.204,1.929-0.107c0.646-0.4,1.196-1.112,1.531-1.813c0.495-1.065,0.733-2.243,1.144-3.353
		c0.129-0.333,0.453-0.603,0.688-0.905c0.249,0.29,0.615,0.539,0.723,0.874c0.41,1.326,0.583,2.748,1.154,3.988
		c0.41,0.874,1.306,2.07,2.049,2.125c1.282,0.086,1.639-1.316,1.821-2.458c0.087-0.497-0.01-1.025,0.034-1.543
		c0.031-0.42,0.139-0.83,0.28-1.563c0.581,0.55,0.947,0.819,1.228,1.154c0.787,0.948,1.479,1.974,2.318,2.868
		c0.874,0.927,1.835,2.026,3.269,1.607c1.5-0.442,1.715-1.737,1.466-3.128C84.979,72.2,85.106,72.113,85.355,71.823z"/>
	<path fill="#010101" d="M0,93.056c1.435-0.961,2.89-1.89,4.303-2.892c5.713-4.044,10.222-9.262,13.803-15.192
		c3.395-5.617,6.231-11.568,9.508-17.263c1.413-2.458,3.148-4.798,5.046-6.901c1.327-1.466,3.441-1.38,4.854,0.076
		c1.519,1.564,2.952,3.32,3.988,5.218c2.751,5.057,5.24,10.244,7.872,15.365c0.451,0.885,0.333,1.435-0.486,2.06
		c-4.032,3.073-7.838,6.493-12.075,9.241c-3.722,2.416-7.775,4.41-11.905,6.06c-4.549,1.813-9.325,3.138-14.06,4.433
		c-1.737,0.474-3.666,0.301-5.511,0.355c-1.757,0.053-3.516,0.011-5.271,0.011C0.044,93.431,0.021,93.249,0,93.056z M35.431,63.263
		c0.217,0.01,0.442,0.021,0.659,0.021c0.302,1.704,0.528,3.429,0.938,5.101c0.204,0.851,0.193,2.395,1.479,2.112
		c1.206-0.257,0.829-1.639,0.712-2.641c-0.1-0.861-0.131-1.725-0.196-2.588c0.162-0.043,0.313-0.087,0.476-0.129
		c0.28,0.324,0.582,0.646,0.852,0.981c1.293,1.649,2.546,3.332,3.892,4.938c0.248,0.301,0.994,0.516,1.295,0.355
		c0.421-0.227,0.851-0.809,0.896-1.284c0.053-0.561-0.217-1.196-0.475-1.735c-1.834-3.85-3.613-7.731-5.607-11.494
		c-0.896-1.693-2.136-3.245-3.418-4.701c-0.809-0.916-2.081-1.306-3.214-0.474c-0.896,0.657-1.822,1.455-2.34,2.403
		c-2.9,5.305-5.703,10.654-8.475,16.034c-0.238,0.464,0,1.187,0.021,1.78c0.594-0.346,1.379-0.552,1.748-1.047
		c0.678-0.916,1.12-2.016,1.659-3.03c0.131,0.011,0.259,0.033,0.39,0.044c0.312,1.238,0.623,2.468,0.969,3.826
		c2.803-1.217,2.18-4.731,4.627-6.221c0.097,0.508,0.225,0.885,0.235,1.251c0.023,1.133-0.063,2.264,0.045,3.387
		c0.042,0.408,0.539,0.765,0.829,1.142c0.27-0.333,0.701-0.637,0.777-1.014c0.291-1.4,0.453-2.837,0.688-4.247
		C35.033,65.105,35.237,64.188,35.431,63.263z"/>
	<path fill="#010101" d="M143.861,94.252c-2.729-0.184-5.554,0.042-8.152-0.626c-5.468-1.392-10.9-3.009-16.174-5.004
		c-3.656-1.39-7.009-3.58-10.501-5.401c-0.767-0.4-1.617-0.67-2.34-1.144c-0.334-0.215-0.724-0.969-0.614-1.11
		c0.312-0.387,0.84-0.69,1.337-0.809c0.16-0.044,0.495,0.55,0.733,0.874c0.335,0.464,0.636,0.938,0.958,1.4
		c0.453-0.442,0.992-0.829,1.326-1.348c0.442-0.678,0.723-1.477,1.068-2.22c0.41,0.754,0.712,1.595,1.251,2.232
		c0.432,0.506,1.154,0.775,1.735,1.152c0.118-0.529,0.27-1.047,0.355-1.586c0.042-0.236-0.031-0.495-0.097-1.1
		c0.646,0.27,1.131,0.4,1.542,0.659c1.261,0.786,2.446,1.704,3.752,2.382c0.475,0.249,1.22-0.031,1.843-0.075
		c-0.225-0.561-0.312-1.262-0.699-1.66c-2.339-2.371-4.637-4.82-7.181-6.967c-2.167-1.821-4.562-1.659-6.729,0.11
		c-1.391,1.131-2.642,2.426-3.968,3.643c-0.291,0.27-0.604,0.604-0.961,0.712c-0.27,0.076-0.756-0.086-0.916-0.301
		c-0.12-0.151,0.042-0.701,0.249-0.885c1.508-1.326,2.997-2.685,4.604-3.86c2.803-2.049,6.781-1.931,9.584,0.484
		c2.837,2.449,5.446,5.155,8.121,7.797c3.418,3.386,7.16,6.328,11.57,8.314c2.091,0.937,4.247,1.725,6.359,2.609
		c0.712,0.29,1.393,0.667,2.081,1.013C143.969,93.775,143.916,94.014,143.861,94.252z"/>
</g>
</svg>
