<?xml version="1.0" encoding="utf-8"?>
<!-- Generator: Adobe Illustrator 16.0.0, SVG Export Plug-In . SVG Version: 6.00 Build 0)  -->
<!DOCTYPE svg PUBLIC "-//W3C//DTD SVG 1.1//EN" "http://www.w3.org/Graphics/SVG/1.1/DTD/svg11.dtd">
<svg version="1.1" id="_x35_0m" xmlns="http://www.w3.org/2000/svg" xmlns:xlink="http://www.w3.org/1999/xlink" x="0px" y="0px"
	 width="144px" height="144px" viewBox="0 0 144 144" enable-background="new 0 0 144 144" xml:space="preserve">
<g>
	<path fill="#010101" d="M143.726,96.041c-47.821,0-95.652,0-143.472,0C0.169,95.894,0.084,95.745,0,95.598
		c0.813-0.602,1.562-1.341,2.46-1.784c4.688-2.312,9.513-4.372,14.095-6.863c3.051-1.658,5.765-3.929,8.69-5.85
		c0.771-0.507,1.7-0.845,2.608-1.067c1.752-0.421,3.59-0.568,5.312-1.087c0.907-0.273,1.784-0.971,2.438-1.689
		c0.802-0.877,1.425-1.953,2.017-2.999c1.9-3.379,4.815-5.69,8.141-7.476c4.931-2.649,8.964-6.323,12.312-10.727
		c1.7-2.238,3.948-3.443,6.377-4.509c2.364-1.034,4.782-1.954,7.063-3.136c1.246-0.645,2.323-0.57,3.41,0.03
		c6.335,3.476,12.745,6.833,18.933,10.538c3.949,2.366,6.968,5.808,8.499,10.253c0.983,2.841,2.524,5.11,4.973,6.863
		c1.512,1.077,2.746,2.577,4.309,3.559c1.763,1.108,3.696,2.059,5.67,2.692c3.516,1.119,6.683,2.83,9.344,5.321
		c2.291,2.144,5.047,2.819,7.919,3.58c2.535,0.665,4.983,1.721,7.412,2.734c0.761,0.315,1.352,1.057,2.017,1.604
		C143.917,95.734,143.821,95.883,143.726,96.041z M19.459,87.942c0.095,0.147,0.19,0.307,0.285,0.454
		c2.313-0.972,4.974-1.5,6.864-2.999c2.85-2.27,6.019-2.713,9.312-2.775c2.735-0.044,4.478-0.973,5.755-3.443
		c0.95-1.827,2.228-3.695,3.822-4.941c2.259-1.753,4.941-2.956,7.486-4.34c0.507-0.274,1.183-0.254,2.438-0.496
		c-1.32,4.182-2.481,7.834-3.716,11.742c0.55-0.486,1.024-0.824,1.394-1.247c1.298-1.51,2.597-3.02,3.812-4.593
		c1.848-2.387,3.885-4.393,7.042-4.994c1.277-0.243,2.524-0.845,3.685-1.458c0.909-0.474,1.478-0.348,1.922,0.497
		c0.813,1.552,1.488,3.179,2.407,4.646c1.013,1.605,2.049,3.284,3.981,4.065c0.601-3.812,1.172-7.37,1.742-10.929
		c0.189-1.203,0.876-1.383,1.795-0.738c3.78,2.649,7.021,5.775,9.335,9.851c0.855,1.521,2.132,2.799,3.22,4.182
		c0.2-0.096,0.401-0.179,0.591-0.274c-2.354-3.316-1.879-7.063-2.102-10.781c0.655,0.18,1.12,0.423,1.5,0.761
		c4.043,3.61,8.056,7.264,12.131,10.854c0.845,0.739,1.826,1.384,2.851,1.858c1.742,0.802,3.559,1.436,5.353,2.123
		c0.666,0.253,1.352,0.464,2.166,0.728c-0.053-0.443-0.021-0.601-0.085-0.665c-0.21-0.2-0.443-0.402-0.686-0.55
		c-6.219-3.704-10.496-9.312-14.729-14.972c-1.913-2.556-3.643-5.385-6.041-7.392c-4.973-4.159-10.241-7.981-16.376-10.432
		c-2.334-0.929-4.382-1.215-6.579,0.074c-0.77,0.454-1.679,0.654-2.47,1.066c-2.271,1.171-4.688,1.89-6.431,4.129
		c-3.579,4.592-7.919,8.33-13.23,10.98c-2.565,1.277-5.458,2.376-7.053,5.132c-1.087,1.879-2.344,3.663-3.357,5.585
		c-0.75,1.426-1.88,2.154-3.357,2.471c-1.468,0.318-2.968,0.496-4.425,0.866c-1.267,0.327-2.597,0.655-3.717,1.288
		c-1.657,0.939-3.167,2.154-4.73,3.274C20.642,87.003,20.062,87.479,19.459,87.942z"/>
</g>
</svg>
