<?xml version="1.0" encoding="utf-8"?>
<!-- Generator: Adobe Illustrator 16.0.0, SVG Export Plug-In . SVG Version: 6.00 Build 0)  -->
<!DOCTYPE svg PUBLIC "-//W3C//DTD SVG 1.1//EN" "http://www.w3.org/Graphics/SVG/1.1/DTD/svg11.dtd">
<svg version="1.1" id="_x35_0m" xmlns="http://www.w3.org/2000/svg" xmlns:xlink="http://www.w3.org/1999/xlink" x="0px" y="0px"
	 width="144px" height="144px" viewBox="0 0 144 144" enable-background="new 0 0 144 144" xml:space="preserve">
<g>
	<path fill="#010101" d="M86.626,77.303c0.302-0.303,0.804-0.502,1.004-0.904c1.305-2.008,2.61-4.016,3.815-6.123
		c0.502-0.903,1.004-1.405,2.107-1.004c2.609,0.903,5.22,1.807,7.729,2.811c0.703,0.301,1.405,1.105,1.907,1.807
		c4.819,7.93,9.537,15.86,14.255,23.69c0.3,0.401,0.401,1.004,0.601,1.706c-3.914,0-7.528,0-11.142,0c-3.313,0-6.625,0-9.938,0
		c-1.606,0-3.011-0.401-4.115-1.706c-1.807-2.009-3.613-3.915-5.621-5.822c-1.908-1.907-4.317-2.609-7.026-2.912
		c-1.205-0.099-2.511-0.902-3.613-1.604c-1.908-1.405-3.714-3.113-5.622-4.618c-1.205-0.902-2.409-1.807-3.814-2.408
		c-1.706-0.804-3.312,0.2-4.417,1.204c-2.409,2.308-4.517,4.919-6.926,7.328c-3.111,3.211-6.224,6.424-9.335,9.636
		c-0.502,0.502-1.506,0.803-2.31,0.803c-7.227,0-14.353,0-21.581,0c-1.306,0-1.406-0.702-0.904-1.605
		c3.111-5.924,6.325-11.744,9.436-17.667c0.401-0.703,0.903-1.305,1.405-1.907c4.919-5.622,10.44-10.54,16.664-14.656
		c2.911-1.906,4.215-4.817,5.922-7.628c1.506-2.409,2.812-4.819,4.316-7.228c0.502-0.703,1.406-1.305,2.31-1.605
		c2.911-1.004,5.821-2.009,8.833-2.811c0.903-0.202,2.107-0.302,2.91,0.199c2.911,1.707,5.822,3.514,8.533,5.521
		c1.305,1.004,2.208,2.51,2.911,4.015c1.706,3.715,3.012,7.63,4.919,11.243c1.505,2.811,0.2,4.918-1.104,7.127
		c-0.703,1.104-1.506,2.107-2.208,3.111c-0.202,0.401-0.202,0.903-0.402,1.405C86.326,77.201,86.427,77.303,86.626,77.303z"/>
	<path fill="#010101" d="M132.2,99.386c-3.414,0-6.826-0.101-10.239,0c-1.405,0-2.208-0.502-2.811-1.606
		c-2.912-4.918-5.922-9.938-8.935-14.856c-2.106-3.413-4.014-7.026-6.323-10.339c-0.804-1.204-2.61-1.807-4.116-2.409
		c-2.208-1.004-4.517-1.706-6.726-2.609c-1.306-0.502-1.707-1.305-0.602-2.61c0.803-1.003,1.405-2.208,1.807-3.413
		c0.401-1.204,1.205-1.808,2.208-2.309c4.718-2.208,4.718-2.208,9.034,0.903c2.71,1.907,5.622,3.514,8.232,5.521
		c1.807,1.405,3.312,3.111,4.718,4.918c1.605,2.109,3.211,3.814,5.721,4.718c0.602,0.202,1.205,0.903,1.505,1.405
		c1.305,2.51,2.51,5.021,3.814,7.528c0.502,0.904,1.305,1.708,2.107,2.21c2.51,1.604,5.22,3.011,7.831,4.617
		c0.702,0.4,1.305,1.104,1.706,1.807c0.904,1.506,1.707,3.111,2.511,4.718c0.702,1.405,0.401,1.907-1.206,1.907
		c-3.411,0-6.825,0-10.238,0V99.386z"/>
	<path fill="#010101" d="M43.765,65.858c-2.41,2.108-4.517,3.915-6.625,5.822c-1.807,1.706-3.713,3.313-5.219,5.22
		c-1.605,2.107-3.011,4.416-4.216,6.825c-2.609,4.719-5.119,9.638-7.628,14.455c-0.703,1.405-2.007,1.306-3.212,1.306
		c-4.316,0.2-8.633,0.301-12.949,0.401c-1.204,0-2.409,0.101-3.914,0.2c0.1-0.903,0.201-1.605,0.501-2.208
		c1.004-1.907,2.309-3.714,3.212-5.722c1.506-3.513,4.617-5.721,7.227-8.331c2.611-2.61,5.722-4.417,8.935-6.124
		c1.405-0.803,2.609-2.008,3.613-3.313c1.305-1.705,2.208-3.714,3.513-5.521c0.603-0.803,1.406-1.606,2.208-2.107
		c2.107-1.306,4.316-2.41,6.424-3.614c1.206-0.703,2.209-0.803,3.413,0.101C40.553,64.152,42.16,64.955,43.765,65.858z"/>
	<path fill="#010101" d="M48.684,99.386c0.301-0.704,0.301-1.004,0.502-1.205c4.115-4.617,8.332-9.234,12.547-13.852
		c2.911-3.213,5.42-3.213,8.732-0.301c2.208,1.907,4.618,3.714,6.927,5.521c0.602,0.401,1.405,0.803,2.108,0.803
		c3.813,0,6.524,2.008,8.933,4.717c0.803,0.904,1.707,1.807,2.509,2.711c0.202,0.302,0.402,0.804,0.302,1.205
		c0,0.2-0.602,0.401-1.004,0.401c-11.543,0-23.188,0-34.731,0.101C53.401,99.386,51.193,99.386,48.684,99.386z"/>
</g>
</svg>
