<?xml version="1.0" encoding="utf-8"?>
<!-- Generator: Adobe Illustrator 16.0.0, SVG Export Plug-In . SVG Version: 6.00 Build 0)  -->
<!DOCTYPE svg PUBLIC "-//W3C//DTD SVG 1.1//EN" "http://www.w3.org/Graphics/SVG/1.1/DTD/svg11.dtd">
<svg version="1.1" id="_x35_0m" xmlns="http://www.w3.org/2000/svg" xmlns:xlink="http://www.w3.org/1999/xlink" x="0px" y="0px"
	 width="144px" height="144px" viewBox="0 0 144 144" enable-background="new 0 0 144 144" xml:space="preserve">
<g>
	<path fill="#010101" d="M144,110.233c-0.2,0.801-0.801,0.9-1.5,0.9c-3.2,0-6.401-0.199-9.5,0c-1.8,0.1-2.2-1.699-3.5-2.1
		c0.099-0.4,0.3-0.801,0-1.199c-0.1-0.201-0.2-0.301-0.301-0.5c-1.199-3.4-1.9-7-3.7-10.002c-3-5.1-6.5-9.898-9.9-14.799
		c-0.199-1.201-0.699-2.301-2.399-2.801c0.3,1.201,0.3,2.201,1.3,2.801c1.599,3.699,3.2,7.299,4.899,11c0.5,1.199,0.5,2-0.9,2.201
		c-1.2,0.199-1.4,0.799-1.3,1.799c0.1,0.699,0,1.301,0,2c-0.3,0.4-0.3,0.801,0,1.301c0,0.799,0,1.498-0.1,2.299
		c-0.5,0.301-0.4,0.699-0.2,1.1c0,0.301,0,0.701,0,1c-0.2,0.4-0.2,0.701,0.099,1.102c0,0.6-0.699,1.5-0.099,1.898
		c0.8,0.6,1.4-0.301,1.9-0.898c0.5-0.5,1.1-0.9,1.7-1.4c1.8-1.602,2.9-1.5,4.7,0.199c1.2,1.1,2.2,2.4,3.7,3c0.7,1.5,0.2,2-1.4,2
		c-12.8,0-25.6,0-38.4,0.1c-1.2,0-2.2-0.1-2.6-1.5c-0.1-0.4-0.4-1.1-1-1.1c0-1.699-1.5-2.5-2.101-3.801
		c-2-4.498-4.799-8.5-7.199-12.699c-1.8-3-3.601-6-5.5-9c-0.301-0.4,0.1-1.301-0.701-1.301C69.2,81.735,69.2,82.534,68.8,82.935
		c-1.3,1.5-2.2,3.199-3.3,4.799c-0.9,1.201-2.5,2.801-1.4,4.9c0.8,1.5,1.5,3,2.2,4.6c0.3,1,0.6,1.9,0.9,2.801
		c0.1,0.301,0.4,0.6,0.8,0.5c0.3-0.102,0.4-0.4,0.4-0.6c-0.1-0.801,0.6-1.801-0.5-2.301c-0.101-0.4-0.301-0.801-0.4-1.199
		c0-0.201,0-0.4-0.3-0.5c0-0.199,0-0.4,0-0.701c0.5-0.199,1-0.299,1.5-0.5c5.2,4.701,10.8,9,15.9,13.9
		c0.199,0.199,0.5,0.1,0.799,0.199c-0.1,0.801,1.3,1.4,0.5,2.102c-0.601,0.6-1.7,0.1-2.5,0.1c-2.399-0.1-4.799,0.199-7.199,0.199
		c-10.3,0-20.601,0-30.8,0c-2.7,0-5.4,0.1-8.1,0.301c-2.399,0.1-2.399,0.199-1.8-2.201c2.7-3.898,5.3-7.9,7.7-12
		c0.6-0.199,1.1,0,1.5,0.4c0,0.201-0.101,0.5-0.101,0.701c-1,0.799-0.899,1.998-1.2,3.1c0,0.1,0.3,0.299,0.5,0.299
		c1.2-0.498,1.5-1.6,1.8-2.699c0.4-1.1,0.701-2.301,1.3-3.199c1.8-2.6,3.2-5.4,4.5-8.301c1.2-0.4,2.5,0,2.6,1
		c0.101,0.699,0.4,1.1,0.701,1.6c3.9,5.701,8.599,10.801,12.2,16.701c0.4,0.6,0.7,1.199,1.8,1.199c-0.4-1.699-1.3-2.9-2.101-4.199
		c-3.2-4.801-5.399-10.201-8.3-15.301c-1.7-3.1-3.1-6-7.1-6c-0.5,0-1,0-1.4-0.1c-1.9-0.4-3.799-0.799-5.799-1.201
		c0-0.199,0.1-0.398,0.1-0.5c2.8,0.4,5.699,1.102,8.5,1c3.3-0.098,5.2,1.301,6.6,4.002c0.5,0.799,1.2,1.5,2.6,1.699
		c-0.9-1.6-1.8-2.801-2.2-4.201c-1.1-4.699-2.8-9.199-4.2-13.799c-0.799-2.4-2.099-4.6-2-7.201c0-0.398-0.2-1.1,0.4-1.199
		c0.699-0.199,0.9,0.5,1.099,1c0.4,0.9,0.701,1.9,1.101,2.801c2.5,5.6,5.4,11.1,8.2,16.5c1.2,2.299,1.2,2.398,2.7,0.301
		c0.3-0.402,0.6-0.801,0.9-1.102c1-1.1,2-1.5,2.999,0.1c1.7,2.701,3.4,5.4,5.2,8.1c3.9,6.102,7.9,12.1,11.2,18.502
		c0.3,0.5,0.4,1.398,1.199,0.898c0.701-0.398,0.101-1.1-0.099-1.6c-0.8-1.9-2-3.699-2.5-5.701c-1-4.699-2.7-9.098-4.401-13.598
		c-1.499-3.9-3.1-7.902-3.999-12.002c-0.201-1-0.8-1.398-1.9-1.299c-1.8,0-3.5,0.6-5.2,0.9c-1,0.199-2.2,0.398-2.3-1.301
		c-0.5-6.5-0.1-13.1-1.4-19.6c2-2.1,3.8-4.4,5.2-7c0.299-0.701,1-1.201,1.5-1.801c2.5,0,3-0.299,3-2.299
		c-0.3-1.301,0.2-2.201,1-3.199c1.601-2.102,3.2-4.102,5.1-6.002c2.101-2.199,3.4-2.1,4.9,0.4c5,8.301,9.4,16.801,14,25.301
		c-0.4,1.699,0.7,2.699,1.7,3.6c2.7,2.301,5.5,4.6,8.3,6.699c7.6,5.9,14.2,12.801,20.3,20.1c0.3,0.301,0.6,0.701,1,0.5
		c0.4-0.199,0.3-0.699,0.1-1.1c-0.5-0.699-1.1-1.4-1.4-2.199c-1.801-4.301-4.8-7.9-6.501-12.201c-0.099-0.398-0.4-0.699-0.699-0.898
		c-3.8-2.701-7.8-5.102-12-7.102c-2.4-1.1-4.6-2.299-6.901-3.6c-1-0.5-1.7-1.4-1.2-2.699c6.7,2.801,13.6,5.5,20.399,8
		c1.5,0.5,2.5,1.6,3.101,3c2.2,5.699,4.7,11.299,7.099,16.799c3,6.9,5.9,13.9,8.801,20.9C143.9,109.435,143.9,109.833,144,110.233z
		 M81.7,47.935c0-1.102,0-2.199,0-3.201c0-0.5,0.3-1-0.3-1.299c-0.5-0.301-1,0.1-1.2,0.5c-1.1,1.5-2.4,2.199-4.3,2
		c-0.6-0.102-0.999,0.398-0.999,1c0,0.699,0.399,1.1,1.099,1.199c0.6,0,1.201-0.1,1.8-0.1c1.601,0,2.601,0.699,2.8,2.301
		c0.1,0.799,0.1,1.6,0.1,2.4c0.1,1.498,0.5,2.998,1.4,4.299C82,54.034,82.6,50.933,81.7,47.935z M109.099,103.134
		c0-0.4,0-0.801-0.099-1.199c-0.301-3-0.7-6.102-1-9.1c-0.1-1.102,0.199-2.002,1.3-2.502c1.3-0.6,1.5-1.598,1.1-2.898
		c-0.5-1.801-1-3.701-1.2-5.602c-0.2-2.4-1.4-3.699-3.3-5c-4.5-2.799-8.9-5.799-13.299-8.6c-0.801-0.498-1.301-1.1-1.301-2.1
		c-0.3-6-0.999-11.9-0.9-17.9c0-1.6,0.1-3.299-0.3-4.898c-0.1-0.5,0.201-1.5-0.6-1.5c-0.8,0-0.6,1-0.7,1.5
		c-0.5,2.998-0.2,6.1-0.801,9c-1.3,5.699-1.499,11.5-2.8,17.199c-0.199,0.9,0.2,1.5,1,2c4.501,2.9,9,6,13.6,8.9
		c1.701,1.1,2.601,2.398,3.101,4.299c1.3,5,3.2,9.701,4.5,14.701C107.5,100.835,107.699,102.233,109.099,103.134z"/>
	<path fill="#828282" d="M67,53.935c1.2,6.5,0.9,13.1,1.4,19.6c0.1,1.799,1.3,1.5,2.3,1.299c1.7-0.299,3.399-0.898,5.199-0.898
		c1.1,0,1.701,0.301,1.9,1.299c0.9,4.102,2.5,8.1,4,12c1.7,4.5,3.399,8.9,4.399,13.602c0.4,1.998,1.601,3.799,2.5,5.699
		c0.2,0.5,0.8,1.199,0.1,1.6c-0.801,0.5-0.9-0.4-1.2-0.9c-3.3-6.398-7.3-12.4-11.2-18.498c-1.7-2.701-3.5-5.402-5.2-8.102
		c-0.999-1.6-1.999-1.201-3-0.1c-0.299,0.299-0.6,0.699-0.9,1.1c-1.4,2.1-1.4,2-2.7-0.301c-2.9-5.398-5.8-10.898-8.201-16.498
		c-0.399-0.9-0.699-1.9-1.099-2.801c-0.201-0.5-0.4-1.1-1.1-1c-0.601,0.1-0.4,0.799-0.4,1.199c-0.2,2.602,1.2,4.801,2,7.201
		c1.5,4.6,3.2,9.1,4.2,13.799c0.3,1.4,1.3,2.602,2.2,4.201c-1.4-0.301-2.2-0.9-2.6-1.701c-1.5-2.6-3.3-4.1-6.6-4
		c-2.8,0.1-5.7-0.6-8.5-1c0,0.201-0.1,0.4-0.1,0.5c1.9,0.4,3.8,0.801,5.8,1.201c0.5,0.1,0.9,0.1,1.4,0.1c4.101,0,5.4,2.9,7.101,6
		c2.8,5,5.1,10.4,8.3,15.299c0.8,1.301,1.7,2.502,2.1,4.201c-1.1,0-1.4-0.602-1.8-1.199c-3.6-5.902-8.3-11.002-12.2-16.701
		c-0.399-0.5-0.6-0.9-0.7-1.6c-0.1-1.1-1.5-1.4-2.6-1c-4.8-1.199-9.6-0.4-14.5-0.602c-0.3-0.299-0.4-0.598-0.4-1.098
		c1-0.602,1.9-1.102,2.8-1.801c1.101-0.801,1.2-1.701-0.2-2.4c-0.6-0.301-1.3-0.4-1.5-1.199c-0.1-0.5,0.1-0.701,0.6-0.6
		c1.8,0.5,4.2,0.799,4.9-0.902c0.9-2.199,2.1-4.199,2.9-6.398c1.199-3.4,2.999-6.4,5.699-8.801c0.3-0.299,0.7-0.699,0.4-1.299
		c-1-0.301-1.2,1.299-2.2,1.1c-0.5-0.1-1-0.5-1.6-0.301c1.5-2,3.1-4,5.6-4.898C58.4,56.733,62.6,54.935,67,53.935z"/>
	<path fill="#010101" d="M36.7,85.835c-0.1,0.398,0.1,0.799,0.4,1.098c-1.201,2.102-2.9,4.002-3.001,6.5c-0.1,4.002,0,8,0.101,11.9
		c-0.601,1.201-0.3,2.502-0.3,3.801c0,1.9-0.6,2.5-2.6,2.5c-10-0.1-20,0-30,0.199c-1.5,0-1-0.898-1.3-1.5
		c4.5-8.299,8.9-16.699,13.4-24.998c0.5-0.801,1-1.602,1.7-2.201c0.5,0.1,0.8,0,1-0.5c0.2,0,0.5-0.1,0.7-0.1
		c0.5,0.5,0.9,0.299,1.2-0.201c0.7-0.1,1.4-0.199,2-0.199c2.1,0.801,3.5-0.9,5.3-1.4c0.5-0.1,1.1-0.199,1.6-0.299
		c0.2,0.1,0.3,0.199,0.5,0.299c0.6,0.201,1.8-0.398,1.7,0.701c0,0.799-1.201,0.799-1.9,0.799c-3.1-0.1-6,1.1-9,1.201
		c-1.7,0.1-2.7,1-3.2,2.5c-0.5,0.799-1.2,1.4-1.1,2.398c-0.7-0.299-0.7,0.402-0.9,0.701c-1.9,3.5-3.8,7-5.7,10.5
		c-0.3,0.699-1.1,1.301-1.1,2.299c0,0.4-0.2,0.9,0.3,1c0.4,0.102,0.6-0.199,0.8-0.5c1.8-3.1,3.7-6.299,5.4-9.498
		c0.8-1.502,2.4-2.602,2.4-4.502c0.4-0.699,0.8-1.4,1.2-1.998c1.1-1.102,2.4-1.201,3.9-1.102c2.5,0.201,5,0.102,7.4,0.701
		c1.3,0.299,2.8,0.4,4.2-0.201C33.5,85.733,35.1,85.733,36.7,85.835z M18.3,97.833c0.1,0.701-0.4,1.4,0.3,1.801
		c0.6,0.301,0.8-0.5,1.4-0.699c0.4-0.1,0.8-0.5,1.2-0.801c0.4-0.199,0.7-0.801,1.2-0.301c0.3,0.301,0.2,0.801,0.1,1.201
		c-0.9,2.699-0.7,5.699-1.9,8.301c-0.2,0.5-0.5,1.199,0,1.498c0.7,0.4,1.1-0.498,1.3-0.998c0.8-1.9,1.8-3.701,2.9-5.4
		c2.3-3.4,4.4-6.9,6.701-10.301c0.199-0.4,0.599-0.9,0.199-1.301c-0.5-0.398-0.9,0.102-1.2,0.301c-1.1,0.801-2.101,1.6-3.1,2.6
		c-1.3,1.201-2.4,1.201-3.6-0.1c-1.1-1.199-2-2.4-2.8-3.699c-0.3-0.4-0.6-1-1.2-0.9c-0.7,0.1-0.6,0.799-0.6,1.299
		C18.8,92.835,18.6,95.435,18.3,97.833z"/>
	<path fill="#828282" d="M104.3,60.435c-0.5,1.299,0.2,2.199,1.2,2.699c2.3,1.201,4.6,2.4,6.9,3.6c4.2,2,8.201,4.301,12,7.1
		c0.3,0.201,0.6,0.602,0.7,0.902c1.8,4.299,4.7,7.998,6.5,12.197c0.299,0.801,1,1.4,1.4,2.201c0.2,0.4,0.4,0.801-0.1,1.1
		c-0.4,0.301-0.7-0.1-1-0.5c-6.099-7.4-12.699-14.199-20.299-20.1c-2.8-2.199-5.6-4.5-8.3-6.699c-1-0.9-2.101-1.9-1.701-3.602
		C102.499,59.735,103.7,59.435,104.3,60.435z"/>
	<path fill="#010101" d="M38.5,79.733c-0.5-0.1-0.701,0.102-0.601,0.602c-1.2,0.1-2.4,0.199-3.7,0.299c-0.5-1-1.7-0.1-2.3-0.9
		c0.399-0.799,1.599-0.199,1.9-1.199c4-3.6,7.5-7.699,11.2-11.6c1.2-1.301,2.3-2.6,3.5-3.9c0.6-0.199,1.1,0.199,1.6,0.301
		c-1,1.199-2,2.398-3,3.699c-1.8,2.4-3.8,4.6-5.3,7.201C40.8,76.134,38.7,77.335,38.5,79.733z"/>
	<path fill="#828282" d="M33.9,78.634c-0.2,1-1.5,0.4-1.9,1.201c0.6,0.799,1.8-0.102,2.3,0.898c-0.801,2.201-2.8,1.9-4.5,2.201
		c-0.6,0.1-1.2,0.199-1.3,1c0,0.799,0.7,0.9,1.2,1.1c0.7,0.301,1.7-0.199,2.2,0.6c-1.4,0.5-2.9,0.5-4.2,0.201
		c-2.5-0.602-5-0.4-7.4-0.701c-1.5-0.1-2.8,0.1-3.9,1.1c-0.2-0.699-0.8-0.398-1.3-0.398c0.5-1.602,1.5-2.4,3.2-2.502
		c3-0.199,5.9-1.299,9-1.199c0.7,0,1.8-0.1,1.9-0.801c0-1.1-1.1-0.398-1.7-0.699c-0.2-0.1-0.3-0.199-0.5-0.299
		C29.1,79.433,31.5,78.733,33.9,78.634z"/>
	<path fill="#828282" d="M25.3,80.534c-1.8,0.5-3.2,2.199-5.3,1.4C21.6,81.034,23.3,80.233,25.3,80.534z"/>
	<path fill="#828282" d="M76.7,42.835c0,1.898-0.5,2.299-3,2.299C74.3,43.835,75.399,43.134,76.7,42.835z"/>
	<path fill="#828282" d="M17.9,82.134c-0.3,0.5-0.7,0.699-1.2,0.199C17.1,81.935,17.5,81.735,17.9,82.134z"/>
	<path fill="#828282" d="M16,82.435c-0.2,0.5-0.5,0.6-1,0.5C15.2,82.435,15.5,82.134,16,82.435z"/>
	<path fill="#828282" d="M109.099,103.134c-1.4-0.9-1.499-2.299-1.9-3.5c-1.3-5-3.2-9.699-4.5-14.699c-0.5-1.9-1.4-3.301-3.1-4.301
		c-4.601-2.9-9-6-13.6-8.9c-0.801-0.5-1.201-1-1-2c1.3-5.699,1.4-11.5,2.8-17.199c0.699-2.9,0.3-6,0.8-9c0.1-0.5-0.101-1.5,0.7-1.5
		c0.8,0,0.5,0.9,0.6,1.5c0.401,1.6,0.3,3.199,0.3,4.9c-0.1,6,0.6,11.898,0.9,17.9c0.101,0.998,0.5,1.6,1.3,2.1
		c4.4,2.9,8.8,5.801,13.301,8.6c1.9,1.199,3.1,2.6,3.3,5c0.2,1.9,0.7,3.699,1.2,5.6c0.3,1.301,0.2,2.301-1.101,2.9
		c-1.099,0.5-1.4,1.4-1.299,2.5c0.299,3,0.7,6.1,1,9.1C109,102.333,109.099,102.733,109.099,103.134z"/>
	<path fill="#828282" d="M67.6,96.435c-0.4,0-0.4-0.201-0.3-0.5C67.6,96.034,67.7,96.233,67.6,96.435z"/>
	<path fill="#828282" d="M129.5,107.933c-0.301,0-0.401-0.199-0.301-0.5C129.3,107.534,129.4,107.733,129.5,107.933z"/>
	<path fill="#FFFFFF" d="M38.5,79.733c0.199-2.398,2.3-3.6,3.4-5.498c1.5-2.502,3.5-4.801,5.3-7.201c1-1.199,2-2.4,3-3.699
		c1,0.199,1.1-1.301,2.2-1.102c0.3,0.602-0.1,1-0.4,1.301c-2.7,2.4-4.5,5.4-5.7,8.801c-0.8,2.199-2,4.199-2.9,6.398
		C42.7,80.534,40.3,80.233,38.5,79.733z"/>
	<path fill="#828282" d="M18.3,97.833c0.2-2.398,0.5-4.998,0.7-7.5c0.1-0.5-0.1-1.199,0.6-1.299c0.6-0.1,0.9,0.5,1.2,0.9
		c0.8,1.299,1.7,2.6,2.8,3.699c1.2,1.301,2.3,1.301,3.6,0.1c1-0.898,2.1-1.699,3.1-2.6c0.3-0.301,0.8-0.699,1.201-0.301
		c0.4,0.4,0.1,0.9-0.201,1.301c-2.2,3.4-4.4,6.9-6.7,10.301c-1.1,1.699-2.1,3.5-2.9,5.4c-0.2,0.5-0.6,1.299-1.3,0.998
		c-0.5-0.199-0.3-0.998,0-1.498c1.3-2.602,1-5.602,1.899-8.301c0.101-0.4,0.2-0.9-0.1-1.201c-0.5-0.398-0.9,0.102-1.2,0.301
		c-0.4,0.199-0.7,0.6-1.2,0.801c-0.5,0.199-0.7,1-1.4,0.699C17.9,99.233,18.4,98.534,18.3,97.833z"/>
</g>
</svg>
