<?xml version="1.0" encoding="utf-8"?>
<!-- Generator: Adobe Illustrator 16.0.0, SVG Export Plug-In . SVG Version: 6.00 Build 0)  -->
<!DOCTYPE svg PUBLIC "-//W3C//DTD SVG 1.1//EN" "http://www.w3.org/Graphics/SVG/1.1/DTD/svg11.dtd">
<svg version="1.1" id="_x35_0m" xmlns="http://www.w3.org/2000/svg" xmlns:xlink="http://www.w3.org/1999/xlink" x="0px" y="0px"
	 width="144px" height="144px" viewBox="0 0 144 144" enable-background="new 0 0 144 144" xml:space="preserve">
<g>
	<path fill="#010101" d="M38.368,90.531c0.284-0.218,0.426-0.382,0.613-0.459c11.286-4.452,20.823-11.606,29.89-19.47
		c5.426-4.712,10.697-9.612,16.21-14.229c4.342-3.63,9.438-5.305,14.962-3.226c2.724,1.027,5.469,2.625,7.558,4.627
		c4.987,4.789,9.701,9.875,14.327,15.018c4.966,5.5,9.899,11.001,16.067,15.211c1.027,0.701,2.177,1.237,3.27,1.872
		c0.898,0.525,1.771,1.072,2.735,1.661C142.796,92.204,39.462,91.209,38.368,90.531z"/>
	<path fill="#010101" d="M0.012,90.301c2.274-0.459,4.549-0.94,6.835-1.376c9.405-1.783,18.123-5.282,26.02-10.666
		c5.326-3.618,10.336-7.709,15.662-11.352c2.604-1.781,5.479-3.313,8.422-4.452c3.28-1.258,6.628-0.438,9.767,1.028
		c1.236,0.581,2.473,1.17,3.643,1.86c1.323,0.775,1.29,1.399,0.132,2.339c-3.173,2.583-6.257,5.262-9.473,7.8
		c-5.271,4.156-10.795,7.972-16.897,10.839c-3.357,1.574-6.825,2.941-10.281,4.309c-0.896,0.35-1.946,0.491-2.92,0.48
		C21,91.024,11.079,90.893,1.148,90.772c-0.383,0-0.766-0.11-1.148-0.164C0.022,90.521,0.012,90.412,0.012,90.301z"/>
</g>
</svg>
