<?xml version="1.0" encoding="UTF-8" standalone="no"?>
<!-- Generator: Adobe Illustrator 16.0.0, SVG Export Plug-In . SVG Version: 6.00 Build 0)  -->

<svg
   version="1.1"
   id="_x35_0m"
   x="0px"
   y="0px"
   width="144px"
   height="144px"
   viewBox="0 0 144 144"
   enable-background="new 0 0 144 144"
   xml:space="preserve"
   sodipodi:docname="hospital.svg"
   inkscape:version="1.2.1 (9c6d41e410, 2022-07-14)"
   xmlns:inkscape="http://www.inkscape.org/namespaces/inkscape"
   xmlns:sodipodi="http://sodipodi.sourceforge.net/DTD/sodipodi-0.dtd"
   xmlns="http://www.w3.org/2000/svg"
   xmlns:svg="http://www.w3.org/2000/svg"><defs
   id="defs39" /><sodipodi:namedview
   id="namedview37"
   pagecolor="#ffffff"
   bordercolor="#000000"
   borderopacity="0.25"
   inkscape:showpageshadow="2"
   inkscape:pageopacity="0.0"
   inkscape:pagecheckerboard="true"
   inkscape:deskcolor="#d1d1d1"
   showgrid="false"
   inkscape:zoom="5.4722222"
   inkscape:cx="53.908629"
   inkscape:cy="72"
   inkscape:window-width="1920"
   inkscape:window-height="986"
   inkscape:window-x="-11"
   inkscape:window-y="-11"
   inkscape:window-maximized="1"
   inkscape:current-layer="_x35_0m" />
<g
   id="g34">
	<polygon
   fill="#010101"
   points="123.205,19.619 71.216,19.619 71.216,30.213 78.572,30.213 78.572,118.104 117.417,118.104    117.417,30.213 123.205,30.213  "
   id="polygon2" />
	<rect
   x="10.593"
   y="43.945"
   fill="#7C7C7C"
   width="66.508"
   height="74.158"
   id="rect4" />
	<circle
   fill="#FFFFFF"
   cx="97.994"
   cy="50.616"
   r="15.695"
   id="circle6" />
	<polygon
   fill="#010101"
   points="109.667,48.36 100.349,48.36 100.349,39.041 95.64,39.041 95.64,48.36 86.42,48.36 86.42,52.97    95.64,52.97 95.64,62.289 100.349,62.289 100.349,52.97 109.667,52.97  "
   id="polygon8" />
	<rect
   x="86.42"
   y="98.976"
   fill="#FFFFFF"
   width="24.621"
   height="19.128"
   id="rect10" />
	<rect
   x="118.693"
   y="43.945"
   fill="#7C7C7C"
   width="12.359"
   height="74.158"
   id="rect12" />
	<rect
   y="117.024"
   fill="#010101"
   width="144"
   height="7.356"
   id="rect14" />
	<rect
   x="20.109"
   y="60.131"
   fill="#FFFFFF"
   width="11.771"
   height="11.771"
   id="rect16" />
	<rect
   x="39.237"
   y="60.131"
   fill="#FFFFFF"
   width="11.771"
   height="11.771"
   id="rect18" />
	<rect
   x="58.266"
   y="60.131"
   fill="#FFFFFF"
   width="11.773"
   height="11.771"
   id="rect20" />
	<rect
   x="20.109"
   y="79.063"
   fill="#FFFFFF"
   width="11.771"
   height="11.771"
   id="rect22" />
	<rect
   x="39.237"
   y="79.063"
   fill="#FFFFFF"
   width="11.771"
   height="11.771"
   id="rect24" />
	<rect
   x="58.266"
   y="79.063"
   fill="#FFFFFF"
   width="11.773"
   height="11.771"
   id="rect26" />
	<rect
   x="20.109"
   y="97.995"
   fill="#FFFFFF"
   width="11.771"
   height="11.771"
   id="rect28" />
	<rect
   x="39.237"
   y="97.995"
   fill="#FFFFFF"
   width="11.771"
   height="11.771"
   id="rect30" />
	<rect
   x="58.266"
   y="97.995"
   fill="#FFFFFF"
   width="11.773"
   height="11.771"
   id="rect32" />
</g>
</svg>
