<?xml version="1.0" encoding="utf-8"?>
<!-- Generator: Adobe Illustrator 16.0.0, SVG Export Plug-In . SVG Version: 6.00 Build 0)  -->
<!DOCTYPE svg PUBLIC "-//W3C//DTD SVG 1.1//EN" "http://www.w3.org/Graphics/SVG/1.1/DTD/svg11.dtd">
<svg version="1.1" id="_x35_0m" xmlns="http://www.w3.org/2000/svg" xmlns:xlink="http://www.w3.org/1999/xlink" x="0px" y="0px"
	 width="144px" height="144px" viewBox="0 0 144 144" enable-background="new 0 0 144 144" xml:space="preserve">
<g>
	<polygon fill="#656666" points="20.558,75.035 73.322,26.089 122.855,73.958 122.071,131.519 20.558,131.226 	"/>
	<polygon fill="#010101" points="112.185,41.164 112.674,41.164 112.674,8.467 97.109,8.467 97.109,26.187 72.538,1.519 
		2.742,70.531 10.671,78.559 72.538,17.475 133.624,78.461 141.553,70.531 	"/>
	<polygon fill="#010101" points="128.729,137.196 128.729,128.093 16.544,128.093 16.544,137.196 0,137.196 0,142.481 
		16.544,142.481 128.729,142.481 144,142.481 144,137.196 	"/>
	<rect x="36.612" y="75.035" fill="#FFFFFF" width="31.031" height="52.177"/>
	<rect x="81.643" y="74.838" fill="#FFFFFF" width="11.748" height="11.748"/>
	<rect x="82.035" y="90.306" fill="#FFFFFF" width="11.745" height="11.748"/>
	<rect x="97.599" y="90.012" fill="#FFFFFF" width="11.747" height="11.747"/>
	<rect x="97.793" y="74.644" fill="#FFFFFF" width="11.75" height="11.747"/>
	<rect x="41.018" y="98.039" fill="#656666" width="4.503" height="9.3"/>
</g>
</svg>
