<?xml version="1.0" encoding="utf-8"?>
<!-- Generator: Adobe Illustrator 16.0.0, SVG Export Plug-In . SVG Version: 6.00 Build 0)  -->
<!DOCTYPE svg PUBLIC "-//W3C//DTD SVG 1.1//EN" "http://www.w3.org/Graphics/SVG/1.1/DTD/svg11.dtd">
<svg version="1.1" id="_x35_0m" xmlns="http://www.w3.org/2000/svg" xmlns:xlink="http://www.w3.org/1999/xlink" x="0px" y="0px"
	 width="144px" height="144px" viewBox="0 0 144 144" enable-background="new 0 0 144 144" xml:space="preserve">
<g>
	<rect x="22.685" y="79.747" fill="#FFFFFF" width="98.531" height="53.367"/>
	<polygon fill="#ADADAD" points="120.608,63.342 121.519,63.342 121.519,35.291 105.823,35.291 105.823,48.253 71.292,12.81 
		5.671,80.051 136.911,80.051 	"/>
	<path fill="#010101" d="M143.999,82.582l-19.037-19.544V32.557h-21.063v9.014l-31.9-32.608L0.001,82.582h19.545v52.456h37.365
		h30.076h37.367V82.582H143.999z M109.267,37.925h10.328v19.747l-10.328-10.633V37.925z M12.759,77.216l59.24-60.659l31.9,32.608
		l7.797,7.898l8.506,8.811l11.039,11.342h-6.887l0,0H19.646l0,0H12.759z M62.38,129.771v-27.037h19.342v27.037H62.38L62.38,129.771z
		 M119.089,129.771h-32V97.367H57.013v32.404h-32V82.582h94.076V129.771z"/>
</g>
</svg>
