<?xml version="1.0" encoding="UTF-8" standalone="no"?>
<!-- Generator: Adobe Illustrator 16.0.0, SVG Export Plug-In . SVG Version: 6.00 Build 0)  -->

<svg
   version="1.1"
   id="_x35_0m"
   x="0px"
   y="0px"
   width="144px"
   height="144px"
   viewBox="0 0 144 144"
   enable-background="new 0 0 144 144"
   xml:space="preserve"
   sodipodi:docname="left_over_crest.svg"
   inkscape:version="1.2.1 (9c6d41e410, 2022-07-14)"
   xmlns:inkscape="http://www.inkscape.org/namespaces/inkscape"
   xmlns:sodipodi="http://sodipodi.sourceforge.net/DTD/sodipodi-0.dtd"
   xmlns="http://www.w3.org/2000/svg"
   xmlns:svg="http://www.w3.org/2000/svg"><defs
   id="defs2002" /><sodipodi:namedview
   id="namedview2000"
   pagecolor="#ffffff"
   bordercolor="#000000"
   borderopacity="0.25"
   inkscape:showpageshadow="2"
   inkscape:pageopacity="0.0"
   inkscape:pagecheckerboard="0"
   inkscape:deskcolor="#d1d1d1"
   showgrid="false"
   inkscape:zoom="10.944444"
   inkscape:cx="105.98985"
   inkscape:cy="93.928934"
   inkscape:window-width="1920"
   inkscape:window-height="986"
   inkscape:window-x="-11"
   inkscape:window-y="-11"
   inkscape:window-maximized="1"
   inkscape:current-layer="_x35_0m" />
<g
   id="g1997"
   style="stroke:#000000;stroke-width:1.5;stroke-dasharray:none;stroke-opacity:1"
   transform="matrix(0.98799541,0,0,1.0001513,0.91001593,-0.01085246)">
	<path
   fill="#ec2227"
   d="M 100.099,95.194 C 94.468,85.02 83.545,78.514 71.905,78.514 c -11.886,0 -22.599,6.359 -28.247,16.68 H 0 v 11.041 h 52.466 l 0.424,-1.373 c 2.614,-8.473 10.294,-14.164 19.109,-14.164 8.815,0 16.495,5.691 19.109,14.164 l 0.424,1.373 H 144 V 95.194 Z"
   id="path1993"
   style="stroke:#000000;stroke-width:1.5;stroke-dasharray:none;stroke-opacity:1" />
	<path
   fill="#ec2227"
   d="m 54.598,56.808 c 4.192,0.598 7.438,2.135 9.662,4.574 4.015,4.477 3.714,10.891 3.611,12.131 l -0.009,0.121 v 1.82 l 1.61,0.18 -10e-4,0.01 8.658,1.082 0.354,-1.773 C 78.505,74.84 80.091,63.055 72.316,54.318 68.119,49.548 62.165,46.779 54.597,46.072 V 37.765 L 31.201,51.116 54.597,64.593 v -7.785 z"
   id="path1995"
   style="stroke:#000000;stroke-width:1.5;stroke-dasharray:none;stroke-opacity:1" />
</g>
</svg>
