<?xml version="1.0" encoding="utf-8"?>
<!-- Generator: Adobe Illustrator 16.0.0, SVG Export Plug-In . SVG Version: 6.00 Build 0)  -->
<!DOCTYPE svg PUBLIC "-//W3C//DTD SVG 1.1//EN" "http://www.w3.org/Graphics/SVG/1.1/DTD/svg11.dtd">
<svg version="1.1" id="_x35_0m" xmlns="http://www.w3.org/2000/svg" xmlns:xlink="http://www.w3.org/1999/xlink" x="0px" y="0px"
	 width="144px" height="144px" viewBox="0 0 144 144" enable-background="new 0 0 144 144" xml:space="preserve">
<g>
	<g>
		<path fill="#3D93D0" d="M144,72c0,39.8-32.199,72-72,72c-39.799,0-72-32.2-72-72S32.201,0,72,0C111.801,0,144,32.2,144,72z"/>
		<path fill="#FFFFFF" d="M120.4,23.5c-12.9-12.9-30.1-20-48.4-20c-18.299,0-35.5,7.1-48.498,20.1c-12.9,12.9-20,30.101-20,48.4
			s7.1,35.5,20.1,48.399c13,12.9,30.1,20.1,48.5,20.1c18.398,0,35.5-7.1,48.5-20.1c12.998-13,20.1-30.1,20.1-48.399
			S133.4,36.5,120.4,23.5z M72,136.399C36.5,136.399,7.602,107.5,7.602,72S36.5,7.601,72,7.601S136.4,36.5,136.4,72
			S107.5,136.399,72,136.399z"/>
	</g>
	<path fill="#FFFFFF" d="M102.9,72.399C101.201,60.1,97.5,51.5,91,45.4c-3.9-3.7-8.699-6.301-14.199-7.801
		c-4.9-1.3-10.301-1.8-16.6-1.499V25.399l-35.4,21.6l35.4,21.601V55.8C68.5,55.3,74.1,56.6,77.5,59.7
		c7.301,6.899,7,25.1,6.801,44.399c-0.1,3.9-0.1,7.9-0.1,12H103.9c0-4,0.1-7.9,0.1-11.8C104.1,92.899,104.201,82.1,102.9,72.399z"/>
</g>
</svg>
