<?xml version="1.0" encoding="utf-8"?>
<!-- Generator: Adobe Illustrator 16.0.0, SVG Export Plug-In . SVG Version: 6.00 Build 0)  -->
<!DOCTYPE svg PUBLIC "-//W3C//DTD SVG 1.1//EN" "http://www.w3.org/Graphics/SVG/1.1/DTD/svg11.dtd">
<svg version="1.1" id="_x35_0m" xmlns="http://www.w3.org/2000/svg" xmlns:xlink="http://www.w3.org/1999/xlink" x="0px" y="0px"
	 width="144px" height="144px" viewBox="0 0 144 144" enable-background="new 0 0 144 144" xml:space="preserve">
<g>
	<g>
		<path fill="#3D93D0" d="M144,72c0,39.76-32.24,72-72,72S0,111.76,0,72C0,32.229,32.23,0,72,0S144,32.239,144,72z"/>
		<path fill="#FFFFFF" d="M120.449,23.55C107.51,10.609,90.299,3.479,72,3.479S36.49,10.6,23.551,23.55
			C10.609,36.49,3.48,53.7,3.48,72s7.129,35.51,20.07,48.45C36.49,133.39,53.701,140.52,72,140.52s35.51-7.13,48.449-20.069
			c12.941-12.94,20.07-30.15,20.07-48.45S133.391,36.49,120.449,23.55z M72,136.42c-35.52,0-64.42-28.9-64.42-64.42
			S36.48,7.58,72,7.58s64.42,28.9,64.42,64.42S107.52,136.42,72,136.42z"/>
	</g>
	<path fill="#FFFFFF" d="M43.881,63.159c-0.561-0.56-1.17-0.39-1.361,0.38L31.32,109.95c-0.189,0.77,0.289,1.25,1.061,1.06
		l46.41-11.2c0.77-0.189,0.939-0.8,0.379-1.359l-8.15-8.15c-0.559-0.561-0.559-1.48,0-2.04l44.65-44.649
		c0.561-0.561,0.561-1.48,0-2.04L100.74,26.64c-0.561-0.56-1.48-0.56-2.041,0L54.07,71.31c-0.561,0.561-1.48,0.561-2.039,0
		L43.881,63.159z"/>
</g>
</svg>
