<?xml version="1.0" encoding="utf-8"?>
<!-- Generator: Adobe Illustrator 16.0.0, SVG Export Plug-In . SVG Version: 6.00 Build 0)  -->
<!DOCTYPE svg PUBLIC "-//W3C//DTD SVG 1.1//EN" "http://www.w3.org/Graphics/SVG/1.1/DTD/svg11.dtd">
<svg version="1.1" id="_x35_0m" xmlns="http://www.w3.org/2000/svg" xmlns:xlink="http://www.w3.org/1999/xlink" x="0px" y="0px"
	 width="144px" height="144px" viewBox="0 0 144 144" enable-background="new 0 0 144 144" xml:space="preserve">
<g>
	<circle fill="#3E94D1" cx="72" cy="72" r="68.1"/>
	<path fill="#010101" d="M82.1,113.399H59.5c-2.8,0-5-2.199-5-5V86.7H32.7c-2.8,0-5-2.201-5-5v-22.6c0-2.801,2.2-5,5-5h21.8V32.3
		c0-2.801,2.2-5,5-5h22.6c2.8,0,5,2.199,5,5v21.801h21.8c2.8,0,5,2.199,5,5v22.6c0,2.799-2.2,5-5,5H87.1v21.8
		C87.1,111.2,84.8,113.399,82.1,113.399z M64.5,103.399h12.6V81.7c0-2.801,2.2-5,5-5H103.9v-12.6H82.1c-2.8,0-5-2.201-5-5V37.3H64.5
		v21.801c0,2.799-2.2,5-5,5H37.7v12.6h21.8c2.8,0,5,2.199,5,5V103.399z"/>
	<polygon fill="#FFFFFF" points="108.9,59.101 82.1,59.101 82.1,32.3 59.5,32.3 59.5,59.101 32.7,59.101 32.7,81.7 59.5,81.7 
		59.5,108.399 82.1,108.399 82.1,81.7 108.9,81.7 	"/>
	<path fill="#010101" d="M72,144c-9.7,0-19.2-1.899-28-5.7c-8.6-3.6-16.3-8.8-22.9-15.4c-6.6-6.6-11.8-14.299-15.4-22.9
		C1.9,91.2,0,81.7,0,71.999c0-9.699,1.9-19.199,5.7-28C9.3,35.4,14.5,27.7,21.1,21.1C27.7,14.5,35.4,9.3,44,5.7
		C52.9,1.899,62.3,0,72,0c9.7,0,19.2,1.899,28,5.7c8.6,3.6,16.3,8.8,22.9,15.399c6.6,6.601,11.8,14.301,15.4,22.899
		c3.8,8.9,5.7,18.301,5.7,28c0,9.701-1.9,19.201-5.7,28c-3.6,8.602-8.8,16.301-15.4,22.9c-6.6,6.601-14.3,11.801-22.9,15.4
		C91.2,142.101,81.7,144,72,144z M72,10.3c-16.5,0-32,6.4-43.7,18.101c-11.7,11.7-18,27.1-18,43.599
		c0,16.501,6.4,32.002,18.1,43.701c11.7,11.699,27.2,18.1,43.7,18.1s32-6.4,43.7-18.1s18.1-27.2,18.1-43.6c0-16.4-6.4-32-18.1-43.7
		S88.5,10.3,72,10.3z"/>
</g>
</svg>
