<?xml version="1.0" encoding="utf-8"?>
<!-- Generator: Adobe Illustrator 16.0.0, SVG Export Plug-In . SVG Version: 6.00 Build 0)  -->
<!DOCTYPE svg PUBLIC "-//W3C//DTD SVG 1.1//EN" "http://www.w3.org/Graphics/SVG/1.1/DTD/svg11.dtd">
<svg version="1.1" id="_x35_0m" xmlns="http://www.w3.org/2000/svg" xmlns:xlink="http://www.w3.org/1999/xlink" x="0px" y="0px"
	 width="144px" height="144px" viewBox="0 0 144 144" enable-background="new 0 0 144 144" xml:space="preserve">
<g>
	<circle fill="#EEDD51" cx="72" cy="72" r="68.1"/>
	<path fill="#010101" d="M82.199,113.2H59.6c-2.8,0-5-2.199-5-5V86.499H32.8c-2.8,0-5-2.199-5-4.999V58.899c0-2.8,2.2-5,5-5h21.8
		V32.101c0-2.801,2.2-5,5-5h22.6c2.801,0,5.001,2.199,5.001,5v21.799H109c2.8,0,5,2.2,5,5V81.5c0,2.8-2.2,4.999-5,4.999H87.2V108.3
		C87.2,111.001,84.899,113.2,82.199,113.2z M64.6,103.2H77.2V81.5c0-2.8,2.199-5.001,4.999-5.001H104v-12.6H82.199
		c-2.8,0-4.999-2.199-4.999-5V37.101H64.6v21.799c0,2.801-2.2,5-5,5H37.8v12.6h21.8c2.8,0,5,2.201,5,5.001V103.2z"/>
	<polygon fill="#FFFFFF" points="109,58.899 82.199,58.899 82.199,32.2 59.6,32.2 59.6,58.899 32.8,58.899 32.8,81.5 59.6,81.5 
		59.6,108.3 82.199,108.3 82.199,81.5 109,81.5 	"/>
	<path fill="#010101" d="M72,144c-9.7,0-19.101-1.899-28-5.7c-8.601-3.6-16.3-8.8-22.9-15.4c-6.6-6.6-11.8-14.299-15.399-22.9
		C1.899,91.1,0,81.7,0,71.999c0-9.699,1.899-19.1,5.7-28C9.3,35.4,14.5,27.7,21.1,21.1C27.7,14.5,35.399,9.3,44,5.7
		C52.899,1.899,62.3,0,72,0c9.699,0,19.1,1.899,28,5.7c8.6,3.6,16.3,8.8,22.899,15.399C129.5,27.7,134.7,35.4,138.3,43.999
		c3.8,8.9,5.7,18.301,5.7,28c0,9.701-1.9,19.101-5.7,28c-3.6,8.602-8.8,16.301-15.4,22.9C116.3,129.5,108.6,134.7,100,138.3
		C91.1,142.101,81.699,144,72,144z M72,10.3c-16.5,0-32,6.4-43.7,18.101s-18,27.1-18,43.599c0,16.501,6.4,32.002,18.1,43.701
		c11.7,11.699,27.2,18.1,43.7,18.1s32-6.4,43.7-18.1s18.1-27.2,18.1-43.701c0-16.499-6.399-31.998-18.1-43.699
		C104.1,16.601,88.5,10.3,72,10.3z"/>
</g>
</svg>
