<?xml version="1.0" encoding="utf-8"?>
<!-- Generator: Adobe Illustrator 16.0.0, SVG Export Plug-In . SVG Version: 6.00 Build 0)  -->
<!DOCTYPE svg PUBLIC "-//W3C//DTD SVG 1.1//EN" "http://www.w3.org/Graphics/SVG/1.1/DTD/svg11.dtd">
<svg version="1.1" id="_x35_0m" xmlns="http://www.w3.org/2000/svg" xmlns:xlink="http://www.w3.org/1999/xlink" x="0px" y="0px"
	 width="144px" height="144px" viewBox="0 0 144 144" enable-background="new 0 0 144 144" xml:space="preserve">
<g>
	<path fill="#010101" d="M0.604,86.602c0,11.983,9.667,21.65,21.65,21.65c8.357,0,15.507-4.733,19.133-11.58h44.408
		c3.424,0,6.343-2.417,6.948-5.739l2.518-13.192c0.302-1.612,0-3.223-0.604-4.531l4.934-14.602l7.855,11.782
		c-4.531,3.926-7.351,9.768-7.351,16.212c0,11.983,9.667,21.65,21.65,21.65c11.984,0,21.65-9.667,21.65-21.65
		c0-11.982-9.667-21.649-21.65-21.649c-3.423,0-6.646,0.806-9.465,2.216l-7.25-10.776c0.705,0.101,1.41,0.101,2.114,0
		c0.202,0,0.403-0.101,0.604-0.101c0.806-0.201,1.41-1.108,1.208-1.912l-1.611-9.668c-0.101-0.907-0.906-1.511-1.813-1.409
		c-0.202,0-0.503,0-0.705,0.101c-0.604,0.1-1.208,0.302-1.712,0.604l-0.403-0.504c-0.906-1.409-2.719-1.711-4.128-0.905
		l-2.015,1.309l-5.74-8.561h-9.969c-1.611,0-2.92,1.311-2.92,2.921c0,1.612,1.309,2.921,2.92,2.921h6.948l6.646,9.97l-3.122,9.364
		V49.142c-3.021-3.624-7.753-4.935-14.702-2.518C69.382,49.242,57.5,54.479,57.5,61.125c-1.511-1.107-3.424-1.409-5.136-0.806
		c-0.906,0.302-1.913,0.604-2.92,0.604H32.022c-1.208,0-2.316,0.806-2.618,2.016c-2.316-0.706-4.732-1.108-7.25-1.108
		c-2.719,0-5.438,0.402-7.854,1.309l1.007,2.921C6.747,68.98,0.604,77.136,0.604,86.602z M108.05,86.602
		c0-3.727,1.41-7.049,3.827-9.466l7.452,11.077c0.503,0.806,1.51,1.31,2.417,1.31c0.504,0,1.108-0.202,1.611-0.504
		c1.309-0.906,1.712-2.719,0.806-4.028l-7.452-11.076c1.51-0.605,3.222-0.907,5.035-0.907c7.553,0,13.695,6.144,13.695,13.696
		c0,7.552-6.143,13.694-13.695,13.694C114.193,100.297,108.05,94.154,108.05,86.602z M8.56,86.602
		c0-7.553,6.143-13.695,13.695-13.695c2.718,0,5.236,0.807,7.351,2.216l-5.337,5.337c-0.705-0.201-1.309-0.302-2.115-0.302
		c-3.625,0-6.545,2.921-6.545,6.546c0,3.624,2.92,6.545,6.545,6.545c3.625,0,6.545-2.921,6.545-6.545
		c0-0.705-0.101-1.41-0.302-2.114l5.337-5.338l0.705,1.309c0.906,1.813,1.41,3.928,1.41,6.144c0,0.604,0,1.207-0.101,1.711
		l16.213,2.519H29.001v5.739h2.517c-2.417,2.215-5.639,3.625-9.264,3.625C14.702,100.297,8.56,94.154,8.56,86.602z"/>
	<path fill="#AEAEAE" d="M121.947,64.649c-3.524,0-6.848,0.805-9.768,2.315l4.733,7.049c1.61-0.604,3.322-1.007,5.135-1.007
		c7.452,0,13.594,6.042,13.594,13.595s-6.042,13.595-13.594,13.595c-7.553,0-13.595-6.042-13.595-13.595
		c0-3.625,1.41-6.848,3.726-9.264l-4.733-7.049c-4.531,4.026-7.351,9.868-7.351,16.414c0,12.082,9.869,21.952,21.953,21.952
		S144,98.785,144,86.703C144,74.619,134.03,64.649,121.947,64.649z"/>
	<path fill="#AEAEAE" d="M21.953,108.655C9.869,108.655,0,98.785,0,86.703C0,74.619,9.869,64.75,21.953,64.75
		c12.083,0,21.952,9.869,21.952,21.953C43.905,98.785,34.137,108.655,21.953,108.655z M21.953,73.108
		c-7.452,0-13.595,6.042-13.595,13.595c0,7.552,6.042,13.594,13.595,13.594c7.552,0,13.594-6.042,13.594-13.594
		C35.547,79.15,29.505,73.108,21.953,73.108z"/>
	<rect x="29.001" y="90.933" fill="#010101" width="21.147" height="5.739"/>
</g>
</svg>
