<?xml version="1.0" encoding="utf-8"?>
<!-- Generator: Adobe Illustrator 16.0.0, SVG Export Plug-In . SVG Version: 6.00 Build 0)  -->
<!DOCTYPE svg PUBLIC "-//W3C//DTD SVG 1.1//EN" "http://www.w3.org/Graphics/SVG/1.1/DTD/svg11.dtd">
<svg version="1.1" id="_x35_0m" xmlns="http://www.w3.org/2000/svg" xmlns:xlink="http://www.w3.org/1999/xlink" x="0px" y="0px"
	 width="144px" height="144px" viewBox="0 0 144 144" enable-background="new 0 0 144 144" xml:space="preserve">
<rect y="38.012" fill="#010101" width="144" height="67.977"/>
<rect x="2.213" y="40.175" fill="#FCEE23" width="139.575" height="63.65"/>
<g>
	<g>
		<path fill="#010101" d="M29.925,89.22h-6.627V54.978h10.443l6.226,26.91l6.125-26.91h10.242V89.22h-6.627V66.022
			c0-0.703,0-1.605,0-2.811s0-2.109,0-2.813L43.18,89.12h-6.929l-6.427-28.721c0,0.604,0,1.607,0,2.813s0,2.107,0,2.811
			L29.925,89.22L29.925,89.22z"/>
		<path fill="#010101" d="M78.125,90.124c-4.92,0-8.635-1.307-11.247-4.018c-3.515-3.314-5.221-7.932-5.221-14.158
			s1.707-10.945,5.221-14.16c2.611-2.611,6.327-4.018,11.247-4.018c4.921,0,8.637,1.307,11.247,4.018
			c3.415,3.113,5.222,7.834,5.222,14.16c0,6.123-1.707,10.844-5.222,14.158C86.762,88.817,83.046,90.124,78.125,90.124z
			 M84.854,80.884c1.606-2.107,2.511-5.02,2.511-8.936c0-3.816-0.804-6.828-2.511-8.938s-3.917-3.113-6.729-3.113
			c-2.812,0-5.121,1.004-6.728,3.113c-1.708,2.109-2.511,5.021-2.511,8.938c0,3.814,0.803,6.828,2.511,8.936
			c1.707,2.109,3.916,3.113,6.728,3.113C80.937,84.099,83.247,82.993,84.854,80.884z"/>
		<path fill="#010101" d="M127.632,54.978l-11.448,21.389V89.22h-7.129V76.265L97.206,54.978h8.435l7.129,14.861l6.829-14.861
			H127.632z"/>
	</g>
</g>
</svg>
