<?xml version="1.0" encoding="UTF-8" standalone="no"?>
<!-- Generator: Adobe Illustrator 16.0.0, SVG Export Plug-In . SVG Version: 6.00 Build 0)  -->

<svg
   version="1.1"
   id="_x35_0m"
   x="0px"
   y="0px"
   width="144px"
   height="144px"
   viewBox="0 0 144 144"
   enable-background="new 0 0 144 144"
   xml:space="preserve"
   sodipodi:docname="narrow.svg"
   inkscape:version="1.2.1 (9c6d41e410, 2022-07-14)"
   xmlns:inkscape="http://www.inkscape.org/namespaces/inkscape"
   xmlns:sodipodi="http://sodipodi.sourceforge.net/DTD/sodipodi-0.dtd"
   xmlns="http://www.w3.org/2000/svg"
   xmlns:svg="http://www.w3.org/2000/svg"><defs
   id="defs11" /><sodipodi:namedview
   id="namedview9"
   pagecolor="#ffffff"
   bordercolor="#000000"
   borderopacity="0.25"
   inkscape:showpageshadow="2"
   inkscape:pageopacity="0.0"
   inkscape:pagecheckerboard="0"
   inkscape:deskcolor="#d1d1d1"
   showgrid="false"
   inkscape:zoom="5.4722222"
   inkscape:cx="53.908629"
   inkscape:cy="101.23858"
   inkscape:window-width="1920"
   inkscape:window-height="986"
   inkscape:window-x="-11"
   inkscape:window-y="-11"
   inkscape:window-maximized="1"
   inkscape:current-layer="_x35_0m" />
<g
   id="g6"
   style="stroke:#000000;stroke-width:1.5;stroke-dasharray:none;stroke-opacity:1"
   transform="matrix(1.0001498,0,0,0.98360084,-0.01078021,1.2712446)">
	<path
   fill="#ec2227"
   d="M 44.283,37.325 C 35.678,13.108 21.268,0.5 20.667,0 l -9.605,11.208 c 0.199,0.101 12.508,11.008 19.513,31.821 3.174,9.225 4.886,18.878 5.153,28.918 -0.268,10.04 -1.979,19.693 -5.153,28.918 -7.005,20.813 -19.313,31.721 -19.513,31.821 l 9.605,11.208 c 0.601,-0.5 15.011,-13.108 23.616,-37.325 3.237,-9.132 5.865,-20.732 6.155,-34.622 -0.29,-13.889 -2.917,-25.49 -6.155,-34.622 z"
   id="path2"
   style="stroke:#000000;stroke-width:1.5;stroke-dasharray:none;stroke-opacity:1" />
	<path
   fill="#ec2227"
   d="m 99.717,106.569 c 8.605,24.217 23.016,36.825 23.616,37.325 l 9.605,-11.208 c -0.199,-0.101 -12.508,-11.008 -19.513,-31.821 -3.174,-9.225 -4.886,-18.878 -5.153,-28.918 0.268,-10.04 1.979,-19.693 5.153,-28.918 7.005,-20.813 19.313,-31.721 19.513,-31.821 L 123.333,0 c -0.601,0.5 -15.011,13.108 -23.616,37.325 -3.237,9.132 -5.865,20.732 -6.155,34.622 0.29,13.89 2.917,25.491 6.155,34.622 z"
   id="path4"
   style="stroke:#000000;stroke-width:1.5;stroke-dasharray:none;stroke-opacity:1" />
</g>
</svg>
