<?xml version="1.0" encoding="utf-8"?>
<!-- Generator: Adobe Illustrator 16.0.0, SVG Export Plug-In . SVG Version: 6.00 Build 0)  -->
<!DOCTYPE svg PUBLIC "-//W3C//DTD SVG 1.1//EN" "http://www.w3.org/Graphics/SVG/1.1/DTD/svg11.dtd">
<svg version="1.1" id="_x35_0m" xmlns="http://www.w3.org/2000/svg" xmlns:xlink="http://www.w3.org/1999/xlink" x="0px" y="0px"
	 width="144px" height="144px" viewBox="0 0 144 144" enable-background="new 0 0 144 144" xml:space="preserve">
<g>
	<circle fill="#3D93D0" cx="72" cy="72" r="68.19"/>
	<path fill="#ED2024" d="M0,72.497C-0.021,32.463,31.978,0.02,71.503,0C111.617-0.021,144,31.998,144,71.716
		C144.01,111.739,111.911,144,72.081,144C32.423,144,0.02,111.861,0,72.497z M48.797,56.183c-3.091-3.13-6.191-6.261-9.281-9.392
		c-0.71-0.993-1.54-1.874-2.554-2.575c-3.637-3.717-7.305-7.405-10.892-11.165c-1.196-1.257-1.53,0-1.986,0.568
		c-5.837,7.203-9.828,15.351-11.916,24.368c-7.619,32.929,12.474,65.758,45.373,73.652c19.09,4.579,36.588,0.598,52.293-11.237
		c1.134-0.852,1.389-1.357,0.213-2.473c-3.415-3.232-6.698-6.606-10.041-9.929c-0.497-0.721-1.064-1.359-1.824-1.805
		c-3.851-3.973-7.681-7.964-11.561-11.904C76.377,83.905,66.103,73.551,55.839,63.185c-0.193-0.191-0.437-0.334-0.659-0.497
		c-0.72-0.981-1.55-1.834-2.543-2.543c-0.324-0.536-0.729-1.003-1.296-1.296C50.488,57.956,49.638,57.075,48.797,56.183z
		 M64.329,56.488c0.852,0.901,1.703,1.803,2.554,2.705c0.436,0.436,0.871,0.86,1.308,1.296c0.729,0.964,1.54,1.854,2.543,2.543
		c4.854,4.955,9.676,9.931,14.55,14.854c6.313,6.364,12.665,12.697,18.998,19.039c0.396,0.819,1.063,1.378,1.794,1.863
		c3.981,4.074,7.974,8.117,11.926,12.22c1.114,1.155,1.418-0.05,1.834-0.566c4.903-5.988,8.511-12.707,10.791-20.093
		c10.801-34.946-10.73-71.442-46.59-78.565C65.759,8.156,49.06,12.29,34.176,23.567c-1.095,0.831-1.479,1.328-0.243,2.472
		c3.029,2.827,5.907,5.816,8.846,8.745c2.797,2.826,5.593,5.654,8.398,8.48c0.446,0.435,0.882,0.872,1.328,1.308
		c0.72,0.982,1.551,1.833,2.543,2.543C57.966,50.418,61.066,53.529,64.329,56.488z"/>
</g>
</svg>
