<?xml version="1.0" encoding="utf-8"?>
<!-- Generator: Adobe Illustrator 16.0.0, SVG Export Plug-In . SVG Version: 6.00 Build 0)  -->
<!DOCTYPE svg PUBLIC "-//W3C//DTD SVG 1.1//EN" "http://www.w3.org/Graphics/SVG/1.1/DTD/svg11.dtd">
<svg version="1.1" id="_x35_0m" xmlns="http://www.w3.org/2000/svg" xmlns:xlink="http://www.w3.org/1999/xlink" x="0px" y="0px"
	 width="144px" height="144px" viewBox="0 0 144 144" enable-background="new 0 0 144 144" xml:space="preserve">
<g>
	<circle fill="#3D93D0" cx="72.001" cy="71.95" r="68.151"/>
	<g>
		<rect x="57.418" y="15.443" fill="#FFFFFF" width="12.05" height="112.81"/>
		<rect x="74.432" y="15.443" fill="#FFFFFF" width="12.049" height="112.81"/>
	</g>
	<path fill="#ED2024" d="M0,72.456c0-40,32.001-72.404,71.495-72.404c40.1,0,72.505,31.999,72.505,71.696
		c0,39.998-32.103,72.2-71.898,72.2C32.407,143.948,0,111.849,0,72.456z M48.71,56.152c-3.038-3.14-6.179-6.279-9.317-9.418
		c-0.708-1.013-1.52-1.821-2.531-2.532c-3.646-3.745-7.291-7.391-10.936-11.139c-1.217-1.215-1.52,0-2.025,0.607
		c-5.874,7.19-9.824,15.291-11.95,24.304c-7.394,32.911,12.658,65.721,45.569,73.62c19.036,4.558,36.556,0.607,52.252-11.24
		c1.115-0.811,1.418-1.316,0.204-2.431c-3.443-3.241-6.684-6.582-10.025-9.925c-0.507-0.708-1.114-1.315-1.824-1.822
		c-3.847-3.949-7.695-7.999-11.544-11.949C76.354,83.898,66.026,73.569,55.799,63.14c-0.204-0.203-0.405-0.304-0.71-0.507
		c-0.708-1.014-1.52-1.822-2.532-2.531c-0.303-0.507-0.708-1.012-1.315-1.316C50.431,57.975,49.62,57.063,48.71,56.152z
		 M64.304,56.455c0.811,0.912,1.723,1.823,2.533,2.735c0.403,0.404,0.91,0.811,1.315,1.316c0.708,1.012,1.519,1.822,2.531,2.53
		c4.861,4.963,9.722,9.925,14.583,14.888c6.277,6.378,12.658,12.658,19.036,19.036c0.405,0.812,1.115,1.418,1.824,1.824
		c3.949,4.05,8,8.101,11.949,12.252c1.114,1.114,1.417-0.101,1.822-0.606c4.861-5.976,8.507-12.658,10.733-20.052
		c10.837-34.937-10.733-71.392-46.582-78.48c-18.228-3.645-34.937,0.507-49.821,11.748c-1.113,0.81-1.52,1.315-0.202,2.43
		c3.038,2.836,5.872,5.772,8.81,8.709c2.836,2.835,5.569,5.672,8.405,8.506c0.404,0.405,0.91,0.911,1.315,1.317
		c0.71,1.013,1.52,1.822,2.532,2.531C57.925,50.379,61.063,53.52,64.304,56.455z"/>
</g>
</svg>
