<?xml version="1.0" encoding="utf-8"?>
<!-- Generator: Adobe Illustrator 16.0.0, SVG Export Plug-In . SVG Version: 6.00 Build 0)  -->
<!DOCTYPE svg PUBLIC "-//W3C//DTD SVG 1.1//EN" "http://www.w3.org/Graphics/SVG/1.1/DTD/svg11.dtd">
<svg version="1.1" id="_x35_0m" xmlns="http://www.w3.org/2000/svg" xmlns:xlink="http://www.w3.org/1999/xlink" x="0px" y="0px"
	 width="144px" height="144px" viewBox="0 0 144 144" enable-background="new 0 0 144 144" xml:space="preserve">
<g>
	<circle fill="#3D93D0" cx="72.005" cy="72" r="68.195"/>
	<rect x="65.957" y="15.387" fill="#FFFFFF" width="12.088" height="112.902"/>
	<path fill="#ED2024" d="M0,72.497C-0.02,32.46,31.98,0.015,71.499-0.005C111.615-0.025,144,31.995,144,71.716
		c0.012,40.025-32.09,72.289-71.923,72.289C32.426,144.005,0.021,111.864,0,72.497z M48.791,56.182
		c-3.092-3.131-6.191-6.262-9.282-9.393c-0.709-0.993-1.541-1.874-2.553-2.575c-3.639-3.718-7.306-7.405-10.894-11.166
		c-1.195-1.257-1.53,0-1.985,0.568c-5.838,7.204-9.829,15.352-11.918,24.37c-7.619,32.931,12.475,65.763,45.377,73.657
		c19.09,4.579,36.59,0.598,52.297-11.237c1.134-0.853,1.387-1.357,0.211-2.473c-3.413-3.233-6.697-6.607-10.042-9.931
		c-0.496-0.721-1.063-1.358-1.823-1.804c-3.851-3.974-7.68-7.965-11.562-11.905c-10.244-10.388-20.509-20.743-30.773-31.11
		c-0.193-0.191-0.437-0.334-0.658-0.496c-0.721-0.981-1.551-1.835-2.544-2.543c-0.324-0.537-0.729-1.004-1.298-1.297
		C50.493,57.955,49.642,57.074,48.791,56.182z M64.335,56.486c0.851,0.902,1.702,1.804,2.554,2.706
		c0.436,0.436,0.871,0.86,1.308,1.296c0.729,0.964,1.54,1.854,2.543,2.543c4.854,4.956,9.676,9.932,14.551,14.855
		c6.313,6.365,12.666,12.698,19,19.041c0.395,0.819,1.063,1.378,1.792,1.863c3.983,4.074,7.975,8.117,11.928,12.22
		c1.115,1.156,1.419-0.049,1.833-0.565c4.905-5.989,8.513-12.708,10.792-20.094c10.803-34.949-10.73-71.448-46.591-78.572
		c-18.28-3.627-34.979,0.507-49.864,11.785c-1.095,0.831-1.479,1.328-0.244,2.472c3.03,2.827,5.908,5.816,8.847,8.746
		c2.796,2.826,5.593,5.654,8.4,8.48c0.445,0.435,0.882,0.872,1.327,1.308c0.72,0.982,1.551,1.833,2.543,2.543
		C57.971,50.417,61.072,53.528,64.335,56.486z"/>
</g>
</svg>
