<?xml version="1.0" encoding="UTF-8" standalone="no"?>
<!-- Generator: Adobe Illustrator 16.0.0, SVG Export Plug-In . SVG Version: 6.00 Build 0)  -->

<svg
   version="1.1"
   id="_x35_0m"
   x="0px"
   y="0px"
   width="144px"
   height="144px"
   viewBox="0 0 144 144"
   enable-background="new 0 0 144 144"
   xml:space="preserve"
   sodipodi:docname="no_parking.svg"
   inkscape:version="1.2.1 (9c6d41e410, 2022-07-14)"
   xmlns:inkscape="http://www.inkscape.org/namespaces/inkscape"
   xmlns:sodipodi="http://sodipodi.sourceforge.net/DTD/sodipodi-0.dtd"
   xmlns="http://www.w3.org/2000/svg"
   xmlns:svg="http://www.w3.org/2000/svg"><defs
   id="defs830" /><sodipodi:namedview
   id="namedview828"
   pagecolor="#ffffff"
   bordercolor="#000000"
   borderopacity="0.25"
   inkscape:showpageshadow="2"
   inkscape:pageopacity="0.0"
   inkscape:pagecheckerboard="0"
   inkscape:deskcolor="#d1d1d1"
   showgrid="false"
   inkscape:zoom="5.4722222"
   inkscape:cx="55.461929"
   inkscape:cy="72"
   inkscape:window-width="1920"
   inkscape:window-height="986"
   inkscape:window-x="-11"
   inkscape:window-y="-11"
   inkscape:window-maximized="1"
   inkscape:current-layer="_x35_0m" />
<path
   fill="#ffffff"
   d="m 71.268541,6.1347756 c -36.015,0 -65.3170015,29.3020004 -65.3170015,65.3170004 0,36.015004 29.3020015,65.317004 65.3170015,65.317004 36.015989,0 65.317989,-29.303 65.317989,-65.317004 0,-36.014 -29.30199,-65.3170004 -65.317989,-65.3170004 z"
   id="path255" /><g
   id="g825">
	<g
   id="g821">
		<path
   fill="#010101"
   d="M82.792,84.672H63.944v31.922H45.5v-88.67H84.11c8.918,0,16.012,2.33,21.281,6.891    c5.269,4.561,7.904,11.654,7.904,21.28c0,10.438-2.635,17.836-7.904,22.192C100.122,82.543,92.521,84.672,82.792,84.672z     M91.406,66.229c2.432-2.128,3.648-5.472,3.648-10.134c0-4.661-1.216-7.904-3.648-9.83c-2.432-1.925-5.877-2.938-10.234-2.938    H63.944v26.145h17.228C85.528,69.472,88.974,68.357,91.406,66.229z"
   id="path819" />
	</g>
	<path
   fill="#ED2024"
   d="M0,72.715C0,32.687,32.022,0.259,71.544,0.158C111.673,0.158,144,32.18,144,71.904   c0,40.026-32.124,72.252-71.95,72.252C32.428,144.258,0.102,112.135,0,72.715z M48.844,56.399c-3.04-3.142-6.181-6.283-9.322-9.424   c-0.71-1.014-1.52-1.824-2.534-2.534c-3.647-3.749-7.296-7.397-10.944-11.146c-1.216-1.217-1.521,0-2.027,0.607   c-5.877,7.194-9.83,15.302-11.958,24.321c-7.499,32.934,12.667,65.767,45.5,73.671c19.051,4.561,36.582,0.608,52.29-11.248   c1.115-0.811,1.419-1.317,0.203-2.433c-3.446-3.242-6.688-6.586-10.033-9.931c-0.507-0.709-1.115-1.317-1.824-1.824   c-3.851-3.952-7.702-8.005-11.553-11.957c-10.235-10.337-20.47-20.673-30.807-31.11c-0.202-0.203-0.405-0.305-0.709-0.507   c-0.709-1.014-1.52-1.824-2.533-2.533c-0.304-0.507-0.709-1.013-1.318-1.317C50.567,58.224,49.655,57.311,48.844,56.399z    M64.349,56.703c0.811,0.912,1.723,1.824,2.534,2.736c0.405,0.405,0.912,0.811,1.317,1.317c0.71,1.014,1.52,1.824,2.534,2.533   c4.864,4.966,9.728,9.931,14.592,14.896c6.284,6.385,12.667,12.668,19.052,19.051c0.405,0.812,1.114,1.419,1.824,1.824   c3.952,4.054,8.005,8.106,11.958,12.263c1.115,1.113,1.419-0.102,1.824-0.608c4.864-5.979,8.513-12.667,10.742-20.065   c10.843-34.961-10.742-71.441-46.615-78.535c-18.241-3.648-34.961,0.507-49.858,11.756c-1.115,0.811-1.52,1.317-0.203,2.432   c3.04,2.837,5.878,5.775,8.816,8.714c2.837,2.838,5.574,5.676,8.411,8.513c0.406,0.405,0.913,0.912,1.318,1.317   c0.709,1.014,1.52,1.824,2.533,2.533C58.066,50.623,61.106,53.765,64.349,56.703z"
   id="path823" />
</g>
</svg>
