<?xml version="1.0" encoding="utf-8"?>
<!-- Generator: Adobe Illustrator 16.0.0, SVG Export Plug-In . SVG Version: 6.00 Build 0)  -->
<!DOCTYPE svg PUBLIC "-//W3C//DTD SVG 1.1//EN" "http://www.w3.org/Graphics/SVG/1.1/DTD/svg11.dtd">
<svg version="1.1" id="_x35_0m" xmlns="http://www.w3.org/2000/svg" xmlns:xlink="http://www.w3.org/1999/xlink" x="0px" y="0px"
	 width="144px" height="144px" viewBox="0 0 144 144" enable-background="new 0 0 144 144" xml:space="preserve">
<g>
	<g>
		<g>
			<g>
				<g>
					<g>
						<path fill="#FFFFFF" d="M4.583,100.692c-2.389,0-4.338-1.925-4.338-4.289V47.911c0-2.364,1.95-4.289,4.338-4.289h134.835
							c2.389,0,4.339,1.925,4.339,4.289v48.492c0,2.364-1.95,4.289-4.339,4.289H4.583z"/>
					</g>
				</g>
				<g>
					<g>
						<g>
							<path fill="#878787" d="M139.418,43.853c2.267,0,4.107,1.816,4.107,4.059v48.492c0,2.242-1.841,4.059-4.107,4.059H4.583
								c-2.267,0-4.095-1.816-4.095-4.059V47.911c0-2.242,1.828-4.059,4.095-4.059H139.418L139.418,43.853z M139.418,43.379H4.583
								C2.06,43.379,0,45.413,0,47.911v48.492c0,2.498,2.06,4.532,4.583,4.532h134.835c2.522,0,4.582-2.034,4.582-4.532V47.911
								C144,45.413,141.94,43.379,139.418,43.379L139.418,43.379z"/>
						</g>
					</g>
				</g>
			</g>
		</g>
	</g>
	<g>
		<g>
			<g>
				<path fill="#010101" d="M31.967,88.104L19.085,68.142v19.974h-6.35V55.578h5.667l12.881,19.925V55.578h6.349v32.537h-5.667
					V88.104z"/>
			</g>
		</g>
		<g>
			<g>
				<path fill="#010101" d="M61.313,85.459c-1.462,1.548-3.888,2.926-7.397,2.926c-3.522,0-5.898-1.366-7.361-2.926
					c-2.145-2.242-2.693-4.937-2.693-9.274c0-4.303,0.548-6.995,2.693-9.225c1.462-1.548,3.838-2.926,7.361-2.926
					c3.522,0,5.935,1.365,7.397,2.926c2.145,2.242,2.693,4.936,2.693,9.225C64.006,80.522,63.458,83.217,61.313,85.459z
					 M56.693,70.421c-0.682-0.684-1.596-1.049-2.791-1.049c-1.182,0-2.06,0.365-2.741,1.049c-1.231,1.23-1.378,3.289-1.378,5.751
					c0,2.463,0.135,4.571,1.378,5.803c0.682,0.681,1.56,1.047,2.741,1.047c1.183,0,2.109-0.366,2.791-1.047
					c1.231-1.231,1.366-3.34,1.366-5.803C58.059,73.71,57.924,71.651,56.693,70.421z"/>
			</g>
		</g>
		<g>
			<g>
				<path fill="#010101" d="M82.762,70.786c-0.914-0.914-1.694-1.414-3.157-1.414c-1.828,0-3.838,1.377-3.838,4.389v14.343h-5.935
					v-23.8h5.801v2.29c1.145-1.377,3.424-2.56,5.983-2.56c2.327,0,3.973,0.598,5.618,2.242L82.762,70.786z"/>
			</g>
		</g>
		<g>
			<g>
				<path fill="#010101" d="M100.066,88.104c-4.838,0-6.896-3.425-6.896-6.813V69.507h-2.511v-4.522h2.511v-7.031h5.946v7.031h4.205
					v4.522h-4.205v11.418c0,1.366,0.634,2.146,2.047,2.146h2.146v5.033H100.066z"/>
			</g>
		</g>
		<g>
			<g>
				<path fill="#010101" d="M122.576,88.104V73.577c0-3.156-2.011-4.205-3.888-4.205s-3.839,1.097-3.839,4.205v14.526h-5.935v-32.54
					h5.935v10.921c1.597-1.646,3.608-2.462,5.716-2.462c5.204,0,7.946,3.656,7.946,8.677v15.404H122.576z"/>
			</g>
		</g>
	</g>
</g>
</svg>
