<?xml version="1.0" encoding="utf-8"?>
<!-- Generator: Adobe Illustrator 16.0.0, SVG Export Plug-In . SVG Version: 6.00 Build 0)  -->
<!DOCTYPE svg PUBLIC "-//W3C//DTD SVG 1.1//EN" "http://www.w3.org/Graphics/SVG/1.1/DTD/svg11.dtd">
<svg version="1.1" id="_x35_0m" xmlns="http://www.w3.org/2000/svg" xmlns:xlink="http://www.w3.org/1999/xlink" x="0px" y="0px"
	 width="144px" height="144px" viewBox="0 0 144 144" enable-background="new 0 0 144 144" xml:space="preserve">
<g>
	<polygon fill="#020202" points="103.299,137.153 103.299,10.663 93.884,10.663 93.884,0.157 50.117,0.157 50.117,10.663 
		40.701,10.663 40.701,137.153 17.291,137.153 17.291,144.157 126.709,144.157 126.709,137.153 	"/>
	<rect x="49.123" y="22.477" fill="#FFFFFF" width="18.818" height="11.815"/>
	<rect x="76.011" y="22.477" fill="#FFFFFF" width="18.817" height="11.815"/>
	<rect x="49.123" y="42.592" fill="#FFFFFF" width="18.818" height="11.813"/>
	<rect x="76.011" y="42.592" fill="#FFFFFF" width="18.817" height="11.813"/>
	<rect x="49.123" y="62.718" fill="#FFFFFF" width="18.818" height="11.814"/>
	<rect x="76.011" y="62.718" fill="#FFFFFF" width="18.817" height="11.814"/>
	<rect x="49.123" y="82.832" fill="#FFFFFF" width="18.818" height="11.814"/>
	<rect x="76.011" y="82.832" fill="#FFFFFF" width="18.817" height="11.814"/>
	<rect x="49.123" y="102.947" fill="#FFFFFF" width="18.818" height="11.815"/>
	<rect x="76.011" y="102.947" fill="#FFFFFF" width="18.817" height="11.815"/>
	<rect x="50.274" y="125.121" fill="#FFFFFF" width="43.439" height="11.814"/>
</g>
</svg>
