<?xml version="1.0" encoding="utf-8"?>
<!-- Generator: Adobe Illustrator 16.0.0, SVG Export Plug-In . SVG Version: 6.00 Build 0)  -->
<!DOCTYPE svg PUBLIC "-//W3C//DTD SVG 1.1//EN" "http://www.w3.org/Graphics/SVG/1.1/DTD/svg11.dtd">
<svg version="1.1" id="_x35_0m" xmlns="http://www.w3.org/2000/svg" xmlns:xlink="http://www.w3.org/1999/xlink" x="0px" y="0px"
	 width="144px" height="144px" viewBox="0 0 144 144" enable-background="new 0 0 144 144" xml:space="preserve">
<g>
	<circle fill="#EB2227" cx="73.399" cy="72.438" r="64.49"/>
	<path fill="#010101" d="M72,144.157c-9.721,0-19.15-1.899-28.03-5.661c-8.569-3.629-16.27-8.819-22.88-15.43
		c-6.61-6.609-11.8-14.309-15.43-22.88C1.899,91.308,0,81.877,0,72.157s1.899-19.149,5.66-28.03c3.63-8.569,8.819-16.27,15.43-22.88
		S35.4,9.447,43.97,5.817c8.88-3.761,18.31-5.66,28.03-5.66c9.72,0,19.149,1.899,28.029,5.66c8.57,3.63,16.271,8.819,22.881,15.43
		c6.609,6.61,11.8,14.311,15.43,22.88c3.76,8.881,5.66,18.311,5.66,28.03s-1.9,19.15-5.66,28.029
		c-3.63,8.571-8.82,16.271-15.43,22.88c-6.61,6.61-14.311,11.801-22.881,15.43C91.149,142.258,81.72,144.157,72,144.157z M72,10.428
		c-16.49,0-31.99,6.42-43.65,18.079c-11.66,11.661-18.08,27.161-18.08,43.65c0,16.49,6.42,31.989,18.08,43.649
		s27.16,18.08,43.65,18.08s31.989-6.42,43.649-18.08s18.08-27.159,18.08-43.649c0-16.489-6.42-31.989-18.08-43.65
		C103.989,16.848,88.49,10.428,72,10.428z"/>
	<path fill="#010101" d="M71.439,122.637l9.65-12.01c3.8-3.799,2.54-11.73-2.479-20.469l14.209-23.001
		c6.28,1.46,13.15-0.25,18.04-5.149c7.54-7.541,7.54-19.771,0-27.311c-7.54-7.539-19.77-7.539-27.31,0
		c-4.78,4.78-6.52,11.43-5.25,17.59l-23.76,12.74c-9.32-6.02-17.471-6.939-21.73-2.69l-12.01,9.66c-0.38,0.25-0.729,0.53-1.05,0.851
		c-5.84,5.839,0.82,21.949,14.859,35.989c14.04,14.04,30.16,20.69,35.99,14.86C70.92,123.367,71.2,123.018,71.439,122.637z
		 M48.439,95.477l-4.25,4.251c2.521,2.42,4.24,3.569,4.24,3.569l-5.2,5.201C31.04,98.906,26.65,88.337,26.65,88.337l5.85-4.229
		c1.06,1.98,2.149,3.79,3.26,5.439l4.62-3.459c-6.729-9.352-9.28-18.131-5.63-21.781c3.3-3.299,9.6-2.629,17.229,2.091l-9.42,5.06
		c0,0,0.29,5.461,3.78,11.779l29.49-16.819L51.77,90.486c1.76,1.771,3.86,3.471,6.36,5l12.32-11.83l-8.57,13.87
		c2.91,1.37,6.24,2.53,10.09,3.37l5.11-8.26c3.869,7.04,4.85,13.131,1.97,16.011C74.27,113.417,60.609,107.537,48.439,95.477z"/>
</g>
</svg>
