<?xml version="1.0" encoding="utf-8"?>
<!-- Generator: Adobe Illustrator 16.0.0, SVG Export Plug-In . SVG Version: 6.00 Build 0)  -->
<!DOCTYPE svg PUBLIC "-//W3C//DTD SVG 1.1//EN" "http://www.w3.org/Graphics/SVG/1.1/DTD/svg11.dtd">
<svg version="1.1" id="_x35_0m" xmlns="http://www.w3.org/2000/svg" xmlns:xlink="http://www.w3.org/1999/xlink" x="0px" y="0px"
	 width="144px" height="144px" viewBox="0 0 144 144" enable-background="new 0 0 144 144" xml:space="preserve">
<g>
	<circle fill="#EFDB53" cx="73.4" cy="72.438" r="64.49"/>
	<path fill="#010101" d="M72,144.157c-9.72,0-19.15-1.899-28.03-5.661c-8.569-3.629-16.27-8.819-22.88-15.43
		c-6.61-6.609-11.8-14.309-15.43-22.88C1.9,91.308,0,81.877,0,72.157s1.9-19.149,5.66-28.03c3.63-8.569,8.819-16.27,15.43-22.88
		S35.4,9.447,43.97,5.817C52.85,2.057,62.28,0.157,72,0.157s19.15,1.899,28.029,5.66c8.57,3.63,16.271,8.819,22.881,15.43
		c6.609,6.61,11.8,14.311,15.43,22.88c3.761,8.881,5.66,18.311,5.66,28.03s-1.899,19.15-5.66,28.029
		c-3.63,8.571-8.82,16.271-15.43,22.88c-6.61,6.61-14.311,11.801-22.881,15.43C91.15,142.258,81.72,144.157,72,144.157z M72,10.428
		c-16.49,0-31.99,6.42-43.65,18.079C16.69,40.168,10.27,55.668,10.27,72.157c0,16.49,6.421,31.989,18.08,43.649
		c11.66,11.66,27.16,18.08,43.65,18.08s31.989-6.42,43.65-18.08c11.659-11.66,18.079-27.159,18.079-43.649
		c0-16.489-6.42-31.989-18.079-43.65C103.989,16.848,88.49,10.428,72,10.428z"/>
	<path fill="#010101" d="M71.439,122.637l9.65-12.01c3.8-3.799,2.54-11.73-2.479-20.469l14.21-23.001
		c6.279,1.46,13.149-0.25,18.039-5.149c7.54-7.541,7.54-19.771,0-27.311c-7.539-7.539-19.77-7.539-27.31,0
		c-4.78,4.78-6.52,11.43-5.25,17.59l-23.76,12.74c-9.32-6.02-17.47-6.939-21.73-2.69l-12.01,9.66c-0.38,0.25-0.729,0.53-1.05,0.851
		c-5.84,5.839,0.82,21.949,14.86,35.989s30.159,20.69,35.989,14.86C70.92,123.367,71.2,123.018,71.439,122.637z M48.44,95.477
		l-4.25,4.251c2.52,2.42,4.239,3.569,4.239,3.569l-5.199,5.201c-12.19-9.592-16.58-20.161-16.58-20.161l5.85-4.229
		c1.06,1.98,2.15,3.79,3.26,5.439l4.62-3.459c-6.729-9.352-9.28-18.131-5.63-21.781c3.3-3.299,9.6-2.629,17.23,2.091l-9.421,5.06
		c0,0,0.29,5.461,3.78,11.779l29.49-16.819L51.77,90.486c1.761,1.771,3.86,3.471,6.36,5l12.32-11.83l-8.57,13.87
		c2.91,1.37,6.24,2.53,10.09,3.37l5.11-8.26c3.869,7.04,4.85,13.131,1.97,16.011C74.271,113.417,60.61,107.537,48.44,95.477z"/>
</g>
</svg>
