<?xml version="1.0" encoding="utf-8"?>
<!-- Generator: Adobe Illustrator 16.0.0, SVG Export Plug-In . SVG Version: 6.00 Build 0)  -->
<!DOCTYPE svg PUBLIC "-//W3C//DTD SVG 1.1//EN" "http://www.w3.org/Graphics/SVG/1.1/DTD/svg11.dtd">
<svg version="1.1" id="_x35_0m" xmlns="http://www.w3.org/2000/svg" xmlns:xlink="http://www.w3.org/1999/xlink" x="0px" y="0px"
	 width="144px" height="144px" viewBox="0 0 144 144" enable-background="new 0 0 144 144" xml:space="preserve">
<g>
	<g>
		<rect x="83.073" y="76.892" fill="#020202" width="0.383" height="0.325"/>
		<rect x="84.173" y="76.892" fill="#020202" width="0.452" height="0.649"/>
		<path fill="#020202" d="M140.689,77.888l0.464-0.011l-2.152-5.547c0,0-0.742-2.338-4.563-2.917
			c-3.819-0.578-36.118-3.819-36.118-3.819C86.21,52.593,82.877,52.546,82.877,52.546H67.605v-0.961h-0.09l2.025-1.076l-2.025-1.065
			h-4.052l-2.026,1.065l2.026,1.076h-0.082v0.961H49.535H47.07h-2.93c0-0.034-0.012-0.057-0.034-0.08
			c-0.046-0.047-0.115-0.035-0.163,0.011c-0.022,0.024-0.045,0.058-0.068,0.081h-2.199c-6.333,0-16.926,13.048-16.926,13.048
			L6.297,66.3c0,0-0.243,0.022-0.567,0.115H5.718c-0.104,0.035-0.208,0.07-0.312,0.115c-0.012,0-0.023,0.012-0.023,0.012
			c-0.058,0.023-0.115,0.048-0.162,0.07H5.21c-0.048,0.023-0.104,0.047-0.152,0.081c-0.011,0.012-0.022,0.012-0.033,0.022
			c-0.06,0.035-0.115,0.07-0.163,0.104c-0.012,0-0.012,0.012-0.022,0.012c-0.047,0.034-0.093,0.069-0.151,0.104
			c-0.012,0.013-0.022,0.023-0.046,0.035c-0.059,0.045-0.104,0.081-0.162,0.138l-0.012,0.013c-0.045,0.046-0.093,0.092-0.139,0.139
			c-0.012,0.012-0.022,0.022-0.035,0.045c-0.046,0.06-0.093,0.117-0.138,0.175c0,0-0.012,0.011-0.012,0.022
			c-0.036,0.059-0.081,0.116-0.116,0.174c-0.012,0.024-0.024,0.035-0.035,0.059c-0.034,0.069-0.069,0.139-0.104,0.22
			c0,0,0,0.012-0.011,0.012c-0.035,0.069-0.059,0.151-0.082,0.219c-0.011,0.023-0.011,0.048-0.022,0.07
			c-0.022,0.081-0.046,0.174-0.069,0.267v0.012c-0.023,0.093-0.034,0.186-0.046,0.277c0,0.023,0,0.047-0.013,0.082
			c-0.011,0.104-0.011,0.208-0.011,0.312c0,1.575,0,4.041,0,6.078c0,0.278,0,0.557,0,0.822c0,0.926,0,1.586,0,1.712l-1.713,0.024
			C1.006,77.842,0,78.178,0,80.088v3.82c0,0.948,0,2.975,3.229,2.975h15.098h1.272h1.065c1.087,4.572,5.198,7.988,10.106,7.988
			s9.018-3.404,10.094-7.988h1.066h2.095h57.998h1.157h1.065c1.076,4.572,5.187,7.988,10.096,7.988
			c4.908,0,9.017-3.404,10.106-7.988h1.065h2.082h13.406c0.382,0,2.998,0,2.998-2.975v-3.82
			C144,79.752,143.295,78.223,140.689,77.888z M38.399,65.594c0,0,0.706-7.814,5.313-11.346h2.559l-1.898,11.346H38.399z
			 M61.969,65.594H45.321l1.898-11.346H63.07C62.143,59.052,61.969,65.594,61.969,65.594z M83.768,77.24
			c0,0.022-0.022,0.035-0.059,0.046c-0.034,0.012-0.091,0.022-0.16,0.022h-0.486v0.313h-0.314v-0.82h0.775
			c0.151,0,0.233,0.022,0.233,0.067v0.372H83.768z M84.937,77.564c0,0.022-0.022,0.034-0.07,0.045
			c-0.033,0.012-0.079,0.023-0.126,0.023h-0.694c-0.048,0-0.093,0-0.127-0.023c-0.047-0.011-0.07-0.033-0.07-0.045v-0.696
			c0-0.022,0.023-0.034,0.07-0.045c0.034-0.012,0.079-0.012,0.127-0.012h0.694c0.047,0,0.093,0,0.126,0.012
			c0.048,0.011,0.07,0.033,0.07,0.045V77.564z M85.887,77.633h-0.869v-0.821h0.313v0.729h0.557V77.633z M86.313,77.633h-0.312
			v-0.821h0.312V77.633z M87.448,77.042h-0.312v-0.15h-0.382v0.649h0.382v-0.198h0.312v0.222c0,0.022-0.022,0.034-0.059,0.045
			c-0.033,0.012-0.079,0.023-0.138,0.023H86.64c-0.06,0-0.104-0.012-0.141-0.023c-0.034-0.011-0.057-0.033-0.057-0.045v-0.684
			c0-0.024,0.022-0.035,0.057-0.047c0.036-0.011,0.081-0.022,0.141-0.022h0.624c0.059,0,0.104,0.012,0.14,0.022
			c0.034,0.012,0.057,0.034,0.057,0.047v0.161H87.448z M88.34,77.633h-0.799v-0.821h0.799v0.092h-0.486v0.267h0.452v0.093h-0.452
			v0.289h0.486V77.633L88.34,77.633z M68.451,65.594c0,0-0.23-6.425-1.157-11.346h1.157h14.125h1.248
			c2.352,1.655,6.195,4.909,12.181,11.346H68.451z"/>
	</g>
	<rect x="32.355" y="71.127" fill="#FFFFFF" width="82.287" height="13.718"/>
	<path fill="#AEAEAE" d="M20.549,86.859c0.497,4.479,4.872,7.988,10.211,7.988c5.336,0,9.711-3.509,10.21-7.988H20.549z"/>
	<path fill="#AEAEAE" d="M103.887,86.859c0.5,4.479,4.875,7.988,10.211,7.988c5.338,0,9.713-3.509,10.211-7.988H103.887z"/>
	<path fill="#020202" d="M40.587,85.263c-0.498-4.48-4.873-7.987-10.21-7.987s-9.713,3.507-10.211,7.987H40.587z"/>
	<path fill="#020202" d="M124.297,85.263c-0.497-4.48-4.872-7.987-10.211-7.987c-5.336,0-9.711,3.507-10.211,7.987H124.297z"/>
</g>
</svg>
