<?xml version="1.0" encoding="utf-8"?>
<!-- Generator: Adobe Illustrator 16.0.0, SVG Export Plug-In . SVG Version: 6.00 Build 0)  -->
<!DOCTYPE svg PUBLIC "-//W3C//DTD SVG 1.1//EN" "http://www.w3.org/Graphics/SVG/1.1/DTD/svg11.dtd">
<svg version="1.1" id="_x35_0m" xmlns="http://www.w3.org/2000/svg" xmlns:xlink="http://www.w3.org/1999/xlink" x="0px" y="0px"
	 width="144px" height="144px" viewBox="0 0 144 144" enable-background="new 0 0 144 144" xml:space="preserve">
<g>
	<path fill="#AEAEAE" d="M113.78,68.575h0.054c0,0-0.064-0.01-0.175-0.021c-0.729-0.132-1.458-0.262-2.209-0.393
		c-3.865-0.871-10.669-3.418-6.553-10.342l0,0c1.763-1.187,2.774-2.472,2.774-3.811c0-6.172-20.443-11.168-45.666-11.168
		S16.34,47.838,16.34,54.01c0,0.938,0.521,1.841,1.403,2.699c2.045,4.541,4.595,13.51-5.388,16.451h0.011
		C4.561,76.066,0,79.56,0,83.326c0,10.026,32.233,18.146,71.999,18.146S144,93.353,144,83.326
		C143.979,77.241,132.036,71.862,113.78,68.575z"/>
	<ellipse fill="#020202" cx="32.951" cy="80.028" rx="3.168" ry="1.056"/>
	<ellipse fill="#020202" cx="40.778" cy="82.14" rx="3.168" ry="1.056"/>
	<ellipse fill="#020202" cx="40.321" cy="69.12" rx="3.168" ry="1.056"/>
	<ellipse fill="#020202" cx="26.114" cy="70.176" rx="3.168" ry="1.056"/>
	<ellipse fill="#020202" cx="33.975" cy="63.438" rx="3.168" ry="1.056"/>
	<ellipse fill="#020202" cx="32.951" cy="73.224" rx="3.168" ry="1.056"/>
	<ellipse fill="#020202" cx="38.557" cy="75.336" rx="3.168" ry="1.056"/>
	<ellipse fill="#020202" cx="50.304" cy="85.449" rx="3.168" ry="1.056"/>
	<ellipse fill="#020202" cx="31.361" cy="85.449" rx="3.168" ry="1.056"/>
	<ellipse fill="#020202" cx="21.901" cy="78.961" rx="3.168" ry="1.056"/>
	<ellipse fill="#020202" cx="24.177" cy="74.573" rx="3.168" ry="1.056"/>
	<ellipse fill="#020202" cx="39.745" cy="87.561" rx="3.165" ry="1.056"/>
	<ellipse fill="#020202" cx="15.796" cy="84.394" rx="3.165" ry="1.056"/>
	<ellipse fill="#020202" cx="58.402" cy="73.224" rx="3.168" ry="1.056"/>
	<ellipse fill="#020202" cx="49.117" cy="77.904" rx="3.168" ry="1.056"/>
	<ellipse fill="#020202" cx="54.581" cy="63.438" rx="3.168" ry="1.056"/>
	<ellipse fill="#020202" cx="49.117" cy="70.677" rx="3.168" ry="1.056"/>
	<ellipse fill="#020202" cx="43.946" cy="58.115" rx="3.168" ry="1.056"/>
	<ellipse fill="#020202" cx="44.284" cy="63.612" rx="3.166" ry="1.056"/>
	<ellipse fill="#020202" cx="32.46" cy="53.128" rx="3.169" ry="1.056"/>
	<ellipse fill="#020202" cx="47.125" cy="49.209" rx="3.168" ry="1.056"/>
	<ellipse fill="#020202" cx="43.946" cy="52.454" rx="3.168" ry="1.056"/>
	<ellipse fill="#020202" cx="40.321" cy="49.209" rx="3.168" ry="1.056"/>
	<ellipse fill="#020202" cx="26.604" cy="58.115" rx="3.168" ry="1.056"/>
	<ellipse fill="#020202" cx="85.934" cy="86.973" rx="3.168" ry="1.056"/>
	<ellipse fill="#020202" cx="93.761" cy="89.085" rx="3.168" ry="1.056"/>
	<ellipse fill="#020202" cx="93.313" cy="76.065" rx="3.168" ry="1.056"/>
	<ellipse fill="#020202" cx="79.109" cy="77.122" rx="3.165" ry="1.056"/>
	<ellipse fill="#020202" cx="86.967" cy="70.382" rx="3.169" ry="1.056"/>
	<ellipse fill="#020202" cx="85.934" cy="80.169" rx="3.168" ry="1.056"/>
	<ellipse fill="#020202" cx="91.549" cy="82.282" rx="3.168" ry="1.056"/>
	<ellipse fill="#020202" cx="103.286" cy="92.395" rx="3.168" ry="1.056"/>
	<ellipse fill="#020202" cx="84.354" cy="92.395" rx="3.168" ry="1.056"/>
	<ellipse fill="#020202" cx="74.884" cy="85.917" rx="3.168" ry="1.056"/>
	<ellipse fill="#020202" cx="77.159" cy="81.519" rx="3.168" ry="1.056"/>
	<ellipse fill="#020202" cx="92.728" cy="94.506" rx="3.165" ry="1.056"/>
	<ellipse fill="#020202" cx="68.788" cy="91.338" rx="3.168" ry="1.056"/>
	<ellipse fill="#020202" cx="111.395" cy="80.169" rx="3.169" ry="1.056"/>
	<ellipse fill="#020202" cx="102.11" cy="84.85" rx="3.168" ry="1.056"/>
	<ellipse fill="#020202" cx="107.563" cy="70.382" rx="3.168" ry="1.056"/>
	<ellipse fill="#020202" cx="102.11" cy="77.621" rx="3.168" ry="1.056"/>
	<ellipse fill="#020202" cx="96.939" cy="65.059" rx="3.168" ry="1.056"/>
	<ellipse fill="#020202" cx="97.267" cy="70.567" rx="3.168" ry="1.057"/>
	<ellipse fill="#020202" cx="86.967" cy="53.128" rx="3.169" ry="1.056"/>
	<ellipse fill="#020202" cx="100.107" cy="56.154" rx="3.168" ry="1.057"/>
	<ellipse fill="#020202" cx="96.939" cy="59.399" rx="3.168" ry="1.056"/>
	<ellipse fill="#020202" cx="93.313" cy="56.154" rx="3.168" ry="1.057"/>
	<ellipse fill="#020202" cx="79.587" cy="65.059" rx="3.168" ry="1.056"/>
	<ellipse fill="#020202" cx="60.066" cy="76.696" rx="3.168" ry="1.056"/>
	<ellipse fill="#020202" cx="67.896" cy="78.808" rx="3.168" ry="1.056"/>
	<ellipse fill="#020202" cx="67.438" cy="65.789" rx="3.168" ry="1.056"/>
	<ellipse fill="#020202" cx="53.231" cy="66.845" rx="3.168" ry="1.057"/>
	<ellipse fill="#020202" cx="61.092" cy="60.106" rx="3.168" ry="1.056"/>
	<ellipse fill="#020202" cx="60.066" cy="69.893" rx="3.168" ry="1.056"/>
	<ellipse fill="#020202" cx="65.674" cy="72.004" rx="3.168" ry="1.056"/>
	<ellipse fill="#020202" cx="77.421" cy="82.118" rx="3.168" ry="1.056"/>
	<ellipse fill="#020202" cx="58.479" cy="82.118" rx="3.168" ry="1.056"/>
	<ellipse fill="#020202" cx="49.02" cy="75.64" rx="3.168" ry="1.056"/>
	<ellipse fill="#020202" cx="51.294" cy="71.243" rx="3.168" ry="1.056"/>
	<ellipse fill="#020202" cx="66.86" cy="84.229" rx="3.168" ry="1.056"/>
	<path fill="#020202" d="M42.91,80.006c1.75,0,3.169,0.474,3.169,1.057s-1.419,1.055-3.169,1.055c-1.747,0-3.165-0.472-3.165-1.055
		S41.163,80.006,42.91,80.006z"/>
	<ellipse fill="#020202" cx="85.52" cy="69.893" rx="3.168" ry="1.056"/>
	<ellipse fill="#020202" cx="76.234" cy="74.584" rx="3.168" ry="1.056"/>
	<ellipse fill="#020202" cx="81.698" cy="60.106" rx="3.168" ry="1.056"/>
	<ellipse fill="#020202" cx="76.234" cy="67.346" rx="3.168" ry="1.056"/>
	<ellipse fill="#020202" cx="71.063" cy="54.783" rx="3.166" ry="1.057"/>
	<ellipse fill="#020202" cx="71.399" cy="60.291" rx="3.168" ry="1.056"/>
	<ellipse fill="#020202" cx="59.578" cy="49.797" rx="3.168" ry="1.056"/>
	<ellipse fill="#020202" cx="74.242" cy="45.889" rx="3.166" ry="1.056"/>
	<ellipse fill="#020202" cx="71.063" cy="49.133" rx="3.166" ry="1.056"/>
	<ellipse fill="#020202" cx="67.438" cy="45.889" rx="3.168" ry="1.056"/>
	<ellipse fill="#020202" cx="53.723" cy="54.783" rx="3.168" ry="1.057"/>
	<ellipse fill="#020202" cx="62.397" cy="90.74" rx="3.168" ry="1.056"/>
	<ellipse fill="#020202" cx="70.226" cy="92.852" rx="3.166" ry="1.056"/>
	<ellipse fill="#020202" cx="112.909" cy="95.563" rx="3.168" ry="1.056"/>
	<ellipse fill="#020202" cx="120.289" cy="92.133" rx="3.168" ry="1.056"/>
	<ellipse fill="#020202" cx="17.046" cy="89.227" rx="3.168" ry="1.056"/>
	<ellipse fill="#020202" cx="22.652" cy="91.338" rx="3.168" ry="1.056"/>
	<ellipse fill="#020202" cx="79.749" cy="96.161" rx="3.168" ry="1.056"/>
	<ellipse fill="#020202" cx="60.819" cy="96.161" rx="3.168" ry="1.056"/>
	<ellipse fill="#020202" cx="51.348" cy="89.684" rx="3.168" ry="1.056"/>
	<ellipse fill="#020202" cx="69.19" cy="98.283" rx="3.168" ry="1.057"/>
	<ellipse fill="#020202" cx="45.252" cy="95.105" rx="3.168" ry="1.056"/>
	<ellipse fill="#020202" cx="42.509" cy="89.227" rx="3.168" ry="1.056"/>
	<ellipse fill="#020202" cx="78.575" cy="88.628" rx="3.168" ry="1.056"/>
	<ellipse fill="#020202" cx="130.261" cy="86.81" rx="3.168" ry="1.057"/>
	<ellipse fill="#020202" cx="118.777" cy="74.279" rx="3.168" ry="1.056"/>
	<ellipse fill="#020202" cx="118.777" cy="81.824" rx="3.168" ry="1.057"/>
	<ellipse fill="#020202" cx="133.429" cy="77.904" rx="3.168" ry="1.056"/>
	<ellipse fill="#020202" cx="130.261" cy="81.148" rx="3.168" ry="1.056"/>
	<ellipse fill="#020202" cx="126.636" cy="77.904" rx="3.168" ry="1.056"/>
	<ellipse fill="#020202" cx="112.909" cy="86.81" rx="3.168" ry="1.057"/>
</g>
</svg>
