<?xml version="1.0" encoding="utf-8"?>
<!-- Generator: Adobe Illustrator 16.0.0, SVG Export Plug-In . SVG Version: 6.00 Build 0)  -->
<!DOCTYPE svg PUBLIC "-//W3C//DTD SVG 1.1//EN" "http://www.w3.org/Graphics/SVG/1.1/DTD/svg11.dtd">
<svg version="1.1" id="_x35_0m" xmlns="http://www.w3.org/2000/svg" xmlns:xlink="http://www.w3.org/1999/xlink" x="0px" y="0px"
	 width="144px" height="144px" viewBox="0 0 144 144" enable-background="new 0 0 144 144" xml:space="preserve">
<g>
	<path fill="#010101" d="M127.067,81.547c0.425-0.98,0.787-1.995,1.087-3.008c0.598-2.026,0.971-4.094,1.269-6.152l0.479-3.071
		c0.074-0.512,0.149-1.023,0.204-1.535c0.063-0.512,0.116-1.023,0.17-1.536c0.233-2.047,0.575-4.126,1.386-6.034
		c-0.862,1.887-1.706,3.807-2.41,5.801c-0.171,0.5-0.331,1.002-0.489,1.503c-0.14,0.501-0.277,1.014-0.396,1.524
		c-0.226,1.024-0.394,2.048-0.598,3.071l-1.142,6.067c-0.202,1.034-0.414,2.048-0.671,3.071c-0.331-0.096-0.66-0.182-1.001-0.277
		c-0.15-2.026-0.342-4.041-0.533-6.057c-0.277-2.826-0.544-5.651-0.769-8.488c0.043-0.394,0.096-0.788,0.127-1.193
		c0.235-2.047,0.576-4.128,1.387-6.036c-0.608,1.332-1.193,2.697-1.737,4.084c-0.149-2.729-0.225-5.46-0.139-8.189
		c0.054-1.823,0.181-3.636,0.394-5.448c0.129,0.031,0.256,0.052,0.406-0.16c0.127-0.192,0.287-0.587,0.405-0.918
		c0.746-2.153,1.652-6.601,1.929-7.91c0.191-0.928,0.353-1.462,0.311-2.56c-0.021-0.576-0.331-0.779-0.311-0.982
		c0.108-1.247,0.715-3.497,0.577-3.571c-0.108,0.053-0.427,2.303-0.844,3.487c-0.075,0.212-0.212,0.031-0.629,0.479
		c-0.342,0.374-0.543,1.313-0.776,2.325c-0.184,0.768-0.235,1.088-0.684,3.562c-0.458,2.506-0.714,4.97-0.714,4.97
		s-0.204,0.969,0.245,1.215c-0.747,5.107-1.024,10.289-0.874,15.451c0,0.021,0,0.032,0,0.053c-0.161,0.469-0.311,0.929-0.461,1.397
		c-0.137,0.501-0.276,1.013-0.394,1.525c-0.223,1.023-0.396,2.047-0.598,3.07l-0.138,0.746c0.106-1.566,0.138-3.146,0.021-4.724
		c-0.215-2.985-0.896-5.949-2.122-8.668c-0.8-1.835-1.813-3.541-2.953-5.173c0.287-0.276,0-0.704,0-0.704s-0.599-1.418-1.429-2.825
		c-0.821-1.387-0.93-1.558-1.228-1.983c-0.394-0.554-0.745-1.066-1.183-1.216c-0.522-0.182-0.662-0.031-0.779-0.149
		c-0.618-0.618-1.268-1.887-1.397-1.897c-0.147,0.074,0.831,1.29,1.11,2.016c0.042,0.116-0.279,0.309-0.235,0.661
		c0.086,0.661,0.331,0.948,0.673,1.46c0.479,0.726,2.068,3.178,3.187,4.298c0.171,0.17,0.406,0.373,0.577,0.458
		c0.202,0.097,0.341,0.054,0.502-0.011c0.052-0.021,0.085-0.043,0.116-0.063c1.046,1.674,1.908,3.454,2.549,5.3
		c0.948,2.761,1.6,5.629,1.771,8.53c0.169,2.9-0.108,5.833-0.416,8.754c-0.14,1.237-0.331,2.475-0.555,3.689
		c-0.043-0.01-0.085-0.021-0.129-0.032c0-0.586-0.021-1.172-0.064-1.759c-0.158-2.101-0.479-4.137-0.618-6.217
		c-0.394-4.157-1.173-8.253-1.215-12.423c-0.021,2.08-0.204,4.181-0.362,6.303l-0.502,6.279c-0.085,0.972-0.14,2.155-0.096,3.199
		c0.031,1.056,0.127,2.059,0.267,3.029c0.055,0.373,0.117,0.735,0.191,1.098c-0.778-0.148-1.565-0.298-2.365-0.447h0.052
		c0,0-0.064-0.011-0.171-0.021c-0.714-0.128-1.429-0.256-2.164-0.384c-3.786-0.854-10.45-3.349-6.418-10.129l0,0
		c1.726-1.163,2.718-2.422,2.718-3.733c0-6.046-20.025-10.94-44.731-10.94c-24.707,0-44.731,4.895-44.731,10.94
		c0,0.896,0.5,1.771,1.331,2.602c-0.404,0.971-0.8,1.952-1.14,2.943c-0.171,0.502-0.331,1.003-0.491,1.504
		c-0.138,0.501-0.277,1.013-0.394,1.524c-0.225,1.023-0.396,2.047-0.598,3.07l-1.142,6.068c-0.031,0.191-0.085,0.384-0.127,0.565
		c-0.427,0.17-0.875,0.33-1.366,0.479h0.011c-0.106,0.044-0.213,0.086-0.319,0.118c-0.129-1.472-0.267-2.953-0.405-4.425
		c-0.277-2.826-0.544-5.652-0.767-8.489c0.041-0.395,0.096-0.789,0.127-1.194c0.235-2.047,0.577-4.125,1.387-6.034
		c-0.608,1.333-1.195,2.698-1.739,4.084c-0.149-2.73-0.223-5.459-0.139-8.189c0.054-1.824,0.183-3.636,0.396-5.448
		c0.127,0.032,0.256,0.053,0.403-0.161c0.13-0.191,0.29-0.586,0.406-0.917c0.746-2.153,1.654-6.6,1.931-7.912
		c0.192-0.928,0.353-1.46,0.309-2.56c-0.021-0.574-0.329-0.777-0.309-0.979c0.106-1.248,0.715-3.498,0.575-3.573
		c-0.106,0.054-0.427,2.304-0.842,3.487c-0.074,0.213-0.212,0.032-0.629,0.48c-0.341,0.373-0.543,1.311-0.778,2.324
		c-0.182,0.768-0.235,1.087-0.684,3.562c-0.458,2.506-0.714,4.969-0.714,4.969s-0.202,0.971,0.245,1.216
		c-0.745,5.107-1.022,10.29-0.874,15.451c0,0.021,0,0.032,0,0.053c-0.161,0.47-0.309,0.928-0.459,1.397
		c-0.139,0.501-0.276,1.012-0.394,1.524c-0.225,1.023-0.396,2.047-0.598,3.071l-0.14,0.746c0.106-1.568,0.14-3.146,0.023-4.725
		c-0.215-2.985-0.896-5.95-2.122-8.669c-0.8-1.834-1.814-3.539-2.955-5.171c0.289-0.277,0-0.704,0-0.704S5.433,55.006,4.6,53.599
		c-0.821-1.386-0.928-1.558-1.225-1.983c-0.396-0.556-0.748-1.066-1.186-1.216c-0.522-0.182-0.66-0.032-0.779-0.149
		c-0.616-0.619-1.268-1.887-1.395-1.898c-0.15,0.075,0.831,1.291,1.107,2.016c0.044,0.117-0.276,0.31-0.235,0.661
		c0.088,0.662,0.331,0.949,0.673,1.461c0.481,0.726,2.068,3.178,3.188,4.297c0.171,0.171,0.406,0.373,0.577,0.459
		c0.202,0.096,0.339,0.054,0.5-0.01c0.054-0.022,0.085-0.044,0.116-0.064c1.046,1.674,1.91,3.455,2.549,5.299
		c0.95,2.763,1.6,5.631,1.771,8.53c0.171,2.901-0.106,5.833-0.416,8.755c-0.171,1.514-0.404,3.018-0.715,4.511
		c0.044-0.875,0.023-1.749-0.042-2.612c-0.16-2.102-0.48-4.138-0.618-6.217c-0.396-4.159-1.173-8.254-1.216-12.422
		c-0.021,2.079-0.202,4.179-0.362,6.301l-0.5,6.281c-0.088,0.97-0.14,2.153-0.099,3.199c0.034,1.055,0.13,2.058,0.267,3.028
		c0.14,0.969,0.332,1.898,0.567,2.836c0.158,0.628,0.341,1.248,0.543,1.94c-3.049,1.983-4.724,4.148-4.724,6.397
		c0,9.822,31.573,17.775,70.525,17.775c38.954,0,70.526-7.953,70.526-17.775C144.054,88.68,137.646,84.66,127.067,81.547z
		 M11.648,81.45c0.596-2.026,0.971-4.095,1.269-6.152l0.117-0.725c0.118,1.449,0.256,2.9,0.427,4.351
		c0.191,1.535,0.406,3.069,0.662,4.605c-1.451,0.565-2.774,1.162-3.968,1.771C10.764,84.063,11.264,82.762,11.648,81.45z
		 M18.313,81.749c0.479-1.803,0.811-3.625,1.077-5.438l0.479-3.071c0.075-0.513,0.15-1.024,0.202-1.536
		c0.064-0.511,0.118-1.023,0.171-1.536c0.096-0.873,0.225-1.748,0.396-2.611C22.313,71.523,23.997,78.23,18.313,81.749z
		 M121.692,77.526c0.598-2.025,0.971-4.095,1.268-6.152l0.119-0.725c0.116,1.449,0.256,2.9,0.425,4.35
		c0.235,1.941,0.522,3.87,0.875,5.801c-1.142-0.299-2.314-0.587-3.53-0.864C121.159,79.146,121.446,78.337,121.692,77.526z"/>
	<path fill="#FFFFFF" d="M79.104,71.353c-4.927,0-8.137-3.903-9.309-5.619c-2.519,3.486-11.132,5.46-11.528,5.544l-0.181,0.043
		l-0.171-0.085c-6.152-3.071-8.657-4.788-9.672-5.62c-2.089,3.509-12.485,5.449-13.743,5.662l-0.182-1.045
		c4.84-0.854,12.711-3.146,13.213-5.641l0.243-1.258l0.715,1.066c0.033,0.043,1.258,1.545,9.726,5.8
		c2.868-0.671,9.928-2.868,11.057-5.693l0.417-1.034l0.543,0.98c0.031,0.063,3.701,6.515,9.833,5.791
		c2.942-0.395,7.464-1.525,8.924-3.04c-0.138-0.234-0.106-0.405-0.086-0.555c0.086-0.501,0.599-0.692,1.057-0.704l0.649-0.021
		l-0.106,0.64c-0.031,0.171-0.074,0.331-0.149,0.49c0.683,0.481,2.474,1.461,7.146,3.284l-0.384,0.992
		c-4.298-1.674-6.366-2.708-7.357-3.401c-2.262,2.325-8.714,3.264-9.556,3.369C79.829,71.331,79.467,71.353,79.104,71.353z"/>
	<path fill="#FFFFFF" d="M85.129,90.76c-6.656,0-10.983-5.269-12.563-7.582c-3.4,4.702-15.034,7.368-15.558,7.486l-0.245,0.052
		l-0.233-0.115c-8.298-4.149-11.688-6.463-13.052-7.582c-2.826,4.745-16.859,7.347-18.555,7.646l-0.246-1.419
		c6.538-1.151,17.157-4.244,17.83-7.614l0.342-1.705l0.96,1.45c0.052,0.063,1.695,2.09,13.135,7.827
		c3.872-0.906,13.404-3.871,14.931-7.688l0.564-1.397l0.735,1.322c0.044,0.086,4.99,8.766,13.265,7.816
		c3.978-0.544,10.077-2.047,12.05-4.096c-0.191-0.319-0.15-0.542-0.116-0.745c0.116-0.672,0.81-0.938,1.418-0.959l0.872-0.032
		l-0.137,0.862c-0.044,0.225-0.106,0.448-0.191,0.662c0.927,0.65,3.336,1.972,9.638,4.425l-0.522,1.343
		c-5.8-2.26-8.595-3.668-9.926-4.595c-3.051,3.135-11.763,4.404-12.904,4.553C86.098,90.738,85.608,90.76,85.129,90.76z"/>
</g>
</svg>
