<?xml version="1.0" encoding="utf-8"?>
<!-- Generator: Adobe Illustrator 16.0.0, SVG Export Plug-In . SVG Version: 6.00 Build 0)  -->
<!DOCTYPE svg PUBLIC "-//W3C//DTD SVG 1.1//EN" "http://www.w3.org/Graphics/SVG/1.1/DTD/svg11.dtd">
<svg version="1.1" id="_x35_0m" xmlns="http://www.w3.org/2000/svg" xmlns:xlink="http://www.w3.org/1999/xlink" x="0px" y="0px"
	 width="144px" height="144px" viewBox="0 0 144 144" enable-background="new 0 0 144 144" xml:space="preserve">
<g>
	<path fill="#020202" d="M113.78,68.575h0.056c0,0-0.066-0.01-0.175-0.021c-0.729-0.132-1.458-0.262-2.211-0.393
		c-3.863-0.871-10.667-3.418-6.553-10.342l0,0c1.765-1.187,2.776-2.472,2.776-3.811c0-6.172-20.445-11.168-45.668-11.168
		S16.34,47.838,16.34,54.01c0,0.938,0.522,1.841,1.403,2.699c2.047,4.541,4.595,13.51-5.388,16.451h0.011
		C4.561,76.066,0,79.56,0,83.326c0,10.026,32.233,18.146,71.999,18.146c39.768,0,72.001-8.12,72.001-18.146
		C143.979,77.241,132.036,71.862,113.78,68.575z"/>
	<ellipse fill="#FFFFFF" cx="32.951" cy="80.028" rx="3.168" ry="1.056"/>
	<ellipse fill="#FFFFFF" cx="40.778" cy="82.14" rx="3.168" ry="1.056"/>
	<ellipse fill="#FFFFFF" cx="40.321" cy="69.12" rx="3.168" ry="1.056"/>
	<ellipse fill="#FFFFFF" cx="26.116" cy="70.176" rx="3.168" ry="1.056"/>
	<ellipse fill="#FFFFFF" cx="33.975" cy="63.438" rx="3.168" ry="1.056"/>
	<ellipse fill="#FFFFFF" cx="32.951" cy="73.224" rx="3.168" ry="1.056"/>
	<ellipse fill="#FFFFFF" cx="38.559" cy="75.336" rx="3.168" ry="1.056"/>
	<ellipse fill="#FFFFFF" cx="50.304" cy="85.449" rx="3.168" ry="1.056"/>
	<ellipse fill="#FFFFFF" cx="31.363" cy="85.449" rx="3.168" ry="1.056"/>
	<ellipse fill="#FFFFFF" cx="21.901" cy="78.961" rx="3.168" ry="1.056"/>
	<ellipse fill="#FFFFFF" cx="24.177" cy="74.573" rx="3.168" ry="1.056"/>
	<ellipse fill="#FFFFFF" cx="39.745" cy="87.561" rx="3.168" ry="1.056"/>
	<ellipse fill="#FFFFFF" cx="15.796" cy="84.394" rx="3.168" ry="1.056"/>
	<ellipse fill="#FFFFFF" cx="58.404" cy="73.224" rx="3.168" ry="1.056"/>
	<ellipse fill="#FFFFFF" cx="49.117" cy="77.904" rx="3.168" ry="1.056"/>
	<ellipse fill="#FFFFFF" cx="54.583" cy="63.438" rx="3.166" ry="1.056"/>
	<ellipse fill="#FFFFFF" cx="49.117" cy="70.677" rx="3.168" ry="1.056"/>
	<ellipse fill="#FFFFFF" cx="43.946" cy="58.115" rx="3.168" ry="1.056"/>
	<ellipse fill="#FFFFFF" cx="44.284" cy="63.612" rx="3.168" ry="1.056"/>
	<ellipse fill="#FFFFFF" cx="32.463" cy="53.128" rx="3.168" ry="1.056"/>
	<ellipse fill="#FFFFFF" cx="47.125" cy="49.209" rx="3.168" ry="1.056"/>
	<ellipse fill="#FFFFFF" cx="43.946" cy="52.454" rx="3.168" ry="1.056"/>
	<ellipse fill="#FFFFFF" cx="40.321" cy="49.209" rx="3.168" ry="1.056"/>
	<ellipse fill="#FFFFFF" cx="26.604" cy="58.115" rx="3.168" ry="1.056"/>
	<ellipse fill="#FFFFFF" cx="85.934" cy="86.973" rx="3.168" ry="1.056"/>
	<ellipse fill="#FFFFFF" cx="93.761" cy="89.085" rx="3.168" ry="1.056"/>
	<ellipse fill="#FFFFFF" cx="93.313" cy="76.065" rx="3.169" ry="1.056"/>
	<ellipse fill="#FFFFFF" cx="79.109" cy="77.122" rx="3.168" ry="1.056"/>
	<path fill="#FFFFFF" d="M86.967,69.326c1.75,0,3.169,0.475,3.169,1.057c0,0.583-1.419,1.056-3.169,1.056
		c-1.747,0-3.168-0.473-3.168-1.056C83.799,69.801,85.22,69.326,86.967,69.326z"/>
	<ellipse fill="#FFFFFF" cx="85.934" cy="80.169" rx="3.168" ry="1.056"/>
	<ellipse fill="#FFFFFF" cx="91.552" cy="82.282" rx="3.168" ry="1.056"/>
	<ellipse fill="#FFFFFF" cx="103.286" cy="92.395" rx="3.168" ry="1.056"/>
	<ellipse fill="#FFFFFF" cx="84.356" cy="92.395" rx="3.166" ry="1.056"/>
	<ellipse fill="#FFFFFF" cx="74.884" cy="85.917" rx="3.168" ry="1.056"/>
	<ellipse fill="#FFFFFF" cx="77.159" cy="81.519" rx="3.168" ry="1.056"/>
	<ellipse fill="#FFFFFF" cx="92.728" cy="94.506" rx="3.168" ry="1.056"/>
	<ellipse fill="#FFFFFF" cx="68.788" cy="91.338" rx="3.168" ry="1.056"/>
	<ellipse fill="#FFFFFF" cx="111.397" cy="80.169" rx="3.168" ry="1.056"/>
	<ellipse fill="#FFFFFF" cx="102.11" cy="84.85" rx="3.168" ry="1.056"/>
	<ellipse fill="#FFFFFF" cx="107.565" cy="70.382" rx="3.168" ry="1.056"/>
	<ellipse fill="#FFFFFF" cx="102.11" cy="77.621" rx="3.168" ry="1.056"/>
	<ellipse fill="#FFFFFF" cx="96.939" cy="65.059" rx="3.168" ry="1.056"/>
	<ellipse fill="#FFFFFF" cx="97.267" cy="70.567" rx="3.168" ry="1.057"/>
	<path fill="#FFFFFF" d="M86.967,52.072c1.75,0,3.169,0.472,3.169,1.057c0,0.583-1.419,1.056-3.169,1.056
		c-1.747,0-3.168-0.473-3.168-1.056C83.799,52.544,85.22,52.072,86.967,52.072z"/>
	<ellipse fill="#FFFFFF" cx="100.107" cy="56.154" rx="3.168" ry="1.057"/>
	<ellipse fill="#FFFFFF" cx="96.939" cy="59.399" rx="3.168" ry="1.056"/>
	<ellipse fill="#FFFFFF" cx="93.313" cy="56.154" rx="3.169" ry="1.057"/>
	<ellipse fill="#FFFFFF" cx="79.587" cy="65.059" rx="3.168" ry="1.056"/>
	<ellipse fill="#FFFFFF" cx="60.069" cy="76.696" rx="3.168" ry="1.056"/>
	<ellipse fill="#FFFFFF" cx="67.896" cy="78.808" rx="3.168" ry="1.056"/>
	<ellipse fill="#FFFFFF" cx="67.438" cy="65.789" rx="3.168" ry="1.056"/>
	<ellipse fill="#FFFFFF" cx="53.233" cy="66.845" rx="3.166" ry="1.057"/>
	<ellipse fill="#FFFFFF" cx="61.092" cy="60.106" rx="3.168" ry="1.056"/>
	<ellipse fill="#FFFFFF" cx="60.069" cy="69.893" rx="3.168" ry="1.056"/>
	<ellipse fill="#FFFFFF" cx="65.676" cy="72.004" rx="3.168" ry="1.056"/>
	<ellipse fill="#FFFFFF" cx="77.421" cy="82.118" rx="3.168" ry="1.056"/>
	<ellipse fill="#FFFFFF" cx="58.479" cy="82.118" rx="3.168" ry="1.056"/>
	<ellipse fill="#FFFFFF" cx="49.02" cy="75.64" rx="3.168" ry="1.056"/>
	<ellipse fill="#FFFFFF" cx="51.294" cy="71.243" rx="3.168" ry="1.056"/>
	<ellipse fill="#FFFFFF" cx="66.862" cy="84.229" rx="3.168" ry="1.056"/>
	<ellipse fill="#FFFFFF" cx="42.913" cy="81.062" rx="3.168" ry="1.056"/>
	<ellipse fill="#FFFFFF" cx="85.521" cy="69.893" rx="3.168" ry="1.056"/>
	<ellipse fill="#FFFFFF" cx="76.234" cy="74.584" rx="3.168" ry="1.056"/>
	<ellipse fill="#FFFFFF" cx="81.698" cy="60.106" rx="3.168" ry="1.056"/>
	<ellipse fill="#FFFFFF" cx="76.234" cy="67.346" rx="3.168" ry="1.056"/>
	<ellipse fill="#FFFFFF" cx="71.063" cy="54.783" rx="3.168" ry="1.057"/>
	<ellipse fill="#FFFFFF" cx="71.401" cy="60.291" rx="3.168" ry="1.056"/>
	<ellipse fill="#FFFFFF" cx="59.58" cy="49.797" rx="3.168" ry="1.056"/>
	<ellipse fill="#FFFFFF" cx="74.242" cy="45.889" rx="3.168" ry="1.056"/>
	<ellipse fill="#FFFFFF" cx="71.063" cy="49.133" rx="3.168" ry="1.056"/>
	<ellipse fill="#FFFFFF" cx="67.438" cy="45.889" rx="3.168" ry="1.056"/>
	<ellipse fill="#FFFFFF" cx="53.723" cy="54.783" rx="3.168" ry="1.057"/>
	<ellipse fill="#FFFFFF" cx="62.399" cy="90.74" rx="3.168" ry="1.056"/>
	<ellipse fill="#FFFFFF" cx="70.226" cy="92.852" rx="3.168" ry="1.056"/>
	<ellipse fill="#FFFFFF" cx="112.909" cy="95.563" rx="3.168" ry="1.056"/>
	<ellipse fill="#FFFFFF" cx="120.291" cy="92.133" rx="3.168" ry="1.056"/>
	<ellipse fill="#FFFFFF" cx="17.048" cy="89.227" rx="3.168" ry="1.056"/>
	<ellipse fill="#FFFFFF" cx="22.654" cy="91.338" rx="3.168" ry="1.056"/>
	<ellipse fill="#FFFFFF" cx="79.751" cy="96.161" rx="3.168" ry="1.056"/>
	<ellipse fill="#FFFFFF" cx="60.819" cy="96.161" rx="3.168" ry="1.056"/>
	<ellipse fill="#FFFFFF" cx="51.35" cy="89.684" rx="3.168" ry="1.056"/>
	<ellipse fill="#FFFFFF" cx="69.192" cy="98.283" rx="3.168" ry="1.057"/>
	<ellipse fill="#FFFFFF" cx="45.254" cy="95.105" rx="3.168" ry="1.056"/>
	<ellipse fill="#FFFFFF" cx="42.509" cy="89.227" rx="3.168" ry="1.056"/>
	<ellipse fill="#FFFFFF" cx="78.575" cy="88.628" rx="3.168" ry="1.056"/>
	<ellipse fill="#FFFFFF" cx="130.263" cy="86.81" rx="3.168" ry="1.057"/>
	<ellipse fill="#FFFFFF" cx="118.777" cy="74.279" rx="3.168" ry="1.056"/>
	<ellipse fill="#FFFFFF" cx="118.777" cy="81.824" rx="3.168" ry="1.057"/>
	<ellipse fill="#FFFFFF" cx="133.431" cy="77.904" rx="3.168" ry="1.056"/>
	<ellipse fill="#FFFFFF" cx="130.263" cy="81.148" rx="3.168" ry="1.056"/>
	<ellipse fill="#FFFFFF" cx="126.638" cy="77.904" rx="3.168" ry="1.056"/>
	<ellipse fill="#FFFFFF" cx="112.909" cy="86.81" rx="3.168" ry="1.057"/>
</g>
</svg>
