<?xml version="1.0" encoding="utf-8"?>
<!-- Generator: Adobe Illustrator 16.0.0, SVG Export Plug-In . SVG Version: 6.00 Build 0)  -->
<!DOCTYPE svg PUBLIC "-//W3C//DTD SVG 1.1//EN" "http://www.w3.org/Graphics/SVG/1.1/DTD/svg11.dtd">
<svg version="1.1" id="_x35_0m" xmlns="http://www.w3.org/2000/svg" xmlns:xlink="http://www.w3.org/1999/xlink" x="0px" y="0px"
	 width="144px" height="144px" viewBox="0 0 144 144" enable-background="new 0 0 144 144" xml:space="preserve">
<g>
	<path fill="#010101" d="M108.932,130.706c-5.459-12.745-8.021-37.048-8.021-37.048H72.233c0.35,6.146-1.372,13.612-3.662,20.588
		c-4.749-19.074-7.001-43.867-7.001-43.867H25.3c1.021,20.652-11.7,51.58-15.504,60.327H0v6.703h143.911v-6.703H108.932z"/>
	<path fill="#FFFFFF" d="M43.479,116.329c-7.233,0-13.12-5.888-13.12-13.121s5.887-13.122,13.12-13.122s13.122,5.889,13.122,13.122
		S50.713,116.329,43.479,116.329z M43.479,92.675c-5.811,0-10.532,4.723-10.532,10.533s4.722,10.534,10.532,10.534
		s10.534-4.724,10.534-10.534S49.29,92.675,43.479,92.675z"/>
	<g>
		<path fill="#AEAEAE" d="M129.573,49.427c-7.261,0-13.264,5.139-14.262,11.815c-1.345-2.368-3.571-4.166-6.223-4.981
			c-2.939,4.594-7.984,7.699-13.729,7.971c-0.053,0.246-0.105,0.491-0.144,0.752c-0.402-0.286-0.842-0.531-1.281-0.752
			c-1.76-0.064-3.48-0.388-5.11-0.971c-0.66,0.052-1.295,0.168-1.916,0.35c-1.58,2.912-3.948,5.332-6.807,6.988
			c-0.207,0.789-0.323,1.604-0.323,2.458c0,1.438,0.311,2.783,0.867,4.012c-2.809,1.798-4.671,4.931-4.671,8.516
			c0,1.279,0.245,2.51,0.685,3.648h18.842c0.22-0.582,0.399-1.177,0.519-1.811c1.655,2.366,4.385,3.907,7.491,3.907
			c4.787,0,8.709-3.688,9.096-8.373c1.593,1.618,3.819,2.628,6.264,2.628c4.827,0,8.734-3.883,8.8-8.684
			c0.622,0.078,1.257,0.13,1.903,0.13c7.972,0,14.427-6.174,14.427-13.796C144,55.602,137.545,49.427,129.573,49.427z"/>
	</g>
	<path fill="#AEAEAE" d="M111.532,6.905c-10.999,0-20.082,7.777-21.609,17.896c-2.82-4.943-8.141-8.295-14.234-8.295
		c-8.217,0-15.01,6.056-16.188,13.95c-2.409-1.669-5.333-2.665-8.49-2.665c-8.217,0-14.894,6.662-14.894,14.895
		c0,2.173,0.479,4.218,1.307,6.081c-4.244,2.718-7.064,7.468-7.064,12.89c0,1.953,0.374,3.804,1.047,5.512h28.521
		c0.336-0.879,0.606-1.786,0.776-2.73c2.497,3.571,6.651,5.927,11.348,5.927c7.246,0,13.186-5.577,13.782-12.682
		c2.419,2.445,5.772,3.974,9.485,3.974c7.299,0,13.226-5.875,13.314-13.16c0.945,0.116,1.916,0.193,2.887,0.193
		c12.073,0,21.856-9.355,21.856-20.898C133.39,16.262,123.594,6.905,111.532,6.905z"/>
</g>
</svg>
