<?xml version="1.0" encoding="utf-8"?>
<!-- Generator: Adobe Illustrator 16.0.0, SVG Export Plug-In . SVG Version: 6.00 Build 0)  -->
<!DOCTYPE svg PUBLIC "-//W3C//DTD SVG 1.1//EN" "http://www.w3.org/Graphics/SVG/1.1/DTD/svg11.dtd">
<svg version="1.1" id="_x35_0m" xmlns="http://www.w3.org/2000/svg" xmlns:xlink="http://www.w3.org/1999/xlink" x="0px" y="0px"
	 width="144px" height="144px" viewBox="0 0 144 144" enable-background="new 0 0 144 144" xml:space="preserve">
<g>
	<circle fill="#3E94D1" cx="72" cy="72" r="68.09"/>
	<path fill="#0B0A0A" d="M72,144c-9.72,0-19.15-1.899-28.03-5.661c-8.57-3.629-16.27-8.818-22.88-15.43
		c-6.61-6.609-11.8-14.309-15.43-22.88C1.9,91.15,0,81.72,0,71.999C0,62.28,1.9,52.851,5.66,43.97C9.29,35.4,14.48,27.7,21.09,21.09
		S35.4,9.29,43.97,5.66C52.85,1.899,62.28,0,72,0c9.72,0,19.15,1.899,28.029,5.66c8.57,3.63,16.271,8.819,22.88,15.43
		c6.61,6.61,11.8,14.311,15.43,22.88C142.1,52.851,144,62.28,144,71.999c0,9.721-1.9,19.151-5.661,28.03
		c-3.629,8.571-8.819,16.271-15.43,22.88c-6.61,6.611-14.31,11.801-22.88,15.43C91.15,142.101,81.72,144,72,144z M72,10.271
		c-16.49,0-31.99,6.42-43.65,18.079C16.69,40.011,10.27,55.511,10.27,71.999c0,16.491,6.42,31.99,18.08,43.65
		c11.66,11.66,27.16,18.08,43.65,18.08c16.49,0,31.989-6.42,43.65-18.08c11.66-11.66,18.08-27.159,18.08-43.65
		c0-16.488-6.42-31.988-18.08-43.649C103.989,16.69,88.49,10.271,72,10.271z"/>
	<polygon fill="#010101" points="77.72,25.851 24.55,79.45 84.31,79.45 63.68,100.929 54.43,92.63 54.43,119.011 79.85,118.05 
		72.19,109.649 114.94,67.86 51.98,67.86 93.669,25.95 	"/>
</g>
</svg>
