<?xml version="1.0" encoding="utf-8"?>
<!-- Generator: Adobe Illustrator 16.0.0, SVG Export Plug-In . SVG Version: 6.00 Build 0)  -->
<!DOCTYPE svg PUBLIC "-//W3C//DTD SVG 1.1//EN" "http://www.w3.org/Graphics/SVG/1.1/DTD/svg11.dtd">
<svg version="1.1" id="_x35_0m" xmlns="http://www.w3.org/2000/svg" xmlns:xlink="http://www.w3.org/1999/xlink" x="0px" y="0px"
	 width="144px" height="144px" viewBox="0 0 144 144" enable-background="new 0 0 144 144" xml:space="preserve">
<g>
	<circle fill="#EEDD51" cx="72" cy="72" r="68.09"/>
	<path fill="#0A0A0A" d="M72,144c-9.721,0-19.15-1.899-28.03-5.661c-8.57-3.629-16.27-8.818-22.88-15.43
		c-6.61-6.609-11.8-14.309-15.43-22.88C1.91,91.15,0,81.72,0,71.999C0,62.28,1.899,52.851,5.66,43.97
		C9.29,35.4,14.479,27.7,21.09,21.09s14.31-11.8,22.88-15.43C52.85,1.899,62.279,0,72,0c9.72,0,19.149,1.899,28.029,5.66
		c8.57,3.63,16.271,8.819,22.881,15.43c6.609,6.61,11.8,14.311,15.43,22.88C142.1,52.851,144,62.28,144,71.999
		c0,9.721-1.9,19.151-5.66,28.03c-3.63,8.571-8.82,16.271-15.43,22.88c-6.61,6.611-14.311,11.801-22.881,15.43
		C91.149,142.101,81.72,144,72,144z M72,10.271c-16.49,0-31.99,6.42-43.65,18.079c-11.66,11.661-18.08,27.161-18.08,43.649
		c0,16.491,6.42,31.99,18.08,43.65s27.16,18.08,43.65,18.08c16.489,0,31.989-6.42,43.649-18.08s18.08-27.159,18.08-43.65
		c0-16.488-6.42-31.988-18.08-43.649C103.989,16.69,88.489,10.271,72,10.271z"/>
	<polygon fill="#0A0A0A" points="77.72,25.851 24.55,79.45 84.31,79.45 63.68,100.929 54.43,92.63 54.43,119.011 79.851,118.05 
		72.189,109.649 114.939,67.86 51.979,67.86 93.67,25.95 	"/>
</g>
</svg>
