<?xml version="1.0" encoding="utf-8"?>
<!-- Generator: Adobe Illustrator 16.0.0, SVG Export Plug-In . SVG Version: 6.00 Build 0)  -->
<!DOCTYPE svg PUBLIC "-//W3C//DTD SVG 1.1//EN" "http://www.w3.org/Graphics/SVG/1.1/DTD/svg11.dtd">
<svg version="1.1" id="_x35_0m" xmlns="http://www.w3.org/2000/svg" xmlns:xlink="http://www.w3.org/1999/xlink" x="0px" y="0px"
	 width="144px" height="144px" viewBox="0 0 144 144" enable-background="new 0 0 144 144" xml:space="preserve">
<g>
	<g>
		<g>
			<path id="SVGID_1_" fill="#FFFFFF" d="M3.856,102.273c-2.022,0-3.655-1.62-3.655-3.618V45.345c0-1.998,1.645-3.618,3.655-3.618
				h136.288c2.022,0,3.654,1.62,3.654,3.618v53.311c0,1.998-1.645,3.618-3.654,3.618H3.856z"/>
		</g>
		<g>
			<defs>
				<path id="SVGID_13_" d="M3.856,102.273c-2.022,0-3.655-1.62-3.655-3.618V45.345c0-1.998,1.645-3.618,3.655-3.618h136.288
					c2.022,0,3.654,1.62,3.654,3.618v53.311c0,1.998-1.645,3.618-3.654,3.618H3.856z"/>
			</defs>
			<clipPath id="SVGID_4_">
				<use xlink:href="#SVGID_13_"  overflow="visible"/>
			</clipPath>
			<g clip-path="url(#SVGID_4_)">
				<g>
					<g>
						<g>
							<polygon fill="#D91F26" points="66.599,116.038 35.001,71.994 66.599,27.949 78.116,36.214 52.458,71.994 78.116,107.773 
															"/>
						</g>
					</g>
				</g>
				<g>
					<g>
						<g>
							<polygon fill="#D91F26" points="30.417,116.038 -1.181,71.994 30.417,27.949 41.934,36.214 16.263,71.994 41.934,107.773 
															"/>
						</g>
					</g>
				</g>
				<g>
					<g>
						<g>
							<polygon fill="#D91F26" points="102.781,116.038 71.184,71.994 102.781,27.949 114.311,36.214 88.641,71.994 
								114.311,107.773 							"/>
						</g>
					</g>
				</g>
				<g>
					<g>
						<g>
							<polygon fill="#D91F26" points="138.977,116.038 107.377,71.994 138.977,27.949 150.493,36.214 124.823,71.994 
								150.493,107.773 							"/>
						</g>
					</g>
				</g>
			</g>
		</g>
	</g>
	<g>
		<g>
			<g>
				<path fill="#878787" d="M140.144,41.928c1.909,0,3.454,1.533,3.454,3.417v53.311c0,1.884-1.544,3.417-3.454,3.417H3.856
					c-1.91,0-3.454-1.533-3.454-3.417V45.345c0-1.884,1.544-3.417,3.454-3.417H140.144L140.144,41.928z M140.144,41.526H3.856
					C1.733,41.526,0,43.233,0,45.345v53.311c0,2.11,1.733,3.818,3.856,3.818h136.288c2.123,0,3.856-1.708,3.856-3.818V45.345
					C144,43.233,142.267,41.526,140.144,41.526L140.144,41.526z"/>
			</g>
		</g>
	</g>
</g>
</svg>
