<?xml version="1.0" encoding="utf-8"?>
<!-- Generator: Adobe Illustrator 16.0.0, SVG Export Plug-In . SVG Version: 6.00 Build 0)  -->
<!DOCTYPE svg PUBLIC "-//W3C//DTD SVG 1.1//EN" "http://www.w3.org/Graphics/SVG/1.1/DTD/svg11.dtd">
<svg version="1.1" id="_x35_0m" xmlns="http://www.w3.org/2000/svg" xmlns:xlink="http://www.w3.org/1999/xlink" x="0px" y="0px"
	 width="144px" height="144px" viewBox="0 0 144 144" enable-background="new 0 0 144 144" xml:space="preserve">
<g>
	<g>
		<g>
			<path id="SVGID_2_" fill="#FFFFFF" d="M140.158,102.273c2.021,0,3.655-1.62,3.655-3.618V45.345c0-1.998-1.646-3.618-3.655-3.618
				H3.856c-2.022,0-3.655,1.62-3.655,3.618v53.311c0,1.998,1.645,3.618,3.655,3.618H140.158z"/>
		</g>
		<g>
			<defs>
				<path id="SVGID_15_" d="M140.158,102.273c2.021,0,3.655-1.62,3.655-3.618V45.345c0-1.998-1.646-3.618-3.655-3.618H3.856
					c-2.022,0-3.655,1.62-3.655,3.618v53.311c0,1.998,1.645,3.618,3.655,3.618H140.158z"/>
			</defs>
			<clipPath id="SVGID_4_">
				<use xlink:href="#SVGID_15_"  overflow="visible"/>
			</clipPath>
			<g clip-path="url(#SVGID_4_)">
				<g>
					<g>
						<g>
							<polygon fill="#D91F26" points="77.412,116.038 108.999,71.994 77.412,27.949 65.884,36.214 91.555,71.994 65.884,107.773 
															"/>
						</g>
					</g>
				</g>
				<g>
					<g>
						<g>
							<polygon fill="#D91F26" points="113.595,116.038 145.193,71.994 113.595,27.949 102.079,36.214 127.736,71.994 
								102.079,107.773 							"/>
						</g>
					</g>
				</g>
				<g>
					<g>
						<g>
							<polygon fill="#D91F26" points="41.219,116.038 72.815,71.994 41.219,27.949 29.702,36.214 55.372,71.994 29.702,107.773 
															"/>
						</g>
					</g>
				</g>
				<g>
					<g>
						<g>
							<polygon fill="#D91F26" points="5.036,116.038 36.634,71.994 5.036,27.949 -6.493,36.214 19.178,71.994 -6.493,107.773 
															"/>
						</g>
					</g>
				</g>
			</g>
		</g>
	</g>
	<g>
		<g>
			<g>
				<path fill="#878787" d="M3.856,41.928h136.288c1.91,0,3.454,1.533,3.454,3.417v53.311c0,1.884-1.544,3.417-3.454,3.417H3.856
					c-1.91,0-3.454-1.533-3.454-3.417V45.345C0.402,43.447,1.946,41.928,3.856,41.928L3.856,41.928z M3.856,41.526
					C1.733,41.526,0,43.233,0,45.345v53.311c0,2.098,1.733,3.818,3.856,3.818h136.288c2.123,0,3.856-1.708,3.856-3.818V45.345
					c0-2.111-1.733-3.818-3.856-3.818H3.856L3.856,41.526z"/>
			</g>
		</g>
	</g>
</g>
</svg>
