<?xml version="1.0" encoding="utf-8"?>
<!-- Generator: Adobe Illustrator 16.0.0, SVG Export Plug-In . SVG Version: 6.00 Build 0)  -->
<!DOCTYPE svg PUBLIC "-//W3C//DTD SVG 1.1//EN" "http://www.w3.org/Graphics/SVG/1.1/DTD/svg11.dtd">
<svg version="1.1" id="_x35_0m" xmlns="http://www.w3.org/2000/svg" xmlns:xlink="http://www.w3.org/1999/xlink" x="0px" y="0px"
	 width="144px" height="144px" viewBox="0 0 144 144" enable-background="new 0 0 144 144" xml:space="preserve">
<g>
	<g>
		<path fill="#010101" d="M36.105,104.704h-5.547v10.1h-5.27V89.058h12.625c1.81,0.04,3.201,0.259,4.175,0.656
			s1.79,1.014,2.466,1.81c0.556,0.655,0.994,1.371,1.332,2.167c0.338,0.795,0.497,1.689,0.497,2.704
			c0,1.232-0.318,2.425-0.934,3.599c-0.616,1.173-1.63,2.026-3.062,2.504c1.192,0.478,2.028,1.154,2.525,2.028
			c0.497,0.874,0.736,2.227,0.736,4.035v1.729c0,1.173,0.04,1.969,0.139,2.387c0.14,0.655,0.458,1.153,0.974,1.471v0.656h-5.904
			c-0.159-0.576-0.278-1.033-0.358-1.372c-0.14-0.716-0.219-1.471-0.219-2.227l-0.04-2.386c-0.02-1.65-0.318-2.742-0.895-3.28
			C38.769,105.002,37.695,104.704,36.105,104.704z M39.365,100.032c1.074-0.497,1.611-1.451,1.611-2.903
			c0-1.57-0.518-2.604-1.551-3.141c-0.577-0.298-1.451-0.456-2.625-0.456h-6.263v6.917h6.104
			C37.854,100.449,38.769,100.311,39.365,100.032z"/>
		<path fill="#010101" d="M66.901,109.218c-0.12,1.133-0.716,2.286-1.769,3.438c-1.63,1.85-3.917,2.784-6.859,2.784
			c-2.426,0-4.553-0.775-6.422-2.347c-1.869-1.57-2.784-4.096-2.784-7.614c0-3.301,0.835-5.825,2.505-7.574
			c1.67-1.75,3.836-2.646,6.501-2.646c1.59,0,3.002,0.299,4.274,0.896c1.272,0.596,2.326,1.531,3.141,2.823
			c0.756,1.133,1.233,2.445,1.452,3.937c0.119,0.875,0.179,2.128,0.159,3.777H54.058c0.079,1.908,0.675,3.24,1.808,4.015
			c0.696,0.478,1.512,0.717,2.486,0.717c1.033,0,1.849-0.297,2.505-0.875c0.357-0.317,0.655-0.756,0.934-1.313h5.11V109.218z
			 M61.99,103.373c-0.08-1.313-0.477-2.308-1.192-3.004c-0.715-0.695-1.611-1.013-2.664-1.013c-1.153,0-2.049,0.357-2.685,1.073
			c-0.637,0.715-1.034,1.71-1.192,2.943H61.99L61.99,103.373z"/>
		<path fill="#010101" d="M83.621,96.632c1.491,0.955,2.346,2.605,2.564,4.931h-4.97c-0.08-0.636-0.259-1.152-0.538-1.51
			c-0.556-0.677-1.471-1.015-2.803-1.015c-1.073,0-1.848,0.158-2.325,0.497c-0.477,0.338-0.696,0.736-0.696,1.192
			c0,0.577,0.238,0.995,0.735,1.233c0.497,0.259,2.227,0.735,5.188,1.371c1.989,0.458,3.459,1.173,4.454,2.107
			c0.974,0.954,1.471,2.146,1.471,3.578c0,1.89-0.695,3.42-2.107,4.613c-1.411,1.192-3.578,1.789-6.501,1.789
			c-3.001,0-5.208-0.637-6.639-1.889c-1.432-1.252-2.148-2.882-2.148-4.83h5.05c0.1,0.894,0.339,1.509,0.676,1.889
			c0.617,0.655,1.75,0.993,3.42,0.993c0.974,0,1.749-0.14,2.325-0.437c0.577-0.3,0.855-0.736,0.855-1.313
			c0-0.558-0.238-0.994-0.696-1.273c-0.458-0.278-2.186-0.794-5.188-1.51c-2.147-0.537-3.679-1.213-4.553-2.008
			c-0.895-0.797-1.333-1.929-1.333-3.421c0-1.749,0.696-3.279,2.067-4.532c1.372-1.272,3.32-1.888,5.825-1.888
			C80.182,95.222,82.129,95.698,83.621,96.632z"/>
		<path fill="#010101" d="M106.703,109.218c-0.119,1.133-0.716,2.286-1.769,3.438c-1.631,1.85-3.917,2.784-6.86,2.784
			c-2.425,0-4.553-0.775-6.421-2.347c-1.869-1.57-2.784-4.096-2.784-7.614c0-3.301,0.835-5.825,2.505-7.574
			c1.669-1.75,3.836-2.646,6.501-2.646c1.59,0,3.002,0.299,4.274,0.896c1.272,0.596,2.326,1.531,3.141,2.823
			c0.756,1.133,1.233,2.445,1.451,3.937c0.12,0.875,0.179,2.128,0.16,3.777H93.859c0.08,1.908,0.676,3.24,1.81,4.015
			c0.696,0.478,1.511,0.717,2.485,0.717c1.034,0,1.849-0.297,2.505-0.875c0.357-0.317,0.657-0.756,0.935-1.313h5.109V109.218z
			 M101.792,103.373c-0.08-1.313-0.476-2.308-1.193-3.004c-0.715-0.676-1.611-1.013-2.664-1.013c-1.153,0-2.047,0.357-2.684,1.073
			c-0.636,0.715-1.033,1.71-1.193,2.943H101.792L101.792,103.373z"/>
		<path fill="#010101" d="M119.029,111.266v3.717l-2.367,0.079c-2.346,0.08-3.956-0.316-4.832-1.231
			c-0.556-0.577-0.834-1.452-0.834-2.646V99.455h-2.664v-3.538h2.664v-5.309h4.93v5.309h3.103v3.538h-3.103v10.06
			c0,0.775,0.101,1.273,0.299,1.451c0.199,0.181,0.795,0.3,1.809,0.3c0.16,0,0.319,0,0.477,0
			C118.711,111.285,118.87,111.266,119.029,111.266z"/>
	</g>
	<rect y="28.56" fill="#010101" width="32.128" height="49.285"/>
	<rect x="37.297" y="28.56" fill="#010101" width="32.127" height="49.285"/>
	<rect x="74.575" y="28.56" fill="#010101" width="32.127" height="49.285"/>
	<rect x="111.872" y="28.56" fill="#010101" width="32.128" height="49.285"/>
	<g>
		<path fill="#FFFFFF" d="M16.283,68.779c-3.579,0-6.104-1.253-7.536-3.758c-1.431-2.505-2.167-6.083-2.167-10.735
			s0.715-8.231,2.167-10.756c1.452-2.525,3.957-3.777,7.536-3.777s6.104,1.252,7.554,3.777c1.432,2.524,2.148,6.104,2.148,10.756
			s-0.716,8.23-2.168,10.735C22.367,67.526,19.882,68.779,16.283,68.779z M19.523,61.682c0.497-1.71,0.756-4.175,0.756-7.415
			c0-3.399-0.259-5.905-0.775-7.535c-0.517-1.631-1.59-2.445-3.24-2.445c-1.65,0-2.724,0.814-3.261,2.445
			c-0.536,1.63-0.795,4.136-0.795,7.535c0,3.24,0.259,5.705,0.795,7.435c0.538,1.73,1.611,2.564,3.261,2.564
			C17.914,64.266,19.007,63.412,19.523,61.682z"/>
		<path fill="#FFFFFF" d="M53.561,68.779c-3.579,0-6.105-1.253-7.536-3.758c-1.432-2.505-2.168-6.083-2.168-10.735
			s0.717-8.231,2.168-10.756c1.452-2.525,3.957-3.777,7.536-3.777c3.578,0,6.103,1.252,7.554,3.777
			c1.432,2.524,2.147,6.104,2.147,10.756s-0.715,8.23-2.167,10.735C59.644,67.526,57.139,68.779,53.561,68.779z M56.801,61.682
			c0.497-1.71,0.754-4.175,0.754-7.415c0-3.399-0.257-5.905-0.775-7.535c-0.516-1.631-1.59-2.445-3.24-2.445
			c-1.65,0-2.724,0.814-3.26,2.445c-0.537,1.63-0.796,4.136-0.796,7.535c0,3.24,0.259,5.705,0.796,7.435
			c0.536,1.711,1.61,2.564,3.26,2.564C55.19,64.266,56.285,63.412,56.801,61.682z"/>
		<path fill="#FFFFFF" d="M90.818,68.779c-3.579,0-6.104-1.253-7.535-3.758c-1.431-2.505-2.167-6.083-2.167-10.735
			s0.715-8.231,2.167-10.756c1.451-2.525,3.957-3.777,7.535-3.777c3.579,0,6.103,1.252,7.554,3.777
			c1.432,2.524,2.147,6.104,2.147,10.756s-0.715,8.23-2.167,10.735C96.901,67.526,94.397,68.779,90.818,68.779z M94.058,61.682
			c0.497-1.71,0.756-4.175,0.756-7.415c0-3.399-0.259-5.905-0.775-7.535c-0.518-1.631-1.59-2.445-3.241-2.445
			c-1.65,0-2.724,0.814-3.26,2.445c-0.537,1.63-0.795,4.136-0.795,7.535c0,3.24,0.258,5.705,0.795,7.435
			c0.537,1.73,1.61,2.564,3.26,2.564C92.448,64.266,93.541,63.412,94.058,61.682z"/>
		<path fill="#FFFFFF" d="M128.075,68.779c-3.579,0-6.104-1.253-7.536-3.758s-2.167-6.083-2.167-10.735s0.715-8.231,2.167-10.756
			c1.451-2.525,3.957-3.777,7.536-3.777c3.578,0,6.103,1.252,7.554,3.777c1.432,2.524,2.147,6.104,2.147,10.756
			s-0.716,8.23-2.167,10.735C134.159,67.526,131.673,68.779,128.075,68.779z M131.315,61.682c0.497-1.71,0.755-4.175,0.755-7.415
			c0-3.399-0.259-5.905-0.775-7.535c-0.517-1.631-1.591-2.445-3.24-2.445c-1.65,0-2.725,0.814-3.261,2.445
			c-0.536,1.63-0.795,4.136-0.795,7.535c0,3.24,0.259,5.705,0.795,7.435c0.536,1.73,1.611,2.564,3.261,2.564
			C129.705,64.266,130.799,63.412,131.315,61.682z"/>
	</g>
</g>
</svg>
