<?xml version="1.0" encoding="UTF-8" standalone="no"?>
<!-- Generator: Adobe Illustrator 16.0.0, SVG Export Plug-In . SVG Version: 6.00 Build 0)  -->

<svg
   version="1.1"
   id="_x35_0m"
   x="0px"
   y="0px"
   width="144px"
   height="144px"
   viewBox="0 0 144 144"
   enable-background="new 0 0 144 144"
   xml:space="preserve"
   sodipodi:docname="restroom.svg"
   inkscape:version="1.2.1 (9c6d41e410, 2022-07-14)"
   xmlns:inkscape="http://www.inkscape.org/namespaces/inkscape"
   xmlns:sodipodi="http://sodipodi.sourceforge.net/DTD/sodipodi-0.dtd"
   xmlns="http://www.w3.org/2000/svg"
   xmlns:svg="http://www.w3.org/2000/svg"><defs
   id="defs23" /><sodipodi:namedview
   id="namedview21"
   pagecolor="#ffffff"
   bordercolor="#000000"
   borderopacity="0.25"
   inkscape:showpageshadow="2"
   inkscape:pageopacity="0.0"
   inkscape:pagecheckerboard="true"
   inkscape:deskcolor="#d1d1d1"
   showgrid="false"
   inkscape:zoom="5.4722222"
   inkscape:cx="51.807107"
   inkscape:cy="71.543147"
   inkscape:window-width="1920"
   inkscape:window-height="986"
   inkscape:window-x="-11"
   inkscape:window-y="-11"
   inkscape:window-maximized="1"
   inkscape:current-layer="_x35_0m" />
<rect
   style="fill:#ffffff;stroke:#000000;stroke-width:0"
   id="rect311"
   width="138.33502"
   height="136.87309"
   x="2.7411168"
   y="3.28934" /><g
   id="g18">
	<path
   fill="#231F20"
   d="M138.24,5.76v132.48H5.76V5.76H138.24 M144,0H0v144h144V0L144,0z"
   id="path2" />
	<g
   id="g8">
		<path
   fill="#231F20"
   d="M121.811,39.69c-0.051,0-0.101,0.01-0.15,0.01c-0.04,0-0.069-0.01-0.11-0.01h-4.59H97.95h-4.59    c-0.04,0-0.07,0.01-0.11,0.01c-0.05,0-0.1-0.01-0.149-0.01c-2.09,0-3.79,2-3.79,4.439V75.65c0,2.44,1.71,4.44,3.79,4.44    c2.09,0,3.789-2,3.789-4.44V48.73h1.061V83.84v35.899c0,2.781,1.97,5.051,4.39,5.051c2.41,0,4.391-2.27,4.391-5.051V83.84h1.449    v35.899c0,2.781,1.971,5.051,4.391,5.051c2.41,0,4.39-2.27,4.39-5.051V83.84V48.73h1.061v26.91c0,2.439,1.71,4.44,3.79,4.44    c2.09,0,3.789-2.001,3.789-4.44V44.12C125.61,41.681,123.9,39.69,121.811,39.69z"
   id="path4" />
		<path
   fill="#231F20"
   d="M107.461,37.32c4.949,0,8.969-4.021,8.969-8.97c0-4.951-4.02-8.971-8.969-8.971    c-4.95,0-8.971,4.02-8.971,8.971C98.49,33.3,102.501,37.32,107.461,37.32z"
   id="path6" />
	</g>
	<g
   id="g14">
		<path
   fill="#231F20"
   d="M66.83,72.101L59.12,45.06c-0.42-1.469-1.62-2.499-3.01-2.789c-0.21-0.051-0.43-0.08-0.65-0.08h-3.859    H32.58h-3.859c-0.23,0-0.44,0.029-0.65,0.08c-1.4,0.29-2.6,1.33-3.021,2.789l-7.71,27.041c-0.6,2.09,0.62,4.29,2.7,4.879    c2.08,0.591,4.27-0.63,4.87-2.729l6.71-23.541h0.97v1.54L20.801,94.649H32.58v23.08c0,2.78,1.95,5.051,4.34,5.051    s4.34-2.271,4.34-5.051v-23.08h1.65v23.08c0,2.78,1.95,5.051,4.34,5.051s4.341-2.271,4.341-5.051v-23.08H63.37L51.591,52.271    v-1.541h0.969l6.711,23.541c0.6,2.09,2.79,3.32,4.869,2.729C66.21,76.391,67.43,74.2,66.83,72.101z"
   id="path10" />
		<path
   fill="#231F20"
   d="M42.08,39.491c4.95,0,8.97-4.012,8.97-8.971c0-4.95-4.02-8.971-8.97-8.971s-8.97,4.021-8.97,8.971    C33.12,35.47,37.13,39.491,42.08,39.491z"
   id="path12" />
	</g>
	<rect
   x="72"
   y="12.641"
   fill="#231F20"
   width="6.53"
   height="118.949"
   id="rect16" />
</g>
</svg>
