<?xml version="1.0" encoding="UTF-8" standalone="no"?>
<!-- Generator: Adobe Illustrator 16.0.0, SVG Export Plug-In . SVG Version: 6.00 Build 0)  -->

<svg
   version="1.1"
   id="_x35_0m"
   x="0px"
   y="0px"
   width="144px"
   height="144px"
   viewBox="0 0 144 144"
   enable-background="new 0 0 144 144"
   xml:space="preserve"
   sodipodi:docname="right_over_crest.svg"
   inkscape:version="1.2.1 (9c6d41e410, 2022-07-14)"
   xmlns:inkscape="http://www.inkscape.org/namespaces/inkscape"
   xmlns:sodipodi="http://sodipodi.sourceforge.net/DTD/sodipodi-0.dtd"
   xmlns="http://www.w3.org/2000/svg"
   xmlns:svg="http://www.w3.org/2000/svg"><defs
   id="defs11" /><sodipodi:namedview
   id="namedview9"
   pagecolor="#ffffff"
   bordercolor="#000000"
   borderopacity="0.25"
   inkscape:showpageshadow="2"
   inkscape:pageopacity="0.0"
   inkscape:pagecheckerboard="0"
   inkscape:deskcolor="#d1d1d1"
   showgrid="false"
   inkscape:zoom="5.4722222"
   inkscape:cx="53.908629"
   inkscape:cy="72"
   inkscape:window-width="1920"
   inkscape:window-height="986"
   inkscape:window-x="-11"
   inkscape:window-y="-11"
   inkscape:window-maximized="1"
   inkscape:current-layer="_x35_0m" />
<g
   id="g6"
   style="stroke:#000000;stroke-width:1.5;stroke-dasharray:none;stroke-opacity:1"
   transform="matrix(0.98736343,0,0,1.000158,1.0925737,-0.01133859)">
	<path
   fill="#ec2527"
   d="M 100.378,94.87 C 94.63,84.561 83.888,78.218 72.011,78.218 60.135,78.218 49.393,84.562 43.645,94.87 H 0 v 11.699 h 52.831 l 0.491,-1.615 c 2.52,-8.273 10.03,-13.832 18.688,-13.832 8.659,0 16.17,5.559 18.689,13.832 l 0.491,1.615 H 144 V 94.87 Z"
   id="path2"
   style="stroke:#000000;stroke-width:1.5;stroke-dasharray:none;stroke-opacity:1" />
	<path
   fill="#ec2527"
   d="m 67.09,74.708 -2.267,0.227 0.23,2.303 9.087,-1.053 2.23,-0.275 -0.228,-2.236 c -0.008,-0.07 -0.677,-7.137 3.498,-11.797 2.044,-2.277 5.061,-3.742 8.988,-4.365 V 65.5 L 112.922,51.475 88.63,37.431 v 8.605 c -7.474,0.813 -13.362,3.6 -17.525,8.295 -7.159,8.055 -6.489,18.564 -6.282,20.59 z"
   id="path4"
   style="stroke:#000000;stroke-width:1.5;stroke-dasharray:none;stroke-opacity:1" />
</g>
</svg>
