<?xml version="1.0" encoding="utf-8"?>
<!-- Generator: Adobe Illustrator 16.0.0, SVG Export Plug-In . SVG Version: 6.00 Build 0)  -->
<!DOCTYPE svg PUBLIC "-//W3C//DTD SVG 1.1//EN" "http://www.w3.org/Graphics/SVG/1.1/DTD/svg11.dtd">
<svg version="1.1" id="_x35_0m" xmlns="http://www.w3.org/2000/svg" xmlns:xlink="http://www.w3.org/1999/xlink" x="0px" y="0px"
	 width="144px" height="144px" viewBox="0 0 144 144" enable-background="new 0 0 144 144" xml:space="preserve">
<g>
	<g>
		<path fill="#3D93D0" d="M144,71.999C144,111.761,111.76,144,72,144S0,111.761,0,71.999C0,32.229,32.23,0,72,0
			C111.771,0,144,32.24,144,71.999z"/>
		<path fill="#FFFFFF" d="M120.45,23.55C107.51,10.61,90.3,3.479,72,3.479s-35.51,7.121-48.45,20.07
			C10.61,36.489,3.48,53.7,3.48,71.999c0,18.301,7.13,35.511,20.069,48.451c12.94,12.939,30.15,20.07,48.45,20.07
			s35.51-7.131,48.45-20.07c12.94-12.94,20.07-30.15,20.07-48.451C140.521,53.7,133.391,36.489,120.45,23.55z M72,136.419
			c-35.52,0-64.42-28.899-64.42-64.42C7.58,36.479,36.48,7.58,72,7.58c35.521,0,64.421,28.899,64.421,64.419
			C136.421,107.52,107.521,136.419,72,136.419z"/>
	</g>
	<path fill="#FFFFFF" d="M64.37,101.81c-0.56,0.561-0.39,1.17,0.38,1.359l46.41,11.2c0.77,0.19,1.25-0.29,1.06-1.06l-11.199-46.41
		c-0.19-0.77-0.801-0.939-1.36-0.381l-8.149,8.15c-0.561,0.561-1.48,0.561-2.04,0L44.84,30.009c-0.56-0.56-1.479-0.56-2.04,0
		L27.87,44.939c-0.56,0.56-0.56,1.479,0,2.04l44.65,44.65c0.56,0.56,0.56,1.479,0,2.04L64.37,101.81z"/>
</g>
</svg>
