<?xml version="1.0" encoding="utf-8"?>
<!-- Generator: Adobe Illustrator 16.0.0, SVG Export Plug-In . SVG Version: 6.00 Build 0)  -->
<!DOCTYPE svg PUBLIC "-//W3C//DTD SVG 1.1//EN" "http://www.w3.org/Graphics/SVG/1.1/DTD/svg11.dtd">
<svg version="1.1" id="_x35_0m" xmlns="http://www.w3.org/2000/svg" xmlns:xlink="http://www.w3.org/1999/xlink" x="0px" y="0px"
	 width="144px" height="144px" viewBox="0 0 144 144" enable-background="new 0 0 144 144" xml:space="preserve">
<g>
	<g>
		<path fill="#3D93D0" d="M144,71.999C144,111.761,111.76,144,71.999,144C32.24,144,0,111.761,0,71.999C0,32.229,32.229,0,71.999,0
			C111.771,0,144,32.24,144,71.999z"/>
		<path fill="#FFFFFF" d="M120.45,23.55C107.51,10.61,90.3,3.479,71.999,3.479c-18.299,0-35.51,7.121-48.449,20.07
			C10.61,36.489,3.479,53.7,3.479,71.999c0,18.301,7.131,35.511,20.07,48.451c12.939,12.939,30.15,20.07,48.449,20.07
			c18.301,0,35.511-7.131,48.451-20.07c12.939-12.94,20.07-30.15,20.07-48.451C140.521,53.7,133.39,36.489,120.45,23.55z
			 M71.999,136.419c-35.52,0-64.419-28.899-64.419-64.42c0-35.52,28.899-64.419,64.419-64.419c35.521,0,64.421,28.899,64.421,64.419
			C136.42,107.52,107.52,136.419,71.999,136.419z"/>
	</g>
	<path fill="#FFFFFF" d="M38.49,72.45c1.649-12.301,5.439-20.88,11.939-27c3.88-3.66,8.67-6.28,14.24-7.801
		c4.89-1.329,10.33-1.83,16.57-1.52V25.36l35.38,21.62l-35.38,21.62V55.81c-8.28-0.539-13.951,0.75-17.33,3.94
		c-7.271,6.86-7.011,25.1-6.75,44.42c0.06,3.9,0.109,7.939,0.109,12.04H37.62c0-3.961-0.061-7.93-0.11-11.77
		C37.35,92.94,37.2,82.069,38.49,72.45z"/>
</g>
</svg>
