<?xml version="1.0" encoding="utf-8"?>
<!-- Generator: Adobe Illustrator 16.0.0, SVG Export Plug-In . SVG Version: 6.00 Build 0)  -->
<!DOCTYPE svg PUBLIC "-//W3C//DTD SVG 1.1//EN" "http://www.w3.org/Graphics/SVG/1.1/DTD/svg11.dtd">
<svg version="1.1" id="_x35_0m" xmlns="http://www.w3.org/2000/svg" xmlns:xlink="http://www.w3.org/1999/xlink" x="0px" y="0px"
	 width="144px" height="144px" viewBox="0 0 144 144" enable-background="new 0 0 144 144" xml:space="preserve">
<path fill="#A9D3EF" d="M51.377,40.9c0,0,33.199-24.046,75.185-18.32c0,0,27.094,0.763,13.738,13.355c0,0-1.639,1.535-21.369,6.869
	C70.563,55.86,130.638,62.43,131.12,79.502c0,0,2.334,10.102-4.662,18.263c0,0-6.766,14.107-33.858,20.976c0,0-15.642,8.012-91.97,0
	c0,0-6.13-5.934,19.844-11.833c0,0,43.89-13.356,44.652-18.319c0,0,0.945-3.082-18.32-16.601
	C46.793,71.999,32.295,54.256,51.377,40.9z"/>
</svg>
