<?xml version="1.0" encoding="utf-8"?>
<!-- Generator: Adobe Illustrator 16.0.0, SVG Export Plug-In . SVG Version: 6.00 Build 0)  -->
<!DOCTYPE svg PUBLIC "-//W3C//DTD SVG 1.1//EN" "http://www.w3.org/Graphics/SVG/1.1/DTD/svg11.dtd">
<svg version="1.1" id="_x35_0m" xmlns="http://www.w3.org/2000/svg" xmlns:xlink="http://www.w3.org/1999/xlink" x="0px" y="0px"
	 width="144px" height="144px" viewBox="0 0 144 144" enable-background="new 0 0 144 144" xml:space="preserve">
<g>
	<g>
		<path fill="#3D93D0" d="M144,72c0,39.761-32.239,72-72,72S0,111.761,0,72C0,32.229,32.229,0,72,0S144,32.239,144,72z"/>
		<path fill="#FFFFFF" d="M120.45,23.55C107.509,10.61,90.3,3.479,72,3.479s-35.51,7.121-48.45,20.07
			C10.61,36.49,3.479,53.7,3.479,72s7.13,35.51,20.071,48.45c12.939,12.94,30.149,20.07,48.45,20.07s35.509-7.13,48.45-20.07
			S140.521,90.3,140.521,72S133.39,36.49,120.45,23.55z M72,136.419C36.48,136.419,7.58,107.52,7.58,72S36.48,7.58,72,7.58
			s64.42,28.9,64.42,64.42S107.52,136.419,72,136.419z"/>
	</g>
	<path fill="#FFFFFF" d="M109.87,41.41L96.79,33.8v8.56H93.55c-8.73,0-16.49,4.051-21.55,10.371
		c-5.121-6.32-12.94-10.371-21.67-10.371h-2.75V33.8L34.26,41.41l-13.24,7.6l13.13,7.601l13.16,7.659l-0.02-8.47h3.039
		c7.97,0,14.7,6.369,14.7,14.33v57.2h0.87h12.3h1.15v-57.2c0-7.961,6.25-14.33,14.21-14.33h3.05l0.01,8.47l13.18-7.659l13.19-7.601
		L109.87,41.41z"/>
</g>
</svg>
