<?xml version="1.0" encoding="utf-8"?>
<!-- Generator: Adobe Illustrator 16.0.0, SVG Export Plug-In . SVG Version: 6.00 Build 0)  -->
<!DOCTYPE svg PUBLIC "-//W3C//DTD SVG 1.1//EN" "http://www.w3.org/Graphics/SVG/1.1/DTD/svg11.dtd">
<svg version="1.1" id="_x35_0m" xmlns="http://www.w3.org/2000/svg" xmlns:xlink="http://www.w3.org/1999/xlink" x="0px" y="0px"
	 width="144px" height="144px" viewBox="0 0 144 144" enable-background="new 0 0 144 144" xml:space="preserve">
<g>
	<polygon fill="#7E7E7E" points="44.848,56.066 72.466,35.935 99.152,56.066 99.152,138.455 44.848,138.455 	"/>
	<rect x="6.62" y="100.071" fill="#7E7E7E" width="32.308" height="38.396"/>
	<polygon fill="#090A0A" points="10.299,76.961 38.928,76.961 38.928,100.071 0,100.071 	"/>
	<polygon fill="#090A0A" points="73.957,25.637 73.957,15.298 96.341,9.184 71.404,1.995 71.404,7.319 71.404,15.998 71.404,25.364 
		29.717,56.001 35.624,64.033 72.44,36.984 108.324,64.008 114.322,56.04 	"/>
	<circle fill="#FFFFFF" cx="71.404" cy="71.365" r="17.152"/>
	<rect x="12.799" y="107.288" fill="#FFFFFF" width="9.988" height="21.543"/>
	<rect x="25.338" y="107.288" fill="#FFFFFF" width="9.988" height="21.543"/>
	<polygon fill="#090A0A" points="83.867,71.34 70.148,71.34 70.148,58.333 72.648,58.333 72.648,68.84 83.867,68.84 	"/>
	<path fill="#FFFFFF" d="M71.404,94.67c-6.969,0-12.618,5.648-12.618,12.618v31.18h25.222v-31.18
		C84.008,100.318,78.36,94.67,71.404,94.67z"/>
	<rect x="105.076" y="100.062" fill="#7E7E7E" width="32.308" height="38.396"/>
	<polygon fill="#090A0A" points="133.702,76.961 105.072,76.961 105.072,100.071 144,100.071 	"/>
	<rect x="121.226" y="107.281" fill="#FFFFFF" width="9.987" height="21.543"/>
	<rect x="108.674" y="107.281" fill="#FFFFFF" width="9.988" height="21.543"/>
	<rect y="138.455" fill="#090A0A" width="144" height="3.55"/>
</g>
</svg>
