<?xml version="1.0" encoding="utf-8"?>
<!-- Generator: Adobe Illustrator 16.0.0, SVG Export Plug-In . SVG Version: 6.00 Build 0)  -->
<!DOCTYPE svg PUBLIC "-//W3C//DTD SVG 1.1//EN" "http://www.w3.org/Graphics/SVG/1.1/DTD/svg11.dtd">
<svg version="1.1" id="_x35_0m" xmlns="http://www.w3.org/2000/svg" xmlns:xlink="http://www.w3.org/1999/xlink" x="0px" y="0px"
	 width="144px" height="144px" viewBox="0 0 144 144" enable-background="new 0 0 144 144" xml:space="preserve">
<g>
	<g>
		<g>
			<g>
				<g>
					<path fill="#989898" d="M131.088,132.899H12.91c-4.103,0-7.732-2.01-9.731-5.385c-1.991-3.375-1.96-7.467,0.091-10.934
						L33.537,65.38l28.812-48.738c2.052-3.469,5.66-5.541,9.65-5.541s7.591,2.072,9.652,5.541l30.267,51.209l28.813,48.74
						c2.051,3.467,2.082,7.561,0.093,10.934C138.822,130.88,135.181,132.899,131.088,132.899z M29.301,112.776h85.396L71.999,40.548
						L29.301,112.776z"/>
				</g>
			</g>
		</g>
		<g>
			<g>
				<g>
					<path fill="#FFFFFF" d="M72.728,21.655c-0.409-0.676-1.065-0.676-1.455,0L42.46,70.405c-0.41,0.678-1.066,1.785-1.456,2.463
						l-28.811,48.738c-0.41,0.678-0.072,1.23,0.717,1.23h57.623c0.8,0,2.112,0,2.912,0h57.633c0.8,0,1.129-0.553,0.719-1.23
						l-28.811-48.738c-0.41-0.678-1.067-1.785-1.458-2.463L72.728,21.655z"/>
				</g>
			</g>
		</g>
		<g>
			<g>
				<g>
					<path fill="#FFFFFF" d="M131.088,132.079H12.91c-3.795,0-7.157-1.855-9.015-4.984c-1.846-3.119-1.806-6.902,0.093-10.113
						L34.256,65.78l28.812-48.752c1.896-3.209,5.229-5.127,8.922-5.127s7.025,1.918,8.924,5.127l30.278,51.213l28.811,48.74
						c1.896,3.211,1.929,6.994,0.093,10.113C138.247,130.224,134.883,132.079,131.088,132.079z M27.855,113.597h88.279
						l-44.136-74.68L27.855,113.597z"/>
				</g>
			</g>
		</g>
	</g>
	<g>
		<g>
			<g>
				<path fill="#ED2224" d="M131.088,129.956H12.91c-3.005,0-5.67-1.467-7.118-3.918c-1.455-2.451-1.414-5.436,0.093-7.979
					l30.269-51.203l28.811-48.75c1.497-2.543,4.134-4.061,7.035-4.061c2.894,0,5.53,1.518,7.037,4.061l30.267,51.213l28.813,48.74
					c1.497,2.543,1.538,5.527,0.093,7.979C136.75,128.489,134.094,129.956,131.088,129.956z M24.07,115.729h95.849L95.23,73.954
					L71.999,34.651L24.07,115.729z"/>
			</g>
		</g>
	</g>
	<polygon fill="#010101" points="71.815,61.718 60.112,72.077 60.112,82.048 49.836,82.048 49.836,94.386 60.112,94.386 
		60.112,110.069 71.815,99.71 83.59,110.069 83.59,72.077 	"/>
</g>
</svg>
