<?xml version="1.0" encoding="utf-8"?>
<!-- Generator: Adobe Illustrator 16.0.0, SVG Export Plug-In . SVG Version: 6.00 Build 0)  -->
<!DOCTYPE svg PUBLIC "-//W3C//DTD SVG 1.1//EN" "http://www.w3.org/Graphics/SVG/1.1/DTD/svg11.dtd">
<svg version="1.1" id="_x35_0m" xmlns="http://www.w3.org/2000/svg" xmlns:xlink="http://www.w3.org/1999/xlink" x="0px" y="0px"
	 width="144px" height="144px" viewBox="0 0 144 144" enable-background="new 0 0 144 144" xml:space="preserve">
<g>
	<g>
		<g>
			<g>
				<g>
					<path fill="#989898" d="M131.082,132.897H12.917c-4.103,0-7.733-2.02-9.734-5.395c-2-3.375-1.969-7.457,0.082-10.934
						L33.543,65.38l28.81-48.74c2.052-3.465,5.651-5.537,9.651-5.537c3.99,0,7.601,2.072,9.642,5.537l30.267,51.201l28.821,48.738
						c2.05,3.467,2.081,7.549,0.092,10.934C138.826,130.878,135.185,132.897,131.082,132.897z M29.306,112.786h85.396L72.004,40.55
						L29.306,112.786z"/>
				</g>
			</g>
		</g>
		<g>
			<g>
				<g>
					<path fill="#FFFFFF" d="M71.276,21.665c0.4-0.676,1.057-0.676,1.458,0l28.81,48.74c0.4,0.676,1.056,1.785,1.457,2.461
						l28.81,48.74c0.4,0.676,0.073,1.229-0.728,1.229H73.461c-0.8,0-2.112,0-2.913,0H12.917c-0.801,0-1.128-0.553-0.729-1.229
						l28.821-48.74c0.4-0.676,1.057-1.785,1.457-2.461L71.276,21.665z"/>
				</g>
			</g>
		</g>
		<g>
			<g>
				<g>
					<path fill="#FFFFFF" d="M131.082,132.087H12.917c-3.795,0-7.169-1.865-9.016-4.982c-1.846-3.119-1.815-6.904,0.082-10.115
						L34.25,65.778L63.061,17.04c1.897-3.209,5.231-5.127,8.924-5.127c3.692,0,7.025,1.918,8.922,5.127l30.268,51.211l28.811,48.738
						c1.897,3.211,1.938,6.996,0.081,10.115C138.252,130.222,134.887,132.087,131.082,132.087z M27.861,113.595h88.288
						L72.004,38.917l-22.8,38.576L27.861,113.595z"/>
				</g>
			</g>
		</g>
	</g>
	<g>
		<g>
			<g>
				<path fill="#ED2224" d="M131.082,129.954H12.917c-3.005,0-5.672-1.467-7.118-3.918c-1.457-2.451-1.416-5.436,0.082-7.979
					l30.277-51.211l28.81-48.75c1.498-2.543,4.133-4.061,7.036-4.061c2.893,0,5.528,1.518,7.036,4.061l30.268,51.211l28.81,48.738
					c1.498,2.545,1.539,5.529,0.083,7.98C136.754,128.487,134.098,129.954,131.082,129.954z M24.076,115.729h95.856L72.004,34.651
					L47.317,76.427L24.076,115.729z"/>
			</g>
		</g>
	</g>
	<g>
		<g>
			<g>
				<g>
					<path fill="#010101" d="M87.184,104.722L87.184,104.722C87.124,104.755,87.103,104.765,87.184,104.722z"/>
				</g>
			</g>
		</g>
		<g>
			<g>
				<g>
					<path fill="#010101" d="M85.84,65.79l-6.143,9.334v15.385l-0.943-0.852l-6.646-5.99l-3.324-2.994l-1.662-1.498l-0.41-0.369
						l-0.841-0.709L65.02,77.38c-0.041-0.031-0.072-0.063-0.112-0.084l-0.123-0.061l-0.246-0.121
						c-0.174-0.084-0.339-0.154-0.503-0.236c-0.687-0.299-1.395-0.555-2.113-0.76c-0.185-0.051-0.369-0.104-0.543-0.145
						l-0.246-0.061l-0.246-0.053c-0.154-0.039-0.328-0.061-0.503-0.09c-0.173-0.031-0.348-0.063-0.533-0.084
						c-0.369-0.051-0.759-0.072-1.18-0.092c-0.43-0.01-0.872,0-1.364,0.051c-0.235,0.021-0.513,0.063-0.759,0.104
						c-0.133,0.021-0.277,0.061-0.41,0.082c-0.134,0.029-0.267,0.061-0.421,0.102c-0.144,0.041-0.287,0.084-0.431,0.135
						c-0.144,0.039-0.297,0.102-0.441,0.164c-0.287,0.102-0.595,0.256-0.892,0.398c-0.154,0.084-0.297,0.164-0.451,0.258
						c-0.154,0.092-0.288,0.184-0.431,0.287c-0.143,0.102-0.287,0.205-0.421,0.309l-0.235,0.203l-0.021,0.021l-0.051,0.041
						l-0.072,0.061c-0.072,0.072-0.154,0.145-0.236,0.215c-0.071,0.072-0.154,0.145-0.225,0.227l-0.113,0.113l-0.062,0.061
						l-0.03,0.041c-0.195,0.217-0.39,0.453-0.544,0.656c-0.646,0.883-1.015,1.682-1.292,2.41s-0.441,1.375-0.564,1.99
						c-0.113,0.615-0.195,1.189-0.236,1.754c-0.021,0.277-0.041,0.564-0.041,0.842c-0.011,0.287-0.011,0.553,0,0.873v0.133v0.082
						l-0.021,0.061c0.01,0.113-0.021-0.574-0.021-0.287v0.133v0.277v0.555v2.205v4.42v17.652l6.144-7.467l6.144,7.467V94.591v-4.422
						v-0.133l9.292,8.369l3.323,2.996l0.831,0.748l0.411,0.379l0.852,0.719l0.42,0.357c0.072,0.063,0.153,0.104,0.236,0.154
						l0.236,0.135c0.328,0.184,0.656,0.348,1.005,0.512c0.338,0.154,0.687,0.307,1.036,0.441l0.256,0.092l0.226,0.082
						c0.154,0.063,0.308,0.104,0.482,0.154c0.656,0.195,1.374,0.369,2.276,0.473c0.451,0.039,0.943,0.07,1.518,0.039
						c0.563-0.029,1.2-0.111,1.877-0.295c0.174-0.053,0.359-0.104,0.533-0.166l0.133-0.051l0.196-0.072
						c0.123-0.051,0.256-0.102,0.379-0.154l0.184-0.092l0.165-0.082l0.062-0.031l0.062-0.031h0.01
						c0.092-0.051,0.308-0.174,0.298-0.164l0.174-0.102c0.215-0.145,0.44-0.297,0.646-0.451c0.174-0.143,0.348-0.287,0.523-0.451
						l0.123-0.123l0.103-0.102l0.204-0.217l0.196-0.227l0.05-0.061l0.041-0.051l0.073-0.104c0.103-0.133,0.205-0.266,0.308-0.41
						c0.083-0.121,0.164-0.244,0.236-0.369l0.113-0.186l0.093-0.162c0.061-0.113,0.123-0.227,0.184-0.34
						c0.05-0.102,0.103-0.205,0.143-0.307c0.041-0.104,0.092-0.217,0.134-0.297c0.072-0.186,0.153-0.391,0.215-0.555
						c0.247-0.709,0.4-1.301,0.513-1.867c0.112-0.564,0.194-1.076,0.246-1.568c0.061-0.504,0.102-0.975,0.123-1.447
						c0.02-0.236,0.02-0.473,0.031-0.717l0.031-0.369l0.02-0.42V75.112L85.84,65.79z"/>
				</g>
			</g>
		</g>
	</g>
</g>
</svg>
