<?xml version="1.0" encoding="utf-8"?>
<!-- Generator: Adobe Illustrator 16.0.0, SVG Export Plug-In . SVG Version: 6.00 Build 0)  -->
<!DOCTYPE svg PUBLIC "-//W3C//DTD SVG 1.1//EN" "http://www.w3.org/Graphics/SVG/1.1/DTD/svg11.dtd">
<svg version="1.1" id="_x35_0m" xmlns="http://www.w3.org/2000/svg" xmlns:xlink="http://www.w3.org/1999/xlink" x="0px" y="0px"
	 width="144px" height="144px" viewBox="0 0 144 144" enable-background="new 0 0 144 144" xml:space="preserve">
<g>
	<g>
		<g>
			<g>
				<g>
					<path fill="#989898" d="M132.518,134.604h-0.095l-121.017-0.883c-4.202-0.031-7.911-2.121-9.928-5.6
						c-2.017-3.477-1.954-7.656,0.179-11.197l31.41-52.221l29.886-49.709c2.112-3.508,5.789-5.6,9.844-5.6
						c4.066,0,7.858,2.195,9.917,5.746l59.721,102.803c2.068,3.549,2.068,7.721,0.021,11.156
						C140.408,132.556,136.689,134.604,132.518,134.604z M28.34,113.237l87.465,0.631L72.64,39.577L28.34,113.237z"/>
				</g>
			</g>
		</g>
		<g>
			<g>
				<g>
					<path fill="#FFFFFF" d="M72.041,20.228c0.41-0.693,1.083-0.684,1.492,0.01l29.13,50.141c0.399,0.693,1.071,1.838,1.471,2.531
						l29.13,50.129c0.41,0.693,0.064,1.271-0.756,1.26l-59.017-0.43c-0.819,0-2.153-0.021-2.983-0.021l-59.017-0.43
						c-0.819,0-1.155-0.568-0.735-1.262l29.887-49.697c0.42-0.693,1.092-1.818,1.513-2.512L72.041,20.228z"/>
				</g>
			</g>
		</g>
		<g>
			<g>
				<g>
					<path fill="#FFFFFF" d="M132.518,133.765h-0.084l-121.017-0.883c-3.897-0.031-7.322-1.965-9.192-5.18
						c-1.87-3.203-1.807-7.08,0.168-10.357l31.409-52.219l29.898-49.711c1.953-3.246,5.357-5.189,9.097-5.189
						c3.813,0,7.237,1.986,9.182,5.326l59.72,102.801c1.913,3.289,1.924,7.154,0.032,10.326
						C139.83,131.874,136.384,133.765,132.518,133.765z M26.859,114.058l90.417,0.662L72.65,37.907l-23.656,39.33L26.859,114.058z"
						/>
				</g>
			</g>
		</g>
	</g>
	<g>
		<g>
			<g>
				<path fill="#ED2224" d="M132.518,131.579h-0.073l-121.018-0.883c-3.088-0.021-5.799-1.543-7.259-4.064
					c-1.471-2.521-1.407-5.578,0.147-8.174l31.398-52.221L65.612,16.54c1.545-2.574,4.224-4.119,7.175-4.119
					c2.994,0,5.694,1.576,7.228,4.213l59.722,102.801c1.512,2.605,1.533,5.652,0.041,8.152
					C138.296,130.087,135.585,131.579,132.518,131.579z M22.961,116.21l98.17,0.715l-48.45-83.389l-25.61,42.598L22.961,116.21z"/>
			</g>
		</g>
	</g>
	<g>
		<g>
			<g>
				<g>
					<g>
						<path fill="#010101" d="M91.991,111.421h-7.564V96.366c0-3.508-1.985-5.777-4.286-8.393
							c-2.426-2.764-5.179-5.904-5.179-10.547V60.03h7.574v17.385c0,1.818,1.271,3.373,3.351,5.736
							C88.607,86.251,92,90.116,92,96.356v15.064H91.991z"/>
					</g>
				</g>
			</g>
		</g>
		<g>
			<g>
				<g>
					<g>
						<path fill="#010101" d="M59.561,111.421h-7.563V96.366c0-6.24,3.383-10.105,6.104-13.203c2.08-2.375,3.361-3.92,3.361-5.736
							V60.03h7.564v17.385c0,4.643-2.753,7.785-5.17,10.549c-2.3,2.625-4.296,4.883-4.296,8.393V111.421z"/>
					</g>
				</g>
			</g>
		</g>
	</g>
</g>
</svg>
