<?xml version="1.0" encoding="utf-8"?>
<!-- Generator: Adobe Illustrator 16.0.0, SVG Export Plug-In . SVG Version: 6.00 Build 0)  -->
<!DOCTYPE svg PUBLIC "-//W3C//DTD SVG 1.1//EN" "http://www.w3.org/Graphics/SVG/1.1/DTD/svg11.dtd">
<svg version="1.1" id="_x35_0m" xmlns="http://www.w3.org/2000/svg" xmlns:xlink="http://www.w3.org/1999/xlink" x="0px" y="0px"
	 width="144px" height="144px" viewBox="0 0 144 144" enable-background="new 0 0 144 144" xml:space="preserve">
<g>
	<g>
		<g>
			<g>
				<g>
					<path fill="#989898" d="M132.505,134.537H11.484c-4.202,0-7.921-2.068-9.97-5.525c-2.038-3.457-2.006-7.637,0.094-11.188
						L32.61,65.371l29.51-49.922c2.091-3.551,5.788-5.674,9.875-5.674c4.086,0,7.784,2.111,9.886,5.674l31.001,52.443l29.509,49.932
						c2.102,3.551,2.133,7.73,0.095,11.188C140.438,132.469,136.708,134.537,132.505,134.537z M28.262,113.926h87.467L71.995,39.938
						L28.262,113.926z"/>
				</g>
			</g>
		</g>
		<g>
			<g>
				<g>
					<path fill="#FFFFFF" d="M71.249,20.596c0.41-0.693,1.082-0.693,1.491,0l29.51,49.922c0.41,0.693,1.082,1.828,1.492,2.521
						l29.51,49.922c0.409,0.693,0.073,1.26-0.747,1.26H73.487c-0.82,0-2.164,0-2.983,0h-59.02c-0.819,0-1.155-0.566-0.745-1.26
						l29.508-49.922c0.41-0.693,1.082-1.828,1.493-2.521L71.249,20.596z"/>
				</g>
			</g>
		</g>
		<g>
			<g>
				<g>
					<path fill="#FFFFFF" d="M132.505,133.697H11.484c-3.888,0-7.344-1.912-9.234-5.105s-1.859-7.061,0.085-10.357l31.001-52.443
						l29.509-49.932c1.943-3.289,5.357-5.254,9.141-5.254c3.781,0,7.195,1.965,9.139,5.254l31.002,52.453l29.51,49.922
						c1.942,3.287,1.974,7.164,0.083,10.357C139.849,131.785,136.403,133.697,132.505,133.697z M26.78,114.768h90.42l-45.205-76.49
						L26.78,114.768z"/>
				</g>
			</g>
		</g>
	</g>
	<g>
		<g>
			<g>
				<path fill="#ED2224" d="M132.505,131.512H11.484c-3.078,0-5.81-1.502-7.29-4.012c-1.481-2.512-1.45-5.568,0.094-8.174
					l30.99-52.453l29.51-49.922c1.544-2.605,4.234-4.17,7.207-4.17s5.662,1.564,7.207,4.17l60.51,102.375
					c1.545,2.605,1.576,5.662,0.095,8.174C138.315,130.01,135.595,131.512,132.505,131.512z M22.904,116.951h98.172L71.995,33.906
					L46.709,76.686L22.904,116.951z"/>
			</g>
		</g>
	</g>
	<path fill="#010101" d="M95.013,89.133v-5.746h-2.689v-5.451l-2.9-4.203l-2.91,4.203v5.451h-2.898v-5.451l-2.91-4.203l-2.9,4.203
		v5.451h-2.898v-5.451l-2.91-4.203l-2.91,4.203v5.451h-2.899v-4.885l-2.899-4.201l-2.91,4.201v4.885h-2.91v-4.885l-2.899-4.201
		l-2.899,4.201v4.885h-3.131v5.746h3.131v11.473h-3.131v5.473h3.131v4.477h5.81v-4.477h2.91v4.477h5.809v-4.477h2.9v4.477h5.81
		v-4.477h2.898v4.477h5.811v-4.477h2.898v4.477h5.811v-4.477h2.689v-5.473h-2.689V89.133H95.013z M57.477,100.605V89.133h2.91
		v11.473H57.477z M66.186,100.605V89.133h2.899v11.473H66.186z M74.905,100.605V89.133h2.898v11.473H74.905z M86.513,100.605h-2.898
		V89.133h2.898V100.605z"/>
</g>
</svg>
