<?xml version="1.0" encoding="utf-8"?>
<!-- Generator: Adobe Illustrator 16.0.0, SVG Export Plug-In . SVG Version: 6.00 Build 0)  -->
<!DOCTYPE svg PUBLIC "-//W3C//DTD SVG 1.1//EN" "http://www.w3.org/Graphics/SVG/1.1/DTD/svg11.dtd">
<svg version="1.1" id="_x35_0m" xmlns="http://www.w3.org/2000/svg" xmlns:xlink="http://www.w3.org/1999/xlink" x="0px" y="0px"
	 width="144px" height="144px" viewBox="0 0 144 144" enable-background="new 0 0 144 144" xml:space="preserve">
<g>
	<g>
		<g>
			<g>
				<g>
					<path fill="#989898" d="M132.519,134.543H11.487c-4.203,0-7.922-2.069-9.97-5.525c-2.049-3.456-2.007-7.638,0.084-11.188
						l31.012-52.463l29.509-49.922c2.102-3.551,5.789-5.673,9.886-5.673c4.087,0,7.784,2.111,9.875,5.673l31.001,52.443
						l29.51,49.931c2.101,3.541,2.132,7.732,0.094,11.188C140.439,132.474,136.721,134.543,132.519,134.543z M28.264,113.932h87.468
						L72.008,39.943L28.264,113.932z"/>
				</g>
			</g>
		</g>
		<g>
			<g>
				<g>
					<path fill="#FFFFFF" d="M71.263,20.603c0.409-0.693,1.082-0.693,1.491,0l29.509,49.921c0.41,0.694,1.082,1.828,1.492,2.521
						l29.51,49.922c0.409,0.693,0.073,1.26-0.746,1.26H73.489c-0.819,0-2.154,0-2.983,0H11.487c-0.82,0-1.156-0.566-0.746-1.26
						l29.51-49.922c0.409-0.693,1.082-1.827,1.491-2.521L71.263,20.603z"/>
				</g>
			</g>
		</g>
		<g>
			<g>
				<g>
					<path fill="#FFFFFF" d="M132.519,133.703H11.487c-3.887,0-7.344-1.912-9.234-5.105c-1.892-3.194-1.859-7.07,0.084-10.359
						l31.012-52.442l29.51-49.931c1.942-3.289,5.357-5.254,9.139-5.254c3.782,0,7.196,1.965,9.14,5.254l60.511,102.373
						c1.943,3.289,1.976,7.165,0.085,10.359C139.862,131.791,136.405,133.703,132.519,133.703z M26.793,114.772h90.43l-45.215-76.5
						L26.793,114.772z"/>
				</g>
			</g>
		</g>
	</g>
	<g>
		<g>
			<g>
				<path fill="#ED2224" d="M132.519,131.519H11.487c-3.078,0-5.811-1.503-7.291-4.014c-1.492-2.511-1.45-5.568,0.084-8.173
					l31.002-52.454l29.519-49.921c1.534-2.605,4.234-4.171,7.207-4.171c2.962,0,5.662,1.565,7.207,4.171l60.511,102.375
					c1.533,2.604,1.575,5.662,0.084,8.173C138.328,130.016,135.597,131.519,132.519,131.519z M22.917,116.947h98.182L72.008,33.912
					L46.711,76.69L22.917,116.947z"/>
			</g>
		</g>
	</g>
	<g>
		<g>
			<g>
				<g>
					<path fill="#010101" d="M89.436,108.206l-9.717-19.36l-5.599,3.803l9.254,18.457c0.578,1.167,1.775,1.839,3.026,1.839
						c0.493,0,0.997-0.105,1.481-0.337C89.562,111.81,90.256,109.825,89.436,108.206z"/>
				</g>
			</g>
		</g>
		<g>
			<g>
				<g>
					<path fill="#010101" d="M77.156,88.792l0.041-0.021c0.714-0.451,1.177-1.103,1.397-1.839c0.021-0.041,0.053-0.094,0.074-0.137
						c0.209-0.556,0.314-1.165,0.283-1.796L78.29,70.965l2.805,1.618l1.545,12.911c0.146,1.261,1.239,2.186,2.51,2.186
						c0.095,0,0.2,0,0.295-0.021c1.387-0.146,2.384-1.377,2.217-2.742l-1.692-14.13c-0.083-0.767-0.546-1.449-1.218-1.838
						l-7.922-4.57c-0.893-0.913-2.152-1.471-3.561-1.387c-2.563,0.105-4.538,2.238-4.422,4.728l0.366,7.563l0.231,4.843l0.253,5.296
						c0,0.063,0.021,0.136,0.031,0.2l-8.32,5.199c-0.851,0.535-1.408,1.418-1.533,2.395l-1.755,14.918
						c-0.21,1.807,1.113,3.446,2.963,3.656c0.137,0.021,0.263,0.021,0.388,0.021c1.691,0,3.152-1.239,3.341-2.909l1.576-13.363
						l6.985-4.381l3.226-2.017C76.798,89.034,76.987,88.929,77.156,88.792z"/>
				</g>
			</g>
		</g>
		<g>
			<g>
				<g>
					<path fill="#010101" d="M70.39,62.309c2.91,0,5.264-2.301,5.264-5.137c0-2.848-2.354-5.148-5.264-5.148
						s-5.272,2.301-5.272,5.148C65.127,60.008,67.479,62.309,70.39,62.309z"/>
				</g>
			</g>
		</g>
		<g>
			<g>
				<g>
					<path fill="#010101" d="M60.968,86.492l7.027-5.285l-0.315-5.829c-0.231,0.084-0.451,0.178-0.651,0.335l-9.129,6.861
						c-1.114,0.84-1.313,2.385-0.473,3.467c0.504,0.64,1.25,0.966,2.006,0.966C59.969,87.007,60.515,86.85,60.968,86.492z"/>
				</g>
			</g>
		</g>
	</g>
</g>
</svg>
