<?xml version="1.0" encoding="utf-8"?>
<!-- Generator: Adobe Illustrator 16.0.0, SVG Export Plug-In . SVG Version: 6.00 Build 0)  -->
<!DOCTYPE svg PUBLIC "-//W3C//DTD SVG 1.1//EN" "http://www.w3.org/Graphics/SVG/1.1/DTD/svg11.dtd">
<svg version="1.1" id="_x35_0m" xmlns="http://www.w3.org/2000/svg" xmlns:xlink="http://www.w3.org/1999/xlink" x="0px" y="0px"
	 width="144px" height="144px" viewBox="0 0 144 144" enable-background="new 0 0 144 144" xml:space="preserve">
<g>
	<g>
		<g>
			<g>
				<g>
					<path fill="#989898" d="M132.521,134.384H11.483c-4.203,0-7.922-2.068-9.971-5.525s-2.007-7.637,0.095-11.189L32.61,65.214
						l29.512-49.926c2.101-3.551,5.788-5.672,9.875-5.672c4.098,0,7.785,2.111,9.886,5.672l31.003,52.447l29.512,49.934
						c2.102,3.553,2.133,7.732,0.085,11.189C140.443,132.325,136.714,134.384,132.521,134.384z M28.261,113.772h87.474L71.997,39.79
						L28.261,113.772z"/>
				</g>
			</g>
		</g>
		<g>
			<g>
				<g>
					<path fill="#FFFFFF" d="M71.251,20.448c0.41-0.693,1.082-0.693,1.492,0l29.512,49.924c0.409,0.693,1.082,1.828,1.491,2.521
						l29.512,49.924c0.409,0.693,0.073,1.26-0.746,1.26H73.489c-0.82,0-2.164,0-2.984,0H11.483c-0.819,0-1.156-0.566-0.747-1.26
						l29.512-49.924c0.41-0.693,1.082-1.828,1.492-2.521L71.251,20.448z"/>
				</g>
			</g>
		</g>
		<g>
			<g>
				<g>
					<path fill="#FFFFFF" d="M132.521,133.544H11.483c-3.888,0-7.344-1.912-9.235-5.105c-1.891-3.193-1.859-7.061,0.084-10.359
						l31.003-52.445l29.512-49.936c1.943-3.287,5.357-5.252,9.141-5.252c3.782,0,7.195,1.965,9.14,5.252l31.024,52.457
						l29.511,49.924c1.943,3.289,1.975,7.166,0.084,10.359C139.855,131.644,136.409,133.544,132.521,133.544z M26.779,114.612
						h90.426L71.997,38.118L26.779,114.612z"/>
				</g>
			</g>
		</g>
	</g>
	<g>
		<g>
			<g>
				<path fill="#ED2224" d="M132.521,131.37H11.483c-3.078,0-5.811-1.504-7.291-4.014c-1.482-2.512-1.45-5.568,0.084-8.174
					l31.003-52.457L64.79,16.802c1.544-2.605,4.233-4.17,7.207-4.17s5.674,1.564,7.207,4.17l60.515,102.381
					c1.544,2.605,1.576,5.662,0.084,8.174C138.32,129.866,135.59,131.37,132.521,131.37z M22.902,116.798h98.189L71.997,33.747
					L46.71,76.538L22.902,116.798z"/>
			</g>
		</g>
	</g>
	<g>
		<g>
			<g>
				<g>
					<path fill="#010101" d="M63.413,109.78l-0.209-8.426c3.572-2.281,8.1-5.664,12.449-9.256l8.908,20.359l1.493-1.365
						L83.019,85.72c8.361-7.773,9.969-11.566,8.552-13.152c-1.472-1.523-5.484-0.273-14.079,7.219l-25.76-5.014l-1.471,1.336
						L70.39,86.478c-4.003,3.971-7.837,8.078-10.475,11.398l-8.541-0.893l-2.069,2.133l7.438,3.52
						c-0.326,0.662-0.432,1.219-0.18,1.48c0.264,0.254,0.778,0.211,1.545-0.063l2.91,7.533L63.413,109.78z"/>
				</g>
			</g>
		</g>
	</g>
</g>
</svg>
