<?xml version="1.0" encoding="utf-8"?>
<!-- Generator: Adobe Illustrator 16.0.0, SVG Export Plug-In . SVG Version: 6.00 Build 0)  -->
<!DOCTYPE svg PUBLIC "-//W3C//DTD SVG 1.1//EN" "http://www.w3.org/Graphics/SVG/1.1/DTD/svg11.dtd">
<svg version="1.1" id="_x35_0m" xmlns="http://www.w3.org/2000/svg" xmlns:xlink="http://www.w3.org/1999/xlink" x="0px" y="0px"
	 width="144px" height="144px" viewBox="0 0 144 144" enable-background="new 0 0 144 144" xml:space="preserve">
<g>
	<g>
		<g>
			<g>
				<g>
					<path fill="#989898" d="M132.517,134.533H11.495c-4.202,0-7.922-2.059-9.97-5.516c-2.049-3.457-2.018-7.646,0.084-11.188
						L32.61,65.377l29.51-49.922c2.101-3.551,5.799-5.674,9.875-5.674c4.087,0,7.784,2.123,9.885,5.674l31.002,52.453l29.51,49.922
						c2.1,3.551,2.133,7.73,0.083,11.188C140.447,132.475,136.718,134.533,132.517,134.533z M28.271,113.922h87.468L72.006,39.943
						L28.271,113.922z"/>
				</g>
			</g>
		</g>
		<g>
			<g>
				<g>
					<path fill="#FFFFFF" d="M71.26,20.592c0.409-0.693,1.082-0.693,1.491,0l29.51,49.922c0.41,0.693,1.082,1.828,1.492,2.521
						l29.509,49.922c0.411,0.693,0.074,1.26-0.745,1.26h-59.02c-0.819,0-2.153,0-2.983,0H11.495c-0.819,0-1.156-0.566-0.746-1.26
						l29.52-49.922c0.41-0.693,1.082-1.828,1.492-2.521L71.26,20.592z"/>
				</g>
			</g>
		</g>
		<g>
			<g>
				<g>
					<path fill="#FFFFFF" d="M132.517,133.703H11.495c-3.897,0-7.344-1.912-9.234-5.105s-1.859-7.07,0.084-10.357l31.001-52.443
						l29.51-49.932c1.943-3.289,5.357-5.252,9.14-5.252s7.196,1.963,9.14,5.252l31.001,52.453l29.51,49.922
						c1.943,3.287,1.975,7.164,0.084,10.357C139.859,131.791,136.413,133.703,132.517,133.703z M26.79,114.764h90.431l-45.215-76.49
						L26.79,114.764z"/>
				</g>
			</g>
		</g>
	</g>
	<g>
		<g>
			<g>
				<path fill="none" d="M66.165,90.201c1.396-0.01,2.521,1.166,2.51,2.574c0,1.418-1.134,2.51-2.584,2.51
					c-1.396,0.012-2.531-1.082-2.573-2.395C63.465,91.063,64.915,90.211,66.165,90.201z"/>
			</g>
		</g>
		<g>
			<g>
				<path fill="#010101" d="M27.095,102.912l2.196,1.975c7.952-0.01,15.905-0.021,23.847-0.021c10.905,0,21.799,0.012,32.693-0.01
					c3.435,0,6.334-2.783,6.502-6.135c0.074-1.555,0.189-3.109,0.273-4.664c0.252-4.633-0.021-9.234-1.155-13.762
					c-0.809-3.258-2.217-6.303-3.562-9.361c-0.368-0.83-0.819-1.617-1.303-2.395c-0.315-0.525-0.799-0.914-1.471-0.924
					c-2.511-0.021-5.021-0.021-7.532-0.021c-0.883,0-1.765,0-2.731,0c0.042-0.348,0.042-0.621,0.137-0.873
					c0.861-2.51,2.836-3.834,4.99-3.949c1.092-0.063,2.185-0.063,3.267-0.074c0.558-0.01,0.809-0.283,0.82-0.809
					c0.031-0.768-0.222-1.008-1.114-1.008c-6.471,0-12.942,0-19.414,0c-0.199,0-0.409-0.012-0.609,0
					c-0.588,0.041-0.84,0.336-0.83,0.945c0.011,0.578,0.252,0.861,0.83,0.871c0.725,0.021,1.461-0.053,2.186,0.021
					c0.914,0.084,1.87,0.156,2.721,0.451c1.923,0.672,3.361,2.648,3.351,4.434c-1.134,0-2.279,0.012-3.424,0
					c-1.712-0.021-3.404-0.094-5.054,0.568c-1.597,0.641-2.91,1.533-3.624,3.109c-1.177,2.584-2.5,5.084-4.139,7.428
					c-3.572,5.104-8.142,9.096-13.815,11.881c-4.317,2.111-8.729,3.928-13.572,4.527c-0.42,0.053-0.505,0.264-0.505,0.641
					C27.105,98.143,27.095,100.527,27.095,102.912z M74.454,64.379c-0.442,0.629-0.684,1.408-1.041,2.174
					c-0.715,0.117-0.703,0.074-0.955-0.631c-0.201-0.557-0.42-1.123-0.778-1.576c-0.473-0.607-1.092-1.111-1.628-1.637
					c1.996,0,4.065,0,6.062,0C75.557,63.223,74.905,63.748,74.454,64.379z M88.404,80.525c-0.221,0.021-0.44,0.084-0.673,0.084
					c-4.117,0-8.246,0.084-12.365,0.084c-3.519,0-7.027,0-10.546,0c-0.852,0-1.691-0.063-2.542-0.094
					c-1.094-0.031-1.43-0.557-1.051-1.523c0.997-2.564,1.996-5.148,2.993-7.701c0.337-0.84,0.747-1.123,1.649-1.123
					c6.262,0,12.522,0,18.794-0.021c0.693,0,1.167,0.24,1.472,0.83c0.146,0.271,0.304,0.557,0.42,0.85
					c0.935,2.396,1.869,4.781,2.805,7.176C89.696,79.988,89.392,80.451,88.404,80.525z M83.729,92.785
					c-0.011-1.387,1.123-2.521,2.553-2.543c1.449-0.02,2.594,1.063,2.616,2.471c0.021,1.438-1.104,2.572-2.575,2.572
					C84.906,95.297,83.729,94.172,83.729,92.785z M66.165,90.201c1.396-0.01,2.521,1.166,2.51,2.574c0,1.418-1.134,2.51-2.584,2.51
					c-1.396,0.012-2.531-1.082-2.573-2.395C63.465,91.063,64.915,90.211,66.165,90.201z M60.786,85.914
					c0-0.252,0.21-0.514,0.482-0.514h28.627c0.273,0,0.484,0.262,0.484,0.514c0,0.264-0.211,0.525-0.484,0.525H61.269
					C60.996,86.43,60.786,86.178,60.786,85.914z M52.298,85.945c0-0.23,0.168-0.514,0.336-0.691
					c1.197-1.355,2.427-2.689,3.635-4.035c0.357-0.389,0.651-0.83,1.051-1.355c0.021,0.221,0.021,0.316,0.021,0.398
					c0,3.51-0.064,7.02,0.021,10.527c0.021,0.914-0.325,1.324-1.03,1.723c-1.334,0.736-2.626,1.512-4.002,2.311
					c-0.031-0.209-0.053-0.283-0.053-0.355C52.276,91.629,52.267,88.783,52.298,85.945z M46.425,90.242
					c0-0.146,0.105-0.346,0.242-0.43c1.103-0.758,2.217-1.492,3.403-2.279c0,2.699,0,5.336-0.011,7.984
					c0,0.137-0.094,0.334-0.199,0.377c-1.113,0.463-2.228,0.893-3.341,1.344c-0.063-0.113-0.095-0.146-0.095-0.178
					C46.425,94.781,46.425,92.512,46.425,90.242z M40.279,93.279c0-0.158,0.2-0.369,0.368-0.441c0.861-0.432,1.754-0.82,2.637-1.23
					c0.305-0.137,0.673-0.262,0.935-0.408c0,2.289,0,4.496,0,6.744c-1.334,0.305-2.563,0.609-3.929,0.936
					C40.29,96.945,40.259,95.117,40.279,93.279z M35.941,94.676c0.798-0.336,1.816-0.662,2.741-0.986
					c0.053,0.084,0.063,0.104,0.063,0.135c0.011,1.693,0,3.395-0.011,5.086c0,0.115-0.105,0.314-0.221,0.357
					c-0.861,0.209-1.775,0.377-2.573,0.576C35.941,98.08,35.941,96.389,35.941,94.676z M31.929,95.654
					c0.798-0.18,1.564-0.357,2.373-0.547c0.021,0.199,0.043,0.336,0.053,0.473c0,1.418,0,2.824-0.021,4.244
					c0,0.115-0.18,0.314-0.295,0.346c-0.683,0.146-1.313,0.252-2.11,0.389C31.929,98.898,31.929,97.293,31.929,95.654z
					 M28.556,96.473c0-0.127,0.168-0.336,0.273-0.357c0.567-0.096,1.229-0.158,1.765-0.221c0,1.66,0,3.268,0,4.906
					c-0.536,0.094-1.313,0.189-2.038,0.283C28.566,99.467,28.545,97.965,28.556,96.473z"/>
			</g>
		</g>
		<g>
			<g>
				<path fill="#010101" d="M67.625,106.264c0.263,0,0.63,0,0.893,0c0,0.777,0,1.564,0,2.342c4.003,0,7.501,0,11.272,0
					c0-0.777,0.011-1.281,0-1.912c0-0.262,0.042-0.461,0.399-0.461c2.406,0.01,4.896,0,7.29,0c0,0.799,0,1.586,0,2.373
					c1.607,0,3.74,0,5.337,0c0,1.303,0,2.617,0,3.93c-0.263,0.01-0.505,0.031-0.714,0.031c-11.462,0-22.965,0.01-34.427-0.01
					c-0.367,0-0.788-0.158-1.113-0.348c-1.397-0.809-2.962-1.186-4.517-1.523c-3.52-0.768-7.092-1.176-10.685-1.428
					c-2.573-0.18-5.147-0.305-7.722-0.441l-2.836-2.543C43.084,106.223,55.354,106.264,67.625,106.264z"/>
			</g>
		</g>
	</g>
	<g>
		<g>
			<g>
				<path fill="#ED2224" d="M132.517,131.518H11.495c-3.078,0-5.811-1.502-7.291-4.012c-1.481-2.512-1.449-5.568,0.084-8.174
					L35.29,66.879l29.509-49.922c1.534-2.605,4.233-4.16,7.207-4.16s5.662,1.555,7.206,4.16l31.002,52.453l29.51,49.922
					c1.533,2.615,1.575,5.662,0.083,8.174C138.325,130.016,135.604,131.518,132.517,131.518z M22.914,116.947h98.183L72.006,33.902
					L46.719,76.691L22.914,116.947z"/>
			</g>
		</g>
	</g>
</g>
</svg>
