<?xml version="1.0" encoding="utf-8"?>
<!-- Generator: Adobe Illustrator 16.0.0, SVG Export Plug-In . SVG Version: 6.00 Build 0)  -->
<!DOCTYPE svg PUBLIC "-//W3C//DTD SVG 1.1//EN" "http://www.w3.org/Graphics/SVG/1.1/DTD/svg11.dtd">
<svg version="1.1" id="_x35_0m" xmlns="http://www.w3.org/2000/svg" xmlns:xlink="http://www.w3.org/1999/xlink" x="0px" y="0px"
	 width="144px" height="144px" viewBox="0 0 144 144" enable-background="new 0 0 144 144" xml:space="preserve">
<g>
	<g>
		<g>
			<g>
				<g>
					<path fill="#989898" d="M132.513,134.384H11.484c-4.202,0-7.932-2.059-9.97-5.514c-2.049-3.457-2.017-7.639,0.084-11.201
						l31.003-52.455L62.124,15.29c2.091-3.551,5.788-5.674,9.875-5.674s7.785,2.123,9.887,5.674l60.514,102.379
						c2.102,3.553,2.133,7.732,0.095,11.201C140.436,132.325,136.716,134.384,132.513,134.384z M28.263,113.772h87.473L71.999,39.79
						L28.263,113.772z"/>
				</g>
			</g>
		</g>
		<g>
			<g>
				<g>
					<path fill="#FFFFFF" d="M71.242,20.437c0.421-0.691,1.093-0.691,1.492,0l29.512,49.924c0.42,0.695,1.092,1.83,1.491,2.523
						l29.512,49.924c0.42,0.693,0.073,1.26-0.736,1.26H73.491c-0.819,0-2.164,0-2.983,0H11.484c-0.819,0-1.154-0.566-0.745-1.26
						l29.5-49.914c0.421-0.693,1.093-1.828,1.492-2.521L71.242,20.437z"/>
				</g>
			</g>
		</g>
		<g>
			<g>
				<g>
					<path fill="#FFFFFF" d="M132.513,133.544H11.484c-3.897,0-7.344-1.9-9.234-5.105c-1.891-3.193-1.859-7.07,0.084-10.359
						l31.004-52.455l29.521-49.926c1.933-3.287,5.357-5.252,9.14-5.252s7.197,1.965,9.141,5.264l60.515,102.369
						c1.942,3.289,1.975,7.166,0.094,10.359C139.856,131.644,136.4,133.544,132.513,133.544z M26.782,114.612h90.424L71.999,38.118
						L26.782,114.612z"/>
				</g>
			</g>
		</g>
	</g>
	<g>
		<g>
			<g>
				<path fill="#ED2224" d="M132.513,131.37H11.484c-3.089,0-5.809-1.504-7.29-4.014c-1.492-2.512-1.45-5.568,0.084-8.174
					L35.28,66.726l29.522-49.924c1.534-2.605,4.234-4.16,7.196-4.16c2.974,0,5.673,1.555,7.207,4.16l31.004,52.457l29.51,49.924
					c1.545,2.605,1.576,5.662,0.096,8.174C138.323,129.866,135.591,131.37,132.513,131.37z M22.905,116.798h98.178L95.795,74.007
					L71.999,33.749L46.712,76.528L22.905,116.798z"/>
			</g>
		</g>
	</g>
	<g>
		<g>
			<g>
				<path fill="#010101" d="M59.592,75.163c-0.368-0.242-0.872-0.326-1.303-0.326s-0.872-0.094-1.313-0.01
					c-0.336,0.063-0.662,0.137-0.998,0.072c-0.768-0.115-1.145-0.734-1.135-1.439c0.021-0.598-0.588-1.49,0.2-1.816
					c0.692-0.283,1.418,0.242,2.111,0.105c0.788-0.158,1.45-0.705,1.996-1.25c0.357-0.357,0.41-0.799,0.925-0.967
					c0.515-0.158,1.04-0.211,1.565-0.254c0.272-0.02,0.473-0.135,0.735-0.197c0.273-0.074,0.557-0.012,0.819-0.021
					c0.21-0.012,0.588-0.021,0.757-0.18c0.209-0.189,0.094-0.494,0.104-0.734c0.021-0.578-0.115-1.125-0.115-1.713
					c0-0.295-0.043-0.609,0.011-0.904c0.042-0.24,0.199-0.451,0.241-0.703c-0.042,0.451,0.146,1.113,0.525,1.396
					c0.483,0.357,1.155-0.094,1.586-0.398c0.284-0.199,0.494-0.348,0.515-0.693c0.021-0.273-0.021-0.568-0.094-0.83
					c-0.116-0.473-0.158-1.061,0.168-1.449c-0.063,0.072,0.063,0.398,0.104,0.473c0.074,0.146,0.221,0.252,0.378,0.314
					c0.337,0.137,0.61,0.01,0.757-0.293c0.105-0.201,0.179-0.443,0.231-0.652c0.115-0.42-0.021-0.84-0.231-1.219
					c0.021-0.021,0.157,0.021,0.2,0.031c0.073,0.031,0.157,0.105,0.21,0.158c0.063,0.063,0.126,0.158,0.179,0.24
					c0.042,0.064,0.104,0.117,0.137,0.18c0.031,0.063,0.063,0.158,0.104,0.242c0.042,0.094,0.032,0.168,0.063,0.262
					c0.021,0.115,0.073,0.252,0.052,0.379c-0.021,0.115-0.073,0.199-0.063,0.326c0.011,0.199,0.063,0.43,0.325,0.398
					c0.484-0.074,0.998-0.746,1.229-1.135c0.483-0.871,0.546-1.85,0.6-2.826c-0.021,0.357,0.241,0.652,0.251,0.998
					c0.012,0.084-0.042,0.295,0.074,0.283c0.115-0.01,0.272-0.271,0.336-0.355c0.126-0.137,0.295-0.223,0.398-0.369
					c0.105-0.137,0.189-0.305,0.231-0.463c0.021-0.072,0.043-0.168,0.054-0.25c0.01-0.105,0.063-0.223,0.052-0.326
					c0.085,0.523,0.105,1.07-0.157,1.543c-0.431,0.82-0.914,1.619-1.293,2.469c-0.241,0.559-0.566,1.072-1.029,1.471
					c-0.146,0.117-0.515,0.338-0.493,0.559c0.021,0.221,0.42,0.199,0.557,0.178c0.336-0.053,0.599-0.23,0.829-0.473
					c0.074,0.158-0.072,0.262-0.178,0.357c-0.063,0.063-0.105,0.125-0.168,0.178c-0.063,0.064-0.158,0.096-0.242,0.158
					c-0.157,0.137-0.336,0.221-0.525,0.295c-0.231,0.104-0.43,0.262-0.683,0.346c-0.347,0.115-0.693,0.252-1.051,0.336
					c-0.483,0.127-0.956,0.389-1.354,0.674c-0.432,0.314-0.81,0.662-1.082,1.113c-0.147,0.24-0.315,0.557-0.326,0.84
					c0,0.482,0.483,0.557,0.872,0.504c0.221-0.031,0.914-0.293,1.093-0.041c0.136,0.221-0.273,0.641-0.389,0.787
					c-0.652,0.83-1.587,1.691-1.649,2.805c-0.054,1.113,0.651,2.248,1.05,3.258c0.432,1.123,0.82,2.258,1.492,3.277
					c0.799,1.197,1.817,2.301,2.91,3.258c0.998,0.881,2.101,1.512,3.404,1.848c1.123,0.295,2.259,0.588,3.403,0.83
					c1.334,0.283,2.637,0.232,3.981,0.105c1.492-0.137,2.932-0.125,4.371,0.305c2.416,0.725,4.602,2.26,6.713,3.582
					c0.768,0.482,1.02,0.957,0.967,1.85c-0.073,1.322-0.042,2.574,0.715,3.74c0.766,1.176,1.984,1.754,3.015,2.646
					c0.988,0.863,1.293,2.248,1.808,3.395c0.84,1.881,1.964,3.645,3.225,5.283c0.735,0.945,1.576,2.154,2.731,2.648
					c0.337,0.137,0.683,0.199,1.04,0.252c0.325,0.914,0.253,1.996,0.168,2.953c-0.105,1.123-1.019,0.514-1.513,0
					c-0.566-0.611-1.04-1.273-1.681-1.818c-1.188-1.02-2.448-1.965-3.635-2.984c-1.167-0.996-2.175-2.133-3.078-3.371
					c-0.379-0.537-0.778-1.094-1.104-1.672c-0.368-0.629-0.483-1.344-1.355-1.406c-1.218-0.084-2.437,0.242-3.646,0.02
					c-1.765-0.314-3.52-1.313-4.927-2.342c-1.04-0.756-1.754-1.732-2.521-2.721c-0.368-0.463-0.736-0.936-1.03-1.451
					c-0.221-0.377-0.357-0.85-0.641-1.188c-0.536-0.65-1.523-0.082-2.069,0.254c-1.534,0.945-3.163,1.68-5.002,1.816
					c-1.67,0.117-3.519-0.031-5.094-0.609c-0.6-0.221-1.787-1.166-2.249-0.367c-0.199,0.336-0.273,0.746-0.62,0.977
					c-0.199,0.137-0.293,0.117-0.515,0.053c-0.231-0.063-0.483,0.01-0.735-0.041c-0.23-0.053-0.431-0.096-0.683-0.105
					c-0.263,0-0.525-0.084-0.788-0.127c-0.273-0.041-0.557-0.105-0.819-0.168c-0.704-0.178-1.345-0.535-2.049-0.725
					c-0.62-0.168-1.188-0.451-1.838-0.557c-0.253-0.043-0.81-0.127-0.778,0.273c0.021,0.441,0.463,0.902,0.704,1.24
					c0.631,0.871,1.177,1.807,1.828,2.668c0.252,0.326,0.357,0.809,0.693,1.072c0.252,0.209,0.725,0.43,1.051,0.461
					c0.777,0.084,1.534-0.041,2.069,0.652c0.179,0.23,0.231,0.504,0.348,0.766c0.031,0.084,0.557,0.988,0.557,0.988
					c-0.736,0-1.398-0.084-2.081-0.357c-0.63-0.252-1.188-0.482-1.87-0.557c-0.756-0.074-1.46-0.158-2.079-0.641
					c-0.704-0.557-1.146-1.377-1.619-2.121c-0.882-1.441-1.891-2.922-3.057-4.162c-0.504-0.535-1.093-0.998-1.45-1.66
					c-0.336-0.631-0.535-1.586-0.021-2.195c0.557-0.65,1.533-0.326,2.206-0.105c0.935,0.305,1.849,0.557,2.826,0.684
					c1.093,0.137,2.186,0.336,3.278,0.451c0.745,0.084,1.607,0.105,1.859-0.734c0.252-0.799,0.052-1.754-0.021-2.564
					c-0.064-0.809-0.096-1.627-0.242-2.436c-0.179-0.988-0.578-1.924-0.914-2.869c-0.525-1.482-0.914-3.004-1.261-4.529
					c-0.157-0.734-0.295-1.48-0.525-2.195C60.086,75.804,59.938,75.384,59.592,75.163z"/>
			</g>
		</g>
	</g>
</g>
</svg>
