<?xml version="1.0" encoding="utf-8"?>
<!-- Generator: Adobe Illustrator 16.0.0, SVG Export Plug-In . SVG Version: 6.00 Build 0)  -->
<!DOCTYPE svg PUBLIC "-//W3C//DTD SVG 1.1//EN" "http://www.w3.org/Graphics/SVG/1.1/DTD/svg11.dtd">
<svg version="1.1" id="_x35_0m" xmlns="http://www.w3.org/2000/svg" xmlns:xlink="http://www.w3.org/1999/xlink" x="0px" y="0px"
	 width="144px" height="144px" viewBox="0 0 144 144" enable-background="new 0 0 144 144" xml:space="preserve">
<g>
	<g>
		<g>
			<g>
				<g>
					<path fill="#989898" d="M132.517,134.539H11.484c-4.202,0-7.921-2.07-9.97-5.527c-2.049-3.455-2.017-7.637,0.084-11.188
						L32.61,65.371l29.51-49.922c2.102-3.551,5.788-5.673,9.875-5.673c4.097,0,7.784,2.122,9.886,5.673l31.001,52.443l29.52,49.932
						c2.102,3.551,2.133,7.732,0.084,11.188C140.448,132.479,136.719,134.539,132.517,134.539z M28.272,113.938h87.467
						l-43.733-73.99L28.272,113.938z"/>
				</g>
			</g>
		</g>
		<g>
			<g>
				<g>
					<path fill="#FFFFFF" d="M71.259,20.607c0.41-0.693,1.082-0.693,1.493,0l29.52,49.922c0.409,0.693,1.081,1.828,1.491,2.521
						l29.521,49.922c0.409,0.691,0.073,1.26-0.745,1.26H73.497c-0.819,0-2.164,0-2.982,0h-59.03c-0.819,0-1.155-0.568-0.745-1.26
						l29.519-49.922c0.411-0.693,1.083-1.828,1.493-2.521L71.259,20.607z"/>
				</g>
			</g>
		</g>
		<g>
			<g>
				<g>
					<path fill="#FFFFFF" d="M132.517,133.707H11.484c-3.888,0-7.344-1.91-9.234-5.105c-1.891-3.193-1.859-7.059,0.085-10.357
						l31.012-52.443l29.508-49.932c1.944-3.288,5.359-5.253,9.141-5.253s7.196,1.965,9.14,5.253l60.521,102.375
						c1.942,3.289,1.976,7.164,0.084,10.357C139.859,131.797,136.403,133.707,132.517,133.707z M26.78,114.768h90.43l-45.204-76.49
						L26.78,114.768z"/>
				</g>
			</g>
		</g>
	</g>
	<g>
		<g>
			<g>
				<g>
					<g>
						<path fill="#010101" d="M91.356,90.93c1.986-1.164,2.626-3.529,1.438-5.473l-5.389-8.613h12.606
							c1.429,0,2.585-1.135,2.585-2.521c0-1.398-1.156-2.521-2.585-2.521c0,0-18.111-0.158-18.132-0.158
							c-0.726,0-1.46,0.105-2.122,0.494c-1.986,1.166-2.637,3.656-1.439,5.6l6.745,10.967l-9.34,5.557
							c-0.777,0.453-1.24,1.262-1.24,2.145v13.877c0,1.398,1.156,2.531,2.585,2.531c1.428,0,2.584-1.133,2.584-2.531V97.822
							l11.063-6.598C90.937,91.141,91.157,91.045,91.356,90.93z"/>
					</g>
				</g>
			</g>
			<g>
				<g>
					<g>
						<path fill="#010101" d="M76.113,72.746c2.595,0,4.686-2.049,4.686-4.58c0-2.521-2.091-4.57-4.686-4.57
							c-2.585,0-4.685,2.049-4.685,4.57C71.429,70.697,73.528,72.746,76.113,72.746z"/>
					</g>
				</g>
			</g>
			<g>
				<g>
					<g>
						<path fill="#010101" d="M76.48,88.389l2.805-5.4l-3.141-5.125l-3.088,5.934l-4.938-2.563
							c-1.262-0.662-2.826-0.189-3.488,1.041c-0.672,1.229-0.2,2.75,1.062,3.412l7.27,3.783c0.378,0.199,0.798,0.295,1.218,0.295
							c0.263,0,0.525-0.043,0.778-0.117C75.619,89.449,76.166,88.998,76.48,88.389z"/>
					</g>
				</g>
			</g>
			<g>
				<g>
					<g>
						<path fill="#010101" d="M113.89,89.807c-0.703-1.219-2.279-1.639-3.519-0.967l-14.066,7.754l-2.815-4.887l-4.401,2.658
							l3.98,6.902c0.337,0.588,0.894,1.008,1.556,1.197c0.23,0.063,0.462,0.096,0.692,0.096c0.442,0,0.872-0.105,1.272-0.326
							l16.314-8.992C114.163,92.549,114.594,91.014,113.89,89.807z"/>
					</g>
				</g>
			</g>
		</g>
		<g>
			<g>
				<g>
					<path fill="#010101" d="M53.769,82.621c2.132,0,3.877-1.691,3.877-3.781c0-2.082-1.733-3.783-3.877-3.783
						s-3.876,1.701-3.876,3.783C49.893,80.93,51.636,82.621,53.769,82.621z"/>
				</g>
			</g>
		</g>
		<g>
			<g>
				<g>
					<path fill="#010101" d="M64.242,95.984c0.253-0.137,0.451-0.336,0.619-0.537c0.295-0.367,0.463-0.809,0.483-1.281
						c0.116-0.609,0.031-1.26-0.293-1.848l-4.171-7.545l8.131-10.936c0.735-0.986,0.515-2.373-0.504-3.088
						c-1.009-0.715-2.427-0.494-3.163,0.494l-9.695,13.037c-0.316,0.42-0.442,0.912-0.422,1.406
						c-0.021,0.494,0.074,0.988,0.337,1.451l3.655,6.629l-4.19,2.438c-0.348,0.199-0.642,0.492-0.83,0.85l-6.944,12.459
						c-0.599,1.072-0.189,2.416,0.904,2.994c0.336,0.18,0.714,0.264,1.082,0.264c0.798,0,1.574-0.41,1.984-1.156l6.65-11.924
						l6.135-3.561L64.242,95.984z"/>
				</g>
			</g>
		</g>
		<g>
			<g>
				<g>
					<path fill="#010101" d="M70.293,102.561l-3.918-5.527l-3.981,2.145l4.853,6.85c0.421,0.588,1.114,0.965,1.86,0.965h4.401
						v-4.432H70.293z"/>
				</g>
			</g>
		</g>
		<g>
			<g>
				<g>
					<path fill="#010101" d="M49.733,94.617c0.399,0,0.799-0.104,1.178-0.324l4.717-2.805l-2.111-3.92l-3.088,1.84l-2.691-4.035
						c-0.682-1.029-2.079-1.324-3.119-0.65c-1.051,0.662-1.345,2.037-0.662,3.057l3.877,5.83
						C48.273,94.26,48.989,94.617,49.733,94.617z"/>
				</g>
			</g>
		</g>
	</g>
	<g>
		<g>
			<g>
				<path fill="#ED2224" d="M132.517,131.523H11.484c-3.078,0-5.81-1.502-7.29-4.014c-1.492-2.51-1.45-5.568,0.083-8.172
					l31.012-52.455l29.51-49.921c1.533-2.605,4.234-4.171,7.207-4.171s5.662,1.565,7.206,4.171l31.002,52.442l29.52,49.934
					c1.534,2.604,1.576,5.662,0.084,8.172C138.325,130.021,135.605,131.523,132.517,131.523z M22.915,116.953h98.182L72.006,33.907
					L22.915,116.953z"/>
			</g>
		</g>
	</g>
</g>
</svg>
