<?xml version="1.0" encoding="utf-8"?>
<!-- Generator: Adobe Illustrator 16.0.0, SVG Export Plug-In . SVG Version: 6.00 Build 0)  -->
<!DOCTYPE svg PUBLIC "-//W3C//DTD SVG 1.1//EN" "http://www.w3.org/Graphics/SVG/1.1/DTD/svg11.dtd">
<svg version="1.1" id="_x35_0m" xmlns="http://www.w3.org/2000/svg" xmlns:xlink="http://www.w3.org/1999/xlink" x="0px" y="0px"
	 width="144px" height="144px" viewBox="0 0 144 144" enable-background="new 0 0 144 144" xml:space="preserve">
<g>
	<g>
		<g>
			<g>
				<g>
					<path fill="#989898" d="M132.52,134.38H11.48c-4.203,0-7.921-2.061-9.97-5.516c-2.049-3.457-2.018-7.648,0.084-11.201
						l31.014-52.445l29.511-49.924c2.101-3.551,5.8-5.674,9.886-5.674c4.087,0,7.775,2.123,9.877,5.674l60.523,102.381
						c2.102,3.551,2.133,7.732,0.085,11.199C140.452,132.31,136.712,134.38,132.52,134.38z M28.269,113.767h87.474L72.005,39.784
						L28.269,113.767z"/>
				</g>
			</g>
		</g>
		<g>
			<g>
				<g>
					<path fill="#FFFFFF" d="M71.26,20.431c0.409-0.693,1.081-0.693,1.491,0l29.521,49.924c0.41,0.695,1.083,1.83,1.492,2.523
						l29.521,49.924c0.41,0.693,0.074,1.26-0.744,1.26H73.487c-0.82,0-2.154,0-2.984,0H11.48c-0.819,0-1.155-0.566-0.746-1.26
						l29.522-49.924c0.409-0.693,1.082-1.828,1.491-2.523L71.26,20.431z"/>
				</g>
			</g>
		</g>
		<g>
			<g>
				<g>
					<path fill="#FFFFFF" d="M132.52,133.538H11.48c-3.897,0-7.343-1.9-9.234-5.105c-1.892-3.193-1.849-7.07,0.083-10.359
						l31.015-52.455l29.511-49.926c1.943-3.287,5.358-5.252,9.141-5.252c3.771,0,7.186,1.965,9.141,5.252l60.524,102.381
						c1.942,3.289,1.976,7.166,0.084,10.359C139.862,131.638,136.407,133.538,132.52,133.538z M26.776,114.606h90.437L72.005,38.112
						L48.651,77.626L26.776,114.606z"/>
				</g>
			</g>
		</g>
	</g>
	<g>
		<g>
			<g>
				<path fill="#ED2224" d="M132.52,131.364H11.48c-3.077,0-5.81-1.502-7.291-4.014c-1.491-2.51-1.449-5.568,0.084-8.172
					l31.014-52.457l29.511-49.926c1.535-2.605,4.234-4.16,7.207-4.16c2.963,0,5.664,1.555,7.197,4.16l31.004,52.457l29.521,49.926
					c1.534,2.604,1.577,5.662,0.085,8.172C138.329,129.862,135.598,131.364,132.52,131.364z M22.9,116.792h98.188L72.005,33.741
					L46.707,76.524L22.9,116.792z"/>
			</g>
		</g>
	</g>
	<polygon fill="#010101" points="94.71,82.292 84.182,82.292 84.182,72.079 72.194,61.468 60.123,72.079 60.123,82.292 
		49.302,82.292 49.302,94.929 60.123,94.929 60.123,110.993 72.194,100.382 84.182,110.993 84.182,94.929 94.71,94.929 	"/>
</g>
</svg>
