<?xml version="1.0" encoding="utf-8"?>
<!-- Generator: Adobe Illustrator 16.0.0, SVG Export Plug-In . SVG Version: 6.00 Build 0)  -->
<!DOCTYPE svg PUBLIC "-//W3C//DTD SVG 1.1//EN" "http://www.w3.org/Graphics/SVG/1.1/DTD/svg11.dtd">
<svg version="1.1" id="_x35_0m" xmlns="http://www.w3.org/2000/svg" xmlns:xlink="http://www.w3.org/1999/xlink" x="0px" y="0px"
	 width="144px" height="144px" viewBox="0 0 144 144" enable-background="new 0 0 144 144" xml:space="preserve">
<g>
	<g>
		<g>
			<g>
				<g>
					<path fill="#989898" d="M132.522,134.389H11.484c-4.201,0-7.921-2.069-9.97-5.525s-2.007-7.638,0.084-11.198l31.013-52.446
						l29.512-49.933c2.09-3.553,5.788-5.675,9.875-5.675s7.785,2.122,9.887,5.675l31.001,52.444l29.512,49.924
						c2.102,3.551,2.133,7.731,0.085,11.199C140.454,132.319,136.725,134.389,132.522,134.389z M28.273,113.777h87.471L72.01,39.795
						L28.273,113.777z"/>
				</g>
			</g>
		</g>
		<g>
			<g>
				<g>
					<path fill="#FFFFFF" d="M71.263,20.442c0.41-0.692,1.082-0.692,1.491,0l29.512,49.925c0.409,0.693,1.082,1.827,1.491,2.521
						l29.512,49.923c0.409,0.693,0.073,1.262-0.746,1.262H73.5c-0.818,0-2.163,0-2.982,0H11.484c-0.819,0-1.155-0.568-0.745-1.262
						L40.25,72.889c0.409-0.694,1.082-1.828,1.491-2.521L71.263,20.442z"/>
				</g>
			</g>
		</g>
		<g>
			<g>
				<g>
					<path fill="#FFFFFF" d="M132.522,133.56H11.484c-3.887,0-7.343-1.912-9.234-5.105c-1.891-3.194-1.859-7.069,0.085-10.359
						L33.348,65.64l29.511-49.924c1.943-3.289,5.358-5.254,9.14-5.254c3.783,0,7.196,1.965,9.141,5.254l31.003,52.456l29.511,49.923
						c1.943,3.29,1.974,7.165,0.083,10.359C139.865,131.647,136.409,133.56,132.522,133.56z M26.792,114.618h90.423L72.01,38.125
						L26.792,114.618z"/>
				</g>
			</g>
		</g>
	</g>
	<g>
		<g>
			<g>
				<path fill="#ED2224" d="M132.522,131.363H11.484c-3.078,0-5.809-1.502-7.29-4.013c-1.481-2.512-1.45-5.568,0.083-8.173
					L35.28,66.722l29.511-49.925c1.533-2.604,4.233-4.16,7.207-4.16s5.663,1.556,7.207,4.171l31.003,52.445l29.511,49.925
					c1.534,2.604,1.576,5.661,0.084,8.173C138.332,129.872,135.6,131.363,132.522,131.363z M22.916,116.803h98.176L72.01,33.753
					L22.916,116.803z"/>
			</g>
		</g>
	</g>
	<g>
		<g>
			<g>
				<g>
					<path fill="#010101" d="M91.623,76.103c-1.922,1.482-3.823,2.943-5.769,4.444c-1.648-2.405-3.719-4.317-6.303-5.663
						c-2.563-1.344-5.316-2.06-8.3-2.312c0.042,0.222,0.042,0.389,0.105,0.526c0.925,2.069,1.859,4.14,2.784,6.199
						c0.042,0.093,0.053,0.293,0.011,0.314c-0.211,0.115-0.463,0.293-0.662,0.252c-1.04-0.201-2.07-0.462-3.089-0.714
						c-5.746-1.367-11.493-2.731-17.239-4.109c-0.157-0.04-0.306-0.083-0.516-0.135c0.085-0.117,0.126-0.2,0.199-0.274
						c5.085-4.842,10.17-9.696,15.245-14.55c0.229-0.231,0.515-0.357,0.767-0.18c0.189,0.127,0.356,0.399,0.378,0.63
						c0.157,1.62,0.272,3.248,0.399,4.918c0.252,0,0.452,0,0.662,0c3.655-0.042,7.196,0.462,10.568,1.911
						c2.91,1.25,5.379,3.11,7.586,5.317c0.977,0.966,1.9,1.995,2.847,3.004C91.402,75.81,91.496,75.935,91.623,76.103z"/>
				</g>
			</g>
		</g>
		<g>
			<g>
				<g>
					<path fill="#010101" d="M94.67,80.222c0.378,1.396,0.735,2.731,1.093,4.055c1.449,5.379,2.878,10.757,4.329,16.138
						c0.01,0.042,0.031,0.093,0.02,0.137c-0.051,0.283-0.02,0.651-0.199,0.81c-0.147,0.135-0.567,0.093-0.799-0.011
						c-1.145-0.494-2.27-1.041-3.394-1.567c-0.347-0.157-0.692-0.314-1.061-0.494c-0.357,0.579-0.693,1.126-1.03,1.673
						c-3.519,5.565-8.614,8.971-15.064,10.536c-1.419,0.336-2.836,0.65-4.339,0.987c-0.357-2.343-0.694-4.612-1.04-6.924
						c6.135-0.607,10.779-3.509,14.225-8.478c-1.502-0.169-2.91-0.326-4.339-0.472c-0.936-0.095-1.892-0.17-2.815-0.315
						c-0.241-0.042-0.536-0.264-0.63-0.474c-0.063-0.137,0.126-0.452,0.283-0.619c4.602-4.707,9.204-9.393,13.805-14.09
						C93.987,80.841,94.302,80.579,94.67,80.222z"/>
				</g>
			</g>
		</g>
		<g>
			<g>
				<g>
					<path fill="#010101" d="M68.405,112.653c-0.945-0.264-1.786-0.484-2.637-0.714c-6-1.662-12.009-3.311-18.007-4.959
						c-0.305-0.085-0.6-0.18-0.652-0.536c-0.052-0.368,0.138-0.62,0.442-0.819c1.323-0.861,2.647-1.723,4.002-2.616
						c-0.084-0.158-0.168-0.305-0.262-0.44c-1.64-2.711-2.869-5.569-3.384-8.699c-0.441-2.679-0.399-5.358,0.189-7.995
						c0.482-2.175,1.146-4.307,1.733-6.451c0.031-0.115,0.095-0.231,0.168-0.409c2.259,0.871,4.508,1.732,6.797,2.614
						c-2.688,5.56-2.342,11.022,0.358,16.517c0.157-0.2,0.263-0.315,0.357-0.452c1.196-1.69,2.384-3.383,3.582-5.074
						c0.073-0.104,0.126-0.241,0.221-0.304c0.188-0.117,0.419-0.295,0.598-0.265c0.18,0.032,0.379,0.274,0.442,0.474
						c0.493,1.576,0.966,3.151,1.439,4.728c1.471,4.906,2.941,9.802,4.412,14.698C68.27,112.147,68.32,112.358,68.405,112.653z"/>
				</g>
			</g>
		</g>
	</g>
</g>
</svg>
