<?xml version="1.0" encoding="utf-8"?>
<!-- Generator: Adobe Illustrator 16.0.0, SVG Export Plug-In . SVG Version: 6.00 Build 0)  -->
<!DOCTYPE svg PUBLIC "-//W3C//DTD SVG 1.1//EN" "http://www.w3.org/Graphics/SVG/1.1/DTD/svg11.dtd">
<svg version="1.1" id="_x35_0m" xmlns="http://www.w3.org/2000/svg" xmlns:xlink="http://www.w3.org/1999/xlink" x="0px" y="0px"
	 width="144px" height="144px" viewBox="0 0 144 144" enable-background="new 0 0 144 144" xml:space="preserve">
<g>
	<g>
		<g>
			<g>
				<g>
					<path fill="#989898" d="M132.525,134.384H11.475c-4.202,0-7.921-2.059-9.97-5.516c-2.038-3.455-2.006-7.637,0.095-11.199
						l31.003-52.455l29.511-49.926c2.102-3.551,5.8-5.672,9.887-5.672c4.086,0,7.784,2.121,9.886,5.672l31.004,52.457l29.51,49.924
						c2.102,3.551,2.133,7.732,0.095,11.199C140.446,132.325,136.717,134.384,132.525,134.384z M28.264,113.772h87.473L72,39.788
						L28.264,113.772z"/>
				</g>
			</g>
		</g>
		<g>
			<g>
				<g>
					<path fill="#FFFFFF" d="M71.254,20.437c0.42-0.693,1.082-0.693,1.492,0l29.511,49.924c0.409,0.693,1.082,1.828,1.491,2.521
						l29.512,49.924c0.42,0.695,0.074,1.262-0.734,1.262H73.491c-0.819,0-2.164,0-2.993,0H11.475c-0.819,0-1.155-0.566-0.734-1.262
						l29.511-49.912c0.421-0.693,1.082-1.828,1.492-2.521L71.254,20.437z"/>
				</g>
			</g>
		</g>
		<g>
			<g>
				<g>
					<path fill="#FFFFFF" d="M132.525,133.544H11.475c-3.887,0-7.333-1.902-9.234-5.107c-1.891-3.191-1.849-7.068,0.095-10.357
						l31.003-52.457l29.511-49.924c1.944-3.287,5.359-5.252,9.141-5.252c3.782,0,7.197,1.965,9.14,5.264l60.515,102.369
						c1.943,3.289,1.976,7.166,0.096,10.357C139.857,131.642,136.401,133.544,132.525,133.544z M26.782,114.612h90.425L72,38.118
						L26.782,114.612z"/>
				</g>
			</g>
		</g>
	</g>
	<g>
		<g>
			<g>
				<path fill="#ED2224" d="M132.525,131.368H11.475c-3.078,0-5.81-1.502-7.29-4.014c-1.481-2.51-1.45-5.566,0.094-8.172
					l31.004-52.457l29.511-49.924c1.545-2.605,4.234-4.16,7.207-4.16c2.962,0,5.662,1.555,7.207,4.16l31.003,52.457l29.511,49.924
					c1.534,2.605,1.576,5.662,0.095,8.172C138.324,129.866,135.593,131.368,132.525,131.368z M22.905,116.796h98.179L72,33.747
					L22.905,116.796z"/>
			</g>
		</g>
	</g>
	<g>
		<g>
			<g>
				<path fill="#1D1C1C" d="M44.789,87.044c-0.104-0.199-0.199-0.398-0.22-0.557c-0.105-0.83,0.515-1.039,0.997-1.324
					c0.515-0.314,2.102-1.66,2.428-1.996c0.704-0.725,1.229-1.828,2.027-2.426c0.483-0.357,0.777-0.369,0.861-1.082
					c0.063-0.631,0.252-1.094,0.494-1.66c-0.105,0.357,0.188,1.166,0.462,1.396c0.463,0.389,1.135-0.156,1.617-0.178
					c0.264-0.012,0.674-0.063,0.915,0.021c0.221,0.063,0.409,0.324,0.651,0.273c0.378-0.074,0.998-0.988,0.945-1.408
					c0.283,0.525,0.505,1.051,0.399,1.658c-0.095,0.559-0.031,1.135-0.031,1.691c0,0.484,2.332,0.201,2.899,0.158
					c1.334-0.104,2.721-0.01,4.056,0.021c1.271,0.021,2.752,0.189,3.897,0.83c1.376,0.766,2.815,1.145,4.36,1.26
					c1.933,0.148,3.929,0.211,5.871,0.18c2.112-0.043,4.298-0.273,6.389-0.65c1.48-0.275,2.879-0.631,4.381-0.758
					c0.651-0.053,1.313-0.115,1.976-0.156c0.515-0.021,0.966-0.117,1.471-0.033c1.166,0.189,2.375,0.295,3.446,0.873
					c1.585,0.85,2.11,2.279,2.363,4.086c0.2,1.482,0.2,2.994,0.263,4.486c0.021,0.662,0.042,1.344,0.347,1.934
					c0.305,0.598,0.809,1.049,1.071,1.68c0.315,0.736,0.242,1.502,0.158,2.291c-0.085,0.777-0.105,1.555-0.105,2.332
					c-0.336-0.314-0.599-0.682-0.956-0.967c-0.325-0.262-0.746-0.629-0.925-1.029c-0.231-0.494-0.325-0.893-0.336-1.459
					c0-0.578,0.021-1.156,0.011-1.734c0-0.295,0.021-0.566-0.043-0.852c-0.063-0.283-0.146-0.566-0.209-0.861
					c-0.126-0.547-0.273-1.051-0.379-1.586c-0.063-0.326-0.063-0.662-0.126-0.988c-0.052-0.271-0.021-0.557-0.021-0.828
					c-0.011-0.695-0.011-1.377,0-2.061c0.146,1.691,0.314,3.395,0.241,5.084c-0.042,1.252-0.378,2.48-0.389,3.73
					c-0.01,1.197,0.516,2.207,0.904,3.299c0.42,1.25,0.325,2.375-0.032,3.635c-0.379,1.303-0.557,2.48-0.431,3.846
					c0.063,0.715,0.157,1.502-0.147,2.174c-0.157,0.326-0.347,0.326-0.692,0.316c-0.421-0.012-0.853-0.012-1.272-0.012
					c-0.493,0-1.239,0.137-1.713-0.02c0.054-0.137,0.263-0.232,0.379-0.336c0.169-0.158,0.231-0.316,0.347-0.506
					c0.516-0.818,0.851-1.639,0.894-2.627c0.052-0.986-0.179-1.975-0.463-2.92c-0.462-1.502-0.997-2.994-1.45-4.506
					c-0.672,0.535-1.028,1.113-1.082,2.037c-0.052,0.883-0.095,1.576-0.451,2.385c-0.378,0.852-0.494,1.555-0.378,2.5
					c0.105,0.768-0.2,1.535-0.188,2.313c0,0.305-0.043,0.525-0.368,0.629c-0.284,0.096-0.6,0.033-0.894,0.105
					c-0.305,0.084-0.557,0.18-0.871,0.201c-0.295,0.02-1.64,0.115-1.293-0.379c0.157-0.232,0.441-0.336,0.62-0.557
					c0.157-0.189,0.241-0.432,0.378-0.631c0.305-0.441,0.777-0.734,0.914-1.281c0.2-0.777-0.189-1.713-0.158-2.512
					c0.021-0.609,0.41-2.469-0.42-2.689c-0.986-0.262-0.735,1.566-0.829,1.756c-0.095,0.199-0.273,0.199-0.399,0.094
					c-0.116-0.094-0.043-0.6-0.043-0.883c0.012-0.379-0.083-0.662-0.294-0.977c-0.242,0.146-0.325,1.219-0.557,1.029
					c-0.179-0.146-0.157-0.578-0.242-0.768c-0.115-0.273-0.115,0.379-0.136,0.516c-0.031,0.252-0.073,0.955-0.315,1.082
					c-0.272,0.137-0.337-0.41-0.368-0.588c-0.063-0.441-0.063-0.895-0.198-1.324c-0.096-0.295-0.673-0.473-0.768-0.768
					c-0.157-0.473,0.325-1.828-0.368-1.648c-0.409,0.105-0.809,0.504-1.177,0.713c-0.42,0.252-0.861,0.443-1.324,0.537
					c-0.786,0.168-1.522,0.398-2.29,0.641c-0.809,0.262-1.639,0.293-2.468,0.293c-0.946,0-1.682-0.199-2.532-0.607
					c-0.757-0.369-1.639-0.443-2.343-0.936c-0.463-0.336-1.146-1.115-1.671-0.389c-0.546,0.768,0.315,1.48,0.516,2.174
					c0.21,0.758-0.516,1.576-0.726,2.26c-0.284,0.977-0.367,3.225-0.41,4.244c-0.031,0.809,0.242,1.617,0.158,2.426
					c-0.084,0.885-0.872,0.758-1.503,0.799c-0.273,0.021-1.029,0.211-1.25-0.01c-0.241-0.242,0.116-0.672,0.253-0.883
					c0.241-0.346,0.557-0.672,0.724-1.082c0.147-0.367,0.116-0.789,0.074-1.188c-0.084-0.967-0.473-2.973-0.578-3.918
					c-0.094-0.904,0.115-2.008-0.956-2.164c-0.021,0.389-0.188,0.744-0.305,1.113c-0.136,0.463-0.095,0.756,0,1.207
					c0.074,0.4-0.073,0.873-0.178,1.273c-0.126,0.451-0.242,2.059-0.305,2.531c-0.053,0.43-0.2,0.977-0.169,1.406
					c0.021,0.137,0.2,0.432,0.137,0.557c-0.063,0.127-0.378,0.158-0.493,0.18c-0.41,0.084-0.819,0.189-1.229,0.209
					c-0.473,0.021-0.893,0.201-1.376,0.117c0.566-0.83,1.04-1.619,1.261-2.627c0.272-1.229,0.283-3.561,0.199-4.813
					c-0.042-0.682-0.042-1.365-0.063-2.059c-0.021-0.609-0.043-1.408-0.452-1.891c-0.368-0.43-0.945-0.398-1.439-0.398
					c-0.599,0-1.177-0.055-1.691-0.379c-1.04-0.652-1.649-1.977-2.196-3.09c-0.482-0.977-1.019-1.922-1.449-2.92
					c-0.389-0.914-0.799-1.785-1.817-2.186c-0.914-0.357-1.996-0.252-2.952-0.305c-1.114-0.063-3.846-0.283-3.866-0.305
					c-0.116-0.115-0.662,0.326-0.819,0.295c-0.284-0.063-0.379-0.23-0.6-0.379c-0.367-0.252-0.693-0.398-0.977-0.787
					c-0.137-0.189-0.252-0.441-0.368-0.641C44.947,87.327,44.873,87.181,44.789,87.044z"/>
			</g>
		</g>
	</g>
</g>
</svg>
