<?xml version="1.0" encoding="utf-8"?>
<!-- Generator: Adobe Illustrator 16.0.0, SVG Export Plug-In . SVG Version: 6.00 Build 0)  -->
<!DOCTYPE svg PUBLIC "-//W3C//DTD SVG 1.1//EN" "http://www.w3.org/Graphics/SVG/1.1/DTD/svg11.dtd">
<svg version="1.1" id="_x35_0m" xmlns="http://www.w3.org/2000/svg" xmlns:xlink="http://www.w3.org/1999/xlink" x="0px" y="0px"
	 width="144px" height="144px" viewBox="0 0 144 144" enable-background="new 0 0 144 144" xml:space="preserve">
<g>
	<g>
		<g>
			<g>
				<g>
					<path fill="#989898" d="M132.515,134.384H11.486c-4.202,0-7.932-2.068-9.971-5.525c-2.049-3.457-2.017-7.637,0.084-11.189
						l31.004-52.445L62.125,15.29c2.102-3.551,5.789-5.674,9.876-5.674c4.086,0,7.784,2.123,9.876,5.674l31.002,52.445
						l29.521,49.924c2.102,3.551,2.133,7.732,0.085,11.189C140.447,132.315,136.718,134.384,132.515,134.384z M28.265,113.772
						h87.473L72.001,39.79L28.265,113.772z"/>
				</g>
			</g>
		</g>
		<g>
			<g>
				<g>
					<path fill="#FFFFFF" d="M71.255,20.437c0.409-0.693,1.082-0.693,1.491,0l29.512,49.924c0.409,0.695,1.082,1.83,1.491,2.521
						l29.522,49.926c0.409,0.693,0.072,1.26-0.746,1.26H73.492c-0.819,0-2.164,0-2.983,0H11.486c-0.819,0-1.155-0.566-0.746-1.26
						l29.522-49.926c0.409-0.691,1.081-1.826,1.491-2.521L71.255,20.437z"/>
				</g>
			</g>
		</g>
		<g>
			<g>
				<g>
					<path fill="#FFFFFF" d="M132.515,133.556H11.486c-3.888,0-7.344-1.912-9.234-5.107c-1.892-3.203-1.86-7.07,0.084-10.359
						l31.003-52.455L62.86,15.71c1.943-3.289,5.358-5.254,9.141-5.254s7.195,1.965,9.14,5.254l31.003,52.455l29.512,49.924
						c1.943,3.289,1.975,7.166,0.094,10.359C139.858,131.644,136.412,133.556,132.515,133.556z M26.783,114.612h90.436
						L72.001,38.118L26.783,114.612z"/>
				</g>
			</g>
		</g>
	</g>
	<g>
		<g>
			<g>
				<path fill="#ED2224" d="M132.515,131.358H11.486c-3.089,0-5.81-1.502-7.291-4.014c-1.492-2.51-1.449-5.566,0.084-8.174
					l31.003-52.445l29.521-49.924c1.534-2.605,4.234-4.16,7.208-4.16c2.973,0,5.662,1.555,7.207,4.16l60.523,102.381
					c1.535,2.605,1.576,5.662,0.085,8.174C138.325,129.866,135.593,131.358,132.515,131.358z M22.906,116.798h98.188L72.001,33.749
					L46.713,76.528L22.906,116.798z"/>
			</g>
		</g>
	</g>
	<g>
		<g>
			<g>
				<rect x="62.63" y="63.019" fill="#303030" width="18.689" height="46.436"/>
			</g>
		</g>
		<g>
			<g>
				<g>
					<g>
						<path fill="#ED2224" d="M78.178,72.642c0,3.277-2.721,5.936-6.072,5.936c-3.361,0-6.072-2.658-6.072-5.936
							s2.721-5.936,6.072-5.936C75.468,66.706,78.178,69.364,78.178,72.642z"/>
					</g>
				</g>
				<g>
					<g>
						<path fill="#686969" d="M72.105,78.671c-3.404,0-6.177-2.711-6.177-6.029c0-3.33,2.772-6.031,6.177-6.031
							s6.178,2.711,6.178,6.031C78.283,75.972,75.51,78.671,72.105,78.671z M72.105,66.812c-3.288,0-5.978,2.615-5.978,5.83
							s2.679,5.83,5.978,5.83s5.978-2.615,5.978-5.83S75.404,66.812,72.105,66.812z"/>
					</g>
				</g>
			</g>
			<g>
				<g>
					<g>
						<path fill="#F4DB36" d="M78.178,86.194c0,3.277-2.721,5.936-6.072,5.936c-3.361,0-6.072-2.658-6.072-5.936
							c0-3.279,2.721-5.938,6.072-5.938C75.468,80.257,78.178,82.915,78.178,86.194z"/>
					</g>
				</g>
				<g>
					<g>
						<path fill="#686969" d="M72.105,92.224c-3.404,0-6.177-2.711-6.177-6.029c0-3.32,2.772-6.031,6.177-6.031
							s6.178,2.711,6.178,6.031C78.283,89.524,75.51,92.224,72.105,92.224z M72.105,80.362c-3.288,0-5.978,2.617-5.978,5.832
							c0,3.225,2.679,5.83,5.978,5.83s5.978-2.615,5.978-5.83S75.404,80.362,72.105,80.362z"/>
					</g>
				</g>
			</g>
			<g>
				<g>
					<g>
						<path fill="#52B848" d="M78.178,99.747c0,3.277-2.721,5.936-6.072,5.936c-3.361,0-6.072-2.658-6.072-5.936
							s2.721-5.936,6.072-5.936C75.468,93.812,78.178,96.47,78.178,99.747z"/>
					</g>
				</g>
				<g>
					<g>
						<path fill="#686969" d="M72.105,105.776c-3.404,0-6.177-2.709-6.177-6.029s2.772-6.031,6.177-6.031s6.178,2.711,6.178,6.031
							C78.283,103.077,75.51,105.776,72.105,105.776z M72.105,93.905c-3.288,0-5.978,2.615-5.978,5.83
							c0,3.227,2.679,5.832,5.978,5.832s5.978-2.617,5.978-5.832C78.083,96.532,75.404,93.905,72.105,93.905z"/>
					</g>
				</g>
			</g>
		</g>
	</g>
</g>
</svg>
