<?xml version="1.0" encoding="utf-8"?>
<!-- Generator: Adobe Illustrator 16.0.0, SVG Export Plug-In . SVG Version: 6.00 Build 0)  -->
<!DOCTYPE svg PUBLIC "-//W3C//DTD SVG 1.1//EN" "http://www.w3.org/Graphics/SVG/1.1/DTD/svg11.dtd">
<svg version="1.1" id="_x35_0m" xmlns="http://www.w3.org/2000/svg" xmlns:xlink="http://www.w3.org/1999/xlink" x="0px" y="0px"
	 width="144px" height="144px" viewBox="0 0 144 144" enable-background="new 0 0 144 144" xml:space="preserve">
<g>
	<g>
		<g>
			<g>
				<path fill="#989898" d="M132.524,134.392H11.482c-4.203,0-7.933-2.071-9.972-5.525c-2.048-3.459-2.007-7.642,0.084-11.191
					l31.008-52.451l29.515-49.941c2.101-3.551,5.789-5.674,9.876-5.674c4.099,0,7.785,2.113,9.887,5.674l31.008,52.463l29.514,49.93
					c2.101,3.55,2.134,7.732,0.083,11.191C140.457,132.32,136.727,134.392,132.524,134.392z M28.252,113.777h87.481l-43.74-74.002
					L28.252,113.777z"/>
			</g>
		</g>
		<g>
			<g>
				<path fill="#FFFFFF" d="M71.258,20.432c0.41-0.694,1.082-0.694,1.492,0l29.515,49.929c0.409,0.693,1.082,1.839,1.491,2.522
					l29.514,49.94c0.411,0.694,0.075,1.261-0.745,1.261H73.495c-0.819,0-2.164,0-2.983,0H11.482c-0.818,0-1.155-0.566-0.746-1.261
					l29.516-49.931c0.409-0.693,1.081-1.828,1.491-2.521L71.258,20.432z"/>
			</g>
		</g>
		<g>
			<g>
				<path fill="#FFFFFF" d="M132.524,133.551H11.482c-3.888,0-7.345-1.912-9.235-5.106c-1.892-3.194-1.859-7.061,0.084-10.359
					l31.006-52.452l29.515-49.94c1.944-3.288,5.358-5.253,9.142-5.253c3.782,0,7.197,1.965,9.143,5.253l60.521,102.393
					c1.942,3.299,1.975,7.165,0.084,10.359C139.869,131.639,136.412,133.551,132.524,133.551z M26.78,114.616h90.446L71.993,38.114
					L26.78,114.616z"/>
			</g>
		</g>
	</g>
	<g>
		<g>
			<path fill="#ED2224" d="M132.524,131.365H11.482c-3.089,0-5.81-1.502-7.293-4.015c-1.481-2.51-1.449-5.568,0.086-8.174
				l31.006-52.462l29.515-49.93c1.545-2.606,4.234-4.161,7.208-4.161c2.975,0,5.674,1.555,7.207,4.161l60.522,102.392
				c1.544,2.605,1.575,5.664,0.095,8.174C138.335,129.863,135.604,131.365,132.524,131.365z M22.903,116.803h98.199L71.993,33.744
				L22.903,116.803z"/>
		</g>
	</g>
	<g>
		<g>
			<path fill="#010101" d="M111.721,106.642c-2.742,0-12.408,0-16.623,0c-4.214,0-8.248-12.555-22.181-12.555
				c-13.941,0-19.154,12.555-24.019,12.555c-4.865,0-13.88,0-16.622,0v6.978c2.742,0,24.155,0,27.172,0h25.101
				c3.017,0,24.43,0,27.172,0V106.642z"/>
		</g>
	</g>
</g>
</svg>
