<?xml version="1.0" encoding="utf-8"?>
<!-- Generator: Adobe Illustrator 16.0.0, SVG Export Plug-In . SVG Version: 6.00 Build 0)  -->
<!DOCTYPE svg PUBLIC "-//W3C//DTD SVG 1.1//EN" "http://www.w3.org/Graphics/SVG/1.1/DTD/svg11.dtd">
<svg version="1.1" id="_x35_0m" xmlns="http://www.w3.org/2000/svg" xmlns:xlink="http://www.w3.org/1999/xlink" x="0px" y="0px"
	 width="144px" height="144px" viewBox="0 0 144 144" enable-background="new 0 0 144 144" xml:space="preserve">
<g>
	<g>
		<g>
			<g>
				<g>
					<path fill="#989898" d="M132.508,134.537H11.487c-4.201,0-7.92-2.068-9.97-5.525c-2.048-3.455-2.007-7.637,0.085-11.188
						l31.012-52.453l29.51-49.922c2.101-3.551,5.799-5.672,9.885-5.672s7.785,2.111,9.875,5.672l31.001,52.443l29.51,49.932
						c2.102,3.551,2.133,7.732,0.085,11.188C140.44,132.479,136.71,134.537,132.508,134.537z M28.275,113.926h87.468L72.008,39.947
						L28.275,113.926z"/>
				</g>
			</g>
		</g>
		<g>
			<g>
				<g>
					<path fill="#FFFFFF" d="M71.252,20.607c0.409-0.693,1.082-0.693,1.491,0l29.51,49.922c0.409,0.693,1.082,1.828,1.491,2.521
						l29.51,49.922c0.41,0.691,0.073,1.26-0.746,1.26H73.49c-0.819,0-2.153,0-2.983,0h-59.02c-0.818,0-1.155-0.568-0.746-1.26
						l29.51-49.922c0.41-0.693,1.082-1.828,1.492-2.521L71.252,20.607z"/>
				</g>
			</g>
		</g>
		<g>
			<g>
				<g>
					<path fill="#FFFFFF" d="M132.508,133.707H11.487c-3.887,0-7.343-1.91-9.233-5.105c-1.892-3.193-1.86-7.059,0.084-10.357
						l31.012-52.443l29.509-49.932c1.944-3.287,5.357-5.252,9.14-5.252s7.196,1.965,9.14,5.252l60.511,102.375
						c1.944,3.299,1.976,7.164,0.084,10.357C139.852,131.797,136.406,133.707,132.508,133.707z M26.783,114.766h90.431
						L72.008,38.277L26.783,114.766z"/>
				</g>
			</g>
		</g>
	</g>
	<g>
		<g>
			<defs>
				<polygon id="SVGID_1_" points="72.008,19.348 103.009,71.789 134.01,124.232 72.008,124.232 9.996,124.232 40.997,71.789 				
					"/>
			</defs>
			<clipPath id="SVGID_2_">
				<use xlink:href="#SVGID_1_"  overflow="visible"/>
			</clipPath>
			<g clip-path="url(#SVGID_2_)">
				<g>
					<g>
						<g>
							<g>
								<path fill="#222221" d="M60.852,81.17c-2.427-0.734-5.011,0.6-5.768,2.975c-0.021,0.063-0.021,0.125-0.042,0.188
									c-0.62,2.313,0.714,4.729,3.089,5.443c2.363,0.713,4.863-0.537,5.693-2.795c0.021-0.064,0.053-0.115,0.074-0.18
									C64.644,84.416,63.278,81.896,60.852,81.17z"/>
							</g>
						</g>
					</g>
					<g>
						<g>
							<g>
								<path fill="#222221" d="M91.222,90.32c-2.427-0.734-5.011,0.609-5.767,2.984c-0.021,0.063-0.021,0.125-0.042,0.189
									c-0.62,2.311,0.714,4.727,3.089,5.441c2.363,0.713,4.863-0.535,5.683-2.795c0.021-0.063,0.063-0.105,0.073-0.178
									C95.015,93.588,93.649,91.066,91.222,90.32z"/>
							</g>
						</g>
					</g>
					<g>
						<g>
							<g>
								<path fill="#222221" d="M99.375,88.672l-11.429-5.643c-1.156-0.576-2.27-2.059-2.49-3.309l-1.02-6.029
									c-0.21-1.25-1.397-2.574-2.626-2.953l-16.871-5.084c-1.24-0.379-3.016,0.031-3.961,0.904l-8.499,7.879
									c-0.945,0.871-1.881,2.605-2.08,3.855l-0.347,2.152c-0.199,1.25,0.315,2.48,1.323,2.785c1.01,0.305,1.702,0.451,1.723,0.389
									c0,0,0,0,0.021-0.064c1.04-3.287,4.707-5.105,8.068-4.096c3.361,1.018,5.337,4.537,4.297,7.814
									c-0.021,0.064-0.021,0.064-0.021,0.064c-0.021,0.063,1.062,0.451,2.291,0.818l13.698,4.129
									c1.239,0.379,1.976,0.535,1.996,0.473c0,0,0,0,0.021-0.063c1.041-3.277,4.706-5.096,8.068-4.086
									c3.362,1.008,5.336,4.527,4.308,7.814c-0.021,0.064-0.021,0.064-0.021,0.064c-0.022,0.063,0.492,0.283,1.082,0.461
									c0.598,0.18,1.533-0.607,2.048-1.775l1.545-3.383C101.035,90.656,100.531,89.25,99.375,88.672z M68.131,75.047
									c-0.377,1.207-1.639,1.912-2.878,1.543l-6.156-1.838c-1.239-0.379-1.513-1.43-0.619-2.354l3.13-3.215
									c0.883-0.924,2.627-1.334,3.855-0.965l2.291,0.693c1.239,0.377,1.816,1.564,1.438,2.762L68.131,75.047z M81.022,81.381
									l-9.076-2.752c-1.229-0.379-1.965-1.682-1.587-2.9l1.062-3.361c0.378-1.207,1.764-1.828,2.993-1.449l5.148,1.555
									c1.239,0.377,2.416,1.682,2.616,2.93l0.714,4.402C83.102,81.055,82.261,81.76,81.022,81.381z"/>
							</g>
						</g>
					</g>
				</g>
				<g>
					<g>
						<g>
							<g>
								<rect x="20.458" y="94.471" fill="#222221" width="50.468" height="27.389"/>
							</g>
						</g>
					</g>
					<g>
						<g>
							<g>
								<g>
									<g>
										<path fill="#010101" d="M126.174,104.324c-4.938,0-7.428-1.449-9.844-2.857c-2.301-1.344-4.486-2.615-8.94-2.615
											s-6.628,1.271-8.94,2.615c-2.405,1.408-4.895,2.857-9.832,2.857s-7.428-1.449-9.844-2.857
											c-2.311-1.344-4.485-2.615-8.94-2.615v-1.713c4.938,0,7.428,1.449,9.844,2.857c2.301,1.346,4.485,2.617,8.94,2.617
											c4.454,0,6.628-1.271,8.939-2.617c2.406-1.408,4.906-2.857,9.833-2.857c4.938,0,7.428,1.449,9.844,2.857
											c2.312,1.346,4.485,2.617,8.94,2.617c4.454,0,6.628-1.271,8.939-2.617c2.405-1.408,4.906-2.857,9.833-2.857v1.713
											c-4.454,0-6.63,1.271-8.94,2.615C133.601,102.875,131.112,104.324,126.174,104.324z"/>
									</g>
								</g>
							</g>
						</g>
						<g>
							<g>
								<g>
									<g>
										<path fill="#010101" d="M126.174,109.463c-4.938,0-7.428-1.451-9.844-2.859c-2.301-1.344-4.486-2.615-8.94-2.615
											s-6.628,1.271-8.94,2.615c-2.405,1.408-4.895,2.859-9.832,2.859s-7.428-1.451-9.844-2.859
											c-2.311-1.344-4.485-2.615-8.94-2.615v-1.713c4.938,0,7.428,1.451,9.844,2.857c2.301,1.346,4.485,2.617,8.94,2.617
											c4.454,0,6.628-1.271,8.939-2.617c2.406-1.406,4.906-2.857,9.833-2.857c4.938,0,7.428,1.451,9.844,2.857
											c2.312,1.346,4.485,2.617,8.94,2.617c4.454,0,6.628-1.271,8.939-2.617c2.405-1.406,4.906-2.857,9.833-2.857v1.713
											c-4.454,0-6.63,1.271-8.94,2.615C133.601,108.002,131.112,109.463,126.174,109.463z"/>
									</g>
								</g>
							</g>
						</g>
						<g>
							<g>
								<g>
									<g>
										<path fill="#010101" d="M126.174,114.588c-4.938,0-7.428-1.449-9.844-2.857c-2.301-1.344-4.486-2.615-8.94-2.615
											s-6.628,1.271-8.94,2.615c-2.405,1.408-4.895,2.857-9.832,2.857s-7.428-1.449-9.844-2.857
											c-2.311-1.344-4.485-2.615-8.94-2.615v-1.713c4.938,0,7.428,1.449,9.844,2.857c2.301,1.346,4.485,2.615,8.94,2.615
											c4.454,0,6.628-1.27,8.939-2.615c2.406-1.408,4.906-2.857,9.833-2.857c4.938,0,7.428,1.449,9.844,2.857
											c2.312,1.346,4.485,2.615,8.94,2.615c4.454,0,6.628-1.27,8.939-2.615c2.405-1.408,4.906-2.857,9.833-2.857v1.713
											c-4.454,0-6.63,1.271-8.94,2.615C133.601,113.139,131.112,114.588,126.174,114.588z"/>
									</g>
								</g>
							</g>
						</g>
						<g>
							<g>
								<g>
									<g>
										<path fill="#010101" d="M126.174,119.715c-4.938,0-7.428-1.449-9.844-2.857c-2.301-1.344-4.486-2.615-8.94-2.615
											s-6.628,1.271-8.94,2.615c-2.405,1.408-4.895,2.857-9.832,2.857s-7.428-1.449-9.844-2.857
											c-2.311-1.344-4.485-2.615-8.94-2.615v-1.713c4.938,0,7.428,1.449,9.844,2.857c2.301,1.344,4.485,2.615,8.94,2.615
											c4.454,0,6.628-1.271,8.939-2.615c2.406-1.408,4.906-2.857,9.833-2.857c4.938,0,7.428,1.449,9.844,2.857
											c2.312,1.344,4.485,2.615,8.94,2.615c4.454,0,6.628-1.271,8.939-2.615c2.405-1.408,4.906-2.857,9.833-2.857v1.713
											c-4.454,0-6.63,1.271-8.94,2.615C133.601,118.266,131.112,119.715,126.174,119.715z"/>
									</g>
								</g>
							</g>
						</g>
						<g>
							<g>
								<g>
									<g>
										<path fill="#010101" d="M126.174,124.842c-4.938,0-7.428-1.449-9.844-2.857c-2.301-1.346-4.486-2.615-8.94-2.615
											s-6.628,1.27-8.94,2.615c-2.405,1.408-4.895,2.857-9.832,2.857s-7.428-1.449-9.844-2.857
											c-2.311-1.346-4.485-2.615-8.94-2.615v-1.713c4.938,0,7.428,1.449,9.844,2.857c2.301,1.346,4.485,2.615,8.94,2.615
											c4.454,0,6.628-1.27,8.939-2.615c2.406-1.408,4.906-2.857,9.833-2.857c4.938,0,7.428,1.449,9.844,2.857
											c2.312,1.346,4.485,2.615,8.94,2.615c4.454,0,6.628-1.27,8.939-2.615c2.405-1.408,4.906-2.857,9.833-2.857v1.713
											c-4.454,0-6.63,1.27-8.94,2.615C133.601,123.393,131.112,124.842,126.174,124.842z"/>
									</g>
								</g>
							</g>
						</g>
					</g>
				</g>
			</g>
		</g>
	</g>
	<g>
		<g>
			<g>
				<path fill="#ED2224" d="M132.508,131.523H11.487c-3.078,0-5.809-1.502-7.29-4.014c-1.492-2.51-1.45-5.557,0.084-8.172
					l31.012-52.455l29.51-49.92c1.544-2.605,4.233-4.172,7.206-4.172c2.963,0,5.662,1.566,7.206,4.172l31.001,52.441l29.51,49.934
					c1.534,2.604,1.576,5.662,0.085,8.172C138.329,130.021,135.597,131.523,132.508,131.523z M22.907,116.953h98.183L72.008,33.908
					L46.711,76.695L22.907,116.953z"/>
			</g>
		</g>
	</g>
</g>
</svg>
