<?xml version="1.0" encoding="utf-8"?>
<!-- Generator: Adobe Illustrator 16.0.0, SVG Export Plug-In . SVG Version: 6.00 Build 0)  -->
<!DOCTYPE svg PUBLIC "-//W3C//DTD SVG 1.1//EN" "http://www.w3.org/Graphics/SVG/1.1/DTD/svg11.dtd">
<svg version="1.1" id="_x35_0m" xmlns="http://www.w3.org/2000/svg" xmlns:xlink="http://www.w3.org/1999/xlink" x="0px" y="0px"
	 width="144px" height="144px" viewBox="0 0 144 144" enable-background="new 0 0 144 144" xml:space="preserve">
<g>
	<g>
		<g>
			<g>
				<g>
					<path fill="#989898" d="M132.508,134.378H11.491c-4.202,0-7.921-2.07-9.969-5.525c-2.049-3.457-2.018-7.637,0.084-11.188
						l31-52.451l29.508-49.92c2.102-3.551,5.789-5.672,9.886-5.672c4.086,0,7.784,2.121,9.875,5.672l30.999,52.441l29.52,49.92
						c2.101,3.549,2.132,7.73,0.084,11.186C140.44,132.319,136.71,134.378,132.508,134.378z M28.268,113.778h87.464L72,39.792
						L28.268,113.778z"/>
				</g>
			</g>
		</g>
		<g>
			<g>
				<g>
					<path fill="#FFFFFF" d="M71.254,20.452c0.409-0.693,1.082-0.693,1.491,0l29.509,49.92c0.409,0.693,1.082,1.828,1.491,2.521
						l29.509,49.918c0.41,0.693,0.073,1.262-0.746,1.262H73.491c-0.818,0-2.153,0-2.983,0H11.491c-0.819,0-1.156-0.568-0.746-1.262
						l29.519-49.918c0.41-0.693,1.082-1.828,1.492-2.521L71.254,20.452z"/>
				</g>
			</g>
		</g>
		<g>
			<g>
				<g>
					<path fill="#FFFFFF" d="M132.508,133.548H11.491c-3.887,0-7.343-1.912-9.234-5.105c-1.891-3.193-1.859-7.07,0.084-10.357
						l31.001-52.451l29.519-49.92c1.943-3.287,5.357-5.252,9.14-5.252c3.781,0,7.196,1.965,9.139,5.252l60.509,102.371
						c1.943,3.287,1.975,7.164,0.084,10.357C139.851,131.636,136.405,133.548,132.508,133.548z M26.786,114.608h90.427L72,38.122
						L26.786,114.608z"/>
				</g>
			</g>
		</g>
	</g>
	<g>
		<g>
			<g>
				<path fill="#ED2224" d="M132.508,131.362H11.491c-3.078,0-5.81-1.502-7.291-4.012c-1.491-2.512-1.449-5.568,0.084-8.174
					l31.001-52.451l29.509-49.92c1.533-2.604,4.232-4.158,7.206-4.158c2.962,0,5.662,1.555,7.206,4.158l60.508,102.371
					c1.535,2.605,1.576,5.662,0.085,8.174C138.317,129.86,135.597,131.362,132.508,131.362z M22.91,116.792h98.18L72,33.751
					L46.714,76.538L22.91,116.792z"/>
			</g>
		</g>
	</g>
	<g>
		<g>
			<g>
				<g>
					<path fill="#010101" d="M84.574,63.983c0,0-7.605,6.303-6.64,12.492c1.398,8.865-5.978,8.256-8.383,11.617
						c-2.447,3.414-1.502,9.16-3.319,10.758c-3.499,3.066-6.113,1.639-10.651,5.221c-2.564,2.018-2.974,7.605-2.974,7.605h60.067
						L84.574,63.983z"/>
				</g>
			</g>
		</g>
		<g>
			<g>
				<g>
					<path fill="#010101" d="M43.563,96.087c-1.712-0.125-2.71,0.768-3.477,2.174c-0.631,1.168-1.481,2.365-1.912,3.615
						c-0.357,1.049-0.337,2.164,0.21,3.15c0.494,0.914,1.303,1.43,2.133,2.018c0.389,0.273,0.809,0.525,1.25,0.715
						c0.294,0.125,0.609,0.158,0.903,0.295c0.399,0.199,0.714,0.502,1.04,0.797c0.577,0.516,1.071,0.904,1.911,0.904
						c0.799,0,1.545-0.389,2.333-0.316c0.756,0.074,1.26-0.137,1.87-0.598c1.376-1.041,1.597-3.047,1.901-4.592
						c0.293-1.502,0.703-3.16-0.315-4.484C49.613,97.464,46.452,96.298,43.563,96.087z"/>
				</g>
			</g>
		</g>
		<g>
			<g>
				<g>
					<path fill="#010101" d="M54.425,96.056c0.337,0.168,0.924,0.178,1.303,0.242c0.379,0.063,0.756,0.115,1.145,0.127
						c0.662,0.01,1.282-0.148,1.85-0.506c1.155-0.736,1.975-2.016,2.301-3.318c0.168-0.674,0.23-1.451,0.094-2.145
						c-0.23-1.238-1.019-2.436-2.006-3.234c-0.799-0.641-1.744-0.852-2.742-0.945c-1.135-0.115-2.363-0.137-3.34,0.525
						c-0.936,0.629-1.514,1.744-1.986,2.721c-0.557,1.166-0.672,2.688,0.315,3.697c0.337,0.346,0.672,0.609,1.113,0.799
						c0.326,0.137,0.673,0.293,0.935,0.545C53.815,95.005,53.815,95.751,54.425,96.056z"/>
				</g>
			</g>
		</g>
		<g>
			<g>
				<g>
					<path fill="#010101" d="M61.946,82.673c0.315,0.168,0.631,0.346,0.914,0.557c0.578,0.451,1.009,1.176,1.712,1.461
						c1.576,0.629,3.131-1.566,3.467-2.795c0.2-0.703,0.389-1.996,0.053-2.689c-0.399-0.83-1.418-0.955-2.248-0.945
						c-0.861,0.01-1.523-0.211-2.353-0.379c-1.188-0.242-1.892,0.578-2.196,1.566c-0.241,0.787-1.093,1.922-0.409,2.658
						C61.116,82.358,61.652,82.515,61.946,82.673z"/>
				</g>
			</g>
		</g>
		<g>
			<g>
				<g>
					<path fill="#010101" d="M69.678,77.524c0.305,0.242,0.525,0.559,0.788,0.832c0.179,0.188,0.379,0.408,0.631,0.492
						c0.325,0.115,0.683-0.031,0.997,0.084c0.273,0.084,0.421,0.252,0.726,0.305c1.334,0.199,1.953-1.219,2.553-2.123
						c0.84-1.238-0.179-2.299-0.703-3.402c-0.337-0.713-0.842-1.238-1.713-1.238c-0.799,0-1.492,0.535-2.196,0.85
						c-0.788,0.336-1.649,0.566-1.911,1.461c-0.168,0.588-0.264,1.711,0.104,2.248C69.121,77.272,69.457,77.356,69.678,77.524z"/>
				</g>
			</g>
		</g>
		<g>
			<g>
				<g>
					<path fill="#010101" d="M74.511,66.032c0.262,0.252,0.683,0.201,0.956,0.441c0.179,0.168,0.272,0.463,0.42,0.662
						c0.253,0.336,0.482,0.557,0.914,0.484c0.253-0.043,0.651-0.096,0.893-0.18c0.252-0.084,0.578-0.314,0.819-0.451
						c0.305-0.18,0.398-0.348,0.494-0.662c0.272-0.893,0.84-1.986,0.535-2.932c-0.283-0.893-1.345-1.523-2.228-1.732
						c-0.934-0.232-1.554,0.809-2.205,1.303c-0.809,0.609-1.134,1.061-0.997,2.133C74.153,65.413,74.269,65.802,74.511,66.032z"/>
				</g>
			</g>
		</g>
	</g>
</g>
</svg>
