<?xml version="1.0" encoding="utf-8"?>
<!-- Generator: Adobe Illustrator 16.0.0, SVG Export Plug-In . SVG Version: 6.00 Build 0)  -->
<!DOCTYPE svg PUBLIC "-//W3C//DTD SVG 1.1//EN" "http://www.w3.org/Graphics/SVG/1.1/DTD/svg11.dtd">
<svg version="1.1" id="_x35_0m" xmlns="http://www.w3.org/2000/svg" xmlns:xlink="http://www.w3.org/1999/xlink" x="0px" y="0px"
	 width="144px" height="144px" viewBox="0 0 144 144" enable-background="new 0 0 144 144" xml:space="preserve">
<g>
	<g>
		<g>
			<g>
				<g>
					<path fill="#989898" d="M3.184,127.524c-2-3.374-1.97-7.467,0.081-10.934l28.821-48.739L62.354,16.64
						c2.051-3.467,5.651-5.539,9.65-5.539c3.99,0,7.592,2.072,9.642,5.539l28.821,48.74l30.268,51.201
						c2.052,3.466,2.082,7.558,0.082,10.933c-1.99,3.375-5.631,5.386-9.734,5.386H12.906C8.814,132.92,5.173,130.898,3.184,127.524z
						 M71.994,40.559l-42.708,72.237h85.407L71.994,40.559z"/>
				</g>
			</g>
		</g>
		<g>
			<g>
				<g>
					<path fill="#FFFFFF" d="M72.713,21.676c-0.4-0.677-1.057-0.677-1.456,0L42.436,70.415c-0.4,0.678-1.057,1.785-1.457,2.462
						l-28.801,48.75c-0.399,0.676-0.071,1.231,0.729,1.231h57.621c0.801,0,2.103,0,2.912,0h57.623c0.8,0,1.129-0.556,0.728-1.231
						l-28.82-48.739c-0.399-0.678-1.057-1.785-1.456-2.462L72.713,21.676z"/>
				</g>
			</g>
		</g>
		<g>
			<g>
				<g>
					<path fill="#FFFFFF" d="M3.9,127.113c-1.846-3.117-1.815-6.902,0.083-10.112l28.82-48.74l30.269-51.2
						c1.896-3.21,5.229-5.139,8.922-5.139c3.683,0,7.016,1.918,8.924,5.129l28.821,48.748l30.267,51.202
						c1.898,3.21,1.929,6.995,0.082,10.112c-1.846,3.129-5.21,4.984-9.016,4.984H12.906C9.11,132.098,5.737,130.232,3.9,127.113z
						 M71.994,38.938L27.84,113.616h88.29L71.994,38.938z"/>
				</g>
			</g>
		</g>
	</g>
	<g>
		<g>
			<g>
				<path fill="#ED2224" d="M5.789,126.047c-1.457-2.452-1.416-5.436,0.082-7.979l28.82-48.74l30.268-51.212
					c1.497-2.543,4.133-4.062,7.035-4.062c2.894,0,5.529,1.519,7.026,4.062l28.821,48.74l30.267,51.201
					c1.497,2.544,1.539,5.527,0.083,7.979c-1.457,2.452-4.104,3.918-7.119,3.918H12.906C9.9,129.966,7.244,128.509,5.789,126.047z
					 M71.994,34.671l-47.929,81.078h95.858L71.994,34.671z"/>
			</g>
		</g>
	</g>
	<g>
		<g>
			<g>
				<g>
					<path fill="#010101" d="M52.835,76.005c1.877,1.446,3.724,2.873,5.631,4.339c1.61-2.349,3.631-4.215,6.145-5.528
						c2.502-1.313,5.189-2.011,8.103-2.257c-0.041,0.217-0.041,0.38-0.104,0.523c-0.901,2.021-1.814,4.031-2.717,6.053
						c-0.041,0.091-0.052,0.286-0.011,0.307c0.195,0.112,0.452,0.287,0.646,0.247c1.016-0.207,2.012-0.453,3.016-0.697
						c5.62-1.335,11.23-2.678,16.842-4.012c0.153-0.03,0.286-0.082,0.502-0.133c-0.082-0.113-0.123-0.195-0.194-0.267
						c-4.954-4.739-9.918-9.468-14.882-14.205c-0.236-0.217-0.503-0.339-0.749-0.176c-0.185,0.124-0.35,0.4-0.369,0.616
						c-0.153,1.579-0.267,3.17-0.4,4.8c-0.235,0-0.45,0-0.646,0c-3.559-0.031-7.025,0.461-10.317,1.866
						c-2.851,1.221-5.252,3.036-7.415,5.19c-0.954,0.954-1.847,1.959-2.771,2.934C53.051,75.718,52.969,75.841,52.835,76.005z"/>
				</g>
			</g>
		</g>
		<g>
			<g>
				<g>
					<path fill="#010101" d="M49.871,80.036c-0.369,1.363-0.718,2.667-1.067,3.969c-1.404,5.251-2.81,10.503-4.215,15.755
						c-0.01,0.041-0.03,0.093-0.021,0.134c0.051,0.266,0.021,0.636,0.195,0.79c0.144,0.133,0.543,0.091,0.778,0
						c1.119-0.482,2.206-1.026,3.313-1.539c0.338-0.154,0.677-0.308,1.036-0.482c0.348,0.554,0.677,1.098,1.016,1.621
						c3.426,5.436,8.41,8.759,14.708,10.286c1.374,0.339,2.759,0.637,4.236,0.965c0.338-2.287,0.676-4.503,1.015-6.759
						c-5.99-0.595-10.533-3.415-13.887-8.268c1.455-0.164,2.851-0.317,4.225-0.461c0.924-0.104,1.848-0.174,2.76-0.308
						c0.235-0.041,0.523-0.257,0.625-0.462c0.063-0.133-0.123-0.44-0.287-0.605c-4.481-4.595-8.975-9.17-13.477-13.754
						C50.518,80.642,50.22,80.374,49.871,80.036z"/>
				</g>
			</g>
		</g>
		<g>
			<g>
				<g>
					<path fill="#010101" d="M75.502,111.698c0.923-0.256,1.744-0.471,2.564-0.696c5.867-1.611,11.724-3.232,17.591-4.842
						c0.297-0.082,0.584-0.175,0.636-0.523c0.062-0.358-0.123-0.604-0.421-0.8c-1.293-0.841-2.584-1.682-3.919-2.555
						c0.093-0.153,0.166-0.297,0.247-0.439c1.6-2.647,2.8-5.438,3.313-8.482c0.43-2.615,0.378-5.23-0.195-7.806
						c-0.461-2.123-1.118-4.194-1.692-6.298c-0.031-0.112-0.083-0.226-0.154-0.4c-2.205,0.852-4.4,1.692-6.636,2.554
						c2.625,5.427,2.287,10.761-0.349,16.124c-0.154-0.195-0.257-0.318-0.349-0.441c-1.159-1.65-2.328-3.303-3.498-4.964
						c-0.072-0.104-0.123-0.236-0.216-0.298c-0.194-0.113-0.42-0.286-0.594-0.257c-0.165,0.041-0.369,0.277-0.432,0.461
						c-0.481,1.54-0.934,3.078-1.395,4.616c-1.436,4.779-2.871,9.57-4.307,14.351C75.635,111.206,75.585,111.401,75.502,111.698z"/>
				</g>
			</g>
		</g>
	</g>
</g>
</svg>
