<?xml version="1.0" encoding="utf-8"?>
<!-- Generator: Adobe Illustrator 16.0.0, SVG Export Plug-In . SVG Version: 6.00 Build 0)  -->
<!DOCTYPE svg PUBLIC "-//W3C//DTD SVG 1.1//EN" "http://www.w3.org/Graphics/SVG/1.1/DTD/svg11.dtd">
<svg version="1.1" id="_x35_0m" xmlns="http://www.w3.org/2000/svg" xmlns:xlink="http://www.w3.org/1999/xlink" x="0px" y="0px"
	 width="144px" height="144px" viewBox="0 0 144 144" enable-background="new 0 0 144 144" xml:space="preserve">
<g>
	<g>
		<g>
			<g>
				<g>
					<path fill="#989898" d="M132.505,134.539H11.484c-4.202,0-7.932-2.07-9.97-5.525c-2.049-3.457-2.017-7.639,0.084-11.189
						L32.61,65.383l29.51-49.934c2.102-3.551,5.799-5.672,9.886-5.672c4.086,0,7.773,2.111,9.886,5.672l30.99,52.443l29.52,49.932
						c2.102,3.541,2.133,7.732,0.084,11.189C140.438,132.479,136.708,134.539,132.505,134.539z M28.262,113.928h87.478
						l-43.744-73.98L49.388,78.209L28.262,113.928z"/>
				</g>
			</g>
		</g>
		<g>
			<g>
				<g>
					<path fill="#FFFFFF" d="M71.249,20.607c0.41-0.693,1.082-0.693,1.491,0l29.521,49.922c0.41,0.693,1.082,1.838,1.492,2.521
						l29.52,49.922c0.41,0.693,0.074,1.26-0.746,1.26H73.487c-0.82,0-2.154,0-2.983,0h-59.02c-0.819,0-1.155-0.566-0.745-1.26
						l29.52-49.922c0.409-0.693,1.082-1.828,1.491-2.521L71.249,20.607z"/>
				</g>
			</g>
		</g>
		<g>
			<g>
				<g>
					<path fill="#FFFFFF" d="M132.505,133.709H11.484c-3.897,0-7.344-1.912-9.234-5.105s-1.849-7.07,0.085-10.359l31.001-52.441
						l29.52-49.934c1.943-3.287,5.357-5.252,9.14-5.252c3.771,0,7.196,1.965,9.14,5.252l31.001,52.455l29.521,49.92
						c1.942,3.289,1.976,7.166,0.083,10.359C139.849,131.797,136.402,133.709,132.505,133.709z M26.78,114.768h90.43L71.995,38.279
						L48.642,77.777L26.78,114.768z"/>
				</g>
			</g>
		</g>
	</g>
	<g>
		<g>
			<g>
				<path fill="#ED2224" d="M132.505,131.523H11.484c-3.089,0-5.81-1.502-7.29-4.014c-1.492-2.51-1.45-5.566,0.083-8.172
					l31.001-52.453l29.521-49.922c1.534-2.605,4.234-4.17,7.207-4.17c2.962,0,5.662,1.564,7.196,4.17l31.001,52.443l29.52,49.932
					c1.534,2.605,1.576,5.662,0.084,8.172C138.325,130.021,135.594,131.523,132.505,131.523z M22.915,116.953h98.172L71.995,33.908
					L46.709,76.695L22.915,116.953z"/>
			</g>
		</g>
	</g>
	<g>
		<g>
			<g>
				<g>
					<path fill="#010101" d="M92.123,103.053c-0.714,0-1.366,0.16-1.85,0.684h-2.29c-0.472-0.523-1.123-0.725-1.838-0.725
						s-1.366,0.201-1.849,0.725H59.851c-0.473-0.523-1.124-0.725-1.838-0.725c-0.715,0-1.366,0.201-1.85,0.725h-2.29
						c-0.472-0.523-1.124-0.684-1.838-0.684c-1.46,0-2.647,1.168-2.647,2.596s1.177,2.596,2.647,2.596
						c1.46,0,2.646-1.082,2.646-2.512c0-0.178-0.021-0.441-0.063-0.441h0.788c-0.031,0-0.053,0.264-0.053,0.453
						c0,1.428,1.177,2.543,2.647,2.543c1.46,0,2.647-1.094,2.647-2.521c0-0.18-0.021-0.463-0.063-0.463h22.964
						c-0.031,0-0.052,0.262-0.052,0.451c0,1.428,1.176,2.543,2.646,2.543c1.46,0,2.647-1.094,2.647-2.521
						c0-0.18-0.021-0.463-0.063-0.463h0.789c-0.031,0-0.054,0.262-0.054,0.453c0,1.428,1.177,2.541,2.647,2.541
						c1.461,0,2.647-1.197,2.647-2.615C94.771,104.252,93.583,103.053,92.123,103.053z"/>
				</g>
			</g>
		</g>
		<g>
			<g>
				<g>
					<path fill="#010101" d="M94.266,85.217H78.267l3.54-3.467l-9.14-8.92l-9.233,9.035l3.425,3.352H50.585
						c-3.75,0-7.238,3.414-7.238,7.027v13.059h5.61v-0.715c0-1.449,1.323-2.154,2.826-2.154h40.938c1.492,0,2.7,0.705,2.7,2.154
						v0.715h5.074V92.256C100.507,88.631,98.017,85.217,94.266,85.217z M65.104,81.855l7.563-7.408l7.459,7.303l-3.54,3.467h-8.067
						L65.104,81.855z M53.769,95.922H45.49c0,0,0-1.25,0-2.754c0-1.502,1.597-5.348,4.444-5.348c2.846,0,3.834,0,3.834,0V95.922z
						 M64.988,95.922H56.71v-8.09h8.278V95.922z M78.077,95.922H66.858v-8.09h11.219V95.922z M87.69,95.922h-8.279v-8.09h8.279
						V95.922z M99.173,95.922h-8.279v-8.09c0,0,0.642,0,3.488,0s4.791,3.844,4.791,5.348C99.173,94.672,99.173,95.922,99.173,95.922
						z"/>
				</g>
			</g>
		</g>
	</g>
</g>
</svg>
