<?xml version="1.0" encoding="utf-8"?>
<!-- Generator: Adobe Illustrator 16.0.0, SVG Export Plug-In . SVG Version: 6.00 Build 0)  -->
<!DOCTYPE svg PUBLIC "-//W3C//DTD SVG 1.1//EN" "http://www.w3.org/Graphics/SVG/1.1/DTD/svg11.dtd">
<svg version="1.1" id="_x35_0m" xmlns="http://www.w3.org/2000/svg" xmlns:xlink="http://www.w3.org/1999/xlink" x="0px" y="0px"
	 width="144px" height="144px" viewBox="0 0 144 144" enable-background="new 0 0 144 144" xml:space="preserve">
<g>
	<g>
		<g>
			<g>
				<g>
					<path fill="#989898" d="M132.516,134.531H11.484c-4.202,0-7.921-2.068-9.97-5.525c-2.049-3.455-2.017-7.637,0.084-11.197
						L32.61,65.355l29.51-49.9c2.101-3.551,5.799-5.674,9.886-5.674c4.086,0,7.773,2.123,9.874,5.674l31.001,52.441l29.521,49.922
						c2.102,3.551,2.133,7.732,0.084,11.199C140.448,132.473,136.719,134.531,132.516,134.531z M28.272,113.932h87.467
						L72.006,39.943L28.272,113.932z"/>
				</g>
			</g>
		</g>
		<g>
			<g>
				<g>
					<path fill="#FFFFFF" d="M71.259,20.602c0.41-0.693,1.082-0.693,1.492,0l29.521,49.922c0.409,0.693,1.081,1.828,1.491,2.521
						l29.521,49.922c0.409,0.693,0.073,1.26-0.747,1.26H73.497c-0.819,0-2.153,0-2.983,0H11.484c-0.819,0-1.155-0.566-0.746-1.26
						l29.52-49.922c0.41-0.693,1.083-1.828,1.492-2.521L71.259,20.602z"/>
				</g>
			</g>
		</g>
		<g>
			<g>
				<g>
					<path fill="#FFFFFF" d="M132.516,133.703H11.484c-3.897,0-7.344-1.912-9.234-5.105c-1.891-3.195-1.849-7.07,0.085-10.359
						l31.011-52.453l29.509-49.922c1.944-3.287,5.358-5.252,9.141-5.252c3.771,0,7.195,1.965,9.14,5.252l60.521,102.375
						c1.942,3.289,1.974,7.164,0.083,10.359C139.859,131.791,136.402,133.703,132.516,133.703z M26.79,114.762h90.431l-45.215-76.49
						L26.79,114.762z"/>
				</g>
			</g>
		</g>
	</g>
	<g>
		<g>
			<g>
				<path fill="#ED2224" d="M132.516,131.518H11.484c-3.078,0-5.81-1.504-7.291-4.014c-1.491-2.51-1.449-5.568,0.084-8.172
					l31.012-52.455l29.51-49.92c1.533-2.605,4.233-4.16,7.207-4.16c2.962,0,5.662,1.555,7.195,4.16l31.001,52.453l29.521,49.922
					c1.534,2.604,1.576,5.662,0.084,8.172C138.325,130.014,135.604,131.518,132.516,131.518z M22.914,116.947h98.173L72.006,33.902
					L22.914,116.947z"/>
			</g>
		</g>
	</g>
	<g>
		<g>
			<g>
				<g>
					<path fill="#010101" d="M77.111,110.119l-7.68-15.328l-4.423,3.016l7.322,14.602c0.463,0.924,1.408,1.461,2.396,1.461
						c0.389,0,0.788-0.084,1.177-0.264C77.216,112.975,77.772,111.41,77.111,110.119z"/>
				</g>
			</g>
		</g>
		<g>
			<g>
				<g>
					<path fill="#010101" d="M67.403,94.77l0.032-0.021c0.558-0.346,0.925-0.871,1.104-1.449c0.021-0.041,0.042-0.074,0.052-0.105
						c0.168-0.441,0.252-0.914,0.231-1.418l-0.525-11.104l2.206,1.281l1.229,10.221c0.115,1,0.987,1.723,1.985,1.723
						c0.073,0,0.158,0,0.23-0.01c1.093-0.125,1.891-1.092,1.755-2.164l-1.335-11.178c-0.072-0.609-0.43-1.145-0.966-1.459
						l-6.271-3.625c-0.693-0.725-1.702-1.166-2.815-1.104c-2.027,0.096-3.582,1.766-3.498,3.74l0.294,5.988l0.179,3.824l0.199,4.191
						c0,0.053,0.021,0.094,0.021,0.156l-6.576,4.119c-0.673,0.42-1.124,1.123-1.219,1.9l-1.387,11.809
						c-0.168,1.43,0.882,2.721,2.343,2.889c0.104,0.012,0.199,0.021,0.305,0.021c1.345,0,2.489-0.977,2.647-2.311l1.239-10.578
						l5.536-3.467l2.553-1.598C67.12,94.959,67.267,94.875,67.403,94.77z"/>
				</g>
			</g>
		</g>
		<g>
			<g>
				<g>
					<path fill="#010101" d="M62.057,73.811c2.29,0,4.16-1.816,4.16-4.076c0-2.246-1.87-4.064-4.16-4.064
						c-2.301,0-4.171,1.818-4.171,4.064C57.886,71.982,59.756,73.811,62.057,73.811z"/>
				</g>
			</g>
		</g>
		<g>
			<g>
				<g>
					<path fill="#010101" d="M54.599,92.941l5.557-4.17l-0.252-4.623c-0.179,0.063-0.357,0.146-0.515,0.273l-7.228,5.42
						c-0.872,0.662-1.04,1.881-0.368,2.742c0.389,0.494,0.987,0.756,1.587,0.756C53.811,93.352,54.23,93.215,54.599,92.941z"/>
				</g>
			</g>
		</g>
	</g>
	<g>
		<g>
			<g>
				<g>
					<path fill="#010101" d="M98.311,111.168l-5.315-10.6l-3.067,2.092l5.063,10.105c0.325,0.641,0.977,1.008,1.67,1.008
						c0.273,0,0.547-0.063,0.809-0.188C98.384,113.154,98.763,112.072,98.311,111.168z"/>
				</g>
			</g>
		</g>
		<g>
			<g>
				<g>
					<path fill="#010101" d="M91.587,100.547l0.021-0.02c0.389-0.242,0.651-0.6,0.767-1c0.021-0.031,0.031-0.051,0.042-0.072
						c0.115-0.305,0.169-0.631,0.157-0.977l-0.367-7.691l1.534,0.885l0.84,7.068c0.084,0.693,0.684,1.197,1.377,1.197
						c0.052,0,0.105,0,0.157-0.01c0.757-0.084,1.303-0.756,1.218-1.502l-0.924-7.742c-0.053-0.422-0.294-0.789-0.672-1.008
						l-4.339-2.512c-0.483-0.504-1.177-0.809-1.944-0.768c-1.396,0.064-2.488,1.229-2.426,2.596l0.199,4.15l0.125,2.646l0.137,2.898
						c0.012,0.043,0.022,0.074,0.022,0.105l-4.56,2.857c-0.473,0.293-0.777,0.768-0.83,1.313l-0.956,8.164
						c-0.116,0.988,0.609,1.879,1.628,1.996c0.063,0,0.137,0.01,0.211,0.01c0.924,0,1.723-0.672,1.828-1.598l0.871-7.322
						l3.824-2.395l1.765-1.104C91.388,100.684,91.492,100.621,91.587,100.547z"/>
				</g>
			</g>
		</g>
		<g>
			<g>
				<g>
					<path fill="#010101" d="M87.878,86.041c1.598,0,2.89-1.262,2.89-2.816s-1.292-2.816-2.89-2.816
						c-1.586,0-2.877,1.262-2.877,2.816C85.001,84.789,86.293,86.041,87.878,86.041z"/>
				</g>
			</g>
		</g>
		<g>
			<g>
				<g>
					<path fill="#010101" d="M82.721,99.287l3.846-2.889l-0.169-3.193c-0.126,0.041-0.252,0.094-0.367,0.189l-5.001,3.76
						c-0.599,0.451-0.725,1.303-0.252,1.902c0.272,0.346,0.683,0.525,1.092,0.525C82.175,99.57,82.479,99.477,82.721,99.287z"/>
				</g>
			</g>
		</g>
	</g>
</g>
</svg>
