<?xml version="1.0" encoding="utf-8"?>
<!-- Generator: Adobe Illustrator 16.0.0, SVG Export Plug-In . SVG Version: 6.00 Build 0)  -->
<!DOCTYPE svg PUBLIC "-//W3C//DTD SVG 1.1//EN" "http://www.w3.org/Graphics/SVG/1.1/DTD/svg11.dtd">
<svg version="1.1" id="_x35_0m" xmlns="http://www.w3.org/2000/svg" xmlns:xlink="http://www.w3.org/1999/xlink" x="0px" y="0px"
	 width="144px" height="144px" viewBox="0 0 144 144" enable-background="new 0 0 144 144" xml:space="preserve">
<g>
	<g>
		<g>
			<g>
				<g>
					<path fill="#989898" d="M132.511,134.537H11.479c-4.201,0-7.92-2.068-9.969-5.525c-2.038-3.455-2.006-7.637,0.084-11.188
						l31.012-52.453l29.51-49.922c2.102-3.551,5.799-5.672,9.885-5.672s7.785,2.111,9.887,5.672l31.001,52.443l29.509,49.932
						c2.102,3.551,2.133,7.732,0.084,11.188C140.444,132.469,136.713,134.537,132.511,134.537z M28.268,113.926h87.467L72,39.938
						L28.268,113.926z"/>
				</g>
			</g>
		</g>
		<g>
			<g>
				<g>
					<path fill="#FFFFFF" d="M71.254,20.598c0.41-0.693,1.082-0.693,1.492,0l29.51,49.92c0.409,0.695,1.082,1.828,1.491,2.521
						l29.51,49.922c0.409,0.693,0.073,1.262-0.746,1.262H73.493c-0.819,0-2.164,0-2.983,0h-59.03c-0.818,0-1.155-0.568-0.745-1.262
						l29.509-49.922c0.41-0.693,1.083-1.826,1.492-2.521L71.254,20.598z"/>
				</g>
			</g>
		</g>
		<g>
			<g>
				<g>
					<path fill="#FFFFFF" d="M132.511,133.697H11.479c-3.887,0-7.343-1.91-9.233-5.105c-1.892-3.193-1.85-7.059,0.084-10.357
						l31.012-52.443l29.51-49.932c1.943-3.287,5.357-5.252,9.14-5.252c3.781,0,7.196,1.965,9.139,5.252l31.002,52.453l29.51,49.922
						c1.943,3.287,1.975,7.164,0.094,10.357C139.854,131.787,136.398,133.697,132.511,133.697z M26.787,114.768h90.419L72,38.268
						L26.787,114.768z"/>
				</g>
			</g>
		</g>
	</g>
	<g>
		<g>
			<g>
				<path fill="#ED2224" d="M132.511,131.514H11.479c-3.078,0-5.809-1.504-7.289-4.014c-1.482-2.512-1.45-5.568,0.094-8.174
					l31.012-52.453l29.499-49.92c1.544-2.607,4.233-4.172,7.206-4.172c2.974,0,5.662,1.564,7.207,4.172l60.51,102.373
					c1.545,2.605,1.576,5.662,0.085,8.174C138.321,130.01,135.589,131.514,132.511,131.514z M22.91,116.941h98.172L72,33.908
					L46.705,76.686L22.91,116.941z"/>
			</g>
		</g>
	</g>
	<g>
		<g>
			<g>
				<g>
					<path fill="#010101" d="M87.601,102.549l-8.929-17.816l-5.148,3.498l8.51,16.977c0.535,1.072,1.639,1.691,2.784,1.691
						c0.462,0,0.925-0.105,1.365-0.305C87.727,105.869,88.358,104.051,87.601,102.549z"/>
				</g>
			</g>
		</g>
		<g>
			<g>
				<g>
					<path fill="#010101" d="M76.308,84.701l0.042-0.031c0.651-0.41,1.082-1.008,1.281-1.682c0.021-0.053,0.042-0.084,0.063-0.137
						c0.201-0.504,0.295-1.061,0.264-1.639l-0.619-12.91l2.584,1.48l1.418,11.883c0.137,1.166,1.145,2.006,2.311,2.006
						c0.085,0,0.179,0,0.273-0.01c1.271-0.148,2.195-1.283,2.038-2.521l-1.544-12.984c-0.084-0.705-0.504-1.336-1.135-1.693
						l-7.28-4.213c-0.819-0.84-1.976-1.355-3.268-1.281c-2.353,0.105-4.171,2.059-4.065,4.35l0.336,6.965l0.211,4.455l0.23,4.873
						c0,0.064,0.021,0.117,0.031,0.18l-7.646,4.791c-0.778,0.492-1.304,1.301-1.408,2.205l-1.607,13.721
						c-0.199,1.66,1.029,3.162,2.721,3.352c0.126,0.02,0.242,0.02,0.357,0.02c1.555,0,2.889-1.135,3.077-2.678l1.45-12.291
						l6.43-4.023l2.962-1.859C75.983,84.922,76.151,84.816,76.308,84.701z"/>
				</g>
			</g>
		</g>
		<g>
			<g>
				<g>
					<path fill="#010101" d="M70.088,60.338c2.668,0,4.844-2.121,4.844-4.727c0-2.615-2.176-4.727-4.844-4.727
						c-2.678,0-4.854,2.121-4.854,4.727S67.411,60.338,70.088,60.338z"/>
				</g>
			</g>
		</g>
		<g>
			<g>
				<g>
					<path fill="#010101" d="M61.422,82.59l6.461-4.854l-0.295-5.369c-0.21,0.074-0.42,0.168-0.599,0.305l-8.404,6.314
						c-1.019,0.768-1.208,2.195-0.42,3.184c0.462,0.588,1.146,0.893,1.849,0.893C60.498,83.051,61.001,82.904,61.422,82.59z"/>
				</g>
			</g>
		</g>
	</g>
	<g>
		<g>
			<g>
				<g>
					<polygon fill="#1B1B19" points="47.072,113.381 39.246,113.381 45.906,100.867 52.167,100.867 					"/>
				</g>
			</g>
		</g>
		<g>
			<g>
				<g>
					<polygon fill="#1B1B19" points="75.803,113.381 67.967,113.381 68.881,100.867 75.141,100.867 					"/>
				</g>
			</g>
		</g>
		<g>
			<g>
				<g>
					<polygon fill="#1B1B19" points="105.829,113.381 97.991,113.381 92.896,100.867 99.167,100.867 					"/>
				</g>
			</g>
		</g>
	</g>
</g>
</svg>
