<?xml version="1.0" encoding="utf-8"?>
<!-- Generator: Adobe Illustrator 16.0.0, SVG Export Plug-In . SVG Version: 6.00 Build 0)  -->
<!DOCTYPE svg PUBLIC "-//W3C//DTD SVG 1.1//EN" "http://www.w3.org/Graphics/SVG/1.1/DTD/svg11.dtd">
<svg version="1.1" id="_x35_0m" xmlns="http://www.w3.org/2000/svg" xmlns:xlink="http://www.w3.org/1999/xlink" x="0px" y="0px"
	 width="144px" height="144px" viewBox="0 0 144 144" enable-background="new 0 0 144 144" xml:space="preserve">
<g>
	<g>
		<g>
			<g>
				<g>
					<path fill="#989898" d="M132.516,134.381H11.484c-4.202,0-7.923-2.07-9.971-5.525c-2.048-3.457-2.017-7.64,0.085-11.189
						l31.011-52.441l29.51-49.933c2.101-3.55,5.799-5.673,9.886-5.673c4.086,0,7.775,2.112,9.874,5.673l31.001,52.442l29.521,49.932
						c2.102,3.54,2.133,7.732,0.085,11.189C140.436,132.321,136.708,134.381,132.516,134.381z M28.262,113.77h87.467L72.005,39.79
						L28.262,113.77z"/>
				</g>
			</g>
		</g>
		<g>
			<g>
				<g>
					<path fill="#FFFFFF" d="M71.258,20.45c0.411-0.693,1.084-0.693,1.492,0l29.521,49.921c0.408,0.693,1.081,1.828,1.492,2.521
						l29.499,49.921c0.408,0.695,0.071,1.261-0.747,1.261H73.486c-0.82,0-2.154,0-2.983,0H11.484c-0.82,0-1.157-0.565-0.747-1.261
						l29.52-49.921c0.411-0.693,1.084-1.828,1.492-2.521L71.258,20.45z"/>
				</g>
			</g>
		</g>
		<g>
			<g>
				<g>
					<path fill="#FFFFFF" d="M132.516,133.551H11.484c-3.898,0-7.344-1.912-9.233-5.105c-1.893-3.194-1.861-7.07,0.082-10.358
						l31.011-52.441l29.512-49.933c1.943-3.288,5.357-5.253,9.14-5.253c3.771,0,7.196,1.965,9.14,5.253l31.001,52.453l29.52,49.921
						c1.942,3.288,1.976,7.164,0.084,10.358C139.859,131.639,136.401,133.551,132.516,133.551z M26.79,114.609h90.42L72.005,38.12
						L26.79,114.609z"/>
				</g>
			</g>
		</g>
	</g>
	<g>
		<g>
			<g>
				<path fill="#ED2224" d="M132.516,131.365H11.484c-3.078,0-5.811-1.502-7.292-4.014c-1.49-2.51-1.449-5.567,0.086-8.173
					l31.011-52.452l29.51-49.921c1.532-2.605,4.233-4.171,7.206-4.171c2.963,0,5.661,1.565,7.196,4.171l31.001,52.442l29.52,49.931
					c1.533,2.605,1.576,5.663,0.084,8.173C138.324,129.863,135.594,131.365,132.516,131.365z M22.914,116.794h98.183L72.005,33.75
					L46.709,76.538L22.914,116.794z"/>
			</g>
		</g>
	</g>
	<g>
		<g>
			<g>
				<path fill="#010101" d="M72.174,108.632c-12.555,0-16.19-11.304-19.982-11.304c-3.058,0-9.097,0-12.837,0v15.128h65.427V97.328
					c-3.466,0-7.49,0-10.988,0C89.422,97.318,84.737,108.632,72.174,108.632z"/>
			</g>
		</g>
	</g>
</g>
</svg>
