<?xml version="1.0" encoding="utf-8"?>
<!-- Generator: Adobe Illustrator 16.0.0, SVG Export Plug-In . SVG Version: 6.00 Build 0)  -->
<!DOCTYPE svg PUBLIC "-//W3C//DTD SVG 1.1//EN" "http://www.w3.org/Graphics/SVG/1.1/DTD/svg11.dtd">
<svg version="1.1" id="_x35_0m" xmlns="http://www.w3.org/2000/svg" xmlns:xlink="http://www.w3.org/1999/xlink" x="0px" y="0px"
	 width="144px" height="144px" viewBox="0 0 144 144" enable-background="new 0 0 144 144" xml:space="preserve">
<g>
	<g>
		<g>
			<g>
				<g>
					<path fill="#989898" d="M1.517,128.853c-2.049-3.455-2.017-7.637,0.084-11.188L62.12,15.294
						c2.101-3.549,5.788-5.672,9.874-5.672c4.087,0,7.784,2.111,9.886,5.672l29.519,49.92l31.001,52.451
						c2.101,3.551,2.132,7.732,0.083,11.188c-2.048,3.457-5.767,5.525-9.969,5.525H11.485C7.294,134.378,3.565,132.31,1.517,128.853
						z M71.994,39.792l-43.731,73.986h87.464L71.994,39.792z"/>
				</g>
			</g>
		</g>
		<g>
			<g>
				<g>
					<path fill="#FFFFFF" d="M72.741,20.452c-0.41-0.693-1.083-0.693-1.492,0l-29.52,49.92c-0.41,0.693-1.082,1.828-1.492,2.521
						L10.74,122.812c-0.409,0.693-0.074,1.262,0.745,1.262h59.027c0.82,0,2.154,0,2.983,0h59.018c0.819,0,1.155-0.568,0.745-1.262
						l-29.518-49.918c-0.41-0.693-1.082-1.828-1.493-2.521L72.741,20.452z"/>
				</g>
			</g>
		</g>
		<g>
			<g>
				<g>
					<path fill="#FFFFFF" d="M2.263,128.433c-1.892-3.193-1.859-7.07,0.084-10.357l60.52-102.371
						c1.932-3.287,5.357-5.252,9.139-5.252c3.782,0,7.196,1.965,9.14,5.252l29.508,49.93l31.011,52.441
						c1.934,3.299,1.975,7.164,0.084,10.357s-5.336,5.105-9.233,5.105H11.485C7.599,133.538,4.143,131.636,2.263,128.433z
						 M71.994,38.122l-45.213,76.486h90.427L71.994,38.122z"/>
				</g>
			</g>
		</g>
	</g>
	<g>
		<g>
			<g>
				<path fill="#ED2224" d="M4.195,127.341c-1.491-2.512-1.45-5.557,0.084-8.174l29.519-49.93l31-52.441
					c1.535-2.604,4.234-4.17,7.196-4.17c2.973,0,5.673,1.566,7.207,4.17l29.509,49.92l31.01,52.451
					c1.533,2.605,1.576,5.662,0.084,8.174c-1.492,2.51-4.201,4.012-7.29,4.012H11.485C8.408,131.353,5.677,129.851,4.195,127.341z
					 M97.29,76.538L71.994,33.751L48.2,74.007l-25.295,42.775h98.179L97.29,76.538z"/>
			</g>
		</g>
	</g>
	<g>
		<g>
			<g>
				<polygon fill="#010101" points="114.298,112.905 96.849,84.753 29.502,112.905 				"/>
			</g>
		</g>
	</g>
</g>
</svg>
