<?xml version="1.0" encoding="utf-8"?>
<!-- Generator: Adobe Illustrator 16.0.0, SVG Export Plug-In . SVG Version: 6.00 Build 0)  -->
<!DOCTYPE svg PUBLIC "-//W3C//DTD SVG 1.1//EN" "http://www.w3.org/Graphics/SVG/1.1/DTD/svg11.dtd">
<svg version="1.1" id="_x35_0m" xmlns="http://www.w3.org/2000/svg" xmlns:xlink="http://www.w3.org/1999/xlink" x="0px" y="0px"
	 width="144px" height="144px" viewBox="0 0 144 144" enable-background="new 0 0 144 144" xml:space="preserve">
<g>
	<g>
		<g>
			<g>
				<g>
					<path fill="#989898" d="M132.515,134.385H11.477c-4.192,0-7.921-2.07-9.97-5.526c-2.038-3.457-2.006-7.638,0.084-11.188
						l31.024-52.456l29.5-49.924c2.102-3.552,5.8-5.675,9.886-5.675c4.087,0,7.786,2.112,9.886,5.675l60.515,102.38
						c2.102,3.551,2.132,7.731,0.083,11.188C140.447,132.324,136.717,134.385,132.515,134.385z M28.265,113.771h87.472L72.001,39.79
						L28.265,113.771z"/>
				</g>
			</g>
		</g>
		<g>
			<g>
				<g>
					<path fill="#FFFFFF" d="M71.255,20.449c0.41-0.694,1.082-0.694,1.492,0l29.511,49.923c0.41,0.693,1.082,1.827,1.492,2.521
						l29.511,49.923c0.41,0.694,0.073,1.263-0.746,1.263H73.492c-0.819,0-2.163,0-2.983,0H11.477c-0.819,0-1.155-0.568-0.746-1.263
						l29.511-49.923c0.41-0.694,1.083-1.828,1.492-2.521L71.255,20.449z"/>
				</g>
			</g>
		</g>
		<g>
			<g>
				<g>
					<path fill="#FFFFFF" d="M132.515,133.554H11.477c-3.887,0-7.333-1.911-9.234-5.104c-1.891-3.195-1.849-7.061,0.084-10.359
						L33.35,65.633L62.861,15.71c1.944-3.288,5.358-5.253,9.14-5.253c3.782,0,7.196,1.965,9.141,5.253l31.003,52.457l29.51,49.923
						c1.944,3.288,1.975,7.164,0.095,10.359C139.859,131.643,136.413,133.554,132.515,133.554z M26.784,114.611h90.424
						L72.001,38.119L26.784,114.611z"/>
				</g>
			</g>
		</g>
	</g>
	<g>
		<g>
			<g>
				<path fill="#ED2224" d="M132.515,131.368H11.477c-3.078,0-5.81-1.501-7.291-4.013s-1.45-5.567,0.084-8.173l31.014-52.456
					l29.511-49.925c1.544-2.604,4.234-4.17,7.207-4.17c2.974,0,5.663,1.565,7.207,4.17l31.003,52.446l29.511,49.935
					c1.544,2.605,1.576,5.661,0.095,8.173C138.324,129.867,135.604,131.368,132.515,131.368z M22.917,116.797h98.178L72.001,33.748
					L22.917,116.797z"/>
			</g>
		</g>
	</g>
	<g>
		<g>
			<g>
				<g>
					<path fill="#FFFFFF" d="M60.287,111.271c0-22.43,9.613-41.738,27.241-41.738L60.287,111.271z"/>
				</g>
			</g>
		</g>
		<g>
			<g>
				<g>
					<g>
						<path fill="#010101" d="M53.479,111.271c0,0,0.43-0.504,1.082-1.28c0.641-0.757,1.534-1.745,2.427-2.7
							c0.904-0.956,1.828-1.88,2.511-2.554c0.704-0.651,1.176-1.092,1.176-1.092s0.378,0.503,0.946,1.271
							c0.578,0.767,1.355,1.743,2.164,2.699c0.809,0.956,1.629,1.87,2.259,2.554c0.63,0.66,1.051,1.102,1.051,1.102
							s0.01-0.672,0.021-1.857c0.021-0.59,0.042-1.313,0.083-2.135c0.063-0.807,0.116-1.743,0.221-2.741
							c0.2-2.008,0.515-4.328,1.041-6.744c0.525-2.417,1.25-4.938,2.185-7.304c0.946-2.362,2.081-4.59,3.352-6.429
							c1.271-1.837,2.616-3.297,3.856-4.338c1.25-1.031,2.354-1.683,3.163-2.06c0.199-0.105,0.378-0.2,0.536-0.252
							c0.157-0.063,0.294-0.115,0.399-0.168c0.115-0.042,0.188-0.085,0.252-0.106c0.052-0.021,0.083-0.03,0.083-0.03
							s0.147-0.482,0.452-1.249c0.042-0.097,0.083-0.202,0.126-0.295c0.042-0.095,0.094-0.199,0.147-0.307
							c0.104-0.208,0.209-0.43,0.335-0.661c0.126-0.221,0.252-0.482,0.399-0.715c0.147-0.229,0.305-0.472,0.463-0.714
							c0.168-0.24,0.336-0.482,0.514-0.725c0.179-0.22,0.357-0.441,0.547-0.651c0.368-0.432,0.735-0.852,1.072-1.166
							c0.662-0.642,1.166-1.081,1.166-1.081s-0.483-0.399-1.281-0.999c-0.399-0.305-0.883-0.609-1.419-0.946
							c-0.273-0.167-0.557-0.335-0.861-0.514c-0.295-0.168-0.61-0.315-0.925-0.473c-0.316-0.147-0.641-0.305-0.966-0.452
							c-0.326-0.146-0.651-0.262-0.967-0.389c-0.315-0.115-0.63-0.23-0.935-0.335c-0.158-0.053-0.304-0.097-0.441-0.147
							c-0.147-0.043-0.284-0.085-0.42-0.127c-1.082-0.295-1.849-0.473-1.849-0.473s-0.063,0.021-0.168,0.063
							c-0.116,0.053-0.284,0.115-0.504,0.2c-0.211,0.095-0.484,0.21-0.799,0.337c-0.315,0.135-0.662,0.293-1.061,0.494
							c-1.576,0.744-3.73,2.016-5.936,3.865c-2.207,1.838-4.402,4.275-6.303,7.039c-1.902,2.773-3.467,5.872-4.729,9.014
							c-1.239,3.141-2.153,6.345-2.805,9.349c-0.651,2.996-1.04,5.813-1.281,8.217c-0.136,1.209-0.189,2.312-0.263,3.288
							c-0.052,0.979-0.084,1.828-0.115,2.532C53.49,110.474,53.479,111.271,53.479,111.271z"/>
					</g>
				</g>
			</g>
		</g>
	</g>
</g>
</svg>
