<?xml version="1.0" encoding="utf-8"?>
<!-- Generator: Adobe Illustrator 16.0.0, SVG Export Plug-In . SVG Version: 6.00 Build 0)  -->
<!DOCTYPE svg PUBLIC "-//W3C//DTD SVG 1.1//EN" "http://www.w3.org/Graphics/SVG/1.1/DTD/svg11.dtd">
<svg version="1.1" id="_x35_0m" xmlns="http://www.w3.org/2000/svg" xmlns:xlink="http://www.w3.org/1999/xlink" x="0px" y="0px"
	 width="144px" height="144px" viewBox="0 0 144 144" enable-background="new 0 0 144 144" xml:space="preserve">
<g>
	<g>
		<g>
			<g>
				<g>
					<path fill="#989898" d="M132.528,134.384H11.49c-4.202,0-7.922-2.068-9.971-5.525s-2.007-7.637,0.084-11.189l31.003-52.455
						L62.118,15.29c2.101-3.551,5.789-5.674,9.876-5.674c4.086,0,7.784,2.123,9.886,5.674l31.003,52.455l29.511,49.924
						c2.102,3.553,2.133,7.732,0.085,11.189C140.451,132.315,136.72,134.384,132.528,134.384z M28.268,113.772h87.472L72.004,39.79
						L28.268,113.772z"/>
				</g>
			</g>
		</g>
		<g>
			<g>
				<g>
					<path fill="#FFFFFF" d="M71.257,20.437c0.41-0.691,1.082-0.691,1.492,0l29.512,49.926c0.409,0.693,1.082,1.828,1.491,2.521
						l29.512,49.924c0.409,0.693,0.073,1.26-0.746,1.26H73.496c-0.819,0-2.164,0-2.983,0H11.49c-0.819,0-1.156-0.566-0.747-1.26
						l29.512-49.924c0.41-0.693,1.082-1.828,1.492-2.521L71.257,20.437z"/>
				</g>
			</g>
		</g>
		<g>
			<g>
				<g>
					<path fill="#FFFFFF" d="M132.528,133.544H11.49c-3.888,0-7.344-1.912-9.235-5.105c-1.891-3.203-1.859-7.07,0.085-10.359
						l31.014-52.445l29.51-49.924c1.944-3.289,5.358-5.254,9.142-5.254c3.781,0,7.195,1.965,9.14,5.254l31.003,52.455l29.512,49.924
						c1.942,3.289,1.974,7.166,0.094,10.361C139.862,131.644,136.416,133.544,132.528,133.544z M26.786,114.612h90.436L72.004,38.12
						L26.786,114.612z"/>
				</g>
			</g>
		</g>
	</g>
	<g>
		<g>
			<g>
				<path fill="#ED2224" d="M132.528,131.36H11.49c-3.079,0-5.81-1.504-7.291-4.014c-1.482-2.512-1.45-5.568,0.083-8.176
					l31.004-52.445l29.511-49.924c1.544-2.605,4.233-4.16,7.208-4.16c2.973,0,5.662,1.555,7.207,4.16l60.514,102.381
					c1.545,2.605,1.576,5.662,0.084,8.174C138.328,129.866,135.596,131.36,132.528,131.36z M22.909,116.798h98.179L72.004,33.749
					L46.716,76.528L22.909,116.798z"/>
			</g>
		</g>
	</g>
	<g>
		<g>
			<g>
				<rect x="47.861" y="87.015" fill="#303030" width="47.54" height="18.26"/>
			</g>
		</g>
		<g>
			<g>
				<g>
					<g>
						<path fill="#ED2224" d="M85.504,102.101c-3.352,0-6.073-2.658-6.073-5.938c0-3.277,2.722-5.936,6.073-5.936
							s6.071,2.658,6.071,5.936C91.576,99.442,88.856,102.101,85.504,102.101z"/>
					</g>
				</g>
				<g>
					<g>
						<path fill="#686969" d="M79.326,96.163c0-3.33,2.774-6.029,6.179-6.029c3.403,0,6.177,2.711,6.177,6.029
							c0,3.32-2.773,6.031-6.177,6.031C82.1,102.194,79.326,99.483,79.326,96.163z M91.481,96.163c0-3.225-2.679-5.83-5.977-5.83
							c-3.289,0-5.979,2.615-5.979,5.83s2.679,5.832,5.979,5.832C88.792,101.995,91.481,99.378,91.481,96.163z"/>
					</g>
				</g>
			</g>
			<g>
				<g>
					<g>
						<path fill="#F4DB36" d="M71.625,102.101c-3.361,0-6.073-2.658-6.073-5.938c0-3.277,2.722-5.936,6.073-5.936
							c3.362,0,6.072,2.658,6.072,5.936C77.708,99.442,74.988,102.101,71.625,102.101z"/>
					</g>
				</g>
				<g>
					<g>
						<path fill="#686969" d="M65.449,96.163c0-3.33,2.772-6.029,6.177-6.029c3.403,0,6.178,2.711,6.178,6.029
							c0,3.32-2.774,6.031-6.178,6.031C68.221,102.194,65.449,99.483,65.449,96.163z M77.604,96.163c0-3.225-2.679-5.83-5.979-5.83
							c-3.289,0-5.978,2.615-5.978,5.83s2.679,5.832,5.978,5.832C74.925,101.995,77.604,99.378,77.604,96.163z"/>
					</g>
				</g>
			</g>
			<g>
				<g>
					<g>
						<path fill="#52B848" d="M57.757,102.101c-3.361,0-6.072-2.658-6.072-5.938c0-3.277,2.721-5.936,6.072-5.936
							s6.073,2.658,6.073,5.936C63.831,99.442,61.109,102.101,57.757,102.101z"/>
					</g>
				</g>
				<g>
					<g>
						<path fill="#686969" d="M51.581,96.163c0-3.33,2.773-6.029,6.177-6.029c3.404,0,6.178,2.711,6.178,6.029
							c0,3.32-2.773,6.031-6.178,6.031C54.354,102.194,51.581,99.483,51.581,96.163z M63.725,96.163c0-3.225-2.679-5.83-5.968-5.83
							c-3.299,0-5.979,2.615-5.979,5.83s2.68,5.832,5.979,5.832C61.046,101.995,63.725,99.378,63.725,96.163z"/>
					</g>
				</g>
			</g>
		</g>
	</g>
</g>
</svg>
