<?xml version="1.0" encoding="utf-8"?>
<!-- Generator: Adobe Illustrator 16.0.0, SVG Export Plug-In . SVG Version: 6.00 Build 0)  -->
<!DOCTYPE svg PUBLIC "-//W3C//DTD SVG 1.1//EN" "http://www.w3.org/Graphics/SVG/1.1/DTD/svg11.dtd">
<svg version="1.1" id="_x35_0m" xmlns="http://www.w3.org/2000/svg" xmlns:xlink="http://www.w3.org/1999/xlink" x="0px" y="0px"
	 width="144px" height="144px" viewBox="0 0 144 144" enable-background="new 0 0 144 144" xml:space="preserve">
<g>
	<g>
		<g>
			<g>
				<g>
					<path fill="#989898" d="M1.54,129.099c-2.049-3.435-2.038-7.604,0.021-11.156l29.131-50.129l30.602-52.672
						c2.058-3.54,5.861-5.746,9.916-5.746s7.731,2.091,9.844,5.599l29.896,49.71l31.399,52.22c2.122,3.54,2.194,7.721,0.178,11.198
						c-2.017,3.467-5.724,5.558-9.927,5.6l-121.017,0.883h-0.095C7.306,134.582,3.587,132.534,1.54,129.099z M71.366,39.556
						l-43.165,74.301l87.464-0.63L71.366,39.556z"/>
				</g>
			</g>
		</g>
		<g>
			<g>
				<g>
					<path fill="#FFFFFF" d="M71.964,20.205c-0.42-0.693-1.093-0.683-1.492,0.01L41.343,70.355
						c-0.399,0.693-1.062,1.839-1.471,2.531l-29.131,50.141c-0.399,0.693-0.063,1.271,0.756,1.26l59.018-0.431
						c0.819,0,2.164-0.021,2.983-0.021l59.017-0.431c0.82,0,1.155-0.566,0.735-1.261l-29.897-49.698
						c-0.41-0.693-1.092-1.817-1.512-2.511L71.964,20.205z"/>
				</g>
			</g>
		</g>
		<g>
			<g>
				<g>
					<path fill="#FFFFFF" d="M2.285,128.679c-1.891-3.172-1.88-7.038,0.032-10.326l29.13-50.13l30.601-52.672
						c1.934-3.33,5.368-5.326,9.182-5.326c3.751,0,7.154,1.944,9.108,5.189l29.887,49.71l31.41,52.221
						c1.963,3.277,2.027,7.143,0.167,10.357c-1.859,3.214-5.294,5.146-9.191,5.179l-121.017,0.882h-0.085
						C7.611,133.753,4.176,131.852,2.285,128.679z M95.002,77.226L71.355,37.895L26.73,114.708l90.417-0.662L95.002,77.226z"/>
				</g>
			</g>
		</g>
	</g>
	<g>
		<g>
			<g>
				<path fill="#ED2224" d="M4.218,127.576c-1.492-2.49-1.471-5.536,0.042-8.152l29.13-50.13l30.602-52.672
					c1.533-2.636,4.233-4.212,7.227-4.212c2.941,0,5.631,1.544,7.176,4.118l29.886,49.698l31.399,52.221
					c1.566,2.595,1.618,5.651,0.158,8.173c-1.461,2.521-4.182,4.044-7.259,4.064L11.55,131.567h-0.063
					C8.419,131.567,5.7,130.076,4.218,127.576z M96.935,76.122L71.324,33.525l-48.449,83.398l98.17-0.714L96.935,76.122z"/>
			</g>
		</g>
	</g>
	<g>
		<g>
			<g>
				<g>
					<rect x="75.273" y="61.017" fill="#010101" width="7.564" height="51.379"/>
				</g>
			</g>
		</g>
		<g>
			<g>
				<g>
					<path fill="#010101" d="M53.697,112.407h7.574V97.354c0-3.509,1.984-5.778,4.285-8.394c2.428-2.774,5.169-5.904,5.169-10.548
						V61.017h-7.563v17.386c0,1.817-1.271,3.371-3.352,5.735c-2.721,3.099-6.113,6.965-6.113,13.205V112.407z"/>
				</g>
			</g>
		</g>
	</g>
</g>
</svg>
