<?xml version="1.0" encoding="utf-8"?>
<!-- Generator: Adobe Illustrator 16.0.0, SVG Export Plug-In . SVG Version: 6.00 Build 0)  -->
<!DOCTYPE svg PUBLIC "-//W3C//DTD SVG 1.1//EN" "http://www.w3.org/Graphics/SVG/1.1/DTD/svg11.dtd">
<svg version="1.1" id="_x35_0m" xmlns="http://www.w3.org/2000/svg" xmlns:xlink="http://www.w3.org/1999/xlink" x="0px" y="0px"
	 width="144px" height="144px" viewBox="0 0 144 144" enable-background="new 0 0 144 144" xml:space="preserve">
<g>
	<g>
		<g>
			<g>
				<g>
					<path fill="#989898" d="M132.525,134.381H11.485c-4.203,0-7.933-2.061-9.971-5.517c-2.049-3.456-2.017-7.648,0.085-11.2
						l31.013-52.445l29.512-49.925c2.102-3.551,5.789-5.675,9.876-5.675c4.088,0,7.785,2.124,9.876,5.675l31.004,52.457
						l29.521,49.924c2.101,3.553,2.134,7.733,0.083,11.189C140.457,132.32,136.718,134.381,132.525,134.381z M28.273,113.767h87.474
						L72.01,39.784L28.273,113.767z"/>
				</g>
			</g>
		</g>
		<g>
			<g>
				<g>
					<path fill="#FFFFFF" d="M71.265,20.432c0.41-0.694,1.083-0.694,1.492,0l29.511,49.925c0.41,0.693,1.083,1.827,1.492,2.521
						l29.522,49.927c0.41,0.692,0.073,1.26-0.746,1.26H73.502c-0.818,0-2.164,0-2.982,0H11.485c-0.819,0-1.155-0.567-0.746-1.26
						l29.522-49.927c0.41-0.693,1.082-1.827,1.491-2.521L71.265,20.432z"/>
				</g>
			</g>
		</g>
		<g>
			<g>
				<g>
					<path fill="#FFFFFF" d="M132.525,133.539H11.485c-3.898,0-7.344-1.911-9.235-5.105c-1.892-3.193-1.859-7.069,0.084-10.36
						l31.004-52.455L62.85,15.693c1.943-3.288,5.358-5.253,9.14-5.253c3.782,0,7.197,1.965,9.141,5.253l31.003,52.457l29.523,49.923
						c1.942,3.291,1.975,7.167,0.084,10.36C139.869,131.639,136.414,133.539,132.525,133.539z M26.793,114.606h90.436L72.01,38.113
						L26.793,114.606z"/>
				</g>
			</g>
		</g>
	</g>
	<g>
		<g>
			<g>
				<path fill="#ED2224" d="M132.525,131.365H11.485c-3.08,0-5.81-1.503-7.291-4.014c-1.492-2.511-1.45-5.568,0.084-8.174
					l31.013-52.456l29.512-49.926c1.536-2.604,4.235-4.16,7.207-4.16c2.974,0,5.664,1.556,7.209,4.16l31.003,52.456l29.522,49.926
					c1.533,2.605,1.576,5.663,0.083,8.174C138.336,129.862,135.604,131.365,132.525,131.365z M22.915,116.793h98.19L72.01,33.742
					L46.712,76.534L22.915,116.793z"/>
			</g>
		</g>
	</g>
</g>
</svg>
