<?xml version="1.0" encoding="utf-8"?>
<!-- Generator: Adobe Illustrator 16.0.0, SVG Export Plug-In . SVG Version: 6.00 Build 0)  -->
<!DOCTYPE svg PUBLIC "-//W3C//DTD SVG 1.1//EN" "http://www.w3.org/Graphics/SVG/1.1/DTD/svg11.dtd">
<svg version="1.1" id="_x35_0m" xmlns="http://www.w3.org/2000/svg" xmlns:xlink="http://www.w3.org/1999/xlink" x="0px" y="0px"
	 width="144px" height="144px" viewBox="0 0 144 144" enable-background="new 0 0 144 144" xml:space="preserve">
<g>
	<g>
		<g>
			<g>
				<g>
					<path fill="#989898" d="M132.528,134.385H11.49c-4.203,0-7.922-2.07-9.971-5.527c-2.049-3.456-2.007-7.638,0.084-11.188
						l31.003-52.446l29.512-49.935c2.102-3.552,5.799-5.674,9.887-5.674c4.086,0,7.784,2.111,9.874,5.674l31.004,52.445
						l29.511,49.936c2.102,3.54,2.133,7.731,0.085,11.188C140.45,132.314,136.731,134.385,132.528,134.385z M28.278,113.771h87.473
						L72.014,39.778L49.395,78.04L28.278,113.771z"/>
				</g>
			</g>
		</g>
		<g>
			<g>
				<g>
					<path fill="#FFFFFF" d="M71.257,20.437c0.41-0.693,1.082-0.693,1.492,0l29.512,49.925c0.409,0.693,1.082,1.839,1.491,2.521
						l29.512,49.924c0.409,0.693,0.073,1.26-0.746,1.26H73.506c-0.819,0-2.164,0-2.984,0H11.49c-0.819,0-1.156-0.566-0.746-1.26
						l29.511-49.924c0.41-0.694,1.082-1.828,1.492-2.521L71.257,20.437z"/>
				</g>
			</g>
		</g>
		<g>
			<g>
				<g>
					<path fill="#FFFFFF" d="M132.528,133.543H11.49c-3.888,0-7.344-1.911-9.235-5.105c-1.891-3.194-1.849-7.07,0.084-10.358
						l31.014-52.446l29.511-49.935c1.944-3.288,5.358-5.253,9.142-5.253c3.781,0,7.195,1.965,9.14,5.253l31.003,52.456
						l29.511,49.925c1.943,3.288,1.975,7.164,0.084,10.358C139.862,131.632,136.416,133.543,132.528,133.543z M26.786,114.602
						h90.436L72.014,38.108L48.66,77.61L26.786,114.602z"/>
				</g>
			</g>
		</g>
	</g>
	<g>
		<g>
			<g>
				<path fill="#ED2224" d="M132.528,131.358H11.49c-3.079,0-5.811-1.502-7.291-4.014c-1.481-2.511-1.45-5.568,0.083-8.173
					l31.014-52.456l29.512-49.925c1.533-2.605,4.233-4.171,7.207-4.171s5.663,1.565,7.206,4.171l31.004,52.445l29.511,49.936
					c1.545,2.604,1.576,5.662,0.085,8.173C138.338,129.856,135.606,131.358,132.528,131.358z M22.919,116.786h98.189L72.014,33.748
					l-25.298,42.78L22.919,116.786z"/>
			</g>
		</g>
	</g>
	<g>
		<g>
			<g>
				<path fill="#010101" d="M88.519,71.412c-0.085-0.063-0.157-0.116-0.284-0.137l-14.613-2.333L45.875,89.797l-0.063,0.137
					c-0.074,0.146-1.744,3.613,0.598,6.702c1.388,1.839,2.974,2.218,4.056,2.218c0.799,0,1.355-0.211,1.429-0.242l31.098-13.585
					c0.137-0.01,0.253-0.063,0.356-0.157l0.137-0.063l0.043-0.146l-0.105-0.011l3.068-7.586v33.021c0,0.693,0.619,1.25,1.334,1.25
					c0.714,0,1.334-0.557,1.334-1.25V72.515C89.16,72.042,88.939,71.611,88.519,71.412z M51.748,97.298l-0.356,0.157
					c0,0-0.378,0.137-0.925,0.137c-0.787,0-1.954-0.294-3.025-1.712c-1.671-2.196-0.777-4.686-0.525-5.285l0.399-0.294
					c0.956,0.199,2.479,0.778,3.572,2.512C51.895,94.43,51.853,96.29,51.748,97.298z M62.17,92.749l-6.115,2.668
					c0.043-0.924-0.021-2.931-1.113-5c-1.03-1.944-2.669-2.784-3.624-3.109l5.095-3.835c1.167,0.389,3.089,1.365,4.518,3.709
					C62.202,89.292,62.254,91.541,62.17,92.749z M74.598,87.317l-5.452,2.385c0.146-1.029,0.294-3.52-1.156-6.387
					c-1.376-2.701-4.117-3.877-5.609-4.329l5.096-3.824c1.197,0.42,3.792,1.639,5.861,4.822
					C74.946,82.484,74.766,85.889,74.598,87.317z M83.717,80.626c-0.126-1.744-0.557-3.825-1.911-5.705
					c-1.251-1.724-2.795-3.026-4.203-3.95l9.004,1.345c-0.011,0.063-0.115,0.136-0.115,0.21v1.229L83.717,80.626z"/>
			</g>
		</g>
	</g>
</g>
</svg>
