<?xml version="1.0" encoding="utf-8"?>
<!-- Generator: Adobe Illustrator 16.0.0, SVG Export Plug-In . SVG Version: 6.00 Build 0)  -->
<!DOCTYPE svg PUBLIC "-//W3C//DTD SVG 1.1//EN" "http://www.w3.org/Graphics/SVG/1.1/DTD/svg11.dtd">
<svg version="1.1" id="_x35_0m" xmlns="http://www.w3.org/2000/svg" xmlns:xlink="http://www.w3.org/1999/xlink" x="0px" y="0px"
	 width="144px" height="144px" viewBox="0 0 144 144" enable-background="new 0 0 144 144" xml:space="preserve">
<g>
	<g>
		<g>
			<g>
				<g>
					<path fill="#989898" d="M132.526,134.539H11.495c-4.202,0-7.932-2.07-9.97-5.525c-2.049-3.457-2.018-7.639,0.083-11.189
						L32.61,65.371l29.51-49.922c2.101-3.549,5.788-5.672,9.886-5.672c4.086,0,7.784,2.111,9.875,5.672l31,52.443l29.51,49.932
						c2.102,3.541,2.133,7.732,0.085,11.189C140.448,132.469,136.719,134.539,132.526,134.539z M28.272,113.928h87.467
						L72.006,39.949L28.272,113.928z"/>
				</g>
			</g>
		</g>
		<g>
			<g>
				<g>
					<path fill="#FFFFFF" d="M71.259,20.598c0.41-0.693,1.082-0.693,1.492,0l29.51,49.922c0.41,0.691,1.082,1.828,1.492,2.521
						l29.51,49.922c0.409,0.693,0.072,1.26-0.747,1.26H73.497c-0.819,0-2.164,0-2.982,0h-59.02c-0.82,0-1.156-0.566-0.746-1.26
						l29.509-49.922c0.41-0.693,1.083-1.83,1.492-2.521L71.259,20.598z"/>
				</g>
			</g>
		</g>
		<g>
			<g>
				<g>
					<path fill="#FFFFFF" d="M132.526,133.699H11.495c-3.898,0-7.344-1.912-9.234-5.105c-1.891-3.195-1.859-7.061,0.084-10.359
						l31.002-52.443l29.52-49.932c1.943-3.287,5.357-5.252,9.14-5.252c3.781,0,7.195,1.965,9.14,5.252l60.511,102.375
						c1.942,3.289,1.974,7.164,0.083,10.359C139.859,131.797,136.413,133.699,132.526,133.699z M26.79,114.768h90.431l-45.215-76.49
						L26.79,114.768z"/>
				</g>
			</g>
		</g>
	</g>
	<g>
		<g>
			<g>
				<g>
					<path fill="#010101" d="M95.999,79.354H80.787v3.006v3.266H61.731v-6.271h-6.355v6.271h-1.324
						c-4.822,0-9.129,3.898-9.129,9.014c0,5.127,3.918,9.014,6.219,9.014v0.777h-2.121l-4.234,4.182h8.783
						c0.65,2.238,2.709,3.896,5.199,3.896s4.549-1.648,5.201-3.896h2.646c0.65,2.238,2.711,3.896,5.199,3.896
						c2.48,0,4.549-1.648,5.19-3.896h2.647c0.641,2.238,2.71,3.896,5.2,3.896c2.479,0,4.549-1.648,5.2-3.896h5.547v-4.182V81.445
						h2.111v-2.092H95.999z M93.488,89.807h-8.478v-8.361h8.478V89.807z"/>
				</g>
			</g>
		</g>
		<g>
			<g>
				<g>
					<path fill="#010101" d="M59.146,77.82l-0.262,0.264c3.046-0.055,1.995-1.861,3.991-3.068c2.532-1.523,4.644,0.713,6.734-2.176
						c1.481-2.049,4.423,0.979,6.376,0.379c2.679-0.809,1.671-3.299,5.032-4.654c2.458-0.986,6.313,6.682,8.855,1.02
						c1.492-3.309,7.176-0.021,2.375-5.672c0.936-1.566,4.538-2.197,3.624-5.957c-0.767-3.174-5.357-0.074-5.777,1.008
						c-4.202,10.979-7.679,4.201-15.989,4.035c-3.162-0.064-5.41,2.279-8.446,2.584c-3.729,0.377-7.206-1.881-10.663,0.682
						C47.392,71.873,56.343,74.385,59.146,77.82z"/>
				</g>
			</g>
		</g>
	</g>
	<g>
		<g>
			<g>
				<path fill="#ED2224" d="M132.526,131.514H11.495c-3.089,0-5.81-1.504-7.291-4.014c-1.492-2.51-1.449-5.568,0.084-8.174
					l31.001-52.441L64.81,16.963c1.533-2.605,4.234-4.17,7.207-4.17s5.662,1.564,7.206,4.17l60.511,102.373
					c1.544,2.607,1.576,5.664,0.084,8.176C138.325,130.01,135.604,131.514,132.526,131.514z M22.914,116.953h98.183L72.006,33.908
					L46.72,76.686L22.914,116.953z"/>
			</g>
		</g>
	</g>
</g>
</svg>
