<?xml version="1.0" encoding="utf-8"?>
<!-- Generator: Adobe Illustrator 16.0.0, SVG Export Plug-In . SVG Version: 6.00 Build 0)  -->
<!DOCTYPE svg PUBLIC "-//W3C//DTD SVG 1.1//EN" "http://www.w3.org/Graphics/SVG/1.1/DTD/svg11.dtd">
<svg version="1.1" id="_x35_0m" xmlns="http://www.w3.org/2000/svg" xmlns:xlink="http://www.w3.org/1999/xlink" x="0px" y="0px"
	 width="144px" height="144px" viewBox="0 0 144 144" enable-background="new 0 0 144 144" xml:space="preserve">
<g>
	<g>
		<g>
			<g>
				<g>
					<g>
						<path fill="#989898" d="M132.514,134.39H11.475c-4.202,0-7.921-2.07-9.97-5.527c-2.038-3.455-2.006-7.637,0.095-11.188
							l31.003-52.457l29.511-49.934c2.102-3.551,5.8-5.674,9.886-5.674c4.087,0,7.785,2.111,9.886,5.674l31.003,52.445
							l29.511,49.934c2.102,3.553,2.133,7.732,0.095,11.189C140.435,132.319,136.705,134.39,132.514,134.39z M28.253,113.776h87.472
							L71.989,39.784L28.253,113.776z"/>
					</g>
				</g>
			</g>
			<g>
				<g>
					<g>
						<path fill="#FFFFFF" d="M71.243,20.442c0.41-0.693,1.082-0.693,1.492,0l29.512,49.924c0.41,0.693,1.082,1.828,1.492,2.521
							l29.51,49.924c0.411,0.693,0.074,1.26-0.745,1.26H73.481c-0.819,0-2.164,0-2.984,0H11.475c-0.819,0-1.156-0.566-0.746-1.26
							L40.24,72.888c0.41-0.693,1.082-1.828,1.492-2.521L71.243,20.442z"/>
					</g>
				</g>
			</g>
			<g>
				<g>
					<g>
						<path fill="#FFFFFF" d="M132.514,133.548H11.475c-3.887,0-7.344-1.91-9.235-5.105c-1.891-3.193-1.859-7.07,0.084-10.359
							l31.013-52.445l29.511-49.934c1.944-3.289,5.358-5.254,9.141-5.254s7.196,1.965,9.14,5.254l31.003,52.455l29.521,49.924
							c1.944,3.289,1.976,7.166,0.095,10.359C139.847,131.638,136.401,133.548,132.514,133.548z M26.782,114.616h90.424
							L71.989,38.124L26.782,114.616z"/>
					</g>
				</g>
			</g>
		</g>
		<g>
			<g>
				<g>
					<path fill="#ED2224" d="M132.514,131.364H11.475c-3.078,0-5.81-1.504-7.291-4.014c-1.492-2.512-1.45-5.559,0.084-8.174
						L35.271,66.72l29.511-49.924c1.544-2.605,4.234-4.17,7.207-4.17s5.663,1.564,7.207,4.17l31.003,52.445l29.511,49.936
						c1.544,2.605,1.576,5.662,0.095,8.174C138.323,129.86,135.592,131.364,132.514,131.364z M22.905,116.802h98.178L71.989,33.753
						L46.701,76.534L22.905,116.802z"/>
				</g>
			</g>
		</g>
	</g>
	<g>
		<g>
			<g>
				<polygon fill="#010101" points="95.092,83.446 84.47,65.481 73.848,83.446 78.997,83.446 78.997,111.591 90.217,111.591 
					90.217,83.446 				"/>
			</g>
		</g>
		<g>
			<g>
				<polygon fill="#010101" points="67.776,66.437 56.755,66.437 56.755,94.771 51.565,94.771 62.187,112.735 72.809,94.771 
					67.776,94.771 				"/>
			</g>
		</g>
	</g>
</g>
</svg>
