<?xml version="1.0" encoding="utf-8"?>
<!-- Generator: Adobe Illustrator 16.0.0, SVG Export Plug-In . SVG Version: 6.00 Build 0)  -->
<!DOCTYPE svg PUBLIC "-//W3C//DTD SVG 1.1//EN" "http://www.w3.org/Graphics/SVG/1.1/DTD/svg11.dtd">
<svg version="1.1" id="_x35_0m" xmlns="http://www.w3.org/2000/svg" xmlns:xlink="http://www.w3.org/1999/xlink" x="0px" y="0px"
	 width="144px" height="144px" viewBox="0 0 144 144" enable-background="new 0 0 144 144" xml:space="preserve">
<g>
	<g>
		<g>
			<g>
				<g>
					<path fill="#989898" d="M132.517,134.378H11.489c-4.201,0-7.931-2.068-9.979-5.525c-2.038-3.457-2.007-7.637,0.095-11.199
						l31-52.439l29.52-49.92c2.09-3.551,5.787-5.672,9.874-5.672c4.086,0,7.784,2.121,9.886,5.672l31,52.441l29.508,49.918
						c2.111,3.551,2.133,7.732,0.095,11.199C140.438,132.31,136.709,134.378,132.517,134.378z M28.266,113.767h87.465L71.998,39.792
						L28.266,113.767z"/>
				</g>
			</g>
		</g>
		<g>
			<g>
				<g>
					<path fill="#FFFFFF" d="M71.252,20.442c0.421-0.695,1.093-0.695,1.491,0l29.51,49.918c0.42,0.693,1.092,1.828,1.491,2.521
						l29.519,49.92c0.41,0.693,0.063,1.26-0.746,1.26H73.49c-0.819,0-2.165,0-2.983,0H11.489c-0.818,0-1.155-0.566-0.746-1.26
						l29.52-49.92c0.409-0.693,1.082-1.828,1.491-2.521L71.252,20.442z"/>
				</g>
			</g>
		</g>
		<g>
			<g>
				<g>
					<path fill="#FFFFFF" d="M132.517,133.538H11.489c-3.896,0-7.343-1.912-9.233-5.105s-1.859-7.07,0.084-10.357l31-52.453
						l29.519-49.918c1.934-3.289,5.357-5.252,9.14-5.252s7.195,1.963,9.14,5.252l31,52.451l29.509,49.92
						c1.942,3.287,1.974,7.164,0.094,10.357C139.86,131.636,136.394,133.538,132.517,133.538z M26.784,114.608h90.417L71.998,38.122
						L48.646,77.62L26.784,114.608z"/>
				</g>
			</g>
		</g>
	</g>
	<g>
		<g>
			<g>
				<path fill="#ED2224" d="M132.517,131.353H11.489c-3.088,0-5.809-1.502-7.29-4.012c-1.492-2.512-1.45-5.568,0.084-8.174
					l31-52.451l29.52-49.92c1.533-2.604,4.233-4.16,7.195-4.16c2.974,0,5.673,1.557,7.207,4.16l30.999,52.451l29.509,49.92
					c1.545,2.605,1.576,5.662,0.095,8.174C138.316,129.86,135.595,131.353,132.517,131.353z M22.908,116.782h98.169L95.803,74.007
					L71.998,33.751L22.908,116.782z"/>
			</g>
		</g>
	</g>
	<g>
		<g>
			<g>
				<g>
					<path fill="#010101" d="M65.442,100.194c-0.199,1.281,0.589,2.502,1.892,2.689l0.389,0.063
						c1.313,0.201,2.521-0.713,2.731-1.996l0.398-2.553l-5.011-0.754L65.442,100.194z"/>
				</g>
			</g>
		</g>
		<g>
			<g>
				<g>
					<path fill="#010101" d="M90.991,104.019c-0.2,1.281,0.735,2.521,2.049,2.711l0.389,0.063c1.313,0.199,2.385-0.734,2.584-2.018
						l0.398-2.553l-5.021-0.746L90.991,104.019z"/>
				</g>
			</g>
		</g>
		<g>
			<g>
				<g>
					<path fill="#010101" d="M96.106,81.128c-0.104-0.389-0.43-0.682-0.84-0.744l-21.871-3.279c-0.41-0.063-0.819,0.117-1.041,0.463
						c0,0-8.435,11.398-8.708,13.111c-0.473,3.045-0.356,5.439,2.825,5.914l29.404,4.412c3.193,0.471,4.045-1.756,4.518-4.801
						C100.666,94.479,96.106,81.128,96.106,81.128z M73.753,79.216l20.516,3.078c0,0,2.563,7.68,2.248,7.637l-27.261-4.084
						C68.952,85.792,73.753,79.216,73.753,79.216z"/>
				</g>
			</g>
		</g>
	</g>
	<g>
		<g>
			<g>
				<rect x="33.718" y="105.144" fill="#010101" width="37.923" height="6.785"/>
			</g>
		</g>
	</g>
	<g>
		<g>
			<g>
				<path fill="#010101" d="M80.434,114.198c0.819,0.566,2.363,0,2.921-0.641c0.451-0.525,0.64-1.334-0.074-1.734
					c-0.231-0.125-0.462-0.094-0.725-0.094c-0.357,0-0.735-0.189-1.082-0.178c-0.199,0.01-0.515,0.24-0.704,0.346
					C79.939,112.36,79.53,113.567,80.434,114.198z"/>
			</g>
		</g>
	</g>
	<g>
		<g>
			<g>
				<path fill="#010101" d="M85.318,107.485c-0.389,0.221-0.756,0.514-0.776,0.967c-0.033,0.547-0.295,1.061-0.127,1.617
					c0.147,0.525,0.893,0.902,1.345,1.145c1.271,0.693,3.12,1.082,3.718-0.588c0.264-0.734,0.326-1.691-0.083-2.395
					c-0.378-0.631-1.124-0.914-1.817-1.072C86.789,106.981,86.001,107.075,85.318,107.485z"/>
			</g>
		</g>
	</g>
	<g>
		<g>
			<g>
				<path fill="#010101" d="M83.018,106.929c0.242-0.547,0.147-1.104,0.021-1.648c-0.072-0.357-0.188-1.01-0.641-1.094
					c-0.22-0.043-0.514-0.105-0.734-0.031c-0.525,0.199-0.715,0.619-0.945,1.094c-0.222,0.471-0.222,1.279,0.063,1.732
					c0.295,0.463,0.818,0.441,1.313,0.494C82.618,107.528,82.809,107.413,83.018,106.929z"/>
			</g>
		</g>
	</g>
	<g>
		<g>
			<g>
				<path fill="#010101" d="M100.288,108.946c0.336-0.441,0.735-1.063,0.787-1.619c0.042-0.461-0.461-1.113-0.903-1.27
					c-0.263-0.096-0.608-0.021-0.871,0.041c-0.337,0.084-0.62,0.252-0.925,0.389c-0.273,0.115-0.515,0.221-0.725,0.441
					c-0.241,0.262-0.421,0.703-0.441,1.061c-0.031,0.672,0.463,1.24,1.04,1.545C99.027,109.954,99.784,109.606,100.288,108.946z"/>
			</g>
		</g>
	</g>
	<g>
		<g>
			<g>
				<path fill="#010101" d="M94.237,112.087c0.115-0.211,0.273-0.367,0.409-0.557c0.337-0.453-0.146-0.756-0.557-0.924
					c-0.2-0.074-0.378-0.086-0.588-0.064c-0.284,0.043-0.589,0.043-0.861,0.096c-0.157,0.041-0.336,0.125-0.462,0.23
					c-0.252,0.199-0.379,0.578-0.421,0.893c-0.042,0.273-0.011,0.578,0.021,0.852c0.073,0.609,0.409,1.051,1.103,0.936
					C93.67,113.421,93.923,112.696,94.237,112.087z"/>
			</g>
		</g>
	</g>
	<g>
		<g>
			<g>
				<path fill="#010101" d="M101.538,114.104c0.158-0.432,0.115-0.926-0.241-1.262c-0.337-0.314-0.862-0.473-1.313-0.535
					c-0.368-0.043-0.777-0.094-1.134-0.063c-0.651,0.063-1.125,0.494-1.051,1.176c0.063,0.557,0.514,1.219,1.028,1.471
					c0.158,0.072,0.316,0.178,0.474,0.242c0.378,0.156,0.903,0.125,1.303,0.094c0.294-0.021,0.503-0.242,0.651-0.473
					C101.37,114.556,101.464,114.325,101.538,114.104z"/>
			</g>
		</g>
	</g>
	<g>
		<g>
			<g>
				<path fill="#010101" d="M107.357,111.446c0.157-0.369,0.263-0.82,0.168-1.219c-0.042-0.178-0.114-0.367-0.23-0.525
					c-0.115-0.168-0.306-0.252-0.473-0.379c-0.179-0.137-0.305-0.242-0.557-0.262c-0.337-0.031-0.693-0.084-1.009,0.041
					c-0.493,0.18-0.872,0.695-1.029,1.166c-0.2,0.578,0.011,1.188,0.399,1.66c0.157,0.18,0.378,0.242,0.577,0.357
					c0.231,0.137,0.494,0.137,0.746,0.084c0.179-0.031,0.357-0.031,0.536-0.063C106.906,112.245,107.211,111.804,107.357,111.446z"
					/>
			</g>
		</g>
	</g>
</g>
</svg>
