<?xml version="1.0" encoding="utf-8"?>
<!-- Generator: Adobe Illustrator 16.0.0, SVG Export Plug-In . SVG Version: 6.00 Build 0)  -->
<!DOCTYPE svg PUBLIC "-//W3C//DTD SVG 1.1//EN" "http://www.w3.org/Graphics/SVG/1.1/DTD/svg11.dtd">
<svg version="1.1" id="_x35_0m" xmlns="http://www.w3.org/2000/svg" xmlns:xlink="http://www.w3.org/1999/xlink" x="0px" y="0px"
	 width="144px" height="144px" viewBox="0 0 144 144" enable-background="new 0 0 144 144" xml:space="preserve">
<g>
	<g>
		<g>
			<g>
				<g>
					<path fill="#989898" d="M132.521,134.599h-0.094L11.41,133.718c-4.202-0.033-7.91-2.123-9.938-5.6
						c-2.018-3.479-1.943-7.66,0.178-11.199L33.06,64.71l29.897-49.709c2.112-3.51,5.788-5.6,9.844-5.6
						c4.055,0,7.856,2.195,9.916,5.746l30.602,52.672l29.12,50.129c2.068,3.561,2.068,7.721,0.021,11.156
						C140.41,132.55,136.703,134.599,132.521,134.599z M28.354,113.231l87.464,0.631L72.642,39.562L28.354,113.231z"/>
				</g>
			</g>
		</g>
		<g>
			<g>
				<g>
					<path fill="#FFFFFF" d="M72.044,20.222c0.42-0.693,1.092-0.684,1.491,0.01l29.131,50.141c0.399,0.693,1.061,1.838,1.471,2.531
						l29.13,50.131c0.399,0.691,0.063,1.27-0.757,1.26l-59.017-0.432c-0.818,0-2.164-0.02-2.983-0.02l-59.017-0.432
						c-0.819,0-1.156-0.568-0.735-1.26L40.645,72.44c0.42-0.693,1.093-1.816,1.513-2.51L72.044,20.222z"/>
				</g>
			</g>
		</g>
		<g>
			<g>
				<g>
					<path fill="#FFFFFF" d="M132.521,133.769h-0.084L11.41,132.886c-3.897-0.031-7.322-1.963-9.191-5.178
						c-1.87-3.203-1.797-7.08,0.168-10.359l31.41-52.219l29.886-49.709c1.954-3.246,5.357-5.189,9.108-5.189
						c3.803,0,7.238,1.984,9.181,5.326l30.591,52.672l29.13,50.129c1.912,3.299,1.923,7.154,0.021,10.326
						C139.833,131.868,136.397,133.769,132.521,133.769z M26.863,114.052l90.416,0.66L72.665,37.901l-23.668,39.33L26.863,114.052z"
						/>
				</g>
			</g>
		</g>
	</g>
	<g>
		<g>
			<g>
				<path fill="#ED2224" d="M132.521,131.573h-0.073L11.419,130.69c-3.078-0.02-5.798-1.545-7.258-4.064
					c-1.471-2.521-1.408-5.578,0.156-8.174l31.4-52.219l29.887-49.699c1.544-2.574,4.232-4.117,7.186-4.117
					c2.994,0,5.693,1.574,7.228,4.211L110.607,69.3l29.131,50.141c1.514,2.615,1.534,5.662,0.043,8.152
					C138.289,130.081,135.588,131.573,132.521,131.573z M22.965,116.206l98.169,0.713L72.696,33.53L47.074,76.128L22.965,116.206z"
					/>
			</g>
		</g>
	</g>
	<g>
		<g>
			<g>
				<g>
					<rect x="61.171" y="61.032" fill="#010101" width="7.563" height="51.381"/>
				</g>
			</g>
		</g>
		<g>
			<g>
				<g>
					<path fill="#010101" d="M90.313,112.413h-7.575V97.37c0-3.51-1.985-5.777-4.285-8.395c-2.427-2.773-5.18-5.902-5.18-10.547
						V61.032h7.564v17.387c0,1.816,1.271,3.361,3.361,5.734c2.721,3.1,6.114,6.965,6.114,13.205V112.413L90.313,112.413z"/>
				</g>
			</g>
		</g>
	</g>
</g>
</svg>
