<?xml version="1.0" encoding="utf-8"?>
<!-- Generator: Adobe Illustrator 16.0.0, SVG Export Plug-In . SVG Version: 6.00 Build 0)  -->
<!DOCTYPE svg PUBLIC "-//W3C//DTD SVG 1.1//EN" "http://www.w3.org/Graphics/SVG/1.1/DTD/svg11.dtd">
<svg version="1.1" id="_x35_0m" xmlns="http://www.w3.org/2000/svg" xmlns:xlink="http://www.w3.org/1999/xlink" x="0px" y="0px"
	 width="144px" height="144px" viewBox="0 0 144 144" enable-background="new 0 0 144 144" xml:space="preserve">
<g>
	<g>
		<g>
			<g>
				<g>
					<path fill="#989898" d="M1.515,128.854c-2.049-3.458-2.007-7.648,0.083-11.201L31.109,67.73l31.003-52.444
						c2.101-3.553,5.799-5.675,9.886-5.675c4.086,0,7.785,2.122,9.875,5.675l29.521,49.933l31.003,52.446
						c2.1,3.55,2.132,7.73,0.083,11.198c-2.048,3.456-5.767,5.525-9.969,5.525H11.474C7.282,134.379,3.553,132.309,1.515,128.854z
						 M71.998,39.785l-43.736,73.992h87.471L71.998,39.785z"/>
				</g>
			</g>
		</g>
		<g>
			<g>
				<g>
					<path fill="#FFFFFF" d="M72.744,20.442c-0.41-0.692-1.082-0.692-1.491,0L41.741,70.367c-0.41,0.693-1.082,1.827-1.492,2.521
						l-29.51,49.923c-0.41,0.693-0.074,1.261,0.746,1.261h59.032c0.819,0,2.164,0,2.983,0h59.033c0.819,0,1.156-0.567,0.746-1.261
						l-29.532-49.923c-0.41-0.694-1.082-1.828-1.492-2.521L72.744,20.442z"/>
				</g>
			</g>
		</g>
		<g>
			<g>
				<g>
					<path fill="#FFFFFF" d="M2.25,128.443c-1.891-3.205-1.849-7.07,0.094-10.359L31.855,68.16l31.003-52.455
						c1.944-3.288,5.358-5.253,9.14-5.253c3.782,0,7.197,1.965,9.14,5.253l29.51,49.923l31.003,52.456
						c1.944,3.289,1.975,7.164,0.084,10.359c-1.891,3.193-5.337,5.104-9.235,5.104H11.474C7.587,133.548,4.141,131.637,2.25,128.443
						z M95.353,77.626L71.998,38.114l-45.217,76.492h90.423L95.353,77.626z"/>
				</g>
			</g>
		</g>
	</g>
	<g>
		<g>
			<g>
				<path fill="#ED2224" d="M4.183,127.351c-1.481-2.512-1.45-5.568,0.083-8.173l29.511-49.925l31.013-52.456
					c1.534-2.604,4.234-4.16,7.207-4.16s5.663,1.556,7.207,4.16l29.511,49.935l31.002,52.446c1.544,2.604,1.575,5.661,0.083,8.173
					c-1.481,2.511-4.212,4.013-7.29,4.013H11.474C8.406,131.363,5.675,129.861,4.183,127.351z M97.296,76.534L71.998,33.743
					l-49.094,83.048h98.177L97.296,76.534z"/>
			</g>
		</g>
	</g>
	<g>
		<g>
			<g>
				<g>
					<path fill="#010101" d="M56.449,105.52h0.011C56.512,105.551,56.534,105.561,56.449,105.52z"/>
				</g>
			</g>
		</g>
		<g>
			<g>
				<g>
					<path fill="#010101" d="M51.522,75.188v19.006l0.021,0.43l0.032,0.379c0,0.242,0.021,0.484,0.031,0.736
						c0.032,0.482,0.074,0.967,0.137,1.481c0.063,0.513,0.137,1.039,0.252,1.607c0.116,0.566,0.263,1.187,0.525,1.911
						c0.063,0.167,0.147,0.379,0.221,0.566c0.042,0.095,0.084,0.201,0.137,0.305c0.052,0.104,0.094,0.212,0.157,0.316
						c0.063,0.115,0.116,0.23,0.179,0.346l0.095,0.169l0.116,0.188c0.084,0.127,0.157,0.254,0.241,0.38
						c0.105,0.137,0.2,0.284,0.315,0.419l0.084,0.105l0.042,0.052l0.042,0.064l0.2,0.23l0.2,0.222l0.105,0.104l0.126,0.126
						c0.179,0.157,0.357,0.314,0.536,0.462c0.21,0.157,0.431,0.316,0.662,0.464l0.168,0.104c0,0,0.221,0.115,0.315,0.168l0,0
						l0.063,0.03l0.063,0.032l0.168,0.084l0.189,0.096c0.126,0.063,0.252,0.114,0.389,0.157l0.199,0.072l0.137,0.053
						c0.179,0.063,0.357,0.117,0.536,0.169c0.704,0.188,1.344,0.272,1.922,0.303c0.578,0.032,1.082,0,1.555-0.04
						c0.925-0.095,1.67-0.284,2.333-0.484c0.168-0.053,0.336-0.104,0.494-0.157l0.231-0.083l0.263-0.095
						c0.357-0.137,0.715-0.294,1.061-0.453c0.347-0.158,0.694-0.335,1.02-0.523l0.242-0.139c0.084-0.053,0.168-0.083,0.241-0.157
						l0.431-0.367l0.872-0.734l0.42-0.39l0.851-0.767l3.403-3.068l9.509-8.572v0.136v4.528v18.08l6.292-7.647l6.293,7.647V95.139
						v-4.527v-2.26v-0.566v-0.282v-0.138c0-0.305-0.032,0.41-0.032,0.295l-0.021-0.063v-0.085v-0.137
						c0.011-0.337,0.011-0.609,0-0.894c-0.01-0.283-0.021-0.577-0.042-0.862c-0.042-0.577-0.116-1.166-0.242-1.795
						c-0.125-0.63-0.294-1.304-0.578-2.04c-0.284-0.744-0.662-1.565-1.324-2.467c-0.157-0.222-0.357-0.452-0.546-0.672l-0.042-0.044
						l-0.053-0.062l-0.115-0.116c-0.073-0.085-0.158-0.158-0.231-0.232c-0.074-0.072-0.158-0.146-0.242-0.22l-0.074-0.063
						l-0.052-0.043l0.011-0.04l-0.231-0.201c-0.147-0.105-0.294-0.221-0.431-0.315c-0.147-0.104-0.294-0.199-0.441-0.293
						c-0.147-0.095-0.305-0.179-0.452-0.264c-0.305-0.157-0.62-0.305-0.915-0.409c-0.147-0.063-0.305-0.115-0.452-0.168
						c-0.147-0.042-0.294-0.095-0.441-0.137c-0.147-0.043-0.284-0.073-0.43-0.105c-0.137-0.032-0.285-0.063-0.421-0.084
						c-0.263-0.043-0.536-0.083-0.777-0.105c-0.515-0.053-0.956-0.063-1.398-0.053c-0.42,0.013-0.83,0.043-1.198,0.096
						c-0.188,0.02-0.367,0.052-0.546,0.084c-0.167,0.03-0.346,0.063-0.515,0.095l-0.251,0.053l-0.252,0.063
						c-0.189,0.042-0.378,0.095-0.557,0.147c-0.746,0.21-1.471,0.472-2.164,0.776c-0.179,0.085-0.346,0.159-0.515,0.242
						l-0.263,0.125l-0.126,0.064c-0.042,0.021-0.074,0.063-0.115,0.083l-0.873,0.736l-0.851,0.725L77.02,79.36l-1.702,1.533
						l-3.404,3.066l-6.797,6.137l-0.977,0.872V75.211l-6.293-9.561L51.522,75.188z"/>
				</g>
			</g>
		</g>
	</g>
</g>
</svg>
