<?xml version="1.0" encoding="utf-8"?>
<!-- Generator: Adobe Illustrator 16.0.0, SVG Export Plug-In . SVG Version: 6.00 Build 0)  -->
<!DOCTYPE svg PUBLIC "-//W3C//DTD SVG 1.1//EN" "http://www.w3.org/Graphics/SVG/1.1/DTD/svg11.dtd">
<svg version="1.1" id="_x35_0m" xmlns="http://www.w3.org/2000/svg" xmlns:xlink="http://www.w3.org/1999/xlink" x="0px" y="0px"
	 width="144px" height="144px" viewBox="0 0 144 144" enable-background="new 0 0 144 144" xml:space="preserve">
<g>
	<g>
		<g>
			<g>
				<g>
					<path fill="#989898" d="M132.516,134.537H11.484c-4.202,0-7.921-2.068-9.97-5.525c-2.049-3.455-2.018-7.637,0.084-11.188
						L32.61,65.371l29.51-49.922c2.101-3.551,5.788-5.672,9.875-5.672c4.086,0,7.784,2.111,9.885,5.672l31.001,52.443l29.521,49.932
						c2.102,3.551,2.133,7.732,0.084,11.188C140.447,132.479,136.707,134.537,132.516,134.537z M28.261,113.926h87.467
						L71.995,39.947L28.261,113.926z"/>
				</g>
			</g>
		</g>
		<g>
			<g>
				<g>
					<path fill="#FFFFFF" d="M71.259,20.607c0.41-0.693,1.082-0.693,1.492,0l29.521,49.922c0.409,0.693,1.081,1.828,1.491,2.521
						l29.521,49.922c0.409,0.691,0.073,1.26-0.747,1.26H73.485c-0.818,0-2.162,0-2.982,0H11.484c-0.819,0-1.156-0.568-0.747-1.26
						l29.521-49.922c0.41-0.693,1.082-1.828,1.491-2.521L71.259,20.607z"/>
				</g>
			</g>
		</g>
		<g>
			<g>
				<g>
					<path fill="#FFFFFF" d="M132.516,133.707H11.484c-3.888,0-7.344-1.91-9.234-5.105c-1.891-3.193-1.859-7.059,0.085-10.357
						l31.01-52.443l29.51-49.932c1.944-3.287,5.358-5.252,9.141-5.252c3.781,0,7.195,1.965,9.14,5.252l60.521,102.375
						c1.943,3.289,1.975,7.164,0.084,10.357C139.859,131.797,136.402,133.707,132.516,133.707z M26.79,114.768h90.431l-45.226-76.49
						L26.79,114.768z"/>
				</g>
			</g>
		</g>
	</g>
	<g>
		<g>
			<g>
				<path fill="#ED2224" d="M132.516,131.523H11.484c-3.078,0-5.811-1.502-7.292-4.014c-1.491-2.51-1.448-5.568,0.085-8.172
					l31.012-52.455l29.51-49.92c1.533-2.605,4.233-4.172,7.207-4.172c2.973,0,5.662,1.566,7.206,4.172l31.001,52.441l29.521,49.934
					c1.533,2.604,1.576,5.662,0.084,8.172C138.325,130.021,135.594,131.523,132.516,131.523z M22.913,116.953h98.172l-49.09-83.045
					L22.913,116.953z"/>
			</g>
		</g>
	</g>
	<g>
		<g>
			<g>
				<g>
					<path fill="#010101" d="M104.782,97.16c-5.432-2.111-3.53,3.361-6.924,4.16c-2.848,0.662-6.472-0.42-8.677,2.111l-13.343-7.396
						c0.085-0.336,0.085-0.682,0-1.039l-4.222-16.619c0.031-0.211,0.052-0.42,0.052-0.619c0-1.324-0.672-2.607-1.891-3.363
						c-0.925-0.578-1.996-0.734-3.004-0.535l-9.34-1.797c-0.893-0.178-1.797,0.211-2.29,0.955l-5.978,9.152
						c-0.651,1.008-0.357,2.342,0.672,2.982c0.221,0.137,0.473,0.232,0.715,0.295l5.599,3.109c-0.031,0.199-0.041,0.41-0.041,0.609
						c0,0.408,0.063,0.818,0.198,1.207l0.41,0.232l4.36,2.436l0.714,0.4V93.42l8.184,4.592l-0.125,14.443
						c-0.012,1.377,1.134,2.521,2.53,2.521c0,0-0.011,0,0,0c1.397,0,2.542-1.082,2.553-2.447l0.116-13.479L87.7,106.08
						c-1.828,2.877-6.051,0.43-8.457,3.141c-2.574,2.91-1.766,4.686-1.766,4.686h37.873L104.782,97.16z M68.454,83.859l2.249,8.836
						l-5.853-3.277L68.454,83.859z M58.054,76.59l4.875,0.936l-5.41,8.342l-4.055-2.248L58.054,76.59z"/>
				</g>
			</g>
		</g>
		<g>
			<g>
				<g>
					<ellipse fill="#010101" cx="73.696" cy="69.679" rx="4.749" ry="4.644"/>
				</g>
			</g>
		</g>
		<g>
			<g>
				<g>
					<path fill="#010101" d="M61.657,94.986l-5.231-2.91l0.567,7.605l-7.89,10.568c-0.83,1.104-0.577,2.668,0.557,3.467
						c0.452,0.326,0.978,0.482,1.503,0.482c0.777,0,1.554-0.355,2.059-1.018l8.415-11.273c0.337-0.451,0.515-1.008,0.494-1.574
						L61.657,94.986z"/>
				</g>
			</g>
		</g>
	</g>
</g>
</svg>
