<?xml version="1.0" encoding="utf-8"?>
<!-- Generator: Adobe Illustrator 16.0.0, SVG Export Plug-In . SVG Version: 6.00 Build 0)  -->
<!DOCTYPE svg PUBLIC "-//W3C//DTD SVG 1.1//EN" "http://www.w3.org/Graphics/SVG/1.1/DTD/svg11.dtd">
<svg version="1.1" id="_x35_0m" xmlns="http://www.w3.org/2000/svg" xmlns:xlink="http://www.w3.org/1999/xlink" x="0px" y="0px"
	 width="144px" height="144px" viewBox="0 0 144 144" enable-background="new 0 0 144 144" xml:space="preserve">
<g>
	<g>
		<g>
			<g>
				<g>
					<path fill="#989898" d="M132.519,134.384H11.493c-4.203,0-7.932-2.07-9.971-5.527c-2.048-3.456-2.017-7.637,0.085-11.188
						l31.001-52.455L62.12,15.29c2.091-3.551,5.789-5.674,9.876-5.674c4.085,0,7.784,2.112,9.875,5.674l60.522,102.379
						c2.102,3.551,2.134,7.731,0.085,11.188C140.44,132.324,136.721,134.384,132.519,134.384z M28.271,113.771h87.47L72.005,39.789
						L28.271,113.771z"/>
				</g>
			</g>
		</g>
		<g>
			<g>
				<g>
					<path fill="#FFFFFF" d="M71.26,20.448c0.409-0.693,1.081-0.693,1.491,0l29.51,49.924c0.41,0.693,1.082,1.828,1.492,2.521
						l29.521,49.923c0.409,0.694,0.074,1.262-0.746,1.262H73.498c-0.82,0-2.165,0-2.983,0H11.493c-0.819,0-1.155-0.567-0.746-1.262
						l29.521-49.923c0.409-0.692,1.082-1.827,1.492-2.521L71.26,20.448z"/>
				</g>
			</g>
		</g>
		<g>
			<g>
				<g>
					<path fill="#FFFFFF" d="M132.519,133.553H11.493c-3.888,0-7.344-1.911-9.235-5.105c-1.891-3.194-1.858-7.06,0.085-10.358
						l31.002-52.456L62.866,15.7c1.943-3.289,5.358-5.254,9.14-5.254c3.782,0,7.197,1.965,9.14,5.254l60.514,102.379
						c1.942,3.287,1.975,7.164,0.095,10.357C139.861,131.642,136.417,133.553,132.519,133.553z M26.789,114.611h90.434
						L72.005,38.119L26.789,114.611z"/>
				</g>
			</g>
		</g>
	</g>
	<g>
		<g>
			<g>
				<path fill="#ED2224" d="M132.519,131.367H11.493c-3.078,0-5.81-1.501-7.291-4.013c-1.492-2.511-1.45-5.567,0.083-8.173
					l31.004-52.455l29.521-49.924c1.534-2.604,4.234-4.17,7.207-4.17s5.662,1.565,7.207,4.17l31.003,52.444l29.51,49.935
					c1.545,2.605,1.576,5.662,0.084,8.173C138.328,129.866,135.597,131.367,132.519,131.367z M22.913,116.796h98.186L95.8,74.018
					l-23.795-40.27L46.718,76.539L22.913,116.796z"/>
			</g>
		</g>
	</g>
	<g>
		<g>
			<g>
				<polygon fill="#010101" points="29.71,112.909 47.149,84.754 114.501,112.909 				"/>
			</g>
		</g>
	</g>
</g>
</svg>
