<?xml version="1.0" encoding="utf-8"?>
<!-- Generator: Adobe Illustrator 16.0.0, SVG Export Plug-In . SVG Version: 6.00 Build 0)  -->
<!DOCTYPE svg PUBLIC "-//W3C//DTD SVG 1.1//EN" "http://www.w3.org/Graphics/SVG/1.1/DTD/svg11.dtd">
<svg version="1.1" id="_x35_0m" xmlns="http://www.w3.org/2000/svg" xmlns:xlink="http://www.w3.org/1999/xlink" x="0px" y="0px"
	 width="144px" height="144px" viewBox="0 0 144 144" enable-background="new 0 0 144 144" xml:space="preserve">
<g>
	<g>
		<g>
			<g>
				<g>
					<path fill="#989898" d="M1.505,128.851c-2.038-3.455-2.006-7.636,0.095-11.196L62.114,15.283
						c2.102-3.551,5.799-5.672,9.886-5.672c4.087,0,7.785,2.121,9.886,5.672l29.511,49.924l31.003,52.457
						c2.101,3.551,2.133,7.731,0.094,11.199c-2.048,3.455-5.778,5.525-9.97,5.525H11.476C7.284,134.368,3.554,132.309,1.505,128.851
						z M72,39.772l-43.736,73.994h87.472L72,39.772z"/>
				</g>
			</g>
		</g>
		<g>
			<g>
				<g>
					<path fill="#FFFFFF" d="M72.747,20.431c-0.41-0.693-1.093-0.693-1.492,0L41.743,70.355c-0.42,0.692-1.082,1.828-1.491,2.522
						L10.74,122.801c-0.42,0.693-0.074,1.261,0.735,1.261h59.022c0.819,0,2.164,0,2.983,0h59.033c0.819,0,1.145-0.567,0.735-1.261
						l-29.511-49.923c-0.421-0.694-1.093-1.83-1.493-2.522L72.747,20.431z"/>
				</g>
			</g>
		</g>
		<g>
			<g>
				<g>
					<path fill="#FFFFFF" d="M2.251,128.432c-1.891-3.194-1.849-7.071,0.095-10.358l29.511-49.925L62.86,15.692
						c1.943-3.287,5.358-5.252,9.14-5.252c3.783,0,7.197,1.965,9.141,5.252l29.51,49.925l31.003,52.456
						c1.944,3.287,1.986,7.164,0.095,10.358c-1.891,3.193-5.347,5.105-9.234,5.105H11.476
						C7.599,133.537,4.143,131.625,2.251,128.432z M72,38.113l-45.217,76.492h90.424L72,38.113z"/>
				</g>
			</g>
		</g>
	</g>
	<g>
		<g>
			<g>
				<path fill="#ED2224" d="M4.185,127.351c-1.481-2.512-1.45-5.569,0.094-8.175L33.79,69.253l31.003-52.456
					c1.544-2.604,4.234-4.16,7.207-4.16c2.962,0,5.663,1.556,7.207,4.16l29.512,49.925l31.002,52.454
					c1.544,2.605,1.577,5.663,0.094,8.175c-1.492,2.511-4.212,4.013-7.291,4.013H11.476C8.408,131.363,5.677,129.861,4.185,127.351z
					 M72,33.743l-49.094,83.049h98.177L72,33.743z"/>
			</g>
		</g>
	</g>
	<g>
		<g>
			<g>
				<g>
					<path fill="#FFFFFF" d="M84.389,111.276c0-22.432-9.624-41.74-27.253-41.74L84.389,111.276z"/>
				</g>
			</g>
		</g>
		<g>
			<g>
				<g>
					<g>
						<path fill="#010101" d="M91.197,111.276c0,0-0.43-0.515-1.082-1.283c-0.641-0.757-1.534-1.743-2.426-2.699
							c-0.904-0.956-1.818-1.881-2.511-2.553c-0.705-0.663-1.177-1.104-1.177-1.104s-0.378,0.515-0.945,1.271
							c-0.577,0.757-1.355,1.743-2.164,2.689c-0.819,0.956-1.618,1.87-2.259,2.552c-0.63,0.662-1.051,1.104-1.051,1.104
							s-0.01-0.672-0.021-1.858c-0.021-0.589-0.043-1.303-0.085-2.134c-0.063-0.819-0.116-1.743-0.221-2.742
							c-0.199-2.007-0.514-4.327-1.04-6.744c-0.525-2.417-1.25-4.938-2.186-7.303c-0.946-2.362-2.08-4.59-3.352-6.418
							c-1.271-1.839-2.605-3.3-3.845-4.339c-1.25-1.029-2.364-1.692-3.172-2.06c-0.2-0.105-0.379-0.2-0.536-0.252
							c-0.158-0.063-0.294-0.115-0.41-0.168c-0.115-0.042-0.189-0.083-0.242-0.104c-0.063-0.022-0.084-0.032-0.084-0.032
							s-0.157-0.482-0.461-1.249c-0.032-0.095-0.074-0.202-0.116-0.295c-0.042-0.095-0.095-0.199-0.146-0.305
							c-0.105-0.21-0.211-0.432-0.337-0.663c-0.126-0.23-0.252-0.482-0.399-0.713c-0.158-0.231-0.304-0.474-0.472-0.714
							c-0.158-0.242-0.336-0.484-0.515-0.727c-0.178-0.22-0.357-0.441-0.546-0.661c-0.368-0.432-0.736-0.852-1.071-1.156
							c-0.663-0.64-1.167-1.081-1.167-1.081s0.484-0.399,1.282-0.999c0.398-0.305,0.872-0.609,1.418-0.946
							c0.273-0.167,0.557-0.335,0.862-0.514c0.294-0.168,0.609-0.315,0.924-0.473c0.316-0.157,0.641-0.305,0.957-0.452
							c0.335-0.157,0.65-0.262,0.966-0.389c0.326-0.115,0.641-0.23,0.945-0.335c0.158-0.053,0.294-0.107,0.441-0.158
							c0.148-0.042,0.294-0.084,0.421-0.116c1.082-0.305,1.849-0.473,1.849-0.473s0.063,0.021,0.168,0.073
							c0.116,0.042,0.285,0.116,0.504,0.199c0.21,0.095,0.484,0.2,0.798,0.337c0.316,0.127,0.662,0.295,1.051,0.494
							c1.576,0.745,3.729,2.018,5.937,3.866c2.206,1.838,4.402,4.274,6.304,7.038c1.901,2.764,3.467,5.873,4.727,9.014
							c1.239,3.142,2.154,6.337,2.805,9.341c0.641,3.004,1.04,5.82,1.271,8.226c0.137,1.208,0.199,2.312,0.263,3.288
							c0.052,0.979,0.073,1.828,0.116,2.532C91.187,110.478,91.197,111.276,91.197,111.276z"/>
					</g>
				</g>
			</g>
		</g>
	</g>
</g>
</svg>
