<?xml version="1.0" encoding="utf-8"?>
<!-- Generator: Adobe Illustrator 16.0.0, SVG Export Plug-In . SVG Version: 6.00 Build 0)  -->
<!DOCTYPE svg PUBLIC "-//W3C//DTD SVG 1.1//EN" "http://www.w3.org/Graphics/SVG/1.1/DTD/svg11.dtd">
<svg version="1.1" id="_x35_0m" xmlns="http://www.w3.org/2000/svg" xmlns:xlink="http://www.w3.org/1999/xlink" x="0px" y="0px"
	 width="144px" height="144px" viewBox="0 0 144 144" enable-background="new 0 0 144 144" xml:space="preserve">
<g>
	<g>
		<g>
			<g>
				<g>
					<path fill="#989898" d="M132.511,134.384H11.483c-4.202,0-7.932-2.07-9.969-5.525c-2.049-3.457-2.018-7.637,0.084-11.188
						l31.011-52.463L62.128,15.29c2.09-3.551,5.788-5.674,9.874-5.674c4.087,0,7.785,2.111,9.886,5.674l31,52.439l29.509,49.93
						c2.111,3.541,2.132,7.732,0.095,11.189C140.432,132.313,136.713,134.384,132.511,134.384z M28.26,113.772h87.464L71.991,39.786
						L28.26,113.772z"/>
				</g>
			</g>
		</g>
		<g>
			<g>
				<g>
					<path fill="#FFFFFF" d="M71.247,20.446c0.42-0.693,1.092-0.693,1.491,0l29.509,49.92c0.42,0.693,1.092,1.828,1.491,2.521
						l29.509,49.92c0.42,0.693,0.072,1.26-0.736,1.26H73.495c-0.82,0-2.165,0-2.984,0H11.483c-0.819,0-1.155-0.566-0.746-1.26
						l29.509-49.92c0.42-0.693,1.093-1.828,1.491-2.521L71.247,20.446z"/>
				</g>
			</g>
		</g>
		<g>
			<g>
				<g>
					<path fill="#FFFFFF" d="M132.511,133.544H11.483c-3.887,0-7.343-1.912-9.234-5.105c-1.891-3.193-1.858-7.061,0.084-10.357
						L33.334,65.64l29.509-49.93c1.942-3.289,5.367-5.252,9.139-5.252c3.782,0,7.196,1.963,9.14,5.252l60.508,102.371
						c1.944,3.287,1.976,7.164,0.095,10.357C139.844,131.632,136.397,133.544,132.511,133.544z M26.778,114.614h90.416
						L71.991,38.116L26.778,114.614z"/>
				</g>
			</g>
		</g>
	</g>
	<g>
		<g>
			<g>
				<g>
					<path fill="#010101" d="M55.425,88.036c-0.136,1.313,1.23,2.521,2.512,2.658l0.378,0.031c1.282,0.125,1.587-0.924,1.724-2.229
						l0.24-2.342l-4.621-0.451L55.425,88.036z"/>
				</g>
			</g>
		</g>
		<g>
			<g>
				<g>
					<path fill="#010101" d="M81.594,90.651c-0.137,1.313,0.167,2.416,1.449,2.553l0.379,0.031c1.28,0.137,2.657-0.809,2.794-2.111
						l0.242-2.342l-4.612-0.463L81.594,90.651z"/>
				</g>
			</g>
		</g>
		<g>
			<g>
				<g>
					<path fill="#010101" d="M56.813,84.233l28.721,2.867c3.12,0.316,3.834-1.943,4.149-5.053
						c0.188-1.754-4.864-14.959-4.864-14.959c-0.116-0.389-0.451-0.734-0.851-0.766L62.601,64.19
						c-0.399-0.043-0.788,0.221-0.998,0.578c0,0-7.648,11.934-7.837,13.688C53.472,81.565,53.703,83.919,56.813,84.233z
						 M63.115,65.829l20.044,1.996c0,0,2.783,8.203,2.479,8.172l-26.619-2.658C58.692,73.319,63.115,65.829,63.115,65.829z"/>
				</g>
			</g>
		</g>
		<g>
			<g>
				<g>
					<path fill="#010101" d="M68.294,108.163v-0.021c0,0.021,0-0.209,0-0.125v-0.021l-0.021-0.094l-0.021-0.18
						c-0.073-0.494-0.21-0.965-0.399-1.406c-0.378-0.893-0.913-1.629-1.491-2.229c-0.588-0.598-1.188-1.092-1.807-1.523
						c-1.24-0.85-2.511-1.48-3.761-2.037c-1.25-0.547-2.49-1.008-3.666-1.449c-1.178-0.441-2.301-0.852-3.32-1.313
						c-0.515-0.221-0.997-0.453-1.396-0.727c-0.399-0.262-0.736-0.576-0.788-0.809l0.031-0.053l0.031-0.02v-0.012l-0.031-0.063
						l-0.021-0.158c0-0.094-0.021-0.209,0.01-0.303c0.021-0.105,0.021-0.211,0.053-0.307c0.021-0.094,0.063-0.188,0.095-0.283
						c0.126-0.389,0.357-0.725,0.588-1.029c0.483-0.609,1.029-1.051,1.492-1.387c0.462-0.336,0.872-0.557,1.145-0.703
						c0.273-0.137,0.42-0.211,0.42-0.211s-0.157,0.043-0.451,0.158c-0.294,0.104-0.725,0.295-1.25,0.566
						c-0.515,0.273-1.146,0.652-1.765,1.23c-0.295,0.303-0.599,0.65-0.83,1.08c-0.063,0.117-0.127,0.223-0.179,0.336
						c-0.042,0.127-0.084,0.252-0.126,0.379c-0.053,0.127-0.063,0.264-0.095,0.389l0.074,0.211l0.073,0.105v0.125
						c0,0.389,0.104,0.693,0.283,0.957c0.189,0.262,0.367,0.461,0.589,0.662c0.451,0.389,0.914,0.725,1.396,1.039
						c0.999,0.641,2.07,1.219,3.151,1.838c1.093,0.609,2.207,1.25,3.268,1.934c1.071,0.684,2.101,1.428,2.931,2.236
						c0.409,0.42,0.767,0.842,0.998,1.271c0.126,0.221,0.21,0.432,0.273,0.631c0.063,0.199,0.095,0.389,0.095,0.578
						c0,0.178-0.021,0.336-0.074,0.482l-0.021,0.063l-0.011,0.021v0.01c0,0.096,0-0.115,0-0.094l-0.011,0.031l-0.053,0.23
						c-0.031,0.148-0.063,0.348-0.115,0.389c-0.042,0.074-0.063,0.137-0.115,0.223l-0.158,0.293
						c-0.042,0.096-0.115,0.189-0.157,0.283c-0.053,0.096-0.115,0.189-0.178,0.283c-0.505,0.736-1.136,1.439-1.787,2.113
						c-0.64,0.672-1.291,1.322-1.922,1.934c-0.314,0.303-0.609,0.607-0.904,0.881c-0.146,0.146-0.293,0.283-0.42,0.42
						c-0.137,0.137-0.252,0.295-0.378,0.441c-0.462,0.609-0.767,1.281-0.956,1.943c-0.199,0.672-0.294,1.293-0.336,1.797
						c-0.031,0.23-0.042,0.451-0.042,0.588c-0.011,0.064-0.011,0.127-0.011,0.158c0,0.043,0,0.063,0,0.063s0.021,0.012,0.053,0.021
						c0.031,0.021,0.094,0.053,0.158,0.072c0.137,0.064,0.336,0.137,0.566,0.211c0.494,0.178,1.156,0.305,1.923,0.314
						c0.767,0.012,1.618-0.137,2.438-0.535c0.409-0.199,0.798-0.463,1.197-0.766c0.399-0.307,0.819-0.652,1.229-1.02
						c0.818-0.746,1.67-1.66,2.426-2.773c0.746-1.125,1.439-2.438,1.817-4.004c0.053-0.199,0.095-0.389,0.126-0.598
						c0.032-0.199,0.074-0.398,0.105-0.609c0.021-0.209,0.043-0.42,0.063-0.629c0.021-0.223,0.021-0.484,0.021-0.717
						c0.011-0.283-0.021-0.398-0.031-0.566L68.294,108.163z"/>
				</g>
			</g>
		</g>
		<g>
			<g>
				<g>
					<path fill="#010101" d="M94.735,111.042l-0.021-0.242l-0.01-0.031c0,0.021,0.01-0.199,0-0.115v-0.021l-0.021-0.094l-0.021-0.18
						c-0.074-0.492-0.211-0.965-0.389-1.408c-0.379-0.891-0.915-1.627-1.492-2.225c-0.577-0.6-1.187-1.094-1.808-1.525
						c-1.229-0.85-2.51-1.48-3.76-2.037c-1.25-0.547-2.479-1.01-3.666-1.449c-1.177-0.441-2.313-0.852-3.33-1.314
						c-0.505-0.219-0.988-0.461-1.398-0.725c-0.409-0.252-0.744-0.576-0.786-0.809l0.042-0.053l0.041-0.021l0,0l-0.052-0.063
						l-0.021-0.156c0-0.105-0.022-0.211,0-0.307c0.021-0.104,0.031-0.209,0.052-0.303c0.021-0.096,0.063-0.189,0.095-0.285
						c0.137-0.389,0.367-0.723,0.588-1.029c0.483-0.607,1.029-1.051,1.491-1.387c0.474-0.336,0.872-0.557,1.146-0.703
						c0.283-0.137,0.431-0.211,0.431-0.211s-0.157,0.043-0.462,0.158c-0.295,0.105-0.726,0.295-1.251,0.566
						c-0.515,0.275-1.144,0.652-1.754,1.23c-0.294,0.305-0.608,0.652-0.84,1.082c-0.063,0.115-0.126,0.221-0.168,0.336
						c-0.043,0.125-0.095,0.242-0.137,0.379c-0.053,0.125-0.063,0.262-0.095,0.389l0.084,0.209l0.084,0.105v0.125
						c0,0.389,0.084,0.695,0.273,0.957s0.357,0.463,0.577,0.662c0.452,0.389,0.903,0.725,1.397,1.039
						c0.998,0.641,2.069,1.219,3.15,1.84c1.094,0.619,2.197,1.248,3.269,1.941c1.061,0.684,2.091,1.43,2.92,2.238
						c0.421,0.41,0.778,0.84,0.998,1.271c0.126,0.221,0.21,0.432,0.272,0.629c0.064,0.201,0.096,0.391,0.096,0.568
						c0,0.18-0.021,0.336-0.063,0.494l-0.022,0.063v0.021l-0.011,0.01c0,0.096,0-0.115,0-0.094l-0.01,0.021l-0.053,0.24
						c-0.031,0.146-0.063,0.348-0.115,0.389c-0.042,0.074-0.063,0.127-0.116,0.221l-0.146,0.295
						c-0.052,0.094-0.116,0.189-0.168,0.283c-0.054,0.096-0.116,0.189-0.179,0.283c-0.504,0.736-1.135,1.439-1.775,2.111
						c-0.651,0.674-1.303,1.324-1.922,1.934c-0.316,0.305-0.621,0.6-0.914,0.883c-0.147,0.146-0.295,0.283-0.42,0.42
						c-0.137,0.137-0.253,0.295-0.379,0.432c-0.451,0.607-0.757,1.281-0.956,1.953c-0.2,0.672-0.306,1.293-0.337,1.797
						c-0.031,0.23-0.031,0.451-0.041,0.578c-0.011,0.072-0.011,0.135-0.011,0.166c0,0.043,0,0.064,0,0.064s0.021,0.01,0.063,0.021
						c0.032,0.02,0.085,0.051,0.157,0.072c0.127,0.064,0.326,0.137,0.559,0.211c0.492,0.178,1.165,0.305,1.932,0.314
						c0.768,0.01,1.607-0.137,2.427-0.535c0.409-0.189,0.798-0.463,1.197-0.768c0.41-0.305,0.819-0.65,1.229-1.018
						c0.82-0.748,1.67-1.662,2.428-2.773c0.734-1.125,1.438-2.438,1.806-4.004c0.052-0.199,0.105-0.389,0.137-0.598
						c0.031-0.211,0.074-0.398,0.095-0.609c0.021-0.211,0.042-0.42,0.063-0.631c0.011-0.221,0.021-0.482,0.021-0.715
						C94.788,111.325,94.757,111.21,94.735,111.042z"/>
				</g>
			</g>
		</g>
	</g>
	<g>
		<g>
			<g>
				<path fill="#ED2224" d="M132.511,131.358H11.483c-3.088,0-5.81-1.502-7.291-4.012c-1.491-2.512-1.449-5.568,0.085-8.174
					l31-52.451l29.519-49.92c1.534-2.605,4.233-4.17,7.195-4.17c2.975,0,5.674,1.564,7.207,4.17l60.509,102.371
					c1.544,2.605,1.576,5.662,0.095,8.174C138.31,129.856,135.589,131.358,132.511,131.358z M22.913,116.788h98.169L71.991,33.757
					L46.717,76.534L22.913,116.788z"/>
			</g>
		</g>
	</g>
</g>
</svg>
