<?xml version="1.0" encoding="utf-8"?>
<!-- Generator: Adobe Illustrator 16.0.0, SVG Export Plug-In . SVG Version: 6.00 Build 0)  -->
<!DOCTYPE svg PUBLIC "-//W3C//DTD SVG 1.1//EN" "http://www.w3.org/Graphics/SVG/1.1/DTD/svg11.dtd">
<svg version="1.1" id="_x35_0m" xmlns="http://www.w3.org/2000/svg" xmlns:xlink="http://www.w3.org/1999/xlink" x="0px" y="0px"
	 width="144px" height="144px" viewBox="0 0 144 144" enable-background="new 0 0 144 144" xml:space="preserve">
<g>
	<g>
		<g>
			<g>
				<g>
					<path fill="#989898" d="M132.514,134.39H11.485c-4.202,0-7.922-2.069-9.971-5.525c-2.048-3.457-2.017-7.638,0.085-11.189
						l31.014-52.456l29.511-49.935C64.226,11.733,67.913,9.61,72,9.61s7.785,2.123,9.875,5.674l31.003,52.446l29.522,49.924
						c2.102,3.55,2.133,7.732,0.084,11.188C140.446,132.32,136.717,134.39,132.514,134.39z M28.263,113.777h87.474L72,39.795
						L28.263,113.777z"/>
				</g>
			</g>
		</g>
		<g>
			<g>
				<g>
					<path fill="#FFFFFF" d="M71.254,20.442c0.41-0.693,1.082-0.693,1.492,0l29.521,49.924c0.41,0.693,1.082,1.828,1.492,2.521
						l29.521,49.925c0.409,0.693,0.073,1.261-0.746,1.261H73.492c-0.819,0-2.165,0-2.984,0H11.485c-0.819,0-1.155-0.567-0.746-1.261
						l29.522-49.925c0.409-0.693,1.081-1.828,1.491-2.521L71.254,20.442z"/>
				</g>
			</g>
		</g>
		<g>
			<g>
				<g>
					<path fill="#FFFFFF" d="M132.514,133.55H11.485c-3.887,0-7.344-1.912-9.234-5.106c-1.891-3.193-1.859-7.07,0.084-10.359
						l31.014-52.455l29.511-49.925c1.944-3.288,5.358-5.253,9.141-5.253s7.196,1.965,9.141,5.253l31.003,52.456l29.521,49.924
						c1.943,3.289,1.975,7.166,0.084,10.359C139.857,131.648,136.411,133.55,132.514,133.55z M26.782,114.617h90.436L72,38.124
						L26.782,114.617z"/>
				</g>
			</g>
		</g>
	</g>
	<g>
		<g>
			<g>
				<path fill="#ED2224" d="M132.514,131.363H11.485c-3.078,0-5.81-1.502-7.291-4.013c-1.492-2.511-1.449-5.567,0.084-8.174
					l31.004-52.445l29.511-49.924c1.533-2.606,4.233-4.16,7.207-4.16s5.663,1.554,7.208,4.16l31.002,52.456l29.521,49.924
					c1.534,2.605,1.576,5.663,0.085,8.174C138.324,129.861,135.603,131.363,132.514,131.363z M22.916,116.792h98.179L72,33.753
					l-25.288,42.78L22.916,116.792z"/>
			</g>
		</g>
	</g>
	<g>
		<path fill="#010101" d="M91.835,87.187c-1.733,0-3.383,0.347-4.886,0.966l-4.286-7.606c-0.021-0.126-0.063-0.24-0.126-0.356
			c-0.063-0.104-0.137-0.189-0.22-0.263l-0.222-0.389c-0.095-0.168-0.272-0.283-0.483-0.283c-0.209,0-0.388,0.105-0.493,0.263
			l-0.074,0.115H59.571l1.25-3.876c0.105-0.316,0.053-0.631-0.104-0.904h5.105c0.305,0,0.557-0.241,0.557-0.546
			c0-0.294-0.252-0.546-0.557-0.546h-7.826c-0.306,0-0.558,0.24-0.558,0.546c0,0.305,0.252,0.546,0.558,0.546h0.724
			c-0.041,0.073-0.094,0.137-0.126,0.22l-3.845,11.946c-0.83-0.168-1.701-0.263-2.585-0.263c-6.923,0-12.564,5.505-12.564,12.271
			c0,6.765,5.642,12.26,12.564,12.26c6.924,0,12.565-5.505,12.565-12.26c0-5.106-3.204-9.487-7.743-11.336l1.388-4.329l9.497,14.194
			c-0.452,0.535-0.735,1.208-0.735,1.942c0,1.692,1.407,3.068,3.141,3.068c1.734,0,3.142-1.376,3.142-3.068
			c0-0.221-0.021-0.43-0.073-0.641h5.957c-0.011,0.189-0.031,0.378-0.031,0.568c0,6.765,5.631,12.27,12.564,12.27
			c6.924,0,12.565-5.505,12.565-12.27C104.4,92.66,98.77,87.187,91.835,87.187z M62.397,99.048c0,5.505-4.592,9.99-10.233,9.99
			c-5.641,0-10.232-4.475-10.232-9.99s4.581-9.991,10.232-9.991c0.642,0,1.271,0.063,1.881,0.178l-3.025,9.404
			c-0.2,0.598,0.147,1.239,0.756,1.428c0.116,0.032,0.231,0.053,0.357,0.053c0.494,0,0.956-0.315,1.113-0.798l3.026-9.414
			C59.876,91.452,62.397,94.961,62.397,99.048z M79.47,81.944l-8.878,14.551c-0.104-0.011-0.21-0.032-0.325-0.032
			c-0.158,0-0.315,0.021-0.473,0.043L60.16,81.934L79.47,81.944z M72.872,97.797c-0.085-0.114-0.179-0.22-0.273-0.325l9.561-15.581
			l3.793,6.735c-3.488,1.817-5.979,5.19-6.535,9.171H72.872L72.872,97.797z M87.065,90.633l4.034,7.164h-9.339
			C82.296,94.688,84.303,92.062,87.065,90.633z M91.835,109.449c-5.642,0-10.233-4.477-10.233-9.991c0-0.19,0.022-0.379,0.032-0.567
			h10.412c0.199,0,0.377-0.105,0.482-0.263c0.095-0.169,0.105-0.378,0.011-0.546l-4.454-7.912c1.166-0.451,2.427-0.704,3.75-0.704
			c5.642,0,10.232,4.487,10.232,9.992C102.067,104.973,97.477,109.449,91.835,109.449z"/>
		<path fill="#010101" d="M78.881,79.234h5.737c0.451,0,0.767-0.652,0.767-1.272v-0.021c0-0.62-0.315-0.894-0.767-0.894h-5.737
			c-0.44,0-1.323,0.273-1.323,0.894v0.021C77.558,78.593,78.43,79.234,78.881,79.234z"/>
	</g>
</g>
</svg>
