<?xml version="1.0" encoding="utf-8"?>
<!-- Generator: Adobe Illustrator 16.0.0, SVG Export Plug-In . SVG Version: 6.00 Build 0)  -->
<!DOCTYPE svg PUBLIC "-//W3C//DTD SVG 1.1//EN" "http://www.w3.org/Graphics/SVG/1.1/DTD/svg11.dtd">
<svg version="1.1" id="_x35_0m" xmlns="http://www.w3.org/2000/svg" xmlns:xlink="http://www.w3.org/1999/xlink" x="0px" y="0px"
	 width="144px" height="144px" viewBox="0 0 144 144" enable-background="new 0 0 144 144" xml:space="preserve">
<g>
	<g>
		<g>
			<g>
				<g>
					<path fill="#989898" d="M132.505,134.378H11.489c-4.203,0-7.932-2.068-9.971-5.524c-2.049-3.457-2.018-7.638,0.084-11.188
						l31-52.451l29.52-49.919c2.09-3.551,5.789-5.673,9.875-5.673s7.783,2.122,9.885,5.673l31,52.44l29.52,49.919
						c2.102,3.552,2.121,7.732,0.084,11.188C140.425,132.31,136.708,134.378,132.505,134.378z M28.253,113.768h87.467L71.985,39.792
						L49.39,78.041L28.253,113.768z"/>
				</g>
			</g>
		</g>
		<g>
			<g>
				<g>
					<path fill="#FFFFFF" d="M71.251,20.442c0.41-0.693,1.082-0.693,1.492,0l29.518,49.919c0.41,0.693,1.082,1.828,1.492,2.521
						l29.52,49.919c0.41,0.694,0.063,1.261-0.746,1.261H73.489c-0.82,0-2.166,0-2.984,0H11.489c-0.82,0-1.156-0.566-0.748-1.261
						l29.52-49.919c0.41-0.693,1.082-1.828,1.492-2.521L71.251,20.442z"/>
				</g>
			</g>
		</g>
		<g>
			<g>
				<g>
					<path fill="#FFFFFF" d="M132.505,133.549H11.489c-3.898,0-7.344-1.911-9.234-5.105c-1.891-3.193-1.859-7.069,0.084-10.358
						l31-52.451l29.518-49.919c1.934-3.288,5.357-5.253,9.141-5.253c3.781,0,7.195,1.965,9.139,5.253l31,52.451l29.508,49.909
						c1.945,3.288,1.977,7.164,0.096,10.357C139.849,131.638,136.403,133.549,132.505,133.549z M26.782,114.608H117.2L71.985,38.122
						L48.634,77.621L26.782,114.608z"/>
				</g>
			</g>
		</g>
	</g>
	<g>
		<g>
			<g>
				<path fill="#010101" d="M88.921,94.448v5.926c-2.133,0.252-2.922,1.008-3.73,1.649c-0.861,0.661-1.732,1.146-3.066,1.146
					c-1.492,0-2.764-0.651-4.076-1.334c-1.471-0.768-2.994-1.566-4.979-1.566c-1.986,0-3.531,0.83-4.896,1.566
					c-1.293,0.683-2.479,1.334-3.992,1.334c-1.428,0-2.658-0.558-3.98-1.208c-1.346-0.651-2.785-1.366-4.918-1.607v-1.744
					l25.717-23.867l-4.023-4.202l-25.59,23.908H22.161v24.257h33.111v-6.775c1.607,0.2,2.627,0.767,3.855,1.365
					c1.461,0.715,2.932,1.46,4.916,1.46c2.123,0,3.771-0.861,5.189-1.617c1.281-0.684,2.416-1.281,3.793-1.281
					c1.396,0,2.553,0.598,3.877,1.291c1.449,0.757,3.088,1.607,5.178,1.607c2.154,0,3.645-0.925,4.602-1.659
					c0.693-0.546,0.914-0.999,2.248-1.166v6.775h33.123V94.448H88.921z M59.128,104.04c1.461,0.714,2.932,1.46,4.916,1.46
					c2.123,0,3.771-0.86,5.189-1.617c1.281-0.683,2.416-1.282,3.793-1.282c1.396,0,2.553,0.6,3.877,1.293
					c1.449,0.756,3.088,1.606,5.178,1.606c2.154,0,3.645-0.924,4.602-1.659c0.693-0.546,0.914-0.998,2.248-1.166v2.248
					c-2.406,0-3.539,0.967-4.527,1.744c-0.852,0.661-1.346,1.145-2.668,1.145c-1.502,0-2.783-0.652-4.098-1.335
					c-1.471-0.766-3.025-1.564-5-1.564c-1.986,0-3.582,0.83-4.949,1.564c-1.291,0.683-2.582,1.335-4.096,1.335
					c-1.418,0-2.857-0.557-4.182-1.208c-1.186-0.578-1.984-1.208-4.127-1.513v-2.416C56.87,102.863,57.888,103.432,59.128,104.04z
					 M85.19,111.288c-0.861,0.662-1.732,1.146-3.066,1.146c-1.492,0-2.764-0.651-4.076-1.334c-1.471-0.767-2.994-1.565-4.979-1.565
					c-1.986,0-3.531,0.83-4.896,1.565c-1.293,0.683-2.479,1.334-3.992,1.334c-1.428,0-2.658-0.557-3.98-1.208
					c-1.346-0.651-2.785-1.365-4.916-1.607v-2.122c1.344,0.273,2.131,0.704,3.066,1.167c1.461,0.714,3.33,1.46,5.316,1.46
					c2.121,0,3.77-0.862,5.189-1.618c1.281-0.684,2.416-1.281,3.791-1.281c1.387,0,2.543,0.598,3.865,1.292
					c1.451,0.745,3.09,1.607,5.18,1.607c2.154,0,3.246-0.925,4.201-1.66c0.873-0.693,1.713-1.239,3.047-1.239v2.416
					C86.788,109.892,85.999,110.648,85.19,111.288z"/>
			</g>
		</g>
	</g>
	<g>
		<g>
			<g>
				<path fill="#ED2224" d="M132.505,131.353H11.489c-3.09,0-5.811-1.502-7.291-4.013c-1.492-2.51-1.449-5.567,0.084-8.173
					l31-52.451L64.8,16.797c1.535-2.605,4.234-4.16,7.197-4.16c2.973,0,5.672,1.555,7.205,4.16l31,52.451l29.52,49.919
					c1.535,2.605,1.576,5.663,0.084,8.173C138.315,129.861,135.583,131.353,132.505,131.353z M22.907,116.794h98.17L95.79,74.006
					L71.985,33.752L46.712,76.527L22.907,116.794z"/>
			</g>
		</g>
	</g>
</g>
</svg>
