<?xml version="1.0" encoding="utf-8"?>
<!-- Generator: Adobe Illustrator 16.0.0, SVG Export Plug-In . SVG Version: 6.00 Build 0)  -->
<!DOCTYPE svg PUBLIC "-//W3C//DTD SVG 1.1//EN" "http://www.w3.org/Graphics/SVG/1.1/DTD/svg11.dtd">
<svg version="1.1" id="_x35_0m" xmlns="http://www.w3.org/2000/svg" xmlns:xlink="http://www.w3.org/1999/xlink" x="0px" y="0px"
	 width="144px" height="144px" viewBox="0 0 144 144" enable-background="new 0 0 144 144" xml:space="preserve">
<g>
	<g>
		<g>
			<g>
				<path fill="#989898" d="M132.515,134.392H11.48c-4.201,0-7.932-2.07-9.971-5.525c-2.048-3.457-2.006-7.639,0.084-11.19
					l31.005-52.459L62.122,15.28c2.091-3.551,5.789-5.672,9.876-5.672c4.086,0,7.785,2.111,9.876,5.672l31.004,52.46l29.522,49.926
					c2.102,3.552,2.134,7.733,0.085,11.188C140.447,132.321,136.717,134.392,132.515,134.392z M28.261,113.778h87.475L71.998,39.781
					L28.261,113.778z"/>
			</g>
		</g>
		<g>
			<g>
				<path fill="#FFFFFF" d="M71.252,20.439c0.409-0.693,1.081-0.693,1.492,0l29.512,49.927c0.41,0.693,1.083,1.839,1.492,2.521
					l29.522,49.937c0.41,0.693,0.074,1.262-0.745,1.262H73.49c-0.82,0-2.164,0-2.984,0H11.48c-0.818,0-1.155-0.568-0.745-1.262
					l29.522-49.937c0.41-0.692,1.083-1.828,1.492-2.521L71.252,20.439z"/>
			</g>
		</g>
		<g>
			<g>
				<path fill="#FFFFFF" d="M132.515,133.552H11.48c-3.896,0-7.344-1.912-9.234-5.106c-1.892-3.195-1.859-7.072,0.084-10.359
					l31.004-52.448L62.856,15.7c1.944-3.287,5.359-5.252,9.142-5.252c3.781,0,7.197,1.965,9.141,5.263l60.518,102.375
					c1.941,3.3,1.974,7.164,0.083,10.359C139.858,131.64,136.412,133.552,132.515,133.552z M26.779,114.619h90.438L71.998,38.123
					L26.779,114.619z"/>
			</g>
		</g>
	</g>
	<g>
		<g>
			<path fill="#ED2224" d="M132.515,131.365H11.48c-3.088,0-5.809-1.502-7.292-4.013c-1.49-2.512-1.448-5.568,0.085-8.174
				L35.277,66.73l29.523-49.936c1.534-2.606,4.234-4.162,7.207-4.162c2.974,0,5.664,1.556,7.209,4.162l60.516,102.384
				c1.545,2.605,1.575,5.662,0.085,8.174C138.325,129.863,135.604,131.365,132.515,131.365z M22.901,116.804h98.192L71.998,33.751
				L46.71,76.533L22.901,116.804z"/>
		</g>
	</g>
	<g>
		<g>
			<path fill="#010101" d="M33.135,112.749v-6.073c0,0,2.28,0,5.842,0S44.229,96.62,54.505,96.62
				c10.265,0,10.243,10.056,17.535,10.056S79.763,96.62,89.627,96.62c9.866,0,10.56,10.056,14.584,10.056c4.023,0,6.64,0,6.64,0
				v6.073H33.135z"/>
		</g>
	</g>
</g>
</svg>
