<?xml version="1.0" encoding="utf-8"?>
<!-- Generator: Adobe Illustrator 16.0.0, SVG Export Plug-In . SVG Version: 6.00 Build 0)  -->
<!DOCTYPE svg PUBLIC "-//W3C//DTD SVG 1.1//EN" "http://www.w3.org/Graphics/SVG/1.1/DTD/svg11.dtd">
<svg version="1.1" id="_x35_0m" xmlns="http://www.w3.org/2000/svg" xmlns:xlink="http://www.w3.org/1999/xlink" x="0px" y="0px"
	 width="144px" height="144px" viewBox="0 0 144 144" enable-background="new 0 0 144 144" xml:space="preserve">
<g>
	<g>
		<g>
			<g>
				<g>
					<path fill="#989898" d="M132.515,134.385H11.476c-4.202,0-7.921-2.061-9.97-5.516c-2.038-3.457-2.008-7.648,0.095-11.2
						l31.002-52.445l29.511-49.935c2.102-3.551,5.801-5.674,9.887-5.674c4.087,0,7.785,2.123,9.886,5.674l60.515,102.38
						c2.102,3.552,2.133,7.732,0.095,11.2C140.436,132.314,136.716,134.385,132.515,134.385z M28.264,113.771h87.472L72,39.79
						L28.264,113.771z"/>
				</g>
			</g>
		</g>
		<g>
			<g>
				<g>
					<path fill="#FFFFFF" d="M71.244,20.437c0.42-0.692,1.093-0.692,1.491,0l29.511,49.925c0.422,0.693,1.094,1.828,1.493,2.521
						l29.51,49.925c0.421,0.693,0.074,1.261-0.734,1.261H73.491c-0.819,0-2.164,0-2.983,0H11.476c-0.819,0-1.156-0.567-0.735-1.261
						l29.511-49.925c0.421-0.692,1.093-1.827,1.492-2.521L71.244,20.437z"/>
				</g>
			</g>
		</g>
		<g>
			<g>
				<g>
					<path fill="#FFFFFF" d="M132.515,133.543H11.476c-3.887,0-7.333-1.91-9.234-5.104c-1.892-3.195-1.85-7.07,0.094-10.359
						l31.003-52.456L62.85,15.7c1.943-3.289,5.357-5.255,9.14-5.255c3.781,0,7.197,1.966,9.141,5.255l60.514,102.379
						c1.944,3.289,1.976,7.164,0.095,10.359C139.857,131.643,136.401,133.543,132.515,133.543z M26.783,114.612h90.423L72,38.118
						L48.646,77.632L26.783,114.612z"/>
				</g>
			</g>
		</g>
	</g>
	<g>
		<g>
			<g>
				<path fill="#ED2224" d="M132.515,131.369H11.476c-3.077,0-5.81-1.502-7.291-4.014c-1.481-2.511-1.45-5.567,0.095-8.173
					l31.003-52.456l29.511-49.925c1.544-2.604,4.244-4.16,7.207-4.16c2.974,0,5.663,1.556,7.207,4.16l31.003,52.456l29.512,49.925
					c1.543,2.605,1.575,5.662,0.094,8.173C138.323,129.867,135.593,131.369,132.515,131.369z M22.906,116.798h98.177L72,33.749
					l-25.298,42.78L22.906,116.798z"/>
			</g>
		</g>
	</g>
	<polygon fill="#010101" points="94.693,82.297 84.176,82.297 84.176,72.084 72.189,61.473 60.129,72.084 60.129,110.998 
		72.189,100.387 84.176,110.998 84.176,94.934 94.693,94.934 	"/>
</g>
</svg>
