<?xml version="1.0" encoding="utf-8"?>
<!-- Generator: Adobe Illustrator 16.0.0, SVG Export Plug-In . SVG Version: 6.00 Build 0)  -->
<!DOCTYPE svg PUBLIC "-//W3C//DTD SVG 1.1//EN" "http://www.w3.org/Graphics/SVG/1.1/DTD/svg11.dtd">
<svg version="1.1" id="_x35_0m" xmlns="http://www.w3.org/2000/svg" xmlns:xlink="http://www.w3.org/1999/xlink" x="0px" y="0px"
	 width="144px" height="144px" viewBox="0 0 144 144" enable-background="new 0 0 144 144" xml:space="preserve">
<g>
	<g>
		<g>
			<g>
				<g>
					<path fill="#989898" d="M132.523,134.384H11.496c-4.201,0-7.93-2.068-9.969-5.525c-2.049-3.457-2.018-7.637,0.084-11.199
						l31-52.439l29.52-49.93c2.09-3.551,5.789-5.674,9.875-5.674s7.783,2.123,9.875,5.674l30.998,52.439l29.51,49.92
						c2.102,3.551,2.133,7.732,0.084,11.199C140.445,132.315,136.717,134.384,132.523,134.384z M28.273,113.772h87.465
						L72.006,39.798L28.273,113.772z"/>
				</g>
			</g>
		</g>
		<g>
			<g>
				<g>
					<path fill="#FFFFFF" d="M71.26,20.446c0.41-0.691,1.082-0.691,1.492,0l29.508,49.922c0.41,0.691,1.082,1.826,1.492,2.52
						l29.508,49.92c0.41,0.693,0.074,1.26-0.746,1.26H73.498c-0.82,0-2.164,0-2.984,0H11.496c-0.818,0-1.154-0.566-0.746-1.26
						l29.51-49.908c0.41-0.693,1.082-1.828,1.49-2.521L71.26,20.446z"/>
				</g>
			</g>
		</g>
		<g>
			<g>
				<g>
					<path fill="#FFFFFF" d="M132.523,133.544H11.496c-3.896,0-7.342-1.912-9.232-5.105s-1.859-7.07,0.084-10.359l31-52.449
						l29.518-49.92c1.945-3.289,5.357-5.252,9.141-5.252c3.781,0,7.195,1.963,9.139,5.252l31,52.451l29.51,49.918
						c1.941,3.289,1.973,7.166,0.082,10.359C139.867,131.642,136.41,133.544,132.523,133.544z M26.791,114.614h90.428L72.006,38.128
						L26.791,114.614z"/>
				</g>
			</g>
		</g>
	</g>
	<g>
		<g>
			<g>
				<g>
					<g>
						<path fill="#010101" d="M62.992,111.651c0,0,0.504-0.914,1.377-2.217c0.83-1.334,2.08-3.004,3.371-4.674
							c0.314-0.432,0.662-0.82,0.977-1.229c0.326-0.41,0.643-0.811,0.988-1.168c0.746-0.672,1.514-1.229,2.195-1.67
							c1.449-0.809,2.553-1.061,2.553-1.061l0.115,0.168c0,0-0.576,0.986-1.596,2.1c-0.475,0.621-1.063,1.283-1.754,1.934
							c-0.674,0.674-1.514,1.293-2.26,1.996c-1.492,1.418-2.932,2.922-4.012,4.035c-1.072,1.145-1.787,1.9-1.787,1.9L62.992,111.651
							z"/>
					</g>
				</g>
			</g>
			<g>
				<g>
					<g>
						<path fill="#010101" d="M69.662,111.63c0,0,1.188-1.238,3.109-2.973c1.914-1.744,4.592-3.918,7.428-5.945
							c0.693-0.516,1.439-0.988,2.133-1.482c0.715-0.492,1.449-0.912,2.154-1.344c0.734-0.377,1.459-0.725,2.152-1.008
							c0.715-0.273,1.398-0.516,2.027-0.715c0.641-0.189,1.25-0.314,1.775-0.432c0.525-0.125,1.008-0.156,1.396-0.199
							c0.779-0.084,1.219-0.084,1.219-0.084l0.043,0.189c0,0-0.389,0.23-1.072,0.568c-0.336,0.178-0.744,0.355-1.197,0.619
							c-0.461,0.24-0.977,0.514-1.533,0.809c-0.557,0.314-1.156,0.65-1.797,0.977c-0.619,0.379-1.291,0.734-1.996,1.094
							c-1.396,0.734-2.941,1.471-4.412,2.342c-2.951,1.723-5.766,3.676-7.867,5.158c-2.092,1.502-3.445,2.572-3.445,2.572
							L69.662,111.63z"/>
					</g>
				</g>
			</g>
			<g>
				<g>
					<g>
						<path fill="#010101" d="M77.184,112.114c0,0,0.715-0.506,1.871-1.125c0.566-0.336,1.26-0.662,2.006-1.008
							c0.756-0.338,1.576-0.652,2.406-0.988c0.42-0.146,0.84-0.295,1.26-0.43c0.42-0.148,0.82-0.326,1.25-0.379
							c0.852-0.105,1.65-0.146,2.334-0.063c1.396,0.221,2.236,0.65,2.236,0.65l-0.012,0.199c0,0-0.891,0.463-2.09,0.736
							c-0.305,0.072-0.629,0.209-0.977,0.295c-0.346,0.104-0.715,0.178-1.092,0.23c-0.389,0.021-0.779,0.115-1.199,0.146
							c-0.408,0.053-0.828,0.105-1.248,0.158c-0.82,0.178-1.672,0.336-2.447,0.535c-0.768,0.221-1.514,0.379-2.123,0.578
							c-1.24,0.357-2.07,0.641-2.07,0.641L77.184,112.114z"/>
					</g>
				</g>
			</g>
			<g>
				<g>
					<g>
						<path fill="#010101" d="M83.172,91.071c0.221,1.324,1.135,2.469-0.105,3.572c-0.83,0.736-1.912,1.545-3.098,1.061
							c-0.221-0.084-0.547-0.125-0.725-0.252c-0.201-0.137-0.273-0.482-0.453-0.65c-0.492-0.473-1.197-0.158-1.617-0.789
							c-0.336-0.525-0.746-1.313-0.482-1.943c0.242-0.566,0.713-1.207,1.176-1.627c0.641-0.578,1.871-0.672,2.689-0.758
							c0.514-0.051,1.039-0.072,1.449,0.273C82.428,90.315,82.73,90.747,83.172,91.071z"/>
					</g>
				</g>
			</g>
			<g>
				<g>
					<g>
						<path fill="#010101" d="M101.053,96.188c-0.348,0.482-0.82,0.924-1.355,1.188c-0.758,0.367-1.902,0.566-2.689,0.168
							c-0.955-0.475-1.398-1.576-1.672-2.512c-0.125-0.43-0.42-0.725-0.641-1.123c-0.209-0.379-0.535-0.832-0.588-1.24
							c-0.051-0.377,0-0.799,0.074-1.166c0.053-0.252,0.063-0.516,0.199-0.736c0.127-0.199,0.336-0.314,0.463-0.525
							c0.326-0.535,0.797-0.66,1.375-0.871c0.725-0.273,1.502-0.631,2.291-0.377c0.799,0.252,1.492,1.039,2.049,1.627
							C102.008,92.112,102.281,94.454,101.053,96.188z"/>
					</g>
				</g>
			</g>
			<g>
				<g>
					<g>
						<path fill="#010101" d="M97.91,110.36c0.693-0.811,0.861-2.176,0.357-3.111c-0.242-0.451-0.619-0.861-0.924-1.281
							c-0.314-0.439-0.725-0.777-1.314-0.777c-0.502,0-1.123,0.168-1.584,0.379c-0.652,0.293-1.188,0.871-1.209,1.586
							c-0.012,0.357,0.252,0.83,0.336,1.178c0.063,0.293,0.105,0.588,0.146,0.881c0.137,1.113,0.463,1.912,1.713,2.018
							C96.314,111.306,97.301,111.063,97.91,110.36z"/>
					</g>
				</g>
			</g>
			<g>
				<g>
					<g>
						<path fill="#010101" d="M107.984,104.067c0.074,0.977-0.42,2.047-1.313,2.52c-0.85,0.453-1.67,1.303-2.721,1.125
							c-0.568-0.105-0.957-0.473-1.439-0.736c-0.283-0.156-0.482-0.377-0.736-0.557c-0.355-0.252-0.619-0.355-0.902-0.703
							c-0.535-0.631-1.082-1.596-0.914-2.438c0.168-0.809,0.6-1.605,1.365-2.016c1.514-0.809,3.699-1.029,5.064,0.125
							C107.197,102.062,107.9,103.026,107.984,104.067z"/>
					</g>
				</g>
			</g>
		</g>
		<g>
			<g>
				<g>
					<g>
						<g>
							<path fill="#010101" d="M23.734,109.183c0,1.533,1.146,2.805,2.711,2.805h0.463c1.564,0,2.824-1.271,2.824-2.805v-3.047
								h-5.986v3.047H23.734z"/>
						</g>
					</g>
				</g>
			</g>
			<g>
				<g>
					<g>
						<g>
							<path fill="#010101" d="M54.23,109.183c0,1.533,1.324,2.805,2.889,2.805h0.475c1.564,0,2.635-1.271,2.635-2.805v-3.047
								h-5.986v3.047H54.23z"/>
						</g>
					</g>
				</g>
			</g>
			<g>
				<g>
					<g>
						<g>
							<path fill="#010101" d="M56.018,81.585c-0.189-0.439-0.643-0.713-1.125-0.713H28.777c-0.494,0-0.936,0.273-1.123,0.713
								c0,0-7.764,14.771-7.764,16.818c0,3.635,0.578,6.408,4.391,6.408h35.098c3.803,0,4.391-2.75,4.391-6.396
								C63.779,96.366,56.018,81.585,56.018,81.585z M29.586,83.267h24.488c0,0,4.4,8.51,4.023,8.51H25.563
								C25.195,91.776,29.586,83.267,29.586,83.267z M26.666,100.81c-1.514,0-2.742-1.197-2.742-2.678
								c0-1.471,1.229-2.67,2.742-2.67s2.732,1.199,2.732,2.67C29.398,99.612,28.18,100.81,26.666,100.81z M51.289,100.284H32.381
								c-0.295,0-0.535-0.137-0.535-0.398c0-0.252,0.24-0.4,0.535-0.4h18.908c0.295,0,0.537,0.148,0.537,0.4
								C51.814,100.138,51.574,100.284,51.289,100.284z M51.289,98.688H32.381c-0.295,0-0.535-0.148-0.535-0.4
								c0-0.262,0.24-0.398,0.535-0.398h18.908c0.295,0,0.537,0.137,0.537,0.398C51.814,98.54,51.574,98.688,51.289,98.688z
								 M51.289,97.091H32.381c-0.295,0-0.535-0.137-0.535-0.398c0-0.252,0.24-0.4,0.535-0.4h18.908c0.295,0,0.537,0.148,0.537,0.4
								C51.814,96.954,51.574,97.091,51.289,97.091z M57.361,100.81c-1.512,0-2.73-1.197-2.73-2.678c0-1.471,1.219-2.67,2.73-2.67
								s2.742,1.199,2.742,2.67C60.104,99.612,58.873,100.81,57.361,100.81z"/>
						</g>
					</g>
				</g>
			</g>
		</g>
	</g>
	<g>
		<g>
			<g>
				<path fill="#ED2224" d="M132.523,131.358H11.496c-3.088,0-5.809-1.502-7.301-4.012c-1.48-2.512-1.449-5.568,0.084-8.174
					l31-52.451l29.51-49.92c1.543-2.605,4.232-4.16,7.205-4.16c2.975,0,5.664,1.555,7.207,4.172l60.508,102.359
					c1.545,2.605,1.576,5.662,0.086,8.174C138.324,129.868,135.602,131.358,132.523,131.358z M22.916,116.8h98.18l-49.09-83.043
					L46.721,76.534L22.916,116.8z"/>
			</g>
		</g>
	</g>
</g>
</svg>
