<?xml version="1.0" encoding="UTF-8" standalone="no"?>
<!-- Generator: Adobe Illustrator 16.0.0, SVG Export Plug-In . SVG Version: 6.00 Build 0)  -->

<svg
   version="1.1"
   id="_x35_0m"
   x="0px"
   y="0px"
   width="144px"
   height="144px"
   viewBox="0 0 144 144"
   enable-background="new 0 0 144 144"
   xml:space="preserve"
   sodipodi:docname="soccer.svg"
   inkscape:version="1.2.1 (9c6d41e410, 2022-07-14)"
   xmlns:inkscape="http://www.inkscape.org/namespaces/inkscape"
   xmlns:sodipodi="http://sodipodi.sourceforge.net/DTD/sodipodi-0.dtd"
   xmlns="http://www.w3.org/2000/svg"
   xmlns:svg="http://www.w3.org/2000/svg"><defs
   id="defs9" /><sodipodi:namedview
   id="namedview7"
   pagecolor="#ffffff"
   bordercolor="#000000"
   borderopacity="0.25"
   inkscape:showpageshadow="2"
   inkscape:pageopacity="0.0"
   inkscape:pagecheckerboard="true"
   inkscape:deskcolor="#d1d1d1"
   showgrid="false"
   inkscape:zoom="5.4722222"
   inkscape:cx="51.807107"
   inkscape:cy="72"
   inkscape:window-width="1920"
   inkscape:window-height="986"
   inkscape:window-x="-11"
   inkscape:window-y="-11"
   inkscape:window-maximized="1"
   inkscape:current-layer="g4" />
<g
   id="g4">
	<rect
   style="fill:#ffffff;stroke:#000000;stroke-width:0;stroke-dasharray:none"
   id="rect243"
   width="136.50761"
   height="87.35025"
   x="3.4720812"
   y="28.142132" /><path
   fill="#010101"
   d="M71.992,24.784c20.383,0,40.765-0.012,61.158,0.011c6.697,0.012,10.822,4.103,10.822,10.775   c0.034,24.322,0.034,48.644,0.011,72.965c-0.011,6.466-4.171,10.614-10.694,10.637c-12.932,0.047-25.863,0.012-38.794,0.012   c-24.367,0-48.735,0-73.103,0c-4.126,0-8.262,0.151-12.364-0.173c-5.364-0.43-9.003-4.659-9.015-10.047   c-0.022-11.251-0.011-22.491-0.011-33.741c0-13.163,0.022-26.338,0-39.501c-0.012-6.674,4.159-10.915,10.845-10.915   c20.383,0,40.764,0,61.156,0C71.992,24.795,71.992,24.784,71.992,24.784z M24.73,49.638c0,14.948,0,29.721,0,44.679   c-6.582,0-13.071,0-19.723,0c0,0.639,0,1.09,0,1.543c0,4.311-0.011,8.619,0,12.931c0.012,3.407,2.005,5.365,5.458,5.365   c19.118,0,38.226,0,57.345,0c0.533,0,1.077,0,1.68,0c0-6.478-0.012-12.7,0.011-18.933c0-0.835-0.381-0.985-1.077-1.102   c-3.568-0.626-6.767-2.109-9.675-4.254c-7.276-5.363-10.545-14.437-8.4-23.289c2.098-8.679,9.34-15.423,18.075-16.743   c0.986-0.15,1.077-0.579,1.077-1.366c-0.022-5.945-0.022-11.9-0.022-17.845c0-0.221-0.046-0.44-0.068-0.73   c-0.29-0.022-0.522-0.07-0.741-0.07c-19.491,0-38.98-0.011-58.47,0.012c-3.187,0-5.157,2.028-5.18,5.216   c-0.034,4.077,0,8.156,0,12.224c0,0.741,0,1.471,0,2.388C11.659,49.638,18.148,49.638,24.73,49.638z M119.246,94.306   c0-14.936,0-29.708,0-44.691c6.604,0,13.116,0,19.72,0c0-4.982,0.036-9.756-0.012-14.529c-0.034-3.35-2.063-5.272-5.398-5.272   c-19.165,0-38.33,0-57.495,0c-0.499,0-0.985,0-1.448,0c0,6.756,0,13.29,0,19.813c0.706,0.151,1.31,0.255,1.899,0.395   c10.081,2.283,17.404,11.088,17.774,21.401c0.406,11.02-7.833,21.042-18.736,22.745c-0.996,0.149-1.055,0.626-1.055,1.402   c0.013,5.805,0,11.621,0,17.427c0,0.359,0.059,0.719,0.104,1.182c0.499,0,0.904,0,1.322,0c19.071,0,38.144,0,57.206,0   c3.996,0,5.826-1.83,5.851-5.852c0.023-4.217,0.011-8.436,0-12.652c0-0.406-0.059-0.813-0.093-1.368   C132.304,94.306,125.815,94.306,119.246,94.306z M5.066,89.254c5.017,0,9.849,0,14.704,0c0-11.6,0-23.081,0-34.563   c-4.971,0-9.814,0-14.704,0C5.066,66.254,5.066,77.714,5.066,89.254z M124.216,89.266c4.96,0,9.792,0,14.635,0   c0-11.598,0-23.081,0-34.587c-4.936,0-9.745,0-14.635,0C124.216,66.254,124.216,77.736,124.216,89.266z M69.433,89.208   c0-11.518,0-22.931,0-34.355c-7.173,0.718-14.716,7.542-14.809,17.01C54.543,80.563,61.402,88.697,69.433,89.208z M74.577,89.185   c8.401-1.043,15.087-9.118,14.785-17.718c-0.302-8.597-7.057-16.278-14.785-16.719C74.577,66.195,74.577,77.644,74.577,89.185z"
   id="path2" />
</g>
</svg>
