<?xml version="1.0" encoding="utf-8"?>
<!-- Generator: Adobe Illustrator 16.0.0, SVG Export Plug-In . SVG Version: 6.00 Build 0)  -->
<!DOCTYPE svg PUBLIC "-//W3C//DTD SVG 1.1//EN" "http://www.w3.org/Graphics/SVG/1.1/DTD/svg11.dtd">
<svg version="1.1" id="_x35_0m" xmlns="http://www.w3.org/2000/svg" xmlns:xlink="http://www.w3.org/1999/xlink" x="0px" y="0px"
	 width="144px" height="144px" viewBox="0 0 144 144" enable-background="new 0 0 144 144" xml:space="preserve">
<g>
	<path fill="#020202" d="M144,12.833H20.543L0,89.502h123.456l0.348-1.309l0.07,0.022l19.604-73.146l-0.068-0.023L144,12.833z
		 M44.493,45.565h11.343l-2.839,10.579H41.654L44.493,45.565z M37.866,56.145H26.521l2.839-10.579h11.344L37.866,56.145z
		 M98.405,56.145H87.063l2.839-10.579h11.343L98.405,56.145z M105.033,45.565h11.344l-2.84,10.579h-11.343L105.033,45.565z
		 M74.769,45.565h11.344l-2.838,10.579H71.93L74.769,45.565z M68.141,56.145H56.798l2.839-10.579H70.98L68.141,56.145z
		 M90.956,41.648l2.838-10.578h11.344l-2.839,10.578H90.956z M87.154,41.648H75.812l2.838-10.578h11.345L87.154,41.648z
		 M72.022,41.648H60.68l2.839-10.578h11.343L72.022,41.648z M56.891,41.648H45.547l2.84-10.578h11.343L56.891,41.648z
		 M51.954,60.072L49.115,70.65H37.772l2.839-10.578H51.954z M55.743,60.072h11.344L64.249,70.65H52.905L55.743,60.072z
		 M70.888,60.072H82.23L79.392,70.65H68.049L70.888,60.072z M86.02,60.072h11.344l-2.84,10.578H83.181L86.02,60.072z
		 M101.151,60.072h11.344l-2.838,10.578H98.313L101.151,60.072z M116.284,60.072h11.344l-2.84,10.578h-11.343L116.284,60.072z
		 M117.338,56.145l2.84-10.579h11.343l-2.838,10.579H117.338z M121.22,41.648l2.838-10.578h11.345l-2.839,10.578H121.22z
		 M117.431,41.648h-11.344l2.84-10.578h11.343L117.431,41.648z M109.981,27.144l2.884-10.776h11.344l-2.885,10.776H109.981z
		 M106.181,27.144H94.837l2.886-10.776h11.343L106.181,27.144z M91.047,27.144H79.705l2.884-10.776h11.345L91.047,27.144z
		 M75.904,27.144H64.561l2.886-10.776h11.343L75.904,27.144z M60.772,27.144H49.429l2.886-10.776h11.343L60.772,27.144z
		 M45.64,27.144H34.297l2.884-10.776h11.345L45.64,27.144z M44.586,31.058l-2.84,10.58H30.415l2.839-10.58H44.586z M26.614,41.648
		H16.465l2.839-10.578h10.149L26.614,41.648z M25.56,45.565l-2.839,10.579H12.571l2.839-10.579H25.56z M21.679,60.072L18.841,70.65
		H8.689l2.839-10.578H21.679z M25.479,60.072h11.343L33.983,70.65H22.642L25.479,60.072z M32.93,74.577l-3.059,11.402H18.527
		l3.059-11.402H32.93z M36.729,74.577h11.344l-3.06,11.402H33.671L36.729,74.577z M51.862,74.577h11.344l-3.06,11.402H48.803
		L51.862,74.577z M66.994,74.577h11.343l-3.059,11.402H63.936L66.994,74.577z M82.126,74.577h11.345L90.41,85.979H79.079
		L82.126,74.577z M97.271,74.577h11.344l-3.06,11.402H94.211L97.271,74.577z M112.402,74.577h11.343l-3.059,11.402h-11.343
		L112.402,74.577z M136.444,27.144h-11.343l2.886-10.776h11.343L136.444,27.144z M23.243,16.354h10.15l-2.886,10.776h-10.15
		L23.243,16.354z M7.646,74.577h10.151l-3.06,11.402H4.588L7.646,74.577z"/>
	<polygon fill="#AEAEAE" points="85.684,131.167 46.822,131.167 56.172,93.21 77.283,93.21 	"/>
</g>
</svg>
