<?xml version="1.0" encoding="utf-8"?>
<!-- Generator: Adobe Illustrator 16.0.0, SVG Export Plug-In . SVG Version: 6.00 Build 0)  -->
<!DOCTYPE svg PUBLIC "-//W3C//DTD SVG 1.1//EN" "http://www.w3.org/Graphics/SVG/1.1/DTD/svg11.dtd">
<svg version="1.1" id="_x35_0m" xmlns="http://www.w3.org/2000/svg" xmlns:xlink="http://www.w3.org/1999/xlink" x="0px" y="0px"
	 width="144px" height="144px" viewBox="0 0 144 144" enable-background="new 0 0 144 144" xml:space="preserve">
<g>
	<g>
		<g>
			<g>
				<g>
					<g>
						<path fill="#FFFFFF" d="M4.583,100.535c-2.39,0-4.339-1.924-4.339-4.288V47.754c0-2.363,1.949-4.289,4.339-4.289h134.835
							c2.39,0,4.339,1.926,4.339,4.289v48.493c0,2.364-1.949,4.288-4.339,4.288H4.583z"/>
					</g>
				</g>
				<g>
					<g>
						<g>
							<path fill="#878787" d="M139.418,43.696c2.267,0,4.096,1.815,4.096,4.058v48.493c0,2.241-1.829,4.058-4.096,4.058H4.583
								c-2.267,0-4.096-1.816-4.096-4.058V47.754c0-2.242,1.829-4.058,4.096-4.058H139.418L139.418,43.696z M139.418,43.221H4.583
								C2.06,43.221,0,45.257,0,47.754v48.493c0,2.497,2.06,4.532,4.583,4.532h134.835c2.523,0,4.582-2.035,4.582-4.532V47.754
								C144,45.257,141.941,43.221,139.418,43.221L139.418,43.221z"/>
						</g>
					</g>
				</g>
			</g>
		</g>
	</g>
	<g>
		<g>
			<g>
				<path fill="#010101" d="M25.313,88.544c-4.935,0-8.689-1.048-11.882-4.303l4.106-4.106c2.059,2.06,4.838,2.741,7.861,2.741
					c3.753,0,5.752-1.414,5.752-4.021c0-1.146-0.317-2.097-0.999-2.742c-0.646-0.597-1.377-0.914-2.876-1.146l-3.937-0.548
					c-2.791-0.415-4.84-1.28-6.301-2.694c-1.56-1.547-2.328-3.655-2.328-6.397c0-5.802,4.29-9.872,11.334-9.872
					c4.473,0,7.727,1.098,10.506,3.791l-4.022,3.973c-2.059-1.962-4.521-2.243-6.666-2.243c-3.388,0-5.034,1.877-5.034,4.107
					c0,0.817,0.281,1.695,0.964,2.328c0.634,0.597,1.694,1.097,3.01,1.279l3.84,0.548c2.973,0.415,4.837,1.231,6.214,2.512
					c1.731,1.645,2.511,4.021,2.511,6.897C37.365,84.973,32.112,88.544,25.313,88.544z"/>
			</g>
		</g>
		<g>
			<g>
				<path fill="#010101" d="M59.778,85.619c-1.464,1.56-3.888,2.925-7.41,2.925c-3.523,0-5.898-1.365-7.362-2.925
					c-2.145-2.242-2.692-4.937-2.692-9.274c0-4.302,0.548-6.995,2.692-9.225c1.464-1.561,3.839-2.925,7.362-2.925
					c3.521,0,5.935,1.364,7.41,2.925c2.143,2.241,2.692,4.936,2.692,9.225C62.471,80.683,61.921,83.377,59.778,85.619z
					 M55.158,70.581c-0.683-0.683-1.597-1.048-2.79-1.048c-1.195,0-2.06,0.365-2.742,1.048c-1.231,1.229-1.365,3.29-1.365,5.751
					c0,2.463,0.134,4.57,1.365,5.802c0.683,0.683,1.56,1.047,2.742,1.047c1.182,0,2.096-0.364,2.79-1.047
					c1.231-1.231,1.378-3.339,1.378-5.802C56.523,73.871,56.39,71.823,55.158,70.581z"/>
			</g>
		</g>
		<g>
			<g>
				<path fill="#010101" d="M82.006,88.275v-2.193c-1.547,1.646-3.74,2.462-5.936,2.462c-2.376,0-4.302-0.779-5.618-2.097
					c-1.924-1.925-2.424-4.154-2.424-6.764v-15.22h5.935v14.392c0,3.241,2.06,4.338,3.924,4.338c1.876,0,3.974-1.097,3.974-4.338
					V64.464h5.935v23.812H82.006z"/>
			</g>
		</g>
		<g>
			<g>
				<path fill="#010101" d="M102.126,88.275c-4.838,0-6.896-3.425-6.896-6.813V69.666h-2.511v-4.521h2.511v-7.031h5.934v7.031h4.205
					v4.521h-4.205v11.42c0,1.365,0.646,2.145,2.06,2.145h2.146v5.033h-3.242V88.275z"/>
			</g>
		</g>
		<g>
			<g>
				<path fill="#010101" d="M124.636,88.275V73.736c0-3.155-2.011-4.203-3.889-4.203c-1.876,0-3.838,1.096-3.838,4.203v14.539
					h-5.936V55.737h5.936v10.919c1.597-1.646,3.606-2.461,5.716-2.461c5.203,0,7.946,3.655,7.946,8.676v15.404H124.636z"/>
			</g>
		</g>
	</g>
</g>
</svg>
