<?xml version="1.0" encoding="utf-8"?>
<!-- Generator: Adobe Illustrator 16.0.0, SVG Export Plug-In . SVG Version: 6.00 Build 0)  -->
<!DOCTYPE svg PUBLIC "-//W3C//DTD SVG 1.1//EN" "http://www.w3.org/Graphics/SVG/1.1/DTD/svg11.dtd">
<svg version="1.1" id="_x35_0m" xmlns="http://www.w3.org/2000/svg" xmlns:xlink="http://www.w3.org/1999/xlink" x="0px" y="0px"
	 width="144px" height="144px" viewBox="0 0 144 144" enable-background="new 0 0 144 144" xml:space="preserve">
<g>
	<path fill="#010101" d="M132.502,64.536c-0.504,3.477-0.917,6.965-1.525,10.418c-1.549,8.687-3.994,17.166-6.208,25.69
		c-0.378,1.435-0.619,2.915-0.883,4.372c-0.184,1.01-0.712,1.825-1.492,2.375c-1.205,0.86-2.456,1.698-3.787,2.329
		c-3.66,1.722-7.562,2.697-11.497,3.522c-7.836,1.653-15.766,2.525-23.751,3.053c-9.948,0.666-19.908,0.745-29.867,0.264
		c-10.464-0.504-20.872-1.503-31.095-3.97c-3.339-0.804-6.643-1.767-9.707-3.362c-0.872-0.447-1.699-0.998-2.479-1.583
		c-1.079-0.814-1.606-1.894-1.871-3.281c-0.585-3.053-1.4-6.07-2.191-9.076c-2.008-7.619-4.028-15.238-5.255-23.04
		C0.493,69.7,0.241,67.13,0,64.548c1.916,3.947,5.61,5.564,9.294,7.114c5.622,2.375,11.543,3.729,17.521,4.796
		c16.97,3.018,34.078,3.672,51.267,2.938c8.893-0.379,17.75-1.217,26.516-2.766c6.563-1.158,13.07-2.593,19.197-5.289
		c1.813-0.804,3.545-1.836,5.22-2.903c1.469-0.941,2.64-2.237,3.213-3.958C132.308,64.502,132.4,64.514,132.502,64.536z
		 M77.037,115.516c0.013-0.321,0.046-0.585,0.046-0.85c0-1.893,0.012-3.786,0-5.668c-0.022-5.6-4.292-10.441-9.661-10.946
		c-5.806-0.55-11.004,3.133-11.922,8.835c-0.447,2.755-0.195,5.622-0.264,8.445c0,0.046,0.045,0.092,0.115,0.195
		C62.534,115.871,69.762,115.871,77.037,115.516z M26.184,77.502c0.034,0.344,0.046,0.563,0.069,0.769
		c0.62,4.808,1.239,9.604,1.858,14.412c0.861,6.654,1.71,13.31,2.582,19.953c0.023,0.207,0.172,0.527,0.31,0.562
		c0.792,0.172,1.595,0.265,2.467,0.391c-0.045-0.563-0.08-1.021-0.126-1.457c-0.723-6.667-1.457-13.332-2.18-20.011
		c-0.493-4.498-0.963-8.996-1.468-13.494c-0.023-0.218-0.264-0.55-0.448-0.585C28.272,77.823,27.273,77.686,26.184,77.502z
		 M98.815,113.6c0.78-0.115,1.457-0.253,2.133-0.31c0.47-0.047,0.632-0.241,0.689-0.688c0.206-1.722,0.436-3.431,0.653-5.152
		c1.045-8.112,2.089-16.213,3.133-24.325c0.241-1.835,0.47-3.683,0.723-5.633c-1.217,0.206-2.329,0.389-3.488,0.585
		C101.374,89.906,100.1,101.678,98.815,113.6z M64.645,80.795c0,5.439,0,10.774,0,16.098c1.067,0,1.985,0,3.018,0
		c0-5.369,0-10.693,0-16.098c-0.757,0-1.549,0-2.352,0C65.092,80.795,64.852,80.795,64.645,80.795z"/>
	<path fill="#010101" d="M65.437,78.569c-11.039-0.034-22.73-0.712-34.33-2.582c-7.034-1.124-13.976-2.605-20.607-5.278
		c-2.353-0.952-4.636-2.054-6.587-3.694c-0.688-0.574-1.331-1.239-1.858-1.962c-1.308-1.79-1.389-3.833,0-5.542
		c0.975-1.193,2.169-2.283,3.454-3.145c3.511-2.34,7.493-3.648,11.52-4.818c6.747-1.95,13.643-3.121,20.596-3.981
		c11.497-1.412,23.04-1.848,34.618-1.572c11.245,0.264,22.443,1.182,33.516,3.305c5.989,1.158,11.933,2.559,17.498,5.151
		c1.848,0.861,3.649,1.905,5.244,3.168c3.717,2.948,3.638,6.401-0.058,9.385c-2.868,2.307-6.218,3.672-9.661,4.842
		c-6.345,2.181-12.897,3.478-19.517,4.452C88.281,77.915,77.232,78.546,65.437,78.569z M66.802,48.335
		c-12.117,0-24.554,0.631-36.889,2.57c-5.45,0.86-10.843,1.95-16.052,3.821c-2.364,0.849-4.681,1.812-6.598,3.487
		c-2.203,1.928-2.226,4.097,0.046,5.943c1.159,0.941,2.501,1.732,3.854,2.376c3.604,1.709,7.447,2.707,11.326,3.557
		c11.394,2.467,22.948,3.442,34.571,3.82c13.138,0.437,26.252,0.012,39.322-1.572c6.426-0.779,12.806-1.835,19.035-3.671
		c3.122-0.918,6.208-1.962,8.881-3.89c3.201-2.317,3.224-4.911-0.034-7.137c-1.503-1.021-3.179-1.859-4.877-2.524
		c-6.437-2.514-13.218-3.695-20.022-4.646C88.683,48.942,77.944,48.393,66.802,48.335z"/>
	<path fill="#010101" d="M7.503,105.935c1.044,2.249,2.961,3.442,5.003,4.464c3.74,1.87,7.768,2.926,11.83,3.82
		c6.747,1.48,13.597,2.307,20.47,2.903c9.65,0.838,19.311,1.032,28.983,0.769c11.222-0.31,22.398-1.25,33.413-3.5
		c3.97-0.813,7.883-1.847,11.6-3.499c0.436-0.195,0.872-0.401,1.297-0.631c1.916-1.021,3.718-2.191,4.681-4.269
		c2.192,1.549,2.571,3.97,0.77,5.841c-0.964,0.998-2.146,1.847-3.362,2.523c-3.707,2.065-7.769,3.19-11.876,4.154
		c-7.481,1.768-15.077,2.742-22.729,3.396c-7.55,0.643-15.101,0.918-22.673,0.872c-12.002-0.069-23.958-0.792-35.811-2.835
		c-5.806-0.997-11.554-2.249-16.993-4.612c-1.045-0.459-2.055-1.01-3.041-1.595c-0.62-0.356-1.193-0.804-1.721-1.285
		C5.014,110.364,5.048,108.069,7.503,105.935z"/>
	<path fill="#010101" d="M64.553,21.222c1.618,0,3.155,0,4.704,0c1.836,0,3.672-0.023,5.508,0.022
		c0.378,0.012,0.827,0.195,1.101,0.448c1.24,1.158,2.433,2.386,3.707,3.648c-1.354,1.365-2.639,2.685-3.97,3.981
		c-0.173,0.16-0.54,0.184-0.815,0.184c-2.558,0.011-5.117,0.011-7.665,0.011c-0.287,0-0.574,0-0.953,0c0,5.118,0,10.167,0,15.262
		c-0.574,0-1.067,0-1.618,0C64.553,36.952,64.553,29.139,64.553,21.222z"/>
	<path fill="#010101" d="M98.678,46.958c-0.609-0.069-1.102-0.126-1.63-0.184c0-7.355,0-14.676,0-22.076c0.322,0,0.609,0,0.885,0
		c3.086,0,6.172,0.011,9.259-0.012c0.551,0,0.929,0.172,1.32,0.563c1.159,1.17,2.363,2.295,3.637,3.522
		c-0.953,0.964-1.882,1.755-2.639,2.696c-0.987,1.217-2.134,1.664-3.718,1.561c-2.33-0.149-4.682-0.034-7.125-0.034
		C98.678,37.642,98.678,42.254,98.678,46.958z"/>
	<path fill="#010101" d="M48.455,28.794c-1.411,1.4-2.65,2.651-3.923,3.856c-0.219,0.206-0.609,0.31-0.918,0.31
		c-2.559,0.022-5.117,0.011-7.676,0.011c-0.287,0-0.574,0-0.987,0c0,0.333,0,0.62,0,0.896c0,3.832,0,7.676,0,11.509
		c0,1.491,0,1.491-1.583,1.571c0-7.389,0-14.79,0-22.271c0.298,0,0.563,0,0.815,0c3.144,0,6.288-0.011,9.432,0.023
		c0.345,0,0.769,0.184,1.021,0.424C45.908,26.305,47.135,27.521,48.455,28.794z"/>
	<path fill="#010101" d="M1.778,57.801c0-7.045,0-14.09,0-21.17c0.241-0.022,0.447-0.057,0.654-0.057
		c3.224,0,6.448-0.012,9.661,0.011c0.264,0,0.608,0.069,0.792,0.241c1.319,1.239,2.604,2.502,3.958,3.81
		c-1.389,1.411-2.65,2.73-3.958,4.005c-0.184,0.183-0.585,0.217-0.884,0.217c-2.559,0.012-5.117,0.012-7.665,0.012
		c-0.287,0-0.574,0-0.975,0c0,0.368,0,0.644,0,0.931c0,3.143-0.022,6.287,0.023,9.431c0.011,0.86-0.104,1.55-0.872,2.042
		c-0.229,0.149-0.378,0.437-0.551,0.666C1.893,57.881,1.835,57.847,1.778,57.801z"/>
	<path fill="#010101" d="M128.797,36.574c1.675,0,3.213,0,4.75,0c1.836,0,3.673-0.023,5.508,0.022
		c0.379,0.012,0.826,0.195,1.102,0.448c1.272,1.17,2.49,2.386,3.843,3.705c-1.4,1.354-2.673,2.605-3.981,3.81
		c-0.218,0.207-0.608,0.298-0.918,0.298c-2.558,0.023-5.118,0.012-7.664,0.012c-0.287,0-0.574,0-0.999,0c0,2.181,0,4.292,0,6.414
		c0,2.135,0,4.258,0,6.518c-0.906-0.757-1.71-1.285-1.686-2.661c0.103-5.829,0.045-11.67,0.045-17.498
		C128.797,37.309,128.797,36.998,128.797,36.574z"/>
	<path fill="#010101" d="M59.447,114.563c0-2.192-0.161-4.28,0.034-6.334c0.321-3.235,3.259-5.68,6.563-5.736
		c3.305-0.059,6.276,2.374,6.804,5.599c0.08,0.494,0.126,1.01,0.126,1.516c0.011,1.617,0.011,3.235,0.011,4.956
		C68.432,114.563,63.945,114.563,59.447,114.563z"/>
	<path fill="#010101" d="M10.201,63.871c1.457-0.7,2.868-1.492,4.371-2.101c4.739-1.916,9.707-2.982,14.733-3.832
		c15.215-2.559,30.556-3.086,45.954-2.627c8.307,0.252,16.592,0.883,24.818,2.146c6.299,0.963,12.553,2.134,18.463,4.635
		c1.238,0.528,2.409,1.217,3.602,1.837c0,0.114,0.011,0.229,0.011,0.332c-1.606,0.757-3.166,1.618-4.819,2.261
		c-4.991,1.939-10.199,3.018-15.467,3.855c-16.109,2.57-32.334,3.018-48.604,2.295c-8.571-0.391-17.108-1.205-25.553-2.766
		c-4.612-0.85-9.179-1.894-13.528-3.694c-1.365-0.574-2.662-1.309-3.993-1.963C10.188,64.123,10.188,63.997,10.201,63.871z
		 M102.969,68.815c0.011-0.091,0.011-0.183,0.022-0.274c-0.585-0.173-1.159-0.367-1.744-0.528
		c-8.479-2.283-17.165-3.109-25.896-3.533c-7.264-0.345-14.538-0.287-21.801,0.184c-6.54,0.424-13.046,1.147-19.449,2.581
		c-1.618,0.367-3.201,0.837-4.807,1.262c0.011,0.104,0.022,0.207,0.034,0.322C53.882,72.476,78.425,72.476,102.969,68.815z"/>
</g>
</svg>
