<?xml version="1.0" encoding="utf-8"?>
<!-- Generator: Adobe Illustrator 16.0.0, SVG Export Plug-In . SVG Version: 6.00 Build 0)  -->
<!DOCTYPE svg PUBLIC "-//W3C//DTD SVG 1.1//EN" "http://www.w3.org/Graphics/SVG/1.1/DTD/svg11.dtd">
<svg version="1.1" id="_x35_0m" xmlns="http://www.w3.org/2000/svg" xmlns:xlink="http://www.w3.org/1999/xlink" x="0px" y="0px"
	 width="144px" height="144px" viewBox="0 0 144 144" enable-background="new 0 0 144 144" xml:space="preserve">
<g>
	<polygon fill="#EC2227" points="101.82,0 42.181,0 0.001,42.18 0.001,101.819 42.181,144 101.82,144 144,101.819 144,42.18 	"/>
	<path fill="#FFFFFF" d="M99.25,137.8H44.751L6.2,99.26V44.75L44.751,6.2H99.26l38.54,38.54v54.51L99.25,137.8z M45.57,135.8h52.851
		l37.369-37.369V45.569L98.431,8.2H45.57L8.201,45.569v52.85L45.57,135.8z"/>
	<g>
		<path fill="#FFFFFF" d="M29.571,81.09c1.51,0,2.739-0.17,3.689-0.5c1.79-0.641,2.69-1.83,2.69-3.561c0-1.01-0.44-1.8-1.33-2.35
			c-0.891-0.539-2.28-1.02-4.19-1.439l-3.25-0.73c-3.19-0.72-5.399-1.51-6.62-2.351c-2.069-1.42-3.1-3.629-3.1-6.64
			c0-2.75,1-5.03,3-6.85c2-1.82,4.939-2.729,8.81-2.729c3.24,0,6.001,0.859,8.28,2.569c2.28,1.72,3.479,4.2,3.59,7.471h-6.17
			c-0.11-1.851-0.92-3.16-2.42-3.94c-1-0.51-2.24-0.77-3.73-0.77c-1.649,0-2.97,0.329-3.959,0.999c-0.99,0.671-1.48,1.601-1.48,2.79
			c0,1.1,0.49,1.92,1.46,2.46c0.62,0.36,1.96,0.78,4,1.271l5.29,1.27c2.32,0.56,4.07,1.3,5.25,2.229
			c1.829,1.441,2.75,3.53,2.75,6.271c0,2.8-1.07,5.129-3.221,6.989c-2.14,1.85-5.18,2.779-9.089,2.779c-4,0-7.141-0.909-9.44-2.739
			c-2.3-1.829-3.44-4.34-3.44-7.529h6.12c0.19,1.399,0.58,2.449,1.15,3.139C25.261,80.46,27.041,81.09,29.571,81.09z"/>
		<path fill="#FFFFFF" d="M69.181,54.82v5.439h-9.18v25.26H53.54V60.26h-9.229V54.82H69.181z"/>
		<path fill="#FFFFFF" d="M85.76,86.38c-4.389,0-7.74-1.189-10.06-3.58c-3.109-2.93-4.669-7.149-4.669-12.66
			c0-5.62,1.55-9.84,4.669-12.659c2.319-2.391,5.671-3.581,10.06-3.581c4.391,0,7.74,1.19,10.061,3.581
			c3.101,2.819,4.641,7.039,4.641,12.659c0,5.511-1.55,9.73-4.641,12.66C93.5,85.19,90.15,86.38,85.76,86.38z M91.82,78.13
			c1.479-1.88,2.229-4.54,2.229-8c0-3.44-0.75-6.11-2.239-7.99c-1.49-1.88-3.511-2.82-6.051-2.82s-4.569,0.94-6.08,2.811
			c-1.509,1.87-2.269,4.54-2.269,8s0.76,6.12,2.269,8c1.511,1.87,3.54,2.81,6.08,2.81S90.32,80.01,91.82,78.13z"/>
		<path fill="#FFFFFF" d="M118.4,74.489h-6.521v11.04h-6.37V54.83h13.371c3.08,0,5.539,0.79,7.369,2.38
			c1.83,1.58,2.75,4.029,2.75,7.35c0,3.62-0.92,6.19-2.75,7.69C124.42,73.74,121.8,74.489,118.4,74.489z M121.4,68.09
			c0.83-0.74,1.25-1.9,1.25-3.5s-0.42-2.74-1.261-3.42c-0.839-0.681-2.02-1.02-3.53-1.02h-5.979v9.04h5.979
			C119.37,69.2,120.551,68.83,121.4,68.09z"/>
	</g>
</g>
</svg>
