<?xml version="1.0" encoding="utf-8"?>
<!-- Generator: Adobe Illustrator 16.0.0, SVG Export Plug-In . SVG Version: 6.00 Build 0)  -->
<!DOCTYPE svg PUBLIC "-//W3C//DTD SVG 1.1//EN" "http://www.w3.org/Graphics/SVG/1.1/DTD/svg11.dtd">
<svg version="1.1" id="_x35_0m" xmlns="http://www.w3.org/2000/svg" xmlns:xlink="http://www.w3.org/1999/xlink" x="0px" y="0px"
	 width="144px" height="144px" viewBox="0 0 144 144" enable-background="new 0 0 144 144" xml:space="preserve">
<g>
	<g>
		<path fill="#3D93D0" d="M144,72c0,39.761-32.24,72-72,72S0,111.761,0,72C0,32.23,32.23,0,72,0S144,32.24,144,72z"/>
		<path fill="#FFFFFF" d="M120.449,23.55C107.51,10.61,90.301,3.48,72,3.48s-35.51,7.12-48.449,20.069
			C10.609,36.49,3.48,53.7,3.48,72s7.129,35.51,20.07,48.45c12.939,12.94,30.148,20.07,48.449,20.07s35.51-7.13,48.449-20.07
			c12.941-12.94,20.07-30.15,20.07-48.45S133.391,36.49,120.449,23.55z M72,136.42c-35.52,0-64.42-28.9-64.42-64.42
			S36.48,7.58,72,7.58s64.42,28.9,64.42,64.42S107.52,136.42,72,136.42z"/>
	</g>
	<path fill="#FFFFFF" d="M44.711,44.36L62.25,15.14c0.279-0.56,0.75-0.56,1.031,0L80.82,44.36c0.279,0.56,0.07,1.01-0.471,1.01
		h-8.389c-0.541,0-0.99,0.53-0.99,1.18v23.03c1.609-0.829,3.328-1.49,5.18-2c3.6-0.979,19.619-0.609,19.619-0.609
		c0.84,0,1.531-0.69,1.531-1.54v-8.95c0-0.84,0.58-1.16,1.279-0.7l23.49,18.33c0.699,0.459,0.699,1.21,0,1.67l-23.49,15.8
		c-0.699,0.46-1.279,0.149-1.279-0.7v-7.891c0-0.839-0.691-1.509-1.531-1.479c0,0-17.689-0.01-20.18,2.35
		c-2.76,2.601-4.051,7.431-4.619,13.45v28.021c0,0.649-0.439,1.18-0.98,1.18H55.541c-0.541,0-0.99-0.53-0.99-1.18V46.55
		c0-0.649-0.439-1.18-0.99-1.18H45.17C44.641,45.37,44.42,44.92,44.711,44.36z"/>
</g>
</svg>
