<?xml version="1.0" encoding="utf-8"?>
<!-- Generator: Adobe Illustrator 16.0.0, SVG Export Plug-In . SVG Version: 6.00 Build 0)  -->
<!DOCTYPE svg PUBLIC "-//W3C//DTD SVG 1.1//EN" "http://www.w3.org/Graphics/SVG/1.1/DTD/svg11.dtd">
<svg version="1.1" id="_x35_0m" xmlns="http://www.w3.org/2000/svg" xmlns:xlink="http://www.w3.org/1999/xlink" x="0px" y="0px"
	 width="144px" height="144px" viewBox="0 0 144 144" enable-background="new 0 0 144 144" xml:space="preserve">
<g>
	<g>
		<path fill="#3D93D0" d="M143.999,72c0,39.76-32.239,72-71.999,72c-39.761,0-72-32.24-72-72C0,32.229,32.229,0,72,0
			C111.77,0,143.999,32.239,143.999,72z"/>
		<path fill="#FFFFFF" d="M120.449,23.55C107.51,10.609,90.299,3.479,72,3.479c-18.3,0-35.51,7.12-48.45,20.07
			C10.609,36.49,3.479,53.7,3.479,72s7.13,35.51,20.07,48.45C36.49,133.39,53.7,140.52,72,140.52c18.299,0,35.51-7.13,48.449-20.069
			c12.94-12.94,20.07-30.15,20.07-48.45S133.39,36.49,120.449,23.55z M72,136.42c-35.52,0-64.42-28.9-64.42-64.42
			S36.48,7.58,72,7.58s64.42,28.9,64.42,64.42S107.52,136.42,72,136.42z"/>
	</g>
	<path fill="#FFFFFF" d="M96.96,60.229c0.79,0,1.1-0.55,0.689-1.229L72.75,18.26c-0.41-0.67-1.09-0.67-1.5,0L46.35,59
		c-0.41,0.68-0.1,1.229,0.69,1.229h11.52c0.79,0,1.44,0.65,1.44,1.44v63.14c0,0.79,0.649,1.44,1.44,1.44H82.56
		c0.79,0,1.44-0.65,1.44-1.44V61.67c0-0.79,0.649-1.44,1.439-1.44H96.96z"/>
</g>
</svg>
