<?xml version="1.0" encoding="utf-8"?>
<!-- Generator: Adobe Illustrator 16.0.0, SVG Export Plug-In . SVG Version: 6.00 Build 0)  -->
<!DOCTYPE svg PUBLIC "-//W3C//DTD SVG 1.1//EN" "http://www.w3.org/Graphics/SVG/1.1/DTD/svg11.dtd">
<svg version="1.1" id="_x35_0m" xmlns="http://www.w3.org/2000/svg" xmlns:xlink="http://www.w3.org/1999/xlink" x="0px" y="0px"
	 width="144px" height="144px" viewBox="0 0 144 144" enable-background="new 0 0 144 144" xml:space="preserve">
<g>
	<g>
		<path fill="#3D93D0" d="M144,72c0,39.761-32.24,72-72,72S0,111.761,0,72C0,32.23,32.23,0,72,0S144,32.24,144,72z"/>
		<path fill="#FFFFFF" d="M120.45,23.55C107.51,10.61,90.3,3.48,72,3.48s-35.51,7.12-48.45,20.069C10.61,36.49,3.48,53.7,3.48,72
			s7.13,35.51,20.069,48.45c12.94,12.94,30.15,20.07,48.45,20.07s35.51-7.13,48.45-20.07C133.39,107.51,140.52,90.3,140.52,72
			S133.39,36.49,120.45,23.55z M72,136.42c-35.521,0-64.42-28.9-64.42-64.42S36.479,7.58,72,7.58c35.52,0,64.42,28.9,64.42,64.42
			S107.52,136.42,72,136.42z"/>
	</g>
	<path fill="#FFFFFF" d="M100.859,44.36L83.319,15.14c-0.279-0.56-0.75-0.56-1.029,0L64.75,44.36c-0.28,0.56-0.07,1.01,0.47,1.01
		h8.391c0.539,0,0.99,0.53,0.99,1.18v23.03c-1.61-0.829-3.331-1.49-5.181-2c-3.6-0.979-19.62-0.609-19.62-0.609
		c-0.84,0-1.529-0.69-1.529-1.54v-8.95c0-0.84-0.581-1.16-1.28-0.7L23.5,74.13c-0.699,0.46-0.699,1.21,0,1.67l23.49,15.78
		c0.699,0.46,1.28,0.149,1.28-0.7v-7.891c0-0.839,0.689-1.509,1.529-1.479c0,0,17.69-0.01,20.18,2.35
		c2.761,2.601,4.05,7.431,4.621,13.45v28.021c0,0.649,0.439,1.18,0.979,1.18H90.03c0.539,0,0.99-0.53,0.99-1.18V46.55
		c0-0.649,0.439-1.18,0.99-1.18h8.39C100.931,45.37,101.149,44.92,100.859,44.36z"/>
</g>
</svg>
