<?xml version="1.0" encoding="utf-8"?>
<!-- Generator: Adobe Illustrator 16.0.0, SVG Export Plug-In . SVG Version: 6.00 Build 0)  -->
<!DOCTYPE svg PUBLIC "-//W3C//DTD SVG 1.1//EN" "http://www.w3.org/Graphics/SVG/1.1/DTD/svg11.dtd">
<svg version="1.1" id="_x35_0m" xmlns="http://www.w3.org/2000/svg" xmlns:xlink="http://www.w3.org/1999/xlink" x="0px" y="0px"
	 width="144px" height="144px" viewBox="0 0 144 144" enable-background="new 0 0 144 144" xml:space="preserve">
<g>
	<g>
		<g>
			<g>
				<path fill="#FFD62C" d="M143.336,48.509c0-1.758-1.438-3.242-3.218-3.242H3.906c-1.781,0-3.241,1.484-3.241,3.242v46.959
					c0,1.757,1.472,3.266,3.241,3.266h136.199c1.781,0,3.219-1.509,3.219-3.266V48.509H143.336z"/>
			</g>
			<g>
				<path fill="#010101" d="M0.167,95.468V48.509c0-2.066,1.662-3.74,3.751-3.74h136.2c2.078,0,3.716,1.686,3.716,3.74v46.959
					c0,2.066-1.639,3.764-3.716,3.764H3.906C1.829,99.22,0.167,97.521,0.167,95.468z M3.906,45.932
					c-1.472,0-2.743,1.116-2.743,2.577v46.959c0,1.448,1.271,2.589,2.743,2.589h136.199c1.473,0,2.719-1.141,2.719-2.589V48.509
					c0-1.449-1.247-2.577-2.719-2.577H3.906z"/>
			</g>
		</g>
		<g>
			<g>
				<g>
					<path fill="#FFD62C" d="M0.832,95.385V48.509c0-1.662,1.401-3.076,3.075-3.076h136.199c1.675,0,3.052,1.414,3.052,3.076v46.959
						c0,1.662-1.377,3.1-3.052,3.1H3.906c-1.686,0-3.075-1.426-3.075-3.1V95.385z M0.499,95.468c0,1.853,1.543,3.432,3.407,3.432
						h136.199c1.877,0,3.385-1.567,3.385-3.432V48.509c0-1.853-1.52-3.408-3.385-3.408H3.906c-1.876,0-3.407,1.556-3.407,3.408
						V95.468L0.499,95.468z"/>
				</g>
				<g>
					<path fill="#010101" d="M0,95.468V48.509c0-2.161,1.733-3.906,3.918-3.906h136.2c2.173,0,3.882,1.757,3.882,3.906v46.959
						c0,2.161-1.709,3.93-3.882,3.93H3.906C1.733,99.397,0,97.617,0,95.468z M3.906,46.099c-1.377,0-2.41,1.057-2.41,2.41v46.959
						c0,1.354,1.033,2.422,2.41,2.422h136.199c1.378,0,2.553-1.068,2.553-2.422V48.509c0-1.354-1.175-2.41-2.553-2.41H3.906z"/>
				</g>
			</g>
		</g>
	</g>
	<g>
		<g>
			<g>
				<polygon fill="#010101" points="142.67,73.24 117.926,98.722 99.95,98.722 142.67,55.265 				"/>
			</g>
		</g>
		<g>
			<g>
				<polygon fill="#010101" points="139.073,45.267 86.106,98.722 68.129,98.722 121.097,45.267 				"/>
			</g>
		</g>
		<g>
			<g>
				<polygon fill="#010101" points="1.33,70.261 25.623,45.267 43.599,45.267 1.33,88.237 				"/>
			</g>
		</g>
		<g>
			<g>
				<polygon fill="#010101" points="107.252,45.267 54.273,98.722 36.297,98.722 89.276,45.267 				"/>
			</g>
		</g>
		<g>
			<g>
				<polygon fill="#010101" points="75.431,45.267 22.453,98.722 4.477,98.722 57.443,45.267 				"/>
			</g>
		</g>
	</g>
</g>
</svg>
