<?xml version="1.0" encoding="utf-8"?>
<!-- Generator: Adobe Illustrator 16.0.0, SVG Export Plug-In . SVG Version: 6.00 Build 0)  -->
<!DOCTYPE svg PUBLIC "-//W3C//DTD SVG 1.1//EN" "http://www.w3.org/Graphics/SVG/1.1/DTD/svg11.dtd">
<svg version="1.1" id="_x35_0m" xmlns="http://www.w3.org/2000/svg" xmlns:xlink="http://www.w3.org/1999/xlink" x="0px" y="0px"
	 width="144px" height="144px" viewBox="0 0 144 144" enable-background="new 0 0 144 144" xml:space="preserve">
<g>
	<g>
		<g>
			<g>
				<path fill="#FFD62C" d="M0.664,48.515c0-1.757,1.449-3.242,3.219-3.242h136.199c1.781,0,3.242,1.485,3.242,3.242v46.959
					c0,1.757-1.473,3.253-3.242,3.253H3.883c-1.781,0-3.219-1.508-3.219-3.253V48.515z"/>
			</g>
			<g>
				<path fill="#010101" d="M140.094,99.237H3.883c-2.078,0-3.717-1.698-3.717-3.764V48.515c0-2.066,1.639-3.74,3.717-3.74h136.199
					c2.078,0,3.752,1.687,3.752,3.74v46.959C143.834,97.527,142.172,99.237,140.094,99.237z M3.883,45.938
					c-1.473,0-2.72,1.129-2.72,2.577v46.959c0,1.448,1.247,2.589,2.72,2.589h136.199c1.473,0,2.742-1.141,2.742-2.589V48.515
					c0-1.448-1.27-2.577-2.742-2.577H3.883z"/>
			</g>
		</g>
		<g>
			<g>
				<g>
					<path fill="#FFD62C" d="M143.17,95.474c0,1.662-1.402,3.099-3.076,3.099H3.883c-1.687,0-3.052-1.425-3.052-3.099V48.515
						c0-1.662,1.365-3.075,3.052-3.075h136.199c1.686,0,3.074,1.413,3.074,3.075v46.876v0.083H143.17z M143.502,95.474V48.515
						c0-1.853-1.545-3.408-3.408-3.408H3.883c-1.877,0-3.385,1.556-3.385,3.408v46.959c0,1.853,1.52,3.431,3.385,3.431h136.199
						C141.957,98.893,143.502,97.326,143.502,95.474L143.502,95.474z"/>
				</g>
				<g>
					<path fill="#010101" d="M140.094,99.404H3.883C1.697,99.404,0,97.635,0,95.474V48.515c0-2.161,1.709-3.919,3.883-3.919h136.199
						c2.172,0,3.918,1.758,3.918,3.919v46.959C144,97.635,142.268,99.404,140.094,99.404z M3.883,46.104
						c-1.378,0-2.553,1.057-2.553,2.41v46.959c0,1.354,1.175,2.422,2.553,2.422h136.199c1.377,0,2.41-1.068,2.41-2.422V48.515
						c0-1.354-1.033-2.41-2.41-2.41H3.883z"/>
				</g>
			</g>
		</g>
	</g>
	<g>
		<g>
			<g>
				<polygon fill="#010101" points="1.33,73.247 26.074,98.727 44.05,98.727 1.33,55.271 				"/>
			</g>
		</g>
		<g>
			<g>
				<polygon fill="#010101" points="4.928,45.272 57.895,98.727 75.871,98.727 22.903,45.272 				"/>
			</g>
		</g>
		<g>
			<g>
				<polygon fill="#010101" points="142.67,70.267 118.377,45.272 100.4,45.272 142.67,88.243 				"/>
			</g>
		</g>
		<g>
			<g>
				<polygon fill="#010101" points="36.748,45.272 89.728,98.727 107.703,98.727 54.725,45.272 				"/>
			</g>
		</g>
		<g>
			<g>
				<polygon fill="#010101" points="68.568,45.272 121.547,98.727 139.523,98.727 86.545,45.272 				"/>
			</g>
		</g>
	</g>
</g>
</svg>
