<?xml version="1.0" encoding="UTF-8" standalone="no"?>
<!-- Generator: Adobe Illustrator 16.0.0, SVG Export Plug-In . SVG Version: 6.00 Build 0)  -->

<svg
   version="1.1"
   id="_x35_0m"
   x="0px"
   y="0px"
   width="144px"
   height="144px"
   viewBox="0 0 144 144"
   enable-background="new 0 0 144 144"
   xml:space="preserve"
   sodipodi:docname="trailer.svg"
   inkscape:version="1.2.1 (9c6d41e410, 2022-07-14)"
   xmlns:inkscape="http://www.inkscape.org/namespaces/inkscape"
   xmlns:sodipodi="http://sodipodi.sourceforge.net/DTD/sodipodi-0.dtd"
   xmlns="http://www.w3.org/2000/svg"
   xmlns:svg="http://www.w3.org/2000/svg"><defs
   id="defs11" /><sodipodi:namedview
   id="namedview9"
   pagecolor="#ffffff"
   bordercolor="#000000"
   borderopacity="0.25"
   inkscape:showpageshadow="2"
   inkscape:pageopacity="0.0"
   inkscape:pagecheckerboard="true"
   inkscape:deskcolor="#d1d1d1"
   showgrid="false"
   inkscape:zoom="5.4722222"
   inkscape:cx="31.888325"
   inkscape:cy="71.451777"
   inkscape:window-width="1920"
   inkscape:window-height="986"
   inkscape:window-x="-11"
   inkscape:window-y="-11"
   inkscape:window-maximized="1"
   inkscape:current-layer="g6" />
<g
   id="g6">
	<ellipse
   style="fill:#ffffff;stroke:#000000;stroke-width:5"
   id="path241"
   ry="10.690355"
   rx="10.233503"
   cy="106.99493"
   cx="80.040611" /><rect
   style="fill:#ffffff;stroke:#000000;stroke-width:5;fill-opacity:1"
   id="rect299"
   width="97.401016"
   height="28.324873"
   x="28.690355"
   y="49.888325" /><path
   fill="#AEAEAE"
   d="M79.754,92.624c-7.871,0-14.461,6.577-14.461,14.46c0,8.39,6.507,13.897,14.461,14.355   c7.767,0.436,14.344-6.871,14.344-14.355C94.098,99.248,87.615,92.624,79.754,92.624z M79.719,114.463   c-4.06,0-7.425-3.378-7.425-7.414c0-4.117,3.319-7.424,7.425-7.424c4.036,0,7.401,3.377,7.401,7.424   C87.12,111.027,83.696,114.463,79.719,114.463z"
   id="path2" />
	<path
   fill="#1A1A1A"
   d="M76.013,22.542c-46.537,0-61.704,11.39-61.704,14.484v63.834H8.001c0-2.53-2.106-4.2-3.836-4.2   C1.859,96.66,0,98.33,0,102.473c0,2.294,1.859,4.164,4.165,4.164h57.068c0.342-3.529,1.13-6.717,3.071-9.73   c3.188-4.942,8.849-8.342,14.791-8.342c5.848,0,11.496,2.611,15.108,7.26c2.565,3.271,3.612,6.859,4.06,10.931l39.983-0.106   c2.541,0,5.753-2.234,5.753-5V37.026C143.977,35.002,124.174,22.542,76.013,22.542z M54.833,74.491H32.158V55.006h22.675V74.491z    M100.193,74.315H80.755v-19.31h19.427v19.31H100.193z M123.938,74.315H104.5v-19.31h19.438V74.315z"
   id="path4" />
</g>
</svg>
