<?xml version="1.0" encoding="utf-8"?>
<!-- Generator: Adobe Illustrator 16.0.0, SVG Export Plug-In . SVG Version: 6.00 Build 0)  -->
<!DOCTYPE svg PUBLIC "-//W3C//DTD SVG 1.1//EN" "http://www.w3.org/Graphics/SVG/1.1/DTD/svg11.dtd">
<svg version="1.1" id="_x35_0m" xmlns="http://www.w3.org/2000/svg" xmlns:xlink="http://www.w3.org/1999/xlink" x="0px" y="0px"
	 width="144px" height="144px" viewBox="0 0 144 144" enable-background="new 0 0 144 144" xml:space="preserve">
<g>
	<path fill="#8FC741" d="M121.229,39.213c0-6.086-4.933-11.017-11.017-11.017c-6.086,0-11.017,4.931-11.017,11.017v15.291
		c0,0.289-0.011,0.167,0,0.289c-0.045,0.633-0.334,3.132-2.242,5.498c-1.634,1.997-4.132,3.531-7.42,4.563V17.547
		C89.534,7.862,81.685,0,71.989,0c-9.685,0-17.547,7.852-17.547,17.547V88.13c-2.965-0.955-5.596-2.432-7.372-4.664
		c-1.979-2.498-2.256-5.153-2.289-5.797c0.011-0.133,0-0.022,0-0.289V54.882c0-6.087-4.93-11.017-11.016-11.017
		s-11.017,4.93-11.017,11.017v22.409c-0.023,2.343,0.355,13.116,9.141,22.245c5.585,5.807,13.159,9.561,22.565,11.237v21.1
		C54.455,141.556,62.305,144,72,144c9.685,0,17.547-2.434,17.547-12.127v-44.42c9.505-1.666,17.124-5.421,22.72-11.237
		c8.606-8.952,9.008-19.447,8.984-21.79V39.213H121.229z M54.531,106.176c-0.055,0.323-0.343,0.555-0.666,0.555
		c-0.046,0-0.078,0-0.121-0.011c-0.479-0.089-11.661-2.199-18.024-7.962c-7.229-6.542-8.695-15.882-8.917-20.854
		c-0.544-11.896-0.601-21.822-0.601-21.922c-0.011-0.2-0.245-5.521,2.8-9.308c0.232-0.288,0.653-0.332,0.941-0.1
		c0.291,0.234,0.334,0.655,0.103,0.945c-2.723,3.386-2.512,8.373-2.512,8.418c0,0.133,0.057,10.027,0.601,21.888
		c0.222,4.773,1.609,13.703,8.475,19.922c6.084,5.509,17.245,7.617,17.355,7.628C54.354,105.466,54.599,105.809,54.531,106.176z
		 M54.31,100.723c-0.032,0.011-0.366,0.078-1.045,0.078c-0.909,0-2.432-0.122-4.652-0.677c-4.896-1.222-7.361-3.609-10.828-7.396
		c-2.487-2.72-3.763-9.417-4.452-13.016c-0.078-0.41-0.146-0.787-0.211-1.1c-0.366-1.831-0.41-8.706-0.444-15.356
		c-0.021-4.288-0.046-8.34-0.167-9.905c-0.289-3.812-0.888-6.787-0.888-6.819c-0.078-0.367,0.167-0.723,0.532-0.79
		c0.366-0.064,0.722,0.167,0.789,0.534c0.021,0.121,0.611,3.086,0.911,6.973c0.121,1.622,0.143,5.51,0.167,10.008
		c0.032,5.963,0.078,13.392,0.421,15.103c0.067,0.321,0.134,0.698,0.212,1.11c0.653,3.464,1.888,9.917,4.119,12.358
		c3.286,3.588,5.531,5.842,10.162,6.998c3.53,0.887,5.086,0.599,5.097,0.587c0.366-0.064,0.723,0.167,0.801,0.523
		C54.897,100.291,54.666,100.646,54.31,100.723z M54.165,94.738c-3.076,0-6.853-1.766-10.628-4.954
		c-3.33-2.819-3.785-6.652-4.141-9.728c-0.089-0.733-0.167-1.432-0.278-2.064c-0.345-1.911-0.313-6.165-0.256-11.073
		c0.033-3.752,0.078-8.019-0.057-11.814c-0.221-6.409-2.563-8.097-3.563-8.53c-0.345-0.144-0.501-0.544-0.355-0.887
		c0.144-0.345,0.545-0.501,0.89-0.356c1.231,0.534,4.13,2.542,4.374,9.718c0.133,3.83,0.09,8.107,0.057,11.87
		c-0.045,4.842-0.091,9.029,0.232,10.816c0.121,0.68,0.21,1.389,0.299,2.144c0.356,2.986,0.744,6.374,3.677,8.852
		c3.531,2.986,6.995,4.642,9.763,4.642c0.377,0,0.677,0.299,0.677,0.677C54.844,94.437,54.531,94.738,54.165,94.738z M60.34,140.614
		c-0.011,0-0.021,0-0.033,0c-0.355,0-0.654-0.277-0.679-0.646c0-0.1-0.455-10.45-0.455-18.467c0-2.089-0.032-5.809-0.065-10.506
		c-0.11-13.326-0.267-33.448,0.065-40.799c0.102-2.155-0.076-5.021-0.289-8.353c-0.31-5.063-0.698-11.372-0.31-18.188
		c0.377-6.652,0.267-12.839,0.188-17.814c-0.057-2.887-0.089-5.374-0.032-7.361c0.231-7.619,1.709-12.339,4.819-15.315
		c0.267-0.253,0.698-0.242,0.954,0.022c0.256,0.267,0.245,0.7-0.021,0.956c-2.833,2.709-4.188,7.141-4.398,14.381
		c-0.055,1.954-0.011,4.431,0.034,7.296c0.089,4.997,0.2,11.216-0.188,17.914c-0.389,6.738,0,13.003,0.311,18.032
		c0.21,3.366,0.388,6.275,0.288,8.496c-0.332,7.318-0.167,27.431-0.067,40.733c0.035,4.697,0.067,8.417,0.067,10.517
		c0,7.984,0.444,18.313,0.444,18.413C60.995,140.28,60.706,140.602,60.34,140.614z M68.735,2.698
		c-2.31,3.253-2.434,5.642-2.611,9.251c-0.043,0.943-0.098,1.91-0.188,3.01c-0.488,5.853-0.354,27.13-0.311,34.114
		c0.012,1.078,0.012,1.811,0.012,2.11v41.679c0,0.887-0.022,2.542-0.055,4.642c-0.1,6.439-0.277,17.224,0.055,22.297
		c0.444,6.698,0.299,21.199,0.299,21.345c0,0.366-0.299,0.666-0.677,0.666c0,0,0,0-0.011,0c-0.378,0-0.666-0.311-0.666-0.677
		c0-0.146,0.144-14.593-0.302-21.245c-0.343-5.13-0.164-15.946-0.064-22.41c0.032-2.097,0.054-3.741,0.054-4.617V51.184
		c0-0.3,0-1.032-0.011-2.098c-0.043-7.008-0.176-28.32,0.313-34.237c0.089-1.078,0.132-2.032,0.188-2.965
		c0.188-3.711,0.321-6.398,2.865-9.962c0.211-0.3,0.634-0.378,0.943-0.156C68.879,1.965,68.946,2.388,68.735,2.698z M72.156,142.712
		c-0.38,0-0.679-0.3-0.679-0.677c0-0.046,0-4.199-0.3-6.819c-0.299-2.733-0.299-11.96-0.299-18.067c0-6.064,0-14.358-0.599-20.022
		c-0.391-3.743-0.035-9.328,0.277-14.271c0.165-2.642,0.311-4.93,0.311-6.496c0-2.377-0.078-10.582-0.167-18.522
		c-0.067-7.03-0.133-13.66-0.133-15.37c0-13.738,0.11-23.754,0.3-28.218c0.256-5.841,0.078-11.161,0.032-12.17
		c-0.011-0.38,0.277-0.69,0.645-0.701c0.377-0.021,0.689,0.278,0.7,0.645c0.043,1.021,0.222,6.396-0.035,12.283
		c-0.188,4.441-0.299,14.437-0.299,28.161c0,1.698,0.067,8.329,0.132,15.359c0.078,7.94,0.167,16.156,0.167,18.533
		c0,1.609-0.143,3.922-0.32,6.585c-0.3,4.642-0.666,10.407-0.289,14.038c0.599,5.73,0.599,14.069,0.599,20.156
		c0,6.075,0,15.259,0.3,17.911c0.302,2.709,0.302,6.798,0.302,6.976C72.833,142.412,72.522,142.712,72.156,142.712z M78.518,88.542
		c0.146,4.164,0.302,8.461,0.302,12.115c0,3.386-0.199,5.686-0.378,7.707c-0.201,2.353-0.377,4.398-0.223,7.552
		c0.223,4.451,0.112,9.893,0.045,13.491c-0.023,1.277-0.045,2.334-0.045,3.032c0,2.654,0.299,8.905,0.299,8.962
		c0.024,0.367-0.267,0.688-0.642,0.709c-0.011,0-0.024,0-0.035,0c-0.355,0-0.655-0.277-0.677-0.642c0-0.067-0.301-6.342-0.301-9.029
		c0-0.712,0.023-1.776,0.045-3.064c0.067-3.588,0.178-8.995-0.045-13.394c-0.165-3.254,0.023-5.329,0.223-7.729
		c0.178-1.999,0.367-4.264,0.367-7.596c0-3.622-0.154-7.919-0.3-12.072c-0.146-4.03-0.302-8.194-0.302-11.628
		c0-3.464,0.234-7.216,0.458-10.836c0.222-3.599,0.442-7.331,0.442-10.752c0-3.698-0.089-7.329-0.165-10.827
		c-0.066-2.931-0.134-5.695-0.134-8.063c0-2.186-0.057-5.452-0.122-9.227c-0.089-5.075-0.178-10.816-0.178-15.959
		c0-6.208-1.766-8.13-2.531-8.661C74.321,2.421,74.243,2,74.453,1.688c0.213-0.3,0.634-0.378,0.945-0.167
		c1.41,1,3.098,3.51,3.098,9.773c0,5.132,0.1,10.873,0.178,15.936c0.067,3.787,0.121,7.064,0.121,9.262
		c0,2.344,0.067,5.109,0.135,8.029c0.078,3.509,0.167,7.14,0.167,10.862c0,3.464-0.234,7.216-0.455,10.838
		c-0.224,3.597-0.445,7.329-0.445,10.749C78.229,80.367,78.375,84.521,78.518,88.542z M84.227,105.11
		c0.601,8.628-0.288,34.003-0.3,34.259c-0.011,0.366-0.312,0.655-0.677,0.655c-0.011,0-0.011,0-0.023,0
		c-0.377-0.011-0.666-0.323-0.655-0.698c0.011-0.256,0.89-25.555,0.302-34.116c-0.59-8.484-0.323-19.89,0-27.962
		c0.3-7.485,0.3-20.933,0.3-28.162c0-4.366-0.113-13.517-0.2-20.867c-0.057-4.776-0.1-8.54-0.1-9.718c0-0.234,0-0.499,0.011-0.787
		c0.032-3.267,0.121-10.916-3.954-13.728c-0.31-0.21-0.388-0.633-0.167-0.943c0.211-0.311,0.634-0.377,0.946-0.167
		c4.652,3.221,4.574,11.072,4.528,14.849c0,0.289-0.011,0.542-0.011,0.776c0,1.178,0.046,5.13,0.1,9.706
		c0.089,7.351,0.202,16.502,0.202,20.879c0,7.24,0,20.698-0.302,28.216C83.905,85.332,83.639,96.682,84.227,105.11z M89.79,68.798
		c0.078-0.014,7.819-0.646,11.183-5.698c2.499-3.755,2.267-8.741,2.057-13.148c-0.08-1.633-0.158-3.178-0.067-4.509
		c0.044-0.688,0.067-1.456,0.089-2.265c0.133-4.343,0.311-9.741,3.499-12.561c0.275-0.245,0.709-0.222,0.954,0.054
		c0.243,0.278,0.221,0.712-0.057,0.957c-2.755,2.432-2.922,7.507-3.043,11.582c-0.021,0.822-0.054,1.599-0.1,2.311
		c-0.078,1.253-0.011,2.765,0.067,4.363c0.21,4.386,0.466,9.839-2.277,13.96c-3.742,5.608-11.86,6.274-12.203,6.296
		c-0.013,0-0.034,0-0.057,0c-0.345,0-0.644-0.267-0.665-0.622C89.146,69.151,89.423,68.83,89.79,68.798z M89.17,75.771
		c0-0.377,0.299-0.679,0.677-0.679c1.943,0,6.484-0.933,11.062-3.51c4.841-2.72,6.262-3.919,7.795-7.76
		c1-2.51,1.453-5.21,1.453-8.741c0-1.364-0.064-3.453-0.132-5.652c-0.078-2.599-0.167-5.553-0.167-7.841
		c0-4.119-0.588-10.672-0.599-10.736c-0.035-0.369,0.243-0.701,0.609-0.733c0.366-0.034,0.7,0.243,0.733,0.609
		c0.011,0.067,0.599,6.674,0.599,10.86c0,2.267,0.091,5.21,0.169,7.797c0.064,2.222,0.132,4.319,0.132,5.696
		c0,3.722-0.477,6.574-1.544,9.251c-1.755,4.398-3.599,5.73-8.396,8.428c-4.496,2.531-9.227,3.688-11.726,3.688
		C89.469,76.447,89.17,76.148,89.17,75.771z M117.21,60.522c-0.313,5.375-3.732,10.583-10.738,16.37
		c-6.986,5.773-15.905,6.429-16.28,6.45c-0.011,0-0.033,0-0.046,0c-0.355,0-0.645-0.277-0.677-0.631
		c-0.023-0.367,0.254-0.69,0.634-0.723c0.089-0.011,8.873-0.655,15.512-6.143c6.698-5.54,9.963-10.426,10.251-15.413
		c0.288-4.976,0.302-20.021,0-22.054c-0.188-1.355-0.776-5.464-3.143-7.175c-0.3-0.222-0.367-0.645-0.156-0.943
		c0.224-0.3,0.646-0.367,0.945-0.156c2.82,2.056,3.475,6.587,3.688,8.075C117.51,40.334,117.51,55.358,117.21,60.522z"/>
	<path fill="#FFFFFF" d="M60.472,110.984c-0.11-13.303-0.265-33.416,0.067-40.733c0.1-2.222-0.078-5.13-0.288-8.496
		c-0.311-5.03-0.698-11.294-0.311-18.033c0.378-6.697,0.277-12.916,0.188-17.913c-0.056-2.865-0.089-5.342-0.032-7.297
		c0.222-7.239,1.577-11.671,4.396-14.38c0.267-0.256,0.277-0.689,0.021-0.956c-0.256-0.265-0.688-0.278-0.954-0.022
		c-3.1,2.966-4.587,7.696-4.819,15.315c-0.057,1.986-0.011,4.475,0.032,7.361c0.089,4.976,0.2,11.162-0.188,17.813
		c-0.389,6.817,0,13.125,0.311,18.189c0.212,3.331,0.39,6.208,0.288,8.351c-0.332,7.353-0.176,27.485-0.065,40.801
		c0.033,4.697,0.065,8.406,0.065,10.506c0,8.017,0.444,18.367,0.455,18.467c0.014,0.366,0.313,0.645,0.68,0.645
		c0.011,0,0.021,0,0.032,0c0.377-0.011,0.655-0.332,0.645-0.699c0-0.1-0.445-10.428-0.445-18.412
		C60.539,119.401,60.507,115.692,60.472,110.984z"/>
	<path fill="#FFFFFF" d="M68.568,1.755c-0.299-0.211-0.722-0.144-0.943,0.156c-2.544,3.574-2.677,6.251-2.865,9.96
		c-0.045,0.933-0.1,1.889-0.188,2.965c-0.488,5.919-0.355,27.231-0.313,34.237c0.011,1.066,0.011,1.811,0.011,2.1V92.85
		c0,0.878-0.021,2.522-0.054,4.619c-0.1,6.464-0.278,17.28,0.064,22.41c0.445,6.642,0.302,21.089,0.302,21.245
		c0,0.377,0.3,0.677,0.666,0.677c0,0,0,0,0.011,0c0.366,0,0.666-0.3,0.677-0.666c0-0.146,0.146-14.647-0.299-21.345
		c-0.332-5.075-0.165-15.857-0.055-22.297c0.032-2.1,0.055-3.755,0.055-4.644V51.184c0-0.3,0-1.044-0.012-2.11
		c-0.043-6.984-0.178-28.262,0.311-34.114c0.091-1.1,0.146-2.066,0.188-3.01c0.178-3.609,0.302-5.998,2.611-9.251
		C68.946,2.388,68.879,1.965,68.568,1.755z"/>
	<path fill="#FFFFFF" d="M72.234,117.148c0-6.086,0-14.426-0.601-20.156c-0.378-3.631-0.011-9.394,0.288-14.035
		c0.167-2.666,0.323-4.979,0.323-6.588c0-2.377-0.078-10.593-0.167-18.533c-0.067-7.02-0.135-13.66-0.135-15.358
		c0-13.715,0.111-23.721,0.302-28.162c0.254-5.887,0.076-11.272,0.032-12.283c-0.011-0.377-0.323-0.666-0.7-0.645
		c-0.378,0.012-0.666,0.334-0.645,0.701c0.035,1.011,0.224,6.34-0.032,12.17c-0.188,4.453-0.3,14.482-0.3,28.219
		c0,1.698,0.067,8.339,0.133,15.369c0.078,7.94,0.167,16.146,0.167,18.522c0,1.566-0.144,3.854-0.311,6.496
		c-0.31,4.933-0.679,10.528-0.277,14.272c0.599,5.663,0.599,13.959,0.599,20.021c0,6.107,0,15.323,0.3,18.067
		c0.29,2.633,0.301,6.787,0.301,6.819c0,0.377,0.3,0.677,0.677,0.677c0.378,0,0.677-0.3,0.677-0.677c0-0.178,0-4.265-0.299-6.976
		C72.234,132.407,72.234,123.224,72.234,117.148z"/>
	<path fill="#FFFFFF" d="M79.13,55.383c0-3.723-0.09-7.354-0.168-10.862c-0.064-2.92-0.132-5.686-0.132-8.029
		c0-2.197-0.057-5.464-0.121-9.262c-0.089-5.063-0.178-10.804-0.178-15.936c0-6.264-1.69-8.773-3.1-9.773
		c-0.3-0.211-0.723-0.144-0.943,0.167c-0.211,0.302-0.144,0.723,0.167,0.945c0.754,0.531,2.53,2.453,2.53,8.661
		c0,5.143,0.101,10.884,0.179,15.959c0.066,3.787,0.121,7.052,0.121,9.227c0,2.367,0.067,5.132,0.135,8.063
		c0.075,3.51,0.167,7.129,0.167,10.827c0,3.434-0.234,7.153-0.445,10.752c-0.223,3.62-0.455,7.361-0.455,10.836
		c0,3.421,0.156,7.598,0.299,11.628c0.146,4.153,0.3,8.439,0.3,12.072c0,3.318-0.199,5.597-0.366,7.596
		c-0.211,2.41-0.389,4.485-0.222,7.729c0.222,4.398,0.11,9.816,0.043,13.394c-0.021,1.288-0.043,2.353-0.043,3.064
		c0,2.688,0.3,8.962,0.3,9.029c0.021,0.364,0.312,0.642,0.679,0.642c0.011,0,0.021,0,0.032,0c0.366-0.021,0.655-0.331,0.645-0.709
		c0-0.067-0.302-6.308-0.302-8.962c0-0.698,0.023-1.755,0.046-3.032c0.066-3.599,0.178-9.04-0.046-13.491
		c-0.154-3.153,0.023-5.199,0.224-7.552c0.178-2.033,0.377-4.332,0.377-7.707c0-3.654-0.156-7.951-0.299-12.115
		c-0.146-4.021-0.302-8.175-0.302-11.572c0-3.431,0.234-7.152,0.444-10.749C78.897,62.599,79.13,58.847,79.13,55.383z"/>
	<path fill="#FFFFFF" d="M84.528,49.086c0-4.377-0.113-13.528-0.202-20.879c-0.054-4.576-0.1-8.528-0.1-9.706
		c0-0.221,0-0.487,0.011-0.776c0.046-3.776,0.124-11.639-4.528-14.849c-0.313-0.21-0.725-0.132-0.946,0.167
		c-0.21,0.311-0.132,0.723,0.167,0.943c4.064,2.812,3.986,10.461,3.954,13.728c0,0.288-0.011,0.553-0.011,0.787
		c0,1.178,0.043,4.954,0.1,9.718c0.087,7.351,0.2,16.49,0.2,20.867c0,7.229,0,20.677-0.3,28.162c-0.323,8.072-0.59,19.466,0,27.962
		c0.588,8.562-0.291,33.86-0.302,34.116c-0.011,0.375,0.278,0.688,0.655,0.698c0.013,0,0.013,0,0.023,0
		c0.365,0,0.666-0.289,0.677-0.655c0.012-0.256,0.89-25.62,0.3-34.259c-0.577-8.429-0.321-19.778,0-27.819
		C84.528,69.784,84.528,56.315,84.528,49.086z"/>
	<path fill="#FFFFFF" d="M54.165,93.383c-2.755,0-6.229-1.645-9.761-4.642c-2.922-2.477-3.32-5.865-3.677-8.852
		c-0.089-0.755-0.178-1.475-0.299-2.143c-0.323-1.788-0.289-5.974-0.234-10.817c0.034-3.763,0.078-8.04-0.055-11.87
		c-0.245-7.173-3.143-9.184-4.377-9.717c-0.343-0.144-0.743,0.011-0.887,0.355c-0.146,0.345,0.011,0.744,0.355,0.887
		c1,0.434,3.343,2.121,3.563,8.53c0.135,3.798,0.089,8.052,0.057,11.814c-0.046,4.92-0.089,9.162,0.256,11.073
		c0.11,0.633,0.2,1.32,0.277,2.064c0.367,3.064,0.81,6.897,4.141,9.717c3.776,3.199,7.553,4.954,10.628,4.954
		c0.378,0,0.68-0.302,0.68-0.679C54.844,93.695,54.531,93.383,54.165,93.383z"/>
	<path fill="#FFFFFF" d="M54.021,99.401c-0.011,0-1.566,0.289-5.097-0.588c-4.631-1.155-6.876-3.409-10.162-6.997
		c-2.231-2.431-3.466-8.884-4.121-12.358c-0.076-0.423-0.154-0.801-0.21-1.11c-0.343-1.712-0.389-9.141-0.423-15.104
		c-0.022-4.497-0.044-8.395-0.165-10.006c-0.3-3.897-0.89-6.852-0.911-6.974c-0.078-0.366-0.434-0.599-0.79-0.533
		c-0.366,0.078-0.599,0.434-0.531,0.79c0.011,0.032,0.599,2.997,0.888,6.816c0.121,1.566,0.146,5.62,0.167,9.906
		c0.032,6.652,0.078,13.527,0.444,15.358c0.065,0.313,0.133,0.689,0.21,1.1c0.688,3.598,1.955,10.296,4.453,13.016
		c3.466,3.787,5.931,6.173,10.828,7.396c2.231,0.555,3.754,0.677,4.652,0.677c0.679,0,1.023-0.067,1.045-0.078
		c0.367-0.076,0.588-0.434,0.51-0.799C54.744,99.558,54.388,99.326,54.021,99.401z"/>
	<path fill="#FFFFFF" d="M53.986,105.398c-0.11-0.023-11.27-2.132-17.355-7.628c-6.874-6.219-8.264-15.148-8.475-19.924
		c-0.544-11.86-0.599-21.766-0.599-21.888c0-0.045-0.224-5.031,2.51-8.417c0.234-0.289,0.188-0.712-0.1-0.944
		c-0.289-0.233-0.712-0.188-0.943,0.101c-3.043,3.773-2.812,9.105-2.801,9.305c0,0.1,0.057,10.029,0.602,21.922
		c0.221,4.986,1.687,14.314,8.916,20.856c6.364,5.761,17.547,7.871,18.024,7.96c0.043,0.011,0.078,0.011,0.121,0.011
		c0.323,0,0.601-0.221,0.668-0.555C54.599,105.809,54.354,105.466,53.986,105.398z"/>
	<path fill="#FFFFFF" d="M89.17,69.528c0.021,0.355,0.32,0.623,0.665,0.623c0.012,0,0.033,0,0.057,0
		c0.343-0.022,8.473-0.688,12.203-6.297c2.754-4.119,2.487-9.571,2.277-13.96c-0.078-1.598-0.146-3.107-0.067-4.363
		c0.046-0.712,0.067-1.488,0.1-2.311c0.135-4.075,0.288-9.161,3.043-11.582c0.277-0.245,0.311-0.677,0.057-0.954
		c-0.245-0.277-0.679-0.313-0.957-0.057c-3.186,2.809-3.363,8.219-3.496,12.561c-0.021,0.812-0.057,1.577-0.089,2.265
		c-0.091,1.334-0.013,2.876,0.067,4.509c0.21,4.396,0.442,9.395-2.057,13.148c-3.363,5.054-11.104,5.698-11.183,5.698
		C89.423,68.83,89.146,69.151,89.17,69.528z"/>
	<path fill="#FFFFFF" d="M113.512,30.118c-0.299-0.224-0.722-0.156-0.945,0.154c-0.222,0.299-0.154,0.722,0.156,0.943
		c2.366,1.711,2.954,5.83,3.143,7.175c0.288,2.032,0.288,17.078,0,22.054c-0.288,4.977-3.553,9.874-10.251,15.413
		C98.976,81.345,90.191,82,90.103,82c-0.367,0.021-0.657,0.345-0.634,0.723c0.021,0.355,0.321,0.633,0.677,0.633
		c0.013,0,0.035,0,0.046,0c0.375-0.023,9.294-0.677,16.28-6.452c7.006-5.785,10.426-10.995,10.738-16.369
		c0.3-5.165,0.3-20.189,0-22.321C116.986,36.703,116.343,32.161,113.512,30.118z"/>
	<path fill="#FFFFFF" d="M101.571,72.76c4.798-2.697,6.631-4.029,8.396-8.428c1.067-2.677,1.544-5.529,1.544-9.251
		c0-1.389-0.066-3.475-0.132-5.696c-0.078-2.587-0.167-5.53-0.167-7.797c0-4.176-0.601-10.793-0.601-10.86
		c-0.033-0.366-0.364-0.644-0.733-0.609c-0.366,0.032-0.645,0.364-0.609,0.733c0.011,0.064,0.599,6.617,0.599,10.736
		c0,2.288,0.089,5.231,0.167,7.841c0.067,2.21,0.132,4.299,0.132,5.652c0,3.544-0.442,6.242-1.453,8.741
		c-1.533,3.841-2.954,5.029-7.795,7.76c-4.576,2.577-9.129,3.51-11.062,3.51c-0.378,0-0.677,0.302-0.677,0.679
		c0,0.378,0.299,0.677,0.677,0.677C92.334,76.447,97.075,75.291,101.571,72.76z"/>
</g>
</svg>
