<?xml version="1.0" encoding="utf-8"?>
<!-- Generator: Adobe Illustrator 16.0.0, SVG Export Plug-In . SVG Version: 6.00 Build 0)  -->
<!DOCTYPE svg PUBLIC "-//W3C//DTD SVG 1.1//EN" "http://www.w3.org/Graphics/SVG/1.1/DTD/svg11.dtd">
<svg version="1.1" id="_x35_0m" xmlns="http://www.w3.org/2000/svg" xmlns:xlink="http://www.w3.org/1999/xlink" x="0px" y="0px"
	 width="144px" height="144px" viewBox="0 0 144 144" enable-background="new 0 0 144 144" xml:space="preserve">
<g>
	<g>
		<path fill="#8FC741" d="M22.736,77.303c-0.022,2.342,0.357,13.116,9.146,22.239c5.587,5.812,13.161,9.559,22.574,11.231v21.102
			c0,9.691,7.851,12.125,17.544,12.125l0,0l0,0l0,0c9.691,0,17.544-2.444,17.544-12.125V87.463c9.502-1.66,17.13-5.42,22.729-11.242
			c8.611-8.955,9.012-19.45,8.99-21.792V39.204c0-6.089-4.93-11.019-11.021-11.019c-6.089,0-11.017,4.93-11.017,11.019v15.292
			c0,0.278-0.014,0.165,0,0.289c-0.046,0.637-0.336,3.133-2.254,5.499c-1.63,2.008-4.138,3.535-7.417,4.561v-47.3
			C89.556,7.853,81.703,0,72.012,0l0,0l0,0l0,0l0,0c-9.692,0-17.544,7.853-17.544,17.545v70.6c-2.967-0.96-5.599-2.431-7.373-4.675
			c-1.974-2.496-2.252-5.151-2.286-5.799c0.011-0.135,0-0.021,0-0.289V54.886c0-6.091-4.93-11.021-11.02-11.021
			c-6.089,0-11.019,4.93-11.019,11.021v22.417H22.736z M105.438,38.624c-0.479,0.726-1.706-0.825-1.706-0.825
			c-0.045-1.126,0.814-1.048,1.606-0.769C106.129,37.309,105.918,37.91,105.438,38.624z M105.896,44.959
			c-0.803,2.823-3.357,1.808-3.625-0.168c-0.268-1.974,0-2.185,1.761-2.721C104.031,42.081,106.698,42.138,105.896,44.959z
			 M103.643,50.76c0,0,1.215-0.66,1.215,0.77c0,1.427-1.104,1.237-1.305,0.747C103.364,51.786,103.252,51.372,103.643,50.76z
			 M109.753,48.773c0.937,0.858-1.595,2.298-1.595,2.298c-1.649-0.189-1.337-1.427-0.747-2.509
			C108.002,47.469,108.816,47.915,109.753,48.773z M111.638,38.813c0,0-2.721,1.462-2.653-1.025
			c0.057-2.488,0.289-4.015,1.984-2.821C112.652,36.158,113.088,37.475,111.638,38.813z M111.383,43.833
			c1.048-0.425,1.259,0.425,1.259,1.261c0,0.837-0.634,0.837-1.471,0.634C110.332,45.517,111.383,43.833,111.383,43.833z
			 M107.59,56.815c0.669-1.74,0.558-2.365,1.806-2.588c0,0,2.109,0.926,1.24,3.347C109.774,59.994,106.932,58.557,107.59,56.815z
			 M105.08,62.972c0.413-1.025,2.342,0.612,2.342,0.612c0.336,1.407-0.758,1.519-1.817,1.361
			C104.557,64.791,104.668,63.987,105.08,62.972z M104.267,56.28c1.472,0.011,0.401,3.199,0.401,3.199
			c-1.572,1.104-2.253-0.189-2.576-1.583C101.756,56.513,102.794,56.258,104.267,56.28z M100.585,62.671
			c0,0,1.785-0.324,1.206,1.449c-0.58,1.772-1.874,1.093-1.919,0.402C99.827,63.83,99.861,63.272,100.585,62.671z M95.343,68.069
			c1.507-0.637,1.73-0.469,2.533,0.813c0,0,0.535,2.13-1.885,2.098C93.582,70.946,93.839,68.703,95.343,68.069z M60.313,78.297
			c-0.826-0.124-0.736-0.75-0.402-1.552c0.336-0.804,1.841,0.49,1.841,0.49C62.007,78.34,61.148,78.419,60.313,78.297z
			 M63.267,85.121c1.686,1.896,0,2.945-0.836,2.521c-0.837-0.423-1.472-0.836-1.684-2.096
			C60.747,85.546,61.583,83.237,63.267,85.121z M63.613,65.771c0.669,2.353,1.271,2.932,0.123,4.16c0,0-2.956,0.68-3.938-2.556
			C58.807,64.131,62.955,63.418,63.613,65.771z M73.428,84.585c1.104,1.605-0.268,2.846-1.427,2.656l0,0
			c-0.369-0.057-0.715-0.258-0.959-0.626c-1.016-1.551-1.596-1.829-1.038-2.978c0,0,0.937-0.558,1.997-0.211l0,0
			C72.469,83.583,72.972,83.928,73.428,84.585z M72.747,61.878c-0.836-0.211,0.213-1.895,0.213-1.895
			c1.049-0.425,1.26,0.422,1.26,1.259C74.22,62.092,73.596,62.092,72.747,61.878z M68.978,69.063c-1.472,0-1.26-2.309-1.26-2.309
			c0.836-1.685,1.896-0.637,2.732,0.422C71.286,68.224,70.45,69.063,68.978,69.063z M70.618,37.475
			c1.048-0.423,1.26,0.425,1.26,1.261c0,0.837-0.636,0.837-1.473,0.636C69.569,39.16,70.618,37.475,70.618,37.475z M68.175,45.641
			c-0.837-0.425-1.473-0.836-1.684-2.098c0,0,0.836-2.309,2.521-0.425C70.696,45.003,69.012,46.053,68.175,45.641z M65.923,62.481
			c0,0-3.157,0-1.573-3.156c1.573-3.156,3.412,0,3.412,0.791C67.762,60.909,67.238,62.481,65.923,62.481z M62.409,50.122
			c-0.347-0.869-0.536-1.605,0.145-2.687c0,0,2.163-1.172,2.163,1.359C64.706,51.328,62.754,50.993,62.409,50.122z M67.617,78.564
			c0,0.634-0.424,1.896-1.473,1.896c0,0-2.521,0-1.26-2.521C66.145,75.419,67.617,77.939,67.617,78.564z M65.944,103.256
			c-0.479,0.726-1.707-0.823-1.707-0.823c-0.045-1.128,0.814-1.05,1.606-0.771C66.636,101.94,66.424,102.544,65.944,103.256z
			 M59.699,35.067c0,0,3.356-2.521,3.78,0.836c0.424,3.357,0.424,5.466-2.097,4.204C58.851,38.847,58.014,37.163,59.699,35.067z
			 M62.33,28.754c-0.368,0.759-0.937,0.49-1.595-0.067c-0.67-0.558,1.004-1.616,1.004-1.616
			C62.865,27.148,62.688,27.996,62.33,28.754z M60.111,21.404c-1.473,0-1.261-2.309-1.261-2.309
			c0.836-1.685,1.896-0.637,2.732,0.425C62.431,20.568,61.583,21.404,60.111,21.404z M63.445,12.157
			c-0.792,0.269-1.004-0.322-1.07-1.193c-0.078-0.858,1.862-0.412,1.862-0.412C64.963,11.41,64.237,11.879,63.445,12.157z
			 M65.788,24.872c2.944-2.095,4.617,0.837,3.357,2.945c-1.261,2.096-1.686,2.096-3.78,1.259
			C65.365,29.076,62.844,26.968,65.788,24.872z M71.187,15.214c-1.261,2.098-1.261,2.945-2.945,2.945c0,0-2.521-1.685-0.837-4.618
			C69.09,10.585,72.446,13.104,71.187,15.214z M71.99,8.857L71.99,8.857C71.923,8.868,71.856,8.89,71.789,8.9
			c-2.499,0.425-2.499-1.562-1.696-2.052c0.614-0.368,1.149-0.646,1.897-0.533l0,0c0.233,0.032,0.49,0.098,0.769,0.222
			C72.759,6.537,74.186,8.354,71.99,8.857z M72.982,23.836c-0.435-0.826-0.714-1.54-0.145-2.688c0,0,2.029-1.395,2.297,1.126
			C75.402,24.783,73.417,24.661,72.982,23.836z M77.632,15.828c0,0.836-0.635,0.836-1.471,0.634
			c-0.837-0.211,0.212-1.896,0.212-1.896C77.421,14.145,77.632,14.98,77.632,15.828z M75.837,34.855
			c-1.673-2.944-2.477-4.886,0.335-4.686c2.811,0.2,4.227,1.44,3.479,4.015C79.651,34.185,77.498,37.799,75.837,34.855z
			 M71.99,52.443L71.99,52.443c-0.257-0.191-0.492-0.424-0.681-0.703c-1.396-2.009-1.228-2.398,0.4-3.971
			c0,0,0.101-0.055,0.28-0.111l0,0c0.757-0.257,2.798-0.658,3.378,2.22C75.982,52.945,73.573,53.603,71.99,52.443z M73.64,75.341
			c-0.837-0.214,0.212-1.896,0.212-1.896c1.049-0.425,1.262,0.423,1.262,1.259C75.113,75.552,74.487,75.552,73.64,75.341z
			 M73.139,109c1.047-0.425,1.26,0.425,1.26,1.262s-0.636,0.837-1.473,0.634C72.089,110.674,73.139,109,73.139,109z M69.514,102.799
			c-0.658-1.963-0.224-3.278,1.751-3.49c0,0,0.335,0.044,0.736,0.189l0,0c0.791,0.279,1.806,0.902,0.791,2.22
			c-0.279,0.355-0.535,0.68-0.791,0.97l0,0C70.874,103.971,70.048,104.406,69.514,102.799z M70.527,123.621
			c0.681,0.649,1.172,1.229,1.004,2.499c0,0-1.471,1.976-2.531-0.322C67.93,123.5,69.848,122.975,70.527,123.621z M68.298,115.278
			c-0.067-1.66,1.205-1.538,2.363-1.126c1.16,0.414,0.859,1.283,0.146,2.344C70.104,117.565,68.298,115.278,68.298,115.278z
			 M68.42,90.554c0.413-1.025,2.343,0.612,2.343,0.612c0.334,1.405-0.759,1.517-1.819,1.361
			C67.885,92.371,67.996,91.567,68.42,90.554z M66.313,134.128c1.35-0.547,1.628,0.547,1.628,1.629c0,1.081-0.814,1.081-1.896,0.815
			C64.963,136.293,66.313,134.128,66.313,134.128z M63.335,110.706c0,0-2.053-1.706,0.345-3.411c2.388-1.708,3.759,0.68,2.732,2.385
			C65.387,111.388,65.04,111.388,63.335,110.706z M62.397,128.473c1.048-0.423,1.261,0.425,1.261,1.262
			c0,0.836-0.637,0.836-1.473,0.636C61.349,130.159,62.397,128.473,62.397,128.473z M64.048,119.105
			c1.473,0.011,0.402,3.2,0.402,3.2c-1.573,1.104-2.243-0.189-2.577-1.584C61.538,119.35,62.575,119.095,64.048,119.105z
			 M60.379,93.998c0,0,1.975-0.956,2.442,1.407c0.469,2.363-1.772,2.575-2.71,1.237S59.286,95.048,60.379,93.998z M58.773,53.346
			c1.048-0.423,1.259,0.425,1.259,1.262c0,0.836-0.635,0.836-1.472,0.636C57.725,55.019,58.773,53.346,58.773,53.346z
			 M28.838,52.176c0,0.837-0.636,0.837-1.473,0.634c-0.836-0.211,0.213-1.895,0.213-1.895C28.626,50.503,28.838,51.34,28.838,52.176
			z M31.169,58.153c-0.759,2.331-0.568,3.146-2.209,3.524c0,0-2.833-1.071-1.862-4.317C28.079,54.128,31.916,55.822,31.169,58.153z
			 M27.365,66.808c0.335-0.804,1.84,0.49,1.84,0.49c0.257,1.104-0.602,1.183-1.438,1.061C26.93,68.237,27.031,67.611,27.365,66.808z
			 M30.767,65.013c1.261-2.521,2.732,0,2.732,0.637c0,0.634-0.424,1.895-1.472,1.895C32.027,67.533,29.507,67.533,30.767,65.013z
			 M32.172,71.304c0,0,2.164-1.172,2.164,1.359s-1.951,2.198-2.309,1.327C31.682,73.121,31.491,72.385,32.172,71.304z
			 M35.262,51.729c0,0.791-0.524,2.363-1.841,2.363c0,0-3.156,0-1.571-3.156C33.421,47.793,35.262,50.947,35.262,51.729z
			 M35.229,61.521c-1.473,0-1.261-2.31-1.261-2.31c0.837-1.684,1.896-0.634,2.733,0.425C37.537,60.685,36.701,61.521,35.229,61.521z
			 M33.723,79.333c-0.246-0.804,0.356-0.993,1.227-1.025c0.87-0.046,0.346,1.873,0.346,1.873
			C34.415,80.873,33.968,80.138,33.723,79.333z M30.277,88.245c0,0,1.985-1.172,3.435,0.947c1.45,2.12-1.383,3.581-2.398,2.03
			C30.299,89.672,29.72,89.393,30.277,88.245z M28.536,79.198c0,0,1.974-0.958,2.454,1.418c0.469,2.375-1.785,2.586-2.722,1.237
			C27.332,80.503,27.444,80.246,28.536,79.198z M26.641,72.62c0,0,0.836-2.31,2.521-0.425c1.685,1.895,0,2.944-0.836,2.52
			C27.477,74.304,26.842,73.879,26.641,72.62z"/>
	</g>
	<path fill="#FFFFFF" d="M71.99,87.241L71.99,87.241c-0.369-0.057-0.715-0.258-0.96-0.626c-1.016-1.551-1.596-1.829-1.038-2.978
		c0,0,0.938-0.558,1.998-0.2l0,0c0.479,0.157,0.981,0.501,1.427,1.159C74.532,86.19,73.16,87.431,71.99,87.241z"/>
	<path fill="#FFFFFF" d="M74.398,110.262c0,0.837-0.636,0.837-1.473,0.634c-0.837-0.211,0.213-1.896,0.213-1.896
		C74.186,108.575,74.398,109.414,74.398,110.262z"/>
	<path fill="#FFFFFF" d="M104.857,51.529c0,1.427-1.104,1.237-1.305,0.747c-0.201-0.49-0.301-0.904,0.078-1.517
		C103.643,50.76,104.857,50.1,104.857,51.529z"/>
	<path fill="#FFFFFF" d="M71.99,8.857L71.99,8.857C71.923,8.868,71.856,8.89,71.776,8.9c-2.497,0.425-2.497-1.562-1.694-2.052
		c0.614-0.368,1.16-0.646,1.908-0.533l0,0c0.233,0.032,0.49,0.098,0.769,0.222C72.759,6.537,74.186,8.354,71.99,8.857z"/>
	<path fill="#FFFFFF" d="M71.99,52.443L71.99,52.443c-0.257-0.191-0.48-0.424-0.681-0.703c-1.396-2.009-1.228-2.398,0.4-3.971
		c0,0,0.101-0.044,0.269-0.111l0,0c0.747-0.257,2.81-0.658,3.378,2.22C75.982,52.945,73.562,53.603,71.99,52.443z"/>
	<path fill="#FFFFFF" d="M76.172,30.17c2.811,0.2,4.227,1.44,3.479,4.015c0,0-2.142,3.614-3.814,0.671
		C74.164,31.911,73.36,29.97,76.172,30.17z"/>
	<path fill="#FFFFFF" d="M73.64,75.341c-0.837-0.214,0.212-1.896,0.212-1.896c1.049-0.425,1.262,0.423,1.262,1.259
		C75.113,75.552,74.487,75.552,73.64,75.341z"/>
	<path fill="#FFFFFF" d="M76.161,16.451c-0.837-0.212,0.212-1.896,0.212-1.896c1.048-0.423,1.259,0.425,1.259,1.262
		C77.632,16.664,76.997,16.664,76.161,16.451z"/>
	<path fill="#FFFFFF" d="M72.96,59.994c1.049-0.425,1.26,0.423,1.26,1.261c0,0.837-0.635,0.837-1.473,0.635
		C71.911,61.667,72.96,59.994,72.96,59.994z"/>
	<path fill="#FFFFFF" d="M72.982,23.836c-0.435-0.826-0.714-1.54-0.145-2.688c0,0,2.029-1.395,2.297,1.126
		C75.402,24.783,73.417,24.661,72.982,23.836z"/>
	<path fill="#FFFFFF" d="M107.59,56.815c0.669-1.74,0.558-2.365,1.806-2.588c0,0,2.109,0.926,1.24,3.347
		C109.774,59.994,106.932,58.557,107.59,56.815z"/>
	<path fill="#FFFFFF" d="M102.271,44.805c-0.268-1.977,0-2.188,1.761-2.724c0,0,2.667,0.057,1.864,2.878
		C105.093,47.793,102.526,46.778,102.271,44.805z"/>
	<path fill="#FFFFFF" d="M108.974,37.799c0.057-2.487,0.289-4.015,1.984-2.821c1.694,1.194,2.119,2.51,0.668,3.848
		C111.638,38.813,108.917,40.286,108.974,37.799z"/>
	<path fill="#FFFFFF" d="M111.383,43.833c1.048-0.425,1.259,0.425,1.259,1.261c0,0.837-0.634,0.837-1.471,0.634
		C110.332,45.517,111.383,43.833,111.383,43.833z"/>
	<path fill="#FFFFFF" d="M103.72,37.799c-0.044-1.126,0.814-1.048,1.606-0.769c0.791,0.278,0.58,0.869,0.1,1.594
		C104.958,39.35,103.72,37.799,103.72,37.799z"/>
	<path fill="#FFFFFF" d="M108.158,51.071c-1.649-0.189-1.337-1.427-0.747-2.509c0.591-1.083,1.405-0.647,2.342,0.211
		S108.158,51.071,108.158,51.071z"/>
	<path fill="#FFFFFF" d="M95.343,68.069c1.507-0.637,1.73-0.469,2.533,0.813c0,0,0.535,2.13-1.885,2.098
		C93.582,70.946,93.839,68.703,95.343,68.069z"/>
	<path fill="#FFFFFF" d="M107.433,63.584c0.336,1.407-0.758,1.519-1.816,1.361c-1.06-0.154-0.948-0.947-0.523-1.974
		C105.505,61.946,107.433,63.584,107.433,63.584z"/>
	<path fill="#FFFFFF" d="M104.267,56.28c1.472,0.011,0.401,3.199,0.401,3.199c-1.572,1.104-2.253-0.189-2.576-1.583
		C101.756,56.513,102.794,56.258,104.267,56.28z"/>
	<path fill="#FFFFFF" d="M100.585,62.671c0,0,1.785-0.324,1.206,1.449c-0.58,1.772-1.874,1.093-1.919,0.402
		C99.827,63.83,99.861,63.272,100.585,62.671z"/>
	<path fill="#FFFFFF" d="M71.187,15.214c-1.261,2.098-1.261,2.945-2.945,2.945c0,0-2.521-1.685-0.837-4.618
		C69.09,10.585,72.446,13.104,71.187,15.214z"/>
	<path fill="#FFFFFF" d="M69.146,27.817c-1.261,2.096-1.686,2.096-3.78,1.259c0,0-2.521-2.095,0.423-4.204
		C68.732,22.777,70.405,25.709,69.146,27.817z"/>
	<path fill="#FFFFFF" d="M63.335,110.706c0,0-2.053-1.706,0.345-3.411c2.388-1.708,3.759,0.68,2.732,2.385
		C65.387,111.388,65.04,111.388,63.335,110.706z"/>
	<path fill="#FFFFFF" d="M59.699,35.067c0,0,3.356-2.521,3.78,0.836c0.424,3.357,0.424,5.466-2.097,4.204
		C58.851,38.847,58.014,37.163,59.699,35.067z"/>
	<path fill="#FFFFFF" d="M69.514,102.799c-0.658-1.963-0.224-3.278,1.751-3.49c0,0,0.346,0.044,0.736,0.189l0,0
		c0.791,0.279,1.806,0.902,0.78,2.209c-0.279,0.355-0.536,0.68-0.78,0.97l0,0C70.874,103.971,70.048,104.406,69.514,102.799z"/>
	<path fill="#FFFFFF" d="M60.111,21.404c-1.473,0-1.261-2.309-1.261-2.309c0.836-1.685,1.896-0.637,2.732,0.425
		C62.431,20.568,61.583,21.404,60.111,21.404z"/>
	<path fill="#FFFFFF" d="M63.445,12.157c-0.792,0.269-1.004-0.322-1.07-1.193c-0.078-0.858,1.862-0.412,1.862-0.412
		C64.963,11.41,64.237,11.879,63.445,12.157z"/>
	<path fill="#FFFFFF" d="M71.878,38.735c0,0.837-0.636,0.837-1.473,0.636c-0.836-0.211,0.213-1.896,0.213-1.896
		C71.677,37.063,71.878,37.899,71.878,38.735z"/>
	<path fill="#FFFFFF" d="M67.94,135.757c0,1.081-0.814,1.081-1.896,0.815c-1.081-0.269,0.269-2.444,0.269-2.444
		C67.662,133.581,67.94,134.663,67.94,135.757z"/>
	<path fill="#FFFFFF" d="M64.227,102.433c-0.045-1.128,0.813-1.05,1.605-0.771c0.793,0.279,0.58,0.869,0.102,1.595
		C65.465,103.981,64.227,102.433,64.227,102.433z"/>
	<path fill="#FFFFFF" d="M70.661,114.163c1.16,0.414,0.859,1.283,0.146,2.344c-0.703,1.059-2.521-1.216-2.521-1.216
		C68.23,113.63,69.503,113.74,70.661,114.163z"/>
	<path fill="#FFFFFF" d="M60.724,28.687c-0.669-0.558,1.004-1.616,1.004-1.616c1.127,0.078,0.96,0.926,0.592,1.684
		C61.962,29.513,61.394,29.233,60.724,28.687z"/>
	<path fill="#FFFFFF" d="M65.923,62.481c0,0-3.157,0-1.573-3.156c1.573-3.156,3.412,0,3.412,0.791
		C67.762,60.909,67.238,62.481,65.923,62.481z"/>
	<path fill="#FFFFFF" d="M62.409,50.122c-0.347-0.869-0.536-1.605,0.145-2.687c0,0,2.163-1.172,2.163,1.359
		C64.706,51.328,62.754,50.993,62.409,50.122z"/>
	<path fill="#FFFFFF" d="M70.527,123.621c0.681,0.649,1.172,1.229,1.004,2.499c0,0-1.471,1.976-2.531-0.322
		C67.93,123.5,69.848,122.975,70.527,123.621z"/>
	<path fill="#FFFFFF" d="M63.613,65.771c0.669,2.353,1.271,2.932,0.123,4.16c0,0-2.956,0.68-3.938-2.556
		C58.807,64.131,62.955,63.418,63.613,65.771z"/>
	<path fill="#FFFFFF" d="M60.379,93.998c0,0,1.975-0.956,2.442,1.407c0.469,2.363-1.772,2.575-2.71,1.237
		S59.286,95.048,60.379,93.998z"/>
	<path fill="#FFFFFF" d="M67.718,66.754c0.836-1.685,1.896-0.637,2.732,0.422c0.836,1.048,0,1.897-1.473,1.897
		C67.506,69.063,67.718,66.754,67.718,66.754z"/>
	<path fill="#FFFFFF" d="M70.763,91.166c0.334,1.405-0.759,1.517-1.819,1.361c-1.059-0.156-0.947-0.949-0.523-1.974
		C68.833,89.528,70.763,91.166,70.763,91.166z"/>
	<path fill="#FFFFFF" d="M64.048,119.105c1.473,0.011,0.402,3.2,0.402,3.2c-1.573,1.104-2.243-0.189-2.577-1.584
		C61.538,119.35,62.575,119.095,64.048,119.105z"/>
	<path fill="#FFFFFF" d="M60.032,54.607c0,0.836-0.635,0.836-1.472,0.636c-0.836-0.212,0.213-1.897,0.213-1.897
		C59.833,52.923,60.032,53.76,60.032,54.607z"/>
	<path fill="#FFFFFF" d="M59.91,76.745c0.336-0.804,1.841,0.49,1.841,0.49c0.256,1.104-0.603,1.184-1.438,1.062
		C59.486,78.173,59.576,77.547,59.91,76.745z"/>
	<path fill="#FFFFFF" d="M63.658,129.734c0,0.836-0.637,0.836-1.473,0.636c-0.837-0.211,0.212-1.897,0.212-1.897
		C63.458,128.05,63.658,128.897,63.658,129.734z"/>
	<path fill="#FFFFFF" d="M66.145,80.46c0,0-2.521,0-1.26-2.521c1.26-2.521,2.732,0,2.732,0.636
		C67.617,79.198,67.193,80.46,66.145,80.46z"/>
	<path fill="#FFFFFF" d="M68.175,45.641c-0.837-0.425-1.473-0.836-1.684-2.098c0,0,0.836-2.309,2.521-0.425
		C70.696,45.003,69.012,46.053,68.175,45.641z"/>
	<path fill="#FFFFFF" d="M63.267,85.121c1.686,1.896,0,2.945-0.836,2.521c-0.837-0.423-1.472-0.836-1.684-2.096
		C60.747,85.546,61.583,83.237,63.267,85.121z"/>
	<path fill="#FFFFFF" d="M33.712,89.203c1.45,2.12-1.383,3.582-2.398,2.03c-1.015-1.551-1.594-1.829-1.036-2.978
		C30.277,88.245,32.251,87.084,33.712,89.203z"/>
	<path fill="#FFFFFF" d="M33.421,54.093c0,0-3.156,0-1.571-3.156c1.571-3.154,3.412,0,3.412,0.793
		C35.262,52.521,34.737,54.093,33.421,54.093z"/>
	<path fill="#FFFFFF" d="M34.336,72.663c0,2.531-1.951,2.198-2.309,1.327c-0.346-0.869-0.536-1.605,0.145-2.687
		C32.172,71.304,34.336,70.143,34.336,72.663z"/>
	<path fill="#FFFFFF" d="M28.96,61.678c0,0-2.833-1.071-1.862-4.317c0.981-3.243,4.818-1.538,4.061,0.793
		C30.41,60.484,30.601,61.31,28.96,61.678z"/>
	<path fill="#FFFFFF" d="M28.536,79.198c0,0,1.974-0.958,2.454,1.418c0.469,2.375-1.785,2.586-2.722,1.237
		C27.332,80.503,27.444,80.246,28.536,79.198z"/>
	<path fill="#FFFFFF" d="M33.968,59.212c0.837-1.684,1.896-0.634,2.733,0.425c0.836,1.048,0,1.897-1.473,1.897
		C33.756,61.521,33.968,59.212,33.968,59.212z"/>
	<path fill="#FFFFFF" d="M27.365,52.81c-0.836-0.211,0.213-1.895,0.213-1.895c1.048-0.423,1.26,0.425,1.26,1.261
		C28.838,53.023,28.202,53.023,27.365,52.81z"/>
	<path fill="#FFFFFF" d="M29.205,67.298c0.257,1.104-0.602,1.183-1.438,1.061c-0.826-0.121-0.736-0.747-0.402-1.551
		C27.7,66.018,29.205,67.298,29.205,67.298z"/>
	<path fill="#FFFFFF" d="M34.949,78.297c0.87-0.046,0.346,1.873,0.346,1.873c-0.88,0.703-1.327-0.032-1.572-0.837
		C33.477,78.529,34.079,78.34,34.949,78.297z"/>
	<path fill="#FFFFFF" d="M30.767,65.013c1.261-2.521,2.732,0,2.732,0.637c0,0.634-0.424,1.895-1.472,1.895
		C32.027,67.533,29.507,67.533,30.767,65.013z"/>
	<path fill="#FFFFFF" d="M29.161,72.195c1.685,1.895,0,2.944-0.836,2.52c-0.838-0.422-1.473-0.836-1.685-2.095
		C26.641,72.62,27.477,70.311,29.161,72.195z"/>
</g>
</svg>
