<?xml version="1.0" encoding="utf-8"?>
<!-- Generator: Adobe Illustrator 16.0.0, SVG Export Plug-In . SVG Version: 6.00 Build 0)  -->
<!DOCTYPE svg PUBLIC "-//W3C//DTD SVG 1.1//EN" "http://www.w3.org/Graphics/SVG/1.1/DTD/svg11.dtd">
<svg version="1.1" id="_x35_0m" xmlns="http://www.w3.org/2000/svg" xmlns:xlink="http://www.w3.org/1999/xlink" x="0px" y="0px"
	 width="144px" height="144px" viewBox="0 0 144 144" enable-background="new 0 0 144 144" xml:space="preserve">
<g>
	<path fill-rule="evenodd" clip-rule="evenodd" fill="#656E36" d="M48.794,57.46c-1.211-0.531-2.171-1.758-3.724-1.324
		c-0.016-0.181-0.031-0.36-0.046-0.541c1.148-1.126-1.387-1.303-0.603-2.336c-0.264,0.433-0.528,0.865-1.005,1.648
		c-0.123-1.314-1.4-1.744-0.936-2.899c0.338-0.843,0.67-1.688,1.082-2.731c-1.164,0.536-1.561,1.625-2.561,1.904
		c-0.454-0.701,0.971-1.479,0.001-1.938c-1.128-0.533-2.206-1.366-3.581-1.234c-0.039-0.039-0.079-0.078-0.118-0.118
		c0.043,0.034,0.089,0.069,0.134,0.104c0.251,0.621,1.234,0.861,1.023,1.957c-1.046-0.625-1.597-1.713-2.821-1.937
		c0.158,0.423,0.265,0.709,0.372,0.997c-0.044,0.058-0.091,0.115-0.139,0.17c-0.921,0.006-1.28-0.941-2.19-1.28
		c0.176,1.539,1.467,2.346,1.973,3.562c-0.259-0.034-0.519-0.069-0.774-0.098c-0.174-0.102-0.371-0.121-0.417,0.1
		c-0.021,0.1,0.172,0.244,0.267,0.368c0.066,0.86,0.019,1.739,0.55,2.56c-0.826,0.131-0.771-0.579-1.099-0.851
		c-0.344-0.284-0.015-1.12-0.848-0.987c-1.009,0.159-0.104,0.982-0.523,1.373c-0.924-0.033-0.932-1.013-1.423-1.499
		c-0.973-0.96-1.2-0.321-1.413,0.533c-0.203,0.062-0.405,0.124-0.608,0.187c0,0-0.102-0.129-0.102-0.127
		c0.076-0.801-0.18-1.509-0.489-2.269c-0.502,0.376-0.587,0.988-1.166,1.062c-0.204-0.854-0.407-1.706-0.648-2.713
		c-0.81,1.172-0.229,2.61-1.063,3.619c-0.593-1.974-0.593-1.974-2.544-2.096c-0.747-1.167-0.065-2.445-0.286-3.652
		c-0.053-0.287,0.011-0.653-0.38-0.763c-0.285-0.081-0.511,0.096-0.588,0.329c-0.559,1.694-2.137,2.955-2.092,4.905
		c0.402,1.271-1.152,1.225-1.401,2.063c-0.023,0.081-0.207,0.115-0.316,0.171c-0.659-2.567-1.341,0.102-1.96,0.131
		c-1.326,0.065-2.225-0.829-3.421-0.962c-0.653-0.072-1.25-0.145-2.032,0.154c0.313-0.523,0.52-0.871,0.857-1.439
		c-1.142,0.326-2.188-0.134-2.993,0.92c-0.544,0.71-0.828-0.523-1.568-0.395c0.436-0.575,0.781-1.031,1.381-1.823
		c-2.063,0.862-1.571-1.566-3.427-1.39c0.938-0.506,1.365-0.736,1.881-1.014C5.58,47.411,5.421,47.066,5.18,45.45
		c-0.135-0.889-0.965-0.463-1.524-0.489l0.01-0.014c0.524,0.577,1.366,0.655,1.606,0.068c0.494-1.2-1.183-1.122-1.484-2.001
		c0.737-0.111,1.468-0.224,2.207-0.336c-0.147-0.97-1.092-0.48-1.547-0.998c1.013-0.399,2.368-0.09,2.896-1.402
		c-0.41-0.479-1.276-0.08-1.579-0.837c0.767-0.085,1.525-0.171,2.409-0.27c-0.577-0.745-1.967-0.545-1.858-1.802l0.008-0.016
		c0.61,0,1.22,0,1.797,0c0.187-0.565-0.604-0.75-0.221-1.35c2.735,1.026,5.682-0.174,8.499,0.68c0.373,0.113,0.95,0.086,1.125-0.445
		c0.229-0.686-0.372-0.881-0.816-1.035c-0.498-0.174-0.805-0.065-0.45-0.875c0.263-0.6,0.297-0.901,0.95-0.711
		c0.757,0.222,1.505,0.475,2.7,0.854c-1.123-2.288-2.91-3.542-4.108-5.575c1.987,0.744,3.795,1.422,5.624,2.107
		c0.096-0.818-0.677-0.803-1.047-1.147c-0.38-0.354-0.238-0.819,0.377-1.152c0.122,0.231,0.244,0.464,0.367,0.696
		c0.048,0.021,0.096,0.043,0.144,0.064c-0.051-0.017-0.104-0.035-0.155-0.051c-0.022-0.26-0.044-0.518-0.065-0.775
		c-0.332-0.578-1.067-1.073-0.175-1.836c0.202-0.172,0.24-0.826-0.181-1.164c1.448-0.873,0.102-1.115-0.352-1.559
		c0.114-0.897-0.008-1.691-0.859-2.229c-0.28-0.178-0.229-0.383,0.127-0.42c0.119-0.012,0.241,0.026,0.364,0.042l-0.005-0.017
		c0.223,0.269,0.324,0.689,0.799,0.647c0.301,0.722,0.744,0.004,1.106,0.109c0.083,0.072,0.23,0.216,0.238,0.208
		c0.193-0.177,0.104-0.292-0.102-0.37c0.14-0.324,0.066-0.623-0.114-0.907c0.064-0.553-0.076-1.165,0.463-1.579
		c0.317,0.191,0.656,0.354,0.946,0.58c1.725,1.354,3.291,0.962,3.787-0.961c0.471,0.869,0.912,1.75,1.074,2.924
		c0.85-0.709,0.492-1.479,0.528-2.158l0.001,0.027c0.809,1.229,0.613,2.712,0.888,4.07c0.838-0.014,0.623-1.156,1.407-1.027
		c-0.095,0.916-0.189,1.832-0.286,2.77c0.902-0.101,1.113-0.712,1.389-1.26c0.593,1.309,2.169,2.219,1.34,4.373
		c1.848-1.425,2.448-3.301,3.581-4.717c-2.245-0.383-0.159-2.022-0.481-3.111c-0.103-0.343,0.519-0.178,0.82,0.071
		c0.418,0.346,0.803,0.49,1.198-0.112c0.383-0.587,0.05-0.861-0.302-1.242c-0.547-0.596-1.198-1.14-1.345-2.01
		c-0.029-0.168-0.619-0.328-0.178-0.431c1.864-0.435,0.199-1.071,0.033-1.53c0.701-0.531,1.067,0.414,1.822,0.117
		c-1.624-0.754-1.681-1.635-0.601-2.904c0.879-1.032,0.937-2.545,1.728-3.71c0.342-0.502-0.813-0.901-0.654-1.665
		c0.934,0.086,2.049,0.51,2.265-1c0.175,0.156,0.438,0.477,0.51,0.439c0.327-0.176,0.152-0.52,0.144-0.805
		c0.631,0.01,1.45-0.943,1.83,0.355c0.374-1.044,2.13-0.363,2.304-1.783c0.077,0.617,0.153,1.233,0.263,2.11
		c0.273-0.974,0.481-1.715,0.701-2.498c0.747,1.843,1.349-0.14,2.066,0.083c0.234,0.607-0.361,1.364,0.042,2.098
		c0.689-0.131,0.641-0.832,1.023-1.494c0.298,1.171-0.088,2.35,1.085,2.927c0.536-0.26,0.45-1.062,0.949-1.454l0.021,0.005
		c-0.076,0.837,0.271,1.698-0.189,2.726c1.191-2.225,2.092-0.486,2.988,0.047c0.613,0.363,0.072,0.897-0.152,1.283
		c-0.436,0.754-1.008,1.445-0.722,2.408c0.01,0.233-0.49,0.578,0.014,0.669c0.39,0.069,0.347-0.365,0.278-0.663
		c0.286-0.587,0.663-0.611,0.849-0.002c0.198,0.648,0.213,1.354,0.305,2.033c0.067,0.504-0.09,1.39,0.794,0.448
		c0.041-0.045,0.106-0.107,0.152-0.103c1.717,0.183,1.717,0.184,2.307-1.24c0.438,0.817,1.553,1.574,0.611,2.841
		c-0.298,0.399,0.267,0.601,0.66,0.53c0.526-0.096,0.949-0.661,1.57-0.346l-0.025-0.031c-0.195,0.619-0.396,1.359,0.637,1.182
		c1.99-0.344,2.558,1.127,3.323,2.396c0.094,0.152,0.22,0.281,0.486,0.617c0.353-1.4-0.139-2.59-0.123-3.779
		c0.017-1.241,0.005-2.482,0.139-3.778c0.811,1.549,1.679,3.071,2.037,4.808c0.097,0.471-0.133,1.167,0.453,1.282
		c0.59,0.116,0.976-0.39,1.18-0.994c0.114-0.344,0.398-0.631,0.605-0.942c1.029,0.079,0.761,0.803,0.675,1.402
		c-0.104,0.701-0.502,1.379-0.15,2.203c1.246-1.68,2.421-3.301,3.638-4.891c0.627-0.818,0.439-1.358-0.43-1.795
		c-0.834-0.418-1.771-0.676-2.369-1.477c-0.138-0.217-0.261-0.455-0.58-0.418l0.038-0.012c-0.263-1.266-0.48-2.544-0.803-3.795
		c-0.324-1.254,0.373-4.148,1.278-5.268c0.244-0.303,0.057-0.908,0.767-1.076c0.209,0.503,0.431,1.035,0.772,1.856
		c0.159-0.928,0.267-1.558,0.385-2.242c1.554,1.834,1.459-0.257,2.053-0.816c0.8,0.384,0.037,1.374,0.758,1.793
		c0.178-1.134,0.352-2.249,0.548-3.5c0.858,0.595,1.465,2.707,2.809,0.335c0.434,1.438-0.183,2.645-0.01,4.027
		c1.195-0.766,1.21-2.24,2.269-3.061c0.357,1.037-0.369,1.719-0.536,2.816c1.025-0.696,1.893-1.283,2.776-1.883
		c0.475,0.553,0.02,1.019-0.145,1.507c-0.109,0.175-0.221,0.349-0.33,0.523c0.314,0.173,0.538,0.095,0.667-0.245
		c0.601-0.479,1.077-0.411,1.34,0.348c0.396,1.142-0.864,1.322-1.218,2.031c1.965,0.514-0.011,1.107,0.038,1.648
		c0.565,0.381,1.051-0.287,1.709-0.109c-0.232,0.274-0.378,0.568-0.615,0.705c-1.695,0.977-0.587,2.135-0.079,3.063
		c0.522,0.955,0.482,1.771-0.558,2.388c-0.384,0.188-1.239,0.057-1.144,0.389c0.252,0.868,0.813-0.17,1.256,0.007
		c0.027,0.011,0.092-0.071,0.138-0.109c0.387-0.114,0.744-0.102,1.038,0.229c0.108,0.379-0.287,0.299-0.421,0.457
		c-0.273,0.326-1.1,0.142-0.95,0.62c0.099,0.318,0.413,1.093,1.176,0.866c0.038-0.011,0.098,0.053,0.147,0.082
		c-0.135,0.096-0.271,0.191-0.405,0.288c-1.224,0.104-2.445,0.358-3.829-0.052c0.391,0.564,0.68,0.959,0.466,1.477
		c-0.269-0.001-0.536-0.001-0.803-0.002c-0.358-0.299-0.72-0.303-1.082-0.011c-0.265-0.001-0.526-0.001-0.79-0.001
		c-0.587-0.855-1.486-1.348-2.313-1.903c-0.73-0.492-1.671-0.671-2.111,0.29c-0.967,2.116-2.615,3.861-3.265,6.139
		c-0.122,0.105-0.311,0.203-0.073,0.365c0.022,0.016,0.153-0.133,0.233-0.204c1.418-1.174,2.836-2.348,4.383-3.629
		c-0.269,1.62-1.953,2.268-2.145,3.978c1.235-0.426,2.265-0.977,3.342-1.098c1.298-0.145,0.892,1.89,2.035,2.025
		c0.755-0.5-0.254-1.755,0.821-1.9c1.167-0.158,0.448-0.916,0.641-1.368c0.139,0.238,0.276,0.477,0.414,0.716
		c-0.138,0.84,0.38,1.456,0.76,2.158c0.239-0.702,0.438-1.375,0.003-2.059c0.104-0.311-0.091-1.204,0.519-0.713
		c1.569,1.264,1.498,1.352,2.126-0.555c0.554,0.138,0.253,0.652,0.423,0.957c0.199-0.262,0.398-0.521,0.799-1.044
		c-0.483,2.989,1.798,1.997,3.031,2.351c0.443,0.127,1.177-0.717,1.074,0.542c-0.006,0.062,0.016,0.124,0.024,0.187
		c1.15-1.37,1.872,1.646,3.238-0.297c-0.491,1.396-1.193,1.875-1.693,2.523c0.435,0.435,0.929-0.026,1.371,0.115
		c-0.515,2.193,0.631,3.674,2.695,3.485c-0.348,1.304,0.604,1.585,1.502,1.909c0.046,0.153,0.126,0.363,0.29,0.181
		c0.129-0.143,0.006-0.304-0.223-0.284c-0.284-0.816-0.187-1.979-1.603-1.773c0.462-0.98,0.462-0.98,0.095-2.754
		c1.394,1.375,2.045,3.063,3.146,4.419c0.152,0.169,0.305,0.339,0.458,0.507c0.3-0.27,0.149-0.559,0.033-0.846
		c-0.594-2.416-1.188-4.832-1.784-7.248c1.838,1.877,2.266,4.416,3.246,6.771c0.998-1.167-0.195-2.966,1.406-3.821
		c0.364,1.447,0.803,2.814,0.799,4.365c1.391-2.608,2.872-5.104,5.156-7.533c-0.417,2.941-1.603,5.261-2.135,7.861
		c1.062-0.834,2.124-1.668,3.19-2.505c1.248,1.9-0.743,2.752-1.384,4.441c2.488-1.074,4.684-2.025,6.88-2.975
		c0.087,0.124,0.172,0.246,0.258,0.369c-1.091,0.775-2.183,1.551-3.427,2.434c1.507,0,2.866,0,4.227,0
		c0.03,0.08,0.063,0.16,0.094,0.24c-1.325,0.615-2.651,1.231-4.237,1.969c1.544,0.459,2.868,0.852,4.733,1.406
		c-2.622,0.643-4.776,0.698-7.345,0.943c2.754,0.761,5.15,1.244,7.418,2.227c-1.292,1.982-3.078-0.32-4.581,0.594
		c0.569,0.834,1.766,0.643,2.323,1.582c-2.267,0.34-4.145-1.152-6.839-1.027c2.637,1.172,4.781,2.126,7.242,3.221
		c-1.459,0.317-2.445-0.555-3.583-0.107c0.106,0.857,1.123,1.211,1.478,2.555c-1.935-1.424-3.536-2.603-5.462-4.021
		c0.806,2.251,2.077,3.974,2.356,6.378c-1.178-1.263-1.59-2.754-3.127-3.82c0.546,2.557,1.486,4.674,1.497,7.195
		c-1.847-1.789-2.825-3.941-4.006-6.227c-0.49,1.215-0.459,2.408-1.189,3.439c-0.189-1.291-0.365-2.5-0.585-3.998
		c-0.644,1.626,0.078,3.041-0.316,4.38c-0.227,0.075-0.562-0.81-0.712,0.103c-0.106,0.658-0.327,1.297-0.524,2.047
		c-0.98-1.996-1.313-3.924-0.768-6.003c-0.864,1.186-1.392,2.534-2.704,3.68c-0.056-2.306,0.803-4.146,1.131-6.075
		c0.143-0.139,0.265-0.297,0.025-0.433c-0.052-0.027-0.196,0.11-0.298,0.172c-1.427,1.323-2.331,3.165-4.261,4.409
		c0.291-1.685,1.559-2.699,1.649-4.416c-1.596,0.845-2.65,2.158-4.181,2.762c-0.259-0.514,0.576-1.215-0.37-1.432
		c-1.122-0.667-2.168-0.162-3.5,0.092c0.664,0.738,1.146,1.277,1.629,1.816c-0.317,0.579,1.488,1.242-0.069,1.773
		c-1.111-1.238-2.163-2.551-4.191-3.453c1.093,1.806,1.932,3.191,2.771,4.576c-0.132,0.682-0.578,0.863-1.204,0.768
		c-0.188-1.551-1.238-2.433-2.392-3.273c0.208,1.5,0.813,2.863,0.457,4.66c-1-2.156-1.876-4.042-2.75-5.927
		c-0.065,2.089-0.073,4.132-0.57,6.137c-1.406-0.931-0.763-2.749-1.623-4.007c-0.619,1.881-0.761,3.811-2.235,5.556
		c-0.816-2.442,0.601-4.513,0.252-6.656c-0.146,1.106-0.839,1.962-1.187,2.956c-0.269,0.771-1.004,0.611-0.973,0.083
		c0.118-1.833-0.983-0.388-1.422-0.624c0.076-0.987-0.309-0.862-0.985-0.495c-0.47,0.255-0.683,1.18-1.52,0.675
		c0.755-1.171,1.499-2.324,2.241-3.478c0.357-0.419,0.864-0.751,0.973-1.502c-0.671,0.326-1.022,0.71-1.276,1.194
		c-1.322,0.441-1.938,2.017-3.65,2.371c1.131-1.48,2.088-2.73,3.177-4.156c-1.958-0.172-3.255,1.173-4.922,1.166
		c0.278-0.875,0.982-1.075,1.583-1.387c0.36-0.187,0.791-0.5,0.526-0.838c-1.165-1.484,0.51-1.246,0.95-1.395
		c0.624-0.209,1.35-0.094,1.824-0.785c-1.604-0.396-3.466,0.68-4.791-1.109c-0.236-0.317-1.679-0.446-1.743,0.906
		c-0.02,0.428-0.327,0.653-0.671,0.834c-0.578-0.457-0.438-1.076-0.47-1.706c-0.064-1.304,0.699-2.565,0.267-4.179
		c-0.33,0.672-0.5,1.077-0.722,1.449c-0.18,0.301-0.308,0.814-0.785,0.627c-0.434-0.17-0.302-0.639-0.195-0.985
		c0.145-0.481,0.692-1.09,0.032-1.393c-0.625-0.286-1.172,0.208-1.601,0.782c-0.72,0.956-1.56,2.264-2.391,2.586
		c-1.462,0.569-1.632,1.064-1.001,2.256c0.117,0.219,0.274,0.406,0.086,0.662c-0.569,0.775-0.611,0.844,0.122,1.316
		c0.607,0.391,0.667,1.095,1.119,1.547c-0.593,0.568-1.224,0.41-1.911,0.174c-0.335-0.115-0.744-0.02-1.395-0.02
		c1.522,0.858,2.73,1.572,3.46,2.902c-1.172,0.399-2.15-0.189-3.298-0.191c1.379,0.24,0.564,1.156,0.696,1.762
		c-0.187,0.318-0.811-0.104-0.788,0.368c0.017,0.388,0.477,0.448,0.846,0.444c0.159,0.65,1.067,0.658,1.166,1.361
		c-0.96,0.299-1.807-0.503-2.758-0.285c-0.077-0.035-0.155-0.072-0.233-0.107c0.031,0.081,0.063,0.164,0.095,0.245
		c0.021,0.782,0.279,1.401,0.838,2.02c0.595,0.658,1.385,1.347,1.154,2.445l0.016-0.017c-1.85-0.605-2.355-2.672-3.998-3.813
		c-0.088,1.314,1.268,2.067,0.813,3.402c-0.691-0.606-1.273-1.117-2.047-1.795c0.101,0.809,0.491,1.327,0.247,1.896
		c-3.268,0.185-2.259-3.122-3.646-4.626c0.002,1.974-0.297,3.807,0.562,5.553c0.269,0.545,0.307,1.241-0.32,1.716l-0.004-0.006
		c-0.143-0.561-0.287-1.119-0.509-1.992C49.129,56.398,48.962,56.929,48.794,57.46z M89.514,40.485l-0.049,0.021
		c-1.061-0.291-2.109-0.154-3.422-0.156c3.173,2.816,3.576,2.859,5.617,0.813c0.346-0.291,0.96-0.399,0.729-1.078
		c-0.822-1.641-2.28-0.31-3.444-0.873C89.183,39.741,89.347,40.113,89.514,40.485z M52.667,20.323
		c-0.149-0.391,0.141-0.744,0.14-1.063c-0.003-0.61-0.275-1.219-0.436-1.826c-0.691,0.217-1.292,0.524-1.341,1.371
		c-0.945-0.752-1.281,0.551-1.991,0.593c0.122,0.454,0.244,0.907,0.366,1.36c0.659-0.547,1.436,0.258,2.104-0.18
		c0.111,0.055,0.215,0.12,0.31,0.197c-0.165,0.54-0.735,0.592-1.067,0.855c0.515,0.561,1.019,1.105,1.859,2.018
		c-0.282-1.151-0.227-1.731,0.286-2.265C53.179,21.092,53.592,20.487,52.667,20.323z M62.396,33.118
		c-1.176,0.544-1.806,1.732-2.846,2.422c-0.555,0.369-0.637,0.918-0.318,1.254c0.444,0.471,0.985,0.31,1.357-0.313
		c0.642-1.07,1.335-2.109,2.005-3.164c0.122-0.119,0.303-0.24,0.061-0.396C62.623,32.901,62.484,33.049,62.396,33.118z
		 M38.202,33.641c-1.029-0.722-0.906-2.351-2.222-2.835c-0.287-0.105,0.457-1.814-0.616-0.469c-0.72,0.902,0.693,2.007,0.218,3.1
		c0.869,0.172,1.704,0.819,2.63,0.183c-0.345,0.767,0.725,1.912-0.839,2.388c1.069,0.121,1.942,0.445,2.827,0.198
		c-0.09-0.858-0.99-0.802-1.19-1.35c0.796-0.579,1.42,0.432,2.173,0.158c0.488,0.812,1.396,1.522,2.099,1.063
		c0.83-0.541-0.365-1.078-0.587-1.651c-0.035-0.091-0.004-0.206-0.004-0.364c0.515,0.473,1.027-0.074,1.608,0.105
		c1.258,0.387,1.216-0.838,1.352-1.503c0.143-0.7-0.19-1.073-1.163-1.149c-1.674-0.129-1.997,1.266-2.889,2.018
		C40.466,33.567,39.334,33.604,38.202,33.641z M48.436,35.097c0.029,0.156,0.061,0.313,0.09,0.469
		c0.068-0.043,0.134-0.086,0.2-0.129c-0.097-0.113-0.194-0.226-0.292-0.338c0.82-0.988,1.247-2.212,1.86-3.438
		c0.782,0.919-0.038,1.799,0.288,2.596c0.844-0.541,3.053-3.482,2.83-3.805c-0.972-1.404-2.407-0.586-3.647-0.704
		c-0.371-0.036-0.755-0.022-1.126,0.021c-1.581,0.193-2.04,0.968-1.438,2.423C47.603,33.164,48.023,34.13,48.436,35.097z
		 M61.207,28.787c-2.186,0.065-4.481-0.59-6.438,0.97C57.027,30.237,59.075,29.195,61.207,28.787z M93.018,37.198
		c-1.698,0.219-3.521-0.518-5.685,0.482C89.64,38.288,91.353,38.157,93.018,37.198z M95.082,41.35
		c-1.476,0.532-2.867,1.035-4.261,1.536C92.428,42.936,94.259,43.562,95.082,41.35z M80.038,36.979
		c-0.859,0.312-0.588,1.158-0.713,1.734c-0.162,0.758,0.633,0.838,1.134,0.877c0.52,0.039,1.072-0.327,0.857-0.902
		C81.077,38.045,80.913,37.229,80.038,36.979z M66.789,27.218c1.027,0.125,1.748,0.896,2.233,0.212
		c0.541-0.768-0.455-1.263-0.695-2.076C67.718,26.011,67.773,26.809,66.789,27.218z M103.402,35.476
		c0.003,0.008,0.286-0.758-0.469-0.688c-0.699,0.065-1.247,0.648-1.373,1.342c-0.102,0.553,0.362,0.908,0.931,0.888
		C103.161,36.993,103.731,36.788,103.402,35.476z M49.371,39.739c-0.216-0.576-0.404-1.238-1.188-1.221
		c-0.472,0.012-0.873,0.373-0.777,0.866c0.101,0.526,0.292,1.12,1.054,1.081C48.935,40.442,49.317,40.321,49.371,39.739z
		 M39.079,37.669c-0.053-0.15-0.105-0.301-0.158-0.451c-0.811,0.328-2.004-0.455-2.528,1.136
		C37.375,38.104,38.227,37.887,39.079,37.669z M38.267,46.695c0.864,0.234,1.246,1.185,2.146,0.721
		c0.262-0.136,0.469-0.521,0.136-0.771C39.942,46.189,39.273,45.841,38.267,46.695z M51.646,53.419
		c0.573-1.246-0.017-2.309-0.585-3.383C51.255,51.164,51.451,52.292,51.646,53.419z M59.565,37.913
		c-2.055-0.627-2.055-0.627-3.099,0.022C57.541,38.337,58.545,37.978,59.565,37.913z M81.933,23.555
		c-0.161-0.069-0.315-0.164-0.479-0.19c-0.072-0.012-0.167,0.117-0.25,0.183c0.111,0.132,0.223,0.265,0.335,0.397
		C81.609,23.874,81.68,23.804,81.933,23.555z M18.022,35.947c-0.001,0.003-0.1,0.153-0.103,0.308
		c-0.008,0.271,0.162,0.451,0.439,0.417c0.132-0.016,0.352-0.155,0.353-0.241C18.715,36.171,18.531,36.015,18.022,35.947z
		 M106.25,31.675c0.059-0.074,0.169-0.156,0.186-0.255c0.007-0.056-0.181-0.21-0.206-0.194c-0.123,0.077-0.223,0.193-0.332,0.295
		C105.999,31.565,106.099,31.61,106.25,31.675z"/>
	<path fill-rule="evenodd" clip-rule="evenodd" fill="#656E36" d="M53.12,85.552c-1.229,0.938-2.458,1.873-3.688,2.81
		c0.329-1.576,1.305-2.679,2.269-3.784c0.588-0.674,0.764-1.368-0.39-1.225c-1.428,0.178-2.63-0.61-3.984-0.588
		c-0.24-0.816,0.537-1.014,0.82-1.496c0.482-0.822,0.481-1.932,1.789-2.293c-1.401,0-2.804,0-4.207,0
		C48.251,78,50.832,77.83,53.4,77.411c-2.105-0.617-4.282-0.967-6.175-2.284c1.037-0.501,1.918,0.433,2.867,0.026
		c-0.245-0.941-1.373-0.905-1.734-1.666c0.066-0.064,0.134-0.13,0.196-0.197c0.764,0.213,1.541,0.389,2.286,0.65
		c0.467,0.162,0.848,0.152,1.155-0.23c0.325-0.403,0.291-0.781-0.188-1.061c-0.316-0.572-0.631-1.145-0.947-1.717
		c0.065-0.073,0.132-0.146,0.199-0.22c0.642,0.548,1.25,1.142,1.938,1.62c0.343,0.238,0.618,0.958,1.211,0.477
		c0.621-0.506,0.154-1.004-0.118-1.493c-0.688-1.236-1.361-2.481-1.822-3.862c1.862,1.415,3.052,3.336,4.39,5.381
		c0.436-1.674-0.457-3.197-0.274-4.746c0.239,0.145,0.48,0.289,0.719,0.433c1.216,0.94,0.529-0.571,0.912-0.706
		c0.977,0.202,0.699,1.203,1.122,1.76c0.21,0.279,0.27,0.775,0.755,0.691c0.405-0.072,0.588-0.436,0.654-0.82
		c0.167-0.979,0.412-1.956,0.442-2.941c0.026-0.816,0.198-1.338,1.087-1.401c0.033,0.211,0.065,0.423,0.098,0.634
		c-0.258,2.107-0.664,4.209-0.396,6.589c1.26-0.934,1.356-1.936,0.737-3.231c1.357,0.907,2.474-0.818,3.608,0.128
		c0.078,0.521-0.454,0.724-0.593,1.124c-0.294,0.838-1.713,1.68-0.897,2.372c0.757,0.64,1.517-0.725,2.177-1.304
		c1.815-1.594,2.049-2.791,1.005-4.453c1.737-1.201,1.429-3.305,2.179-4.939c0.678-0.125,1.795-0.961,1.228,0.834
		c-0.282,0.891,0.412,1.387,1.082,2.119c0.136-1.462,0.587-2.525,1.553-3.318l-0.003-0.002c-0.231,1.302-0.464,2.604-0.709,3.983
		c1.078-0.315,0.388-1.53,1.261-1.854c0.135,0.299,0.27,0.598,0.583,1.286c0-1.284,0-2.136,0-3.399
		c0.523,1.57,1.303,0.92,1.986,0.772c0.008,0.914-0.249,2.12,0.641,2.53c0.771,0.354,1.549-0.577,2.267-1.057
		c0.154-0.104,0.294-0.232,0.439-0.35c0.281-0.01,0.427-0.164,0.464-0.434c0.133-0.074,0.164-0.179,0.093-0.313
		c1.104,0.267,1.479-1.478,2.887-0.825c-1.136,0.733-0.361,1.183,0.189,1.794c0.377,0.418,0.641,0.401,0.858,0.025
		c1.06-1.842,2.524-1.383,4.031-0.767c0.434,0.176,0.911,0.277,1.193-0.163c0.253-0.391,0.144-0.855-0.146-1.24
		c-0.396-0.527-0.927-0.982-0.99-1.748c0.68-0.007,0.91,0.516,1.285,0.805c0.505,0.388,1.046,0.947,1.648,0.435
		c0.547-0.464,0.028-1.04-0.219-1.528c-0.619-1.225-1.25-2.442-1.877-3.664c2.271,1.469,3.224,3.947,5.332,5.972
		c-0.124-1.938-0.656-3.423-0.503-4.95c1.105,0.141,0.68,1.359,1.088,1.703c0.88,0.445,0.513-2.025,1.65-0.395
		c0.204,1.479,0.407,2.957,0.619,4.484c0.396-2.018,0.792-3.988,0.611-6.016c1.229-0.094,0.415-1.672,1.415-1.969
		c0.077,0.445,0.148,0.861,0.221,1.277c-0.155,2.045-0.16,4.1-0.28,6.242c0.691-1.217,1.385-2.435,2.076-3.65
		c0.13-0.025,0.259-0.051,0.389-0.076c0.414,0.487,0.967,0.422,1.812,0.313c-1.331,2.224-2.555,4.271-4.063,6.789
		c3.145-2.239,5.932-4.035,9.366-4.56c-1.247,0.883-2.496,1.765-3.938,2.783c0.622,0,0.991,0,1.36,0
		c1.233,0.008,2.467-0.001,3.7,0.031c0.292,0.006,0.906-0.052,0.339,0.546c-1.68,0.617-3.359,1.235-5.041,1.853
		c0.042,0.062,0.083,0.123,0.125,0.185c1.762,0,3.522,0,5.283,0c1.017-0.222,0.45-1.188,0.747-1.733
		c1.462,0.61,2.863,1.197,4.569,1.909c-0.369-0.748-0.835-0.994-0.771-1.494c0.058-0.056,0.114-0.112,0.169-0.171
		c0.197,0.059,0.395,0.117,0.594,0.175c0.12,0.117,0.236,0.32,0.398,0.064c0.021-0.032-0.131-0.171-0.202-0.26
		c0.502-1.555-0.698-2.501-1.31-3.657c-1.608-1.482-0.324-3.527-0.993-5.223c-0.261-0.652-0.044-1.49-0.044-2.636
		c0.414,0.851,0.66,1.362,0.98,2.019c0.407-1.189-0.244-2.26,0.204-3.263c0.831-0.281,0.44,0.765,1.011,0.868
		c0.093-0.865-0.176-2.063,1.472-1.534c0.041,0.409,0.114,1.12,0.208,2.048c0.461-0.932,0.846-1.707,1.322-2.672
		c0.047,0.832,0.081,1.447,0.113,2.051c1.209-0.336,1.592-1.328,2.1-2.564c0.356,1.137,0.054,1.994-0.05,2.982
		c1.251-0.673,0.551-2.357,1.86-2.722c-0.353,1.184,2.203,0.612,1.188,2.144c0.826,0.048,0.629-0.916,1.226-1.025
		c0.071,0.078,0.208,0.155,0.214,0.242c0.014,0.184-0.016,0.381-0.071,0.559c-0.301,0.961-0.614,1.918-0.923,2.877
		c1.412,0.221,1.357-1.686,2.673-1.748c0.427,0.984-0.732,1.371-0.907,2.139c0.61,0.365,0.874-0.307,1.311-0.434
		c1.387-0.396,1.07-0.352,1.353,0.947c0.191,0.885,0.167,2.139,1.164,2.844c-0.47,0.213-1.002,0.454-1.521,0.689
		c-0.242,0.503,1.983,0.621,0.194,1.364c-0.429,0.179-0.088,0.388,0.045,0.511c0.747,0.693,0.761,1.964,1.916,2.359
		c0.52,0.18,0.483,0.686,0.311,1.131c-0.294,0.748-0.608,1.488-0.948,2.313c1.382,0.118,1.909-1.409,3.371-1.765
		c-0.882,1.194-1.608,2.175-2.332,3.154c-0.292,0.248-0.888,0.559-0.563,0.879c0.334,0.33,0.727-0.207,0.998-0.537
		c1.533-0.953,3.065-1.908,4.597-2.863c0.114,0.13,0.229,0.258,0.344,0.389c-1.352,1.418-2.949,2.585-4.553,3.749
		c0.972,0.674,2.078-0.839,2.995,0.296c-0.834,0.799-1.889,1.215-3.249,1.934c2.741,0.326,5.12,0.603,7.836,1.733
		c-2.852,0.579-5.27,0.349-8.049,0.396c0.936,0.529,1.667,0.812,2.22,1.297c0.388,0.341,1.545,0.129,1.026,1.289
		c-0.449,1.006-1.016,0.709-1.67,0.319c-0.558-0.332-1.142-0.503-1.862-0.181c1.203,1.463,2.714,2.629,3.767,4.385
		c-1.079,0.052-1.507-0.957-2.322-1.117c-0.094-0.303-0.371-0.429-0.563-0.252c-0.289,0.266,0.159,0.344,0.243,0.525
		c0.268,0.889,0.536,1.773,0.803,2.662c-0.088,0.059-0.175,0.117-0.264,0.176c-0.83-0.889-1.658-1.777-2.756-2.954
		c0,1.528,0,2.728,0,3.927c-0.116,0.02-0.23,0.039-0.344,0.059c-0.651-1.484-1.303-2.971-1.954-4.455
		c-0.092,2.318-0.092,4.561-0.587,6.85c-0.621-0.998-1.26-1.881-1.196-3.047c-1.095,0.117-0.279,1.361-1.275,1.572
		c0-2.014,0-3.99,0-5.967c-1.149,1.844-0.806,3.978-1.529,6.088c-0.604-0.912-0.238-1.902-0.537-2.733
		c-0.774,0.245-0.707,1.404-1.767,1.392c0.535-1.394,1.031-2.686,1.633-4.254c-1.309,0.424-1.83,1.328-2.584,1.916
		c-0.971,0.758-0.983,0.805-2.22-0.162c-0.398-0.311-0.513,0.018-0.737,0.129c-0.699,0.346-1.392,0.708-2.257,0.796
		c0.609-0.812,1.217-1.623,1.984-2.646c-1.604,0.32-2.801,1.813-4.343,0.711c-0.242-0.174-0.834,0.027-0.63-0.628
		c0.563-1.811-0.595-1.44-1.531-1.126c-1.147,0.383-2.25,0.897-3.187,1.279c1.648,0.359,1.372-2.278,3.089-2.445
		c-0.501-0.121-1.003-0.243-1.502-0.364c-0.186-0.026-0.407,0.003-0.548-0.091c-0.506-0.334,0.051-0.271,0.147-0.306
		c1.057-0.377,1.929-1.03,3.09-1.827c-1.253-0.094-2.162-0.163-3.071-0.231c1.127-0.257,2.251-0.271,3.366-0.386
		c2.349-0.239,2.348-0.261,3.226-1.053c-3.991,0.434-7.718,0.005-11.306-2.16c1.093,2.172,3.406,3.067,3.623,5.356
		c-1.588-1.296-3.014-2.695-4.9-3.552c1.021,1.408,2.043,2.817,3.063,4.227c0.118,0.275,0.237,0.551,0.356,0.828
		c-0.082,0.087-0.163,0.174-0.244,0.262c-0.648-0.643-1.292-1.289-1.943-1.927c-0.474-0.462-0.818-1.367-1.621-1.021
		c-0.722,0.312-0.781,1.161-0.744,1.925c0.008,0.179-0.068,0.361-0.106,0.55c-0.486-0.089-0.598-0.983-1.207-0.603
		c-0.43,0.268-0.197,0.803-0.18,1.219c0.068,1.373,0.16,2.744,0.254,4.263c-1.36-1.26-1.208-2.888-1.482-4.368
		c-0.17-1.12-0.34-2.241-0.509-3.362c-0.149-0.004-0.297-0.008-0.443-0.011c-0.164,0.986-0.329,1.973-0.492,2.959
		c-0.315,0.977-0.631,1.953-0.965,2.992c-0.767-0.523-0.393-1.275-0.572-1.866c-0.057-1.376,0.17-2.802-0.74-4.526
		c-0.494,1.387-0.841,2.357-1.188,3.328l-0.059,0.096c-0.306,0.123-0.35,0.381-0.343,0.666c-0.431,0.479-0.481,1.252-1.09,1.59
		c-0.85-0.535,0.332-1.025-0.099-1.5c-0.029-0.031-0.087-0.053-0.13-0.052c-0.062,0.001-0.122,0.026-0.183,0.042
		c-0.376-0.615,0.617-1.053,0.214-1.688c-0.909-0.161-1.233,0.603-1.743,1.089c-0.603,0.574-0.823,1.557-1.813,1.721l-0.005-0.004
		c-0.023-0.129-0.046-0.258-0.069-0.387c-0.17-0.721,0.688-0.877,0.79-1.447c1.046-0.959,1.206-2.353,2.157-3.939
		c-0.9,0.6-1.343,0.896-1.787,1.191c-0.18,0.107-0.475,0.117-0.388,0.453l0.035-0.037c-0.96,0.026-1.387,1.042-2.264,1.219
		c-0.195-0.619,0.292-1.094,0.354-1.657c0.202-0.184,0.402-0.365,0.604-0.548c0.338-0.522,0.997-0.845,0.981-1.586
		c1.061-0.444,1.688-1.352,2.284-2.386c-1.637,0.77-3.273,1.539-4.911,2.309c-0.55,0.153-1.093,0.735-1.657,0.026
		c2.242-1.038,3.193-3.72,5.74-4.4c-0.933-0.119-1.802-0.171-2.662-0.107c-1.13,0.083-0.605-0.412-0.257-0.977
		c-2.001,0.344-4.122-0.991-5.772,1.264c-1.238,1.691-2.79,3.139-3.107,5.343l0.034-0.022c-0.362-0.127-0.286,0.145-0.305,0.332
		c-1.226,0.766,0.059,3.06-2.195,3.314c0.81,0.269,1.458,0.484,2.103,0.699c-0.446,0.715-1.86,0.223-1.855,1.295
		c0.003,0.482,0.72,0.989,1.468,0.814l0.039,0.038c0.148,0.326,0.455,0.323,0.743,0.366l0.009,0.008
		c-0.011,0.125-0.011,0.252-0.004,0.377c-0.156,0.039-0.314,0.079-0.471,0.119c0.047,0.063,0.092,0.126,0.139,0.189
		c0.109-0.104,0.221-0.207,0.332-0.309c0.146,0.271,0.294,0.545,0.442,0.818l-0.008,0.002c-0.141,0.111-0.28,0.223-0.422,0.334l0,0
		c-0.151,0.114-0.302,0.229-0.452,0.343c-2.856,1.267-3.761,3.722-3.958,6.577c-0.096,1.383-0.348,2.82-0.099,4.152
		c0.529,2.824,0.058,5.668-0.095,8.408c-0.288,5.232,0.477,10.463-0.242,15.677c-0.375,2.718,0.292,5.401,0.585,8.099
		c0.58,5.343,0.615,10.718,0.739,16.086c0.022,0.91-0.104,1.385-1.197,1.359c-3.349-0.078-6.7-0.109-10.047-0.037
		c-1.324,0.029-1.177-0.74-1.201-1.568c-0.239-8.326-0.924-16.643-0.085-24.982c0.316-3.135,0.104-6.308-0.124-9.467
		c-0.198-2.754-0.158-5.488,0.114-8.282c0.364-3.732-0.143-7.555-0.37-11.332c-0.032-0.549-0.271-1.231-0.928-1.724
		c0.303,2.502,0.696,4.898,0.627,7.553c-1.874-2.107-0.948-4.887-2.237-7.282c-0.672,2.005-0.842,3.892-1.764,5.749
		c-0.637-2.266-0.497-4.416-0.881-6.605c-0.654,1.389-1.298,2.783-1.97,4.162c-0.152,0.314-0.285,0.833-0.76,0.673
		c-0.707-0.239-0.16-0.676-0.08-1.054c0.202-0.971,0.361-1.951,0.638-3.476c-1.487,1.876-2.632,3.323-3.777,4.769
		c0.073-1.946,1.242-3.369,1.922-5c0.222-0.244,0.354-0.565,0.111-0.797C53.456,85.11,53.227,85.312,53.12,85.552z M69.583,89.456
		c0.104,0.109,0.21,0.273,0.352,0.059c0.016-0.024-0.118-0.148-0.182-0.227c-0.828-2.213-2.693-3.439-4.484-4.74
		C66.379,86.478,67.532,88.362,69.583,89.456z M105.769,69.565c-0.234-0.198-0.667-0.384-0.745-0.154
		c-0.104,0.302,0.407,0.172,0.601,0.329c1.91,0.64,3.365,2.628,5.779,2.014c-0.335-0.452-1.04-0.302-1.158-0.952
		c0.936-0.203,1.942,0.231,2.957-0.231c-2.27-1.992-4.101-2.401-9.159-1.983c2.068,0.392,4.256,0.061,6.514,0.979
		C108.785,69.565,107.276,69.565,105.769,69.565z M92.043,66.82c-2.539-0.237-5.397-3.364-7.452,0.875
		C87.094,67.2,89.59,67.141,92.043,66.82z M74.638,81.354c-2.458-1.601-4.897-0.987-7.243-1.006
		C69.637,81.078,71.886,81.767,74.638,81.354z M98.451,67.427c-0.021-0.633-0.149-1.312-0.868-1.209
		c-0.735,0.105-0.599,1.012-0.801,1.537c-0.157,0.412,0.391,0.74,0.903,0.616C98.167,68.253,98.723,68.131,98.451,67.427z
		 M115.52,73.233c-1.728-0.292-3.448-0.73-5.216-0.262C112.019,73.507,113.766,73.419,115.52,73.233z M60.343,78.427
		c-0.295-0.666-0.048-1.56-0.81-1.502c-0.728,0.056-0.296,1.256-1.035,1.604c-0.083,0.037,0.457,0.629,0.924,0.539
		C59.854,78.983,60.45,78.987,60.343,78.427z M129.158,73.673c-0.145-0.719-0.816-0.839-1.288-0.969
		c-0.628-0.173-1.129,0.408-1.163,0.945c-0.021,0.312,0.219,1.107,0.91,0.95C128.206,74.466,128.85,74.296,129.158,73.673z
		 M113.86,68.355c-0.431-0.603-0.813-1.083-1.549-0.858c-0.068,0.021-0.124,0.336-0.07,0.467
		C112.586,68.78,113.213,68.392,113.86,68.355z M92.977,76.626c-0.064,0.146-0.121,0.254-0.151,0.367
		c-0.006,0.023,0.13,0.113,0.137,0.105c0.076-0.072,0.177-0.151,0.195-0.242C93.168,76.798,93.051,76.714,92.977,76.626z"/>
	<path fill-rule="evenodd" clip-rule="evenodd" fill="#656E36" d="M21.077,65.472c0.195-1.025,0.888-2.178-0.795-2.674
		c-0.462-0.137-0.414-0.594-0.201-0.941c0.282-0.463,0.723-0.78,1.266-0.549c0.561,0.238,1.064,0.613,1.573,0.916
		c0.9-0.952,0.13-2.653,1.646-3.197l-0.044-0.047c-0.352,0.389,0.049,0.506,0.262,0.662c0.083,0.063,0.235,0.026,0.357,0.035
		c-0.076-0.226-0.152-0.452-0.229-0.679L24.87,59.02c2.146-1.003,3.056,1.212,4.602,1.767c0.303,0.814,0.959,1.348,1.545,1.936
		c0.172,0.234,0.344,0.47,0.515,0.705c0.303-0.428-0.301-0.621-0.253-0.983c-0.15-0.499-0.449-0.975-0.247-1.53
		c0.08,0.096,0.147,0.248,0.247,0.273c0.126,0.033,0.26,0.469,0.323,0.135c0.339-1.791,0.937-1.153,1.64-0.234
		c0.21,0.273,0.314,0.829,0.72,0.719c0.478-0.127,0.464-0.645,0.459-1.105c-0.005-0.418-0.252-1.008,0.156-1.229
		c0.631-0.342,0.769,0.676,1.119,0.682c1.403,0.018,1.573,1.956,3.215,1.803c1.034-0.096,1.184,1.248,1.317,2.175
		c0.227,1.563,0.494,3.016,2.567,1.071c-0.101,1.404-1.174,2.064-1.308,3.129c0.385,0.512,1.079-0.2,1.425,0.313
		c-0.009,0.904-1.871,0.305-1.253,1.667c-0.271,3.161,2.215,1.632,3.778,1.987c-1.455,1.653-3.529,1.795-5.13,2.9
		c1.501,0.566,3.043,0.328,4.519,1.097c-1.244,0.36-2.171,1-3.404,0.889c-1.083-0.097-2.25-0.059-3.365,0.573
		c2.231,0.737,4.311,1.425,6.263,2.068c-1.066,1.472-2.482,0.945-3.842,0.787c-0.06-0.043-0.12-0.086-0.179-0.129
		c0.049,0.054,0.099,0.107,0.147,0.16c-0.208,0.504,0.557,0.822,0.272,1.346c-1.419-0.152-1.419-0.152-1.774,0.848
		c-0.467,0.836-1.043,1.131-1.888,0.445c-0.518-0.42-1.084-0.779-1.843-0.964c0.297,0.324,0.537,0.774,0.905,0.95
		c1.632,0.779,0.754,2.092,0.68,3.191c-0.014,0.209-0.492-0.154-0.739-0.299c-0.252-0.203-0.521-0.344-0.767-0.026
		c-0.027,0.034,0.203,0.269,0.314,0.41c0.073,0.924,0.866,1.687,0.597,3.12c-0.694-2.074-2.776-1.916-3.822-3.795
		c0.156,2.016,0.271,3.504,0.386,4.992c-1.582-2.102-1.786-4.59-2.355-7.391c-0.764,1.802-0.581,3.541-1.423,5.09
		c-0.595-0.844-0.055-1.725-0.367-2.52c-0.907,0.548-0.774,1.837-1.91,2.498c0.378-1.821,0.718-3.451,1.056-5.082
		c0.106-0.193,0.213-0.393-0.012-0.568c-0.01-0.006-0.185,0.196-0.281,0.301c-1.141,1.041-2.029,2.361-3.595,3.014
		c1.122-1.654,2.242-3.309,3.363-4.963c-2.512,1.219-4.525,3.225-7.117,4.279c1.43-1.949,3.208-3.506,5.015-5.037
		c0.239-0.186,0.567-0.344,0.447-0.718c-0.036-0.107-0.284-0.146-0.434-0.216c-0.099,0.215-0.2,0.429-0.299,0.643
		c-0.613,0.078-1.25,0.085-1.837,0.26c-0.41,0.123-0.833,0.533-1.102-0.039c-0.247-0.522,0.338-0.78,0.652-1.01
		c0.643-0.469,1.361-0.832,2.484-1.494c-3.209-0.411-6.01-0.574-9.01-1.831c2.787-0.607,5.27-0.542,7.988-0.722
		c-0.99-1.361-2.551-1.451-3.489-2.429c0.178-0.674,0.914,0.142,1.173-0.735c-0.12-0.119-0.399-0.398-0.634-0.631
		c0.715-0.133,1.632,0.287,2.427-0.379c-0.685-1.355-2.287-1.732-3.031-2.962c-0.494-0.817-1.306-1.79,0.646-1.69
		c0.036,0.002,0.114-0.093,0.106-0.113c-0.04-0.088-0.104-0.165-0.157-0.246C21.074,65.938,21.075,65.705,21.077,65.472z
		 M28.807,76.782c0.715,0.572,1.297,1.533,2.315,0.883c0.581-0.37,0.428-1.066,0.049-1.488C30.16,75.056,29.63,76.507,28.807,76.782
		z"/>
	<path fill-rule="evenodd" clip-rule="evenodd" fill="#B8986E" d="M102.356,58.567c-0.13,0.025-0.259,0.051-0.389,0.074
		c-0.58-1.124-1.146-2.254-1.273-3.718c-0.23,0.495-0.375,0.812-0.522,1.128c-0.072-0.416-0.144-0.832-0.221-1.277
		c-1,0.297-0.187,1.875-1.415,1.969c-0.64-0.048-0.88-0.283-0.583-0.957c0.166-0.379,0.431-0.926-0.353-1.117
		c-0.468,1.174-0.051,2.42-0.295,3.605c-1.138-1.631-0.771,0.84-1.65,0.395c-0.408-0.344,0.018-1.563-1.088-1.703
		c-0.153,1.527,0.379,3.012,0.503,4.95c-2.108-2.024-3.062-4.503-5.332-5.972c0.627,1.222,1.258,2.439,1.877,3.664
		c0.247,0.488,0.766,1.064,0.219,1.528c-0.603,0.513-1.144-0.047-1.648-0.435c-0.375-0.289-0.605-0.812-1.285-0.805
		c0.063,0.766,0.594,1.221,0.99,1.748c0.289,0.385,0.398,0.85,0.146,1.24c-0.282,0.44-0.76,0.339-1.193,0.163
		c-1.507-0.616-2.972-1.075-4.031,0.767c-0.218,0.376-0.481,0.393-0.858-0.025c-0.551-0.611-1.325-1.061-0.189-1.794
		c-1.407-0.652-1.783,1.092-2.887,0.825c0.188-1.488,1.693-2.059,2.328-3.263c-0.789-0.327-1.114,1.132-2.038,0.396
		c1.149-0.886,2.376-1.715,1.95-3.43c2.193-0.47,1.854-3.396,3.897-4.03c0.146-0.044,0.417-0.266,0.198-0.646
		c-0.677,0.22-1.363,0.442-2.149,0.698c0.103-1.195,0.541-1.982,1.618-2.32c0.626,0.096,1.072-0.086,1.204-0.766
		c0.328-0.559,0.773-0.969,1.42-1.125c1.558-0.531-0.248-1.194,0.069-1.773c0.63-0.63,1.44-1.084,1.871-1.908
		c0.946,0.217,0.111,0.918,0.37,1.432c1.53-0.604,2.585-1.917,4.181-2.762c-0.091,1.717-1.358,2.731-1.649,4.416
		c1.93-1.244,2.834-3.086,4.261-4.409c0.086,0.093,0.179,0.179,0.274,0.261c-0.33,1.93-1.188,3.77-1.133,6.075
		c1.313-1.146,1.84-2.494,2.704-3.68c-0.546,2.079-0.213,4.007,0.768,6.003c0.197-0.75,0.418-1.389,0.524-2.047
		c0.15-0.912,0.485-0.027,0.712-0.103c0.896,1.679,0.533,3.464,0.209,5.15C102.229,56.214,102.074,57.363,102.356,58.567z"/>
	<path fill-rule="evenodd" clip-rule="evenodd" fill="#B8986E" d="M62.076,65.104c-0.889,0.063-1.061,0.585-1.087,1.401
		c-0.03,0.985-0.275,1.963-0.442,2.941c-0.066,0.385-0.249,0.748-0.654,0.82c-0.485,0.084-0.545-0.412-0.755-0.691
		c-0.423-0.557-0.146-1.558-1.121-1.761c0.309-1.065,0.031-2.077-0.263-3.12c-0.468,1.262-0.498,2.555-0.65,3.827
		c-0.238-0.144-0.479-0.288-0.719-0.433c-0.926-0.201-0.76-0.989-0.627-1.516c0.228-0.904-0.184-1.393-0.758-1.948
		c-0.539-0.523-1.667-0.73-0.781-2.097c0.237-0.365-1.306-2.008-2.177-2.927c-0.604-0.637-0.616,0.565-1.231,0.569
		c0.296-1.081-0.85-1.644-0.896-2.639c0.627-0.475,0.589-1.171,0.32-1.716c-0.858-1.746-0.56-3.579-0.562-5.553
		c1.388,1.504,0.379,4.811,3.646,4.626c0.244-0.569-0.146-1.088-0.247-1.896c0.773,0.678,1.355,1.188,2.047,1.795
		c0.454-1.335-0.901-2.088-0.813-3.402c1.643,1.141,2.148,3.207,3.998,3.813c0.145,0.168,0.286,0.336,0.43,0.504
		c0.046-0.068,0.092-0.137,0.138-0.205c-0.195-0.094-0.388-0.188-0.583-0.282c0.23-1.099-0.56-1.787-1.154-2.445
		c-0.559-0.618-0.816-1.237-0.838-2.02c0.048-0.044,0.095-0.089,0.139-0.138c0.951-0.218,1.798,0.584,2.758,0.283
		c-0.002,0-0.103,0.066-0.103,0.066c0.158,0.576,0.401,0.535,0.701,0.1c0.061,1.8,0.062,1.799,1.593,2.789
		c0.05,0.033,0.021,0.189,0.031,0.334c-0.748-0.176-1.539-0.914-2.179,0.169c1.013,0.751,2.183,1.24,3.045,2.229
		c-0.354,0.113-0.67,0.215-1.413,0.451c2.604,0.51,2.915,2.644,3.999,4.125c-0.079,0.079-0.157,0.158-0.236,0.236
		c-0.601-0.09-1.246-0.372-1.64,0.398c-0.125,0.246-0.136,0.429,0.106,0.647c1.007,0.909,0.997,0.919-0.233,1.501
		c-0.938-0.127-1.189-1.117-1.908-1.521l-0.035-0.046l0.05,0.035C61.012,63.442,61.896,64.128,62.076,65.104z"/>
	<path fill-rule="evenodd" clip-rule="evenodd" fill="#B8986E" d="M40.478,80.612c1.359,0.158,2.775,0.685,3.842-0.787
		c-1.952-0.644-4.031-1.331-6.263-2.068c1.115-0.632,2.282-0.67,3.365-0.573c1.233,0.111,2.16-0.528,3.404-0.889
		c-1.476-0.769-3.018-0.53-4.519-1.097c1.601-1.105,3.675-1.247,5.13-2.9c-1.563-0.355-4.049,1.174-3.778-1.987
		c1.079-0.317,2.161-0.626,3.235-0.958c0.843-0.262,1.593-0.231,2.302,0.716c-0.905,0.29-1.738,0.56-2.572,0.827
		c2.581-0.12,4.601,2.003,7.185,1.754c0.479,0.279,0.513,0.657,0.188,1.061c-0.308,0.383-0.688,0.393-1.155,0.23
		c-0.745-0.262-1.522-0.438-2.286-0.649c-0.128-0.013-0.256-0.024-0.385-0.038c0.063,0.078,0.125,0.156,0.188,0.234
		c0.361,0.761,1.489,0.725,1.734,1.666c-0.949,0.406-1.83-0.527-2.867-0.026c1.893,1.317,4.069,1.667,6.175,2.284
		c-2.568,0.419-5.149,0.589-7.671,1.564c1.403,0,2.806,0,4.207,0c-1.308,0.361-1.307,1.471-1.789,2.293
		c-0.283,0.482-1.061,0.68-0.82,1.496c-0.642,1.297-1.632,0.353-2.432,0.305c-0.54-0.031-1.292-0.492-1.486,0.143
		c-0.62,2.026-1.483,0.813-2.327,0.289c-0.273-0.17-0.634-0.361-0.849-0.088c-0.262,0.332,0.063,0.684,0.225,1.005l0.019-0.02
		c-1.244,0.201-0.726-1.329-1.532-1.562c0.355-1,0.355-1,1.774-0.848c0.284-0.523-0.48-0.842-0.272-1.346L40.478,80.612z"/>
	<path fill-rule="evenodd" clip-rule="evenodd" fill="#B8986E" d="M79.609,82.962c-0.148-0.273-0.296-0.547-0.442-0.818l0,0
		c-0.007-0.125-0.007-0.252,0.004-0.377c0.047-0.022,0.103-0.037,0.139-0.07c0.022-0.021,0.018-0.07,0.025-0.107
		c-0.058,0.057-0.116,0.112-0.173,0.17c-0.288-0.043-0.595-0.04-0.743-0.366c0.062-0.067,0.122-0.136,0.184-0.204
		c-0.074,0.057-0.147,0.111-0.223,0.166c-0.748,0.175-1.465-0.332-1.468-0.814c-0.005-1.072,1.409-0.58,1.855-1.295
		c-0.645-0.215-1.293-0.431-2.103-0.699c2.254-0.255,0.97-2.549,2.197-3.314c0.1-0.11,0.201-0.221,0.303-0.332l-0.034,0.022
		c2.084-0.028,4.232,0.3,6.059-1.122c0.564,0.709,1.107,0.127,1.657-0.026c0.873,0.095,1.76-0.237,2.627,0.077
		c0.016,0.741-0.644,1.063-0.981,1.586c-2.055,0.16-3.994,0.736-6.023,1.561c0.788,0.252,1.359-0.426,1.993-0.026
		c-0.14,0.848-1.307,0.815-1.495,1.751c1.997-0.405,3.008-2.393,4.921-2.737c-0.063,0.563-0.55,1.038-0.354,1.657
		c-1.231-0.035-2.002,0.936-3.01,1.391c-0.087,0.039-0.667,0.283-0.143,0.326c0.47,0.039,0.096,1.059,0.805,0.51
		c1.518-1.174,3.414-1.838,4.611-3.445l-0.035,0.037c0.129-0.15,0.257-0.303,0.388-0.453c0.444-0.296,0.887-0.592,1.787-1.191
		c-0.951,1.587-1.111,2.98-2.157,3.939c-1.074-0.459-2.528,0.517-2.479,1.752c0.071,1.805-1.011,2.289-2.478,2.939
		c-1.38,0.611-3.182-0.692-4.075,1.223C80.21,84.073,80.854,82.88,79.609,82.962z"/>
	<path fill-rule="evenodd" clip-rule="evenodd" fill="#B8986E" d="M35.656,51.464c-0.506-1.216-1.797-2.022-1.973-3.562
		c0.91,0.339,1.27,1.286,2.192,1.28c0.396,0.477,0.697,1.08,1.518,1.184c-0.329-0.703-0.746-1.143-1.381-1.354
		c-0.107-0.288-0.214-0.574-0.372-0.997c1.225,0.224,1.775,1.312,2.821,1.937c0.211-1.096-0.772-1.336-1.023-1.957l-0.016,0.014
		c1.375-0.132,2.453,0.701,3.581,1.234c0.97,0.459-0.455,1.236-0.001,1.938c1-0.279,1.396-1.368,2.561-1.904
		c-0.412,1.044-0.744,1.889-1.082,2.731c-0.465,1.155,0.813,1.585,0.936,2.899c0.477-0.783,0.741-1.216,1.005-1.648
		c-0.784,1.033,1.751,1.21,0.603,2.336c-1.788,0.074-3.463-0.09-4.725-1.64c-0.344-0.422-0.936-0.413-0.905,0.435
		c-0.099,0.084-0.195,0.168-0.292,0.253c-0.751-0.282-0.313-1.962-1.889-1.442c-0.704,0.23-0.368,0.6-0.585,0.909
		C35.786,53.425,35.972,52.347,35.656,51.464z"/>
	<path fill-rule="evenodd" clip-rule="evenodd" fill="#B8986E" d="M72.233,22.857c0.649-2.276,2.298-4.021,3.265-6.138
		c0.44-0.961,1.381-0.782,2.111-0.29c0.826,0.556,1.726,1.048,2.313,1.903c0.345,0.996,1.419,1.573,1.549,2.694
		c-0.192,0.452,0.526,1.21-0.641,1.368c-1.075,0.146-0.066,1.4-0.821,1.9c-1.144-0.136-0.737-2.17-2.035-2.025
		c-1.077,0.121-2.106,0.672-3.342,1.098c0.191-1.71,1.876-2.357,2.145-3.978c-1.547,1.281-2.965,2.455-4.383,3.629
		C72.342,22.964,72.287,22.909,72.233,22.857z"/>
	<path fill-rule="evenodd" clip-rule="evenodd" fill="#B8986E" d="M71.792,13.478c0.598,0.801,1.535,1.059,2.369,1.477
		c0.869,0.437,1.057,0.977,0.43,1.795c-1.217,1.59-2.392,3.211-3.638,4.891c-0.352-0.824,0.047-1.502,0.15-2.203
		c0.086-0.6,0.354-1.323-0.675-1.402c-0.613-0.129-1.244,0.795-1.714,0.201c-0.424-0.535,0.225-1.117,0.523-1.636
		c0.524-0.915-0.03-2.178,1.113-3.005c0.255-0.185,0.971,0.11,0.898-0.546c0-0.001-0.038,0.011-0.038,0.011
		C71.157,13.542,71.537,13.423,71.792,13.478z"/>
	<path fill-rule="evenodd" clip-rule="evenodd" fill="#B8986E" d="M106.135,77.989c-1.021-1.409-2.043-2.818-3.063-4.227
		c1.887,0.856,3.313,2.256,4.9,3.552c-0.217-2.289-2.53-3.185-3.623-5.356c3.588,2.165,7.314,2.594,11.306,2.16
		c-0.878,0.792-0.877,0.813-3.226,1.053c-1.115,0.114-2.239,0.129-3.366,0.386c0.909,0.068,1.818,0.138,3.071,0.231
		c-1.161,0.797-2.033,1.45-3.09,1.827c-0.097,0.034-0.653-0.028-0.147,0.306c0.141,0.094,0.362,0.064,0.548,0.091
		C108.335,78.829,107.235,78.284,106.135,77.989z"/>
	<path fill-rule="evenodd" clip-rule="evenodd" fill="#B8986E" d="M116.606,65.194c-0.198-0.059-0.396-0.117-0.593-0.176
		c-0.078-0.062-0.198-0.191-0.223-0.174c-0.207,0.137-0.056,0.242,0.054,0.345c-0.064,0.5,0.401,0.746,0.771,1.494
		c-1.706-0.712-3.107-1.299-4.569-1.909c-0.297,0.545,0.27,1.512-0.746,1.733c-0.122-0.68-0.245-1.358-0.368-2.037
		c0.567-0.598-0.047-0.54-0.339-0.546c-1.233-0.032-2.467-0.023-3.7-0.031c2.35-0.533,4.843,0,7.134-0.984
		c0.439-0.188,1.138,0.023,1.344-0.484c0.284-0.711-0.86-0.561-0.889-1.171l-0.019,0.016c0.345,0.024,0.688,0.048,1.031,0.071
		c0.611,1.156,1.812,2.103,1.31,3.657C116.737,65.062,116.671,65.128,116.606,65.194z"/>
	<path fill-rule="evenodd" clip-rule="evenodd" fill="#B8986E" d="M20.009,51.445c-0.045-1.95,1.533-3.211,2.092-4.905
		c0.077-0.233,0.303-0.41,0.588-0.329c0.391,0.109,0.327,0.476,0.38,0.763c0.221,1.207-0.461,2.485,0.286,3.652
		c-0.175,0.992-0.887,0.664-1.467,0.567c-0.415-0.069-0.98-0.428-1.11,0.183C20.54,52.509,20.227,51.142,20.009,51.445z"/>
	<path fill-rule="evenodd" clip-rule="evenodd" fill="#B8986E" d="M69.993,62.022c-0.811-1.678-1.914-3.641-0.038-4.976
		c1.126-0.804,1.952-1.913,3.138-2.595c0.625,0.73-0.571,1.193-0.272,1.892c0.402-0.04,0.427-0.784,0.979-0.538
		c0.064,0.549,0.128,1.1,0.192,1.649c0.073-0.007,0.146-0.015,0.218-0.021c0.133-1.502,0.267-3.006,0.4-4.508
		c0.45-0.271,0.431-0.705,0.629-1.347c-0.611,0.507-0.666,0.914-0.618,1.355c-0.808,0.198-0.381,1.642-1.518,1.507
		c-0.254-0.726,0.521-1.373,0.16-2.106c-0.123-0.119-0.247-0.236-0.371-0.354c0.065-0.201,0.132-0.402,0.197-0.604l-0.023,0.046
		c0.219-0.212,0.584-0.351,0.375-0.769c0.171-0.553,0.862-0.834,0.789-1.514l0.01-0.01c0.438,0.236,1.54-1.209,1.422,0.624
		c-0.031,0.528,0.704,0.688,0.973-0.083c0.348-0.994,1.041-1.85,1.187-2.956c0.349,2.144-1.068,4.214-0.252,6.656
		c1.475-1.745,1.616-3.675,2.235-5.556c0.86,1.258,0.217,3.076,1.623,4.006c-0.635,0.434-0.228,1.707-0.995,1.734
		c-1.023,0.035-0.146-1.55-1.303-1.836c0.651,1.555-0.712,2.922-0.354,4.348c0.398,1.584,0.131,3.018-0.556,4.322
		c-0.357,0.682-1.132,1.172-1.246,2.052c-0.684,0.147-1.463,0.798-1.986-0.772c0,1.264,0,2.115,0,3.399
		c-0.313-0.688-0.448-0.987-0.583-1.286c-0.873,0.324-0.183,1.539-1.261,1.854c0.245-1.38,0.478-2.682,0.709-3.983
		c0.096-0.203,0.192-0.405,0.281-0.611c0-0.006-0.127-0.063-0.193-0.096c-0.027,0.236-0.058,0.474-0.085,0.709
		c-0.966,0.793-1.417,1.856-1.553,3.318c-0.67-0.732-1.364-1.229-1.082-2.119C71.788,61.062,70.671,61.897,69.993,62.022z
		 M75.444,60.495c0.051-0.006,0.103-0.012,0.153-0.016c0-0.586,0-1.17,0-1.756c-0.051,0.001-0.103,0.003-0.153,0.004
		C75.444,59.317,75.444,59.905,75.444,60.495z"/>
	<path fill-rule="evenodd" clip-rule="evenodd" fill="#B8986E" d="M72.364,50.277c-1.034,0.226-1.965,1.338-3.311,0.263
		c1.147-0.72,0.968-1.75,0.664-2.799c-1.301,1.248-1.667-3.029-3.103-0.285c-0.66-2.24-0.716-4.275-0.66-6.322
		c0.344-0.181,0.651-0.406,0.671-0.834c0.064-1.353,1.507-1.224,1.743-0.906c1.325,1.789,3.187,0.714,4.791,1.109
		c-0.475,0.691-1.2,0.576-1.824,0.785c-0.44,0.148-2.115-0.09-0.95,1.395c0.265,0.338-0.166,0.651-0.526,0.838
		c-0.601,0.312-1.305,0.512-1.583,1.387c1.667,0.007,2.964-1.338,4.922-1.166c-1.089,1.426-2.046,2.676-3.177,4.156
		c1.713-0.354,2.328-1.93,3.65-2.371c0.102,0.104,0.202,0.206,0.304,0.308c-0.742,1.153-1.486,2.307-2.241,3.478
		c0.837,0.505,1.05-0.42,1.52-0.675c0.677-0.367,1.062-0.492,0.985,0.495l-0.01,0.01c-0.348,0.259-0.694,0.518-1.044,0.776
		c-0.287,0.126-0.574,0.255-0.861,0.381L72.364,50.277z"/>
</g>
</svg>
