<?xml version="1.0" encoding="UTF-8" standalone="no"?>
<!-- Generator: Adobe Illustrator 16.0.0, SVG Export Plug-In . SVG Version: 6.00 Build 0)  -->

<svg
   version="1.1"
   id="_x35_0m"
   x="0px"
   y="0px"
   width="144px"
   height="144px"
   viewBox="0 0 144 144"
   enable-background="new 0 0 144 144"
   xml:space="preserve"
   sodipodi:docname="truck.svg"
   inkscape:version="1.2.1 (9c6d41e410, 2022-07-14)"
   xmlns:inkscape="http://www.inkscape.org/namespaces/inkscape"
   xmlns:sodipodi="http://sodipodi.sourceforge.net/DTD/sodipodi-0.dtd"
   xmlns="http://www.w3.org/2000/svg"
   xmlns:svg="http://www.w3.org/2000/svg"><defs
   id="defs15" /><sodipodi:namedview
   id="namedview13"
   pagecolor="#ffffff"
   bordercolor="#000000"
   borderopacity="0.25"
   inkscape:showpageshadow="2"
   inkscape:pageopacity="0.0"
   inkscape:pagecheckerboard="true"
   inkscape:deskcolor="#d1d1d1"
   showgrid="false"
   inkscape:zoom="5.4722222"
   inkscape:cx="51.807107"
   inkscape:cy="42.304569"
   inkscape:window-width="1920"
   inkscape:window-height="986"
   inkscape:window-x="-11"
   inkscape:window-y="-11"
   inkscape:window-maximized="1"
   inkscape:current-layer="_x35_0m" />
<rect
   style="fill:#ffffff;stroke:#000000;stroke-width:0"
   id="rect303"
   width="71.086296"
   height="27.959391"
   x="36.730965"
   y="33.258884" /><rect
   style="fill:#ffffff;stroke:#000000;stroke-width:0"
   id="rect305"
   width="62.862946"
   height="46.964466"
   x="41.116753"
   y="66.335022" /><rect
   style="fill:#ffffff;stroke:#000000;stroke-width:0"
   id="rect307"
   width="14.436548"
   height="10.050761"
   x="105.25888"
   y="103.79695" /><rect
   style="fill:#ffffff;stroke:#000000;stroke-width:0"
   id="rect309"
   width="15.350254"
   height="11.329949"
   x="24.121828"
   y="102.70051" /><g
   id="g10">
	<g
   id="g6">
		<path
   fill="#020202"
   d="M121.461,30.7c-1.286-1.345-3.076-2.176-5.031-2.176h-5.193V0h-5.628v28.513h-2.656V8.038H41.025v20.475    h-2.645V0h-5.627v28.513H27.56c-1.966,0-3.744,0.83-5.031,2.176s-2.095,3.206-2.095,5.254v7.241v6.764v6.446    c0,1.029,0.808,1.86,1.79,1.86h6.166c0.982,0,1.79-0.843,1.79-1.86v-13.21c0-1.029-0.808-1.859-1.79-1.859h-4.797v-5.37    c0-1.136,0.444-2.165,1.17-2.914c0.714-0.748,1.708-1.216,2.797-1.216h5.194v48.261h-2.609c-4.656,0-8.459,3.967-8.459,8.81    v34.305h11.068h5.85h66.794h5.85h11.068V88.895c0-4.843-3.803-8.81-8.46-8.81h-2.608V31.824h5.194    c1.089,0,2.083,0.468,2.797,1.216c0.713,0.749,1.17,1.778,1.17,2.914v5.37h-4.797c-0.982,0-1.79,0.842-1.79,1.859v13.21    c0,1.029,0.808,1.86,1.79,1.86h6.166c0.982,0,1.79-0.843,1.79-1.86v-6.446v-6.764v-7.241    C123.555,33.906,122.748,32.046,121.461,30.7z M38.592,111.124c0,0.457-0.362,0.831-0.795,0.831h-5.055h-5.628    c-0.444,0-0.796-0.374-0.796-0.831v-4.715c0-0.456,0.363-0.831,0.796-0.831h5.628h5.055c0.444,0,0.795,0.375,0.795,0.831V111.124z     M49.684,111.124h-4.996V76.143c0-3.416,2.083-6.354,4.996-7.477V111.124z M59.593,111.124h-4.961V68.151h4.961V111.124z     M69.503,111.124h-4.961V68.151h4.961V111.124z M79.424,111.124h-4.96V68.151h4.96V111.124z M89.334,111.124h-4.961V68.151h4.961    V111.124z M99.29,111.124h-4.995v-42.47c2.913,1.135,4.995,4.072,4.995,7.476V111.124z M102.952,58.265H97.16v-3.627    c0-2.023-1.392-3.709-3.275-4.188c0.972-0.971,1.58-2.316,1.58-3.802c0-2.972-2.411-5.382-5.383-5.382s-5.382,2.41-5.382,5.382    c0,1.603,0.714,3.03,1.838,4.013c-1.533,0.667-2.61,2.188-2.61,3.978v3.627h-9.452V39.732h-4.961v18.532H41.025V36.563h61.927    V58.265L102.952,58.265z M116.851,105.578c0.445,0,0.797,0.375,0.797,0.831v4.715c0,0.457-0.363,0.831-0.797,0.831h-10.669    c-0.444,0-0.797-0.374-0.797-0.831v-4.715c0-0.456,0.364-0.831,0.797-0.831H116.851z"
   id="path2" />
		<path
   fill="#020202"
   d="M21.674,130.956c0,1.836,1.439,3.334,3.206,3.334h1.438v5.639c0,2.235,1.756,4.071,3.908,4.071h6.704    c2.152,0,3.907-1.836,3.907-4.071v-5.639h62.301v5.639c0,2.235,1.756,4.071,3.908,4.071h6.704c2.152,0,3.908-1.836,3.908-4.071    v-5.639h1.438c1.767,0,3.206-1.498,3.206-3.334v-5.547H21.686v5.547H21.674z"
   id="path4" />
	</g>
	<rect
   x="41.025"
   y="8.038"
   fill="#AEAEAE"
   width="61.927"
   height="20.475"
   id="rect8" />
</g>
</svg>
