<?xml version="1.0" encoding="UTF-8" standalone="no"?>
<!-- Generator: Adobe Illustrator 16.0.0, SVG Export Plug-In . SVG Version: 6.00 Build 0)  -->

<svg
   version="1.1"
   id="Layer_1"
   x="0px"
   y="0px"
   width="144px"
   height="144px"
   viewBox="0 0 144 144"
   enable-background="new 0 0 144 144"
   xml:space="preserve"
   sodipodi:docname="truck.svg"
   inkscape:version="1.2.1 (9c6d41e410, 2022-07-14)"
   xmlns:inkscape="http://www.inkscape.org/namespaces/inkscape"
   xmlns:sodipodi="http://sodipodi.sourceforge.net/DTD/sodipodi-0.dtd"
   xmlns="http://www.w3.org/2000/svg"
   xmlns:svg="http://www.w3.org/2000/svg"><defs
   id="defs19" /><sodipodi:namedview
   id="namedview17"
   pagecolor="#ffffff"
   bordercolor="#000000"
   borderopacity="0.25"
   inkscape:showpageshadow="2"
   inkscape:pageopacity="0.0"
   inkscape:pagecheckerboard="0"
   inkscape:deskcolor="#d1d1d1"
   showgrid="false"
   inkscape:zoom="5.4722222"
   inkscape:cx="55.461929"
   inkscape:cy="72"
   inkscape:window-width="1920"
   inkscape:window-height="986"
   inkscape:window-x="-11"
   inkscape:window-y="-11"
   inkscape:window-maximized="1"
   inkscape:current-layer="Layer_1" />
<path
   fill="#ffffff"
   d="m 71.085795,8.144929 c -36.015,0 -65.3170005,29.302 -65.3170005,65.317 0,36.015001 29.3020005,65.317001 65.3170005,65.317001 36.015995,0 65.317995,-29.303 65.317995,-65.317001 0,-36.014 -29.302,-65.317 -65.317995,-65.317 z"
   id="path255" /><g
   id="g12">
	<circle
   cx="45.927"
   cy="94.915"
   r="8.211"
   id="circle2" />
	<circle
   cx="94.466"
   cy="94.915"
   r="8.21"
   id="circle4" />
	<rect
   x="57.565"
   y="40.875"
   width="58.644"
   height="5.414"
   id="rect6" />
	<rect
   x="73.425"
   y="50.619"
   width="42.784"
   height="23.535"
   id="rect8" />
	<path
   d="M114.946,78.225H68.572V48.812H37.716c-9.562,6.135-9.923,25.342-9.923,25.342v16.881h7.758c0,0,1.624-8.48,10.376-8.48   c8.75,0,11.277,8.48,11.277,8.48h26.525c0,0,0.542-8.12,10.738-8.12c10.194,0,11.639,8.12,11.639,8.12h4.148   C115.487,90.313,114.946,78.225,114.946,78.225z M52.061,68.121H31.222c0-9.291,7.443-16.059,7.443-16.059h13.396V68.121z    M66.948,68.121H56.121V52.063h10.827V68.121z"
   id="path10" />
</g>
<path
   fill="#010101"
   d="M72,0C32.236,0,0,32.236,0,72s32.236,72,72,72c39.765,0,72-32.236,72-72S111.766,0,72,0z M72,132.501  c-33.414,0-60.5-27.087-60.5-60.5S38.587,11.5,72,11.5s60.5,27.087,60.5,60.5S105.414,132.501,72,132.501z"
   id="path14" />
</svg>
