<?xml version="1.0" encoding="UTF-8" standalone="no"?>
<!-- Generator: Adobe Illustrator 16.0.0, SVG Export Plug-In . SVG Version: 6.00 Build 0)  -->

<svg
   version="1.1"
   id="_x35_0m"
   x="0px"
   y="0px"
   width="144px"
   height="144px"
   viewBox="0 0 144 144"
   enable-background="new 0 0 144 144"
   xml:space="preserve"
   sodipodi:docname="truck_2.svg"
   inkscape:version="1.2.1 (9c6d41e410, 2022-07-14)"
   xmlns:inkscape="http://www.inkscape.org/namespaces/inkscape"
   xmlns:sodipodi="http://sodipodi.sourceforge.net/DTD/sodipodi-0.dtd"
   xmlns="http://www.w3.org/2000/svg"
   xmlns:svg="http://www.w3.org/2000/svg"><defs
   id="defs17" /><sodipodi:namedview
   id="namedview15"
   pagecolor="#ffffff"
   bordercolor="#000000"
   borderopacity="0.25"
   inkscape:showpageshadow="2"
   inkscape:pageopacity="0.0"
   inkscape:pagecheckerboard="0"
   inkscape:deskcolor="#d1d1d1"
   showgrid="false"
   inkscape:zoom="5.4722222"
   inkscape:cx="51.807107"
   inkscape:cy="71.543147"
   inkscape:window-width="1920"
   inkscape:window-height="986"
   inkscape:window-x="-11"
   inkscape:window-y="-11"
   inkscape:window-maximized="1"
   inkscape:current-layer="g12" />
<g
   id="g12">
	<rect
   style="fill:#ffffff;stroke:#000000;stroke-width:0"
   id="rect251"
   width="25.035534"
   height="20.101522"
   x="101.7868"
   y="41.847717" /><rect
   style="fill:#ffffff;stroke:#000000;stroke-width:0"
   id="rect253"
   width="0.54822338"
   height="14.436548"
   x="125.72589"
   y="47.147209" /><rect
   style="fill:#ffffff;stroke:#000000;stroke-width:0"
   id="rect255"
   width="14.253807"
   height="8.771574"
   x="122.25381"
   y="53.90863" /><rect
   style="fill:#ffffff;stroke:#000000;stroke-width:0"
   id="rect257"
   width="5.6649747"
   height="8.9543152"
   x="124.99493"
   y="46.050762" /><rect
   style="fill:#ffffff;stroke:#000000;stroke-width:0"
   id="rect259"
   width="2.9238579"
   height="2.5583756"
   x="129.38071"
   y="52.263958" /><path
   fill="#070808"
   d="M141.451,61.004l-12.446-17.577c-1.302-1.835-3.402-2.923-5.643-2.923h-22.067   c-1.27,0-2.304,1.035-2.304,2.304v42.386c0,1.271,1.034,2.305,2.304,2.305h4.725c1.686-5.482,6.806-9.482,12.842-9.482   c6.037,0,11.146,4,12.842,9.482h9.993c1.271,0,2.304-1.034,2.304-2.305V68.992C143.99,66.134,143.105,63.34,141.451,61.004z    M134.572,60.012c-0.245,0.448-0.704,0.726-1.216,0.726H106.19c-1.27,0-2.304-1.034-2.304-2.304V46.327   c0-1.269,1.034-2.304,2.304-2.304h16.148c1.535,0,2.976,0.769,3.839,2.048l8.341,12.512   C134.785,59.01,134.818,59.554,134.572,60.012z M143.265,84.031h-5.599c-0.672,0-1.206-0.64-1.206-1.43   c0-2.037,1.387-3.689,3.104-3.689h3.7V84.031z"
   id="path2" />
	<path
   fill="#AEAEAE"
   d="M118.861,79.393c-6.646,0-12.053,5.406-12.053,12.052c0,6.645,5.407,12.052,12.053,12.052   c6.645,0,12.053-5.407,12.053-12.052C130.914,84.799,125.506,79.393,118.861,79.393z M118.861,98.611   c-3.957,0-7.168-3.209-7.168-7.167c0-3.957,3.211-7.167,7.168-7.167s7.168,3.21,7.168,7.167   C126.029,95.402,122.808,98.611,118.861,98.611z"
   id="path4" />
	<path
   fill="#070808"
   d="M4.821,76.715v6.175c0,2.55,2.059,4.608,4.607,4.608h1.035c1.685-5.482,6.805-9.482,12.842-9.482   c6.036,0,11.146,4,12.842,9.482H95.95V76.715H4.821z"
   id="path6" />
	<path
   fill="#AEAEAE"
   d="M23.306,79.393c-6.646,0-12.053,5.406-12.053,12.052c0,6.645,5.407,12.052,12.053,12.052   c6.645,0,12.053-5.407,12.053-12.052C35.358,84.799,29.95,79.393,23.306,79.393z M23.306,98.611c-3.957,0-7.168-3.209-7.168-7.167   c0-3.957,3.211-7.167,7.168-7.167s7.167,3.21,7.167,7.167C30.473,95.402,27.252,98.611,23.306,98.611z"
   id="path8" />
	<rect
   y="60.737"
   fill="#AEAEAE"
   width="95.94"
   height="13.098"
   id="rect10" />
</g>
</svg>
