<?xml version="1.0" encoding="utf-8"?>
<!-- Generator: Adobe Illustrator 16.0.0, SVG Export Plug-In . SVG Version: 6.00 Build 0)  -->
<!DOCTYPE svg PUBLIC "-//W3C//DTD SVG 1.1//EN" "http://www.w3.org/Graphics/SVG/1.1/DTD/svg11.dtd">
<svg version="1.1" id="_x35_0m" xmlns="http://www.w3.org/2000/svg" xmlns:xlink="http://www.w3.org/1999/xlink" x="0px" y="0px"
	 width="144px" height="144px" viewBox="0 0 144 144" enable-background="new 0 0 144 144" xml:space="preserve">
<g>
	<path fill="#010101" d="M48.01,13.367v7.876H34.701v36.578h-9.35V21.243H11.996v-7.876H48.01z"/>
	<path fill="#010101" d="M69.564,51.397c2.188,0,3.971-0.242,5.342-0.726c2.59-0.921,3.891-2.648,3.891-5.158
		c0-1.463-0.643-2.602-1.934-3.408c-1.289-0.783-3.305-1.474-6.068-2.084l-4.707-1.059c-4.629-1.048-7.818-2.177-9.592-3.408
		c-2.994-2.05-4.49-5.262-4.49-9.626c0-3.983,1.451-7.288,4.34-9.925c2.891-2.637,7.15-3.949,12.758-3.949
		c4.686,0,8.682,1.244,11.986,3.719c3.303,2.487,5.041,6.091,5.203,10.812h-8.922c-0.162-2.671-1.324-4.571-3.502-5.699
		c-1.449-0.749-3.246-1.116-5.398-1.116c-2.396,0-4.307,0.483-5.734,1.451c-1.428,0.966-2.141,2.313-2.141,4.04
		c0,1.589,0.701,2.774,2.105,3.558c0.91,0.519,2.834,1.141,5.793,1.843l7.656,1.843c3.361,0.805,5.895,1.876,7.598,3.224
		c2.648,2.095,3.984,5.112,3.984,9.072c0,4.064-1.555,7.438-4.664,10.121c-3.107,2.682-7.494,4.028-13.158,4.028
		c-5.793,0-10.34-1.323-13.668-3.96c-3.316-2.648-4.975-6.274-4.975-10.903h8.867c0.275,2.026,0.828,3.546,1.658,4.56
		C63.324,50.487,65.914,51.397,69.564,51.397z"/>
	<path fill="#010101" d="M113.775,57.821H94.629V13.367h19.146c2.752,0.047,5.043,0.357,6.875,0.968
		c3.119,1.024,5.641,2.901,7.564,5.642c1.543,2.21,2.602,4.605,3.166,7.173c0.564,2.579,0.84,5.031,0.84,7.357
		c0,5.906-1.186,10.915-3.557,15.014C125.463,55.059,120.5,57.821,113.775,57.821z M120.684,24.709
		c-1.428-2.418-4.248-3.615-8.473-3.615h-8.566v29.014h8.566c4.387,0,7.438-2.165,9.164-6.481c0.943-2.372,1.416-5.193,1.416-8.475
		C122.803,30.627,122.088,27.149,120.684,24.709z"/>
	<path fill="#010101" d="M36.002,87.492v7.875H22.703v36.578h-9.348V95.356H0V87.48h36.002V87.492z"/>
	<path fill="#010101" d="M40.711,87.492h9.234v44.453h-9.234V87.492z"/>
	<path fill="#010101" d="M67.1,131.934h-8.658V87.492h13.506l8.082,34.954l8.025-34.954h13.355v44.453h-8.658v-30.073
		c0-0.863,0.012-2.072,0.035-3.639c0.023-1.554,0.035-2.763,0.035-3.603l-8.418,37.303h-9.014l-8.359-37.303
		c0,0.84,0.012,2.049,0.033,3.603c0.023,1.556,0.035,2.775,0.035,3.639V131.934L67.1,131.934z"/>
	<path fill="#010101" d="M140.982,112.522h-21.588v11.434H144v7.989h-33.689V87.492h32.596v7.875h-23.512v9.441h21.588V112.522z"/>
</g>
</svg>
