<?xml version="1.0" encoding="utf-8"?>
<!-- Generator: Adobe Illustrator 16.0.0, SVG Export Plug-In . SVG Version: 6.00 Build 0)  -->
<!DOCTYPE svg PUBLIC "-//W3C//DTD SVG 1.1//EN" "http://www.w3.org/Graphics/SVG/1.1/DTD/svg11.dtd">
<svg version="1.1" id="_x35_0m" xmlns="http://www.w3.org/2000/svg" xmlns:xlink="http://www.w3.org/1999/xlink" x="0px" y="0px"
	 width="144px" height="144px" viewBox="0 0 144 144" enable-background="new 0 0 144 144" xml:space="preserve">
<g>
	<path fill="#AEAEAE" d="M99.843,51.218H5.29c-7.053,0-7.053,32.338,0,32.338h94.553C106.895,83.556,106.895,51.218,99.843,51.218z"
		/>
	<path fill="#010101" d="M64.271,90.266c-0.65,0-1.17-0.53-1.17-1.169v-3.588c0-0.651,0.53-1.17,1.17-1.17h45.428V63.425
		c0.011-0.895,0.729-1.623,1.623-1.623h12.989c1.061,0,1.711,0.231,2.087,1.357l2.781,8.443c3.19,0.706,13.023,3.322,13.023,6.965
		v5.771h0.629c0.641,0,1.169,0.529,1.169,1.17v3.588c0,0.65-0.528,1.169-1.169,1.169H64.271z"/>
	<path fill="#FFFFFF" d="M122.06,64.914h-8.078c-0.641,0-1.171,0.529-1.171,1.17v8.642c0,0.641,0.53,1.171,1.171,1.171h7.504
		c0.607,0,1.402-0.476,1.811-1.071l2.362-3.896l-1.534-4.657C123.771,65.146,123.119,64.914,122.06,64.914z"/>
	<path fill="#010101" d="M7.607,90.266c-0.64,0-1.169-0.53-1.169-1.169v-3.588c0-0.651,0.529-1.17,1.169-1.17h33.266
		c0.651,0,1.169,0.529,1.169,1.17v3.588c0,0.65-0.529,1.169-1.169,1.169H7.607z"/>
	<path fill="#FFFFFF" d="M15.345,80.995c4.227,0,7.648,3.421,7.648,7.647c0,4.228-3.422,7.649-7.648,7.649
		c-4.228,0-7.648-3.422-7.648-7.649C7.686,84.427,11.117,80.995,15.345,80.995z"/>
	<path fill="#AEAEAE" d="M15.345,82.054c3.642,0,6.6,2.958,6.6,6.6c0,3.643-2.958,6.601-6.6,6.601c-3.643,0-6.601-2.958-6.601-6.601
		C8.744,85.012,11.691,82.054,15.345,82.054z"/>
	<path fill="#FFFFFF" d="M15.345,85.276c1.865,0,3.377,1.513,3.377,3.377c0,1.866-1.512,3.378-3.377,3.378s-3.378-1.512-3.378-3.378
		C11.967,86.789,13.479,85.276,15.345,85.276z"/>
	<path fill="#FFFFFF" d="M33.136,80.995c4.228,0,7.649,3.421,7.649,7.647c0,4.228-3.422,7.649-7.649,7.649
		c-4.227,0-7.648-3.422-7.648-7.649C25.487,84.427,28.92,80.995,33.136,80.995z"/>
	<path fill="#AEAEAE" d="M33.147,82.054c3.642,0,6.6,2.958,6.6,6.6c0,3.643-2.958,6.601-6.6,6.601c-3.643,0-6.601-2.958-6.601-6.601
		C26.547,85.012,29.494,82.054,33.147,82.054z"/>
	<path fill="#FFFFFF" d="M33.147,85.276c1.864,0,3.377,1.513,3.377,3.377c0,1.866-1.513,3.378-3.377,3.378
		c-1.865,0-3.378-1.512-3.378-3.378C29.77,86.789,31.282,85.276,33.147,85.276z"/>
	<g>
		<path fill="#010101" d="M24.925,50.434v-1.557c0-0.639,0.529-1.169,1.17-1.169h10.419c0.65,0,1.169,0.53,1.169,1.169v1.557H24.925
			z"/>
		<path fill="#010101" d="M67.538,50.434v-1.557c0-0.639,0.53-1.169,1.169-1.169h10.419c0.641,0,1.171,0.53,1.171,1.169v1.557
			H67.538z"/>
	</g>
	<path fill="#FFFFFF" d="M89.799,80.995c4.228,0,7.648,3.421,7.648,7.647c0,4.228-3.421,7.649-7.648,7.649s-7.648-3.422-7.648-7.649
		C82.15,84.427,85.583,80.995,89.799,80.995z"/>
	<path fill="#AEAEAE" d="M89.799,82.054c3.642,0,6.6,2.958,6.6,6.6c0,3.643-2.958,6.601-6.6,6.601s-6.601-2.958-6.601-6.601
		C83.198,85.012,86.157,82.054,89.799,82.054z"/>
	<path fill="#FFFFFF" d="M89.799,85.276c1.866,0,3.378,1.513,3.378,3.377c0,1.866-1.512,3.378-3.378,3.378
		c-1.865,0-3.377-1.512-3.377-3.378C86.422,86.789,87.944,85.276,89.799,85.276z"/>
	<path fill="#FFFFFF" d="M71.996,80.995c4.228,0,7.649,3.421,7.649,7.647c0,4.228-3.422,7.649-7.649,7.649
		c-4.227,0-7.648-3.422-7.648-7.649C64.348,84.427,67.78,80.995,71.996,80.995z"/>
	<path fill="#AEAEAE" d="M71.996,82.054c3.644,0,6.601,2.958,6.601,6.6c0,3.643-2.957,6.601-6.601,6.601
		c-3.642,0-6.6-2.958-6.6-6.601C65.396,85.012,68.354,82.054,71.996,82.054z"/>
	<path fill="#FFFFFF" d="M71.996,85.276c1.866,0,3.378,1.513,3.378,3.377c0,1.866-1.512,3.378-3.378,3.378
		c-1.865,0-3.377-1.512-3.377-3.378C68.619,86.789,70.143,85.276,71.996,85.276z"/>
	<path fill="#FFFFFF" d="M131.342,80.995c4.227,0,7.648,3.421,7.648,7.647c0,4.228-3.422,7.649-7.648,7.649
		c-4.228,0-7.648-3.422-7.648-7.649C123.693,84.427,127.114,80.995,131.342,80.995z"/>
	<path fill="#AEAEAE" d="M131.342,82.054c3.642,0,6.6,2.958,6.6,6.6c0,3.643-2.958,6.601-6.6,6.601
		c-3.643,0-6.601-2.958-6.601-6.601C124.741,85.012,127.699,82.054,131.342,82.054z"/>
	<path fill="#FFFFFF" d="M131.342,85.276c1.865,0,3.377,1.513,3.377,3.377c0,1.866-1.513,3.378-3.377,3.378
		c-1.865,0-3.378-1.512-3.378-3.378C127.964,86.789,129.477,85.276,131.342,85.276z"/>
</g>
</svg>
