<?xml version="1.0" encoding="utf-8"?>
<!-- Generator: Adobe Illustrator 16.0.0, SVG Export Plug-In . SVG Version: 6.00 Build 0)  -->
<!DOCTYPE svg PUBLIC "-//W3C//DTD SVG 1.1//EN" "http://www.w3.org/Graphics/SVG/1.1/DTD/svg11.dtd">
<svg version="1.1" id="_x35_0m" xmlns="http://www.w3.org/2000/svg" xmlns:xlink="http://www.w3.org/1999/xlink" x="0px" y="0px"
	 width="144px" height="144px" viewBox="0 0 144 144" enable-background="new 0 0 144 144" xml:space="preserve">
<g>
	<g>
		<g>
			<g>
				<g>
					<g>
						<path fill="#FFFFFF" d="M4.582,100.547c-2.389,0-4.338-1.925-4.338-4.289V47.754c0-2.364,1.949-4.29,4.338-4.29h134.836
							c2.389,0,4.339,1.926,4.339,4.29v48.492c0,2.364-1.95,4.289-4.339,4.289H4.582V100.547z"/>
					</g>
				</g>
				<g>
					<g>
						<g>
							<path fill="#878787" d="M139.418,43.708c2.267,0,4.106,1.816,4.106,4.058v48.492c0,2.242-1.84,4.059-4.106,4.059H4.582
								c-2.267,0-4.106-1.816-4.106-4.059V47.754c0-2.242,1.84-4.058,4.106-4.058h134.836V43.708z M139.418,43.221H4.582
								C2.06,43.221,0,45.256,0,47.754v48.492c0,2.498,2.047,4.533,4.582,4.533h134.836c2.522,0,4.582-2.035,4.582-4.533V47.754
								C144,45.256,141.94,43.221,139.418,43.221L139.418,43.221z"/>
						</g>
					</g>
				</g>
			</g>
		</g>
	</g>
	<g>
		<g>
			<g>
				<path fill="#010101" d="M51.904,88.129h-5.302l-5.983-19.742l-5.984,19.742h-5.301l-8.677-32.526h6.63l5.033,20.522
					l5.936-20.522h4.752l5.935,20.522l5.069-20.522h6.631L51.904,88.129z"/>
			</g>
		</g>
		<g>
			<g>
				<path fill="#010101" d="M67.991,78.075c0,3.059,1.876,5.302,5.204,5.302c2.607,0,3.887-0.731,5.398-2.243l3.607,3.522
					c-2.426,2.424-4.754,3.741-9.055,3.741c-5.618,0-11.018-2.561-11.018-12.199c0-7.775,4.205-12.15,10.371-12.15
					c6.63,0,10.371,4.838,10.371,11.383v2.645H67.991z M76.485,71.458c-0.634-1.414-1.963-2.462-3.974-2.462
					s-3.339,1.048-3.973,2.462c-0.365,0.865-0.499,1.511-0.548,2.559h9.043C76.984,72.969,76.851,72.323,76.485,71.458z"/>
			</g>
		</g>
		<g>
			<g>
				<path fill="#010101" d="M96.861,88.409c-3.741,0-7.13-0.415-10.14-3.425l3.888-3.887c1.963,1.962,4.521,2.241,6.35,2.241
					c2.06,0,4.204-0.682,4.204-2.474c0-1.193-0.634-2.011-2.51-2.193l-3.741-0.365c-4.291-0.415-6.947-2.292-6.947-6.666
					c0-4.937,4.339-7.581,9.188-7.581c3.693,0,6.801,0.634,9.092,2.791l-3.656,3.705c-1.364-1.231-3.473-1.597-5.532-1.597
					c-2.377,0-3.376,1.098-3.376,2.279c0,0.865,0.365,1.877,2.462,2.06l3.754,0.365c4.703,0.463,7.08,2.974,7.08,6.995
					C106.951,85.899,102.48,88.409,96.861,88.409z"/>
			</g>
		</g>
		<g>
			<g>
				<path fill="#010101" d="M120.113,88.129c-4.838,0-6.896-3.425-6.896-6.801V69.532h-2.511v-4.521h2.511v-7.032h5.935v7.032h4.204
					v4.521h-4.204v11.431c0,1.365,0.634,2.146,2.06,2.146h2.145v5.021H120.113z"/>
			</g>
		</g>
	</g>
</g>
</svg>
