<?xml version="1.0" encoding="utf-8"?>
<!-- Generator: Adobe Illustrator 16.0.0, SVG Export Plug-In . SVG Version: 6.00 Build 0)  -->
<!DOCTYPE svg PUBLIC "-//W3C//DTD SVG 1.1//EN" "http://www.w3.org/Graphics/SVG/1.1/DTD/svg11.dtd">
<svg version="1.1" id="_x35_0m" xmlns="http://www.w3.org/2000/svg" xmlns:xlink="http://www.w3.org/1999/xlink" x="0px" y="0px"
	 width="144px" height="144px" viewBox="0 0 144 144" enable-background="new 0 0 144 144" xml:space="preserve">
<g>
	<path fill="#AEAEAE" d="M54.79,43.923l8.128-8.127l1.408-6.51C57.274,22.245,42.77,7.74,35.717,0.677L23.63,12.764L54.79,43.923z"
		/>
	<polygon fill="#AEAEAE" points="36.382,96.762 67.553,65.603 59.425,57.474 52.916,56.065 24.307,84.675 	"/>
	<path fill="#AEAEAE" d="M89.221,52.839l-8.128,8.128l-1.408,6.509l28.609,28.61l12.075-12.077
		C120.248,83.876,89.388,52.994,89.221,52.839z"/>
	<polygon fill="#AEAEAE" points="84.586,39.288 91.106,40.696 119.716,12.088 107.628,0 76.468,31.16 	"/>
	<g>
		<path fill="#070808" d="M90.33,133.045v-26.17H53.681v26.17h13.928v-11.622c0-2.428,1.974-4.402,4.402-4.402
			s4.402,1.975,4.402,4.402v11.622H90.33z"/>
		<path fill="#070808" d="M93.357,136.327c-10.524,0-35.396,0-42.704,0c-2.717,0-4.935,2.218-4.935,4.935V144h52.573v-2.738
			C98.292,138.545,96.084,136.327,93.357,136.327z"/>
		<path fill="#070808" d="M93.335,103.593l-2.884-7.286c-0.167-0.421-0.111,0.544-0.111-13.551L76.735,69.173
			c-0.399-0.399-0.565-0.965-0.443-1.508c0.587-2.751,0.954-4.559,1.22-5.8L90.84,48.536l-3.26-3.26v-1.963
			c-1.064-0.233-1.862-0.389-2.484-0.521l-12.94-12.963l-3.061,3.061l-2.196,0.033c-0.266,1.209-0.433,2.074-0.565,2.717
			L53.459,48.525l2.972,2.972v1.963c1.064,0.232,1.863,0.389,2.484,0.521l12.386,12.387c-0.743,1.043-3.959,4.08-17.609,17.731
			v11.599c0,0.443,0.133-0.033-3.005,7.896C63.051,103.593,80.971,103.593,93.335,103.593z M72.011,80.062
			c2.429,0,4.402,1.974,4.402,4.402s-1.974,4.403-4.402,4.403s-4.402-1.975-4.402-4.403S69.583,80.062,72.011,80.062z"/>
	</g>
</g>
</svg>
