<?xml version="1.0" encoding="utf-8"?>
<!-- Generator: Adobe Illustrator 16.0.0, SVG Export Plug-In . SVG Version: 6.00 Build 0)  -->
<!DOCTYPE svg PUBLIC "-//W3C//DTD SVG 1.1//EN" "http://www.w3.org/Graphics/SVG/1.1/DTD/svg11.dtd">
<svg version="1.1" id="_x35_0m" xmlns="http://www.w3.org/2000/svg" xmlns:xlink="http://www.w3.org/1999/xlink" x="0px" y="0px"
	 width="144px" height="144px" viewBox="0 0 144 144" enable-background="new 0 0 144 144" xml:space="preserve">
<g>
	<circle fill="#3D93D0" cx="72.877" cy="72" r="68.195"/>
	<path fill="#ED2024" d="M71.498-0.005C31.97,0.015-0.03,32.461,0,72.496c0.021,39.367,32.426,71.509,72.076,71.509
		c39.832,0,71.934-32.264,71.924-72.289C144,32.005,111.614-0.025,71.498-0.005z M34.188,23.574
		C49.084,12.296,65.773,8.162,84.053,11.79c10.194,2.026,19.223,6.424,26.681,12.483L71.347,63.67
		c-0.203-0.213-0.405-0.415-0.608-0.628c-1.013-0.688-1.813-1.581-2.543-2.543c-0.436-0.437-0.872-0.861-1.308-1.298
		c-0.852-0.901-1.702-1.803-2.554-2.705c-3.263-2.958-6.363-6.069-9.281-9.373c-0.993-0.71-1.824-1.561-2.544-2.543
		c-0.445-0.436-0.881-0.872-1.327-1.308c-2.797-2.827-5.594-5.654-8.4-8.481c-2.938-2.928-5.816-5.918-8.846-8.744
		C32.709,24.901,33.094,24.405,34.188,23.574z M12.159,57.996c2.088-9.019,6.08-17.166,11.917-24.37
		c0.456-0.567,0.79-1.834,1.985-0.567c3.588,3.77,7.256,7.447,10.894,11.167c1.014,0.699,1.834,1.581,2.554,2.573
		c3.09,3.132,6.19,6.263,9.281,9.394c0.852,0.892,1.702,1.773,2.544,2.665c0.567,0.293,0.973,0.76,1.297,1.297
		c0.993,0.709,1.824,1.561,2.543,2.544c0.223,0.161,0.467,0.304,0.659,0.496c2.654,2.675,5.299,5.36,7.954,8.035l-39.509,39.509
		C12.747,96.501,7.701,77.27,12.159,57.996z M109.831,120.415c-15.705,11.835-33.195,15.817-52.296,11.237
		c-9.799-2.351-18.442-6.92-25.576-13.041l39.57-39.569c5.025,5.077,10.062,10.153,15.088,15.251
		c3.881,3.94,7.711,7.934,11.562,11.905c0.76,0.445,1.327,1.094,1.823,1.804c3.334,3.324,6.617,6.698,10.042,9.931
		C111.22,119.058,110.966,119.563,109.831,120.415z M119.853,110.454c-0.425,0.517-0.719,1.732-1.834,0.567
		c-3.952-4.104-7.944-8.146-11.926-12.221c-0.729-0.496-1.409-1.044-1.794-1.864c-6.333-6.343-12.696-12.666-19-19.04
		c-2.087-2.107-4.174-4.234-6.251-6.363l39.579-39.579c13.224,15.433,18.584,37.198,12.028,58.396
		C128.364,97.737,124.757,104.455,119.853,110.454z"/>
</g>
</svg>
