<?xml version="1.0" encoding="utf-8"?>
<!-- Generator: Adobe Illustrator 16.0.0, SVG Export Plug-In . SVG Version: 6.00 Build 0)  -->
<!DOCTYPE svg PUBLIC "-//W3C//DTD SVG 1.1//EN" "http://www.w3.org/Graphics/SVG/1.1/DTD/svg11.dtd">
<svg version="1.1" id="_x35_0m" xmlns="http://www.w3.org/2000/svg" xmlns:xlink="http://www.w3.org/1999/xlink" x="0px" y="0px"
	 width="144px" height="144px" viewBox="0 0 144 144" enable-background="new 0 0 144 144" xml:space="preserve">
<g>
	<g>
		<g>
			<g>
				<g>
					<path fill="#FFD62C" d="M131.784,43.684c6.108,0,11.095,4.999,11.095,11.095V89.21c0,6.106-4.986,11.095-11.095,11.095H12.204
						c-6.108,0-11.096-4.988-11.096-11.095V54.778c0-6.096,4.999-11.095,11.096-11.095H131.784L131.784,43.684z"/>
				</g>
			</g>
			<g>
				<g>
					<path fill="#010101" d="M131.784,101.413H12.204C5.47,101.413,0,95.931,0,89.21V54.778c0-6.734,5.47-12.191,12.204-12.191
						h119.592c6.734,0,12.204,5.469,12.204,12.191V89.21C143.987,95.944,138.519,101.413,131.784,101.413z M12.204,44.804
						c-5.506,0-9.987,4.48-9.987,9.975V89.21c0,5.492,4.481,9.986,9.987,9.986h119.592c5.506,0,9.987-4.494,9.987-9.986V54.778
						c0-5.494-4.481-9.975-9.987-9.975H12.204z"/>
				</g>
			</g>
		</g>
	</g>
	<polygon fill="#010101" points="116.966,63.332 101.088,54.164 101.088,63.477 42.165,63.477 42.165,53.683 26.299,62.826 
		10.433,71.994 26.299,81.161 42.165,90.33 42.165,80.512 101.088,80.512 101.088,90.812 116.966,81.644 132.832,72.488 	"/>
</g>
</svg>
