<?xml version="1.0" encoding="utf-8"?>
<!-- Generator: Adobe Illustrator 16.0.0, SVG Export Plug-In . SVG Version: 6.00 Build 0)  -->
<!DOCTYPE svg PUBLIC "-//W3C//DTD SVG 1.1//EN" "http://www.w3.org/Graphics/SVG/1.1/DTD/svg11.dtd">
<svg version="1.1" id="_x35_0m" xmlns="http://www.w3.org/2000/svg" xmlns:xlink="http://www.w3.org/1999/xlink" x="0px" y="0px"
	 width="144px" height="144px" viewBox="0 0 144 144" enable-background="new 0 0 144 144" xml:space="preserve">
<g>
	<g>
		<g>
			<path fill="#FFFFFF" d="M77.841,140.757c-3.207,3.207-8.467,3.207-11.674,0L3.241,77.841c-3.206-3.205-3.206-8.465,0-11.672
				L66.167,3.243c3.207-3.207,8.467-3.207,11.674,0l62.916,62.926c3.205,3.207,3.205,8.467,0,11.672L77.841,140.757z"/>
		</g>
	</g>
	<g>
		<g>
			<path fill="#010101" d="M71.999,143.993c-2.426,0-4.709-0.941-6.424-2.645L2.661,78.423c-3.548-3.537-3.548-9.299,0-12.836
				L65.575,2.661c1.715-1.713,3.988-2.654,6.424-2.654c2.434,0,4.709,0.941,6.422,2.645l62.926,62.926
				c3.537,3.537,3.537,9.299,0,12.836l-62.926,62.916C76.708,143.052,74.423,143.993,71.999,143.993z M71.999,1.659
				c-1.994,0-3.857,0.771-5.252,2.166L3.833,66.749c-2.896,2.896-2.896,7.605,0,10.502l62.914,62.926
				c1.404,1.393,3.268,2.164,5.252,2.164s3.857-0.771,5.25-2.164l62.916-62.926c2.895-2.896,2.895-7.605,0-10.502L77.249,3.825
				C75.856,2.431,73.983,1.659,71.999,1.659z"/>
		</g>
	</g>
	<g>
		<g>
			<path fill="#FFD62C" d="M75.747,122.409c-2.105,2.115-5.563,2.115-7.676,0L21.577,75.917c-2.104-2.113-2.104-5.561,0-7.674
				l46.664-46.664c2.113-2.115,5.561-2.115,7.676,0l46.492,46.492c2.115,2.105,2.115,5.563,0,7.666L75.747,122.409z"/>
		</g>
	</g>
	<g>
		<g>
			<defs>
				<path id="SVGID_3_" d="M77.841,140.757c-3.207,3.207-8.467,3.207-11.674,0L3.241,77.841c-3.206-3.205-3.206-8.465,0-11.672
					L66.167,3.243c3.207-3.207,8.467-3.207,11.674,0l62.916,62.926c3.205,3.207,3.205,8.467,0,11.672L77.841,140.757z"/>
			</defs>
			<clipPath id="SVGID_2_">
				<use xlink:href="#SVGID_3_"  overflow="visible"/>
			</clipPath>
			<g clip-path="url(#SVGID_2_)">
				<g>
					<g>
						<g>
							
								<rect x="-13.248" y="62.981" transform="matrix(-0.707 0.7072 -0.7072 -0.707 155.3044 64.3356)" fill="#010101" width="155.146" height="2.715"/>
						</g>
					</g>
				</g>
				<g>
					<g>
						<g>
							
								<rect x="-9.411" y="66.817" transform="matrix(-0.7079 0.7063 -0.7063 -0.7079 164.5685 68.2921)" fill="#010101" width="155.148" height="2.717"/>
						</g>
					</g>
				</g>
				<g>
					<g>
						<g>
							
								<rect x="-5.572" y="70.655" transform="matrix(-0.7071 0.7071 -0.7071 -0.7071 173.8357 72.0212)" fill="#010101" width="155.148" height="2.715"/>
						</g>
					</g>
				</g>
				<g>
					<g>
						<g>
							
								<rect x="-1.735" y="74.492" transform="matrix(-0.7071 0.7071 -0.7071 -0.7071 183.1005 75.8565)" fill="#010101" width="155.149" height="2.715"/>
						</g>
					</g>
				</g>
				<g>
					<g>
						<g>
							<polygon fill="#010101" points="25.776,135.497 23.853,133.583 133.562,23.874 135.485,25.788 							"/>
						</g>
					</g>
				</g>
			</g>
		</g>
	</g>
</g>
</svg>
