<?xml version="1.0" encoding="utf-8"?>
<!-- Generator: Adobe Illustrator 16.0.0, SVG Export Plug-In . SVG Version: 6.00 Build 0)  -->
<!DOCTYPE svg PUBLIC "-//W3C//DTD SVG 1.1//EN" "http://www.w3.org/Graphics/SVG/1.1/DTD/svg11.dtd">
<svg version="1.1" id="_x35_0m" xmlns="http://www.w3.org/2000/svg" xmlns:xlink="http://www.w3.org/1999/xlink" x="0px" y="0px"
	 width="144px" height="144px" viewBox="0 0 144 144" enable-background="new 0 0 144 144" xml:space="preserve">
<g>
	<g>
		<g>
			<g>
				<g>
					<path fill="#FFD62C" d="M12.203,43.695c-6.096,0-11.096,4.987-11.096,11.095v34.42c0,6.106,5,11.106,11.096,11.106h119.592
						c6.108,0,11.096-5,11.096-11.106V54.79c0-6.107-4.999-11.095-11.096-11.095H12.203z"/>
				</g>
			</g>
			<g>
				<g>
					<path fill="#010101" d="M131.795,101.413H12.203C5.469,101.413,0,95.931,0,89.21V54.79c0-6.734,5.469-12.203,12.203-12.203
						h119.592c6.734,0,12.205,5.469,12.205,12.203v34.42C144,95.944,138.518,101.413,131.795,101.413z M12.203,44.804
						c-5.506,0-9.987,4.48-9.987,9.986v34.42c0,5.506,4.481,9.986,9.987,9.986h119.592c5.506,0,9.987-4.48,9.987-9.986V54.79
						c0-5.506-4.481-9.986-9.987-9.986H12.203z"/>
				</g>
			</g>
		</g>
	</g>
	<polygon fill="#010101" points="117.688,62.839 101.822,53.683 101.822,63.488 13.359,63.488 13.359,80.523 101.822,80.523 
		101.822,90.33 117.688,81.161 133.555,72.006 	"/>
</g>
</svg>
