<?xml version="1.0" encoding="utf-8"?>
<!-- Generator: Adobe Illustrator 16.0.0, SVG Export Plug-In . SVG Version: 6.00 Build 0)  -->
<!DOCTYPE svg PUBLIC "-//W3C//DTD SVG 1.1//EN" "http://www.w3.org/Graphics/SVG/1.1/DTD/svg11.dtd">
<svg version="1.1" id="_x35_0m" xmlns="http://www.w3.org/2000/svg" xmlns:xlink="http://www.w3.org/1999/xlink" x="0px" y="0px"
	 width="144px" height="144px" viewBox="0 0 144 144" enable-background="new 0 0 144 144" xml:space="preserve">
<g>
	<g>
		<g>
			<g>
				<path fill="#FFFFFF" d="M77.838,140.768c-3.208,3.206-8.469,3.206-11.675,0L3.228,77.832c-3.207-3.207-3.207-8.469,0-11.675
					L66.163,3.222c3.207-3.207,8.458-3.207,11.675,0l62.935,62.936c3.207,3.206,3.207,8.468,0,11.675L77.838,140.768z"/>
			</g>
		</g>
		<g>
			<g>
				<path fill="#010101" d="M72.005,144.005c-2.435,0-4.71-0.942-6.424-2.656L2.656,78.424C0.942,76.71,0,74.425,0,71.999
					c0-2.425,0.942-4.71,2.646-6.423L65.582,2.65c1.714-1.714,3.989-2.655,6.424-2.655c2.425,0,4.71,0.941,6.423,2.646
					l62.926,62.925c1.713,1.714,2.646,3.988,2.646,6.424s-0.942,4.71-2.646,6.424l-62.926,62.936
					C76.716,143.063,74.431,144.005,72.005,144.005z M72.005,1.648c-1.994,0-3.858,0.771-5.251,2.165L3.818,66.748
					c-1.393,1.394-2.164,3.258-2.164,5.251c0,1.995,0.771,3.858,2.164,5.251l62.936,62.937c1.393,1.393,3.257,2.165,5.251,2.165
					c1.995,0,3.858-0.772,5.251-2.165l62.937-62.937c1.393-1.393,2.164-3.266,2.164-5.251c0-1.983-0.771-3.857-2.164-5.251
					L77.256,3.813C75.863,2.42,74,1.648,72.005,1.648z"/>
			</g>
		</g>
	</g>
	<g>
		<g>
			<path fill="#FFD62C" d="M75.753,122.418c-2.114,2.114-5.562,2.114-7.667,0l-46.5-46.5c-2.115-2.115-2.115-5.563,0-7.677
				l46.67-46.67c2.115-2.115,5.562-2.115,7.667,0l46.5,46.5c2.115,2.104,2.115,5.562,0,7.666L75.753,122.418z"/>
		</g>
	</g>
</g>
</svg>
