<?xml version="1.0" encoding="utf-8"?>
<!-- Generator: Adobe Illustrator 16.0.0, SVG Export Plug-In . SVG Version: 6.00 Build 0)  -->
<!DOCTYPE svg PUBLIC "-//W3C//DTD SVG 1.1//EN" "http://www.w3.org/Graphics/SVG/1.1/DTD/svg11.dtd">
<svg version="1.1" id="_x35_0m" xmlns="http://www.w3.org/2000/svg" xmlns:xlink="http://www.w3.org/1999/xlink" x="0px" y="0px"
	 width="144px" height="144px" viewBox="0 0 144 144" enable-background="new 0 0 144 144" xml:space="preserve">
<g>
	<g>
		<g>
			<g>
				<g>
					<path fill="#FFD62C" d="M131.783,43.695c6.108,0,11.095,4.999,11.095,11.095v34.42c0,6.106-4.986,11.095-11.095,11.095H12.203
						c-6.107,0-11.096-5-11.096-11.095V54.79c0-6.107,5-11.095,11.096-11.095H131.783z"/>
				</g>
			</g>
			<g>
				<g>
					<path fill="#010101" d="M131.783,101.413H12.203C5.469,101.413,0,95.944,0,89.21V54.79c0-6.734,5.469-12.203,12.203-12.203
						h119.592c6.734,0,12.205,5.481,12.205,12.203v34.42C143.987,95.944,138.518,101.413,131.783,101.413z M12.203,44.804
						c-5.506,0-9.987,4.481-9.987,9.986v34.42c0,5.505,4.481,9.986,9.987,9.986h119.592c5.506,0,9.987-4.481,9.987-9.986V54.79
						c0-5.505-4.481-9.986-9.987-9.986H12.203z"/>
				</g>
			</g>
		</g>
	</g>
	<polygon fill="#010101" points="130.639,63.488 42.164,63.488 42.164,53.683 26.299,62.839 10.433,72.006 26.299,81.161 
		42.164,90.33 42.164,80.512 130.639,80.512 	"/>
</g>
</svg>
