<?xml version="1.0" encoding="utf-8"?>
<!-- Generator: Adobe Illustrator 16.0.0, SVG Export Plug-In . SVG Version: 6.00 Build 0)  -->
<!DOCTYPE svg PUBLIC "-//W3C//DTD SVG 1.1//EN" "http://www.w3.org/Graphics/SVG/1.1/DTD/svg11.dtd">
<svg version="1.1" id="_x35_0m" xmlns="http://www.w3.org/2000/svg" xmlns:xlink="http://www.w3.org/1999/xlink" x="0px" y="0px"
	 width="144px" height="144px" viewBox="0 0 144 144" enable-background="new 0 0 144 144" xml:space="preserve">
<g>
	<path fill="#D23A27" d="M71.989,135.169c-2.181,0-4.199-1.163-5.301-3.059L0.818,18.008c-1.091-1.897-1.091-4.222,0-6.118
		c1.09-1.896,3.109-3.059,5.302-3.059h131.76c2.183,0,4.2,1.163,5.302,3.059c1.091,1.896,1.091,4.221,0,6.118L77.291,132.11
		C76.19,134.006,74.172,135.169,71.989,135.169z"/>
	<polygon fill="#FFFFFF" points="16.702,21.065 71.989,116.817 127.277,21.065 	"/>
	<g>
		<polygon fill="#010101" points="41.344,35.694 38.041,28.764 33.33,28.764 39.294,39.519 39.294,46.003 43.302,46.003 
			43.302,39.519 49.071,28.764 44.515,28.764 		"/>
		<rect x="52.437" y="28.764" fill="#010101" width="3.985" height="17.239"/>
		<polygon fill="#010101" points="65.527,38.692 73.652,38.692 73.652,35.277 65.527,35.277 65.527,32.229 74.376,32.229 
			74.376,28.764 61.591,28.764 61.591,46.003 74.784,46.003 74.784,42.485 65.527,42.485 		"/>
		<polygon fill="#010101" points="83.326,28.764 79.32,28.764 79.32,46.003 91.615,46.003 91.615,42.485 83.326,42.485 		"/>
		<path fill="#010101" d="M110.191,34.146c-0.215-0.999-0.633-1.937-1.234-2.793c-0.755-1.071-1.754-1.814-2.978-2.223
			c-0.713-0.234-1.61-0.357-2.67-0.378h-7.463v17.24h7.463c2.609,0,4.577-1.091,5.831-3.252c0.907-1.581,1.377-3.518,1.377-5.781
			C110.518,36.083,110.405,35.135,110.191,34.146z M99.751,32.178h2.967c1.488,0,2.487,0.418,2.968,1.233
			c0.498,0.877,0.764,2.151,0.764,3.804c0,1.192-0.174,2.242-0.52,3.099c-0.612,1.529-1.662,2.283-3.212,2.283h-2.967V32.178z"/>
	</g>
</g>
</svg>
